G04 #@! TF.GenerationSoftware,KiCad,Pcbnew,(5.1.5)-3*
G04 #@! TF.CreationDate,2020-07-08T10:13:06+02:00*
G04 #@! TF.ProjectId,SBIO3,5342494f-332e-46b6-9963-61645f706362,rev?*
G04 #@! TF.SameCoordinates,Original*
G04 #@! TF.FileFunction,Legend,Top*
G04 #@! TF.FilePolarity,Positive*
%FSLAX46Y46*%
G04 Gerber Fmt 4.6, Leading zero omitted, Abs format (unit mm)*
G04 Created by KiCad (PCBNEW (5.1.5)-3) date 2020-07-08 10:13:06*
%MOMM*%
%LPD*%
G04 APERTURE LIST*
%ADD10C,0.120000*%
%ADD11C,0.150000*%
G04 APERTURE END LIST*
D10*
X69815000Y-162284000D02*
X71145000Y-162284000D01*
X71145000Y-162284000D02*
X71145000Y-163614000D01*
X68545000Y-162284000D02*
X68545000Y-164884000D01*
X68545000Y-164884000D02*
X71145000Y-164884000D01*
X71145000Y-164884000D02*
X71145000Y-175104000D01*
X65945000Y-175104000D02*
X71145000Y-175104000D01*
X65945000Y-162284000D02*
X65945000Y-175104000D01*
X65945000Y-162284000D02*
X68545000Y-162284000D01*
X159921500Y-163490500D02*
X161251500Y-163490500D01*
X161251500Y-163490500D02*
X161251500Y-164820500D01*
X161251500Y-166090500D02*
X161251500Y-173770500D01*
X158591500Y-173770500D02*
X161251500Y-173770500D01*
X158591500Y-166090500D02*
X158591500Y-173770500D01*
X158591500Y-166090500D02*
X161251500Y-166090500D01*
X78298870Y-167995163D02*
G75*
G02X80380961Y-167995000I1041130J-1079837D01*
G01*
X78298870Y-170154837D02*
G75*
G03X80380961Y-170155000I1041130J1079837D01*
G01*
X77667665Y-167996392D02*
G75*
G02X80900000Y-167839484I1672335J-1078608D01*
G01*
X77667665Y-170153608D02*
G75*
G03X80900000Y-170310516I1672335J1078608D01*
G01*
X80900000Y-167995000D02*
X80900000Y-167839000D01*
X80900000Y-170311000D02*
X80900000Y-170155000D01*
X78298870Y-161645163D02*
G75*
G02X80380961Y-161645000I1041130J-1079837D01*
G01*
X78298870Y-163804837D02*
G75*
G03X80380961Y-163805000I1041130J1079837D01*
G01*
X77667665Y-161646392D02*
G75*
G02X80900000Y-161489484I1672335J-1078608D01*
G01*
X77667665Y-163803608D02*
G75*
G03X80900000Y-163960516I1672335J1078608D01*
G01*
X80900000Y-161645000D02*
X80900000Y-161489000D01*
X80900000Y-163961000D02*
X80900000Y-163805000D01*
D11*
X79035000Y-187485000D02*
X79035000Y-187460000D01*
X74885000Y-187485000D02*
X74885000Y-187380000D01*
X74885000Y-177335000D02*
X74885000Y-177440000D01*
X79035000Y-177335000D02*
X79035000Y-177440000D01*
X79035000Y-187485000D02*
X74885000Y-187485000D01*
X79035000Y-177335000D02*
X74885000Y-177335000D01*
X79035000Y-187460000D02*
X80410000Y-187460000D01*
D10*
X114030000Y-156835000D02*
X114030000Y-155335000D01*
X112780000Y-152835000D02*
X108280000Y-152835000D01*
X107030000Y-155335000D02*
X107030000Y-156835000D01*
X108280000Y-159335000D02*
X112780000Y-159335000D01*
X75895000Y-159335000D02*
X80395000Y-159335000D01*
X74645000Y-155335000D02*
X74645000Y-156835000D01*
X80395000Y-152835000D02*
X75895000Y-152835000D01*
X81645000Y-156835000D02*
X81645000Y-155335000D01*
D11*
X112530000Y-187460000D02*
X113905000Y-187460000D01*
X112530000Y-177335000D02*
X108380000Y-177335000D01*
X112530000Y-187485000D02*
X108380000Y-187485000D01*
X112530000Y-177335000D02*
X112530000Y-177440000D01*
X108380000Y-177335000D02*
X108380000Y-177440000D01*
X108380000Y-187485000D02*
X108380000Y-187380000D01*
X112530000Y-187485000D02*
X112530000Y-187460000D01*
D10*
X86690000Y-159335000D02*
X91190000Y-159335000D01*
X85440000Y-155335000D02*
X85440000Y-156835000D01*
X91190000Y-152835000D02*
X86690000Y-152835000D01*
X92440000Y-156835000D02*
X92440000Y-155335000D01*
X124825000Y-156835000D02*
X124825000Y-155335000D01*
X123575000Y-152835000D02*
X119075000Y-152835000D01*
X117825000Y-155335000D02*
X117825000Y-156835000D01*
X119075000Y-159335000D02*
X123575000Y-159335000D01*
X103235000Y-156835000D02*
X103235000Y-155335000D01*
X101985000Y-152835000D02*
X97485000Y-152835000D01*
X96235000Y-155335000D02*
X96235000Y-156835000D01*
X97485000Y-159335000D02*
X101985000Y-159335000D01*
X132970000Y-170535000D02*
X132970000Y-170379000D01*
X132970000Y-172851000D02*
X132970000Y-172695000D01*
X130368870Y-170535163D02*
G75*
G02X132450961Y-170535000I1041130J-1079837D01*
G01*
X130368870Y-172694837D02*
G75*
G03X132450961Y-172695000I1041130J1079837D01*
G01*
X129737665Y-170536392D02*
G75*
G02X132970000Y-170379484I1672335J-1078608D01*
G01*
X129737665Y-172693608D02*
G75*
G03X132970000Y-172850516I1672335J1078608D01*
G01*
X88095000Y-186900000D02*
X87095000Y-186900000D01*
X87095000Y-185540000D02*
X88095000Y-185540000D01*
X145880000Y-172295000D02*
X144880000Y-172295000D01*
X144880000Y-170935000D02*
X145880000Y-170935000D01*
X91002665Y-187298608D02*
G75*
G03X94235000Y-187455516I1672335J1078608D01*
G01*
X91002665Y-185141392D02*
G75*
G02X94235000Y-184984484I1672335J-1078608D01*
G01*
X91633870Y-187299837D02*
G75*
G03X93715961Y-187300000I1041130J1079837D01*
G01*
X91633870Y-185140163D02*
G75*
G02X93715961Y-185140000I1041130J-1079837D01*
G01*
X94235000Y-187456000D02*
X94235000Y-187300000D01*
X94235000Y-185140000D02*
X94235000Y-184984000D01*
X94235000Y-167995000D02*
X94235000Y-167839000D01*
X94235000Y-170311000D02*
X94235000Y-170155000D01*
X91633870Y-167995163D02*
G75*
G02X93715961Y-167995000I1041130J-1079837D01*
G01*
X91633870Y-170154837D02*
G75*
G03X93715961Y-170155000I1041130J1079837D01*
G01*
X91002665Y-167996392D02*
G75*
G02X94235000Y-167839484I1672335J-1078608D01*
G01*
X91002665Y-170153608D02*
G75*
G03X94235000Y-170310516I1672335J1078608D01*
G01*
X94235000Y-162280000D02*
X94235000Y-162124000D01*
X94235000Y-164596000D02*
X94235000Y-164440000D01*
X91633870Y-162280163D02*
G75*
G02X93715961Y-162280000I1041130J-1079837D01*
G01*
X91633870Y-164439837D02*
G75*
G03X93715961Y-164440000I1041130J1079837D01*
G01*
X91002665Y-162281392D02*
G75*
G02X94235000Y-162124484I1672335J-1078608D01*
G01*
X91002665Y-164438608D02*
G75*
G03X94235000Y-164595516I1672335J1078608D01*
G01*
X129737665Y-184123608D02*
G75*
G03X132970000Y-184280516I1672335J1078608D01*
G01*
X129737665Y-181966392D02*
G75*
G02X132970000Y-181809484I1672335J-1078608D01*
G01*
X130368870Y-184124837D02*
G75*
G03X132450961Y-184125000I1041130J1079837D01*
G01*
X130368870Y-181965163D02*
G75*
G02X132450961Y-181965000I1041130J-1079837D01*
G01*
X132970000Y-184281000D02*
X132970000Y-184125000D01*
X132970000Y-181965000D02*
X132970000Y-181809000D01*
X141337335Y-176251392D02*
G75*
G03X138105000Y-176094484I-1672335J-1078608D01*
G01*
X141337335Y-178408608D02*
G75*
G02X138105000Y-178565516I-1672335J1078608D01*
G01*
X140706130Y-176250163D02*
G75*
G03X138624039Y-176250000I-1041130J-1079837D01*
G01*
X140706130Y-178409837D02*
G75*
G02X138624039Y-178410000I-1041130J1079837D01*
G01*
X138105000Y-176094000D02*
X138105000Y-176250000D01*
X138105000Y-178410000D02*
X138105000Y-178566000D01*
X132970000Y-164820000D02*
X132970000Y-164664000D01*
X132970000Y-167136000D02*
X132970000Y-166980000D01*
X130368870Y-164820163D02*
G75*
G02X132450961Y-164820000I1041130J-1079837D01*
G01*
X130368870Y-166979837D02*
G75*
G03X132450961Y-166980000I1041130J1079837D01*
G01*
X129737665Y-164821392D02*
G75*
G02X132970000Y-164664484I1672335J-1078608D01*
G01*
X129737665Y-166978608D02*
G75*
G03X132970000Y-167135516I1672335J1078608D01*
G01*
X65960000Y-178295000D02*
X65960000Y-177295000D01*
X67320000Y-177295000D02*
X67320000Y-178295000D01*
X69950000Y-184905000D02*
X70950000Y-184905000D01*
X70950000Y-186265000D02*
X69950000Y-186265000D01*
X126195000Y-178010000D02*
X125195000Y-178010000D01*
X125195000Y-176650000D02*
X126195000Y-176650000D01*
X88095000Y-169755000D02*
X87095000Y-169755000D01*
X87095000Y-168395000D02*
X88095000Y-168395000D01*
X125195000Y-165220000D02*
X126195000Y-165220000D01*
X126195000Y-166580000D02*
X125195000Y-166580000D01*
X94235000Y-173710000D02*
X94235000Y-173554000D01*
X94235000Y-176026000D02*
X94235000Y-175870000D01*
X91633870Y-173710163D02*
G75*
G02X93715961Y-173710000I1041130J-1079837D01*
G01*
X91633870Y-175869837D02*
G75*
G03X93715961Y-175870000I1041130J1079837D01*
G01*
X91002665Y-173711392D02*
G75*
G02X94235000Y-173554484I1672335J-1078608D01*
G01*
X91002665Y-175868608D02*
G75*
G03X94235000Y-176025516I1672335J1078608D01*
G01*
X141337335Y-170536392D02*
G75*
G03X138105000Y-170379484I-1672335J-1078608D01*
G01*
X141337335Y-172693608D02*
G75*
G02X138105000Y-172850516I-1672335J1078608D01*
G01*
X140706130Y-170535163D02*
G75*
G03X138624039Y-170535000I-1041130J-1079837D01*
G01*
X140706130Y-172694837D02*
G75*
G02X138624039Y-172695000I-1041130J1079837D01*
G01*
X138105000Y-170379000D02*
X138105000Y-170535000D01*
X138105000Y-172695000D02*
X138105000Y-172851000D01*
X87095000Y-162680000D02*
X88095000Y-162680000D01*
X88095000Y-164040000D02*
X87095000Y-164040000D01*
X74215000Y-164325000D02*
X74215000Y-163325000D01*
X75575000Y-163325000D02*
X75575000Y-164325000D01*
X87095000Y-174110000D02*
X88095000Y-174110000D01*
X88095000Y-175470000D02*
X87095000Y-175470000D01*
X88095000Y-181185000D02*
X87095000Y-181185000D01*
X87095000Y-179825000D02*
X88095000Y-179825000D01*
X141337335Y-181966392D02*
G75*
G03X138105000Y-181809484I-1672335J-1078608D01*
G01*
X141337335Y-184123608D02*
G75*
G02X138105000Y-184280516I-1672335J1078608D01*
G01*
X140706130Y-181965163D02*
G75*
G03X138624039Y-181965000I-1041130J-1079837D01*
G01*
X140706130Y-184124837D02*
G75*
G02X138624039Y-184125000I-1041130J1079837D01*
G01*
X138105000Y-181809000D02*
X138105000Y-181965000D01*
X138105000Y-184125000D02*
X138105000Y-184281000D01*
X129737665Y-178408608D02*
G75*
G03X132970000Y-178565516I1672335J1078608D01*
G01*
X129737665Y-176251392D02*
G75*
G02X132970000Y-176094484I1672335J-1078608D01*
G01*
X130368870Y-178409837D02*
G75*
G03X132450961Y-178410000I1041130J1079837D01*
G01*
X130368870Y-176250163D02*
G75*
G02X132450961Y-176250000I1041130J-1079837D01*
G01*
X132970000Y-178566000D02*
X132970000Y-178410000D01*
X132970000Y-176250000D02*
X132970000Y-176094000D01*
X69225000Y-177295000D02*
X69225000Y-178295000D01*
X67865000Y-178295000D02*
X67865000Y-177295000D01*
X138105000Y-166980000D02*
X138105000Y-167136000D01*
X138105000Y-164664000D02*
X138105000Y-164820000D01*
X140706130Y-166979837D02*
G75*
G02X138624039Y-166980000I-1041130J1079837D01*
G01*
X140706130Y-164820163D02*
G75*
G03X138624039Y-164820000I-1041130J-1079837D01*
G01*
X141337335Y-166978608D02*
G75*
G02X138105000Y-167135516I-1672335J1078608D01*
G01*
X141337335Y-164821392D02*
G75*
G03X138105000Y-164664484I-1672335J-1078608D01*
G01*
X71130000Y-177295000D02*
X71130000Y-178295000D01*
X69770000Y-178295000D02*
X69770000Y-177295000D01*
X144880000Y-182365000D02*
X145880000Y-182365000D01*
X145880000Y-183725000D02*
X144880000Y-183725000D01*
X116770000Y-149980000D02*
X117770000Y-149980000D01*
X117770000Y-151340000D02*
X116770000Y-151340000D01*
X144880000Y-165220000D02*
X145880000Y-165220000D01*
X145880000Y-166580000D02*
X144880000Y-166580000D01*
X125195000Y-182365000D02*
X126195000Y-182365000D01*
X126195000Y-183725000D02*
X125195000Y-183725000D01*
X144880000Y-176650000D02*
X145880000Y-176650000D01*
X145880000Y-178010000D02*
X144880000Y-178010000D01*
X125195000Y-170935000D02*
X126195000Y-170935000D01*
X126195000Y-172295000D02*
X125195000Y-172295000D01*
X94235000Y-179425000D02*
X94235000Y-179269000D01*
X94235000Y-181741000D02*
X94235000Y-181585000D01*
X91633870Y-179425163D02*
G75*
G02X93715961Y-179425000I1041130J-1079837D01*
G01*
X91633870Y-181584837D02*
G75*
G03X93715961Y-181585000I1041130J1079837D01*
G01*
X91002665Y-179426392D02*
G75*
G02X94235000Y-179269484I1672335J-1078608D01*
G01*
X91002665Y-181583608D02*
G75*
G03X94235000Y-181740516I1672335J1078608D01*
G01*
D11*
X67735476Y-160296380D02*
X67735476Y-161010666D01*
X67687857Y-161153523D01*
X67592619Y-161248761D01*
X67449761Y-161296380D01*
X67354523Y-161296380D01*
X68735476Y-161296380D02*
X68164047Y-161296380D01*
X68449761Y-161296380D02*
X68449761Y-160296380D01*
X68354523Y-160439238D01*
X68259285Y-160534476D01*
X68164047Y-160582095D01*
X69068809Y-160296380D02*
X69687857Y-160296380D01*
X69354523Y-160677333D01*
X69497380Y-160677333D01*
X69592619Y-160724952D01*
X69640238Y-160772571D01*
X69687857Y-160867809D01*
X69687857Y-161105904D01*
X69640238Y-161201142D01*
X69592619Y-161248761D01*
X69497380Y-161296380D01*
X69211666Y-161296380D01*
X69116428Y-161248761D01*
X69068809Y-161201142D01*
X159111976Y-161502880D02*
X159111976Y-162217166D01*
X159064357Y-162360023D01*
X158969119Y-162455261D01*
X158826261Y-162502880D01*
X158731023Y-162502880D01*
X160111976Y-162502880D02*
X159540547Y-162502880D01*
X159826261Y-162502880D02*
X159826261Y-161502880D01*
X159731023Y-161645738D01*
X159635785Y-161740976D01*
X159540547Y-161788595D01*
X160969119Y-161836214D02*
X160969119Y-162502880D01*
X160731023Y-161455261D02*
X160492928Y-162169547D01*
X161111976Y-162169547D01*
X79370314Y-171914980D02*
X79370314Y-170914980D01*
X79608409Y-170914980D01*
X79751266Y-170962600D01*
X79846504Y-171057838D01*
X79894123Y-171153076D01*
X79941742Y-171343552D01*
X79941742Y-171486409D01*
X79894123Y-171676885D01*
X79846504Y-171772123D01*
X79751266Y-171867361D01*
X79608409Y-171914980D01*
X79370314Y-171914980D01*
X80894123Y-171914980D02*
X80322695Y-171914980D01*
X80608409Y-171914980D02*
X80608409Y-170914980D01*
X80513171Y-171057838D01*
X80417933Y-171153076D01*
X80322695Y-171200695D01*
X81798885Y-170914980D02*
X81322695Y-170914980D01*
X81275076Y-171391171D01*
X81322695Y-171343552D01*
X81417933Y-171295933D01*
X81656028Y-171295933D01*
X81751266Y-171343552D01*
X81798885Y-171391171D01*
X81846504Y-171486409D01*
X81846504Y-171724504D01*
X81798885Y-171819742D01*
X81751266Y-171867361D01*
X81656028Y-171914980D01*
X81417933Y-171914980D01*
X81322695Y-171867361D01*
X81275076Y-171819742D01*
X79370314Y-165564980D02*
X79370314Y-164564980D01*
X79608409Y-164564980D01*
X79751266Y-164612600D01*
X79846504Y-164707838D01*
X79894123Y-164803076D01*
X79941742Y-164993552D01*
X79941742Y-165136409D01*
X79894123Y-165326885D01*
X79846504Y-165422123D01*
X79751266Y-165517361D01*
X79608409Y-165564980D01*
X79370314Y-165564980D01*
X80894123Y-165564980D02*
X80322695Y-165564980D01*
X80608409Y-165564980D02*
X80608409Y-164564980D01*
X80513171Y-164707838D01*
X80417933Y-164803076D01*
X80322695Y-164850695D01*
X81751266Y-164898314D02*
X81751266Y-165564980D01*
X81513171Y-164517361D02*
X81275076Y-165231647D01*
X81894123Y-165231647D01*
X75721904Y-187862380D02*
X75721904Y-188671904D01*
X75769523Y-188767142D01*
X75817142Y-188814761D01*
X75912380Y-188862380D01*
X76102857Y-188862380D01*
X76198095Y-188814761D01*
X76245714Y-188767142D01*
X76293333Y-188671904D01*
X76293333Y-187862380D01*
X77293333Y-188862380D02*
X76721904Y-188862380D01*
X77007619Y-188862380D02*
X77007619Y-187862380D01*
X76912380Y-188005238D01*
X76817142Y-188100476D01*
X76721904Y-188148095D01*
X77769523Y-188862380D02*
X77960000Y-188862380D01*
X78055238Y-188814761D01*
X78102857Y-188767142D01*
X78198095Y-188624285D01*
X78245714Y-188433809D01*
X78245714Y-188052857D01*
X78198095Y-187957619D01*
X78150476Y-187910000D01*
X78055238Y-187862380D01*
X77864761Y-187862380D01*
X77769523Y-187910000D01*
X77721904Y-187957619D01*
X77674285Y-188052857D01*
X77674285Y-188290952D01*
X77721904Y-188386190D01*
X77769523Y-188433809D01*
X77864761Y-188481428D01*
X78055238Y-188481428D01*
X78150476Y-188433809D01*
X78198095Y-188386190D01*
X78245714Y-188290952D01*
X109196666Y-152239761D02*
X109339523Y-152287380D01*
X109577619Y-152287380D01*
X109672857Y-152239761D01*
X109720476Y-152192142D01*
X109768095Y-152096904D01*
X109768095Y-152001666D01*
X109720476Y-151906428D01*
X109672857Y-151858809D01*
X109577619Y-151811190D01*
X109387142Y-151763571D01*
X109291904Y-151715952D01*
X109244285Y-151668333D01*
X109196666Y-151573095D01*
X109196666Y-151477857D01*
X109244285Y-151382619D01*
X109291904Y-151335000D01*
X109387142Y-151287380D01*
X109625238Y-151287380D01*
X109768095Y-151335000D01*
X110101428Y-151287380D02*
X110339523Y-152287380D01*
X110530000Y-151573095D01*
X110720476Y-152287380D01*
X110958571Y-151287380D01*
X111863333Y-152287380D02*
X111291904Y-152287380D01*
X111577619Y-152287380D02*
X111577619Y-151287380D01*
X111482380Y-151430238D01*
X111387142Y-151525476D01*
X111291904Y-151573095D01*
X76811666Y-152239761D02*
X76954523Y-152287380D01*
X77192619Y-152287380D01*
X77287857Y-152239761D01*
X77335476Y-152192142D01*
X77383095Y-152096904D01*
X77383095Y-152001666D01*
X77335476Y-151906428D01*
X77287857Y-151858809D01*
X77192619Y-151811190D01*
X77002142Y-151763571D01*
X76906904Y-151715952D01*
X76859285Y-151668333D01*
X76811666Y-151573095D01*
X76811666Y-151477857D01*
X76859285Y-151382619D01*
X76906904Y-151335000D01*
X77002142Y-151287380D01*
X77240238Y-151287380D01*
X77383095Y-151335000D01*
X77716428Y-151287380D02*
X77954523Y-152287380D01*
X78145000Y-151573095D01*
X78335476Y-152287380D01*
X78573571Y-151287380D01*
X78906904Y-151382619D02*
X78954523Y-151335000D01*
X79049761Y-151287380D01*
X79287857Y-151287380D01*
X79383095Y-151335000D01*
X79430714Y-151382619D01*
X79478333Y-151477857D01*
X79478333Y-151573095D01*
X79430714Y-151715952D01*
X78859285Y-152287380D01*
X79478333Y-152287380D01*
X109216904Y-187862380D02*
X109216904Y-188671904D01*
X109264523Y-188767142D01*
X109312142Y-188814761D01*
X109407380Y-188862380D01*
X109597857Y-188862380D01*
X109693095Y-188814761D01*
X109740714Y-188767142D01*
X109788333Y-188671904D01*
X109788333Y-187862380D01*
X110216904Y-187957619D02*
X110264523Y-187910000D01*
X110359761Y-187862380D01*
X110597857Y-187862380D01*
X110693095Y-187910000D01*
X110740714Y-187957619D01*
X110788333Y-188052857D01*
X110788333Y-188148095D01*
X110740714Y-188290952D01*
X110169285Y-188862380D01*
X110788333Y-188862380D01*
X111407380Y-187862380D02*
X111502619Y-187862380D01*
X111597857Y-187910000D01*
X111645476Y-187957619D01*
X111693095Y-188052857D01*
X111740714Y-188243333D01*
X111740714Y-188481428D01*
X111693095Y-188671904D01*
X111645476Y-188767142D01*
X111597857Y-188814761D01*
X111502619Y-188862380D01*
X111407380Y-188862380D01*
X111312142Y-188814761D01*
X111264523Y-188767142D01*
X111216904Y-188671904D01*
X111169285Y-188481428D01*
X111169285Y-188243333D01*
X111216904Y-188052857D01*
X111264523Y-187957619D01*
X111312142Y-187910000D01*
X111407380Y-187862380D01*
X87606666Y-152239761D02*
X87749523Y-152287380D01*
X87987619Y-152287380D01*
X88082857Y-152239761D01*
X88130476Y-152192142D01*
X88178095Y-152096904D01*
X88178095Y-152001666D01*
X88130476Y-151906428D01*
X88082857Y-151858809D01*
X87987619Y-151811190D01*
X87797142Y-151763571D01*
X87701904Y-151715952D01*
X87654285Y-151668333D01*
X87606666Y-151573095D01*
X87606666Y-151477857D01*
X87654285Y-151382619D01*
X87701904Y-151335000D01*
X87797142Y-151287380D01*
X88035238Y-151287380D01*
X88178095Y-151335000D01*
X88511428Y-151287380D02*
X88749523Y-152287380D01*
X88940000Y-151573095D01*
X89130476Y-152287380D01*
X89368571Y-151287380D01*
X90178095Y-151620714D02*
X90178095Y-152287380D01*
X89940000Y-151239761D02*
X89701904Y-151954047D01*
X90320952Y-151954047D01*
X119991666Y-152239761D02*
X120134523Y-152287380D01*
X120372619Y-152287380D01*
X120467857Y-152239761D01*
X120515476Y-152192142D01*
X120563095Y-152096904D01*
X120563095Y-152001666D01*
X120515476Y-151906428D01*
X120467857Y-151858809D01*
X120372619Y-151811190D01*
X120182142Y-151763571D01*
X120086904Y-151715952D01*
X120039285Y-151668333D01*
X119991666Y-151573095D01*
X119991666Y-151477857D01*
X120039285Y-151382619D01*
X120086904Y-151335000D01*
X120182142Y-151287380D01*
X120420238Y-151287380D01*
X120563095Y-151335000D01*
X120896428Y-151287380D02*
X121134523Y-152287380D01*
X121325000Y-151573095D01*
X121515476Y-152287380D01*
X121753571Y-151287380D01*
X122610714Y-151287380D02*
X122134523Y-151287380D01*
X122086904Y-151763571D01*
X122134523Y-151715952D01*
X122229761Y-151668333D01*
X122467857Y-151668333D01*
X122563095Y-151715952D01*
X122610714Y-151763571D01*
X122658333Y-151858809D01*
X122658333Y-152096904D01*
X122610714Y-152192142D01*
X122563095Y-152239761D01*
X122467857Y-152287380D01*
X122229761Y-152287380D01*
X122134523Y-152239761D01*
X122086904Y-152192142D01*
X98393665Y-151923760D02*
X98536522Y-151971379D01*
X98774618Y-151971379D01*
X98869856Y-151923760D01*
X98917475Y-151876141D01*
X98965094Y-151780903D01*
X98965094Y-151685665D01*
X98917475Y-151590427D01*
X98869856Y-151542808D01*
X98774618Y-151495189D01*
X98584141Y-151447570D01*
X98488903Y-151399951D01*
X98441284Y-151352332D01*
X98393665Y-151257094D01*
X98393665Y-151161856D01*
X98441284Y-151066618D01*
X98488903Y-151018999D01*
X98584141Y-150971379D01*
X98822237Y-150971379D01*
X98965094Y-151018999D01*
X99298427Y-150971379D02*
X99536522Y-151971379D01*
X99726999Y-151257094D01*
X99917475Y-151971379D01*
X100155570Y-150971379D01*
X100441284Y-150971379D02*
X101060332Y-150971379D01*
X100726999Y-151352332D01*
X100869856Y-151352332D01*
X100965094Y-151399951D01*
X101012713Y-151447570D01*
X101060332Y-151542808D01*
X101060332Y-151780903D01*
X101012713Y-151876141D01*
X100965094Y-151923760D01*
X100869856Y-151971379D01*
X100584141Y-151971379D01*
X100488903Y-151923760D01*
X100441284Y-151876141D01*
X130195714Y-175027380D02*
X130195714Y-174027380D01*
X130433809Y-174027380D01*
X130576666Y-174075000D01*
X130671904Y-174170238D01*
X130719523Y-174265476D01*
X130767142Y-174455952D01*
X130767142Y-174598809D01*
X130719523Y-174789285D01*
X130671904Y-174884523D01*
X130576666Y-174979761D01*
X130433809Y-175027380D01*
X130195714Y-175027380D01*
X131100476Y-174027380D02*
X131719523Y-174027380D01*
X131386190Y-174408333D01*
X131529047Y-174408333D01*
X131624285Y-174455952D01*
X131671904Y-174503571D01*
X131719523Y-174598809D01*
X131719523Y-174836904D01*
X131671904Y-174932142D01*
X131624285Y-174979761D01*
X131529047Y-175027380D01*
X131243333Y-175027380D01*
X131148095Y-174979761D01*
X131100476Y-174932142D01*
X132624285Y-174027380D02*
X132148095Y-174027380D01*
X132100476Y-174503571D01*
X132148095Y-174455952D01*
X132243333Y-174408333D01*
X132481428Y-174408333D01*
X132576666Y-174455952D01*
X132624285Y-174503571D01*
X132671904Y-174598809D01*
X132671904Y-174836904D01*
X132624285Y-174932142D01*
X132576666Y-174979761D01*
X132481428Y-175027380D01*
X132243333Y-175027380D01*
X132148095Y-174979761D01*
X132100476Y-174932142D01*
X86952142Y-188122380D02*
X86618809Y-187646190D01*
X86380714Y-188122380D02*
X86380714Y-187122380D01*
X86761666Y-187122380D01*
X86856904Y-187170000D01*
X86904523Y-187217619D01*
X86952142Y-187312857D01*
X86952142Y-187455714D01*
X86904523Y-187550952D01*
X86856904Y-187598571D01*
X86761666Y-187646190D01*
X86380714Y-187646190D01*
X87856904Y-187122380D02*
X87380714Y-187122380D01*
X87333095Y-187598571D01*
X87380714Y-187550952D01*
X87475952Y-187503333D01*
X87714047Y-187503333D01*
X87809285Y-187550952D01*
X87856904Y-187598571D01*
X87904523Y-187693809D01*
X87904523Y-187931904D01*
X87856904Y-188027142D01*
X87809285Y-188074761D01*
X87714047Y-188122380D01*
X87475952Y-188122380D01*
X87380714Y-188074761D01*
X87333095Y-188027142D01*
X88237857Y-187122380D02*
X88904523Y-187122380D01*
X88475952Y-188122380D01*
X144737142Y-170617380D02*
X144403809Y-170141190D01*
X144165714Y-170617380D02*
X144165714Y-169617380D01*
X144546666Y-169617380D01*
X144641904Y-169665000D01*
X144689523Y-169712619D01*
X144737142Y-169807857D01*
X144737142Y-169950714D01*
X144689523Y-170045952D01*
X144641904Y-170093571D01*
X144546666Y-170141190D01*
X144165714Y-170141190D01*
X145594285Y-169617380D02*
X145403809Y-169617380D01*
X145308571Y-169665000D01*
X145260952Y-169712619D01*
X145165714Y-169855476D01*
X145118095Y-170045952D01*
X145118095Y-170426904D01*
X145165714Y-170522142D01*
X145213333Y-170569761D01*
X145308571Y-170617380D01*
X145499047Y-170617380D01*
X145594285Y-170569761D01*
X145641904Y-170522142D01*
X145689523Y-170426904D01*
X145689523Y-170188809D01*
X145641904Y-170093571D01*
X145594285Y-170045952D01*
X145499047Y-169998333D01*
X145308571Y-169998333D01*
X145213333Y-170045952D01*
X145165714Y-170093571D01*
X145118095Y-170188809D01*
X146070476Y-169712619D02*
X146118095Y-169665000D01*
X146213333Y-169617380D01*
X146451428Y-169617380D01*
X146546666Y-169665000D01*
X146594285Y-169712619D01*
X146641904Y-169807857D01*
X146641904Y-169903095D01*
X146594285Y-170045952D01*
X146022857Y-170617380D01*
X146641904Y-170617380D01*
X91460714Y-189632380D02*
X91460714Y-188632380D01*
X91698809Y-188632380D01*
X91841666Y-188680000D01*
X91936904Y-188775238D01*
X91984523Y-188870476D01*
X92032142Y-189060952D01*
X92032142Y-189203809D01*
X91984523Y-189394285D01*
X91936904Y-189489523D01*
X91841666Y-189584761D01*
X91698809Y-189632380D01*
X91460714Y-189632380D01*
X92413095Y-188727619D02*
X92460714Y-188680000D01*
X92555952Y-188632380D01*
X92794047Y-188632380D01*
X92889285Y-188680000D01*
X92936904Y-188727619D01*
X92984523Y-188822857D01*
X92984523Y-188918095D01*
X92936904Y-189060952D01*
X92365476Y-189632380D01*
X92984523Y-189632380D01*
X93317857Y-188632380D02*
X93936904Y-188632380D01*
X93603571Y-189013333D01*
X93746428Y-189013333D01*
X93841666Y-189060952D01*
X93889285Y-189108571D01*
X93936904Y-189203809D01*
X93936904Y-189441904D01*
X93889285Y-189537142D01*
X93841666Y-189584761D01*
X93746428Y-189632380D01*
X93460714Y-189632380D01*
X93365476Y-189584761D01*
X93317857Y-189537142D01*
X91460714Y-172487380D02*
X91460714Y-171487380D01*
X91698809Y-171487380D01*
X91841666Y-171535000D01*
X91936904Y-171630238D01*
X91984523Y-171725476D01*
X92032142Y-171915952D01*
X92032142Y-172058809D01*
X91984523Y-172249285D01*
X91936904Y-172344523D01*
X91841666Y-172439761D01*
X91698809Y-172487380D01*
X91460714Y-172487380D01*
X92413095Y-171582619D02*
X92460714Y-171535000D01*
X92555952Y-171487380D01*
X92794047Y-171487380D01*
X92889285Y-171535000D01*
X92936904Y-171582619D01*
X92984523Y-171677857D01*
X92984523Y-171773095D01*
X92936904Y-171915952D01*
X92365476Y-172487380D01*
X92984523Y-172487380D01*
X93841666Y-171487380D02*
X93651190Y-171487380D01*
X93555952Y-171535000D01*
X93508333Y-171582619D01*
X93413095Y-171725476D01*
X93365476Y-171915952D01*
X93365476Y-172296904D01*
X93413095Y-172392142D01*
X93460714Y-172439761D01*
X93555952Y-172487380D01*
X93746428Y-172487380D01*
X93841666Y-172439761D01*
X93889285Y-172392142D01*
X93936904Y-172296904D01*
X93936904Y-172058809D01*
X93889285Y-171963571D01*
X93841666Y-171915952D01*
X93746428Y-171868333D01*
X93555952Y-171868333D01*
X93460714Y-171915952D01*
X93413095Y-171963571D01*
X93365476Y-172058809D01*
X91460714Y-166772380D02*
X91460714Y-165772380D01*
X91698809Y-165772380D01*
X91841666Y-165820000D01*
X91936904Y-165915238D01*
X91984523Y-166010476D01*
X92032142Y-166200952D01*
X92032142Y-166343809D01*
X91984523Y-166534285D01*
X91936904Y-166629523D01*
X91841666Y-166724761D01*
X91698809Y-166772380D01*
X91460714Y-166772380D01*
X92413095Y-165867619D02*
X92460714Y-165820000D01*
X92555952Y-165772380D01*
X92794047Y-165772380D01*
X92889285Y-165820000D01*
X92936904Y-165867619D01*
X92984523Y-165962857D01*
X92984523Y-166058095D01*
X92936904Y-166200952D01*
X92365476Y-166772380D01*
X92984523Y-166772380D01*
X93317857Y-165772380D02*
X93984523Y-165772380D01*
X93555952Y-166772380D01*
X130195714Y-186457380D02*
X130195714Y-185457380D01*
X130433809Y-185457380D01*
X130576666Y-185505000D01*
X130671904Y-185600238D01*
X130719523Y-185695476D01*
X130767142Y-185885952D01*
X130767142Y-186028809D01*
X130719523Y-186219285D01*
X130671904Y-186314523D01*
X130576666Y-186409761D01*
X130433809Y-186457380D01*
X130195714Y-186457380D01*
X131100476Y-185457380D02*
X131719523Y-185457380D01*
X131386190Y-185838333D01*
X131529047Y-185838333D01*
X131624285Y-185885952D01*
X131671904Y-185933571D01*
X131719523Y-186028809D01*
X131719523Y-186266904D01*
X131671904Y-186362142D01*
X131624285Y-186409761D01*
X131529047Y-186457380D01*
X131243333Y-186457380D01*
X131148095Y-186409761D01*
X131100476Y-186362142D01*
X132671904Y-186457380D02*
X132100476Y-186457380D01*
X132386190Y-186457380D02*
X132386190Y-185457380D01*
X132290952Y-185600238D01*
X132195714Y-185695476D01*
X132100476Y-185743095D01*
X138450714Y-174822380D02*
X138450714Y-173822380D01*
X138688809Y-173822380D01*
X138831666Y-173870000D01*
X138926904Y-173965238D01*
X138974523Y-174060476D01*
X139022142Y-174250952D01*
X139022142Y-174393809D01*
X138974523Y-174584285D01*
X138926904Y-174679523D01*
X138831666Y-174774761D01*
X138688809Y-174822380D01*
X138450714Y-174822380D01*
X139355476Y-173822380D02*
X139974523Y-173822380D01*
X139641190Y-174203333D01*
X139784047Y-174203333D01*
X139879285Y-174250952D01*
X139926904Y-174298571D01*
X139974523Y-174393809D01*
X139974523Y-174631904D01*
X139926904Y-174727142D01*
X139879285Y-174774761D01*
X139784047Y-174822380D01*
X139498333Y-174822380D01*
X139403095Y-174774761D01*
X139355476Y-174727142D01*
X140355476Y-173917619D02*
X140403095Y-173870000D01*
X140498333Y-173822380D01*
X140736428Y-173822380D01*
X140831666Y-173870000D01*
X140879285Y-173917619D01*
X140926904Y-174012857D01*
X140926904Y-174108095D01*
X140879285Y-174250952D01*
X140307857Y-174822380D01*
X140926904Y-174822380D01*
X130195714Y-169312380D02*
X130195714Y-168312380D01*
X130433809Y-168312380D01*
X130576666Y-168360000D01*
X130671904Y-168455238D01*
X130719523Y-168550476D01*
X130767142Y-168740952D01*
X130767142Y-168883809D01*
X130719523Y-169074285D01*
X130671904Y-169169523D01*
X130576666Y-169264761D01*
X130433809Y-169312380D01*
X130195714Y-169312380D01*
X131148095Y-168407619D02*
X131195714Y-168360000D01*
X131290952Y-168312380D01*
X131529047Y-168312380D01*
X131624285Y-168360000D01*
X131671904Y-168407619D01*
X131719523Y-168502857D01*
X131719523Y-168598095D01*
X131671904Y-168740952D01*
X131100476Y-169312380D01*
X131719523Y-169312380D01*
X132195714Y-169312380D02*
X132386190Y-169312380D01*
X132481428Y-169264761D01*
X132529047Y-169217142D01*
X132624285Y-169074285D01*
X132671904Y-168883809D01*
X132671904Y-168502857D01*
X132624285Y-168407619D01*
X132576666Y-168360000D01*
X132481428Y-168312380D01*
X132290952Y-168312380D01*
X132195714Y-168360000D01*
X132148095Y-168407619D01*
X132100476Y-168502857D01*
X132100476Y-168740952D01*
X132148095Y-168836190D01*
X132195714Y-168883809D01*
X132290952Y-168931428D01*
X132481428Y-168931428D01*
X132576666Y-168883809D01*
X132624285Y-168836190D01*
X132671904Y-168740952D01*
X68542380Y-178437857D02*
X68066190Y-178771190D01*
X68542380Y-179009285D02*
X67542380Y-179009285D01*
X67542380Y-178628333D01*
X67590000Y-178533095D01*
X67637619Y-178485476D01*
X67732857Y-178437857D01*
X67875714Y-178437857D01*
X67970952Y-178485476D01*
X68018571Y-178533095D01*
X68066190Y-178628333D01*
X68066190Y-179009285D01*
X67542380Y-177533095D02*
X67542380Y-178009285D01*
X68018571Y-178056904D01*
X67970952Y-178009285D01*
X67923333Y-177914047D01*
X67923333Y-177675952D01*
X67970952Y-177580714D01*
X68018571Y-177533095D01*
X68113809Y-177485476D01*
X68351904Y-177485476D01*
X68447142Y-177533095D01*
X68494761Y-177580714D01*
X68542380Y-177675952D01*
X68542380Y-177914047D01*
X68494761Y-178009285D01*
X68447142Y-178056904D01*
X67637619Y-177104523D02*
X67590000Y-177056904D01*
X67542380Y-176961666D01*
X67542380Y-176723571D01*
X67590000Y-176628333D01*
X67637619Y-176580714D01*
X67732857Y-176533095D01*
X67828095Y-176533095D01*
X67970952Y-176580714D01*
X68542380Y-177152142D01*
X68542380Y-176533095D01*
X69807142Y-184587380D02*
X69473809Y-184111190D01*
X69235714Y-184587380D02*
X69235714Y-183587380D01*
X69616666Y-183587380D01*
X69711904Y-183635000D01*
X69759523Y-183682619D01*
X69807142Y-183777857D01*
X69807142Y-183920714D01*
X69759523Y-184015952D01*
X69711904Y-184063571D01*
X69616666Y-184111190D01*
X69235714Y-184111190D01*
X70711904Y-183587380D02*
X70235714Y-183587380D01*
X70188095Y-184063571D01*
X70235714Y-184015952D01*
X70330952Y-183968333D01*
X70569047Y-183968333D01*
X70664285Y-184015952D01*
X70711904Y-184063571D01*
X70759523Y-184158809D01*
X70759523Y-184396904D01*
X70711904Y-184492142D01*
X70664285Y-184539761D01*
X70569047Y-184587380D01*
X70330952Y-184587380D01*
X70235714Y-184539761D01*
X70188095Y-184492142D01*
X71616666Y-183587380D02*
X71426190Y-183587380D01*
X71330952Y-183635000D01*
X71283333Y-183682619D01*
X71188095Y-183825476D01*
X71140476Y-184015952D01*
X71140476Y-184396904D01*
X71188095Y-184492142D01*
X71235714Y-184539761D01*
X71330952Y-184587380D01*
X71521428Y-184587380D01*
X71616666Y-184539761D01*
X71664285Y-184492142D01*
X71711904Y-184396904D01*
X71711904Y-184158809D01*
X71664285Y-184063571D01*
X71616666Y-184015952D01*
X71521428Y-183968333D01*
X71330952Y-183968333D01*
X71235714Y-184015952D01*
X71188095Y-184063571D01*
X71140476Y-184158809D01*
X125052142Y-179232380D02*
X124718809Y-178756190D01*
X124480714Y-179232380D02*
X124480714Y-178232380D01*
X124861666Y-178232380D01*
X124956904Y-178280000D01*
X125004523Y-178327619D01*
X125052142Y-178422857D01*
X125052142Y-178565714D01*
X125004523Y-178660952D01*
X124956904Y-178708571D01*
X124861666Y-178756190D01*
X124480714Y-178756190D01*
X125909285Y-178232380D02*
X125718809Y-178232380D01*
X125623571Y-178280000D01*
X125575952Y-178327619D01*
X125480714Y-178470476D01*
X125433095Y-178660952D01*
X125433095Y-179041904D01*
X125480714Y-179137142D01*
X125528333Y-179184761D01*
X125623571Y-179232380D01*
X125814047Y-179232380D01*
X125909285Y-179184761D01*
X125956904Y-179137142D01*
X126004523Y-179041904D01*
X126004523Y-178803809D01*
X125956904Y-178708571D01*
X125909285Y-178660952D01*
X125814047Y-178613333D01*
X125623571Y-178613333D01*
X125528333Y-178660952D01*
X125480714Y-178708571D01*
X125433095Y-178803809D01*
X126956904Y-179232380D02*
X126385476Y-179232380D01*
X126671190Y-179232380D02*
X126671190Y-178232380D01*
X126575952Y-178375238D01*
X126480714Y-178470476D01*
X126385476Y-178518095D01*
X86999761Y-170977380D02*
X86428333Y-170977380D01*
X86714047Y-170977380D02*
X86714047Y-169977380D01*
X86618809Y-170120238D01*
X86523571Y-170215476D01*
X86428333Y-170263095D01*
X87428333Y-170977380D02*
X87428333Y-169977380D01*
X87523571Y-170596428D02*
X87809285Y-170977380D01*
X87809285Y-170310714D02*
X87428333Y-170691666D01*
X88666428Y-170310714D02*
X88666428Y-170977380D01*
X88428333Y-169929761D02*
X88190238Y-170644047D01*
X88809285Y-170644047D01*
X125099761Y-167802380D02*
X124528333Y-167802380D01*
X124814047Y-167802380D02*
X124814047Y-166802380D01*
X124718809Y-166945238D01*
X124623571Y-167040476D01*
X124528333Y-167088095D01*
X125528333Y-167802380D02*
X125528333Y-166802380D01*
X125623571Y-167421428D02*
X125909285Y-167802380D01*
X125909285Y-167135714D02*
X125528333Y-167516666D01*
X126242619Y-166802380D02*
X126909285Y-166802380D01*
X126480714Y-167802380D01*
X91460714Y-178202380D02*
X91460714Y-177202380D01*
X91698809Y-177202380D01*
X91841666Y-177250000D01*
X91936904Y-177345238D01*
X91984523Y-177440476D01*
X92032142Y-177630952D01*
X92032142Y-177773809D01*
X91984523Y-177964285D01*
X91936904Y-178059523D01*
X91841666Y-178154761D01*
X91698809Y-178202380D01*
X91460714Y-178202380D01*
X92413095Y-177297619D02*
X92460714Y-177250000D01*
X92555952Y-177202380D01*
X92794047Y-177202380D01*
X92889285Y-177250000D01*
X92936904Y-177297619D01*
X92984523Y-177392857D01*
X92984523Y-177488095D01*
X92936904Y-177630952D01*
X92365476Y-178202380D01*
X92984523Y-178202380D01*
X93889285Y-177202380D02*
X93413095Y-177202380D01*
X93365476Y-177678571D01*
X93413095Y-177630952D01*
X93508333Y-177583333D01*
X93746428Y-177583333D01*
X93841666Y-177630952D01*
X93889285Y-177678571D01*
X93936904Y-177773809D01*
X93936904Y-178011904D01*
X93889285Y-178107142D01*
X93841666Y-178154761D01*
X93746428Y-178202380D01*
X93508333Y-178202380D01*
X93413095Y-178154761D01*
X93365476Y-178107142D01*
X138450714Y-169107380D02*
X138450714Y-168107380D01*
X138688809Y-168107380D01*
X138831666Y-168155000D01*
X138926904Y-168250238D01*
X138974523Y-168345476D01*
X139022142Y-168535952D01*
X139022142Y-168678809D01*
X138974523Y-168869285D01*
X138926904Y-168964523D01*
X138831666Y-169059761D01*
X138688809Y-169107380D01*
X138450714Y-169107380D01*
X139355476Y-168107380D02*
X139974523Y-168107380D01*
X139641190Y-168488333D01*
X139784047Y-168488333D01*
X139879285Y-168535952D01*
X139926904Y-168583571D01*
X139974523Y-168678809D01*
X139974523Y-168916904D01*
X139926904Y-169012142D01*
X139879285Y-169059761D01*
X139784047Y-169107380D01*
X139498333Y-169107380D01*
X139403095Y-169059761D01*
X139355476Y-169012142D01*
X140831666Y-168440714D02*
X140831666Y-169107380D01*
X140593571Y-168059761D02*
X140355476Y-168774047D01*
X140974523Y-168774047D01*
X86999761Y-165262380D02*
X86428333Y-165262380D01*
X86714047Y-165262380D02*
X86714047Y-164262380D01*
X86618809Y-164405238D01*
X86523571Y-164500476D01*
X86428333Y-164548095D01*
X87428333Y-165262380D02*
X87428333Y-164262380D01*
X87523571Y-164881428D02*
X87809285Y-165262380D01*
X87809285Y-164595714D02*
X87428333Y-164976666D01*
X88714047Y-164262380D02*
X88237857Y-164262380D01*
X88190238Y-164738571D01*
X88237857Y-164690952D01*
X88333095Y-164643333D01*
X88571190Y-164643333D01*
X88666428Y-164690952D01*
X88714047Y-164738571D01*
X88761666Y-164833809D01*
X88761666Y-165071904D01*
X88714047Y-165167142D01*
X88666428Y-165214761D01*
X88571190Y-165262380D01*
X88333095Y-165262380D01*
X88237857Y-165214761D01*
X88190238Y-165167142D01*
X76797380Y-164420238D02*
X76797380Y-164991666D01*
X76797380Y-164705952D02*
X75797380Y-164705952D01*
X75940238Y-164801190D01*
X76035476Y-164896428D01*
X76083095Y-164991666D01*
X76797380Y-163991666D02*
X75797380Y-163991666D01*
X76416428Y-163896428D02*
X76797380Y-163610714D01*
X76130714Y-163610714D02*
X76511666Y-163991666D01*
X76797380Y-162658333D02*
X76797380Y-163229761D01*
X76797380Y-162944047D02*
X75797380Y-162944047D01*
X75940238Y-163039285D01*
X76035476Y-163134523D01*
X76083095Y-163229761D01*
X86999761Y-176692380D02*
X86428333Y-176692380D01*
X86714047Y-176692380D02*
X86714047Y-175692380D01*
X86618809Y-175835238D01*
X86523571Y-175930476D01*
X86428333Y-175978095D01*
X87428333Y-176692380D02*
X87428333Y-175692380D01*
X87523571Y-176311428D02*
X87809285Y-176692380D01*
X87809285Y-176025714D02*
X87428333Y-176406666D01*
X88142619Y-175692380D02*
X88761666Y-175692380D01*
X88428333Y-176073333D01*
X88571190Y-176073333D01*
X88666428Y-176120952D01*
X88714047Y-176168571D01*
X88761666Y-176263809D01*
X88761666Y-176501904D01*
X88714047Y-176597142D01*
X88666428Y-176644761D01*
X88571190Y-176692380D01*
X88285476Y-176692380D01*
X88190238Y-176644761D01*
X88142619Y-176597142D01*
X86999761Y-182407380D02*
X86428333Y-182407380D01*
X86714047Y-182407380D02*
X86714047Y-181407380D01*
X86618809Y-181550238D01*
X86523571Y-181645476D01*
X86428333Y-181693095D01*
X87428333Y-182407380D02*
X87428333Y-181407380D01*
X87523571Y-182026428D02*
X87809285Y-182407380D01*
X87809285Y-181740714D02*
X87428333Y-182121666D01*
X88190238Y-181502619D02*
X88237857Y-181455000D01*
X88333095Y-181407380D01*
X88571190Y-181407380D01*
X88666428Y-181455000D01*
X88714047Y-181502619D01*
X88761666Y-181597857D01*
X88761666Y-181693095D01*
X88714047Y-181835952D01*
X88142619Y-182407380D01*
X88761666Y-182407380D01*
X138450714Y-180537380D02*
X138450714Y-179537380D01*
X138688809Y-179537380D01*
X138831666Y-179585000D01*
X138926904Y-179680238D01*
X138974523Y-179775476D01*
X139022142Y-179965952D01*
X139022142Y-180108809D01*
X138974523Y-180299285D01*
X138926904Y-180394523D01*
X138831666Y-180489761D01*
X138688809Y-180537380D01*
X138450714Y-180537380D01*
X139355476Y-179537380D02*
X139974523Y-179537380D01*
X139641190Y-179918333D01*
X139784047Y-179918333D01*
X139879285Y-179965952D01*
X139926904Y-180013571D01*
X139974523Y-180108809D01*
X139974523Y-180346904D01*
X139926904Y-180442142D01*
X139879285Y-180489761D01*
X139784047Y-180537380D01*
X139498333Y-180537380D01*
X139403095Y-180489761D01*
X139355476Y-180442142D01*
X140593571Y-179537380D02*
X140688809Y-179537380D01*
X140784047Y-179585000D01*
X140831666Y-179632619D01*
X140879285Y-179727857D01*
X140926904Y-179918333D01*
X140926904Y-180156428D01*
X140879285Y-180346904D01*
X140831666Y-180442142D01*
X140784047Y-180489761D01*
X140688809Y-180537380D01*
X140593571Y-180537380D01*
X140498333Y-180489761D01*
X140450714Y-180442142D01*
X140403095Y-180346904D01*
X140355476Y-180156428D01*
X140355476Y-179918333D01*
X140403095Y-179727857D01*
X140450714Y-179632619D01*
X140498333Y-179585000D01*
X140593571Y-179537380D01*
X130195714Y-180742380D02*
X130195714Y-179742380D01*
X130433809Y-179742380D01*
X130576666Y-179790000D01*
X130671904Y-179885238D01*
X130719523Y-179980476D01*
X130767142Y-180170952D01*
X130767142Y-180313809D01*
X130719523Y-180504285D01*
X130671904Y-180599523D01*
X130576666Y-180694761D01*
X130433809Y-180742380D01*
X130195714Y-180742380D01*
X131100476Y-179742380D02*
X131719523Y-179742380D01*
X131386190Y-180123333D01*
X131529047Y-180123333D01*
X131624285Y-180170952D01*
X131671904Y-180218571D01*
X131719523Y-180313809D01*
X131719523Y-180551904D01*
X131671904Y-180647142D01*
X131624285Y-180694761D01*
X131529047Y-180742380D01*
X131243333Y-180742380D01*
X131148095Y-180694761D01*
X131100476Y-180647142D01*
X132052857Y-179742380D02*
X132671904Y-179742380D01*
X132338571Y-180123333D01*
X132481428Y-180123333D01*
X132576666Y-180170952D01*
X132624285Y-180218571D01*
X132671904Y-180313809D01*
X132671904Y-180551904D01*
X132624285Y-180647142D01*
X132576666Y-180694761D01*
X132481428Y-180742380D01*
X132195714Y-180742380D01*
X132100476Y-180694761D01*
X132052857Y-180647142D01*
X70447380Y-178437857D02*
X69971190Y-178771190D01*
X70447380Y-179009285D02*
X69447380Y-179009285D01*
X69447380Y-178628333D01*
X69495000Y-178533095D01*
X69542619Y-178485476D01*
X69637857Y-178437857D01*
X69780714Y-178437857D01*
X69875952Y-178485476D01*
X69923571Y-178533095D01*
X69971190Y-178628333D01*
X69971190Y-179009285D01*
X69447380Y-177533095D02*
X69447380Y-178009285D01*
X69923571Y-178056904D01*
X69875952Y-178009285D01*
X69828333Y-177914047D01*
X69828333Y-177675952D01*
X69875952Y-177580714D01*
X69923571Y-177533095D01*
X70018809Y-177485476D01*
X70256904Y-177485476D01*
X70352142Y-177533095D01*
X70399761Y-177580714D01*
X70447380Y-177675952D01*
X70447380Y-177914047D01*
X70399761Y-178009285D01*
X70352142Y-178056904D01*
X69780714Y-176628333D02*
X70447380Y-176628333D01*
X69399761Y-176866428D02*
X70114047Y-177104523D01*
X70114047Y-176485476D01*
X138450714Y-163392380D02*
X138450714Y-162392380D01*
X138688809Y-162392380D01*
X138831666Y-162440000D01*
X138926904Y-162535238D01*
X138974523Y-162630476D01*
X139022142Y-162820952D01*
X139022142Y-162963809D01*
X138974523Y-163154285D01*
X138926904Y-163249523D01*
X138831666Y-163344761D01*
X138688809Y-163392380D01*
X138450714Y-163392380D01*
X139403095Y-162487619D02*
X139450714Y-162440000D01*
X139545952Y-162392380D01*
X139784047Y-162392380D01*
X139879285Y-162440000D01*
X139926904Y-162487619D01*
X139974523Y-162582857D01*
X139974523Y-162678095D01*
X139926904Y-162820952D01*
X139355476Y-163392380D01*
X139974523Y-163392380D01*
X140545952Y-162820952D02*
X140450714Y-162773333D01*
X140403095Y-162725714D01*
X140355476Y-162630476D01*
X140355476Y-162582857D01*
X140403095Y-162487619D01*
X140450714Y-162440000D01*
X140545952Y-162392380D01*
X140736428Y-162392380D01*
X140831666Y-162440000D01*
X140879285Y-162487619D01*
X140926904Y-162582857D01*
X140926904Y-162630476D01*
X140879285Y-162725714D01*
X140831666Y-162773333D01*
X140736428Y-162820952D01*
X140545952Y-162820952D01*
X140450714Y-162868571D01*
X140403095Y-162916190D01*
X140355476Y-163011428D01*
X140355476Y-163201904D01*
X140403095Y-163297142D01*
X140450714Y-163344761D01*
X140545952Y-163392380D01*
X140736428Y-163392380D01*
X140831666Y-163344761D01*
X140879285Y-163297142D01*
X140926904Y-163201904D01*
X140926904Y-163011428D01*
X140879285Y-162916190D01*
X140831666Y-162868571D01*
X140736428Y-162820952D01*
X72352380Y-178437857D02*
X71876190Y-178771190D01*
X72352380Y-179009285D02*
X71352380Y-179009285D01*
X71352380Y-178628333D01*
X71400000Y-178533095D01*
X71447619Y-178485476D01*
X71542857Y-178437857D01*
X71685714Y-178437857D01*
X71780952Y-178485476D01*
X71828571Y-178533095D01*
X71876190Y-178628333D01*
X71876190Y-179009285D01*
X71352380Y-177533095D02*
X71352380Y-178009285D01*
X71828571Y-178056904D01*
X71780952Y-178009285D01*
X71733333Y-177914047D01*
X71733333Y-177675952D01*
X71780952Y-177580714D01*
X71828571Y-177533095D01*
X71923809Y-177485476D01*
X72161904Y-177485476D01*
X72257142Y-177533095D01*
X72304761Y-177580714D01*
X72352380Y-177675952D01*
X72352380Y-177914047D01*
X72304761Y-178009285D01*
X72257142Y-178056904D01*
X71352380Y-176580714D02*
X71352380Y-177056904D01*
X71828571Y-177104523D01*
X71780952Y-177056904D01*
X71733333Y-176961666D01*
X71733333Y-176723571D01*
X71780952Y-176628333D01*
X71828571Y-176580714D01*
X71923809Y-176533095D01*
X72161904Y-176533095D01*
X72257142Y-176580714D01*
X72304761Y-176628333D01*
X72352380Y-176723571D01*
X72352380Y-176961666D01*
X72304761Y-177056904D01*
X72257142Y-177104523D01*
X144737142Y-182047380D02*
X144403809Y-181571190D01*
X144165714Y-182047380D02*
X144165714Y-181047380D01*
X144546666Y-181047380D01*
X144641904Y-181095000D01*
X144689523Y-181142619D01*
X144737142Y-181237857D01*
X144737142Y-181380714D01*
X144689523Y-181475952D01*
X144641904Y-181523571D01*
X144546666Y-181571190D01*
X144165714Y-181571190D01*
X145641904Y-181047380D02*
X145165714Y-181047380D01*
X145118095Y-181523571D01*
X145165714Y-181475952D01*
X145260952Y-181428333D01*
X145499047Y-181428333D01*
X145594285Y-181475952D01*
X145641904Y-181523571D01*
X145689523Y-181618809D01*
X145689523Y-181856904D01*
X145641904Y-181952142D01*
X145594285Y-181999761D01*
X145499047Y-182047380D01*
X145260952Y-182047380D01*
X145165714Y-181999761D01*
X145118095Y-181952142D01*
X146260952Y-181475952D02*
X146165714Y-181428333D01*
X146118095Y-181380714D01*
X146070476Y-181285476D01*
X146070476Y-181237857D01*
X146118095Y-181142619D01*
X146165714Y-181095000D01*
X146260952Y-181047380D01*
X146451428Y-181047380D01*
X146546666Y-181095000D01*
X146594285Y-181142619D01*
X146641904Y-181237857D01*
X146641904Y-181285476D01*
X146594285Y-181380714D01*
X146546666Y-181428333D01*
X146451428Y-181475952D01*
X146260952Y-181475952D01*
X146165714Y-181523571D01*
X146118095Y-181571190D01*
X146070476Y-181666428D01*
X146070476Y-181856904D01*
X146118095Y-181952142D01*
X146165714Y-181999761D01*
X146260952Y-182047380D01*
X146451428Y-182047380D01*
X146546666Y-181999761D01*
X146594285Y-181952142D01*
X146641904Y-181856904D01*
X146641904Y-181666428D01*
X146594285Y-181571190D01*
X146546666Y-181523571D01*
X146451428Y-181475952D01*
X116627142Y-152562380D02*
X116293809Y-152086190D01*
X116055714Y-152562380D02*
X116055714Y-151562380D01*
X116436666Y-151562380D01*
X116531904Y-151610000D01*
X116579523Y-151657619D01*
X116627142Y-151752857D01*
X116627142Y-151895714D01*
X116579523Y-151990952D01*
X116531904Y-152038571D01*
X116436666Y-152086190D01*
X116055714Y-152086190D01*
X117531904Y-151562380D02*
X117055714Y-151562380D01*
X117008095Y-152038571D01*
X117055714Y-151990952D01*
X117150952Y-151943333D01*
X117389047Y-151943333D01*
X117484285Y-151990952D01*
X117531904Y-152038571D01*
X117579523Y-152133809D01*
X117579523Y-152371904D01*
X117531904Y-152467142D01*
X117484285Y-152514761D01*
X117389047Y-152562380D01*
X117150952Y-152562380D01*
X117055714Y-152514761D01*
X117008095Y-152467142D01*
X117912857Y-151562380D02*
X118531904Y-151562380D01*
X118198571Y-151943333D01*
X118341428Y-151943333D01*
X118436666Y-151990952D01*
X118484285Y-152038571D01*
X118531904Y-152133809D01*
X118531904Y-152371904D01*
X118484285Y-152467142D01*
X118436666Y-152514761D01*
X118341428Y-152562380D01*
X118055714Y-152562380D01*
X117960476Y-152514761D01*
X117912857Y-152467142D01*
X144784761Y-164902380D02*
X144213333Y-164902380D01*
X144499047Y-164902380D02*
X144499047Y-163902380D01*
X144403809Y-164045238D01*
X144308571Y-164140476D01*
X144213333Y-164188095D01*
X145213333Y-164902380D02*
X145213333Y-163902380D01*
X145308571Y-164521428D02*
X145594285Y-164902380D01*
X145594285Y-164235714D02*
X145213333Y-164616666D01*
X146451428Y-163902380D02*
X146260952Y-163902380D01*
X146165714Y-163950000D01*
X146118095Y-163997619D01*
X146022857Y-164140476D01*
X145975238Y-164330952D01*
X145975238Y-164711904D01*
X146022857Y-164807142D01*
X146070476Y-164854761D01*
X146165714Y-164902380D01*
X146356190Y-164902380D01*
X146451428Y-164854761D01*
X146499047Y-164807142D01*
X146546666Y-164711904D01*
X146546666Y-164473809D01*
X146499047Y-164378571D01*
X146451428Y-164330952D01*
X146356190Y-164283333D01*
X146165714Y-164283333D01*
X146070476Y-164330952D01*
X146022857Y-164378571D01*
X145975238Y-164473809D01*
X125052142Y-184947380D02*
X124718809Y-184471190D01*
X124480714Y-184947380D02*
X124480714Y-183947380D01*
X124861666Y-183947380D01*
X124956904Y-183995000D01*
X125004523Y-184042619D01*
X125052142Y-184137857D01*
X125052142Y-184280714D01*
X125004523Y-184375952D01*
X124956904Y-184423571D01*
X124861666Y-184471190D01*
X124480714Y-184471190D01*
X125956904Y-183947380D02*
X125480714Y-183947380D01*
X125433095Y-184423571D01*
X125480714Y-184375952D01*
X125575952Y-184328333D01*
X125814047Y-184328333D01*
X125909285Y-184375952D01*
X125956904Y-184423571D01*
X126004523Y-184518809D01*
X126004523Y-184756904D01*
X125956904Y-184852142D01*
X125909285Y-184899761D01*
X125814047Y-184947380D01*
X125575952Y-184947380D01*
X125480714Y-184899761D01*
X125433095Y-184852142D01*
X126480714Y-184947380D02*
X126671190Y-184947380D01*
X126766428Y-184899761D01*
X126814047Y-184852142D01*
X126909285Y-184709285D01*
X126956904Y-184518809D01*
X126956904Y-184137857D01*
X126909285Y-184042619D01*
X126861666Y-183995000D01*
X126766428Y-183947380D01*
X126575952Y-183947380D01*
X126480714Y-183995000D01*
X126433095Y-184042619D01*
X126385476Y-184137857D01*
X126385476Y-184375952D01*
X126433095Y-184471190D01*
X126480714Y-184518809D01*
X126575952Y-184566428D01*
X126766428Y-184566428D01*
X126861666Y-184518809D01*
X126909285Y-184471190D01*
X126956904Y-184375952D01*
X144737142Y-176332380D02*
X144403809Y-175856190D01*
X144165714Y-176332380D02*
X144165714Y-175332380D01*
X144546666Y-175332380D01*
X144641904Y-175380000D01*
X144689523Y-175427619D01*
X144737142Y-175522857D01*
X144737142Y-175665714D01*
X144689523Y-175760952D01*
X144641904Y-175808571D01*
X144546666Y-175856190D01*
X144165714Y-175856190D01*
X145594285Y-175332380D02*
X145403809Y-175332380D01*
X145308571Y-175380000D01*
X145260952Y-175427619D01*
X145165714Y-175570476D01*
X145118095Y-175760952D01*
X145118095Y-176141904D01*
X145165714Y-176237142D01*
X145213333Y-176284761D01*
X145308571Y-176332380D01*
X145499047Y-176332380D01*
X145594285Y-176284761D01*
X145641904Y-176237142D01*
X145689523Y-176141904D01*
X145689523Y-175903809D01*
X145641904Y-175808571D01*
X145594285Y-175760952D01*
X145499047Y-175713333D01*
X145308571Y-175713333D01*
X145213333Y-175760952D01*
X145165714Y-175808571D01*
X145118095Y-175903809D01*
X146308571Y-175332380D02*
X146403809Y-175332380D01*
X146499047Y-175380000D01*
X146546666Y-175427619D01*
X146594285Y-175522857D01*
X146641904Y-175713333D01*
X146641904Y-175951428D01*
X146594285Y-176141904D01*
X146546666Y-176237142D01*
X146499047Y-176284761D01*
X146403809Y-176332380D01*
X146308571Y-176332380D01*
X146213333Y-176284761D01*
X146165714Y-176237142D01*
X146118095Y-176141904D01*
X146070476Y-175951428D01*
X146070476Y-175713333D01*
X146118095Y-175522857D01*
X146165714Y-175427619D01*
X146213333Y-175380000D01*
X146308571Y-175332380D01*
X125052142Y-173517380D02*
X124718809Y-173041190D01*
X124480714Y-173517380D02*
X124480714Y-172517380D01*
X124861666Y-172517380D01*
X124956904Y-172565000D01*
X125004523Y-172612619D01*
X125052142Y-172707857D01*
X125052142Y-172850714D01*
X125004523Y-172945952D01*
X124956904Y-172993571D01*
X124861666Y-173041190D01*
X124480714Y-173041190D01*
X125909285Y-172517380D02*
X125718809Y-172517380D01*
X125623571Y-172565000D01*
X125575952Y-172612619D01*
X125480714Y-172755476D01*
X125433095Y-172945952D01*
X125433095Y-173326904D01*
X125480714Y-173422142D01*
X125528333Y-173469761D01*
X125623571Y-173517380D01*
X125814047Y-173517380D01*
X125909285Y-173469761D01*
X125956904Y-173422142D01*
X126004523Y-173326904D01*
X126004523Y-173088809D01*
X125956904Y-172993571D01*
X125909285Y-172945952D01*
X125814047Y-172898333D01*
X125623571Y-172898333D01*
X125528333Y-172945952D01*
X125480714Y-172993571D01*
X125433095Y-173088809D01*
X126337857Y-172517380D02*
X126956904Y-172517380D01*
X126623571Y-172898333D01*
X126766428Y-172898333D01*
X126861666Y-172945952D01*
X126909285Y-172993571D01*
X126956904Y-173088809D01*
X126956904Y-173326904D01*
X126909285Y-173422142D01*
X126861666Y-173469761D01*
X126766428Y-173517380D01*
X126480714Y-173517380D01*
X126385476Y-173469761D01*
X126337857Y-173422142D01*
X91460714Y-183917380D02*
X91460714Y-182917380D01*
X91698809Y-182917380D01*
X91841666Y-182965000D01*
X91936904Y-183060238D01*
X91984523Y-183155476D01*
X92032142Y-183345952D01*
X92032142Y-183488809D01*
X91984523Y-183679285D01*
X91936904Y-183774523D01*
X91841666Y-183869761D01*
X91698809Y-183917380D01*
X91460714Y-183917380D01*
X92413095Y-183012619D02*
X92460714Y-182965000D01*
X92555952Y-182917380D01*
X92794047Y-182917380D01*
X92889285Y-182965000D01*
X92936904Y-183012619D01*
X92984523Y-183107857D01*
X92984523Y-183203095D01*
X92936904Y-183345952D01*
X92365476Y-183917380D01*
X92984523Y-183917380D01*
X93841666Y-183250714D02*
X93841666Y-183917380D01*
X93603571Y-182869761D02*
X93365476Y-183584047D01*
X93984523Y-183584047D01*
M02*
