G04 #@! TF.GenerationSoftware,KiCad,Pcbnew,(5.1.5)-3*
G04 #@! TF.CreationDate,2020-07-08T10:13:06+02:00*
G04 #@! TF.ProjectId,SBIO3,5342494f-332e-46b6-9963-61645f706362,rev?*
G04 #@! TF.SameCoordinates,Original*
G04 #@! TF.FileFunction,Soldermask,Bot*
G04 #@! TF.FilePolarity,Negative*
%FSLAX46Y46*%
G04 Gerber Fmt 4.6, Leading zero omitted, Abs format (unit mm)*
G04 Created by KiCad (PCBNEW (5.1.5)-3) date 2020-07-08 10:13:06*
%MOMM*%
%LPD*%
G04 APERTURE LIST*
%ADD10C,0.100000*%
G04 APERTURE END LIST*
D10*
G36*
X94896000Y-187171000D02*
G01*
X92994000Y-187171000D01*
X92994000Y-185269000D01*
X94896000Y-185269000D01*
X94896000Y-187171000D01*
G37*
G36*
X91682395Y-185305546D02*
G01*
X91855466Y-185377234D01*
X91855467Y-185377235D01*
X92011227Y-185481310D01*
X92143690Y-185613773D01*
X92143691Y-185613775D01*
X92247766Y-185769534D01*
X92319454Y-185942605D01*
X92356000Y-186126333D01*
X92356000Y-186313667D01*
X92319454Y-186497395D01*
X92247766Y-186670466D01*
X92247765Y-186670467D01*
X92143690Y-186826227D01*
X92011227Y-186958690D01*
X91932818Y-187011081D01*
X91855466Y-187062766D01*
X91682395Y-187134454D01*
X91498667Y-187171000D01*
X91311333Y-187171000D01*
X91127605Y-187134454D01*
X90954534Y-187062766D01*
X90877182Y-187011081D01*
X90798773Y-186958690D01*
X90666310Y-186826227D01*
X90562235Y-186670467D01*
X90562234Y-186670466D01*
X90490546Y-186497395D01*
X90454000Y-186313667D01*
X90454000Y-186126333D01*
X90490546Y-185942605D01*
X90562234Y-185769534D01*
X90666309Y-185613775D01*
X90666310Y-185613773D01*
X90798773Y-185481310D01*
X90954533Y-185377235D01*
X90954534Y-185377234D01*
X91127605Y-185305546D01*
X91311333Y-185269000D01*
X91498667Y-185269000D01*
X91682395Y-185305546D01*
G37*
G36*
X139346000Y-183996000D02*
G01*
X137444000Y-183996000D01*
X137444000Y-182094000D01*
X139346000Y-182094000D01*
X139346000Y-183996000D01*
G37*
G36*
X133631000Y-183996000D02*
G01*
X131729000Y-183996000D01*
X131729000Y-182094000D01*
X133631000Y-182094000D01*
X133631000Y-183996000D01*
G37*
G36*
X130417395Y-182130546D02*
G01*
X130590466Y-182202234D01*
X130590467Y-182202235D01*
X130746227Y-182306310D01*
X130878690Y-182438773D01*
X130878691Y-182438775D01*
X130982766Y-182594534D01*
X131054454Y-182767605D01*
X131091000Y-182951333D01*
X131091000Y-183138667D01*
X131054454Y-183322395D01*
X130982766Y-183495466D01*
X130982765Y-183495467D01*
X130878690Y-183651227D01*
X130746227Y-183783690D01*
X130667818Y-183836081D01*
X130590466Y-183887766D01*
X130417395Y-183959454D01*
X130233667Y-183996000D01*
X130046333Y-183996000D01*
X129862605Y-183959454D01*
X129689534Y-183887766D01*
X129612182Y-183836081D01*
X129533773Y-183783690D01*
X129401310Y-183651227D01*
X129297235Y-183495467D01*
X129297234Y-183495466D01*
X129225546Y-183322395D01*
X129189000Y-183138667D01*
X129189000Y-182951333D01*
X129225546Y-182767605D01*
X129297234Y-182594534D01*
X129401309Y-182438775D01*
X129401310Y-182438773D01*
X129533773Y-182306310D01*
X129689533Y-182202235D01*
X129689534Y-182202234D01*
X129862605Y-182130546D01*
X130046333Y-182094000D01*
X130233667Y-182094000D01*
X130417395Y-182130546D01*
G37*
G36*
X141212395Y-182130546D02*
G01*
X141385466Y-182202234D01*
X141385467Y-182202235D01*
X141541227Y-182306310D01*
X141673690Y-182438773D01*
X141673691Y-182438775D01*
X141777766Y-182594534D01*
X141849454Y-182767605D01*
X141886000Y-182951333D01*
X141886000Y-183138667D01*
X141849454Y-183322395D01*
X141777766Y-183495466D01*
X141777765Y-183495467D01*
X141673690Y-183651227D01*
X141541227Y-183783690D01*
X141462818Y-183836081D01*
X141385466Y-183887766D01*
X141212395Y-183959454D01*
X141028667Y-183996000D01*
X140841333Y-183996000D01*
X140657605Y-183959454D01*
X140484534Y-183887766D01*
X140407182Y-183836081D01*
X140328773Y-183783690D01*
X140196310Y-183651227D01*
X140092235Y-183495467D01*
X140092234Y-183495466D01*
X140020546Y-183322395D01*
X139984000Y-183138667D01*
X139984000Y-182951333D01*
X140020546Y-182767605D01*
X140092234Y-182594534D01*
X140196309Y-182438775D01*
X140196310Y-182438773D01*
X140328773Y-182306310D01*
X140484533Y-182202235D01*
X140484534Y-182202234D01*
X140657605Y-182130546D01*
X140841333Y-182094000D01*
X141028667Y-182094000D01*
X141212395Y-182130546D01*
G37*
G36*
X94896000Y-181456000D02*
G01*
X92994000Y-181456000D01*
X92994000Y-179554000D01*
X94896000Y-179554000D01*
X94896000Y-181456000D01*
G37*
G36*
X91682395Y-179590546D02*
G01*
X91855466Y-179662234D01*
X91855467Y-179662235D01*
X92011227Y-179766310D01*
X92143690Y-179898773D01*
X92143691Y-179898775D01*
X92247766Y-180054534D01*
X92319454Y-180227605D01*
X92356000Y-180411333D01*
X92356000Y-180598667D01*
X92319454Y-180782395D01*
X92247766Y-180955466D01*
X92247765Y-180955467D01*
X92143690Y-181111227D01*
X92011227Y-181243690D01*
X91932818Y-181296081D01*
X91855466Y-181347766D01*
X91682395Y-181419454D01*
X91498667Y-181456000D01*
X91311333Y-181456000D01*
X91127605Y-181419454D01*
X90954534Y-181347766D01*
X90877182Y-181296081D01*
X90798773Y-181243690D01*
X90666310Y-181111227D01*
X90562235Y-180955467D01*
X90562234Y-180955466D01*
X90490546Y-180782395D01*
X90454000Y-180598667D01*
X90454000Y-180411333D01*
X90490546Y-180227605D01*
X90562234Y-180054534D01*
X90666309Y-179898775D01*
X90666310Y-179898773D01*
X90798773Y-179766310D01*
X90954533Y-179662235D01*
X90954534Y-179662234D01*
X91127605Y-179590546D01*
X91311333Y-179554000D01*
X91498667Y-179554000D01*
X91682395Y-179590546D01*
G37*
G36*
X141212395Y-176415546D02*
G01*
X141385466Y-176487234D01*
X141385467Y-176487235D01*
X141541227Y-176591310D01*
X141673690Y-176723773D01*
X141673691Y-176723775D01*
X141777766Y-176879534D01*
X141849454Y-177052605D01*
X141886000Y-177236333D01*
X141886000Y-177423667D01*
X141849454Y-177607395D01*
X141777766Y-177780466D01*
X141777765Y-177780467D01*
X141673690Y-177936227D01*
X141541227Y-178068690D01*
X141462818Y-178121081D01*
X141385466Y-178172766D01*
X141212395Y-178244454D01*
X141028667Y-178281000D01*
X140841333Y-178281000D01*
X140657605Y-178244454D01*
X140484534Y-178172766D01*
X140407182Y-178121081D01*
X140328773Y-178068690D01*
X140196310Y-177936227D01*
X140092235Y-177780467D01*
X140092234Y-177780466D01*
X140020546Y-177607395D01*
X139984000Y-177423667D01*
X139984000Y-177236333D01*
X140020546Y-177052605D01*
X140092234Y-176879534D01*
X140196309Y-176723775D01*
X140196310Y-176723773D01*
X140328773Y-176591310D01*
X140484533Y-176487235D01*
X140484534Y-176487234D01*
X140657605Y-176415546D01*
X140841333Y-176379000D01*
X141028667Y-176379000D01*
X141212395Y-176415546D01*
G37*
G36*
X139346000Y-178281000D02*
G01*
X137444000Y-178281000D01*
X137444000Y-176379000D01*
X139346000Y-176379000D01*
X139346000Y-178281000D01*
G37*
G36*
X133631000Y-178281000D02*
G01*
X131729000Y-178281000D01*
X131729000Y-176379000D01*
X133631000Y-176379000D01*
X133631000Y-178281000D01*
G37*
G36*
X130417395Y-176415546D02*
G01*
X130590466Y-176487234D01*
X130590467Y-176487235D01*
X130746227Y-176591310D01*
X130878690Y-176723773D01*
X130878691Y-176723775D01*
X130982766Y-176879534D01*
X131054454Y-177052605D01*
X131091000Y-177236333D01*
X131091000Y-177423667D01*
X131054454Y-177607395D01*
X130982766Y-177780466D01*
X130982765Y-177780467D01*
X130878690Y-177936227D01*
X130746227Y-178068690D01*
X130667818Y-178121081D01*
X130590466Y-178172766D01*
X130417395Y-178244454D01*
X130233667Y-178281000D01*
X130046333Y-178281000D01*
X129862605Y-178244454D01*
X129689534Y-178172766D01*
X129612182Y-178121081D01*
X129533773Y-178068690D01*
X129401310Y-177936227D01*
X129297235Y-177780467D01*
X129297234Y-177780466D01*
X129225546Y-177607395D01*
X129189000Y-177423667D01*
X129189000Y-177236333D01*
X129225546Y-177052605D01*
X129297234Y-176879534D01*
X129401309Y-176723775D01*
X129401310Y-176723773D01*
X129533773Y-176591310D01*
X129689533Y-176487235D01*
X129689534Y-176487234D01*
X129862605Y-176415546D01*
X130046333Y-176379000D01*
X130233667Y-176379000D01*
X130417395Y-176415546D01*
G37*
G36*
X91682395Y-173875546D02*
G01*
X91855466Y-173947234D01*
X91855467Y-173947235D01*
X92011227Y-174051310D01*
X92143690Y-174183773D01*
X92143691Y-174183775D01*
X92247766Y-174339534D01*
X92319454Y-174512605D01*
X92356000Y-174696333D01*
X92356000Y-174883667D01*
X92319454Y-175067395D01*
X92247766Y-175240466D01*
X92247765Y-175240467D01*
X92143690Y-175396227D01*
X92011227Y-175528690D01*
X91932818Y-175581081D01*
X91855466Y-175632766D01*
X91682395Y-175704454D01*
X91498667Y-175741000D01*
X91311333Y-175741000D01*
X91127605Y-175704454D01*
X90954534Y-175632766D01*
X90877182Y-175581081D01*
X90798773Y-175528690D01*
X90666310Y-175396227D01*
X90562235Y-175240467D01*
X90562234Y-175240466D01*
X90490546Y-175067395D01*
X90454000Y-174883667D01*
X90454000Y-174696333D01*
X90490546Y-174512605D01*
X90562234Y-174339534D01*
X90666309Y-174183775D01*
X90666310Y-174183773D01*
X90798773Y-174051310D01*
X90954533Y-173947235D01*
X90954534Y-173947234D01*
X91127605Y-173875546D01*
X91311333Y-173839000D01*
X91498667Y-173839000D01*
X91682395Y-173875546D01*
G37*
G36*
X94896000Y-175741000D02*
G01*
X92994000Y-175741000D01*
X92994000Y-173839000D01*
X94896000Y-173839000D01*
X94896000Y-175741000D01*
G37*
G36*
X67388512Y-172877927D02*
G01*
X67537812Y-172907624D01*
X67701784Y-172975544D01*
X67849354Y-173074147D01*
X67974853Y-173199646D01*
X68073456Y-173347216D01*
X68141376Y-173511188D01*
X68176000Y-173685259D01*
X68176000Y-173862741D01*
X68141376Y-174036812D01*
X68073456Y-174200784D01*
X67974853Y-174348354D01*
X67849354Y-174473853D01*
X67701784Y-174572456D01*
X67537812Y-174640376D01*
X67388512Y-174670073D01*
X67363742Y-174675000D01*
X67186258Y-174675000D01*
X67161488Y-174670073D01*
X67012188Y-174640376D01*
X66848216Y-174572456D01*
X66700646Y-174473853D01*
X66575147Y-174348354D01*
X66476544Y-174200784D01*
X66408624Y-174036812D01*
X66374000Y-173862741D01*
X66374000Y-173685259D01*
X66408624Y-173511188D01*
X66476544Y-173347216D01*
X66575147Y-173199646D01*
X66700646Y-173074147D01*
X66848216Y-172975544D01*
X67012188Y-172907624D01*
X67161488Y-172877927D01*
X67186258Y-172873000D01*
X67363742Y-172873000D01*
X67388512Y-172877927D01*
G37*
G36*
X69928512Y-172877927D02*
G01*
X70077812Y-172907624D01*
X70241784Y-172975544D01*
X70389354Y-173074147D01*
X70514853Y-173199646D01*
X70613456Y-173347216D01*
X70681376Y-173511188D01*
X70716000Y-173685259D01*
X70716000Y-173862741D01*
X70681376Y-174036812D01*
X70613456Y-174200784D01*
X70514853Y-174348354D01*
X70389354Y-174473853D01*
X70241784Y-174572456D01*
X70077812Y-174640376D01*
X69928512Y-174670073D01*
X69903742Y-174675000D01*
X69726258Y-174675000D01*
X69701488Y-174670073D01*
X69552188Y-174640376D01*
X69388216Y-174572456D01*
X69240646Y-174473853D01*
X69115147Y-174348354D01*
X69016544Y-174200784D01*
X68948624Y-174036812D01*
X68914000Y-173862741D01*
X68914000Y-173685259D01*
X68948624Y-173511188D01*
X69016544Y-173347216D01*
X69115147Y-173199646D01*
X69240646Y-173074147D01*
X69388216Y-172975544D01*
X69552188Y-172907624D01*
X69701488Y-172877927D01*
X69726258Y-172873000D01*
X69903742Y-172873000D01*
X69928512Y-172877927D01*
G37*
G36*
X160035012Y-171544427D02*
G01*
X160184312Y-171574124D01*
X160348284Y-171642044D01*
X160495854Y-171740647D01*
X160621353Y-171866146D01*
X160719956Y-172013716D01*
X160787876Y-172177688D01*
X160822500Y-172351759D01*
X160822500Y-172529241D01*
X160787876Y-172703312D01*
X160719956Y-172867284D01*
X160621353Y-173014854D01*
X160495854Y-173140353D01*
X160348284Y-173238956D01*
X160184312Y-173306876D01*
X160035012Y-173336573D01*
X160010242Y-173341500D01*
X159832758Y-173341500D01*
X159807988Y-173336573D01*
X159658688Y-173306876D01*
X159494716Y-173238956D01*
X159347146Y-173140353D01*
X159221647Y-173014854D01*
X159123044Y-172867284D01*
X159055124Y-172703312D01*
X159020500Y-172529241D01*
X159020500Y-172351759D01*
X159055124Y-172177688D01*
X159123044Y-172013716D01*
X159221647Y-171866146D01*
X159347146Y-171740647D01*
X159494716Y-171642044D01*
X159658688Y-171574124D01*
X159807988Y-171544427D01*
X159832758Y-171539500D01*
X160010242Y-171539500D01*
X160035012Y-171544427D01*
G37*
G36*
X141212395Y-170700546D02*
G01*
X141385466Y-170772234D01*
X141437820Y-170807216D01*
X141541227Y-170876310D01*
X141673690Y-171008773D01*
X141673691Y-171008775D01*
X141777766Y-171164534D01*
X141849454Y-171337605D01*
X141886000Y-171521333D01*
X141886000Y-171708667D01*
X141849454Y-171892395D01*
X141777766Y-172065466D01*
X141754440Y-172100376D01*
X141673690Y-172221227D01*
X141541227Y-172353690D01*
X141462818Y-172406081D01*
X141385466Y-172457766D01*
X141212395Y-172529454D01*
X141028667Y-172566000D01*
X140841333Y-172566000D01*
X140657605Y-172529454D01*
X140484534Y-172457766D01*
X140407182Y-172406081D01*
X140328773Y-172353690D01*
X140196310Y-172221227D01*
X140115560Y-172100376D01*
X140092234Y-172065466D01*
X140020546Y-171892395D01*
X139984000Y-171708667D01*
X139984000Y-171521333D01*
X140020546Y-171337605D01*
X140092234Y-171164534D01*
X140196309Y-171008775D01*
X140196310Y-171008773D01*
X140328773Y-170876310D01*
X140432180Y-170807216D01*
X140484534Y-170772234D01*
X140657605Y-170700546D01*
X140841333Y-170664000D01*
X141028667Y-170664000D01*
X141212395Y-170700546D01*
G37*
G36*
X130417395Y-170700546D02*
G01*
X130590466Y-170772234D01*
X130642820Y-170807216D01*
X130746227Y-170876310D01*
X130878690Y-171008773D01*
X130878691Y-171008775D01*
X130982766Y-171164534D01*
X131054454Y-171337605D01*
X131091000Y-171521333D01*
X131091000Y-171708667D01*
X131054454Y-171892395D01*
X130982766Y-172065466D01*
X130959440Y-172100376D01*
X130878690Y-172221227D01*
X130746227Y-172353690D01*
X130667818Y-172406081D01*
X130590466Y-172457766D01*
X130417395Y-172529454D01*
X130233667Y-172566000D01*
X130046333Y-172566000D01*
X129862605Y-172529454D01*
X129689534Y-172457766D01*
X129612182Y-172406081D01*
X129533773Y-172353690D01*
X129401310Y-172221227D01*
X129320560Y-172100376D01*
X129297234Y-172065466D01*
X129225546Y-171892395D01*
X129189000Y-171708667D01*
X129189000Y-171521333D01*
X129225546Y-171337605D01*
X129297234Y-171164534D01*
X129401309Y-171008775D01*
X129401310Y-171008773D01*
X129533773Y-170876310D01*
X129637180Y-170807216D01*
X129689534Y-170772234D01*
X129862605Y-170700546D01*
X130046333Y-170664000D01*
X130233667Y-170664000D01*
X130417395Y-170700546D01*
G37*
G36*
X133631000Y-172566000D02*
G01*
X131729000Y-172566000D01*
X131729000Y-170664000D01*
X133631000Y-170664000D01*
X133631000Y-172566000D01*
G37*
G36*
X139346000Y-172566000D02*
G01*
X137444000Y-172566000D01*
X137444000Y-170664000D01*
X139346000Y-170664000D01*
X139346000Y-172566000D01*
G37*
G36*
X67388512Y-170337927D02*
G01*
X67537812Y-170367624D01*
X67701784Y-170435544D01*
X67849354Y-170534147D01*
X67974853Y-170659646D01*
X68073456Y-170807216D01*
X68141376Y-170971188D01*
X68171073Y-171120488D01*
X68176000Y-171145258D01*
X68176000Y-171322742D01*
X68171073Y-171347512D01*
X68141376Y-171496812D01*
X68073456Y-171660784D01*
X67974853Y-171808354D01*
X67849354Y-171933853D01*
X67701784Y-172032456D01*
X67537812Y-172100376D01*
X67388512Y-172130073D01*
X67363742Y-172135000D01*
X67186258Y-172135000D01*
X67161488Y-172130073D01*
X67012188Y-172100376D01*
X66848216Y-172032456D01*
X66700646Y-171933853D01*
X66575147Y-171808354D01*
X66476544Y-171660784D01*
X66408624Y-171496812D01*
X66378927Y-171347512D01*
X66374000Y-171322742D01*
X66374000Y-171145258D01*
X66378927Y-171120488D01*
X66408624Y-170971188D01*
X66476544Y-170807216D01*
X66575147Y-170659646D01*
X66700646Y-170534147D01*
X66848216Y-170435544D01*
X67012188Y-170367624D01*
X67161488Y-170337927D01*
X67186258Y-170333000D01*
X67363742Y-170333000D01*
X67388512Y-170337927D01*
G37*
G36*
X69928512Y-170337927D02*
G01*
X70077812Y-170367624D01*
X70241784Y-170435544D01*
X70389354Y-170534147D01*
X70514853Y-170659646D01*
X70613456Y-170807216D01*
X70681376Y-170971188D01*
X70711073Y-171120488D01*
X70716000Y-171145258D01*
X70716000Y-171322742D01*
X70711073Y-171347512D01*
X70681376Y-171496812D01*
X70613456Y-171660784D01*
X70514853Y-171808354D01*
X70389354Y-171933853D01*
X70241784Y-172032456D01*
X70077812Y-172100376D01*
X69928512Y-172130073D01*
X69903742Y-172135000D01*
X69726258Y-172135000D01*
X69701488Y-172130073D01*
X69552188Y-172100376D01*
X69388216Y-172032456D01*
X69240646Y-171933853D01*
X69115147Y-171808354D01*
X69016544Y-171660784D01*
X68948624Y-171496812D01*
X68918927Y-171347512D01*
X68914000Y-171322742D01*
X68914000Y-171145258D01*
X68918927Y-171120488D01*
X68948624Y-170971188D01*
X69016544Y-170807216D01*
X69115147Y-170659646D01*
X69240646Y-170534147D01*
X69388216Y-170435544D01*
X69552188Y-170367624D01*
X69701488Y-170337927D01*
X69726258Y-170333000D01*
X69903742Y-170333000D01*
X69928512Y-170337927D01*
G37*
G36*
X160035012Y-169004427D02*
G01*
X160184312Y-169034124D01*
X160348284Y-169102044D01*
X160495854Y-169200647D01*
X160621353Y-169326146D01*
X160719956Y-169473716D01*
X160787876Y-169637688D01*
X160822500Y-169811759D01*
X160822500Y-169989241D01*
X160787876Y-170163312D01*
X160719956Y-170327284D01*
X160621353Y-170474854D01*
X160495854Y-170600353D01*
X160348284Y-170698956D01*
X160184312Y-170766876D01*
X160035012Y-170796573D01*
X160010242Y-170801500D01*
X159832758Y-170801500D01*
X159807988Y-170796573D01*
X159658688Y-170766876D01*
X159494716Y-170698956D01*
X159347146Y-170600353D01*
X159221647Y-170474854D01*
X159123044Y-170327284D01*
X159055124Y-170163312D01*
X159020500Y-169989241D01*
X159020500Y-169811759D01*
X159055124Y-169637688D01*
X159123044Y-169473716D01*
X159221647Y-169326146D01*
X159347146Y-169200647D01*
X159494716Y-169102044D01*
X159658688Y-169034124D01*
X159807988Y-169004427D01*
X159832758Y-168999500D01*
X160010242Y-168999500D01*
X160035012Y-169004427D01*
G37*
G36*
X91682395Y-168160546D02*
G01*
X91855466Y-168232234D01*
X91907820Y-168267216D01*
X92011227Y-168336310D01*
X92143690Y-168468773D01*
X92143691Y-168468775D01*
X92247766Y-168624534D01*
X92319454Y-168797605D01*
X92356000Y-168981333D01*
X92356000Y-169168667D01*
X92319454Y-169352395D01*
X92247766Y-169525466D01*
X92224440Y-169560376D01*
X92143690Y-169681227D01*
X92011227Y-169813690D01*
X91932818Y-169866081D01*
X91855466Y-169917766D01*
X91682395Y-169989454D01*
X91498667Y-170026000D01*
X91311333Y-170026000D01*
X91127605Y-169989454D01*
X90954534Y-169917766D01*
X90877182Y-169866081D01*
X90798773Y-169813690D01*
X90666310Y-169681227D01*
X90585560Y-169560376D01*
X90562234Y-169525466D01*
X90490546Y-169352395D01*
X90454000Y-169168667D01*
X90454000Y-168981333D01*
X90490546Y-168797605D01*
X90562234Y-168624534D01*
X90666309Y-168468775D01*
X90666310Y-168468773D01*
X90798773Y-168336310D01*
X90902180Y-168267216D01*
X90954534Y-168232234D01*
X91127605Y-168160546D01*
X91311333Y-168124000D01*
X91498667Y-168124000D01*
X91682395Y-168160546D01*
G37*
G36*
X81561000Y-170026000D02*
G01*
X79659000Y-170026000D01*
X79659000Y-168124000D01*
X81561000Y-168124000D01*
X81561000Y-170026000D01*
G37*
G36*
X94896000Y-170026000D02*
G01*
X92994000Y-170026000D01*
X92994000Y-168124000D01*
X94896000Y-168124000D01*
X94896000Y-170026000D01*
G37*
G36*
X78347395Y-168160546D02*
G01*
X78520466Y-168232234D01*
X78572820Y-168267216D01*
X78676227Y-168336310D01*
X78808690Y-168468773D01*
X78808691Y-168468775D01*
X78912766Y-168624534D01*
X78984454Y-168797605D01*
X79021000Y-168981333D01*
X79021000Y-169168667D01*
X78984454Y-169352395D01*
X78912766Y-169525466D01*
X78889440Y-169560376D01*
X78808690Y-169681227D01*
X78676227Y-169813690D01*
X78597818Y-169866081D01*
X78520466Y-169917766D01*
X78347395Y-169989454D01*
X78163667Y-170026000D01*
X77976333Y-170026000D01*
X77792605Y-169989454D01*
X77619534Y-169917766D01*
X77542182Y-169866081D01*
X77463773Y-169813690D01*
X77331310Y-169681227D01*
X77250560Y-169560376D01*
X77227234Y-169525466D01*
X77155546Y-169352395D01*
X77119000Y-169168667D01*
X77119000Y-168981333D01*
X77155546Y-168797605D01*
X77227234Y-168624534D01*
X77331309Y-168468775D01*
X77331310Y-168468773D01*
X77463773Y-168336310D01*
X77567180Y-168267216D01*
X77619534Y-168232234D01*
X77792605Y-168160546D01*
X77976333Y-168124000D01*
X78163667Y-168124000D01*
X78347395Y-168160546D01*
G37*
G36*
X69928512Y-167797927D02*
G01*
X70077812Y-167827624D01*
X70241784Y-167895544D01*
X70389354Y-167994147D01*
X70514853Y-168119646D01*
X70613456Y-168267216D01*
X70681376Y-168431188D01*
X70711073Y-168580488D01*
X70716000Y-168605258D01*
X70716000Y-168782742D01*
X70711073Y-168807512D01*
X70681376Y-168956812D01*
X70613456Y-169120784D01*
X70514853Y-169268354D01*
X70389354Y-169393853D01*
X70241784Y-169492456D01*
X70077812Y-169560376D01*
X69928512Y-169590073D01*
X69903742Y-169595000D01*
X69726258Y-169595000D01*
X69701488Y-169590073D01*
X69552188Y-169560376D01*
X69388216Y-169492456D01*
X69240646Y-169393853D01*
X69115147Y-169268354D01*
X69016544Y-169120784D01*
X68948624Y-168956812D01*
X68918927Y-168807512D01*
X68914000Y-168782742D01*
X68914000Y-168605258D01*
X68918927Y-168580488D01*
X68948624Y-168431188D01*
X69016544Y-168267216D01*
X69115147Y-168119646D01*
X69240646Y-167994147D01*
X69388216Y-167895544D01*
X69552188Y-167827624D01*
X69701488Y-167797927D01*
X69726258Y-167793000D01*
X69903742Y-167793000D01*
X69928512Y-167797927D01*
G37*
G36*
X67388512Y-167797927D02*
G01*
X67537812Y-167827624D01*
X67701784Y-167895544D01*
X67849354Y-167994147D01*
X67974853Y-168119646D01*
X68073456Y-168267216D01*
X68141376Y-168431188D01*
X68171073Y-168580488D01*
X68176000Y-168605258D01*
X68176000Y-168782742D01*
X68171073Y-168807512D01*
X68141376Y-168956812D01*
X68073456Y-169120784D01*
X67974853Y-169268354D01*
X67849354Y-169393853D01*
X67701784Y-169492456D01*
X67537812Y-169560376D01*
X67388512Y-169590073D01*
X67363742Y-169595000D01*
X67186258Y-169595000D01*
X67161488Y-169590073D01*
X67012188Y-169560376D01*
X66848216Y-169492456D01*
X66700646Y-169393853D01*
X66575147Y-169268354D01*
X66476544Y-169120784D01*
X66408624Y-168956812D01*
X66378927Y-168807512D01*
X66374000Y-168782742D01*
X66374000Y-168605258D01*
X66378927Y-168580488D01*
X66408624Y-168431188D01*
X66476544Y-168267216D01*
X66575147Y-168119646D01*
X66700646Y-167994147D01*
X66848216Y-167895544D01*
X67012188Y-167827624D01*
X67161488Y-167797927D01*
X67186258Y-167793000D01*
X67363742Y-167793000D01*
X67388512Y-167797927D01*
G37*
G36*
X160035012Y-166464427D02*
G01*
X160184312Y-166494124D01*
X160348284Y-166562044D01*
X160495854Y-166660647D01*
X160621353Y-166786146D01*
X160719956Y-166933716D01*
X160787876Y-167097688D01*
X160822500Y-167271759D01*
X160822500Y-167449241D01*
X160787876Y-167623312D01*
X160719956Y-167787284D01*
X160621353Y-167934854D01*
X160495854Y-168060353D01*
X160348284Y-168158956D01*
X160184312Y-168226876D01*
X160035012Y-168256573D01*
X160010242Y-168261500D01*
X159832758Y-168261500D01*
X159807988Y-168256573D01*
X159658688Y-168226876D01*
X159494716Y-168158956D01*
X159347146Y-168060353D01*
X159221647Y-167934854D01*
X159123044Y-167787284D01*
X159055124Y-167623312D01*
X159020500Y-167449241D01*
X159020500Y-167271759D01*
X159055124Y-167097688D01*
X159123044Y-166933716D01*
X159221647Y-166786146D01*
X159347146Y-166660647D01*
X159494716Y-166562044D01*
X159658688Y-166494124D01*
X159807988Y-166464427D01*
X159832758Y-166459500D01*
X160010242Y-166459500D01*
X160035012Y-166464427D01*
G37*
G36*
X69928512Y-165257927D02*
G01*
X70077812Y-165287624D01*
X70241784Y-165355544D01*
X70389354Y-165454147D01*
X70514853Y-165579646D01*
X70613456Y-165727216D01*
X70681376Y-165891188D01*
X70716000Y-166065259D01*
X70716000Y-166242741D01*
X70681376Y-166416812D01*
X70613456Y-166580784D01*
X70514853Y-166728354D01*
X70389354Y-166853853D01*
X70241784Y-166952456D01*
X70077812Y-167020376D01*
X69928512Y-167050073D01*
X69903742Y-167055000D01*
X69726258Y-167055000D01*
X69701488Y-167050073D01*
X69552188Y-167020376D01*
X69388216Y-166952456D01*
X69240646Y-166853853D01*
X69115147Y-166728354D01*
X69016544Y-166580784D01*
X68948624Y-166416812D01*
X68914000Y-166242741D01*
X68914000Y-166065259D01*
X68948624Y-165891188D01*
X69016544Y-165727216D01*
X69115147Y-165579646D01*
X69240646Y-165454147D01*
X69388216Y-165355544D01*
X69552188Y-165287624D01*
X69701488Y-165257927D01*
X69726258Y-165253000D01*
X69903742Y-165253000D01*
X69928512Y-165257927D01*
G37*
G36*
X67388512Y-165257927D02*
G01*
X67537812Y-165287624D01*
X67701784Y-165355544D01*
X67849354Y-165454147D01*
X67974853Y-165579646D01*
X68073456Y-165727216D01*
X68141376Y-165891188D01*
X68176000Y-166065259D01*
X68176000Y-166242741D01*
X68141376Y-166416812D01*
X68073456Y-166580784D01*
X67974853Y-166728354D01*
X67849354Y-166853853D01*
X67701784Y-166952456D01*
X67537812Y-167020376D01*
X67388512Y-167050073D01*
X67363742Y-167055000D01*
X67186258Y-167055000D01*
X67161488Y-167050073D01*
X67012188Y-167020376D01*
X66848216Y-166952456D01*
X66700646Y-166853853D01*
X66575147Y-166728354D01*
X66476544Y-166580784D01*
X66408624Y-166416812D01*
X66374000Y-166242741D01*
X66374000Y-166065259D01*
X66408624Y-165891188D01*
X66476544Y-165727216D01*
X66575147Y-165579646D01*
X66700646Y-165454147D01*
X66848216Y-165355544D01*
X67012188Y-165287624D01*
X67161488Y-165257927D01*
X67186258Y-165253000D01*
X67363742Y-165253000D01*
X67388512Y-165257927D01*
G37*
G36*
X133631000Y-166851000D02*
G01*
X131729000Y-166851000D01*
X131729000Y-164949000D01*
X133631000Y-164949000D01*
X133631000Y-166851000D01*
G37*
G36*
X141212395Y-164985546D02*
G01*
X141385466Y-165057234D01*
X141385467Y-165057235D01*
X141541227Y-165161310D01*
X141673690Y-165293773D01*
X141673691Y-165293775D01*
X141777766Y-165449534D01*
X141849454Y-165622605D01*
X141886000Y-165806333D01*
X141886000Y-165993667D01*
X141849454Y-166177395D01*
X141777766Y-166350466D01*
X141777765Y-166350467D01*
X141673690Y-166506227D01*
X141541227Y-166638690D01*
X141508366Y-166660647D01*
X141385466Y-166742766D01*
X141212395Y-166814454D01*
X141028667Y-166851000D01*
X140841333Y-166851000D01*
X140657605Y-166814454D01*
X140484534Y-166742766D01*
X140361634Y-166660647D01*
X140328773Y-166638690D01*
X140196310Y-166506227D01*
X140092235Y-166350467D01*
X140092234Y-166350466D01*
X140020546Y-166177395D01*
X139984000Y-165993667D01*
X139984000Y-165806333D01*
X140020546Y-165622605D01*
X140092234Y-165449534D01*
X140196309Y-165293775D01*
X140196310Y-165293773D01*
X140328773Y-165161310D01*
X140484533Y-165057235D01*
X140484534Y-165057234D01*
X140657605Y-164985546D01*
X140841333Y-164949000D01*
X141028667Y-164949000D01*
X141212395Y-164985546D01*
G37*
G36*
X139346000Y-166851000D02*
G01*
X137444000Y-166851000D01*
X137444000Y-164949000D01*
X139346000Y-164949000D01*
X139346000Y-166851000D01*
G37*
G36*
X130417395Y-164985546D02*
G01*
X130590466Y-165057234D01*
X130590467Y-165057235D01*
X130746227Y-165161310D01*
X130878690Y-165293773D01*
X130878691Y-165293775D01*
X130982766Y-165449534D01*
X131054454Y-165622605D01*
X131091000Y-165806333D01*
X131091000Y-165993667D01*
X131054454Y-166177395D01*
X130982766Y-166350466D01*
X130982765Y-166350467D01*
X130878690Y-166506227D01*
X130746227Y-166638690D01*
X130713366Y-166660647D01*
X130590466Y-166742766D01*
X130417395Y-166814454D01*
X130233667Y-166851000D01*
X130046333Y-166851000D01*
X129862605Y-166814454D01*
X129689534Y-166742766D01*
X129566634Y-166660647D01*
X129533773Y-166638690D01*
X129401310Y-166506227D01*
X129297235Y-166350467D01*
X129297234Y-166350466D01*
X129225546Y-166177395D01*
X129189000Y-165993667D01*
X129189000Y-165806333D01*
X129225546Y-165622605D01*
X129297234Y-165449534D01*
X129401309Y-165293775D01*
X129401310Y-165293773D01*
X129533773Y-165161310D01*
X129689533Y-165057235D01*
X129689534Y-165057234D01*
X129862605Y-164985546D01*
X130046333Y-164949000D01*
X130233667Y-164949000D01*
X130417395Y-164985546D01*
G37*
G36*
X160822500Y-165721500D02*
G01*
X159020500Y-165721500D01*
X159020500Y-163919500D01*
X160822500Y-163919500D01*
X160822500Y-165721500D01*
G37*
G36*
X70716000Y-164515000D02*
G01*
X68914000Y-164515000D01*
X68914000Y-162713000D01*
X70716000Y-162713000D01*
X70716000Y-164515000D01*
G37*
G36*
X67388512Y-162717927D02*
G01*
X67537812Y-162747624D01*
X67701784Y-162815544D01*
X67849354Y-162914147D01*
X67974853Y-163039646D01*
X68073456Y-163187216D01*
X68141376Y-163351188D01*
X68176000Y-163525259D01*
X68176000Y-163702741D01*
X68141376Y-163876812D01*
X68073456Y-164040784D01*
X67974853Y-164188354D01*
X67849354Y-164313853D01*
X67701784Y-164412456D01*
X67537812Y-164480376D01*
X67388512Y-164510073D01*
X67363742Y-164515000D01*
X67186258Y-164515000D01*
X67161488Y-164510073D01*
X67012188Y-164480376D01*
X66848216Y-164412456D01*
X66700646Y-164313853D01*
X66575147Y-164188354D01*
X66476544Y-164040784D01*
X66408624Y-163876812D01*
X66374000Y-163702741D01*
X66374000Y-163525259D01*
X66408624Y-163351188D01*
X66476544Y-163187216D01*
X66575147Y-163039646D01*
X66700646Y-162914147D01*
X66848216Y-162815544D01*
X67012188Y-162747624D01*
X67161488Y-162717927D01*
X67186258Y-162713000D01*
X67363742Y-162713000D01*
X67388512Y-162717927D01*
G37*
G36*
X91682395Y-162445546D02*
G01*
X91855466Y-162517234D01*
X91855467Y-162517235D01*
X92011227Y-162621310D01*
X92143690Y-162753773D01*
X92143691Y-162753775D01*
X92247766Y-162909534D01*
X92319454Y-163082605D01*
X92356000Y-163266333D01*
X92356000Y-163453667D01*
X92319454Y-163637395D01*
X92247766Y-163810466D01*
X92247765Y-163810467D01*
X92143690Y-163966227D01*
X92011227Y-164098690D01*
X91932818Y-164151081D01*
X91855466Y-164202766D01*
X91682395Y-164274454D01*
X91498667Y-164311000D01*
X91311333Y-164311000D01*
X91127605Y-164274454D01*
X90954534Y-164202766D01*
X90877182Y-164151081D01*
X90798773Y-164098690D01*
X90666310Y-163966227D01*
X90562235Y-163810467D01*
X90562234Y-163810466D01*
X90490546Y-163637395D01*
X90454000Y-163453667D01*
X90454000Y-163266333D01*
X90490546Y-163082605D01*
X90562234Y-162909534D01*
X90666309Y-162753775D01*
X90666310Y-162753773D01*
X90798773Y-162621310D01*
X90954533Y-162517235D01*
X90954534Y-162517234D01*
X91127605Y-162445546D01*
X91311333Y-162409000D01*
X91498667Y-162409000D01*
X91682395Y-162445546D01*
G37*
G36*
X94896000Y-164311000D02*
G01*
X92994000Y-164311000D01*
X92994000Y-162409000D01*
X94896000Y-162409000D01*
X94896000Y-164311000D01*
G37*
G36*
X78347395Y-161810546D02*
G01*
X78520466Y-161882234D01*
X78520467Y-161882235D01*
X78676227Y-161986310D01*
X78808690Y-162118773D01*
X78808691Y-162118775D01*
X78912766Y-162274534D01*
X78984454Y-162447605D01*
X79021000Y-162631333D01*
X79021000Y-162818667D01*
X78984454Y-163002395D01*
X78912766Y-163175466D01*
X78861081Y-163252818D01*
X78808690Y-163331227D01*
X78676227Y-163463690D01*
X78597818Y-163516081D01*
X78520466Y-163567766D01*
X78347395Y-163639454D01*
X78163667Y-163676000D01*
X77976333Y-163676000D01*
X77792605Y-163639454D01*
X77619534Y-163567766D01*
X77542182Y-163516081D01*
X77463773Y-163463690D01*
X77331310Y-163331227D01*
X77278919Y-163252818D01*
X77227234Y-163175466D01*
X77155546Y-163002395D01*
X77119000Y-162818667D01*
X77119000Y-162631333D01*
X77155546Y-162447605D01*
X77227234Y-162274534D01*
X77331309Y-162118775D01*
X77331310Y-162118773D01*
X77463773Y-161986310D01*
X77619533Y-161882235D01*
X77619534Y-161882234D01*
X77792605Y-161810546D01*
X77976333Y-161774000D01*
X78163667Y-161774000D01*
X78347395Y-161810546D01*
G37*
G36*
X81561000Y-163676000D02*
G01*
X79659000Y-163676000D01*
X79659000Y-161774000D01*
X81561000Y-161774000D01*
X81561000Y-163676000D01*
G37*
G36*
X75201564Y-157324389D02*
G01*
X75392833Y-157403615D01*
X75392835Y-157403616D01*
X75564973Y-157518635D01*
X75711365Y-157665027D01*
X75826385Y-157837167D01*
X75905611Y-158028436D01*
X75946000Y-158231484D01*
X75946000Y-158438516D01*
X75905611Y-158641564D01*
X75826385Y-158832833D01*
X75826384Y-158832835D01*
X75711365Y-159004973D01*
X75564973Y-159151365D01*
X75392835Y-159266384D01*
X75392834Y-159266385D01*
X75392833Y-159266385D01*
X75201564Y-159345611D01*
X74998516Y-159386000D01*
X74791484Y-159386000D01*
X74588436Y-159345611D01*
X74397167Y-159266385D01*
X74397166Y-159266385D01*
X74397165Y-159266384D01*
X74225027Y-159151365D01*
X74078635Y-159004973D01*
X73963616Y-158832835D01*
X73963615Y-158832833D01*
X73884389Y-158641564D01*
X73844000Y-158438516D01*
X73844000Y-158231484D01*
X73884389Y-158028436D01*
X73963615Y-157837167D01*
X74078635Y-157665027D01*
X74225027Y-157518635D01*
X74397165Y-157403616D01*
X74397167Y-157403615D01*
X74588436Y-157324389D01*
X74791484Y-157284000D01*
X74998516Y-157284000D01*
X75201564Y-157324389D01*
G37*
G36*
X85996564Y-157324389D02*
G01*
X86187833Y-157403615D01*
X86187835Y-157403616D01*
X86359973Y-157518635D01*
X86506365Y-157665027D01*
X86621385Y-157837167D01*
X86700611Y-158028436D01*
X86741000Y-158231484D01*
X86741000Y-158438516D01*
X86700611Y-158641564D01*
X86621385Y-158832833D01*
X86621384Y-158832835D01*
X86506365Y-159004973D01*
X86359973Y-159151365D01*
X86187835Y-159266384D01*
X86187834Y-159266385D01*
X86187833Y-159266385D01*
X85996564Y-159345611D01*
X85793516Y-159386000D01*
X85586484Y-159386000D01*
X85383436Y-159345611D01*
X85192167Y-159266385D01*
X85192166Y-159266385D01*
X85192165Y-159266384D01*
X85020027Y-159151365D01*
X84873635Y-159004973D01*
X84758616Y-158832835D01*
X84758615Y-158832833D01*
X84679389Y-158641564D01*
X84639000Y-158438516D01*
X84639000Y-158231484D01*
X84679389Y-158028436D01*
X84758615Y-157837167D01*
X84873635Y-157665027D01*
X85020027Y-157518635D01*
X85192165Y-157403616D01*
X85192167Y-157403615D01*
X85383436Y-157324389D01*
X85586484Y-157284000D01*
X85793516Y-157284000D01*
X85996564Y-157324389D01*
G37*
G36*
X81701564Y-157324389D02*
G01*
X81892833Y-157403615D01*
X81892835Y-157403616D01*
X82064973Y-157518635D01*
X82211365Y-157665027D01*
X82326385Y-157837167D01*
X82405611Y-158028436D01*
X82446000Y-158231484D01*
X82446000Y-158438516D01*
X82405611Y-158641564D01*
X82326385Y-158832833D01*
X82326384Y-158832835D01*
X82211365Y-159004973D01*
X82064973Y-159151365D01*
X81892835Y-159266384D01*
X81892834Y-159266385D01*
X81892833Y-159266385D01*
X81701564Y-159345611D01*
X81498516Y-159386000D01*
X81291484Y-159386000D01*
X81088436Y-159345611D01*
X80897167Y-159266385D01*
X80897166Y-159266385D01*
X80897165Y-159266384D01*
X80725027Y-159151365D01*
X80578635Y-159004973D01*
X80463616Y-158832835D01*
X80463615Y-158832833D01*
X80384389Y-158641564D01*
X80344000Y-158438516D01*
X80344000Y-158231484D01*
X80384389Y-158028436D01*
X80463615Y-157837167D01*
X80578635Y-157665027D01*
X80725027Y-157518635D01*
X80897165Y-157403616D01*
X80897167Y-157403615D01*
X81088436Y-157324389D01*
X81291484Y-157284000D01*
X81498516Y-157284000D01*
X81701564Y-157324389D01*
G37*
G36*
X124881564Y-157324389D02*
G01*
X125072833Y-157403615D01*
X125072835Y-157403616D01*
X125244973Y-157518635D01*
X125391365Y-157665027D01*
X125506385Y-157837167D01*
X125585611Y-158028436D01*
X125626000Y-158231484D01*
X125626000Y-158438516D01*
X125585611Y-158641564D01*
X125506385Y-158832833D01*
X125506384Y-158832835D01*
X125391365Y-159004973D01*
X125244973Y-159151365D01*
X125072835Y-159266384D01*
X125072834Y-159266385D01*
X125072833Y-159266385D01*
X124881564Y-159345611D01*
X124678516Y-159386000D01*
X124471484Y-159386000D01*
X124268436Y-159345611D01*
X124077167Y-159266385D01*
X124077166Y-159266385D01*
X124077165Y-159266384D01*
X123905027Y-159151365D01*
X123758635Y-159004973D01*
X123643616Y-158832835D01*
X123643615Y-158832833D01*
X123564389Y-158641564D01*
X123524000Y-158438516D01*
X123524000Y-158231484D01*
X123564389Y-158028436D01*
X123643615Y-157837167D01*
X123758635Y-157665027D01*
X123905027Y-157518635D01*
X124077165Y-157403616D01*
X124077167Y-157403615D01*
X124268436Y-157324389D01*
X124471484Y-157284000D01*
X124678516Y-157284000D01*
X124881564Y-157324389D01*
G37*
G36*
X114086564Y-157324389D02*
G01*
X114277833Y-157403615D01*
X114277835Y-157403616D01*
X114449973Y-157518635D01*
X114596365Y-157665027D01*
X114711385Y-157837167D01*
X114790611Y-158028436D01*
X114831000Y-158231484D01*
X114831000Y-158438516D01*
X114790611Y-158641564D01*
X114711385Y-158832833D01*
X114711384Y-158832835D01*
X114596365Y-159004973D01*
X114449973Y-159151365D01*
X114277835Y-159266384D01*
X114277834Y-159266385D01*
X114277833Y-159266385D01*
X114086564Y-159345611D01*
X113883516Y-159386000D01*
X113676484Y-159386000D01*
X113473436Y-159345611D01*
X113282167Y-159266385D01*
X113282166Y-159266385D01*
X113282165Y-159266384D01*
X113110027Y-159151365D01*
X112963635Y-159004973D01*
X112848616Y-158832835D01*
X112848615Y-158832833D01*
X112769389Y-158641564D01*
X112729000Y-158438516D01*
X112729000Y-158231484D01*
X112769389Y-158028436D01*
X112848615Y-157837167D01*
X112963635Y-157665027D01*
X113110027Y-157518635D01*
X113282165Y-157403616D01*
X113282167Y-157403615D01*
X113473436Y-157324389D01*
X113676484Y-157284000D01*
X113883516Y-157284000D01*
X114086564Y-157324389D01*
G37*
G36*
X118381564Y-157324389D02*
G01*
X118572833Y-157403615D01*
X118572835Y-157403616D01*
X118744973Y-157518635D01*
X118891365Y-157665027D01*
X119006385Y-157837167D01*
X119085611Y-158028436D01*
X119126000Y-158231484D01*
X119126000Y-158438516D01*
X119085611Y-158641564D01*
X119006385Y-158832833D01*
X119006384Y-158832835D01*
X118891365Y-159004973D01*
X118744973Y-159151365D01*
X118572835Y-159266384D01*
X118572834Y-159266385D01*
X118572833Y-159266385D01*
X118381564Y-159345611D01*
X118178516Y-159386000D01*
X117971484Y-159386000D01*
X117768436Y-159345611D01*
X117577167Y-159266385D01*
X117577166Y-159266385D01*
X117577165Y-159266384D01*
X117405027Y-159151365D01*
X117258635Y-159004973D01*
X117143616Y-158832835D01*
X117143615Y-158832833D01*
X117064389Y-158641564D01*
X117024000Y-158438516D01*
X117024000Y-158231484D01*
X117064389Y-158028436D01*
X117143615Y-157837167D01*
X117258635Y-157665027D01*
X117405027Y-157518635D01*
X117577165Y-157403616D01*
X117577167Y-157403615D01*
X117768436Y-157324389D01*
X117971484Y-157284000D01*
X118178516Y-157284000D01*
X118381564Y-157324389D01*
G37*
G36*
X107586564Y-157324389D02*
G01*
X107777833Y-157403615D01*
X107777835Y-157403616D01*
X107949973Y-157518635D01*
X108096365Y-157665027D01*
X108211385Y-157837167D01*
X108290611Y-158028436D01*
X108331000Y-158231484D01*
X108331000Y-158438516D01*
X108290611Y-158641564D01*
X108211385Y-158832833D01*
X108211384Y-158832835D01*
X108096365Y-159004973D01*
X107949973Y-159151365D01*
X107777835Y-159266384D01*
X107777834Y-159266385D01*
X107777833Y-159266385D01*
X107586564Y-159345611D01*
X107383516Y-159386000D01*
X107176484Y-159386000D01*
X106973436Y-159345611D01*
X106782167Y-159266385D01*
X106782166Y-159266385D01*
X106782165Y-159266384D01*
X106610027Y-159151365D01*
X106463635Y-159004973D01*
X106348616Y-158832835D01*
X106348615Y-158832833D01*
X106269389Y-158641564D01*
X106229000Y-158438516D01*
X106229000Y-158231484D01*
X106269389Y-158028436D01*
X106348615Y-157837167D01*
X106463635Y-157665027D01*
X106610027Y-157518635D01*
X106782165Y-157403616D01*
X106782167Y-157403615D01*
X106973436Y-157324389D01*
X107176484Y-157284000D01*
X107383516Y-157284000D01*
X107586564Y-157324389D01*
G37*
G36*
X92496564Y-157324389D02*
G01*
X92687833Y-157403615D01*
X92687835Y-157403616D01*
X92859973Y-157518635D01*
X93006365Y-157665027D01*
X93121385Y-157837167D01*
X93200611Y-158028436D01*
X93241000Y-158231484D01*
X93241000Y-158438516D01*
X93200611Y-158641564D01*
X93121385Y-158832833D01*
X93121384Y-158832835D01*
X93006365Y-159004973D01*
X92859973Y-159151365D01*
X92687835Y-159266384D01*
X92687834Y-159266385D01*
X92687833Y-159266385D01*
X92496564Y-159345611D01*
X92293516Y-159386000D01*
X92086484Y-159386000D01*
X91883436Y-159345611D01*
X91692167Y-159266385D01*
X91692166Y-159266385D01*
X91692165Y-159266384D01*
X91520027Y-159151365D01*
X91373635Y-159004973D01*
X91258616Y-158832835D01*
X91258615Y-158832833D01*
X91179389Y-158641564D01*
X91139000Y-158438516D01*
X91139000Y-158231484D01*
X91179389Y-158028436D01*
X91258615Y-157837167D01*
X91373635Y-157665027D01*
X91520027Y-157518635D01*
X91692165Y-157403616D01*
X91692167Y-157403615D01*
X91883436Y-157324389D01*
X92086484Y-157284000D01*
X92293516Y-157284000D01*
X92496564Y-157324389D01*
G37*
G36*
X96791564Y-157324389D02*
G01*
X96982833Y-157403615D01*
X96982835Y-157403616D01*
X97154973Y-157518635D01*
X97301365Y-157665027D01*
X97416385Y-157837167D01*
X97495611Y-158028436D01*
X97536000Y-158231484D01*
X97536000Y-158438516D01*
X97495611Y-158641564D01*
X97416385Y-158832833D01*
X97416384Y-158832835D01*
X97301365Y-159004973D01*
X97154973Y-159151365D01*
X96982835Y-159266384D01*
X96982834Y-159266385D01*
X96982833Y-159266385D01*
X96791564Y-159345611D01*
X96588516Y-159386000D01*
X96381484Y-159386000D01*
X96178436Y-159345611D01*
X95987167Y-159266385D01*
X95987166Y-159266385D01*
X95987165Y-159266384D01*
X95815027Y-159151365D01*
X95668635Y-159004973D01*
X95553616Y-158832835D01*
X95553615Y-158832833D01*
X95474389Y-158641564D01*
X95434000Y-158438516D01*
X95434000Y-158231484D01*
X95474389Y-158028436D01*
X95553615Y-157837167D01*
X95668635Y-157665027D01*
X95815027Y-157518635D01*
X95987165Y-157403616D01*
X95987167Y-157403615D01*
X96178436Y-157324389D01*
X96381484Y-157284000D01*
X96588516Y-157284000D01*
X96791564Y-157324389D01*
G37*
G36*
X103291564Y-157324389D02*
G01*
X103482833Y-157403615D01*
X103482835Y-157403616D01*
X103654973Y-157518635D01*
X103801365Y-157665027D01*
X103916385Y-157837167D01*
X103995611Y-158028436D01*
X104036000Y-158231484D01*
X104036000Y-158438516D01*
X103995611Y-158641564D01*
X103916385Y-158832833D01*
X103916384Y-158832835D01*
X103801365Y-159004973D01*
X103654973Y-159151365D01*
X103482835Y-159266384D01*
X103482834Y-159266385D01*
X103482833Y-159266385D01*
X103291564Y-159345611D01*
X103088516Y-159386000D01*
X102881484Y-159386000D01*
X102678436Y-159345611D01*
X102487167Y-159266385D01*
X102487166Y-159266385D01*
X102487165Y-159266384D01*
X102315027Y-159151365D01*
X102168635Y-159004973D01*
X102053616Y-158832835D01*
X102053615Y-158832833D01*
X101974389Y-158641564D01*
X101934000Y-158438516D01*
X101934000Y-158231484D01*
X101974389Y-158028436D01*
X102053615Y-157837167D01*
X102168635Y-157665027D01*
X102315027Y-157518635D01*
X102487165Y-157403616D01*
X102487167Y-157403615D01*
X102678436Y-157324389D01*
X102881484Y-157284000D01*
X103088516Y-157284000D01*
X103291564Y-157324389D01*
G37*
G36*
X81701564Y-152824389D02*
G01*
X81892833Y-152903615D01*
X81892835Y-152903616D01*
X82064973Y-153018635D01*
X82211365Y-153165027D01*
X82326385Y-153337167D01*
X82405611Y-153528436D01*
X82446000Y-153731484D01*
X82446000Y-153938516D01*
X82405611Y-154141564D01*
X82326385Y-154332833D01*
X82326384Y-154332835D01*
X82211365Y-154504973D01*
X82064973Y-154651365D01*
X81892835Y-154766384D01*
X81892834Y-154766385D01*
X81892833Y-154766385D01*
X81701564Y-154845611D01*
X81498516Y-154886000D01*
X81291484Y-154886000D01*
X81088436Y-154845611D01*
X80897167Y-154766385D01*
X80897166Y-154766385D01*
X80897165Y-154766384D01*
X80725027Y-154651365D01*
X80578635Y-154504973D01*
X80463616Y-154332835D01*
X80463615Y-154332833D01*
X80384389Y-154141564D01*
X80344000Y-153938516D01*
X80344000Y-153731484D01*
X80384389Y-153528436D01*
X80463615Y-153337167D01*
X80578635Y-153165027D01*
X80725027Y-153018635D01*
X80897165Y-152903616D01*
X80897167Y-152903615D01*
X81088436Y-152824389D01*
X81291484Y-152784000D01*
X81498516Y-152784000D01*
X81701564Y-152824389D01*
G37*
G36*
X75201564Y-152824389D02*
G01*
X75392833Y-152903615D01*
X75392835Y-152903616D01*
X75564973Y-153018635D01*
X75711365Y-153165027D01*
X75826385Y-153337167D01*
X75905611Y-153528436D01*
X75946000Y-153731484D01*
X75946000Y-153938516D01*
X75905611Y-154141564D01*
X75826385Y-154332833D01*
X75826384Y-154332835D01*
X75711365Y-154504973D01*
X75564973Y-154651365D01*
X75392835Y-154766384D01*
X75392834Y-154766385D01*
X75392833Y-154766385D01*
X75201564Y-154845611D01*
X74998516Y-154886000D01*
X74791484Y-154886000D01*
X74588436Y-154845611D01*
X74397167Y-154766385D01*
X74397166Y-154766385D01*
X74397165Y-154766384D01*
X74225027Y-154651365D01*
X74078635Y-154504973D01*
X73963616Y-154332835D01*
X73963615Y-154332833D01*
X73884389Y-154141564D01*
X73844000Y-153938516D01*
X73844000Y-153731484D01*
X73884389Y-153528436D01*
X73963615Y-153337167D01*
X74078635Y-153165027D01*
X74225027Y-153018635D01*
X74397165Y-152903616D01*
X74397167Y-152903615D01*
X74588436Y-152824389D01*
X74791484Y-152784000D01*
X74998516Y-152784000D01*
X75201564Y-152824389D01*
G37*
G36*
X85996564Y-152824389D02*
G01*
X86187833Y-152903615D01*
X86187835Y-152903616D01*
X86359973Y-153018635D01*
X86506365Y-153165027D01*
X86621385Y-153337167D01*
X86700611Y-153528436D01*
X86741000Y-153731484D01*
X86741000Y-153938516D01*
X86700611Y-154141564D01*
X86621385Y-154332833D01*
X86621384Y-154332835D01*
X86506365Y-154504973D01*
X86359973Y-154651365D01*
X86187835Y-154766384D01*
X86187834Y-154766385D01*
X86187833Y-154766385D01*
X85996564Y-154845611D01*
X85793516Y-154886000D01*
X85586484Y-154886000D01*
X85383436Y-154845611D01*
X85192167Y-154766385D01*
X85192166Y-154766385D01*
X85192165Y-154766384D01*
X85020027Y-154651365D01*
X84873635Y-154504973D01*
X84758616Y-154332835D01*
X84758615Y-154332833D01*
X84679389Y-154141564D01*
X84639000Y-153938516D01*
X84639000Y-153731484D01*
X84679389Y-153528436D01*
X84758615Y-153337167D01*
X84873635Y-153165027D01*
X85020027Y-153018635D01*
X85192165Y-152903616D01*
X85192167Y-152903615D01*
X85383436Y-152824389D01*
X85586484Y-152784000D01*
X85793516Y-152784000D01*
X85996564Y-152824389D01*
G37*
G36*
X118381564Y-152824389D02*
G01*
X118572833Y-152903615D01*
X118572835Y-152903616D01*
X118744973Y-153018635D01*
X118891365Y-153165027D01*
X119006385Y-153337167D01*
X119085611Y-153528436D01*
X119126000Y-153731484D01*
X119126000Y-153938516D01*
X119085611Y-154141564D01*
X119006385Y-154332833D01*
X119006384Y-154332835D01*
X118891365Y-154504973D01*
X118744973Y-154651365D01*
X118572835Y-154766384D01*
X118572834Y-154766385D01*
X118572833Y-154766385D01*
X118381564Y-154845611D01*
X118178516Y-154886000D01*
X117971484Y-154886000D01*
X117768436Y-154845611D01*
X117577167Y-154766385D01*
X117577166Y-154766385D01*
X117577165Y-154766384D01*
X117405027Y-154651365D01*
X117258635Y-154504973D01*
X117143616Y-154332835D01*
X117143615Y-154332833D01*
X117064389Y-154141564D01*
X117024000Y-153938516D01*
X117024000Y-153731484D01*
X117064389Y-153528436D01*
X117143615Y-153337167D01*
X117258635Y-153165027D01*
X117405027Y-153018635D01*
X117577165Y-152903616D01*
X117577167Y-152903615D01*
X117768436Y-152824389D01*
X117971484Y-152784000D01*
X118178516Y-152784000D01*
X118381564Y-152824389D01*
G37*
G36*
X92496564Y-152824389D02*
G01*
X92687833Y-152903615D01*
X92687835Y-152903616D01*
X92859973Y-153018635D01*
X93006365Y-153165027D01*
X93121385Y-153337167D01*
X93200611Y-153528436D01*
X93241000Y-153731484D01*
X93241000Y-153938516D01*
X93200611Y-154141564D01*
X93121385Y-154332833D01*
X93121384Y-154332835D01*
X93006365Y-154504973D01*
X92859973Y-154651365D01*
X92687835Y-154766384D01*
X92687834Y-154766385D01*
X92687833Y-154766385D01*
X92496564Y-154845611D01*
X92293516Y-154886000D01*
X92086484Y-154886000D01*
X91883436Y-154845611D01*
X91692167Y-154766385D01*
X91692166Y-154766385D01*
X91692165Y-154766384D01*
X91520027Y-154651365D01*
X91373635Y-154504973D01*
X91258616Y-154332835D01*
X91258615Y-154332833D01*
X91179389Y-154141564D01*
X91139000Y-153938516D01*
X91139000Y-153731484D01*
X91179389Y-153528436D01*
X91258615Y-153337167D01*
X91373635Y-153165027D01*
X91520027Y-153018635D01*
X91692165Y-152903616D01*
X91692167Y-152903615D01*
X91883436Y-152824389D01*
X92086484Y-152784000D01*
X92293516Y-152784000D01*
X92496564Y-152824389D01*
G37*
G36*
X96791564Y-152824389D02*
G01*
X96982833Y-152903615D01*
X96982835Y-152903616D01*
X97154973Y-153018635D01*
X97301365Y-153165027D01*
X97416385Y-153337167D01*
X97495611Y-153528436D01*
X97536000Y-153731484D01*
X97536000Y-153938516D01*
X97495611Y-154141564D01*
X97416385Y-154332833D01*
X97416384Y-154332835D01*
X97301365Y-154504973D01*
X97154973Y-154651365D01*
X96982835Y-154766384D01*
X96982834Y-154766385D01*
X96982833Y-154766385D01*
X96791564Y-154845611D01*
X96588516Y-154886000D01*
X96381484Y-154886000D01*
X96178436Y-154845611D01*
X95987167Y-154766385D01*
X95987166Y-154766385D01*
X95987165Y-154766384D01*
X95815027Y-154651365D01*
X95668635Y-154504973D01*
X95553616Y-154332835D01*
X95553615Y-154332833D01*
X95474389Y-154141564D01*
X95434000Y-153938516D01*
X95434000Y-153731484D01*
X95474389Y-153528436D01*
X95553615Y-153337167D01*
X95668635Y-153165027D01*
X95815027Y-153018635D01*
X95987165Y-152903616D01*
X95987167Y-152903615D01*
X96178436Y-152824389D01*
X96381484Y-152784000D01*
X96588516Y-152784000D01*
X96791564Y-152824389D01*
G37*
G36*
X124881564Y-152824389D02*
G01*
X125072833Y-152903615D01*
X125072835Y-152903616D01*
X125244973Y-153018635D01*
X125391365Y-153165027D01*
X125506385Y-153337167D01*
X125585611Y-153528436D01*
X125626000Y-153731484D01*
X125626000Y-153938516D01*
X125585611Y-154141564D01*
X125506385Y-154332833D01*
X125506384Y-154332835D01*
X125391365Y-154504973D01*
X125244973Y-154651365D01*
X125072835Y-154766384D01*
X125072834Y-154766385D01*
X125072833Y-154766385D01*
X124881564Y-154845611D01*
X124678516Y-154886000D01*
X124471484Y-154886000D01*
X124268436Y-154845611D01*
X124077167Y-154766385D01*
X124077166Y-154766385D01*
X124077165Y-154766384D01*
X123905027Y-154651365D01*
X123758635Y-154504973D01*
X123643616Y-154332835D01*
X123643615Y-154332833D01*
X123564389Y-154141564D01*
X123524000Y-153938516D01*
X123524000Y-153731484D01*
X123564389Y-153528436D01*
X123643615Y-153337167D01*
X123758635Y-153165027D01*
X123905027Y-153018635D01*
X124077165Y-152903616D01*
X124077167Y-152903615D01*
X124268436Y-152824389D01*
X124471484Y-152784000D01*
X124678516Y-152784000D01*
X124881564Y-152824389D01*
G37*
G36*
X103291564Y-152824389D02*
G01*
X103482833Y-152903615D01*
X103482835Y-152903616D01*
X103654973Y-153018635D01*
X103801365Y-153165027D01*
X103916385Y-153337167D01*
X103995611Y-153528436D01*
X104036000Y-153731484D01*
X104036000Y-153938516D01*
X103995611Y-154141564D01*
X103916385Y-154332833D01*
X103916384Y-154332835D01*
X103801365Y-154504973D01*
X103654973Y-154651365D01*
X103482835Y-154766384D01*
X103482834Y-154766385D01*
X103482833Y-154766385D01*
X103291564Y-154845611D01*
X103088516Y-154886000D01*
X102881484Y-154886000D01*
X102678436Y-154845611D01*
X102487167Y-154766385D01*
X102487166Y-154766385D01*
X102487165Y-154766384D01*
X102315027Y-154651365D01*
X102168635Y-154504973D01*
X102053616Y-154332835D01*
X102053615Y-154332833D01*
X101974389Y-154141564D01*
X101934000Y-153938516D01*
X101934000Y-153731484D01*
X101974389Y-153528436D01*
X102053615Y-153337167D01*
X102168635Y-153165027D01*
X102315027Y-153018635D01*
X102487165Y-152903616D01*
X102487167Y-152903615D01*
X102678436Y-152824389D01*
X102881484Y-152784000D01*
X103088516Y-152784000D01*
X103291564Y-152824389D01*
G37*
G36*
X107586564Y-152824389D02*
G01*
X107777833Y-152903615D01*
X107777835Y-152903616D01*
X107949973Y-153018635D01*
X108096365Y-153165027D01*
X108211385Y-153337167D01*
X108290611Y-153528436D01*
X108331000Y-153731484D01*
X108331000Y-153938516D01*
X108290611Y-154141564D01*
X108211385Y-154332833D01*
X108211384Y-154332835D01*
X108096365Y-154504973D01*
X107949973Y-154651365D01*
X107777835Y-154766384D01*
X107777834Y-154766385D01*
X107777833Y-154766385D01*
X107586564Y-154845611D01*
X107383516Y-154886000D01*
X107176484Y-154886000D01*
X106973436Y-154845611D01*
X106782167Y-154766385D01*
X106782166Y-154766385D01*
X106782165Y-154766384D01*
X106610027Y-154651365D01*
X106463635Y-154504973D01*
X106348616Y-154332835D01*
X106348615Y-154332833D01*
X106269389Y-154141564D01*
X106229000Y-153938516D01*
X106229000Y-153731484D01*
X106269389Y-153528436D01*
X106348615Y-153337167D01*
X106463635Y-153165027D01*
X106610027Y-153018635D01*
X106782165Y-152903616D01*
X106782167Y-152903615D01*
X106973436Y-152824389D01*
X107176484Y-152784000D01*
X107383516Y-152784000D01*
X107586564Y-152824389D01*
G37*
G36*
X114086564Y-152824389D02*
G01*
X114277833Y-152903615D01*
X114277835Y-152903616D01*
X114449973Y-153018635D01*
X114596365Y-153165027D01*
X114711385Y-153337167D01*
X114790611Y-153528436D01*
X114831000Y-153731484D01*
X114831000Y-153938516D01*
X114790611Y-154141564D01*
X114711385Y-154332833D01*
X114711384Y-154332835D01*
X114596365Y-154504973D01*
X114449973Y-154651365D01*
X114277835Y-154766384D01*
X114277834Y-154766385D01*
X114277833Y-154766385D01*
X114086564Y-154845611D01*
X113883516Y-154886000D01*
X113676484Y-154886000D01*
X113473436Y-154845611D01*
X113282167Y-154766385D01*
X113282166Y-154766385D01*
X113282165Y-154766384D01*
X113110027Y-154651365D01*
X112963635Y-154504973D01*
X112848616Y-154332835D01*
X112848615Y-154332833D01*
X112769389Y-154141564D01*
X112729000Y-153938516D01*
X112729000Y-153731484D01*
X112769389Y-153528436D01*
X112848615Y-153337167D01*
X112963635Y-153165027D01*
X113110027Y-153018635D01*
X113282165Y-152903616D01*
X113282167Y-152903615D01*
X113473436Y-152824389D01*
X113676484Y-152784000D01*
X113883516Y-152784000D01*
X114086564Y-152824389D01*
G37*
M02*
