G04 #@! TF.GenerationSoftware,KiCad,Pcbnew,(5.1.5)-3*
G04 #@! TF.CreationDate,2020-07-08T10:13:06+02:00*
G04 #@! TF.ProjectId,SBIO3,5342494f-332e-46b6-9963-61645f706362,rev?*
G04 #@! TF.SameCoordinates,Original*
G04 #@! TF.FileFunction,Copper,L2,Bot*
G04 #@! TF.FilePolarity,Positive*
%FSLAX46Y46*%
G04 Gerber Fmt 4.6, Leading zero omitted, Abs format (unit mm)*
G04 Created by KiCad (PCBNEW (5.1.5)-3) date 2020-07-08 10:13:06*
%MOMM*%
%LPD*%
G04 APERTURE LIST*
%ADD10O,1.700000X1.700000*%
%ADD11R,1.700000X1.700000*%
%ADD12C,1.800000*%
%ADD13R,1.800000X1.800000*%
%ADD14C,2.000000*%
%ADD15C,0.500000*%
%ADD16C,0.300000*%
%ADD17C,0.500000*%
%ADD18C,0.254000*%
G04 APERTURE END LIST*
D10*
X67275000Y-173774000D03*
X69815000Y-173774000D03*
X67275000Y-171234000D03*
X69815000Y-171234000D03*
X67275000Y-168694000D03*
X69815000Y-168694000D03*
X67275000Y-166154000D03*
X69815000Y-166154000D03*
X67275000Y-163614000D03*
D11*
X69815000Y-163614000D03*
D10*
X159921500Y-172440500D03*
X159921500Y-169900500D03*
X159921500Y-167360500D03*
D11*
X159921500Y-164820500D03*
D12*
X78070000Y-169075000D03*
D13*
X80610000Y-169075000D03*
D12*
X78070000Y-162725000D03*
D13*
X80610000Y-162725000D03*
D14*
X113780000Y-153835000D03*
X113780000Y-158335000D03*
X107280000Y-153835000D03*
X107280000Y-158335000D03*
X74895000Y-158335000D03*
X74895000Y-153835000D03*
X81395000Y-158335000D03*
X81395000Y-153835000D03*
X85690000Y-158335000D03*
X85690000Y-153835000D03*
X92190000Y-158335000D03*
X92190000Y-153835000D03*
X124575000Y-153835000D03*
X124575000Y-158335000D03*
X118075000Y-153835000D03*
X118075000Y-158335000D03*
X102985000Y-153835000D03*
X102985000Y-158335000D03*
X96485000Y-153835000D03*
X96485000Y-158335000D03*
D12*
X130140000Y-171615000D03*
D13*
X132680000Y-171615000D03*
X93945000Y-186220000D03*
D12*
X91405000Y-186220000D03*
X91405000Y-169075000D03*
D13*
X93945000Y-169075000D03*
D12*
X91405000Y-163360000D03*
D13*
X93945000Y-163360000D03*
X132680000Y-183045000D03*
D12*
X130140000Y-183045000D03*
D13*
X138395000Y-177330000D03*
D12*
X140935000Y-177330000D03*
X130140000Y-165900000D03*
D13*
X132680000Y-165900000D03*
D12*
X91405000Y-174790000D03*
D13*
X93945000Y-174790000D03*
X138395000Y-171615000D03*
D12*
X140935000Y-171615000D03*
D13*
X138395000Y-183045000D03*
D12*
X140935000Y-183045000D03*
D13*
X132680000Y-177330000D03*
D12*
X130140000Y-177330000D03*
X140935000Y-165900000D03*
D13*
X138395000Y-165900000D03*
D12*
X91405000Y-180505000D03*
D13*
X93945000Y-180505000D03*
D15*
X153635000Y-182156000D03*
X69053000Y-181775000D03*
X146523000Y-156883000D03*
X154143000Y-171932500D03*
X131283000Y-155168500D03*
X110455000Y-176060000D03*
X121377000Y-150660000D03*
X77816000Y-175425000D03*
X75911000Y-175425000D03*
X77816000Y-181775000D03*
X72274000Y-173774000D03*
X102945000Y-172355000D03*
X66545000Y-184325000D03*
X101995000Y-171365000D03*
X81935000Y-180505000D03*
X146465000Y-162885000D03*
X81935000Y-179235000D03*
X114945000Y-165915000D03*
X74925000Y-176335000D03*
X78085000Y-187915000D03*
D16*
X132680000Y-171615000D02*
X132680000Y-177330000D01*
X138395000Y-177330000D02*
X138395000Y-183045000D01*
X138395000Y-171615000D02*
X138395000Y-177330000D01*
X132680000Y-177330000D02*
X132680000Y-183045000D01*
D17*
X159921500Y-169900500D02*
X159921500Y-172440500D01*
X83531000Y-181775000D02*
X77816000Y-181775000D01*
X110455000Y-177520500D02*
X108740500Y-179235000D01*
X110455000Y-174091500D02*
X110455000Y-176060000D01*
X115789000Y-168757500D02*
X110455000Y-174091500D01*
X110455000Y-176060000D02*
X110455000Y-177520500D01*
X77816000Y-175425000D02*
X75911000Y-175425000D01*
X86071000Y-179235000D02*
X83531000Y-181775000D01*
X154270000Y-150660000D02*
X121377000Y-150660000D01*
X159032500Y-150660000D02*
X154270000Y-150660000D01*
X108740500Y-179235000D02*
X86071000Y-179235000D01*
X145634000Y-167360500D02*
X144237000Y-168757500D01*
X159921500Y-167360500D02*
X145634000Y-167360500D01*
X159921500Y-151549000D02*
X159032500Y-150660000D01*
X159921500Y-164820500D02*
X159921500Y-167360500D01*
X144237000Y-168757500D02*
X115789000Y-168757500D01*
X159921500Y-164820500D02*
X159921500Y-151549000D01*
D16*
X69815000Y-173774000D02*
X72274000Y-173774000D01*
X80896000Y-173774000D02*
X82315000Y-172355000D01*
X82315000Y-172355000D02*
X102945000Y-172355000D01*
X72274000Y-173774000D02*
X80896000Y-173774000D01*
X65955000Y-183735000D02*
X66545000Y-184325000D01*
X65955000Y-172565000D02*
X65955000Y-183735000D01*
X67275000Y-171234000D02*
X67275000Y-171245000D01*
X67275000Y-171245000D02*
X65955000Y-172565000D01*
X69815000Y-171234000D02*
X71874000Y-171234000D01*
X82385000Y-171365000D02*
X101995000Y-171365000D01*
X80645000Y-173105000D02*
X82385000Y-171365000D01*
X73745000Y-173105000D02*
X80645000Y-173105000D01*
X71874000Y-171234000D02*
X73745000Y-173105000D01*
X81935000Y-180505000D02*
X83805000Y-180505000D01*
X86675000Y-177635000D02*
X105805000Y-177635000D01*
X120555000Y-162885000D02*
X146465000Y-162885000D01*
X83805000Y-180505000D02*
X86675000Y-177635000D01*
X105805000Y-177635000D02*
X120555000Y-162885000D01*
X81935000Y-179235000D02*
X84175000Y-179235000D01*
X105555000Y-176985000D02*
X114945000Y-167595000D01*
X86425000Y-176985000D02*
X105555000Y-176985000D01*
X114945000Y-167595000D02*
X114945000Y-165915000D01*
X84175000Y-179235000D02*
X86425000Y-176985000D01*
X77525000Y-187915000D02*
X78085000Y-187915000D01*
X76925000Y-187315000D02*
X77525000Y-187915000D01*
X76925000Y-186725000D02*
X76925000Y-187315000D01*
X76245000Y-176335000D02*
X76925000Y-177015000D01*
X75655000Y-176335000D02*
X76245000Y-176335000D01*
X74925000Y-176335000D02*
X75655000Y-176335000D01*
X76925000Y-177015000D02*
X76925000Y-186725000D01*
D18*
G36*
X163033000Y-188632917D02*
G01*
X78222840Y-188577846D01*
X78282474Y-188565984D01*
X78405680Y-188514950D01*
X78516563Y-188440860D01*
X78610860Y-188346563D01*
X78684950Y-188235680D01*
X78735984Y-188112474D01*
X78762000Y-187981679D01*
X78762000Y-187848321D01*
X78735984Y-187717526D01*
X78684950Y-187594320D01*
X78610860Y-187483437D01*
X78516563Y-187389140D01*
X78405680Y-187315050D01*
X78282474Y-187264016D01*
X78151679Y-187238000D01*
X78018321Y-187238000D01*
X77887526Y-187264016D01*
X77764320Y-187315050D01*
X77750372Y-187324370D01*
X77502000Y-187075999D01*
X77502000Y-186089302D01*
X90078000Y-186089302D01*
X90078000Y-186350698D01*
X90128996Y-186607072D01*
X90229028Y-186848570D01*
X90374252Y-187065913D01*
X90559087Y-187250748D01*
X90776430Y-187395972D01*
X91017928Y-187496004D01*
X91274302Y-187547000D01*
X91535698Y-187547000D01*
X91792072Y-187496004D01*
X92033570Y-187395972D01*
X92250913Y-187250748D01*
X92407055Y-187094606D01*
X92406928Y-187120000D01*
X92419188Y-187244482D01*
X92455498Y-187364180D01*
X92514463Y-187474494D01*
X92593815Y-187571185D01*
X92690506Y-187650537D01*
X92800820Y-187709502D01*
X92920518Y-187745812D01*
X93045000Y-187758072D01*
X93659250Y-187755000D01*
X93818000Y-187596250D01*
X93818000Y-186347000D01*
X94072000Y-186347000D01*
X94072000Y-187596250D01*
X94230750Y-187755000D01*
X94845000Y-187758072D01*
X94969482Y-187745812D01*
X95089180Y-187709502D01*
X95199494Y-187650537D01*
X95296185Y-187571185D01*
X95375537Y-187474494D01*
X95434502Y-187364180D01*
X95470812Y-187244482D01*
X95483072Y-187120000D01*
X95480000Y-186505750D01*
X95321250Y-186347000D01*
X94072000Y-186347000D01*
X93818000Y-186347000D01*
X93798000Y-186347000D01*
X93798000Y-186093000D01*
X93818000Y-186093000D01*
X93818000Y-184843750D01*
X94072000Y-184843750D01*
X94072000Y-186093000D01*
X95321250Y-186093000D01*
X95480000Y-185934250D01*
X95483072Y-185320000D01*
X95470812Y-185195518D01*
X95434502Y-185075820D01*
X95375537Y-184965506D01*
X95296185Y-184868815D01*
X95199494Y-184789463D01*
X95089180Y-184730498D01*
X94969482Y-184694188D01*
X94845000Y-184681928D01*
X94230750Y-184685000D01*
X94072000Y-184843750D01*
X93818000Y-184843750D01*
X93659250Y-184685000D01*
X93045000Y-184681928D01*
X92920518Y-184694188D01*
X92800820Y-184730498D01*
X92690506Y-184789463D01*
X92593815Y-184868815D01*
X92514463Y-184965506D01*
X92455498Y-185075820D01*
X92419188Y-185195518D01*
X92406928Y-185320000D01*
X92407055Y-185345394D01*
X92250913Y-185189252D01*
X92033570Y-185044028D01*
X91792072Y-184943996D01*
X91535698Y-184893000D01*
X91274302Y-184893000D01*
X91017928Y-184943996D01*
X90776430Y-185044028D01*
X90559087Y-185189252D01*
X90374252Y-185374087D01*
X90229028Y-185591430D01*
X90128996Y-185832928D01*
X90078000Y-186089302D01*
X77502000Y-186089302D01*
X77502000Y-182914302D01*
X128813000Y-182914302D01*
X128813000Y-183175698D01*
X128863996Y-183432072D01*
X128964028Y-183673570D01*
X129109252Y-183890913D01*
X129294087Y-184075748D01*
X129511430Y-184220972D01*
X129752928Y-184321004D01*
X130009302Y-184372000D01*
X130270698Y-184372000D01*
X130527072Y-184321004D01*
X130768570Y-184220972D01*
X130985913Y-184075748D01*
X131142055Y-183919606D01*
X131141928Y-183945000D01*
X131154188Y-184069482D01*
X131190498Y-184189180D01*
X131249463Y-184299494D01*
X131328815Y-184396185D01*
X131425506Y-184475537D01*
X131535820Y-184534502D01*
X131655518Y-184570812D01*
X131780000Y-184583072D01*
X132394250Y-184580000D01*
X132553000Y-184421250D01*
X132553000Y-183172000D01*
X132807000Y-183172000D01*
X132807000Y-184421250D01*
X132965750Y-184580000D01*
X133580000Y-184583072D01*
X133704482Y-184570812D01*
X133824180Y-184534502D01*
X133934494Y-184475537D01*
X134031185Y-184396185D01*
X134110537Y-184299494D01*
X134169502Y-184189180D01*
X134205812Y-184069482D01*
X134218072Y-183945000D01*
X136856928Y-183945000D01*
X136869188Y-184069482D01*
X136905498Y-184189180D01*
X136964463Y-184299494D01*
X137043815Y-184396185D01*
X137140506Y-184475537D01*
X137250820Y-184534502D01*
X137370518Y-184570812D01*
X137495000Y-184583072D01*
X138109250Y-184580000D01*
X138268000Y-184421250D01*
X138268000Y-183172000D01*
X137018750Y-183172000D01*
X136860000Y-183330750D01*
X136856928Y-183945000D01*
X134218072Y-183945000D01*
X134215000Y-183330750D01*
X134056250Y-183172000D01*
X132807000Y-183172000D01*
X132553000Y-183172000D01*
X132533000Y-183172000D01*
X132533000Y-182918000D01*
X132553000Y-182918000D01*
X132553000Y-181668750D01*
X132807000Y-181668750D01*
X132807000Y-182918000D01*
X134056250Y-182918000D01*
X134215000Y-182759250D01*
X134218072Y-182145000D01*
X136856928Y-182145000D01*
X136860000Y-182759250D01*
X137018750Y-182918000D01*
X138268000Y-182918000D01*
X138268000Y-181668750D01*
X138522000Y-181668750D01*
X138522000Y-182918000D01*
X138542000Y-182918000D01*
X138542000Y-183172000D01*
X138522000Y-183172000D01*
X138522000Y-184421250D01*
X138680750Y-184580000D01*
X139295000Y-184583072D01*
X139419482Y-184570812D01*
X139539180Y-184534502D01*
X139649494Y-184475537D01*
X139746185Y-184396185D01*
X139825537Y-184299494D01*
X139884502Y-184189180D01*
X139920812Y-184069482D01*
X139933072Y-183945000D01*
X139932945Y-183919606D01*
X140089087Y-184075748D01*
X140306430Y-184220972D01*
X140547928Y-184321004D01*
X140804302Y-184372000D01*
X141065698Y-184372000D01*
X141322072Y-184321004D01*
X141563570Y-184220972D01*
X141780913Y-184075748D01*
X141965748Y-183890913D01*
X142110972Y-183673570D01*
X142211004Y-183432072D01*
X142262000Y-183175698D01*
X142262000Y-182914302D01*
X142211004Y-182657928D01*
X142110972Y-182416430D01*
X141965748Y-182199087D01*
X141780913Y-182014252D01*
X141563570Y-181869028D01*
X141322072Y-181768996D01*
X141065698Y-181718000D01*
X140804302Y-181718000D01*
X140547928Y-181768996D01*
X140306430Y-181869028D01*
X140089087Y-182014252D01*
X139932945Y-182170394D01*
X139933072Y-182145000D01*
X139920812Y-182020518D01*
X139884502Y-181900820D01*
X139825537Y-181790506D01*
X139746185Y-181693815D01*
X139649494Y-181614463D01*
X139539180Y-181555498D01*
X139419482Y-181519188D01*
X139295000Y-181506928D01*
X138680750Y-181510000D01*
X138522000Y-181668750D01*
X138268000Y-181668750D01*
X138109250Y-181510000D01*
X137495000Y-181506928D01*
X137370518Y-181519188D01*
X137250820Y-181555498D01*
X137140506Y-181614463D01*
X137043815Y-181693815D01*
X136964463Y-181790506D01*
X136905498Y-181900820D01*
X136869188Y-182020518D01*
X136856928Y-182145000D01*
X134218072Y-182145000D01*
X134205812Y-182020518D01*
X134169502Y-181900820D01*
X134110537Y-181790506D01*
X134031185Y-181693815D01*
X133934494Y-181614463D01*
X133824180Y-181555498D01*
X133704482Y-181519188D01*
X133580000Y-181506928D01*
X132965750Y-181510000D01*
X132807000Y-181668750D01*
X132553000Y-181668750D01*
X132394250Y-181510000D01*
X131780000Y-181506928D01*
X131655518Y-181519188D01*
X131535820Y-181555498D01*
X131425506Y-181614463D01*
X131328815Y-181693815D01*
X131249463Y-181790506D01*
X131190498Y-181900820D01*
X131154188Y-182020518D01*
X131141928Y-182145000D01*
X131142055Y-182170394D01*
X130985913Y-182014252D01*
X130768570Y-181869028D01*
X130527072Y-181768996D01*
X130270698Y-181718000D01*
X130009302Y-181718000D01*
X129752928Y-181768996D01*
X129511430Y-181869028D01*
X129294087Y-182014252D01*
X129109252Y-182199087D01*
X128964028Y-182416430D01*
X128863996Y-182657928D01*
X128813000Y-182914302D01*
X77502000Y-182914302D01*
X77502000Y-182377717D01*
X77526208Y-182387744D01*
X77555670Y-182403492D01*
X77587636Y-182413189D01*
X77618526Y-182425984D01*
X77651315Y-182432506D01*
X77683285Y-182442204D01*
X77716536Y-182445479D01*
X77749321Y-182452000D01*
X83497755Y-182452000D01*
X83531000Y-182455274D01*
X83564245Y-182452000D01*
X83564252Y-182452000D01*
X83663715Y-182442204D01*
X83791330Y-182403492D01*
X83908941Y-182340628D01*
X84012027Y-182256027D01*
X84033226Y-182230196D01*
X86351422Y-179912000D01*
X90214294Y-179912000D01*
X90128996Y-180117928D01*
X90078000Y-180374302D01*
X90078000Y-180635698D01*
X90128996Y-180892072D01*
X90229028Y-181133570D01*
X90374252Y-181350913D01*
X90559087Y-181535748D01*
X90776430Y-181680972D01*
X91017928Y-181781004D01*
X91274302Y-181832000D01*
X91535698Y-181832000D01*
X91792072Y-181781004D01*
X92033570Y-181680972D01*
X92250913Y-181535748D01*
X92407055Y-181379606D01*
X92406928Y-181405000D01*
X92419188Y-181529482D01*
X92455498Y-181649180D01*
X92514463Y-181759494D01*
X92593815Y-181856185D01*
X92690506Y-181935537D01*
X92800820Y-181994502D01*
X92920518Y-182030812D01*
X93045000Y-182043072D01*
X93659250Y-182040000D01*
X93818000Y-181881250D01*
X93818000Y-180632000D01*
X94072000Y-180632000D01*
X94072000Y-181881250D01*
X94230750Y-182040000D01*
X94845000Y-182043072D01*
X94969482Y-182030812D01*
X95089180Y-181994502D01*
X95199494Y-181935537D01*
X95296185Y-181856185D01*
X95375537Y-181759494D01*
X95434502Y-181649180D01*
X95470812Y-181529482D01*
X95483072Y-181405000D01*
X95480000Y-180790750D01*
X95321250Y-180632000D01*
X94072000Y-180632000D01*
X93818000Y-180632000D01*
X93798000Y-180632000D01*
X93798000Y-180378000D01*
X93818000Y-180378000D01*
X93818000Y-180358000D01*
X94072000Y-180358000D01*
X94072000Y-180378000D01*
X95321250Y-180378000D01*
X95480000Y-180219250D01*
X95481537Y-179912000D01*
X108707255Y-179912000D01*
X108740500Y-179915274D01*
X108773745Y-179912000D01*
X108773752Y-179912000D01*
X108873215Y-179902204D01*
X109000830Y-179863492D01*
X109118441Y-179800628D01*
X109221527Y-179716027D01*
X109242726Y-179690196D01*
X110910196Y-178022726D01*
X110936027Y-178001527D01*
X111020628Y-177898441D01*
X111083492Y-177780830D01*
X111122204Y-177653215D01*
X111132000Y-177553752D01*
X111132000Y-177553743D01*
X111135274Y-177520501D01*
X111132000Y-177487259D01*
X111132000Y-177199302D01*
X128813000Y-177199302D01*
X128813000Y-177460698D01*
X128863996Y-177717072D01*
X128964028Y-177958570D01*
X129109252Y-178175913D01*
X129294087Y-178360748D01*
X129511430Y-178505972D01*
X129752928Y-178606004D01*
X130009302Y-178657000D01*
X130270698Y-178657000D01*
X130527072Y-178606004D01*
X130768570Y-178505972D01*
X130985913Y-178360748D01*
X131142055Y-178204606D01*
X131141928Y-178230000D01*
X131154188Y-178354482D01*
X131190498Y-178474180D01*
X131249463Y-178584494D01*
X131328815Y-178681185D01*
X131425506Y-178760537D01*
X131535820Y-178819502D01*
X131655518Y-178855812D01*
X131780000Y-178868072D01*
X132394250Y-178865000D01*
X132553000Y-178706250D01*
X132553000Y-177457000D01*
X132807000Y-177457000D01*
X132807000Y-178706250D01*
X132965750Y-178865000D01*
X133580000Y-178868072D01*
X133704482Y-178855812D01*
X133824180Y-178819502D01*
X133934494Y-178760537D01*
X134031185Y-178681185D01*
X134110537Y-178584494D01*
X134169502Y-178474180D01*
X134205812Y-178354482D01*
X134218072Y-178230000D01*
X136856928Y-178230000D01*
X136869188Y-178354482D01*
X136905498Y-178474180D01*
X136964463Y-178584494D01*
X137043815Y-178681185D01*
X137140506Y-178760537D01*
X137250820Y-178819502D01*
X137370518Y-178855812D01*
X137495000Y-178868072D01*
X138109250Y-178865000D01*
X138268000Y-178706250D01*
X138268000Y-177457000D01*
X137018750Y-177457000D01*
X136860000Y-177615750D01*
X136856928Y-178230000D01*
X134218072Y-178230000D01*
X134215000Y-177615750D01*
X134056250Y-177457000D01*
X132807000Y-177457000D01*
X132553000Y-177457000D01*
X132533000Y-177457000D01*
X132533000Y-177203000D01*
X132553000Y-177203000D01*
X132553000Y-175953750D01*
X132807000Y-175953750D01*
X132807000Y-177203000D01*
X134056250Y-177203000D01*
X134215000Y-177044250D01*
X134218072Y-176430000D01*
X136856928Y-176430000D01*
X136860000Y-177044250D01*
X137018750Y-177203000D01*
X138268000Y-177203000D01*
X138268000Y-175953750D01*
X138522000Y-175953750D01*
X138522000Y-177203000D01*
X138542000Y-177203000D01*
X138542000Y-177457000D01*
X138522000Y-177457000D01*
X138522000Y-178706250D01*
X138680750Y-178865000D01*
X139295000Y-178868072D01*
X139419482Y-178855812D01*
X139539180Y-178819502D01*
X139649494Y-178760537D01*
X139746185Y-178681185D01*
X139825537Y-178584494D01*
X139884502Y-178474180D01*
X139920812Y-178354482D01*
X139933072Y-178230000D01*
X139932945Y-178204606D01*
X140089087Y-178360748D01*
X140306430Y-178505972D01*
X140547928Y-178606004D01*
X140804302Y-178657000D01*
X141065698Y-178657000D01*
X141322072Y-178606004D01*
X141563570Y-178505972D01*
X141780913Y-178360748D01*
X141965748Y-178175913D01*
X142110972Y-177958570D01*
X142211004Y-177717072D01*
X142262000Y-177460698D01*
X142262000Y-177199302D01*
X142211004Y-176942928D01*
X142110972Y-176701430D01*
X141965748Y-176484087D01*
X141780913Y-176299252D01*
X141563570Y-176154028D01*
X141322072Y-176053996D01*
X141065698Y-176003000D01*
X140804302Y-176003000D01*
X140547928Y-176053996D01*
X140306430Y-176154028D01*
X140089087Y-176299252D01*
X139932945Y-176455394D01*
X139933072Y-176430000D01*
X139920812Y-176305518D01*
X139884502Y-176185820D01*
X139825537Y-176075506D01*
X139746185Y-175978815D01*
X139649494Y-175899463D01*
X139539180Y-175840498D01*
X139419482Y-175804188D01*
X139295000Y-175791928D01*
X138680750Y-175795000D01*
X138522000Y-175953750D01*
X138268000Y-175953750D01*
X138109250Y-175795000D01*
X137495000Y-175791928D01*
X137370518Y-175804188D01*
X137250820Y-175840498D01*
X137140506Y-175899463D01*
X137043815Y-175978815D01*
X136964463Y-176075506D01*
X136905498Y-176185820D01*
X136869188Y-176305518D01*
X136856928Y-176430000D01*
X134218072Y-176430000D01*
X134205812Y-176305518D01*
X134169502Y-176185820D01*
X134110537Y-176075506D01*
X134031185Y-175978815D01*
X133934494Y-175899463D01*
X133824180Y-175840498D01*
X133704482Y-175804188D01*
X133580000Y-175791928D01*
X132965750Y-175795000D01*
X132807000Y-175953750D01*
X132553000Y-175953750D01*
X132394250Y-175795000D01*
X131780000Y-175791928D01*
X131655518Y-175804188D01*
X131535820Y-175840498D01*
X131425506Y-175899463D01*
X131328815Y-175978815D01*
X131249463Y-176075506D01*
X131190498Y-176185820D01*
X131154188Y-176305518D01*
X131141928Y-176430000D01*
X131142055Y-176455394D01*
X130985913Y-176299252D01*
X130768570Y-176154028D01*
X130527072Y-176053996D01*
X130270698Y-176003000D01*
X130009302Y-176003000D01*
X129752928Y-176053996D01*
X129511430Y-176154028D01*
X129294087Y-176299252D01*
X129109252Y-176484087D01*
X128964028Y-176701430D01*
X128863996Y-176942928D01*
X128813000Y-177199302D01*
X111132000Y-177199302D01*
X111132000Y-174371922D01*
X114019620Y-171484302D01*
X128813000Y-171484302D01*
X128813000Y-171745698D01*
X128863996Y-172002072D01*
X128964028Y-172243570D01*
X129109252Y-172460913D01*
X129294087Y-172645748D01*
X129511430Y-172790972D01*
X129752928Y-172891004D01*
X130009302Y-172942000D01*
X130270698Y-172942000D01*
X130527072Y-172891004D01*
X130768570Y-172790972D01*
X130985913Y-172645748D01*
X131142055Y-172489606D01*
X131141928Y-172515000D01*
X131154188Y-172639482D01*
X131190498Y-172759180D01*
X131249463Y-172869494D01*
X131328815Y-172966185D01*
X131425506Y-173045537D01*
X131535820Y-173104502D01*
X131655518Y-173140812D01*
X131780000Y-173153072D01*
X132394250Y-173150000D01*
X132553000Y-172991250D01*
X132553000Y-171742000D01*
X132807000Y-171742000D01*
X132807000Y-172991250D01*
X132965750Y-173150000D01*
X133580000Y-173153072D01*
X133704482Y-173140812D01*
X133824180Y-173104502D01*
X133934494Y-173045537D01*
X134031185Y-172966185D01*
X134110537Y-172869494D01*
X134169502Y-172759180D01*
X134205812Y-172639482D01*
X134218072Y-172515000D01*
X136856928Y-172515000D01*
X136869188Y-172639482D01*
X136905498Y-172759180D01*
X136964463Y-172869494D01*
X137043815Y-172966185D01*
X137140506Y-173045537D01*
X137250820Y-173104502D01*
X137370518Y-173140812D01*
X137495000Y-173153072D01*
X138109250Y-173150000D01*
X138268000Y-172991250D01*
X138268000Y-171742000D01*
X137018750Y-171742000D01*
X136860000Y-171900750D01*
X136856928Y-172515000D01*
X134218072Y-172515000D01*
X134215000Y-171900750D01*
X134056250Y-171742000D01*
X132807000Y-171742000D01*
X132553000Y-171742000D01*
X132533000Y-171742000D01*
X132533000Y-171488000D01*
X132553000Y-171488000D01*
X132553000Y-170238750D01*
X132807000Y-170238750D01*
X132807000Y-171488000D01*
X134056250Y-171488000D01*
X134215000Y-171329250D01*
X134218072Y-170715000D01*
X136856928Y-170715000D01*
X136860000Y-171329250D01*
X137018750Y-171488000D01*
X138268000Y-171488000D01*
X138268000Y-170238750D01*
X138522000Y-170238750D01*
X138522000Y-171488000D01*
X138542000Y-171488000D01*
X138542000Y-171742000D01*
X138522000Y-171742000D01*
X138522000Y-172991250D01*
X138680750Y-173150000D01*
X139295000Y-173153072D01*
X139419482Y-173140812D01*
X139539180Y-173104502D01*
X139649494Y-173045537D01*
X139746185Y-172966185D01*
X139825537Y-172869494D01*
X139884502Y-172759180D01*
X139920812Y-172639482D01*
X139933072Y-172515000D01*
X139932945Y-172489606D01*
X140089087Y-172645748D01*
X140306430Y-172790972D01*
X140547928Y-172891004D01*
X140804302Y-172942000D01*
X141065698Y-172942000D01*
X141322072Y-172891004D01*
X141548075Y-172797390D01*
X158480024Y-172797390D01*
X158524675Y-172944599D01*
X158649859Y-173207420D01*
X158823912Y-173440769D01*
X159040145Y-173635678D01*
X159290248Y-173784657D01*
X159564609Y-173881981D01*
X159794500Y-173761314D01*
X159794500Y-172567500D01*
X160048500Y-172567500D01*
X160048500Y-173761314D01*
X160278391Y-173881981D01*
X160552752Y-173784657D01*
X160802855Y-173635678D01*
X161019088Y-173440769D01*
X161193141Y-173207420D01*
X161318325Y-172944599D01*
X161362976Y-172797390D01*
X161241655Y-172567500D01*
X160048500Y-172567500D01*
X159794500Y-172567500D01*
X158601345Y-172567500D01*
X158480024Y-172797390D01*
X141548075Y-172797390D01*
X141563570Y-172790972D01*
X141780913Y-172645748D01*
X141965748Y-172460913D01*
X142110972Y-172243570D01*
X142211004Y-172002072D01*
X142262000Y-171745698D01*
X142262000Y-171484302D01*
X142211004Y-171227928D01*
X142110972Y-170986430D01*
X141965748Y-170769087D01*
X141780913Y-170584252D01*
X141563570Y-170439028D01*
X141322072Y-170338996D01*
X141065698Y-170288000D01*
X140804302Y-170288000D01*
X140547928Y-170338996D01*
X140306430Y-170439028D01*
X140089087Y-170584252D01*
X139932945Y-170740394D01*
X139933072Y-170715000D01*
X139920812Y-170590518D01*
X139884502Y-170470820D01*
X139825537Y-170360506D01*
X139746185Y-170263815D01*
X139738357Y-170257390D01*
X158480024Y-170257390D01*
X158524675Y-170404599D01*
X158649859Y-170667420D01*
X158823912Y-170900769D01*
X159040145Y-171095678D01*
X159165755Y-171170500D01*
X159040145Y-171245322D01*
X158823912Y-171440231D01*
X158649859Y-171673580D01*
X158524675Y-171936401D01*
X158480024Y-172083610D01*
X158601345Y-172313500D01*
X159794500Y-172313500D01*
X159794500Y-170027500D01*
X160048500Y-170027500D01*
X160048500Y-172313500D01*
X161241655Y-172313500D01*
X161362976Y-172083610D01*
X161318325Y-171936401D01*
X161193141Y-171673580D01*
X161019088Y-171440231D01*
X160802855Y-171245322D01*
X160677245Y-171170500D01*
X160802855Y-171095678D01*
X161019088Y-170900769D01*
X161193141Y-170667420D01*
X161318325Y-170404599D01*
X161362976Y-170257390D01*
X161241655Y-170027500D01*
X160048500Y-170027500D01*
X159794500Y-170027500D01*
X158601345Y-170027500D01*
X158480024Y-170257390D01*
X139738357Y-170257390D01*
X139649494Y-170184463D01*
X139539180Y-170125498D01*
X139419482Y-170089188D01*
X139295000Y-170076928D01*
X138680750Y-170080000D01*
X138522000Y-170238750D01*
X138268000Y-170238750D01*
X138109250Y-170080000D01*
X137495000Y-170076928D01*
X137370518Y-170089188D01*
X137250820Y-170125498D01*
X137140506Y-170184463D01*
X137043815Y-170263815D01*
X136964463Y-170360506D01*
X136905498Y-170470820D01*
X136869188Y-170590518D01*
X136856928Y-170715000D01*
X134218072Y-170715000D01*
X134205812Y-170590518D01*
X134169502Y-170470820D01*
X134110537Y-170360506D01*
X134031185Y-170263815D01*
X133934494Y-170184463D01*
X133824180Y-170125498D01*
X133704482Y-170089188D01*
X133580000Y-170076928D01*
X132965750Y-170080000D01*
X132807000Y-170238750D01*
X132553000Y-170238750D01*
X132394250Y-170080000D01*
X131780000Y-170076928D01*
X131655518Y-170089188D01*
X131535820Y-170125498D01*
X131425506Y-170184463D01*
X131328815Y-170263815D01*
X131249463Y-170360506D01*
X131190498Y-170470820D01*
X131154188Y-170590518D01*
X131141928Y-170715000D01*
X131142055Y-170740394D01*
X130985913Y-170584252D01*
X130768570Y-170439028D01*
X130527072Y-170338996D01*
X130270698Y-170288000D01*
X130009302Y-170288000D01*
X129752928Y-170338996D01*
X129511430Y-170439028D01*
X129294087Y-170584252D01*
X129109252Y-170769087D01*
X128964028Y-170986430D01*
X128863996Y-171227928D01*
X128813000Y-171484302D01*
X114019620Y-171484302D01*
X116069422Y-169434500D01*
X144203755Y-169434500D01*
X144237000Y-169437774D01*
X144270245Y-169434500D01*
X144270252Y-169434500D01*
X144369715Y-169424704D01*
X144497330Y-169385992D01*
X144614941Y-169323128D01*
X144718027Y-169238527D01*
X144739226Y-169212696D01*
X145914422Y-168037500D01*
X158838022Y-168037500D01*
X158929589Y-168174540D01*
X159107460Y-168352411D01*
X159316614Y-168492163D01*
X159387916Y-168521697D01*
X159290248Y-168556343D01*
X159040145Y-168705322D01*
X158823912Y-168900231D01*
X158649859Y-169133580D01*
X158524675Y-169396401D01*
X158480024Y-169543610D01*
X158601345Y-169773500D01*
X159794500Y-169773500D01*
X159794500Y-169753500D01*
X160048500Y-169753500D01*
X160048500Y-169773500D01*
X161241655Y-169773500D01*
X161362976Y-169543610D01*
X161318325Y-169396401D01*
X161193141Y-169133580D01*
X161019088Y-168900231D01*
X160802855Y-168705322D01*
X160552752Y-168556343D01*
X160455084Y-168521697D01*
X160526386Y-168492163D01*
X160735540Y-168352411D01*
X160913411Y-168174540D01*
X161053163Y-167965386D01*
X161149426Y-167732987D01*
X161198500Y-167486274D01*
X161198500Y-167234726D01*
X161149426Y-166988013D01*
X161053163Y-166755614D01*
X160913411Y-166546460D01*
X160735540Y-166368589D01*
X160598500Y-166277022D01*
X160598500Y-166099566D01*
X160771500Y-166099566D01*
X160855207Y-166091322D01*
X160935696Y-166066905D01*
X161009876Y-166027255D01*
X161074895Y-165973895D01*
X161128255Y-165908876D01*
X161167905Y-165834696D01*
X161192322Y-165754207D01*
X161200566Y-165670500D01*
X161200566Y-163970500D01*
X161192322Y-163886793D01*
X161167905Y-163806304D01*
X161128255Y-163732124D01*
X161074895Y-163667105D01*
X161009876Y-163613745D01*
X160935696Y-163574095D01*
X160855207Y-163549678D01*
X160771500Y-163541434D01*
X160598500Y-163541434D01*
X160598500Y-151582252D01*
X160601775Y-151549000D01*
X160588704Y-151416285D01*
X160549992Y-151288670D01*
X160487128Y-151171059D01*
X160423724Y-151093801D01*
X160423722Y-151093799D01*
X160402527Y-151067973D01*
X160376701Y-151046778D01*
X159534726Y-150204804D01*
X159513527Y-150178973D01*
X159410441Y-150094372D01*
X159292830Y-150031508D01*
X159165215Y-149992796D01*
X159065752Y-149983000D01*
X159065745Y-149983000D01*
X159032500Y-149979726D01*
X158999255Y-149983000D01*
X121310321Y-149983000D01*
X121277536Y-149989521D01*
X121244285Y-149992796D01*
X121212315Y-150002494D01*
X121179526Y-150009016D01*
X121148636Y-150021811D01*
X121116670Y-150031508D01*
X121087208Y-150047256D01*
X121056320Y-150060050D01*
X121028524Y-150078623D01*
X120999059Y-150094372D01*
X120973231Y-150115568D01*
X120945437Y-150134140D01*
X120921801Y-150157776D01*
X120895973Y-150178973D01*
X120874778Y-150204799D01*
X120851140Y-150228437D01*
X120832568Y-150256231D01*
X120811372Y-150282059D01*
X120795623Y-150311524D01*
X120777050Y-150339320D01*
X120764256Y-150370208D01*
X120748508Y-150399670D01*
X120738811Y-150431636D01*
X120726016Y-150462526D01*
X120719494Y-150495315D01*
X120709796Y-150527285D01*
X120706521Y-150560536D01*
X120700000Y-150593321D01*
X120700000Y-150626748D01*
X120696725Y-150660000D01*
X120700000Y-150693252D01*
X120700000Y-150726679D01*
X120706521Y-150759464D01*
X120709796Y-150792715D01*
X120719494Y-150824685D01*
X120726016Y-150857474D01*
X120738811Y-150888364D01*
X120748508Y-150920330D01*
X120764256Y-150949792D01*
X120777050Y-150980680D01*
X120795623Y-151008476D01*
X120811372Y-151037941D01*
X120832568Y-151063769D01*
X120851140Y-151091563D01*
X120874778Y-151115201D01*
X120895973Y-151141027D01*
X120921799Y-151162222D01*
X120945437Y-151185860D01*
X120973231Y-151204432D01*
X120999059Y-151225628D01*
X121028524Y-151241377D01*
X121056320Y-151259950D01*
X121087208Y-151272744D01*
X121116670Y-151288492D01*
X121148636Y-151298189D01*
X121179526Y-151310984D01*
X121212315Y-151317506D01*
X121244285Y-151327204D01*
X121277536Y-151330479D01*
X121310321Y-151337000D01*
X158752078Y-151337000D01*
X159244501Y-151829424D01*
X159244500Y-163541434D01*
X159071500Y-163541434D01*
X158987793Y-163549678D01*
X158907304Y-163574095D01*
X158833124Y-163613745D01*
X158768105Y-163667105D01*
X158714745Y-163732124D01*
X158675095Y-163806304D01*
X158650678Y-163886793D01*
X158642434Y-163970500D01*
X158642434Y-165670500D01*
X158650678Y-165754207D01*
X158675095Y-165834696D01*
X158714745Y-165908876D01*
X158768105Y-165973895D01*
X158833124Y-166027255D01*
X158907304Y-166066905D01*
X158987793Y-166091322D01*
X159071500Y-166099566D01*
X159244501Y-166099566D01*
X159244501Y-166277022D01*
X159107460Y-166368589D01*
X158929589Y-166546460D01*
X158838022Y-166683500D01*
X145667241Y-166683500D01*
X145633999Y-166680226D01*
X145600757Y-166683500D01*
X145600748Y-166683500D01*
X145501285Y-166693296D01*
X145373670Y-166732008D01*
X145256059Y-166794872D01*
X145152973Y-166879473D01*
X145131774Y-166905304D01*
X143956578Y-168080500D01*
X116175502Y-168080500D01*
X118486700Y-165769302D01*
X128813000Y-165769302D01*
X128813000Y-166030698D01*
X128863996Y-166287072D01*
X128964028Y-166528570D01*
X129109252Y-166745913D01*
X129294087Y-166930748D01*
X129511430Y-167075972D01*
X129752928Y-167176004D01*
X130009302Y-167227000D01*
X130270698Y-167227000D01*
X130527072Y-167176004D01*
X130768570Y-167075972D01*
X130985913Y-166930748D01*
X131142055Y-166774606D01*
X131141928Y-166800000D01*
X131154188Y-166924482D01*
X131190498Y-167044180D01*
X131249463Y-167154494D01*
X131328815Y-167251185D01*
X131425506Y-167330537D01*
X131535820Y-167389502D01*
X131655518Y-167425812D01*
X131780000Y-167438072D01*
X132394250Y-167435000D01*
X132553000Y-167276250D01*
X132553000Y-166027000D01*
X132807000Y-166027000D01*
X132807000Y-167276250D01*
X132965750Y-167435000D01*
X133580000Y-167438072D01*
X133704482Y-167425812D01*
X133824180Y-167389502D01*
X133934494Y-167330537D01*
X134031185Y-167251185D01*
X134110537Y-167154494D01*
X134169502Y-167044180D01*
X134205812Y-166924482D01*
X134218072Y-166800000D01*
X136856928Y-166800000D01*
X136869188Y-166924482D01*
X136905498Y-167044180D01*
X136964463Y-167154494D01*
X137043815Y-167251185D01*
X137140506Y-167330537D01*
X137250820Y-167389502D01*
X137370518Y-167425812D01*
X137495000Y-167438072D01*
X138109250Y-167435000D01*
X138268000Y-167276250D01*
X138268000Y-166027000D01*
X137018750Y-166027000D01*
X136860000Y-166185750D01*
X136856928Y-166800000D01*
X134218072Y-166800000D01*
X134215000Y-166185750D01*
X134056250Y-166027000D01*
X132807000Y-166027000D01*
X132553000Y-166027000D01*
X132533000Y-166027000D01*
X132533000Y-165773000D01*
X132553000Y-165773000D01*
X132553000Y-164523750D01*
X132807000Y-164523750D01*
X132807000Y-165773000D01*
X134056250Y-165773000D01*
X134215000Y-165614250D01*
X134218072Y-165000000D01*
X136856928Y-165000000D01*
X136860000Y-165614250D01*
X137018750Y-165773000D01*
X138268000Y-165773000D01*
X138268000Y-164523750D01*
X138522000Y-164523750D01*
X138522000Y-165773000D01*
X138542000Y-165773000D01*
X138542000Y-166027000D01*
X138522000Y-166027000D01*
X138522000Y-167276250D01*
X138680750Y-167435000D01*
X139295000Y-167438072D01*
X139419482Y-167425812D01*
X139539180Y-167389502D01*
X139649494Y-167330537D01*
X139746185Y-167251185D01*
X139825537Y-167154494D01*
X139884502Y-167044180D01*
X139920812Y-166924482D01*
X139933072Y-166800000D01*
X139932945Y-166774606D01*
X140089087Y-166930748D01*
X140306430Y-167075972D01*
X140547928Y-167176004D01*
X140804302Y-167227000D01*
X141065698Y-167227000D01*
X141322072Y-167176004D01*
X141563570Y-167075972D01*
X141780913Y-166930748D01*
X141965748Y-166745913D01*
X142110972Y-166528570D01*
X142211004Y-166287072D01*
X142262000Y-166030698D01*
X142262000Y-165769302D01*
X142211004Y-165512928D01*
X142110972Y-165271430D01*
X141965748Y-165054087D01*
X141780913Y-164869252D01*
X141563570Y-164724028D01*
X141322072Y-164623996D01*
X141065698Y-164573000D01*
X140804302Y-164573000D01*
X140547928Y-164623996D01*
X140306430Y-164724028D01*
X140089087Y-164869252D01*
X139932945Y-165025394D01*
X139933072Y-165000000D01*
X139920812Y-164875518D01*
X139884502Y-164755820D01*
X139825537Y-164645506D01*
X139746185Y-164548815D01*
X139649494Y-164469463D01*
X139539180Y-164410498D01*
X139419482Y-164374188D01*
X139295000Y-164361928D01*
X138680750Y-164365000D01*
X138522000Y-164523750D01*
X138268000Y-164523750D01*
X138109250Y-164365000D01*
X137495000Y-164361928D01*
X137370518Y-164374188D01*
X137250820Y-164410498D01*
X137140506Y-164469463D01*
X137043815Y-164548815D01*
X136964463Y-164645506D01*
X136905498Y-164755820D01*
X136869188Y-164875518D01*
X136856928Y-165000000D01*
X134218072Y-165000000D01*
X134205812Y-164875518D01*
X134169502Y-164755820D01*
X134110537Y-164645506D01*
X134031185Y-164548815D01*
X133934494Y-164469463D01*
X133824180Y-164410498D01*
X133704482Y-164374188D01*
X133580000Y-164361928D01*
X132965750Y-164365000D01*
X132807000Y-164523750D01*
X132553000Y-164523750D01*
X132394250Y-164365000D01*
X131780000Y-164361928D01*
X131655518Y-164374188D01*
X131535820Y-164410498D01*
X131425506Y-164469463D01*
X131328815Y-164548815D01*
X131249463Y-164645506D01*
X131190498Y-164755820D01*
X131154188Y-164875518D01*
X131141928Y-165000000D01*
X131142055Y-165025394D01*
X130985913Y-164869252D01*
X130768570Y-164724028D01*
X130527072Y-164623996D01*
X130270698Y-164573000D01*
X130009302Y-164573000D01*
X129752928Y-164623996D01*
X129511430Y-164724028D01*
X129294087Y-164869252D01*
X129109252Y-165054087D01*
X128964028Y-165271430D01*
X128863996Y-165512928D01*
X128813000Y-165769302D01*
X118486700Y-165769302D01*
X120794002Y-163462000D01*
X146109973Y-163462000D01*
X146144320Y-163484950D01*
X146267526Y-163535984D01*
X146398321Y-163562000D01*
X146531679Y-163562000D01*
X146662474Y-163535984D01*
X146785680Y-163484950D01*
X146896563Y-163410860D01*
X146990860Y-163316563D01*
X147064950Y-163205680D01*
X147115984Y-163082474D01*
X147142000Y-162951679D01*
X147142000Y-162818321D01*
X147115984Y-162687526D01*
X147064950Y-162564320D01*
X146990860Y-162453437D01*
X146896563Y-162359140D01*
X146785680Y-162285050D01*
X146662474Y-162234016D01*
X146531679Y-162208000D01*
X146398321Y-162208000D01*
X146267526Y-162234016D01*
X146144320Y-162285050D01*
X146109973Y-162308000D01*
X120583328Y-162308000D01*
X120554999Y-162305210D01*
X120526670Y-162308000D01*
X120526664Y-162308000D01*
X120441888Y-162316350D01*
X120333124Y-162349343D01*
X120232885Y-162402921D01*
X120188619Y-162439250D01*
X120167035Y-162456963D01*
X120167033Y-162456965D01*
X120145026Y-162475026D01*
X120126965Y-162497033D01*
X115522000Y-167101998D01*
X115522000Y-166270027D01*
X115544950Y-166235680D01*
X115595984Y-166112474D01*
X115622000Y-165981679D01*
X115622000Y-165848321D01*
X115595984Y-165717526D01*
X115544950Y-165594320D01*
X115470860Y-165483437D01*
X115376563Y-165389140D01*
X115265680Y-165315050D01*
X115142474Y-165264016D01*
X115011679Y-165238000D01*
X114878321Y-165238000D01*
X114747526Y-165264016D01*
X114624320Y-165315050D01*
X114513437Y-165389140D01*
X114419140Y-165483437D01*
X114345050Y-165594320D01*
X114294016Y-165717526D01*
X114268000Y-165848321D01*
X114268000Y-165981679D01*
X114294016Y-166112474D01*
X114345050Y-166235680D01*
X114368001Y-166270028D01*
X114368000Y-167355999D01*
X105315999Y-176408000D01*
X86453339Y-176408000D01*
X86425000Y-176405209D01*
X86311888Y-176416349D01*
X86203123Y-176449343D01*
X86177228Y-176463184D01*
X86102885Y-176502921D01*
X86015026Y-176575026D01*
X85996963Y-176597036D01*
X83935999Y-178658000D01*
X82290027Y-178658000D01*
X82255680Y-178635050D01*
X82132474Y-178584016D01*
X82001679Y-178558000D01*
X81868321Y-178558000D01*
X81737526Y-178584016D01*
X81614320Y-178635050D01*
X81503437Y-178709140D01*
X81409140Y-178803437D01*
X81335050Y-178914320D01*
X81284016Y-179037526D01*
X81258000Y-179168321D01*
X81258000Y-179301679D01*
X81284016Y-179432474D01*
X81335050Y-179555680D01*
X81409140Y-179666563D01*
X81503437Y-179760860D01*
X81614320Y-179834950D01*
X81698938Y-179870000D01*
X81614320Y-179905050D01*
X81503437Y-179979140D01*
X81409140Y-180073437D01*
X81335050Y-180184320D01*
X81284016Y-180307526D01*
X81258000Y-180438321D01*
X81258000Y-180571679D01*
X81284016Y-180702474D01*
X81335050Y-180825680D01*
X81409140Y-180936563D01*
X81503437Y-181030860D01*
X81603919Y-181098000D01*
X77749321Y-181098000D01*
X77716536Y-181104521D01*
X77683285Y-181107796D01*
X77651315Y-181117494D01*
X77618526Y-181124016D01*
X77587636Y-181136811D01*
X77555670Y-181146508D01*
X77526208Y-181162256D01*
X77502000Y-181172283D01*
X77502000Y-177043328D01*
X77504790Y-177014999D01*
X77502000Y-176986670D01*
X77502000Y-176986664D01*
X77493650Y-176901888D01*
X77460657Y-176793124D01*
X77407079Y-176692885D01*
X77334974Y-176605026D01*
X77312968Y-176586966D01*
X76828001Y-176102000D01*
X77882679Y-176102000D01*
X77915464Y-176095479D01*
X77948715Y-176092204D01*
X77980685Y-176082506D01*
X78013474Y-176075984D01*
X78044364Y-176063189D01*
X78076330Y-176053492D01*
X78105792Y-176037744D01*
X78136680Y-176024950D01*
X78164476Y-176006377D01*
X78193941Y-175990628D01*
X78219769Y-175969432D01*
X78247563Y-175950860D01*
X78271201Y-175927222D01*
X78297027Y-175906027D01*
X78318222Y-175880201D01*
X78341860Y-175856563D01*
X78360432Y-175828769D01*
X78381628Y-175802941D01*
X78397377Y-175773476D01*
X78415950Y-175745680D01*
X78428744Y-175714792D01*
X78444492Y-175685330D01*
X78454189Y-175653364D01*
X78466984Y-175622474D01*
X78473506Y-175589685D01*
X78483204Y-175557715D01*
X78486479Y-175524464D01*
X78493000Y-175491679D01*
X78493000Y-175458252D01*
X78496275Y-175425000D01*
X78493000Y-175391748D01*
X78493000Y-175358321D01*
X78486479Y-175325536D01*
X78483204Y-175292285D01*
X78473506Y-175260315D01*
X78466984Y-175227526D01*
X78454189Y-175196636D01*
X78444492Y-175164670D01*
X78428744Y-175135208D01*
X78415950Y-175104320D01*
X78397377Y-175076524D01*
X78381628Y-175047059D01*
X78360432Y-175021231D01*
X78341860Y-174993437D01*
X78318222Y-174969799D01*
X78297027Y-174943973D01*
X78271201Y-174922778D01*
X78247563Y-174899140D01*
X78219769Y-174880568D01*
X78193941Y-174859372D01*
X78164476Y-174843623D01*
X78136680Y-174825050D01*
X78105792Y-174812256D01*
X78076330Y-174796508D01*
X78044364Y-174786811D01*
X78013474Y-174774016D01*
X77980685Y-174767494D01*
X77948715Y-174757796D01*
X77915464Y-174754521D01*
X77882679Y-174748000D01*
X75844321Y-174748000D01*
X75811536Y-174754521D01*
X75778285Y-174757796D01*
X75746315Y-174767494D01*
X75713526Y-174774016D01*
X75682636Y-174786811D01*
X75650670Y-174796508D01*
X75621208Y-174812256D01*
X75590320Y-174825050D01*
X75562524Y-174843623D01*
X75533059Y-174859372D01*
X75507231Y-174880568D01*
X75479437Y-174899140D01*
X75455799Y-174922778D01*
X75429973Y-174943973D01*
X75408778Y-174969799D01*
X75385140Y-174993437D01*
X75366568Y-175021231D01*
X75345372Y-175047059D01*
X75329623Y-175076524D01*
X75311050Y-175104320D01*
X75298256Y-175135208D01*
X75282508Y-175164670D01*
X75272811Y-175196636D01*
X75260016Y-175227526D01*
X75253494Y-175260315D01*
X75243796Y-175292285D01*
X75240521Y-175325536D01*
X75234000Y-175358321D01*
X75234000Y-175391748D01*
X75230725Y-175425000D01*
X75234000Y-175458252D01*
X75234000Y-175491679D01*
X75240521Y-175524464D01*
X75243796Y-175557715D01*
X75253494Y-175589685D01*
X75260016Y-175622474D01*
X75272811Y-175653364D01*
X75282508Y-175685330D01*
X75298256Y-175714792D01*
X75311050Y-175745680D01*
X75319282Y-175758000D01*
X75280027Y-175758000D01*
X75245680Y-175735050D01*
X75122474Y-175684016D01*
X74991679Y-175658000D01*
X74858321Y-175658000D01*
X74727526Y-175684016D01*
X74604320Y-175735050D01*
X74493437Y-175809140D01*
X74399140Y-175903437D01*
X74325050Y-176014320D01*
X74274016Y-176137526D01*
X74248000Y-176268321D01*
X74248000Y-176401679D01*
X74274016Y-176532474D01*
X74325050Y-176655680D01*
X74399140Y-176766563D01*
X74493437Y-176860860D01*
X74604320Y-176934950D01*
X74727526Y-176985984D01*
X74858321Y-177012000D01*
X74991679Y-177012000D01*
X75122474Y-176985984D01*
X75245680Y-176934950D01*
X75280027Y-176912000D01*
X76005999Y-176912000D01*
X76348000Y-177254002D01*
X76348001Y-186696655D01*
X76348000Y-186696665D01*
X76348000Y-187286669D01*
X76345210Y-187315000D01*
X76356349Y-187428111D01*
X76369897Y-187472770D01*
X76389343Y-187536876D01*
X76442922Y-187637115D01*
X76473840Y-187674788D01*
X76496963Y-187702964D01*
X76496966Y-187702967D01*
X76515027Y-187724974D01*
X76537033Y-187743034D01*
X77096965Y-188302967D01*
X77115026Y-188324974D01*
X77137033Y-188343035D01*
X77137035Y-188343037D01*
X77156980Y-188359405D01*
X77202885Y-188397079D01*
X77303124Y-188450657D01*
X77411888Y-188483650D01*
X77496664Y-188492000D01*
X77496670Y-188492000D01*
X77524999Y-188494790D01*
X77553328Y-188492000D01*
X77729973Y-188492000D01*
X77764320Y-188514950D01*
X77887526Y-188565984D01*
X77946257Y-188577666D01*
X65497000Y-188569582D01*
X65497000Y-184086454D01*
X65526963Y-184122964D01*
X65526966Y-184122967D01*
X65545027Y-184144974D01*
X65567033Y-184163034D01*
X65885957Y-184481959D01*
X65894016Y-184522474D01*
X65945050Y-184645680D01*
X66019140Y-184756563D01*
X66113437Y-184850860D01*
X66224320Y-184924950D01*
X66347526Y-184975984D01*
X66478321Y-185002000D01*
X66611679Y-185002000D01*
X66742474Y-184975984D01*
X66865680Y-184924950D01*
X66976563Y-184850860D01*
X67070860Y-184756563D01*
X67144950Y-184645680D01*
X67195984Y-184522474D01*
X67222000Y-184391679D01*
X67222000Y-184258321D01*
X67195984Y-184127526D01*
X67144950Y-184004320D01*
X67070860Y-183893437D01*
X66976563Y-183799140D01*
X66865680Y-183725050D01*
X66742474Y-183674016D01*
X66701959Y-183665957D01*
X66532000Y-183495999D01*
X66532000Y-175051592D01*
X66643748Y-175118157D01*
X66918109Y-175215481D01*
X67148000Y-175094814D01*
X67148000Y-173901000D01*
X67128000Y-173901000D01*
X67128000Y-173647000D01*
X67148000Y-173647000D01*
X67148000Y-173627000D01*
X67402000Y-173627000D01*
X67402000Y-173647000D01*
X67422000Y-173647000D01*
X67422000Y-173901000D01*
X67402000Y-173901000D01*
X67402000Y-175094814D01*
X67631891Y-175215481D01*
X67906252Y-175118157D01*
X68156355Y-174969178D01*
X68372588Y-174774269D01*
X68546641Y-174540920D01*
X68655653Y-174312051D01*
X68683337Y-174378886D01*
X68823089Y-174588040D01*
X69000960Y-174765911D01*
X69210114Y-174905663D01*
X69442513Y-175001926D01*
X69689226Y-175051000D01*
X69940774Y-175051000D01*
X70187487Y-175001926D01*
X70419886Y-174905663D01*
X70629040Y-174765911D01*
X70735649Y-174659302D01*
X90078000Y-174659302D01*
X90078000Y-174920698D01*
X90128996Y-175177072D01*
X90229028Y-175418570D01*
X90374252Y-175635913D01*
X90559087Y-175820748D01*
X90776430Y-175965972D01*
X91017928Y-176066004D01*
X91274302Y-176117000D01*
X91535698Y-176117000D01*
X91792072Y-176066004D01*
X92033570Y-175965972D01*
X92250913Y-175820748D01*
X92407055Y-175664606D01*
X92406928Y-175690000D01*
X92419188Y-175814482D01*
X92455498Y-175934180D01*
X92514463Y-176044494D01*
X92593815Y-176141185D01*
X92690506Y-176220537D01*
X92800820Y-176279502D01*
X92920518Y-176315812D01*
X93045000Y-176328072D01*
X93659250Y-176325000D01*
X93818000Y-176166250D01*
X93818000Y-174917000D01*
X94072000Y-174917000D01*
X94072000Y-176166250D01*
X94230750Y-176325000D01*
X94845000Y-176328072D01*
X94969482Y-176315812D01*
X95089180Y-176279502D01*
X95199494Y-176220537D01*
X95296185Y-176141185D01*
X95375537Y-176044494D01*
X95434502Y-175934180D01*
X95470812Y-175814482D01*
X95483072Y-175690000D01*
X95480000Y-175075750D01*
X95321250Y-174917000D01*
X94072000Y-174917000D01*
X93818000Y-174917000D01*
X93798000Y-174917000D01*
X93798000Y-174663000D01*
X93818000Y-174663000D01*
X93818000Y-173413750D01*
X94072000Y-173413750D01*
X94072000Y-174663000D01*
X95321250Y-174663000D01*
X95480000Y-174504250D01*
X95483072Y-173890000D01*
X95470812Y-173765518D01*
X95434502Y-173645820D01*
X95375537Y-173535506D01*
X95296185Y-173438815D01*
X95199494Y-173359463D01*
X95089180Y-173300498D01*
X94969482Y-173264188D01*
X94845000Y-173251928D01*
X94230750Y-173255000D01*
X94072000Y-173413750D01*
X93818000Y-173413750D01*
X93659250Y-173255000D01*
X93045000Y-173251928D01*
X92920518Y-173264188D01*
X92800820Y-173300498D01*
X92690506Y-173359463D01*
X92593815Y-173438815D01*
X92514463Y-173535506D01*
X92455498Y-173645820D01*
X92419188Y-173765518D01*
X92406928Y-173890000D01*
X92407055Y-173915394D01*
X92250913Y-173759252D01*
X92033570Y-173614028D01*
X91792072Y-173513996D01*
X91535698Y-173463000D01*
X91274302Y-173463000D01*
X91017928Y-173513996D01*
X90776430Y-173614028D01*
X90559087Y-173759252D01*
X90374252Y-173944087D01*
X90229028Y-174161430D01*
X90128996Y-174402928D01*
X90078000Y-174659302D01*
X70735649Y-174659302D01*
X70806911Y-174588040D01*
X70946663Y-174378886D01*
X70958214Y-174351000D01*
X71918973Y-174351000D01*
X71953320Y-174373950D01*
X72076526Y-174424984D01*
X72207321Y-174451000D01*
X72340679Y-174451000D01*
X72471474Y-174424984D01*
X72594680Y-174373950D01*
X72629027Y-174351000D01*
X80867669Y-174351000D01*
X80896000Y-174353790D01*
X80924331Y-174351000D01*
X80924336Y-174351000D01*
X80954045Y-174348074D01*
X81009111Y-174342651D01*
X81053770Y-174329103D01*
X81117876Y-174309657D01*
X81218115Y-174256079D01*
X81305974Y-174183974D01*
X81324039Y-174161962D01*
X82554002Y-172932000D01*
X102589973Y-172932000D01*
X102624320Y-172954950D01*
X102747526Y-173005984D01*
X102878321Y-173032000D01*
X103011679Y-173032000D01*
X103142474Y-173005984D01*
X103265680Y-172954950D01*
X103376563Y-172880860D01*
X103470860Y-172786563D01*
X103544950Y-172675680D01*
X103595984Y-172552474D01*
X103622000Y-172421679D01*
X103622000Y-172288321D01*
X103595984Y-172157526D01*
X103544950Y-172034320D01*
X103470860Y-171923437D01*
X103376563Y-171829140D01*
X103265680Y-171755050D01*
X103142474Y-171704016D01*
X103011679Y-171678000D01*
X102878321Y-171678000D01*
X102747526Y-171704016D01*
X102624320Y-171755050D01*
X102589973Y-171778000D01*
X102533263Y-171778000D01*
X102594950Y-171685680D01*
X102645984Y-171562474D01*
X102672000Y-171431679D01*
X102672000Y-171298321D01*
X102645984Y-171167526D01*
X102594950Y-171044320D01*
X102520860Y-170933437D01*
X102426563Y-170839140D01*
X102315680Y-170765050D01*
X102192474Y-170714016D01*
X102061679Y-170688000D01*
X101928321Y-170688000D01*
X101797526Y-170714016D01*
X101674320Y-170765050D01*
X101639973Y-170788000D01*
X82413339Y-170788000D01*
X82385000Y-170785209D01*
X82271888Y-170796349D01*
X82163123Y-170829343D01*
X82144795Y-170839140D01*
X82062885Y-170882921D01*
X81975026Y-170955026D01*
X81956961Y-170977038D01*
X80405999Y-172528000D01*
X73984001Y-172528000D01*
X72302039Y-170846038D01*
X72283974Y-170824026D01*
X72196115Y-170751921D01*
X72095876Y-170698343D01*
X72023371Y-170676349D01*
X71987111Y-170665349D01*
X71932045Y-170659926D01*
X71902336Y-170657000D01*
X71902331Y-170657000D01*
X71874000Y-170654210D01*
X71845669Y-170657000D01*
X70958214Y-170657000D01*
X70946663Y-170629114D01*
X70806911Y-170419960D01*
X70629040Y-170242089D01*
X70419886Y-170102337D01*
X70187487Y-170006074D01*
X69975966Y-169964000D01*
X70187487Y-169921926D01*
X70419886Y-169825663D01*
X70629040Y-169685911D01*
X70806911Y-169508040D01*
X70946663Y-169298886D01*
X71042926Y-169066487D01*
X71067229Y-168944302D01*
X76743000Y-168944302D01*
X76743000Y-169205698D01*
X76793996Y-169462072D01*
X76894028Y-169703570D01*
X77039252Y-169920913D01*
X77224087Y-170105748D01*
X77441430Y-170250972D01*
X77682928Y-170351004D01*
X77939302Y-170402000D01*
X78200698Y-170402000D01*
X78457072Y-170351004D01*
X78698570Y-170250972D01*
X78915913Y-170105748D01*
X79072055Y-169949606D01*
X79071928Y-169975000D01*
X79084188Y-170099482D01*
X79120498Y-170219180D01*
X79179463Y-170329494D01*
X79258815Y-170426185D01*
X79355506Y-170505537D01*
X79465820Y-170564502D01*
X79585518Y-170600812D01*
X79710000Y-170613072D01*
X80324250Y-170610000D01*
X80483000Y-170451250D01*
X80483000Y-169202000D01*
X80737000Y-169202000D01*
X80737000Y-170451250D01*
X80895750Y-170610000D01*
X81510000Y-170613072D01*
X81634482Y-170600812D01*
X81754180Y-170564502D01*
X81864494Y-170505537D01*
X81961185Y-170426185D01*
X82040537Y-170329494D01*
X82099502Y-170219180D01*
X82135812Y-170099482D01*
X82148072Y-169975000D01*
X82145000Y-169360750D01*
X81986250Y-169202000D01*
X80737000Y-169202000D01*
X80483000Y-169202000D01*
X80463000Y-169202000D01*
X80463000Y-168948000D01*
X80483000Y-168948000D01*
X80483000Y-167698750D01*
X80737000Y-167698750D01*
X80737000Y-168948000D01*
X81986250Y-168948000D01*
X81989948Y-168944302D01*
X90078000Y-168944302D01*
X90078000Y-169205698D01*
X90128996Y-169462072D01*
X90229028Y-169703570D01*
X90374252Y-169920913D01*
X90559087Y-170105748D01*
X90776430Y-170250972D01*
X91017928Y-170351004D01*
X91274302Y-170402000D01*
X91535698Y-170402000D01*
X91792072Y-170351004D01*
X92033570Y-170250972D01*
X92250913Y-170105748D01*
X92407055Y-169949606D01*
X92406928Y-169975000D01*
X92419188Y-170099482D01*
X92455498Y-170219180D01*
X92514463Y-170329494D01*
X92593815Y-170426185D01*
X92690506Y-170505537D01*
X92800820Y-170564502D01*
X92920518Y-170600812D01*
X93045000Y-170613072D01*
X93659250Y-170610000D01*
X93818000Y-170451250D01*
X93818000Y-169202000D01*
X94072000Y-169202000D01*
X94072000Y-170451250D01*
X94230750Y-170610000D01*
X94845000Y-170613072D01*
X94969482Y-170600812D01*
X95089180Y-170564502D01*
X95199494Y-170505537D01*
X95296185Y-170426185D01*
X95375537Y-170329494D01*
X95434502Y-170219180D01*
X95470812Y-170099482D01*
X95483072Y-169975000D01*
X95480000Y-169360750D01*
X95321250Y-169202000D01*
X94072000Y-169202000D01*
X93818000Y-169202000D01*
X93798000Y-169202000D01*
X93798000Y-168948000D01*
X93818000Y-168948000D01*
X93818000Y-167698750D01*
X94072000Y-167698750D01*
X94072000Y-168948000D01*
X95321250Y-168948000D01*
X95480000Y-168789250D01*
X95483072Y-168175000D01*
X95470812Y-168050518D01*
X95434502Y-167930820D01*
X95375537Y-167820506D01*
X95296185Y-167723815D01*
X95199494Y-167644463D01*
X95089180Y-167585498D01*
X94969482Y-167549188D01*
X94845000Y-167536928D01*
X94230750Y-167540000D01*
X94072000Y-167698750D01*
X93818000Y-167698750D01*
X93659250Y-167540000D01*
X93045000Y-167536928D01*
X92920518Y-167549188D01*
X92800820Y-167585498D01*
X92690506Y-167644463D01*
X92593815Y-167723815D01*
X92514463Y-167820506D01*
X92455498Y-167930820D01*
X92419188Y-168050518D01*
X92406928Y-168175000D01*
X92407055Y-168200394D01*
X92250913Y-168044252D01*
X92033570Y-167899028D01*
X91792072Y-167798996D01*
X91535698Y-167748000D01*
X91274302Y-167748000D01*
X91017928Y-167798996D01*
X90776430Y-167899028D01*
X90559087Y-168044252D01*
X90374252Y-168229087D01*
X90229028Y-168446430D01*
X90128996Y-168687928D01*
X90078000Y-168944302D01*
X81989948Y-168944302D01*
X82145000Y-168789250D01*
X82148072Y-168175000D01*
X82135812Y-168050518D01*
X82099502Y-167930820D01*
X82040537Y-167820506D01*
X81961185Y-167723815D01*
X81864494Y-167644463D01*
X81754180Y-167585498D01*
X81634482Y-167549188D01*
X81510000Y-167536928D01*
X80895750Y-167540000D01*
X80737000Y-167698750D01*
X80483000Y-167698750D01*
X80324250Y-167540000D01*
X79710000Y-167536928D01*
X79585518Y-167549188D01*
X79465820Y-167585498D01*
X79355506Y-167644463D01*
X79258815Y-167723815D01*
X79179463Y-167820506D01*
X79120498Y-167930820D01*
X79084188Y-168050518D01*
X79071928Y-168175000D01*
X79072055Y-168200394D01*
X78915913Y-168044252D01*
X78698570Y-167899028D01*
X78457072Y-167798996D01*
X78200698Y-167748000D01*
X77939302Y-167748000D01*
X77682928Y-167798996D01*
X77441430Y-167899028D01*
X77224087Y-168044252D01*
X77039252Y-168229087D01*
X76894028Y-168446430D01*
X76793996Y-168687928D01*
X76743000Y-168944302D01*
X71067229Y-168944302D01*
X71092000Y-168819774D01*
X71092000Y-168568226D01*
X71042926Y-168321513D01*
X70946663Y-168089114D01*
X70806911Y-167879960D01*
X70629040Y-167702089D01*
X70419886Y-167562337D01*
X70187487Y-167466074D01*
X69975966Y-167424000D01*
X70187487Y-167381926D01*
X70419886Y-167285663D01*
X70629040Y-167145911D01*
X70806911Y-166968040D01*
X70946663Y-166758886D01*
X71042926Y-166526487D01*
X71092000Y-166279774D01*
X71092000Y-166028226D01*
X71042926Y-165781513D01*
X70946663Y-165549114D01*
X70806911Y-165339960D01*
X70629040Y-165162089D01*
X70419886Y-165022337D01*
X70187487Y-164926074D01*
X70021544Y-164893066D01*
X70665000Y-164893066D01*
X70748707Y-164884822D01*
X70829196Y-164860405D01*
X70903376Y-164820755D01*
X70968395Y-164767395D01*
X71021755Y-164702376D01*
X71061405Y-164628196D01*
X71085822Y-164547707D01*
X71094066Y-164464000D01*
X71094066Y-162764000D01*
X71085822Y-162680293D01*
X71061405Y-162599804D01*
X71058465Y-162594302D01*
X76743000Y-162594302D01*
X76743000Y-162855698D01*
X76793996Y-163112072D01*
X76894028Y-163353570D01*
X77039252Y-163570913D01*
X77224087Y-163755748D01*
X77441430Y-163900972D01*
X77682928Y-164001004D01*
X77939302Y-164052000D01*
X78200698Y-164052000D01*
X78457072Y-164001004D01*
X78698570Y-163900972D01*
X78915913Y-163755748D01*
X79072055Y-163599606D01*
X79071928Y-163625000D01*
X79084188Y-163749482D01*
X79120498Y-163869180D01*
X79179463Y-163979494D01*
X79258815Y-164076185D01*
X79355506Y-164155537D01*
X79465820Y-164214502D01*
X79585518Y-164250812D01*
X79710000Y-164263072D01*
X80324250Y-164260000D01*
X80483000Y-164101250D01*
X80483000Y-162852000D01*
X80737000Y-162852000D01*
X80737000Y-164101250D01*
X80895750Y-164260000D01*
X81510000Y-164263072D01*
X81634482Y-164250812D01*
X81754180Y-164214502D01*
X81864494Y-164155537D01*
X81961185Y-164076185D01*
X82040537Y-163979494D01*
X82099502Y-163869180D01*
X82135812Y-163749482D01*
X82148072Y-163625000D01*
X82146094Y-163229302D01*
X90078000Y-163229302D01*
X90078000Y-163490698D01*
X90128996Y-163747072D01*
X90229028Y-163988570D01*
X90374252Y-164205913D01*
X90559087Y-164390748D01*
X90776430Y-164535972D01*
X91017928Y-164636004D01*
X91274302Y-164687000D01*
X91535698Y-164687000D01*
X91792072Y-164636004D01*
X92033570Y-164535972D01*
X92250913Y-164390748D01*
X92407055Y-164234606D01*
X92406928Y-164260000D01*
X92419188Y-164384482D01*
X92455498Y-164504180D01*
X92514463Y-164614494D01*
X92593815Y-164711185D01*
X92690506Y-164790537D01*
X92800820Y-164849502D01*
X92920518Y-164885812D01*
X93045000Y-164898072D01*
X93659250Y-164895000D01*
X93818000Y-164736250D01*
X93818000Y-163487000D01*
X94072000Y-163487000D01*
X94072000Y-164736250D01*
X94230750Y-164895000D01*
X94845000Y-164898072D01*
X94969482Y-164885812D01*
X95089180Y-164849502D01*
X95199494Y-164790537D01*
X95296185Y-164711185D01*
X95375537Y-164614494D01*
X95434502Y-164504180D01*
X95470812Y-164384482D01*
X95483072Y-164260000D01*
X95480000Y-163645750D01*
X95321250Y-163487000D01*
X94072000Y-163487000D01*
X93818000Y-163487000D01*
X93798000Y-163487000D01*
X93798000Y-163233000D01*
X93818000Y-163233000D01*
X93818000Y-161983750D01*
X94072000Y-161983750D01*
X94072000Y-163233000D01*
X95321250Y-163233000D01*
X95480000Y-163074250D01*
X95483072Y-162460000D01*
X95470812Y-162335518D01*
X95434502Y-162215820D01*
X95375537Y-162105506D01*
X95296185Y-162008815D01*
X95199494Y-161929463D01*
X95089180Y-161870498D01*
X94969482Y-161834188D01*
X94845000Y-161821928D01*
X94230750Y-161825000D01*
X94072000Y-161983750D01*
X93818000Y-161983750D01*
X93659250Y-161825000D01*
X93045000Y-161821928D01*
X92920518Y-161834188D01*
X92800820Y-161870498D01*
X92690506Y-161929463D01*
X92593815Y-162008815D01*
X92514463Y-162105506D01*
X92455498Y-162215820D01*
X92419188Y-162335518D01*
X92406928Y-162460000D01*
X92407055Y-162485394D01*
X92250913Y-162329252D01*
X92033570Y-162184028D01*
X91792072Y-162083996D01*
X91535698Y-162033000D01*
X91274302Y-162033000D01*
X91017928Y-162083996D01*
X90776430Y-162184028D01*
X90559087Y-162329252D01*
X90374252Y-162514087D01*
X90229028Y-162731430D01*
X90128996Y-162972928D01*
X90078000Y-163229302D01*
X82146094Y-163229302D01*
X82145000Y-163010750D01*
X81986250Y-162852000D01*
X80737000Y-162852000D01*
X80483000Y-162852000D01*
X80463000Y-162852000D01*
X80463000Y-162598000D01*
X80483000Y-162598000D01*
X80483000Y-161348750D01*
X80737000Y-161348750D01*
X80737000Y-162598000D01*
X81986250Y-162598000D01*
X82145000Y-162439250D01*
X82148072Y-161825000D01*
X82135812Y-161700518D01*
X82099502Y-161580820D01*
X82040537Y-161470506D01*
X81961185Y-161373815D01*
X81864494Y-161294463D01*
X81754180Y-161235498D01*
X81634482Y-161199188D01*
X81510000Y-161186928D01*
X80895750Y-161190000D01*
X80737000Y-161348750D01*
X80483000Y-161348750D01*
X80324250Y-161190000D01*
X79710000Y-161186928D01*
X79585518Y-161199188D01*
X79465820Y-161235498D01*
X79355506Y-161294463D01*
X79258815Y-161373815D01*
X79179463Y-161470506D01*
X79120498Y-161580820D01*
X79084188Y-161700518D01*
X79071928Y-161825000D01*
X79072055Y-161850394D01*
X78915913Y-161694252D01*
X78698570Y-161549028D01*
X78457072Y-161448996D01*
X78200698Y-161398000D01*
X77939302Y-161398000D01*
X77682928Y-161448996D01*
X77441430Y-161549028D01*
X77224087Y-161694252D01*
X77039252Y-161879087D01*
X76894028Y-162096430D01*
X76793996Y-162337928D01*
X76743000Y-162594302D01*
X71058465Y-162594302D01*
X71021755Y-162525624D01*
X70968395Y-162460605D01*
X70903376Y-162407245D01*
X70829196Y-162367595D01*
X70748707Y-162343178D01*
X70665000Y-162334934D01*
X68965000Y-162334934D01*
X68881293Y-162343178D01*
X68800804Y-162367595D01*
X68726624Y-162407245D01*
X68661605Y-162460605D01*
X68608245Y-162525624D01*
X68568595Y-162599804D01*
X68544178Y-162680293D01*
X68535934Y-162764000D01*
X68535934Y-163407456D01*
X68502926Y-163241513D01*
X68406663Y-163009114D01*
X68266911Y-162799960D01*
X68089040Y-162622089D01*
X67879886Y-162482337D01*
X67647487Y-162386074D01*
X67400774Y-162337000D01*
X67149226Y-162337000D01*
X66902513Y-162386074D01*
X66670114Y-162482337D01*
X66460960Y-162622089D01*
X66283089Y-162799960D01*
X66143337Y-163009114D01*
X66047074Y-163241513D01*
X65998000Y-163488226D01*
X65998000Y-163739774D01*
X66047074Y-163986487D01*
X66143337Y-164218886D01*
X66283089Y-164428040D01*
X66460960Y-164605911D01*
X66670114Y-164745663D01*
X66902513Y-164841926D01*
X67114034Y-164884000D01*
X66902513Y-164926074D01*
X66670114Y-165022337D01*
X66460960Y-165162089D01*
X66283089Y-165339960D01*
X66143337Y-165549114D01*
X66047074Y-165781513D01*
X65998000Y-166028226D01*
X65998000Y-166279774D01*
X66047074Y-166526487D01*
X66143337Y-166758886D01*
X66283089Y-166968040D01*
X66460960Y-167145911D01*
X66670114Y-167285663D01*
X66902513Y-167381926D01*
X67114034Y-167424000D01*
X66902513Y-167466074D01*
X66670114Y-167562337D01*
X66460960Y-167702089D01*
X66283089Y-167879960D01*
X66143337Y-168089114D01*
X66047074Y-168321513D01*
X65998000Y-168568226D01*
X65998000Y-168819774D01*
X66047074Y-169066487D01*
X66143337Y-169298886D01*
X66283089Y-169508040D01*
X66460960Y-169685911D01*
X66670114Y-169825663D01*
X66902513Y-169921926D01*
X67114034Y-169964000D01*
X66902513Y-170006074D01*
X66670114Y-170102337D01*
X66460960Y-170242089D01*
X66283089Y-170419960D01*
X66143337Y-170629114D01*
X66047074Y-170861513D01*
X65998000Y-171108226D01*
X65998000Y-171359774D01*
X66047074Y-171606487D01*
X66061847Y-171642152D01*
X65567038Y-172136961D01*
X65545026Y-172155026D01*
X65497000Y-172213546D01*
X65497000Y-159470413D01*
X73939192Y-159470413D01*
X74034956Y-159734814D01*
X74324571Y-159875704D01*
X74636108Y-159957384D01*
X74957595Y-159976718D01*
X75276675Y-159932961D01*
X75581088Y-159827795D01*
X75755044Y-159734814D01*
X75850808Y-159470413D01*
X80439192Y-159470413D01*
X80534956Y-159734814D01*
X80824571Y-159875704D01*
X81136108Y-159957384D01*
X81457595Y-159976718D01*
X81776675Y-159932961D01*
X82081088Y-159827795D01*
X82255044Y-159734814D01*
X82350808Y-159470413D01*
X84734192Y-159470413D01*
X84829956Y-159734814D01*
X85119571Y-159875704D01*
X85431108Y-159957384D01*
X85752595Y-159976718D01*
X86071675Y-159932961D01*
X86376088Y-159827795D01*
X86550044Y-159734814D01*
X86645808Y-159470413D01*
X91234192Y-159470413D01*
X91329956Y-159734814D01*
X91619571Y-159875704D01*
X91931108Y-159957384D01*
X92252595Y-159976718D01*
X92571675Y-159932961D01*
X92876088Y-159827795D01*
X93050044Y-159734814D01*
X93145808Y-159470413D01*
X95529192Y-159470413D01*
X95624956Y-159734814D01*
X95914571Y-159875704D01*
X96226108Y-159957384D01*
X96547595Y-159976718D01*
X96866675Y-159932961D01*
X97171088Y-159827795D01*
X97345044Y-159734814D01*
X97440808Y-159470413D01*
X102029192Y-159470413D01*
X102124956Y-159734814D01*
X102414571Y-159875704D01*
X102726108Y-159957384D01*
X103047595Y-159976718D01*
X103366675Y-159932961D01*
X103671088Y-159827795D01*
X103845044Y-159734814D01*
X103940808Y-159470413D01*
X106324192Y-159470413D01*
X106419956Y-159734814D01*
X106709571Y-159875704D01*
X107021108Y-159957384D01*
X107342595Y-159976718D01*
X107661675Y-159932961D01*
X107966088Y-159827795D01*
X108140044Y-159734814D01*
X108235808Y-159470413D01*
X112824192Y-159470413D01*
X112919956Y-159734814D01*
X113209571Y-159875704D01*
X113521108Y-159957384D01*
X113842595Y-159976718D01*
X114161675Y-159932961D01*
X114466088Y-159827795D01*
X114640044Y-159734814D01*
X114735808Y-159470413D01*
X117119192Y-159470413D01*
X117214956Y-159734814D01*
X117504571Y-159875704D01*
X117816108Y-159957384D01*
X118137595Y-159976718D01*
X118456675Y-159932961D01*
X118761088Y-159827795D01*
X118935044Y-159734814D01*
X119030808Y-159470413D01*
X123619192Y-159470413D01*
X123714956Y-159734814D01*
X124004571Y-159875704D01*
X124316108Y-159957384D01*
X124637595Y-159976718D01*
X124956675Y-159932961D01*
X125261088Y-159827795D01*
X125435044Y-159734814D01*
X125530808Y-159470413D01*
X124575000Y-158514605D01*
X123619192Y-159470413D01*
X119030808Y-159470413D01*
X118075000Y-158514605D01*
X117119192Y-159470413D01*
X114735808Y-159470413D01*
X113780000Y-158514605D01*
X112824192Y-159470413D01*
X108235808Y-159470413D01*
X107280000Y-158514605D01*
X106324192Y-159470413D01*
X103940808Y-159470413D01*
X102985000Y-158514605D01*
X102029192Y-159470413D01*
X97440808Y-159470413D01*
X96485000Y-158514605D01*
X95529192Y-159470413D01*
X93145808Y-159470413D01*
X92190000Y-158514605D01*
X91234192Y-159470413D01*
X86645808Y-159470413D01*
X85690000Y-158514605D01*
X84734192Y-159470413D01*
X82350808Y-159470413D01*
X81395000Y-158514605D01*
X80439192Y-159470413D01*
X75850808Y-159470413D01*
X74895000Y-158514605D01*
X73939192Y-159470413D01*
X65497000Y-159470413D01*
X65497000Y-158397595D01*
X73253282Y-158397595D01*
X73297039Y-158716675D01*
X73402205Y-159021088D01*
X73495186Y-159195044D01*
X73759587Y-159290808D01*
X74715395Y-158335000D01*
X75074605Y-158335000D01*
X76030413Y-159290808D01*
X76294814Y-159195044D01*
X76435704Y-158905429D01*
X76517384Y-158593892D01*
X76529189Y-158397595D01*
X79753282Y-158397595D01*
X79797039Y-158716675D01*
X79902205Y-159021088D01*
X79995186Y-159195044D01*
X80259587Y-159290808D01*
X81215395Y-158335000D01*
X81574605Y-158335000D01*
X82530413Y-159290808D01*
X82794814Y-159195044D01*
X82935704Y-158905429D01*
X83017384Y-158593892D01*
X83029189Y-158397595D01*
X84048282Y-158397595D01*
X84092039Y-158716675D01*
X84197205Y-159021088D01*
X84290186Y-159195044D01*
X84554587Y-159290808D01*
X85510395Y-158335000D01*
X85869605Y-158335000D01*
X86825413Y-159290808D01*
X87089814Y-159195044D01*
X87230704Y-158905429D01*
X87312384Y-158593892D01*
X87324189Y-158397595D01*
X90548282Y-158397595D01*
X90592039Y-158716675D01*
X90697205Y-159021088D01*
X90790186Y-159195044D01*
X91054587Y-159290808D01*
X92010395Y-158335000D01*
X92369605Y-158335000D01*
X93325413Y-159290808D01*
X93589814Y-159195044D01*
X93730704Y-158905429D01*
X93812384Y-158593892D01*
X93824189Y-158397595D01*
X94843282Y-158397595D01*
X94887039Y-158716675D01*
X94992205Y-159021088D01*
X95085186Y-159195044D01*
X95349587Y-159290808D01*
X96305395Y-158335000D01*
X96664605Y-158335000D01*
X97620413Y-159290808D01*
X97884814Y-159195044D01*
X98025704Y-158905429D01*
X98107384Y-158593892D01*
X98119189Y-158397595D01*
X101343282Y-158397595D01*
X101387039Y-158716675D01*
X101492205Y-159021088D01*
X101585186Y-159195044D01*
X101849587Y-159290808D01*
X102805395Y-158335000D01*
X103164605Y-158335000D01*
X104120413Y-159290808D01*
X104384814Y-159195044D01*
X104525704Y-158905429D01*
X104607384Y-158593892D01*
X104619189Y-158397595D01*
X105638282Y-158397595D01*
X105682039Y-158716675D01*
X105787205Y-159021088D01*
X105880186Y-159195044D01*
X106144587Y-159290808D01*
X107100395Y-158335000D01*
X107459605Y-158335000D01*
X108415413Y-159290808D01*
X108679814Y-159195044D01*
X108820704Y-158905429D01*
X108902384Y-158593892D01*
X108914189Y-158397595D01*
X112138282Y-158397595D01*
X112182039Y-158716675D01*
X112287205Y-159021088D01*
X112380186Y-159195044D01*
X112644587Y-159290808D01*
X113600395Y-158335000D01*
X113959605Y-158335000D01*
X114915413Y-159290808D01*
X115179814Y-159195044D01*
X115320704Y-158905429D01*
X115402384Y-158593892D01*
X115414189Y-158397595D01*
X116433282Y-158397595D01*
X116477039Y-158716675D01*
X116582205Y-159021088D01*
X116675186Y-159195044D01*
X116939587Y-159290808D01*
X117895395Y-158335000D01*
X118254605Y-158335000D01*
X119210413Y-159290808D01*
X119474814Y-159195044D01*
X119615704Y-158905429D01*
X119697384Y-158593892D01*
X119709189Y-158397595D01*
X122933282Y-158397595D01*
X122977039Y-158716675D01*
X123082205Y-159021088D01*
X123175186Y-159195044D01*
X123439587Y-159290808D01*
X124395395Y-158335000D01*
X124754605Y-158335000D01*
X125710413Y-159290808D01*
X125974814Y-159195044D01*
X126115704Y-158905429D01*
X126197384Y-158593892D01*
X126216718Y-158272405D01*
X126172961Y-157953325D01*
X126067795Y-157648912D01*
X125974814Y-157474956D01*
X125710413Y-157379192D01*
X124754605Y-158335000D01*
X124395395Y-158335000D01*
X123439587Y-157379192D01*
X123175186Y-157474956D01*
X123034296Y-157764571D01*
X122952616Y-158076108D01*
X122933282Y-158397595D01*
X119709189Y-158397595D01*
X119716718Y-158272405D01*
X119672961Y-157953325D01*
X119567795Y-157648912D01*
X119474814Y-157474956D01*
X119210413Y-157379192D01*
X118254605Y-158335000D01*
X117895395Y-158335000D01*
X116939587Y-157379192D01*
X116675186Y-157474956D01*
X116534296Y-157764571D01*
X116452616Y-158076108D01*
X116433282Y-158397595D01*
X115414189Y-158397595D01*
X115421718Y-158272405D01*
X115377961Y-157953325D01*
X115272795Y-157648912D01*
X115179814Y-157474956D01*
X114915413Y-157379192D01*
X113959605Y-158335000D01*
X113600395Y-158335000D01*
X112644587Y-157379192D01*
X112380186Y-157474956D01*
X112239296Y-157764571D01*
X112157616Y-158076108D01*
X112138282Y-158397595D01*
X108914189Y-158397595D01*
X108921718Y-158272405D01*
X108877961Y-157953325D01*
X108772795Y-157648912D01*
X108679814Y-157474956D01*
X108415413Y-157379192D01*
X107459605Y-158335000D01*
X107100395Y-158335000D01*
X106144587Y-157379192D01*
X105880186Y-157474956D01*
X105739296Y-157764571D01*
X105657616Y-158076108D01*
X105638282Y-158397595D01*
X104619189Y-158397595D01*
X104626718Y-158272405D01*
X104582961Y-157953325D01*
X104477795Y-157648912D01*
X104384814Y-157474956D01*
X104120413Y-157379192D01*
X103164605Y-158335000D01*
X102805395Y-158335000D01*
X101849587Y-157379192D01*
X101585186Y-157474956D01*
X101444296Y-157764571D01*
X101362616Y-158076108D01*
X101343282Y-158397595D01*
X98119189Y-158397595D01*
X98126718Y-158272405D01*
X98082961Y-157953325D01*
X97977795Y-157648912D01*
X97884814Y-157474956D01*
X97620413Y-157379192D01*
X96664605Y-158335000D01*
X96305395Y-158335000D01*
X95349587Y-157379192D01*
X95085186Y-157474956D01*
X94944296Y-157764571D01*
X94862616Y-158076108D01*
X94843282Y-158397595D01*
X93824189Y-158397595D01*
X93831718Y-158272405D01*
X93787961Y-157953325D01*
X93682795Y-157648912D01*
X93589814Y-157474956D01*
X93325413Y-157379192D01*
X92369605Y-158335000D01*
X92010395Y-158335000D01*
X91054587Y-157379192D01*
X90790186Y-157474956D01*
X90649296Y-157764571D01*
X90567616Y-158076108D01*
X90548282Y-158397595D01*
X87324189Y-158397595D01*
X87331718Y-158272405D01*
X87287961Y-157953325D01*
X87182795Y-157648912D01*
X87089814Y-157474956D01*
X86825413Y-157379192D01*
X85869605Y-158335000D01*
X85510395Y-158335000D01*
X84554587Y-157379192D01*
X84290186Y-157474956D01*
X84149296Y-157764571D01*
X84067616Y-158076108D01*
X84048282Y-158397595D01*
X83029189Y-158397595D01*
X83036718Y-158272405D01*
X82992961Y-157953325D01*
X82887795Y-157648912D01*
X82794814Y-157474956D01*
X82530413Y-157379192D01*
X81574605Y-158335000D01*
X81215395Y-158335000D01*
X80259587Y-157379192D01*
X79995186Y-157474956D01*
X79854296Y-157764571D01*
X79772616Y-158076108D01*
X79753282Y-158397595D01*
X76529189Y-158397595D01*
X76536718Y-158272405D01*
X76492961Y-157953325D01*
X76387795Y-157648912D01*
X76294814Y-157474956D01*
X76030413Y-157379192D01*
X75074605Y-158335000D01*
X74715395Y-158335000D01*
X73759587Y-157379192D01*
X73495186Y-157474956D01*
X73354296Y-157764571D01*
X73272616Y-158076108D01*
X73253282Y-158397595D01*
X65497000Y-158397595D01*
X65497000Y-157199587D01*
X73939192Y-157199587D01*
X74895000Y-158155395D01*
X75850808Y-157199587D01*
X80439192Y-157199587D01*
X81395000Y-158155395D01*
X82350808Y-157199587D01*
X84734192Y-157199587D01*
X85690000Y-158155395D01*
X86645808Y-157199587D01*
X91234192Y-157199587D01*
X92190000Y-158155395D01*
X93145808Y-157199587D01*
X95529192Y-157199587D01*
X96485000Y-158155395D01*
X97440808Y-157199587D01*
X102029192Y-157199587D01*
X102985000Y-158155395D01*
X103940808Y-157199587D01*
X106324192Y-157199587D01*
X107280000Y-158155395D01*
X108235808Y-157199587D01*
X112824192Y-157199587D01*
X113780000Y-158155395D01*
X114735808Y-157199587D01*
X117119192Y-157199587D01*
X118075000Y-158155395D01*
X119030808Y-157199587D01*
X123619192Y-157199587D01*
X124575000Y-158155395D01*
X125530808Y-157199587D01*
X125435044Y-156935186D01*
X125145429Y-156794296D01*
X124833892Y-156712616D01*
X124512405Y-156693282D01*
X124193325Y-156737039D01*
X123888912Y-156842205D01*
X123714956Y-156935186D01*
X123619192Y-157199587D01*
X119030808Y-157199587D01*
X118935044Y-156935186D01*
X118645429Y-156794296D01*
X118333892Y-156712616D01*
X118012405Y-156693282D01*
X117693325Y-156737039D01*
X117388912Y-156842205D01*
X117214956Y-156935186D01*
X117119192Y-157199587D01*
X114735808Y-157199587D01*
X114640044Y-156935186D01*
X114350429Y-156794296D01*
X114038892Y-156712616D01*
X113717405Y-156693282D01*
X113398325Y-156737039D01*
X113093912Y-156842205D01*
X112919956Y-156935186D01*
X112824192Y-157199587D01*
X108235808Y-157199587D01*
X108140044Y-156935186D01*
X107850429Y-156794296D01*
X107538892Y-156712616D01*
X107217405Y-156693282D01*
X106898325Y-156737039D01*
X106593912Y-156842205D01*
X106419956Y-156935186D01*
X106324192Y-157199587D01*
X103940808Y-157199587D01*
X103845044Y-156935186D01*
X103555429Y-156794296D01*
X103243892Y-156712616D01*
X102922405Y-156693282D01*
X102603325Y-156737039D01*
X102298912Y-156842205D01*
X102124956Y-156935186D01*
X102029192Y-157199587D01*
X97440808Y-157199587D01*
X97345044Y-156935186D01*
X97055429Y-156794296D01*
X96743892Y-156712616D01*
X96422405Y-156693282D01*
X96103325Y-156737039D01*
X95798912Y-156842205D01*
X95624956Y-156935186D01*
X95529192Y-157199587D01*
X93145808Y-157199587D01*
X93050044Y-156935186D01*
X92760429Y-156794296D01*
X92448892Y-156712616D01*
X92127405Y-156693282D01*
X91808325Y-156737039D01*
X91503912Y-156842205D01*
X91329956Y-156935186D01*
X91234192Y-157199587D01*
X86645808Y-157199587D01*
X86550044Y-156935186D01*
X86260429Y-156794296D01*
X85948892Y-156712616D01*
X85627405Y-156693282D01*
X85308325Y-156737039D01*
X85003912Y-156842205D01*
X84829956Y-156935186D01*
X84734192Y-157199587D01*
X82350808Y-157199587D01*
X82255044Y-156935186D01*
X81965429Y-156794296D01*
X81653892Y-156712616D01*
X81332405Y-156693282D01*
X81013325Y-156737039D01*
X80708912Y-156842205D01*
X80534956Y-156935186D01*
X80439192Y-157199587D01*
X75850808Y-157199587D01*
X75755044Y-156935186D01*
X75465429Y-156794296D01*
X75153892Y-156712616D01*
X74832405Y-156693282D01*
X74513325Y-156737039D01*
X74208912Y-156842205D01*
X74034956Y-156935186D01*
X73939192Y-157199587D01*
X65497000Y-157199587D01*
X65497000Y-153694453D01*
X73468000Y-153694453D01*
X73468000Y-153975547D01*
X73522838Y-154251241D01*
X73630409Y-154510938D01*
X73786576Y-154744660D01*
X73985340Y-154943424D01*
X74219062Y-155099591D01*
X74478759Y-155207162D01*
X74754453Y-155262000D01*
X75035547Y-155262000D01*
X75311241Y-155207162D01*
X75570938Y-155099591D01*
X75804660Y-154943424D01*
X76003424Y-154744660D01*
X76159591Y-154510938D01*
X76267162Y-154251241D01*
X76322000Y-153975547D01*
X76322000Y-153694453D01*
X79968000Y-153694453D01*
X79968000Y-153975547D01*
X80022838Y-154251241D01*
X80130409Y-154510938D01*
X80286576Y-154744660D01*
X80485340Y-154943424D01*
X80719062Y-155099591D01*
X80978759Y-155207162D01*
X81254453Y-155262000D01*
X81535547Y-155262000D01*
X81811241Y-155207162D01*
X82070938Y-155099591D01*
X82304660Y-154943424D01*
X82503424Y-154744660D01*
X82659591Y-154510938D01*
X82767162Y-154251241D01*
X82822000Y-153975547D01*
X82822000Y-153694453D01*
X84263000Y-153694453D01*
X84263000Y-153975547D01*
X84317838Y-154251241D01*
X84425409Y-154510938D01*
X84581576Y-154744660D01*
X84780340Y-154943424D01*
X85014062Y-155099591D01*
X85273759Y-155207162D01*
X85549453Y-155262000D01*
X85830547Y-155262000D01*
X86106241Y-155207162D01*
X86365938Y-155099591D01*
X86599660Y-154943424D01*
X86798424Y-154744660D01*
X86954591Y-154510938D01*
X87062162Y-154251241D01*
X87117000Y-153975547D01*
X87117000Y-153694453D01*
X90763000Y-153694453D01*
X90763000Y-153975547D01*
X90817838Y-154251241D01*
X90925409Y-154510938D01*
X91081576Y-154744660D01*
X91280340Y-154943424D01*
X91514062Y-155099591D01*
X91773759Y-155207162D01*
X92049453Y-155262000D01*
X92330547Y-155262000D01*
X92606241Y-155207162D01*
X92865938Y-155099591D01*
X93099660Y-154943424D01*
X93298424Y-154744660D01*
X93454591Y-154510938D01*
X93562162Y-154251241D01*
X93617000Y-153975547D01*
X93617000Y-153694453D01*
X95058000Y-153694453D01*
X95058000Y-153975547D01*
X95112838Y-154251241D01*
X95220409Y-154510938D01*
X95376576Y-154744660D01*
X95575340Y-154943424D01*
X95809062Y-155099591D01*
X96068759Y-155207162D01*
X96344453Y-155262000D01*
X96625547Y-155262000D01*
X96901241Y-155207162D01*
X97160938Y-155099591D01*
X97394660Y-154943424D01*
X97593424Y-154744660D01*
X97749591Y-154510938D01*
X97857162Y-154251241D01*
X97912000Y-153975547D01*
X97912000Y-153694453D01*
X101558000Y-153694453D01*
X101558000Y-153975547D01*
X101612838Y-154251241D01*
X101720409Y-154510938D01*
X101876576Y-154744660D01*
X102075340Y-154943424D01*
X102309062Y-155099591D01*
X102568759Y-155207162D01*
X102844453Y-155262000D01*
X103125547Y-155262000D01*
X103401241Y-155207162D01*
X103660938Y-155099591D01*
X103894660Y-154943424D01*
X104093424Y-154744660D01*
X104249591Y-154510938D01*
X104357162Y-154251241D01*
X104412000Y-153975547D01*
X104412000Y-153694453D01*
X105853000Y-153694453D01*
X105853000Y-153975547D01*
X105907838Y-154251241D01*
X106015409Y-154510938D01*
X106171576Y-154744660D01*
X106370340Y-154943424D01*
X106604062Y-155099591D01*
X106863759Y-155207162D01*
X107139453Y-155262000D01*
X107420547Y-155262000D01*
X107696241Y-155207162D01*
X107955938Y-155099591D01*
X108189660Y-154943424D01*
X108388424Y-154744660D01*
X108544591Y-154510938D01*
X108652162Y-154251241D01*
X108707000Y-153975547D01*
X108707000Y-153694453D01*
X112353000Y-153694453D01*
X112353000Y-153975547D01*
X112407838Y-154251241D01*
X112515409Y-154510938D01*
X112671576Y-154744660D01*
X112870340Y-154943424D01*
X113104062Y-155099591D01*
X113363759Y-155207162D01*
X113639453Y-155262000D01*
X113920547Y-155262000D01*
X114196241Y-155207162D01*
X114455938Y-155099591D01*
X114689660Y-154943424D01*
X114888424Y-154744660D01*
X115044591Y-154510938D01*
X115152162Y-154251241D01*
X115207000Y-153975547D01*
X115207000Y-153694453D01*
X116648000Y-153694453D01*
X116648000Y-153975547D01*
X116702838Y-154251241D01*
X116810409Y-154510938D01*
X116966576Y-154744660D01*
X117165340Y-154943424D01*
X117399062Y-155099591D01*
X117658759Y-155207162D01*
X117934453Y-155262000D01*
X118215547Y-155262000D01*
X118491241Y-155207162D01*
X118750938Y-155099591D01*
X118984660Y-154943424D01*
X119183424Y-154744660D01*
X119339591Y-154510938D01*
X119447162Y-154251241D01*
X119502000Y-153975547D01*
X119502000Y-153694453D01*
X123148000Y-153694453D01*
X123148000Y-153975547D01*
X123202838Y-154251241D01*
X123310409Y-154510938D01*
X123466576Y-154744660D01*
X123665340Y-154943424D01*
X123899062Y-155099591D01*
X124158759Y-155207162D01*
X124434453Y-155262000D01*
X124715547Y-155262000D01*
X124991241Y-155207162D01*
X125250938Y-155099591D01*
X125484660Y-154943424D01*
X125683424Y-154744660D01*
X125839591Y-154510938D01*
X125947162Y-154251241D01*
X126002000Y-153975547D01*
X126002000Y-153694453D01*
X125947162Y-153418759D01*
X125839591Y-153159062D01*
X125683424Y-152925340D01*
X125484660Y-152726576D01*
X125250938Y-152570409D01*
X124991241Y-152462838D01*
X124715547Y-152408000D01*
X124434453Y-152408000D01*
X124158759Y-152462838D01*
X123899062Y-152570409D01*
X123665340Y-152726576D01*
X123466576Y-152925340D01*
X123310409Y-153159062D01*
X123202838Y-153418759D01*
X123148000Y-153694453D01*
X119502000Y-153694453D01*
X119447162Y-153418759D01*
X119339591Y-153159062D01*
X119183424Y-152925340D01*
X118984660Y-152726576D01*
X118750938Y-152570409D01*
X118491241Y-152462838D01*
X118215547Y-152408000D01*
X117934453Y-152408000D01*
X117658759Y-152462838D01*
X117399062Y-152570409D01*
X117165340Y-152726576D01*
X116966576Y-152925340D01*
X116810409Y-153159062D01*
X116702838Y-153418759D01*
X116648000Y-153694453D01*
X115207000Y-153694453D01*
X115152162Y-153418759D01*
X115044591Y-153159062D01*
X114888424Y-152925340D01*
X114689660Y-152726576D01*
X114455938Y-152570409D01*
X114196241Y-152462838D01*
X113920547Y-152408000D01*
X113639453Y-152408000D01*
X113363759Y-152462838D01*
X113104062Y-152570409D01*
X112870340Y-152726576D01*
X112671576Y-152925340D01*
X112515409Y-153159062D01*
X112407838Y-153418759D01*
X112353000Y-153694453D01*
X108707000Y-153694453D01*
X108652162Y-153418759D01*
X108544591Y-153159062D01*
X108388424Y-152925340D01*
X108189660Y-152726576D01*
X107955938Y-152570409D01*
X107696241Y-152462838D01*
X107420547Y-152408000D01*
X107139453Y-152408000D01*
X106863759Y-152462838D01*
X106604062Y-152570409D01*
X106370340Y-152726576D01*
X106171576Y-152925340D01*
X106015409Y-153159062D01*
X105907838Y-153418759D01*
X105853000Y-153694453D01*
X104412000Y-153694453D01*
X104357162Y-153418759D01*
X104249591Y-153159062D01*
X104093424Y-152925340D01*
X103894660Y-152726576D01*
X103660938Y-152570409D01*
X103401241Y-152462838D01*
X103125547Y-152408000D01*
X102844453Y-152408000D01*
X102568759Y-152462838D01*
X102309062Y-152570409D01*
X102075340Y-152726576D01*
X101876576Y-152925340D01*
X101720409Y-153159062D01*
X101612838Y-153418759D01*
X101558000Y-153694453D01*
X97912000Y-153694453D01*
X97857162Y-153418759D01*
X97749591Y-153159062D01*
X97593424Y-152925340D01*
X97394660Y-152726576D01*
X97160938Y-152570409D01*
X96901241Y-152462838D01*
X96625547Y-152408000D01*
X96344453Y-152408000D01*
X96068759Y-152462838D01*
X95809062Y-152570409D01*
X95575340Y-152726576D01*
X95376576Y-152925340D01*
X95220409Y-153159062D01*
X95112838Y-153418759D01*
X95058000Y-153694453D01*
X93617000Y-153694453D01*
X93562162Y-153418759D01*
X93454591Y-153159062D01*
X93298424Y-152925340D01*
X93099660Y-152726576D01*
X92865938Y-152570409D01*
X92606241Y-152462838D01*
X92330547Y-152408000D01*
X92049453Y-152408000D01*
X91773759Y-152462838D01*
X91514062Y-152570409D01*
X91280340Y-152726576D01*
X91081576Y-152925340D01*
X90925409Y-153159062D01*
X90817838Y-153418759D01*
X90763000Y-153694453D01*
X87117000Y-153694453D01*
X87062162Y-153418759D01*
X86954591Y-153159062D01*
X86798424Y-152925340D01*
X86599660Y-152726576D01*
X86365938Y-152570409D01*
X86106241Y-152462838D01*
X85830547Y-152408000D01*
X85549453Y-152408000D01*
X85273759Y-152462838D01*
X85014062Y-152570409D01*
X84780340Y-152726576D01*
X84581576Y-152925340D01*
X84425409Y-153159062D01*
X84317838Y-153418759D01*
X84263000Y-153694453D01*
X82822000Y-153694453D01*
X82767162Y-153418759D01*
X82659591Y-153159062D01*
X82503424Y-152925340D01*
X82304660Y-152726576D01*
X82070938Y-152570409D01*
X81811241Y-152462838D01*
X81535547Y-152408000D01*
X81254453Y-152408000D01*
X80978759Y-152462838D01*
X80719062Y-152570409D01*
X80485340Y-152726576D01*
X80286576Y-152925340D01*
X80130409Y-153159062D01*
X80022838Y-153418759D01*
X79968000Y-153694453D01*
X76322000Y-153694453D01*
X76267162Y-153418759D01*
X76159591Y-153159062D01*
X76003424Y-152925340D01*
X75804660Y-152726576D01*
X75570938Y-152570409D01*
X75311241Y-152462838D01*
X75035547Y-152408000D01*
X74754453Y-152408000D01*
X74478759Y-152462838D01*
X74219062Y-152570409D01*
X73985340Y-152726576D01*
X73786576Y-152925340D01*
X73630409Y-153159062D01*
X73522838Y-153418759D01*
X73468000Y-153694453D01*
X65497000Y-153694453D01*
X65497000Y-148818418D01*
X163033000Y-148755083D01*
X163033000Y-188632917D01*
G37*
X163033000Y-188632917D02*
X78222840Y-188577846D01*
X78282474Y-188565984D01*
X78405680Y-188514950D01*
X78516563Y-188440860D01*
X78610860Y-188346563D01*
X78684950Y-188235680D01*
X78735984Y-188112474D01*
X78762000Y-187981679D01*
X78762000Y-187848321D01*
X78735984Y-187717526D01*
X78684950Y-187594320D01*
X78610860Y-187483437D01*
X78516563Y-187389140D01*
X78405680Y-187315050D01*
X78282474Y-187264016D01*
X78151679Y-187238000D01*
X78018321Y-187238000D01*
X77887526Y-187264016D01*
X77764320Y-187315050D01*
X77750372Y-187324370D01*
X77502000Y-187075999D01*
X77502000Y-186089302D01*
X90078000Y-186089302D01*
X90078000Y-186350698D01*
X90128996Y-186607072D01*
X90229028Y-186848570D01*
X90374252Y-187065913D01*
X90559087Y-187250748D01*
X90776430Y-187395972D01*
X91017928Y-187496004D01*
X91274302Y-187547000D01*
X91535698Y-187547000D01*
X91792072Y-187496004D01*
X92033570Y-187395972D01*
X92250913Y-187250748D01*
X92407055Y-187094606D01*
X92406928Y-187120000D01*
X92419188Y-187244482D01*
X92455498Y-187364180D01*
X92514463Y-187474494D01*
X92593815Y-187571185D01*
X92690506Y-187650537D01*
X92800820Y-187709502D01*
X92920518Y-187745812D01*
X93045000Y-187758072D01*
X93659250Y-187755000D01*
X93818000Y-187596250D01*
X93818000Y-186347000D01*
X94072000Y-186347000D01*
X94072000Y-187596250D01*
X94230750Y-187755000D01*
X94845000Y-187758072D01*
X94969482Y-187745812D01*
X95089180Y-187709502D01*
X95199494Y-187650537D01*
X95296185Y-187571185D01*
X95375537Y-187474494D01*
X95434502Y-187364180D01*
X95470812Y-187244482D01*
X95483072Y-187120000D01*
X95480000Y-186505750D01*
X95321250Y-186347000D01*
X94072000Y-186347000D01*
X93818000Y-186347000D01*
X93798000Y-186347000D01*
X93798000Y-186093000D01*
X93818000Y-186093000D01*
X93818000Y-184843750D01*
X94072000Y-184843750D01*
X94072000Y-186093000D01*
X95321250Y-186093000D01*
X95480000Y-185934250D01*
X95483072Y-185320000D01*
X95470812Y-185195518D01*
X95434502Y-185075820D01*
X95375537Y-184965506D01*
X95296185Y-184868815D01*
X95199494Y-184789463D01*
X95089180Y-184730498D01*
X94969482Y-184694188D01*
X94845000Y-184681928D01*
X94230750Y-184685000D01*
X94072000Y-184843750D01*
X93818000Y-184843750D01*
X93659250Y-184685000D01*
X93045000Y-184681928D01*
X92920518Y-184694188D01*
X92800820Y-184730498D01*
X92690506Y-184789463D01*
X92593815Y-184868815D01*
X92514463Y-184965506D01*
X92455498Y-185075820D01*
X92419188Y-185195518D01*
X92406928Y-185320000D01*
X92407055Y-185345394D01*
X92250913Y-185189252D01*
X92033570Y-185044028D01*
X91792072Y-184943996D01*
X91535698Y-184893000D01*
X91274302Y-184893000D01*
X91017928Y-184943996D01*
X90776430Y-185044028D01*
X90559087Y-185189252D01*
X90374252Y-185374087D01*
X90229028Y-185591430D01*
X90128996Y-185832928D01*
X90078000Y-186089302D01*
X77502000Y-186089302D01*
X77502000Y-182914302D01*
X128813000Y-182914302D01*
X128813000Y-183175698D01*
X128863996Y-183432072D01*
X128964028Y-183673570D01*
X129109252Y-183890913D01*
X129294087Y-184075748D01*
X129511430Y-184220972D01*
X129752928Y-184321004D01*
X130009302Y-184372000D01*
X130270698Y-184372000D01*
X130527072Y-184321004D01*
X130768570Y-184220972D01*
X130985913Y-184075748D01*
X131142055Y-183919606D01*
X131141928Y-183945000D01*
X131154188Y-184069482D01*
X131190498Y-184189180D01*
X131249463Y-184299494D01*
X131328815Y-184396185D01*
X131425506Y-184475537D01*
X131535820Y-184534502D01*
X131655518Y-184570812D01*
X131780000Y-184583072D01*
X132394250Y-184580000D01*
X132553000Y-184421250D01*
X132553000Y-183172000D01*
X132807000Y-183172000D01*
X132807000Y-184421250D01*
X132965750Y-184580000D01*
X133580000Y-184583072D01*
X133704482Y-184570812D01*
X133824180Y-184534502D01*
X133934494Y-184475537D01*
X134031185Y-184396185D01*
X134110537Y-184299494D01*
X134169502Y-184189180D01*
X134205812Y-184069482D01*
X134218072Y-183945000D01*
X136856928Y-183945000D01*
X136869188Y-184069482D01*
X136905498Y-184189180D01*
X136964463Y-184299494D01*
X137043815Y-184396185D01*
X137140506Y-184475537D01*
X137250820Y-184534502D01*
X137370518Y-184570812D01*
X137495000Y-184583072D01*
X138109250Y-184580000D01*
X138268000Y-184421250D01*
X138268000Y-183172000D01*
X137018750Y-183172000D01*
X136860000Y-183330750D01*
X136856928Y-183945000D01*
X134218072Y-183945000D01*
X134215000Y-183330750D01*
X134056250Y-183172000D01*
X132807000Y-183172000D01*
X132553000Y-183172000D01*
X132533000Y-183172000D01*
X132533000Y-182918000D01*
X132553000Y-182918000D01*
X132553000Y-181668750D01*
X132807000Y-181668750D01*
X132807000Y-182918000D01*
X134056250Y-182918000D01*
X134215000Y-182759250D01*
X134218072Y-182145000D01*
X136856928Y-182145000D01*
X136860000Y-182759250D01*
X137018750Y-182918000D01*
X138268000Y-182918000D01*
X138268000Y-181668750D01*
X138522000Y-181668750D01*
X138522000Y-182918000D01*
X138542000Y-182918000D01*
X138542000Y-183172000D01*
X138522000Y-183172000D01*
X138522000Y-184421250D01*
X138680750Y-184580000D01*
X139295000Y-184583072D01*
X139419482Y-184570812D01*
X139539180Y-184534502D01*
X139649494Y-184475537D01*
X139746185Y-184396185D01*
X139825537Y-184299494D01*
X139884502Y-184189180D01*
X139920812Y-184069482D01*
X139933072Y-183945000D01*
X139932945Y-183919606D01*
X140089087Y-184075748D01*
X140306430Y-184220972D01*
X140547928Y-184321004D01*
X140804302Y-184372000D01*
X141065698Y-184372000D01*
X141322072Y-184321004D01*
X141563570Y-184220972D01*
X141780913Y-184075748D01*
X141965748Y-183890913D01*
X142110972Y-183673570D01*
X142211004Y-183432072D01*
X142262000Y-183175698D01*
X142262000Y-182914302D01*
X142211004Y-182657928D01*
X142110972Y-182416430D01*
X141965748Y-182199087D01*
X141780913Y-182014252D01*
X141563570Y-181869028D01*
X141322072Y-181768996D01*
X141065698Y-181718000D01*
X140804302Y-181718000D01*
X140547928Y-181768996D01*
X140306430Y-181869028D01*
X140089087Y-182014252D01*
X139932945Y-182170394D01*
X139933072Y-182145000D01*
X139920812Y-182020518D01*
X139884502Y-181900820D01*
X139825537Y-181790506D01*
X139746185Y-181693815D01*
X139649494Y-181614463D01*
X139539180Y-181555498D01*
X139419482Y-181519188D01*
X139295000Y-181506928D01*
X138680750Y-181510000D01*
X138522000Y-181668750D01*
X138268000Y-181668750D01*
X138109250Y-181510000D01*
X137495000Y-181506928D01*
X137370518Y-181519188D01*
X137250820Y-181555498D01*
X137140506Y-181614463D01*
X137043815Y-181693815D01*
X136964463Y-181790506D01*
X136905498Y-181900820D01*
X136869188Y-182020518D01*
X136856928Y-182145000D01*
X134218072Y-182145000D01*
X134205812Y-182020518D01*
X134169502Y-181900820D01*
X134110537Y-181790506D01*
X134031185Y-181693815D01*
X133934494Y-181614463D01*
X133824180Y-181555498D01*
X133704482Y-181519188D01*
X133580000Y-181506928D01*
X132965750Y-181510000D01*
X132807000Y-181668750D01*
X132553000Y-181668750D01*
X132394250Y-181510000D01*
X131780000Y-181506928D01*
X131655518Y-181519188D01*
X131535820Y-181555498D01*
X131425506Y-181614463D01*
X131328815Y-181693815D01*
X131249463Y-181790506D01*
X131190498Y-181900820D01*
X131154188Y-182020518D01*
X131141928Y-182145000D01*
X131142055Y-182170394D01*
X130985913Y-182014252D01*
X130768570Y-181869028D01*
X130527072Y-181768996D01*
X130270698Y-181718000D01*
X130009302Y-181718000D01*
X129752928Y-181768996D01*
X129511430Y-181869028D01*
X129294087Y-182014252D01*
X129109252Y-182199087D01*
X128964028Y-182416430D01*
X128863996Y-182657928D01*
X128813000Y-182914302D01*
X77502000Y-182914302D01*
X77502000Y-182377717D01*
X77526208Y-182387744D01*
X77555670Y-182403492D01*
X77587636Y-182413189D01*
X77618526Y-182425984D01*
X77651315Y-182432506D01*
X77683285Y-182442204D01*
X77716536Y-182445479D01*
X77749321Y-182452000D01*
X83497755Y-182452000D01*
X83531000Y-182455274D01*
X83564245Y-182452000D01*
X83564252Y-182452000D01*
X83663715Y-182442204D01*
X83791330Y-182403492D01*
X83908941Y-182340628D01*
X84012027Y-182256027D01*
X84033226Y-182230196D01*
X86351422Y-179912000D01*
X90214294Y-179912000D01*
X90128996Y-180117928D01*
X90078000Y-180374302D01*
X90078000Y-180635698D01*
X90128996Y-180892072D01*
X90229028Y-181133570D01*
X90374252Y-181350913D01*
X90559087Y-181535748D01*
X90776430Y-181680972D01*
X91017928Y-181781004D01*
X91274302Y-181832000D01*
X91535698Y-181832000D01*
X91792072Y-181781004D01*
X92033570Y-181680972D01*
X92250913Y-181535748D01*
X92407055Y-181379606D01*
X92406928Y-181405000D01*
X92419188Y-181529482D01*
X92455498Y-181649180D01*
X92514463Y-181759494D01*
X92593815Y-181856185D01*
X92690506Y-181935537D01*
X92800820Y-181994502D01*
X92920518Y-182030812D01*
X93045000Y-182043072D01*
X93659250Y-182040000D01*
X93818000Y-181881250D01*
X93818000Y-180632000D01*
X94072000Y-180632000D01*
X94072000Y-181881250D01*
X94230750Y-182040000D01*
X94845000Y-182043072D01*
X94969482Y-182030812D01*
X95089180Y-181994502D01*
X95199494Y-181935537D01*
X95296185Y-181856185D01*
X95375537Y-181759494D01*
X95434502Y-181649180D01*
X95470812Y-181529482D01*
X95483072Y-181405000D01*
X95480000Y-180790750D01*
X95321250Y-180632000D01*
X94072000Y-180632000D01*
X93818000Y-180632000D01*
X93798000Y-180632000D01*
X93798000Y-180378000D01*
X93818000Y-180378000D01*
X93818000Y-180358000D01*
X94072000Y-180358000D01*
X94072000Y-180378000D01*
X95321250Y-180378000D01*
X95480000Y-180219250D01*
X95481537Y-179912000D01*
X108707255Y-179912000D01*
X108740500Y-179915274D01*
X108773745Y-179912000D01*
X108773752Y-179912000D01*
X108873215Y-179902204D01*
X109000830Y-179863492D01*
X109118441Y-179800628D01*
X109221527Y-179716027D01*
X109242726Y-179690196D01*
X110910196Y-178022726D01*
X110936027Y-178001527D01*
X111020628Y-177898441D01*
X111083492Y-177780830D01*
X111122204Y-177653215D01*
X111132000Y-177553752D01*
X111132000Y-177553743D01*
X111135274Y-177520501D01*
X111132000Y-177487259D01*
X111132000Y-177199302D01*
X128813000Y-177199302D01*
X128813000Y-177460698D01*
X128863996Y-177717072D01*
X128964028Y-177958570D01*
X129109252Y-178175913D01*
X129294087Y-178360748D01*
X129511430Y-178505972D01*
X129752928Y-178606004D01*
X130009302Y-178657000D01*
X130270698Y-178657000D01*
X130527072Y-178606004D01*
X130768570Y-178505972D01*
X130985913Y-178360748D01*
X131142055Y-178204606D01*
X131141928Y-178230000D01*
X131154188Y-178354482D01*
X131190498Y-178474180D01*
X131249463Y-178584494D01*
X131328815Y-178681185D01*
X131425506Y-178760537D01*
X131535820Y-178819502D01*
X131655518Y-178855812D01*
X131780000Y-178868072D01*
X132394250Y-178865000D01*
X132553000Y-178706250D01*
X132553000Y-177457000D01*
X132807000Y-177457000D01*
X132807000Y-178706250D01*
X132965750Y-178865000D01*
X133580000Y-178868072D01*
X133704482Y-178855812D01*
X133824180Y-178819502D01*
X133934494Y-178760537D01*
X134031185Y-178681185D01*
X134110537Y-178584494D01*
X134169502Y-178474180D01*
X134205812Y-178354482D01*
X134218072Y-178230000D01*
X136856928Y-178230000D01*
X136869188Y-178354482D01*
X136905498Y-178474180D01*
X136964463Y-178584494D01*
X137043815Y-178681185D01*
X137140506Y-178760537D01*
X137250820Y-178819502D01*
X137370518Y-178855812D01*
X137495000Y-178868072D01*
X138109250Y-178865000D01*
X138268000Y-178706250D01*
X138268000Y-177457000D01*
X137018750Y-177457000D01*
X136860000Y-177615750D01*
X136856928Y-178230000D01*
X134218072Y-178230000D01*
X134215000Y-177615750D01*
X134056250Y-177457000D01*
X132807000Y-177457000D01*
X132553000Y-177457000D01*
X132533000Y-177457000D01*
X132533000Y-177203000D01*
X132553000Y-177203000D01*
X132553000Y-175953750D01*
X132807000Y-175953750D01*
X132807000Y-177203000D01*
X134056250Y-177203000D01*
X134215000Y-177044250D01*
X134218072Y-176430000D01*
X136856928Y-176430000D01*
X136860000Y-177044250D01*
X137018750Y-177203000D01*
X138268000Y-177203000D01*
X138268000Y-175953750D01*
X138522000Y-175953750D01*
X138522000Y-177203000D01*
X138542000Y-177203000D01*
X138542000Y-177457000D01*
X138522000Y-177457000D01*
X138522000Y-178706250D01*
X138680750Y-178865000D01*
X139295000Y-178868072D01*
X139419482Y-178855812D01*
X139539180Y-178819502D01*
X139649494Y-178760537D01*
X139746185Y-178681185D01*
X139825537Y-178584494D01*
X139884502Y-178474180D01*
X139920812Y-178354482D01*
X139933072Y-178230000D01*
X139932945Y-178204606D01*
X140089087Y-178360748D01*
X140306430Y-178505972D01*
X140547928Y-178606004D01*
X140804302Y-178657000D01*
X141065698Y-178657000D01*
X141322072Y-178606004D01*
X141563570Y-178505972D01*
X141780913Y-178360748D01*
X141965748Y-178175913D01*
X142110972Y-177958570D01*
X142211004Y-177717072D01*
X142262000Y-177460698D01*
X142262000Y-177199302D01*
X142211004Y-176942928D01*
X142110972Y-176701430D01*
X141965748Y-176484087D01*
X141780913Y-176299252D01*
X141563570Y-176154028D01*
X141322072Y-176053996D01*
X141065698Y-176003000D01*
X140804302Y-176003000D01*
X140547928Y-176053996D01*
X140306430Y-176154028D01*
X140089087Y-176299252D01*
X139932945Y-176455394D01*
X139933072Y-176430000D01*
X139920812Y-176305518D01*
X139884502Y-176185820D01*
X139825537Y-176075506D01*
X139746185Y-175978815D01*
X139649494Y-175899463D01*
X139539180Y-175840498D01*
X139419482Y-175804188D01*
X139295000Y-175791928D01*
X138680750Y-175795000D01*
X138522000Y-175953750D01*
X138268000Y-175953750D01*
X138109250Y-175795000D01*
X137495000Y-175791928D01*
X137370518Y-175804188D01*
X137250820Y-175840498D01*
X137140506Y-175899463D01*
X137043815Y-175978815D01*
X136964463Y-176075506D01*
X136905498Y-176185820D01*
X136869188Y-176305518D01*
X136856928Y-176430000D01*
X134218072Y-176430000D01*
X134205812Y-176305518D01*
X134169502Y-176185820D01*
X134110537Y-176075506D01*
X134031185Y-175978815D01*
X133934494Y-175899463D01*
X133824180Y-175840498D01*
X133704482Y-175804188D01*
X133580000Y-175791928D01*
X132965750Y-175795000D01*
X132807000Y-175953750D01*
X132553000Y-175953750D01*
X132394250Y-175795000D01*
X131780000Y-175791928D01*
X131655518Y-175804188D01*
X131535820Y-175840498D01*
X131425506Y-175899463D01*
X131328815Y-175978815D01*
X131249463Y-176075506D01*
X131190498Y-176185820D01*
X131154188Y-176305518D01*
X131141928Y-176430000D01*
X131142055Y-176455394D01*
X130985913Y-176299252D01*
X130768570Y-176154028D01*
X130527072Y-176053996D01*
X130270698Y-176003000D01*
X130009302Y-176003000D01*
X129752928Y-176053996D01*
X129511430Y-176154028D01*
X129294087Y-176299252D01*
X129109252Y-176484087D01*
X128964028Y-176701430D01*
X128863996Y-176942928D01*
X128813000Y-177199302D01*
X111132000Y-177199302D01*
X111132000Y-174371922D01*
X114019620Y-171484302D01*
X128813000Y-171484302D01*
X128813000Y-171745698D01*
X128863996Y-172002072D01*
X128964028Y-172243570D01*
X129109252Y-172460913D01*
X129294087Y-172645748D01*
X129511430Y-172790972D01*
X129752928Y-172891004D01*
X130009302Y-172942000D01*
X130270698Y-172942000D01*
X130527072Y-172891004D01*
X130768570Y-172790972D01*
X130985913Y-172645748D01*
X131142055Y-172489606D01*
X131141928Y-172515000D01*
X131154188Y-172639482D01*
X131190498Y-172759180D01*
X131249463Y-172869494D01*
X131328815Y-172966185D01*
X131425506Y-173045537D01*
X131535820Y-173104502D01*
X131655518Y-173140812D01*
X131780000Y-173153072D01*
X132394250Y-173150000D01*
X132553000Y-172991250D01*
X132553000Y-171742000D01*
X132807000Y-171742000D01*
X132807000Y-172991250D01*
X132965750Y-173150000D01*
X133580000Y-173153072D01*
X133704482Y-173140812D01*
X133824180Y-173104502D01*
X133934494Y-173045537D01*
X134031185Y-172966185D01*
X134110537Y-172869494D01*
X134169502Y-172759180D01*
X134205812Y-172639482D01*
X134218072Y-172515000D01*
X136856928Y-172515000D01*
X136869188Y-172639482D01*
X136905498Y-172759180D01*
X136964463Y-172869494D01*
X137043815Y-172966185D01*
X137140506Y-173045537D01*
X137250820Y-173104502D01*
X137370518Y-173140812D01*
X137495000Y-173153072D01*
X138109250Y-173150000D01*
X138268000Y-172991250D01*
X138268000Y-171742000D01*
X137018750Y-171742000D01*
X136860000Y-171900750D01*
X136856928Y-172515000D01*
X134218072Y-172515000D01*
X134215000Y-171900750D01*
X134056250Y-171742000D01*
X132807000Y-171742000D01*
X132553000Y-171742000D01*
X132533000Y-171742000D01*
X132533000Y-171488000D01*
X132553000Y-171488000D01*
X132553000Y-170238750D01*
X132807000Y-170238750D01*
X132807000Y-171488000D01*
X134056250Y-171488000D01*
X134215000Y-171329250D01*
X134218072Y-170715000D01*
X136856928Y-170715000D01*
X136860000Y-171329250D01*
X137018750Y-171488000D01*
X138268000Y-171488000D01*
X138268000Y-170238750D01*
X138522000Y-170238750D01*
X138522000Y-171488000D01*
X138542000Y-171488000D01*
X138542000Y-171742000D01*
X138522000Y-171742000D01*
X138522000Y-172991250D01*
X138680750Y-173150000D01*
X139295000Y-173153072D01*
X139419482Y-173140812D01*
X139539180Y-173104502D01*
X139649494Y-173045537D01*
X139746185Y-172966185D01*
X139825537Y-172869494D01*
X139884502Y-172759180D01*
X139920812Y-172639482D01*
X139933072Y-172515000D01*
X139932945Y-172489606D01*
X140089087Y-172645748D01*
X140306430Y-172790972D01*
X140547928Y-172891004D01*
X140804302Y-172942000D01*
X141065698Y-172942000D01*
X141322072Y-172891004D01*
X141548075Y-172797390D01*
X158480024Y-172797390D01*
X158524675Y-172944599D01*
X158649859Y-173207420D01*
X158823912Y-173440769D01*
X159040145Y-173635678D01*
X159290248Y-173784657D01*
X159564609Y-173881981D01*
X159794500Y-173761314D01*
X159794500Y-172567500D01*
X160048500Y-172567500D01*
X160048500Y-173761314D01*
X160278391Y-173881981D01*
X160552752Y-173784657D01*
X160802855Y-173635678D01*
X161019088Y-173440769D01*
X161193141Y-173207420D01*
X161318325Y-172944599D01*
X161362976Y-172797390D01*
X161241655Y-172567500D01*
X160048500Y-172567500D01*
X159794500Y-172567500D01*
X158601345Y-172567500D01*
X158480024Y-172797390D01*
X141548075Y-172797390D01*
X141563570Y-172790972D01*
X141780913Y-172645748D01*
X141965748Y-172460913D01*
X142110972Y-172243570D01*
X142211004Y-172002072D01*
X142262000Y-171745698D01*
X142262000Y-171484302D01*
X142211004Y-171227928D01*
X142110972Y-170986430D01*
X141965748Y-170769087D01*
X141780913Y-170584252D01*
X141563570Y-170439028D01*
X141322072Y-170338996D01*
X141065698Y-170288000D01*
X140804302Y-170288000D01*
X140547928Y-170338996D01*
X140306430Y-170439028D01*
X140089087Y-170584252D01*
X139932945Y-170740394D01*
X139933072Y-170715000D01*
X139920812Y-170590518D01*
X139884502Y-170470820D01*
X139825537Y-170360506D01*
X139746185Y-170263815D01*
X139738357Y-170257390D01*
X158480024Y-170257390D01*
X158524675Y-170404599D01*
X158649859Y-170667420D01*
X158823912Y-170900769D01*
X159040145Y-171095678D01*
X159165755Y-171170500D01*
X159040145Y-171245322D01*
X158823912Y-171440231D01*
X158649859Y-171673580D01*
X158524675Y-171936401D01*
X158480024Y-172083610D01*
X158601345Y-172313500D01*
X159794500Y-172313500D01*
X159794500Y-170027500D01*
X160048500Y-170027500D01*
X160048500Y-172313500D01*
X161241655Y-172313500D01*
X161362976Y-172083610D01*
X161318325Y-171936401D01*
X161193141Y-171673580D01*
X161019088Y-171440231D01*
X160802855Y-171245322D01*
X160677245Y-171170500D01*
X160802855Y-171095678D01*
X161019088Y-170900769D01*
X161193141Y-170667420D01*
X161318325Y-170404599D01*
X161362976Y-170257390D01*
X161241655Y-170027500D01*
X160048500Y-170027500D01*
X159794500Y-170027500D01*
X158601345Y-170027500D01*
X158480024Y-170257390D01*
X139738357Y-170257390D01*
X139649494Y-170184463D01*
X139539180Y-170125498D01*
X139419482Y-170089188D01*
X139295000Y-170076928D01*
X138680750Y-170080000D01*
X138522000Y-170238750D01*
X138268000Y-170238750D01*
X138109250Y-170080000D01*
X137495000Y-170076928D01*
X137370518Y-170089188D01*
X137250820Y-170125498D01*
X137140506Y-170184463D01*
X137043815Y-170263815D01*
X136964463Y-170360506D01*
X136905498Y-170470820D01*
X136869188Y-170590518D01*
X136856928Y-170715000D01*
X134218072Y-170715000D01*
X134205812Y-170590518D01*
X134169502Y-170470820D01*
X134110537Y-170360506D01*
X134031185Y-170263815D01*
X133934494Y-170184463D01*
X133824180Y-170125498D01*
X133704482Y-170089188D01*
X133580000Y-170076928D01*
X132965750Y-170080000D01*
X132807000Y-170238750D01*
X132553000Y-170238750D01*
X132394250Y-170080000D01*
X131780000Y-170076928D01*
X131655518Y-170089188D01*
X131535820Y-170125498D01*
X131425506Y-170184463D01*
X131328815Y-170263815D01*
X131249463Y-170360506D01*
X131190498Y-170470820D01*
X131154188Y-170590518D01*
X131141928Y-170715000D01*
X131142055Y-170740394D01*
X130985913Y-170584252D01*
X130768570Y-170439028D01*
X130527072Y-170338996D01*
X130270698Y-170288000D01*
X130009302Y-170288000D01*
X129752928Y-170338996D01*
X129511430Y-170439028D01*
X129294087Y-170584252D01*
X129109252Y-170769087D01*
X128964028Y-170986430D01*
X128863996Y-171227928D01*
X128813000Y-171484302D01*
X114019620Y-171484302D01*
X116069422Y-169434500D01*
X144203755Y-169434500D01*
X144237000Y-169437774D01*
X144270245Y-169434500D01*
X144270252Y-169434500D01*
X144369715Y-169424704D01*
X144497330Y-169385992D01*
X144614941Y-169323128D01*
X144718027Y-169238527D01*
X144739226Y-169212696D01*
X145914422Y-168037500D01*
X158838022Y-168037500D01*
X158929589Y-168174540D01*
X159107460Y-168352411D01*
X159316614Y-168492163D01*
X159387916Y-168521697D01*
X159290248Y-168556343D01*
X159040145Y-168705322D01*
X158823912Y-168900231D01*
X158649859Y-169133580D01*
X158524675Y-169396401D01*
X158480024Y-169543610D01*
X158601345Y-169773500D01*
X159794500Y-169773500D01*
X159794500Y-169753500D01*
X160048500Y-169753500D01*
X160048500Y-169773500D01*
X161241655Y-169773500D01*
X161362976Y-169543610D01*
X161318325Y-169396401D01*
X161193141Y-169133580D01*
X161019088Y-168900231D01*
X160802855Y-168705322D01*
X160552752Y-168556343D01*
X160455084Y-168521697D01*
X160526386Y-168492163D01*
X160735540Y-168352411D01*
X160913411Y-168174540D01*
X161053163Y-167965386D01*
X161149426Y-167732987D01*
X161198500Y-167486274D01*
X161198500Y-167234726D01*
X161149426Y-166988013D01*
X161053163Y-166755614D01*
X160913411Y-166546460D01*
X160735540Y-166368589D01*
X160598500Y-166277022D01*
X160598500Y-166099566D01*
X160771500Y-166099566D01*
X160855207Y-166091322D01*
X160935696Y-166066905D01*
X161009876Y-166027255D01*
X161074895Y-165973895D01*
X161128255Y-165908876D01*
X161167905Y-165834696D01*
X161192322Y-165754207D01*
X161200566Y-165670500D01*
X161200566Y-163970500D01*
X161192322Y-163886793D01*
X161167905Y-163806304D01*
X161128255Y-163732124D01*
X161074895Y-163667105D01*
X161009876Y-163613745D01*
X160935696Y-163574095D01*
X160855207Y-163549678D01*
X160771500Y-163541434D01*
X160598500Y-163541434D01*
X160598500Y-151582252D01*
X160601775Y-151549000D01*
X160588704Y-151416285D01*
X160549992Y-151288670D01*
X160487128Y-151171059D01*
X160423724Y-151093801D01*
X160423722Y-151093799D01*
X160402527Y-151067973D01*
X160376701Y-151046778D01*
X159534726Y-150204804D01*
X159513527Y-150178973D01*
X159410441Y-150094372D01*
X159292830Y-150031508D01*
X159165215Y-149992796D01*
X159065752Y-149983000D01*
X159065745Y-149983000D01*
X159032500Y-149979726D01*
X158999255Y-149983000D01*
X121310321Y-149983000D01*
X121277536Y-149989521D01*
X121244285Y-149992796D01*
X121212315Y-150002494D01*
X121179526Y-150009016D01*
X121148636Y-150021811D01*
X121116670Y-150031508D01*
X121087208Y-150047256D01*
X121056320Y-150060050D01*
X121028524Y-150078623D01*
X120999059Y-150094372D01*
X120973231Y-150115568D01*
X120945437Y-150134140D01*
X120921801Y-150157776D01*
X120895973Y-150178973D01*
X120874778Y-150204799D01*
X120851140Y-150228437D01*
X120832568Y-150256231D01*
X120811372Y-150282059D01*
X120795623Y-150311524D01*
X120777050Y-150339320D01*
X120764256Y-150370208D01*
X120748508Y-150399670D01*
X120738811Y-150431636D01*
X120726016Y-150462526D01*
X120719494Y-150495315D01*
X120709796Y-150527285D01*
X120706521Y-150560536D01*
X120700000Y-150593321D01*
X120700000Y-150626748D01*
X120696725Y-150660000D01*
X120700000Y-150693252D01*
X120700000Y-150726679D01*
X120706521Y-150759464D01*
X120709796Y-150792715D01*
X120719494Y-150824685D01*
X120726016Y-150857474D01*
X120738811Y-150888364D01*
X120748508Y-150920330D01*
X120764256Y-150949792D01*
X120777050Y-150980680D01*
X120795623Y-151008476D01*
X120811372Y-151037941D01*
X120832568Y-151063769D01*
X120851140Y-151091563D01*
X120874778Y-151115201D01*
X120895973Y-151141027D01*
X120921799Y-151162222D01*
X120945437Y-151185860D01*
X120973231Y-151204432D01*
X120999059Y-151225628D01*
X121028524Y-151241377D01*
X121056320Y-151259950D01*
X121087208Y-151272744D01*
X121116670Y-151288492D01*
X121148636Y-151298189D01*
X121179526Y-151310984D01*
X121212315Y-151317506D01*
X121244285Y-151327204D01*
X121277536Y-151330479D01*
X121310321Y-151337000D01*
X158752078Y-151337000D01*
X159244501Y-151829424D01*
X159244500Y-163541434D01*
X159071500Y-163541434D01*
X158987793Y-163549678D01*
X158907304Y-163574095D01*
X158833124Y-163613745D01*
X158768105Y-163667105D01*
X158714745Y-163732124D01*
X158675095Y-163806304D01*
X158650678Y-163886793D01*
X158642434Y-163970500D01*
X158642434Y-165670500D01*
X158650678Y-165754207D01*
X158675095Y-165834696D01*
X158714745Y-165908876D01*
X158768105Y-165973895D01*
X158833124Y-166027255D01*
X158907304Y-166066905D01*
X158987793Y-166091322D01*
X159071500Y-166099566D01*
X159244501Y-166099566D01*
X159244501Y-166277022D01*
X159107460Y-166368589D01*
X158929589Y-166546460D01*
X158838022Y-166683500D01*
X145667241Y-166683500D01*
X145633999Y-166680226D01*
X145600757Y-166683500D01*
X145600748Y-166683500D01*
X145501285Y-166693296D01*
X145373670Y-166732008D01*
X145256059Y-166794872D01*
X145152973Y-166879473D01*
X145131774Y-166905304D01*
X143956578Y-168080500D01*
X116175502Y-168080500D01*
X118486700Y-165769302D01*
X128813000Y-165769302D01*
X128813000Y-166030698D01*
X128863996Y-166287072D01*
X128964028Y-166528570D01*
X129109252Y-166745913D01*
X129294087Y-166930748D01*
X129511430Y-167075972D01*
X129752928Y-167176004D01*
X130009302Y-167227000D01*
X130270698Y-167227000D01*
X130527072Y-167176004D01*
X130768570Y-167075972D01*
X130985913Y-166930748D01*
X131142055Y-166774606D01*
X131141928Y-166800000D01*
X131154188Y-166924482D01*
X131190498Y-167044180D01*
X131249463Y-167154494D01*
X131328815Y-167251185D01*
X131425506Y-167330537D01*
X131535820Y-167389502D01*
X131655518Y-167425812D01*
X131780000Y-167438072D01*
X132394250Y-167435000D01*
X132553000Y-167276250D01*
X132553000Y-166027000D01*
X132807000Y-166027000D01*
X132807000Y-167276250D01*
X132965750Y-167435000D01*
X133580000Y-167438072D01*
X133704482Y-167425812D01*
X133824180Y-167389502D01*
X133934494Y-167330537D01*
X134031185Y-167251185D01*
X134110537Y-167154494D01*
X134169502Y-167044180D01*
X134205812Y-166924482D01*
X134218072Y-166800000D01*
X136856928Y-166800000D01*
X136869188Y-166924482D01*
X136905498Y-167044180D01*
X136964463Y-167154494D01*
X137043815Y-167251185D01*
X137140506Y-167330537D01*
X137250820Y-167389502D01*
X137370518Y-167425812D01*
X137495000Y-167438072D01*
X138109250Y-167435000D01*
X138268000Y-167276250D01*
X138268000Y-166027000D01*
X137018750Y-166027000D01*
X136860000Y-166185750D01*
X136856928Y-166800000D01*
X134218072Y-166800000D01*
X134215000Y-166185750D01*
X134056250Y-166027000D01*
X132807000Y-166027000D01*
X132553000Y-166027000D01*
X132533000Y-166027000D01*
X132533000Y-165773000D01*
X132553000Y-165773000D01*
X132553000Y-164523750D01*
X132807000Y-164523750D01*
X132807000Y-165773000D01*
X134056250Y-165773000D01*
X134215000Y-165614250D01*
X134218072Y-165000000D01*
X136856928Y-165000000D01*
X136860000Y-165614250D01*
X137018750Y-165773000D01*
X138268000Y-165773000D01*
X138268000Y-164523750D01*
X138522000Y-164523750D01*
X138522000Y-165773000D01*
X138542000Y-165773000D01*
X138542000Y-166027000D01*
X138522000Y-166027000D01*
X138522000Y-167276250D01*
X138680750Y-167435000D01*
X139295000Y-167438072D01*
X139419482Y-167425812D01*
X139539180Y-167389502D01*
X139649494Y-167330537D01*
X139746185Y-167251185D01*
X139825537Y-167154494D01*
X139884502Y-167044180D01*
X139920812Y-166924482D01*
X139933072Y-166800000D01*
X139932945Y-166774606D01*
X140089087Y-166930748D01*
X140306430Y-167075972D01*
X140547928Y-167176004D01*
X140804302Y-167227000D01*
X141065698Y-167227000D01*
X141322072Y-167176004D01*
X141563570Y-167075972D01*
X141780913Y-166930748D01*
X141965748Y-166745913D01*
X142110972Y-166528570D01*
X142211004Y-166287072D01*
X142262000Y-166030698D01*
X142262000Y-165769302D01*
X142211004Y-165512928D01*
X142110972Y-165271430D01*
X141965748Y-165054087D01*
X141780913Y-164869252D01*
X141563570Y-164724028D01*
X141322072Y-164623996D01*
X141065698Y-164573000D01*
X140804302Y-164573000D01*
X140547928Y-164623996D01*
X140306430Y-164724028D01*
X140089087Y-164869252D01*
X139932945Y-165025394D01*
X139933072Y-165000000D01*
X139920812Y-164875518D01*
X139884502Y-164755820D01*
X139825537Y-164645506D01*
X139746185Y-164548815D01*
X139649494Y-164469463D01*
X139539180Y-164410498D01*
X139419482Y-164374188D01*
X139295000Y-164361928D01*
X138680750Y-164365000D01*
X138522000Y-164523750D01*
X138268000Y-164523750D01*
X138109250Y-164365000D01*
X137495000Y-164361928D01*
X137370518Y-164374188D01*
X137250820Y-164410498D01*
X137140506Y-164469463D01*
X137043815Y-164548815D01*
X136964463Y-164645506D01*
X136905498Y-164755820D01*
X136869188Y-164875518D01*
X136856928Y-165000000D01*
X134218072Y-165000000D01*
X134205812Y-164875518D01*
X134169502Y-164755820D01*
X134110537Y-164645506D01*
X134031185Y-164548815D01*
X133934494Y-164469463D01*
X133824180Y-164410498D01*
X133704482Y-164374188D01*
X133580000Y-164361928D01*
X132965750Y-164365000D01*
X132807000Y-164523750D01*
X132553000Y-164523750D01*
X132394250Y-164365000D01*
X131780000Y-164361928D01*
X131655518Y-164374188D01*
X131535820Y-164410498D01*
X131425506Y-164469463D01*
X131328815Y-164548815D01*
X131249463Y-164645506D01*
X131190498Y-164755820D01*
X131154188Y-164875518D01*
X131141928Y-165000000D01*
X131142055Y-165025394D01*
X130985913Y-164869252D01*
X130768570Y-164724028D01*
X130527072Y-164623996D01*
X130270698Y-164573000D01*
X130009302Y-164573000D01*
X129752928Y-164623996D01*
X129511430Y-164724028D01*
X129294087Y-164869252D01*
X129109252Y-165054087D01*
X128964028Y-165271430D01*
X128863996Y-165512928D01*
X128813000Y-165769302D01*
X118486700Y-165769302D01*
X120794002Y-163462000D01*
X146109973Y-163462000D01*
X146144320Y-163484950D01*
X146267526Y-163535984D01*
X146398321Y-163562000D01*
X146531679Y-163562000D01*
X146662474Y-163535984D01*
X146785680Y-163484950D01*
X146896563Y-163410860D01*
X146990860Y-163316563D01*
X147064950Y-163205680D01*
X147115984Y-163082474D01*
X147142000Y-162951679D01*
X147142000Y-162818321D01*
X147115984Y-162687526D01*
X147064950Y-162564320D01*
X146990860Y-162453437D01*
X146896563Y-162359140D01*
X146785680Y-162285050D01*
X146662474Y-162234016D01*
X146531679Y-162208000D01*
X146398321Y-162208000D01*
X146267526Y-162234016D01*
X146144320Y-162285050D01*
X146109973Y-162308000D01*
X120583328Y-162308000D01*
X120554999Y-162305210D01*
X120526670Y-162308000D01*
X120526664Y-162308000D01*
X120441888Y-162316350D01*
X120333124Y-162349343D01*
X120232885Y-162402921D01*
X120188619Y-162439250D01*
X120167035Y-162456963D01*
X120167033Y-162456965D01*
X120145026Y-162475026D01*
X120126965Y-162497033D01*
X115522000Y-167101998D01*
X115522000Y-166270027D01*
X115544950Y-166235680D01*
X115595984Y-166112474D01*
X115622000Y-165981679D01*
X115622000Y-165848321D01*
X115595984Y-165717526D01*
X115544950Y-165594320D01*
X115470860Y-165483437D01*
X115376563Y-165389140D01*
X115265680Y-165315050D01*
X115142474Y-165264016D01*
X115011679Y-165238000D01*
X114878321Y-165238000D01*
X114747526Y-165264016D01*
X114624320Y-165315050D01*
X114513437Y-165389140D01*
X114419140Y-165483437D01*
X114345050Y-165594320D01*
X114294016Y-165717526D01*
X114268000Y-165848321D01*
X114268000Y-165981679D01*
X114294016Y-166112474D01*
X114345050Y-166235680D01*
X114368001Y-166270028D01*
X114368000Y-167355999D01*
X105315999Y-176408000D01*
X86453339Y-176408000D01*
X86425000Y-176405209D01*
X86311888Y-176416349D01*
X86203123Y-176449343D01*
X86177228Y-176463184D01*
X86102885Y-176502921D01*
X86015026Y-176575026D01*
X85996963Y-176597036D01*
X83935999Y-178658000D01*
X82290027Y-178658000D01*
X82255680Y-178635050D01*
X82132474Y-178584016D01*
X82001679Y-178558000D01*
X81868321Y-178558000D01*
X81737526Y-178584016D01*
X81614320Y-178635050D01*
X81503437Y-178709140D01*
X81409140Y-178803437D01*
X81335050Y-178914320D01*
X81284016Y-179037526D01*
X81258000Y-179168321D01*
X81258000Y-179301679D01*
X81284016Y-179432474D01*
X81335050Y-179555680D01*
X81409140Y-179666563D01*
X81503437Y-179760860D01*
X81614320Y-179834950D01*
X81698938Y-179870000D01*
X81614320Y-179905050D01*
X81503437Y-179979140D01*
X81409140Y-180073437D01*
X81335050Y-180184320D01*
X81284016Y-180307526D01*
X81258000Y-180438321D01*
X81258000Y-180571679D01*
X81284016Y-180702474D01*
X81335050Y-180825680D01*
X81409140Y-180936563D01*
X81503437Y-181030860D01*
X81603919Y-181098000D01*
X77749321Y-181098000D01*
X77716536Y-181104521D01*
X77683285Y-181107796D01*
X77651315Y-181117494D01*
X77618526Y-181124016D01*
X77587636Y-181136811D01*
X77555670Y-181146508D01*
X77526208Y-181162256D01*
X77502000Y-181172283D01*
X77502000Y-177043328D01*
X77504790Y-177014999D01*
X77502000Y-176986670D01*
X77502000Y-176986664D01*
X77493650Y-176901888D01*
X77460657Y-176793124D01*
X77407079Y-176692885D01*
X77334974Y-176605026D01*
X77312968Y-176586966D01*
X76828001Y-176102000D01*
X77882679Y-176102000D01*
X77915464Y-176095479D01*
X77948715Y-176092204D01*
X77980685Y-176082506D01*
X78013474Y-176075984D01*
X78044364Y-176063189D01*
X78076330Y-176053492D01*
X78105792Y-176037744D01*
X78136680Y-176024950D01*
X78164476Y-176006377D01*
X78193941Y-175990628D01*
X78219769Y-175969432D01*
X78247563Y-175950860D01*
X78271201Y-175927222D01*
X78297027Y-175906027D01*
X78318222Y-175880201D01*
X78341860Y-175856563D01*
X78360432Y-175828769D01*
X78381628Y-175802941D01*
X78397377Y-175773476D01*
X78415950Y-175745680D01*
X78428744Y-175714792D01*
X78444492Y-175685330D01*
X78454189Y-175653364D01*
X78466984Y-175622474D01*
X78473506Y-175589685D01*
X78483204Y-175557715D01*
X78486479Y-175524464D01*
X78493000Y-175491679D01*
X78493000Y-175458252D01*
X78496275Y-175425000D01*
X78493000Y-175391748D01*
X78493000Y-175358321D01*
X78486479Y-175325536D01*
X78483204Y-175292285D01*
X78473506Y-175260315D01*
X78466984Y-175227526D01*
X78454189Y-175196636D01*
X78444492Y-175164670D01*
X78428744Y-175135208D01*
X78415950Y-175104320D01*
X78397377Y-175076524D01*
X78381628Y-175047059D01*
X78360432Y-175021231D01*
X78341860Y-174993437D01*
X78318222Y-174969799D01*
X78297027Y-174943973D01*
X78271201Y-174922778D01*
X78247563Y-174899140D01*
X78219769Y-174880568D01*
X78193941Y-174859372D01*
X78164476Y-174843623D01*
X78136680Y-174825050D01*
X78105792Y-174812256D01*
X78076330Y-174796508D01*
X78044364Y-174786811D01*
X78013474Y-174774016D01*
X77980685Y-174767494D01*
X77948715Y-174757796D01*
X77915464Y-174754521D01*
X77882679Y-174748000D01*
X75844321Y-174748000D01*
X75811536Y-174754521D01*
X75778285Y-174757796D01*
X75746315Y-174767494D01*
X75713526Y-174774016D01*
X75682636Y-174786811D01*
X75650670Y-174796508D01*
X75621208Y-174812256D01*
X75590320Y-174825050D01*
X75562524Y-174843623D01*
X75533059Y-174859372D01*
X75507231Y-174880568D01*
X75479437Y-174899140D01*
X75455799Y-174922778D01*
X75429973Y-174943973D01*
X75408778Y-174969799D01*
X75385140Y-174993437D01*
X75366568Y-175021231D01*
X75345372Y-175047059D01*
X75329623Y-175076524D01*
X75311050Y-175104320D01*
X75298256Y-175135208D01*
X75282508Y-175164670D01*
X75272811Y-175196636D01*
X75260016Y-175227526D01*
X75253494Y-175260315D01*
X75243796Y-175292285D01*
X75240521Y-175325536D01*
X75234000Y-175358321D01*
X75234000Y-175391748D01*
X75230725Y-175425000D01*
X75234000Y-175458252D01*
X75234000Y-175491679D01*
X75240521Y-175524464D01*
X75243796Y-175557715D01*
X75253494Y-175589685D01*
X75260016Y-175622474D01*
X75272811Y-175653364D01*
X75282508Y-175685330D01*
X75298256Y-175714792D01*
X75311050Y-175745680D01*
X75319282Y-175758000D01*
X75280027Y-175758000D01*
X75245680Y-175735050D01*
X75122474Y-175684016D01*
X74991679Y-175658000D01*
X74858321Y-175658000D01*
X74727526Y-175684016D01*
X74604320Y-175735050D01*
X74493437Y-175809140D01*
X74399140Y-175903437D01*
X74325050Y-176014320D01*
X74274016Y-176137526D01*
X74248000Y-176268321D01*
X74248000Y-176401679D01*
X74274016Y-176532474D01*
X74325050Y-176655680D01*
X74399140Y-176766563D01*
X74493437Y-176860860D01*
X74604320Y-176934950D01*
X74727526Y-176985984D01*
X74858321Y-177012000D01*
X74991679Y-177012000D01*
X75122474Y-176985984D01*
X75245680Y-176934950D01*
X75280027Y-176912000D01*
X76005999Y-176912000D01*
X76348000Y-177254002D01*
X76348001Y-186696655D01*
X76348000Y-186696665D01*
X76348000Y-187286669D01*
X76345210Y-187315000D01*
X76356349Y-187428111D01*
X76369897Y-187472770D01*
X76389343Y-187536876D01*
X76442922Y-187637115D01*
X76473840Y-187674788D01*
X76496963Y-187702964D01*
X76496966Y-187702967D01*
X76515027Y-187724974D01*
X76537033Y-187743034D01*
X77096965Y-188302967D01*
X77115026Y-188324974D01*
X77137033Y-188343035D01*
X77137035Y-188343037D01*
X77156980Y-188359405D01*
X77202885Y-188397079D01*
X77303124Y-188450657D01*
X77411888Y-188483650D01*
X77496664Y-188492000D01*
X77496670Y-188492000D01*
X77524999Y-188494790D01*
X77553328Y-188492000D01*
X77729973Y-188492000D01*
X77764320Y-188514950D01*
X77887526Y-188565984D01*
X77946257Y-188577666D01*
X65497000Y-188569582D01*
X65497000Y-184086454D01*
X65526963Y-184122964D01*
X65526966Y-184122967D01*
X65545027Y-184144974D01*
X65567033Y-184163034D01*
X65885957Y-184481959D01*
X65894016Y-184522474D01*
X65945050Y-184645680D01*
X66019140Y-184756563D01*
X66113437Y-184850860D01*
X66224320Y-184924950D01*
X66347526Y-184975984D01*
X66478321Y-185002000D01*
X66611679Y-185002000D01*
X66742474Y-184975984D01*
X66865680Y-184924950D01*
X66976563Y-184850860D01*
X67070860Y-184756563D01*
X67144950Y-184645680D01*
X67195984Y-184522474D01*
X67222000Y-184391679D01*
X67222000Y-184258321D01*
X67195984Y-184127526D01*
X67144950Y-184004320D01*
X67070860Y-183893437D01*
X66976563Y-183799140D01*
X66865680Y-183725050D01*
X66742474Y-183674016D01*
X66701959Y-183665957D01*
X66532000Y-183495999D01*
X66532000Y-175051592D01*
X66643748Y-175118157D01*
X66918109Y-175215481D01*
X67148000Y-175094814D01*
X67148000Y-173901000D01*
X67128000Y-173901000D01*
X67128000Y-173647000D01*
X67148000Y-173647000D01*
X67148000Y-173627000D01*
X67402000Y-173627000D01*
X67402000Y-173647000D01*
X67422000Y-173647000D01*
X67422000Y-173901000D01*
X67402000Y-173901000D01*
X67402000Y-175094814D01*
X67631891Y-175215481D01*
X67906252Y-175118157D01*
X68156355Y-174969178D01*
X68372588Y-174774269D01*
X68546641Y-174540920D01*
X68655653Y-174312051D01*
X68683337Y-174378886D01*
X68823089Y-174588040D01*
X69000960Y-174765911D01*
X69210114Y-174905663D01*
X69442513Y-175001926D01*
X69689226Y-175051000D01*
X69940774Y-175051000D01*
X70187487Y-175001926D01*
X70419886Y-174905663D01*
X70629040Y-174765911D01*
X70735649Y-174659302D01*
X90078000Y-174659302D01*
X90078000Y-174920698D01*
X90128996Y-175177072D01*
X90229028Y-175418570D01*
X90374252Y-175635913D01*
X90559087Y-175820748D01*
X90776430Y-175965972D01*
X91017928Y-176066004D01*
X91274302Y-176117000D01*
X91535698Y-176117000D01*
X91792072Y-176066004D01*
X92033570Y-175965972D01*
X92250913Y-175820748D01*
X92407055Y-175664606D01*
X92406928Y-175690000D01*
X92419188Y-175814482D01*
X92455498Y-175934180D01*
X92514463Y-176044494D01*
X92593815Y-176141185D01*
X92690506Y-176220537D01*
X92800820Y-176279502D01*
X92920518Y-176315812D01*
X93045000Y-176328072D01*
X93659250Y-176325000D01*
X93818000Y-176166250D01*
X93818000Y-174917000D01*
X94072000Y-174917000D01*
X94072000Y-176166250D01*
X94230750Y-176325000D01*
X94845000Y-176328072D01*
X94969482Y-176315812D01*
X95089180Y-176279502D01*
X95199494Y-176220537D01*
X95296185Y-176141185D01*
X95375537Y-176044494D01*
X95434502Y-175934180D01*
X95470812Y-175814482D01*
X95483072Y-175690000D01*
X95480000Y-175075750D01*
X95321250Y-174917000D01*
X94072000Y-174917000D01*
X93818000Y-174917000D01*
X93798000Y-174917000D01*
X93798000Y-174663000D01*
X93818000Y-174663000D01*
X93818000Y-173413750D01*
X94072000Y-173413750D01*
X94072000Y-174663000D01*
X95321250Y-174663000D01*
X95480000Y-174504250D01*
X95483072Y-173890000D01*
X95470812Y-173765518D01*
X95434502Y-173645820D01*
X95375537Y-173535506D01*
X95296185Y-173438815D01*
X95199494Y-173359463D01*
X95089180Y-173300498D01*
X94969482Y-173264188D01*
X94845000Y-173251928D01*
X94230750Y-173255000D01*
X94072000Y-173413750D01*
X93818000Y-173413750D01*
X93659250Y-173255000D01*
X93045000Y-173251928D01*
X92920518Y-173264188D01*
X92800820Y-173300498D01*
X92690506Y-173359463D01*
X92593815Y-173438815D01*
X92514463Y-173535506D01*
X92455498Y-173645820D01*
X92419188Y-173765518D01*
X92406928Y-173890000D01*
X92407055Y-173915394D01*
X92250913Y-173759252D01*
X92033570Y-173614028D01*
X91792072Y-173513996D01*
X91535698Y-173463000D01*
X91274302Y-173463000D01*
X91017928Y-173513996D01*
X90776430Y-173614028D01*
X90559087Y-173759252D01*
X90374252Y-173944087D01*
X90229028Y-174161430D01*
X90128996Y-174402928D01*
X90078000Y-174659302D01*
X70735649Y-174659302D01*
X70806911Y-174588040D01*
X70946663Y-174378886D01*
X70958214Y-174351000D01*
X71918973Y-174351000D01*
X71953320Y-174373950D01*
X72076526Y-174424984D01*
X72207321Y-174451000D01*
X72340679Y-174451000D01*
X72471474Y-174424984D01*
X72594680Y-174373950D01*
X72629027Y-174351000D01*
X80867669Y-174351000D01*
X80896000Y-174353790D01*
X80924331Y-174351000D01*
X80924336Y-174351000D01*
X80954045Y-174348074D01*
X81009111Y-174342651D01*
X81053770Y-174329103D01*
X81117876Y-174309657D01*
X81218115Y-174256079D01*
X81305974Y-174183974D01*
X81324039Y-174161962D01*
X82554002Y-172932000D01*
X102589973Y-172932000D01*
X102624320Y-172954950D01*
X102747526Y-173005984D01*
X102878321Y-173032000D01*
X103011679Y-173032000D01*
X103142474Y-173005984D01*
X103265680Y-172954950D01*
X103376563Y-172880860D01*
X103470860Y-172786563D01*
X103544950Y-172675680D01*
X103595984Y-172552474D01*
X103622000Y-172421679D01*
X103622000Y-172288321D01*
X103595984Y-172157526D01*
X103544950Y-172034320D01*
X103470860Y-171923437D01*
X103376563Y-171829140D01*
X103265680Y-171755050D01*
X103142474Y-171704016D01*
X103011679Y-171678000D01*
X102878321Y-171678000D01*
X102747526Y-171704016D01*
X102624320Y-171755050D01*
X102589973Y-171778000D01*
X102533263Y-171778000D01*
X102594950Y-171685680D01*
X102645984Y-171562474D01*
X102672000Y-171431679D01*
X102672000Y-171298321D01*
X102645984Y-171167526D01*
X102594950Y-171044320D01*
X102520860Y-170933437D01*
X102426563Y-170839140D01*
X102315680Y-170765050D01*
X102192474Y-170714016D01*
X102061679Y-170688000D01*
X101928321Y-170688000D01*
X101797526Y-170714016D01*
X101674320Y-170765050D01*
X101639973Y-170788000D01*
X82413339Y-170788000D01*
X82385000Y-170785209D01*
X82271888Y-170796349D01*
X82163123Y-170829343D01*
X82144795Y-170839140D01*
X82062885Y-170882921D01*
X81975026Y-170955026D01*
X81956961Y-170977038D01*
X80405999Y-172528000D01*
X73984001Y-172528000D01*
X72302039Y-170846038D01*
X72283974Y-170824026D01*
X72196115Y-170751921D01*
X72095876Y-170698343D01*
X72023371Y-170676349D01*
X71987111Y-170665349D01*
X71932045Y-170659926D01*
X71902336Y-170657000D01*
X71902331Y-170657000D01*
X71874000Y-170654210D01*
X71845669Y-170657000D01*
X70958214Y-170657000D01*
X70946663Y-170629114D01*
X70806911Y-170419960D01*
X70629040Y-170242089D01*
X70419886Y-170102337D01*
X70187487Y-170006074D01*
X69975966Y-169964000D01*
X70187487Y-169921926D01*
X70419886Y-169825663D01*
X70629040Y-169685911D01*
X70806911Y-169508040D01*
X70946663Y-169298886D01*
X71042926Y-169066487D01*
X71067229Y-168944302D01*
X76743000Y-168944302D01*
X76743000Y-169205698D01*
X76793996Y-169462072D01*
X76894028Y-169703570D01*
X77039252Y-169920913D01*
X77224087Y-170105748D01*
X77441430Y-170250972D01*
X77682928Y-170351004D01*
X77939302Y-170402000D01*
X78200698Y-170402000D01*
X78457072Y-170351004D01*
X78698570Y-170250972D01*
X78915913Y-170105748D01*
X79072055Y-169949606D01*
X79071928Y-169975000D01*
X79084188Y-170099482D01*
X79120498Y-170219180D01*
X79179463Y-170329494D01*
X79258815Y-170426185D01*
X79355506Y-170505537D01*
X79465820Y-170564502D01*
X79585518Y-170600812D01*
X79710000Y-170613072D01*
X80324250Y-170610000D01*
X80483000Y-170451250D01*
X80483000Y-169202000D01*
X80737000Y-169202000D01*
X80737000Y-170451250D01*
X80895750Y-170610000D01*
X81510000Y-170613072D01*
X81634482Y-170600812D01*
X81754180Y-170564502D01*
X81864494Y-170505537D01*
X81961185Y-170426185D01*
X82040537Y-170329494D01*
X82099502Y-170219180D01*
X82135812Y-170099482D01*
X82148072Y-169975000D01*
X82145000Y-169360750D01*
X81986250Y-169202000D01*
X80737000Y-169202000D01*
X80483000Y-169202000D01*
X80463000Y-169202000D01*
X80463000Y-168948000D01*
X80483000Y-168948000D01*
X80483000Y-167698750D01*
X80737000Y-167698750D01*
X80737000Y-168948000D01*
X81986250Y-168948000D01*
X81989948Y-168944302D01*
X90078000Y-168944302D01*
X90078000Y-169205698D01*
X90128996Y-169462072D01*
X90229028Y-169703570D01*
X90374252Y-169920913D01*
X90559087Y-170105748D01*
X90776430Y-170250972D01*
X91017928Y-170351004D01*
X91274302Y-170402000D01*
X91535698Y-170402000D01*
X91792072Y-170351004D01*
X92033570Y-170250972D01*
X92250913Y-170105748D01*
X92407055Y-169949606D01*
X92406928Y-169975000D01*
X92419188Y-170099482D01*
X92455498Y-170219180D01*
X92514463Y-170329494D01*
X92593815Y-170426185D01*
X92690506Y-170505537D01*
X92800820Y-170564502D01*
X92920518Y-170600812D01*
X93045000Y-170613072D01*
X93659250Y-170610000D01*
X93818000Y-170451250D01*
X93818000Y-169202000D01*
X94072000Y-169202000D01*
X94072000Y-170451250D01*
X94230750Y-170610000D01*
X94845000Y-170613072D01*
X94969482Y-170600812D01*
X95089180Y-170564502D01*
X95199494Y-170505537D01*
X95296185Y-170426185D01*
X95375537Y-170329494D01*
X95434502Y-170219180D01*
X95470812Y-170099482D01*
X95483072Y-169975000D01*
X95480000Y-169360750D01*
X95321250Y-169202000D01*
X94072000Y-169202000D01*
X93818000Y-169202000D01*
X93798000Y-169202000D01*
X93798000Y-168948000D01*
X93818000Y-168948000D01*
X93818000Y-167698750D01*
X94072000Y-167698750D01*
X94072000Y-168948000D01*
X95321250Y-168948000D01*
X95480000Y-168789250D01*
X95483072Y-168175000D01*
X95470812Y-168050518D01*
X95434502Y-167930820D01*
X95375537Y-167820506D01*
X95296185Y-167723815D01*
X95199494Y-167644463D01*
X95089180Y-167585498D01*
X94969482Y-167549188D01*
X94845000Y-167536928D01*
X94230750Y-167540000D01*
X94072000Y-167698750D01*
X93818000Y-167698750D01*
X93659250Y-167540000D01*
X93045000Y-167536928D01*
X92920518Y-167549188D01*
X92800820Y-167585498D01*
X92690506Y-167644463D01*
X92593815Y-167723815D01*
X92514463Y-167820506D01*
X92455498Y-167930820D01*
X92419188Y-168050518D01*
X92406928Y-168175000D01*
X92407055Y-168200394D01*
X92250913Y-168044252D01*
X92033570Y-167899028D01*
X91792072Y-167798996D01*
X91535698Y-167748000D01*
X91274302Y-167748000D01*
X91017928Y-167798996D01*
X90776430Y-167899028D01*
X90559087Y-168044252D01*
X90374252Y-168229087D01*
X90229028Y-168446430D01*
X90128996Y-168687928D01*
X90078000Y-168944302D01*
X81989948Y-168944302D01*
X82145000Y-168789250D01*
X82148072Y-168175000D01*
X82135812Y-168050518D01*
X82099502Y-167930820D01*
X82040537Y-167820506D01*
X81961185Y-167723815D01*
X81864494Y-167644463D01*
X81754180Y-167585498D01*
X81634482Y-167549188D01*
X81510000Y-167536928D01*
X80895750Y-167540000D01*
X80737000Y-167698750D01*
X80483000Y-167698750D01*
X80324250Y-167540000D01*
X79710000Y-167536928D01*
X79585518Y-167549188D01*
X79465820Y-167585498D01*
X79355506Y-167644463D01*
X79258815Y-167723815D01*
X79179463Y-167820506D01*
X79120498Y-167930820D01*
X79084188Y-168050518D01*
X79071928Y-168175000D01*
X79072055Y-168200394D01*
X78915913Y-168044252D01*
X78698570Y-167899028D01*
X78457072Y-167798996D01*
X78200698Y-167748000D01*
X77939302Y-167748000D01*
X77682928Y-167798996D01*
X77441430Y-167899028D01*
X77224087Y-168044252D01*
X77039252Y-168229087D01*
X76894028Y-168446430D01*
X76793996Y-168687928D01*
X76743000Y-168944302D01*
X71067229Y-168944302D01*
X71092000Y-168819774D01*
X71092000Y-168568226D01*
X71042926Y-168321513D01*
X70946663Y-168089114D01*
X70806911Y-167879960D01*
X70629040Y-167702089D01*
X70419886Y-167562337D01*
X70187487Y-167466074D01*
X69975966Y-167424000D01*
X70187487Y-167381926D01*
X70419886Y-167285663D01*
X70629040Y-167145911D01*
X70806911Y-166968040D01*
X70946663Y-166758886D01*
X71042926Y-166526487D01*
X71092000Y-166279774D01*
X71092000Y-166028226D01*
X71042926Y-165781513D01*
X70946663Y-165549114D01*
X70806911Y-165339960D01*
X70629040Y-165162089D01*
X70419886Y-165022337D01*
X70187487Y-164926074D01*
X70021544Y-164893066D01*
X70665000Y-164893066D01*
X70748707Y-164884822D01*
X70829196Y-164860405D01*
X70903376Y-164820755D01*
X70968395Y-164767395D01*
X71021755Y-164702376D01*
X71061405Y-164628196D01*
X71085822Y-164547707D01*
X71094066Y-164464000D01*
X71094066Y-162764000D01*
X71085822Y-162680293D01*
X71061405Y-162599804D01*
X71058465Y-162594302D01*
X76743000Y-162594302D01*
X76743000Y-162855698D01*
X76793996Y-163112072D01*
X76894028Y-163353570D01*
X77039252Y-163570913D01*
X77224087Y-163755748D01*
X77441430Y-163900972D01*
X77682928Y-164001004D01*
X77939302Y-164052000D01*
X78200698Y-164052000D01*
X78457072Y-164001004D01*
X78698570Y-163900972D01*
X78915913Y-163755748D01*
X79072055Y-163599606D01*
X79071928Y-163625000D01*
X79084188Y-163749482D01*
X79120498Y-163869180D01*
X79179463Y-163979494D01*
X79258815Y-164076185D01*
X79355506Y-164155537D01*
X79465820Y-164214502D01*
X79585518Y-164250812D01*
X79710000Y-164263072D01*
X80324250Y-164260000D01*
X80483000Y-164101250D01*
X80483000Y-162852000D01*
X80737000Y-162852000D01*
X80737000Y-164101250D01*
X80895750Y-164260000D01*
X81510000Y-164263072D01*
X81634482Y-164250812D01*
X81754180Y-164214502D01*
X81864494Y-164155537D01*
X81961185Y-164076185D01*
X82040537Y-163979494D01*
X82099502Y-163869180D01*
X82135812Y-163749482D01*
X82148072Y-163625000D01*
X82146094Y-163229302D01*
X90078000Y-163229302D01*
X90078000Y-163490698D01*
X90128996Y-163747072D01*
X90229028Y-163988570D01*
X90374252Y-164205913D01*
X90559087Y-164390748D01*
X90776430Y-164535972D01*
X91017928Y-164636004D01*
X91274302Y-164687000D01*
X91535698Y-164687000D01*
X91792072Y-164636004D01*
X92033570Y-164535972D01*
X92250913Y-164390748D01*
X92407055Y-164234606D01*
X92406928Y-164260000D01*
X92419188Y-164384482D01*
X92455498Y-164504180D01*
X92514463Y-164614494D01*
X92593815Y-164711185D01*
X92690506Y-164790537D01*
X92800820Y-164849502D01*
X92920518Y-164885812D01*
X93045000Y-164898072D01*
X93659250Y-164895000D01*
X93818000Y-164736250D01*
X93818000Y-163487000D01*
X94072000Y-163487000D01*
X94072000Y-164736250D01*
X94230750Y-164895000D01*
X94845000Y-164898072D01*
X94969482Y-164885812D01*
X95089180Y-164849502D01*
X95199494Y-164790537D01*
X95296185Y-164711185D01*
X95375537Y-164614494D01*
X95434502Y-164504180D01*
X95470812Y-164384482D01*
X95483072Y-164260000D01*
X95480000Y-163645750D01*
X95321250Y-163487000D01*
X94072000Y-163487000D01*
X93818000Y-163487000D01*
X93798000Y-163487000D01*
X93798000Y-163233000D01*
X93818000Y-163233000D01*
X93818000Y-161983750D01*
X94072000Y-161983750D01*
X94072000Y-163233000D01*
X95321250Y-163233000D01*
X95480000Y-163074250D01*
X95483072Y-162460000D01*
X95470812Y-162335518D01*
X95434502Y-162215820D01*
X95375537Y-162105506D01*
X95296185Y-162008815D01*
X95199494Y-161929463D01*
X95089180Y-161870498D01*
X94969482Y-161834188D01*
X94845000Y-161821928D01*
X94230750Y-161825000D01*
X94072000Y-161983750D01*
X93818000Y-161983750D01*
X93659250Y-161825000D01*
X93045000Y-161821928D01*
X92920518Y-161834188D01*
X92800820Y-161870498D01*
X92690506Y-161929463D01*
X92593815Y-162008815D01*
X92514463Y-162105506D01*
X92455498Y-162215820D01*
X92419188Y-162335518D01*
X92406928Y-162460000D01*
X92407055Y-162485394D01*
X92250913Y-162329252D01*
X92033570Y-162184028D01*
X91792072Y-162083996D01*
X91535698Y-162033000D01*
X91274302Y-162033000D01*
X91017928Y-162083996D01*
X90776430Y-162184028D01*
X90559087Y-162329252D01*
X90374252Y-162514087D01*
X90229028Y-162731430D01*
X90128996Y-162972928D01*
X90078000Y-163229302D01*
X82146094Y-163229302D01*
X82145000Y-163010750D01*
X81986250Y-162852000D01*
X80737000Y-162852000D01*
X80483000Y-162852000D01*
X80463000Y-162852000D01*
X80463000Y-162598000D01*
X80483000Y-162598000D01*
X80483000Y-161348750D01*
X80737000Y-161348750D01*
X80737000Y-162598000D01*
X81986250Y-162598000D01*
X82145000Y-162439250D01*
X82148072Y-161825000D01*
X82135812Y-161700518D01*
X82099502Y-161580820D01*
X82040537Y-161470506D01*
X81961185Y-161373815D01*
X81864494Y-161294463D01*
X81754180Y-161235498D01*
X81634482Y-161199188D01*
X81510000Y-161186928D01*
X80895750Y-161190000D01*
X80737000Y-161348750D01*
X80483000Y-161348750D01*
X80324250Y-161190000D01*
X79710000Y-161186928D01*
X79585518Y-161199188D01*
X79465820Y-161235498D01*
X79355506Y-161294463D01*
X79258815Y-161373815D01*
X79179463Y-161470506D01*
X79120498Y-161580820D01*
X79084188Y-161700518D01*
X79071928Y-161825000D01*
X79072055Y-161850394D01*
X78915913Y-161694252D01*
X78698570Y-161549028D01*
X78457072Y-161448996D01*
X78200698Y-161398000D01*
X77939302Y-161398000D01*
X77682928Y-161448996D01*
X77441430Y-161549028D01*
X77224087Y-161694252D01*
X77039252Y-161879087D01*
X76894028Y-162096430D01*
X76793996Y-162337928D01*
X76743000Y-162594302D01*
X71058465Y-162594302D01*
X71021755Y-162525624D01*
X70968395Y-162460605D01*
X70903376Y-162407245D01*
X70829196Y-162367595D01*
X70748707Y-162343178D01*
X70665000Y-162334934D01*
X68965000Y-162334934D01*
X68881293Y-162343178D01*
X68800804Y-162367595D01*
X68726624Y-162407245D01*
X68661605Y-162460605D01*
X68608245Y-162525624D01*
X68568595Y-162599804D01*
X68544178Y-162680293D01*
X68535934Y-162764000D01*
X68535934Y-163407456D01*
X68502926Y-163241513D01*
X68406663Y-163009114D01*
X68266911Y-162799960D01*
X68089040Y-162622089D01*
X67879886Y-162482337D01*
X67647487Y-162386074D01*
X67400774Y-162337000D01*
X67149226Y-162337000D01*
X66902513Y-162386074D01*
X66670114Y-162482337D01*
X66460960Y-162622089D01*
X66283089Y-162799960D01*
X66143337Y-163009114D01*
X66047074Y-163241513D01*
X65998000Y-163488226D01*
X65998000Y-163739774D01*
X66047074Y-163986487D01*
X66143337Y-164218886D01*
X66283089Y-164428040D01*
X66460960Y-164605911D01*
X66670114Y-164745663D01*
X66902513Y-164841926D01*
X67114034Y-164884000D01*
X66902513Y-164926074D01*
X66670114Y-165022337D01*
X66460960Y-165162089D01*
X66283089Y-165339960D01*
X66143337Y-165549114D01*
X66047074Y-165781513D01*
X65998000Y-166028226D01*
X65998000Y-166279774D01*
X66047074Y-166526487D01*
X66143337Y-166758886D01*
X66283089Y-166968040D01*
X66460960Y-167145911D01*
X66670114Y-167285663D01*
X66902513Y-167381926D01*
X67114034Y-167424000D01*
X66902513Y-167466074D01*
X66670114Y-167562337D01*
X66460960Y-167702089D01*
X66283089Y-167879960D01*
X66143337Y-168089114D01*
X66047074Y-168321513D01*
X65998000Y-168568226D01*
X65998000Y-168819774D01*
X66047074Y-169066487D01*
X66143337Y-169298886D01*
X66283089Y-169508040D01*
X66460960Y-169685911D01*
X66670114Y-169825663D01*
X66902513Y-169921926D01*
X67114034Y-169964000D01*
X66902513Y-170006074D01*
X66670114Y-170102337D01*
X66460960Y-170242089D01*
X66283089Y-170419960D01*
X66143337Y-170629114D01*
X66047074Y-170861513D01*
X65998000Y-171108226D01*
X65998000Y-171359774D01*
X66047074Y-171606487D01*
X66061847Y-171642152D01*
X65567038Y-172136961D01*
X65545026Y-172155026D01*
X65497000Y-172213546D01*
X65497000Y-159470413D01*
X73939192Y-159470413D01*
X74034956Y-159734814D01*
X74324571Y-159875704D01*
X74636108Y-159957384D01*
X74957595Y-159976718D01*
X75276675Y-159932961D01*
X75581088Y-159827795D01*
X75755044Y-159734814D01*
X75850808Y-159470413D01*
X80439192Y-159470413D01*
X80534956Y-159734814D01*
X80824571Y-159875704D01*
X81136108Y-159957384D01*
X81457595Y-159976718D01*
X81776675Y-159932961D01*
X82081088Y-159827795D01*
X82255044Y-159734814D01*
X82350808Y-159470413D01*
X84734192Y-159470413D01*
X84829956Y-159734814D01*
X85119571Y-159875704D01*
X85431108Y-159957384D01*
X85752595Y-159976718D01*
X86071675Y-159932961D01*
X86376088Y-159827795D01*
X86550044Y-159734814D01*
X86645808Y-159470413D01*
X91234192Y-159470413D01*
X91329956Y-159734814D01*
X91619571Y-159875704D01*
X91931108Y-159957384D01*
X92252595Y-159976718D01*
X92571675Y-159932961D01*
X92876088Y-159827795D01*
X93050044Y-159734814D01*
X93145808Y-159470413D01*
X95529192Y-159470413D01*
X95624956Y-159734814D01*
X95914571Y-159875704D01*
X96226108Y-159957384D01*
X96547595Y-159976718D01*
X96866675Y-159932961D01*
X97171088Y-159827795D01*
X97345044Y-159734814D01*
X97440808Y-159470413D01*
X102029192Y-159470413D01*
X102124956Y-159734814D01*
X102414571Y-159875704D01*
X102726108Y-159957384D01*
X103047595Y-159976718D01*
X103366675Y-159932961D01*
X103671088Y-159827795D01*
X103845044Y-159734814D01*
X103940808Y-159470413D01*
X106324192Y-159470413D01*
X106419956Y-159734814D01*
X106709571Y-159875704D01*
X107021108Y-159957384D01*
X107342595Y-159976718D01*
X107661675Y-159932961D01*
X107966088Y-159827795D01*
X108140044Y-159734814D01*
X108235808Y-159470413D01*
X112824192Y-159470413D01*
X112919956Y-159734814D01*
X113209571Y-159875704D01*
X113521108Y-159957384D01*
X113842595Y-159976718D01*
X114161675Y-159932961D01*
X114466088Y-159827795D01*
X114640044Y-159734814D01*
X114735808Y-159470413D01*
X117119192Y-159470413D01*
X117214956Y-159734814D01*
X117504571Y-159875704D01*
X117816108Y-159957384D01*
X118137595Y-159976718D01*
X118456675Y-159932961D01*
X118761088Y-159827795D01*
X118935044Y-159734814D01*
X119030808Y-159470413D01*
X123619192Y-159470413D01*
X123714956Y-159734814D01*
X124004571Y-159875704D01*
X124316108Y-159957384D01*
X124637595Y-159976718D01*
X124956675Y-159932961D01*
X125261088Y-159827795D01*
X125435044Y-159734814D01*
X125530808Y-159470413D01*
X124575000Y-158514605D01*
X123619192Y-159470413D01*
X119030808Y-159470413D01*
X118075000Y-158514605D01*
X117119192Y-159470413D01*
X114735808Y-159470413D01*
X113780000Y-158514605D01*
X112824192Y-159470413D01*
X108235808Y-159470413D01*
X107280000Y-158514605D01*
X106324192Y-159470413D01*
X103940808Y-159470413D01*
X102985000Y-158514605D01*
X102029192Y-159470413D01*
X97440808Y-159470413D01*
X96485000Y-158514605D01*
X95529192Y-159470413D01*
X93145808Y-159470413D01*
X92190000Y-158514605D01*
X91234192Y-159470413D01*
X86645808Y-159470413D01*
X85690000Y-158514605D01*
X84734192Y-159470413D01*
X82350808Y-159470413D01*
X81395000Y-158514605D01*
X80439192Y-159470413D01*
X75850808Y-159470413D01*
X74895000Y-158514605D01*
X73939192Y-159470413D01*
X65497000Y-159470413D01*
X65497000Y-158397595D01*
X73253282Y-158397595D01*
X73297039Y-158716675D01*
X73402205Y-159021088D01*
X73495186Y-159195044D01*
X73759587Y-159290808D01*
X74715395Y-158335000D01*
X75074605Y-158335000D01*
X76030413Y-159290808D01*
X76294814Y-159195044D01*
X76435704Y-158905429D01*
X76517384Y-158593892D01*
X76529189Y-158397595D01*
X79753282Y-158397595D01*
X79797039Y-158716675D01*
X79902205Y-159021088D01*
X79995186Y-159195044D01*
X80259587Y-159290808D01*
X81215395Y-158335000D01*
X81574605Y-158335000D01*
X82530413Y-159290808D01*
X82794814Y-159195044D01*
X82935704Y-158905429D01*
X83017384Y-158593892D01*
X83029189Y-158397595D01*
X84048282Y-158397595D01*
X84092039Y-158716675D01*
X84197205Y-159021088D01*
X84290186Y-159195044D01*
X84554587Y-159290808D01*
X85510395Y-158335000D01*
X85869605Y-158335000D01*
X86825413Y-159290808D01*
X87089814Y-159195044D01*
X87230704Y-158905429D01*
X87312384Y-158593892D01*
X87324189Y-158397595D01*
X90548282Y-158397595D01*
X90592039Y-158716675D01*
X90697205Y-159021088D01*
X90790186Y-159195044D01*
X91054587Y-159290808D01*
X92010395Y-158335000D01*
X92369605Y-158335000D01*
X93325413Y-159290808D01*
X93589814Y-159195044D01*
X93730704Y-158905429D01*
X93812384Y-158593892D01*
X93824189Y-158397595D01*
X94843282Y-158397595D01*
X94887039Y-158716675D01*
X94992205Y-159021088D01*
X95085186Y-159195044D01*
X95349587Y-159290808D01*
X96305395Y-158335000D01*
X96664605Y-158335000D01*
X97620413Y-159290808D01*
X97884814Y-159195044D01*
X98025704Y-158905429D01*
X98107384Y-158593892D01*
X98119189Y-158397595D01*
X101343282Y-158397595D01*
X101387039Y-158716675D01*
X101492205Y-159021088D01*
X101585186Y-159195044D01*
X101849587Y-159290808D01*
X102805395Y-158335000D01*
X103164605Y-158335000D01*
X104120413Y-159290808D01*
X104384814Y-159195044D01*
X104525704Y-158905429D01*
X104607384Y-158593892D01*
X104619189Y-158397595D01*
X105638282Y-158397595D01*
X105682039Y-158716675D01*
X105787205Y-159021088D01*
X105880186Y-159195044D01*
X106144587Y-159290808D01*
X107100395Y-158335000D01*
X107459605Y-158335000D01*
X108415413Y-159290808D01*
X108679814Y-159195044D01*
X108820704Y-158905429D01*
X108902384Y-158593892D01*
X108914189Y-158397595D01*
X112138282Y-158397595D01*
X112182039Y-158716675D01*
X112287205Y-159021088D01*
X112380186Y-159195044D01*
X112644587Y-159290808D01*
X113600395Y-158335000D01*
X113959605Y-158335000D01*
X114915413Y-159290808D01*
X115179814Y-159195044D01*
X115320704Y-158905429D01*
X115402384Y-158593892D01*
X115414189Y-158397595D01*
X116433282Y-158397595D01*
X116477039Y-158716675D01*
X116582205Y-159021088D01*
X116675186Y-159195044D01*
X116939587Y-159290808D01*
X117895395Y-158335000D01*
X118254605Y-158335000D01*
X119210413Y-159290808D01*
X119474814Y-159195044D01*
X119615704Y-158905429D01*
X119697384Y-158593892D01*
X119709189Y-158397595D01*
X122933282Y-158397595D01*
X122977039Y-158716675D01*
X123082205Y-159021088D01*
X123175186Y-159195044D01*
X123439587Y-159290808D01*
X124395395Y-158335000D01*
X124754605Y-158335000D01*
X125710413Y-159290808D01*
X125974814Y-159195044D01*
X126115704Y-158905429D01*
X126197384Y-158593892D01*
X126216718Y-158272405D01*
X126172961Y-157953325D01*
X126067795Y-157648912D01*
X125974814Y-157474956D01*
X125710413Y-157379192D01*
X124754605Y-158335000D01*
X124395395Y-158335000D01*
X123439587Y-157379192D01*
X123175186Y-157474956D01*
X123034296Y-157764571D01*
X122952616Y-158076108D01*
X122933282Y-158397595D01*
X119709189Y-158397595D01*
X119716718Y-158272405D01*
X119672961Y-157953325D01*
X119567795Y-157648912D01*
X119474814Y-157474956D01*
X119210413Y-157379192D01*
X118254605Y-158335000D01*
X117895395Y-158335000D01*
X116939587Y-157379192D01*
X116675186Y-157474956D01*
X116534296Y-157764571D01*
X116452616Y-158076108D01*
X116433282Y-158397595D01*
X115414189Y-158397595D01*
X115421718Y-158272405D01*
X115377961Y-157953325D01*
X115272795Y-157648912D01*
X115179814Y-157474956D01*
X114915413Y-157379192D01*
X113959605Y-158335000D01*
X113600395Y-158335000D01*
X112644587Y-157379192D01*
X112380186Y-157474956D01*
X112239296Y-157764571D01*
X112157616Y-158076108D01*
X112138282Y-158397595D01*
X108914189Y-158397595D01*
X108921718Y-158272405D01*
X108877961Y-157953325D01*
X108772795Y-157648912D01*
X108679814Y-157474956D01*
X108415413Y-157379192D01*
X107459605Y-158335000D01*
X107100395Y-158335000D01*
X106144587Y-157379192D01*
X105880186Y-157474956D01*
X105739296Y-157764571D01*
X105657616Y-158076108D01*
X105638282Y-158397595D01*
X104619189Y-158397595D01*
X104626718Y-158272405D01*
X104582961Y-157953325D01*
X104477795Y-157648912D01*
X104384814Y-157474956D01*
X104120413Y-157379192D01*
X103164605Y-158335000D01*
X102805395Y-158335000D01*
X101849587Y-157379192D01*
X101585186Y-157474956D01*
X101444296Y-157764571D01*
X101362616Y-158076108D01*
X101343282Y-158397595D01*
X98119189Y-158397595D01*
X98126718Y-158272405D01*
X98082961Y-157953325D01*
X97977795Y-157648912D01*
X97884814Y-157474956D01*
X97620413Y-157379192D01*
X96664605Y-158335000D01*
X96305395Y-158335000D01*
X95349587Y-157379192D01*
X95085186Y-157474956D01*
X94944296Y-157764571D01*
X94862616Y-158076108D01*
X94843282Y-158397595D01*
X93824189Y-158397595D01*
X93831718Y-158272405D01*
X93787961Y-157953325D01*
X93682795Y-157648912D01*
X93589814Y-157474956D01*
X93325413Y-157379192D01*
X92369605Y-158335000D01*
X92010395Y-158335000D01*
X91054587Y-157379192D01*
X90790186Y-157474956D01*
X90649296Y-157764571D01*
X90567616Y-158076108D01*
X90548282Y-158397595D01*
X87324189Y-158397595D01*
X87331718Y-158272405D01*
X87287961Y-157953325D01*
X87182795Y-157648912D01*
X87089814Y-157474956D01*
X86825413Y-157379192D01*
X85869605Y-158335000D01*
X85510395Y-158335000D01*
X84554587Y-157379192D01*
X84290186Y-157474956D01*
X84149296Y-157764571D01*
X84067616Y-158076108D01*
X84048282Y-158397595D01*
X83029189Y-158397595D01*
X83036718Y-158272405D01*
X82992961Y-157953325D01*
X82887795Y-157648912D01*
X82794814Y-157474956D01*
X82530413Y-157379192D01*
X81574605Y-158335000D01*
X81215395Y-158335000D01*
X80259587Y-157379192D01*
X79995186Y-157474956D01*
X79854296Y-157764571D01*
X79772616Y-158076108D01*
X79753282Y-158397595D01*
X76529189Y-158397595D01*
X76536718Y-158272405D01*
X76492961Y-157953325D01*
X76387795Y-157648912D01*
X76294814Y-157474956D01*
X76030413Y-157379192D01*
X75074605Y-158335000D01*
X74715395Y-158335000D01*
X73759587Y-157379192D01*
X73495186Y-157474956D01*
X73354296Y-157764571D01*
X73272616Y-158076108D01*
X73253282Y-158397595D01*
X65497000Y-158397595D01*
X65497000Y-157199587D01*
X73939192Y-157199587D01*
X74895000Y-158155395D01*
X75850808Y-157199587D01*
X80439192Y-157199587D01*
X81395000Y-158155395D01*
X82350808Y-157199587D01*
X84734192Y-157199587D01*
X85690000Y-158155395D01*
X86645808Y-157199587D01*
X91234192Y-157199587D01*
X92190000Y-158155395D01*
X93145808Y-157199587D01*
X95529192Y-157199587D01*
X96485000Y-158155395D01*
X97440808Y-157199587D01*
X102029192Y-157199587D01*
X102985000Y-158155395D01*
X103940808Y-157199587D01*
X106324192Y-157199587D01*
X107280000Y-158155395D01*
X108235808Y-157199587D01*
X112824192Y-157199587D01*
X113780000Y-158155395D01*
X114735808Y-157199587D01*
X117119192Y-157199587D01*
X118075000Y-158155395D01*
X119030808Y-157199587D01*
X123619192Y-157199587D01*
X124575000Y-158155395D01*
X125530808Y-157199587D01*
X125435044Y-156935186D01*
X125145429Y-156794296D01*
X124833892Y-156712616D01*
X124512405Y-156693282D01*
X124193325Y-156737039D01*
X123888912Y-156842205D01*
X123714956Y-156935186D01*
X123619192Y-157199587D01*
X119030808Y-157199587D01*
X118935044Y-156935186D01*
X118645429Y-156794296D01*
X118333892Y-156712616D01*
X118012405Y-156693282D01*
X117693325Y-156737039D01*
X117388912Y-156842205D01*
X117214956Y-156935186D01*
X117119192Y-157199587D01*
X114735808Y-157199587D01*
X114640044Y-156935186D01*
X114350429Y-156794296D01*
X114038892Y-156712616D01*
X113717405Y-156693282D01*
X113398325Y-156737039D01*
X113093912Y-156842205D01*
X112919956Y-156935186D01*
X112824192Y-157199587D01*
X108235808Y-157199587D01*
X108140044Y-156935186D01*
X107850429Y-156794296D01*
X107538892Y-156712616D01*
X107217405Y-156693282D01*
X106898325Y-156737039D01*
X106593912Y-156842205D01*
X106419956Y-156935186D01*
X106324192Y-157199587D01*
X103940808Y-157199587D01*
X103845044Y-156935186D01*
X103555429Y-156794296D01*
X103243892Y-156712616D01*
X102922405Y-156693282D01*
X102603325Y-156737039D01*
X102298912Y-156842205D01*
X102124956Y-156935186D01*
X102029192Y-157199587D01*
X97440808Y-157199587D01*
X97345044Y-156935186D01*
X97055429Y-156794296D01*
X96743892Y-156712616D01*
X96422405Y-156693282D01*
X96103325Y-156737039D01*
X95798912Y-156842205D01*
X95624956Y-156935186D01*
X95529192Y-157199587D01*
X93145808Y-157199587D01*
X93050044Y-156935186D01*
X92760429Y-156794296D01*
X92448892Y-156712616D01*
X92127405Y-156693282D01*
X91808325Y-156737039D01*
X91503912Y-156842205D01*
X91329956Y-156935186D01*
X91234192Y-157199587D01*
X86645808Y-157199587D01*
X86550044Y-156935186D01*
X86260429Y-156794296D01*
X85948892Y-156712616D01*
X85627405Y-156693282D01*
X85308325Y-156737039D01*
X85003912Y-156842205D01*
X84829956Y-156935186D01*
X84734192Y-157199587D01*
X82350808Y-157199587D01*
X82255044Y-156935186D01*
X81965429Y-156794296D01*
X81653892Y-156712616D01*
X81332405Y-156693282D01*
X81013325Y-156737039D01*
X80708912Y-156842205D01*
X80534956Y-156935186D01*
X80439192Y-157199587D01*
X75850808Y-157199587D01*
X75755044Y-156935186D01*
X75465429Y-156794296D01*
X75153892Y-156712616D01*
X74832405Y-156693282D01*
X74513325Y-156737039D01*
X74208912Y-156842205D01*
X74034956Y-156935186D01*
X73939192Y-157199587D01*
X65497000Y-157199587D01*
X65497000Y-153694453D01*
X73468000Y-153694453D01*
X73468000Y-153975547D01*
X73522838Y-154251241D01*
X73630409Y-154510938D01*
X73786576Y-154744660D01*
X73985340Y-154943424D01*
X74219062Y-155099591D01*
X74478759Y-155207162D01*
X74754453Y-155262000D01*
X75035547Y-155262000D01*
X75311241Y-155207162D01*
X75570938Y-155099591D01*
X75804660Y-154943424D01*
X76003424Y-154744660D01*
X76159591Y-154510938D01*
X76267162Y-154251241D01*
X76322000Y-153975547D01*
X76322000Y-153694453D01*
X79968000Y-153694453D01*
X79968000Y-153975547D01*
X80022838Y-154251241D01*
X80130409Y-154510938D01*
X80286576Y-154744660D01*
X80485340Y-154943424D01*
X80719062Y-155099591D01*
X80978759Y-155207162D01*
X81254453Y-155262000D01*
X81535547Y-155262000D01*
X81811241Y-155207162D01*
X82070938Y-155099591D01*
X82304660Y-154943424D01*
X82503424Y-154744660D01*
X82659591Y-154510938D01*
X82767162Y-154251241D01*
X82822000Y-153975547D01*
X82822000Y-153694453D01*
X84263000Y-153694453D01*
X84263000Y-153975547D01*
X84317838Y-154251241D01*
X84425409Y-154510938D01*
X84581576Y-154744660D01*
X84780340Y-154943424D01*
X85014062Y-155099591D01*
X85273759Y-155207162D01*
X85549453Y-155262000D01*
X85830547Y-155262000D01*
X86106241Y-155207162D01*
X86365938Y-155099591D01*
X86599660Y-154943424D01*
X86798424Y-154744660D01*
X86954591Y-154510938D01*
X87062162Y-154251241D01*
X87117000Y-153975547D01*
X87117000Y-153694453D01*
X90763000Y-153694453D01*
X90763000Y-153975547D01*
X90817838Y-154251241D01*
X90925409Y-154510938D01*
X91081576Y-154744660D01*
X91280340Y-154943424D01*
X91514062Y-155099591D01*
X91773759Y-155207162D01*
X92049453Y-155262000D01*
X92330547Y-155262000D01*
X92606241Y-155207162D01*
X92865938Y-155099591D01*
X93099660Y-154943424D01*
X93298424Y-154744660D01*
X93454591Y-154510938D01*
X93562162Y-154251241D01*
X93617000Y-153975547D01*
X93617000Y-153694453D01*
X95058000Y-153694453D01*
X95058000Y-153975547D01*
X95112838Y-154251241D01*
X95220409Y-154510938D01*
X95376576Y-154744660D01*
X95575340Y-154943424D01*
X95809062Y-155099591D01*
X96068759Y-155207162D01*
X96344453Y-155262000D01*
X96625547Y-155262000D01*
X96901241Y-155207162D01*
X97160938Y-155099591D01*
X97394660Y-154943424D01*
X97593424Y-154744660D01*
X97749591Y-154510938D01*
X97857162Y-154251241D01*
X97912000Y-153975547D01*
X97912000Y-153694453D01*
X101558000Y-153694453D01*
X101558000Y-153975547D01*
X101612838Y-154251241D01*
X101720409Y-154510938D01*
X101876576Y-154744660D01*
X102075340Y-154943424D01*
X102309062Y-155099591D01*
X102568759Y-155207162D01*
X102844453Y-155262000D01*
X103125547Y-155262000D01*
X103401241Y-155207162D01*
X103660938Y-155099591D01*
X103894660Y-154943424D01*
X104093424Y-154744660D01*
X104249591Y-154510938D01*
X104357162Y-154251241D01*
X104412000Y-153975547D01*
X104412000Y-153694453D01*
X105853000Y-153694453D01*
X105853000Y-153975547D01*
X105907838Y-154251241D01*
X106015409Y-154510938D01*
X106171576Y-154744660D01*
X106370340Y-154943424D01*
X106604062Y-155099591D01*
X106863759Y-155207162D01*
X107139453Y-155262000D01*
X107420547Y-155262000D01*
X107696241Y-155207162D01*
X107955938Y-155099591D01*
X108189660Y-154943424D01*
X108388424Y-154744660D01*
X108544591Y-154510938D01*
X108652162Y-154251241D01*
X108707000Y-153975547D01*
X108707000Y-153694453D01*
X112353000Y-153694453D01*
X112353000Y-153975547D01*
X112407838Y-154251241D01*
X112515409Y-154510938D01*
X112671576Y-154744660D01*
X112870340Y-154943424D01*
X113104062Y-155099591D01*
X113363759Y-155207162D01*
X113639453Y-155262000D01*
X113920547Y-155262000D01*
X114196241Y-155207162D01*
X114455938Y-155099591D01*
X114689660Y-154943424D01*
X114888424Y-154744660D01*
X115044591Y-154510938D01*
X115152162Y-154251241D01*
X115207000Y-153975547D01*
X115207000Y-153694453D01*
X116648000Y-153694453D01*
X116648000Y-153975547D01*
X116702838Y-154251241D01*
X116810409Y-154510938D01*
X116966576Y-154744660D01*
X117165340Y-154943424D01*
X117399062Y-155099591D01*
X117658759Y-155207162D01*
X117934453Y-155262000D01*
X118215547Y-155262000D01*
X118491241Y-155207162D01*
X118750938Y-155099591D01*
X118984660Y-154943424D01*
X119183424Y-154744660D01*
X119339591Y-154510938D01*
X119447162Y-154251241D01*
X119502000Y-153975547D01*
X119502000Y-153694453D01*
X123148000Y-153694453D01*
X123148000Y-153975547D01*
X123202838Y-154251241D01*
X123310409Y-154510938D01*
X123466576Y-154744660D01*
X123665340Y-154943424D01*
X123899062Y-155099591D01*
X124158759Y-155207162D01*
X124434453Y-155262000D01*
X124715547Y-155262000D01*
X124991241Y-155207162D01*
X125250938Y-155099591D01*
X125484660Y-154943424D01*
X125683424Y-154744660D01*
X125839591Y-154510938D01*
X125947162Y-154251241D01*
X126002000Y-153975547D01*
X126002000Y-153694453D01*
X125947162Y-153418759D01*
X125839591Y-153159062D01*
X125683424Y-152925340D01*
X125484660Y-152726576D01*
X125250938Y-152570409D01*
X124991241Y-152462838D01*
X124715547Y-152408000D01*
X124434453Y-152408000D01*
X124158759Y-152462838D01*
X123899062Y-152570409D01*
X123665340Y-152726576D01*
X123466576Y-152925340D01*
X123310409Y-153159062D01*
X123202838Y-153418759D01*
X123148000Y-153694453D01*
X119502000Y-153694453D01*
X119447162Y-153418759D01*
X119339591Y-153159062D01*
X119183424Y-152925340D01*
X118984660Y-152726576D01*
X118750938Y-152570409D01*
X118491241Y-152462838D01*
X118215547Y-152408000D01*
X117934453Y-152408000D01*
X117658759Y-152462838D01*
X117399062Y-152570409D01*
X117165340Y-152726576D01*
X116966576Y-152925340D01*
X116810409Y-153159062D01*
X116702838Y-153418759D01*
X116648000Y-153694453D01*
X115207000Y-153694453D01*
X115152162Y-153418759D01*
X115044591Y-153159062D01*
X114888424Y-152925340D01*
X114689660Y-152726576D01*
X114455938Y-152570409D01*
X114196241Y-152462838D01*
X113920547Y-152408000D01*
X113639453Y-152408000D01*
X113363759Y-152462838D01*
X113104062Y-152570409D01*
X112870340Y-152726576D01*
X112671576Y-152925340D01*
X112515409Y-153159062D01*
X112407838Y-153418759D01*
X112353000Y-153694453D01*
X108707000Y-153694453D01*
X108652162Y-153418759D01*
X108544591Y-153159062D01*
X108388424Y-152925340D01*
X108189660Y-152726576D01*
X107955938Y-152570409D01*
X107696241Y-152462838D01*
X107420547Y-152408000D01*
X107139453Y-152408000D01*
X106863759Y-152462838D01*
X106604062Y-152570409D01*
X106370340Y-152726576D01*
X106171576Y-152925340D01*
X106015409Y-153159062D01*
X105907838Y-153418759D01*
X105853000Y-153694453D01*
X104412000Y-153694453D01*
X104357162Y-153418759D01*
X104249591Y-153159062D01*
X104093424Y-152925340D01*
X103894660Y-152726576D01*
X103660938Y-152570409D01*
X103401241Y-152462838D01*
X103125547Y-152408000D01*
X102844453Y-152408000D01*
X102568759Y-152462838D01*
X102309062Y-152570409D01*
X102075340Y-152726576D01*
X101876576Y-152925340D01*
X101720409Y-153159062D01*
X101612838Y-153418759D01*
X101558000Y-153694453D01*
X97912000Y-153694453D01*
X97857162Y-153418759D01*
X97749591Y-153159062D01*
X97593424Y-152925340D01*
X97394660Y-152726576D01*
X97160938Y-152570409D01*
X96901241Y-152462838D01*
X96625547Y-152408000D01*
X96344453Y-152408000D01*
X96068759Y-152462838D01*
X95809062Y-152570409D01*
X95575340Y-152726576D01*
X95376576Y-152925340D01*
X95220409Y-153159062D01*
X95112838Y-153418759D01*
X95058000Y-153694453D01*
X93617000Y-153694453D01*
X93562162Y-153418759D01*
X93454591Y-153159062D01*
X93298424Y-152925340D01*
X93099660Y-152726576D01*
X92865938Y-152570409D01*
X92606241Y-152462838D01*
X92330547Y-152408000D01*
X92049453Y-152408000D01*
X91773759Y-152462838D01*
X91514062Y-152570409D01*
X91280340Y-152726576D01*
X91081576Y-152925340D01*
X90925409Y-153159062D01*
X90817838Y-153418759D01*
X90763000Y-153694453D01*
X87117000Y-153694453D01*
X87062162Y-153418759D01*
X86954591Y-153159062D01*
X86798424Y-152925340D01*
X86599660Y-152726576D01*
X86365938Y-152570409D01*
X86106241Y-152462838D01*
X85830547Y-152408000D01*
X85549453Y-152408000D01*
X85273759Y-152462838D01*
X85014062Y-152570409D01*
X84780340Y-152726576D01*
X84581576Y-152925340D01*
X84425409Y-153159062D01*
X84317838Y-153418759D01*
X84263000Y-153694453D01*
X82822000Y-153694453D01*
X82767162Y-153418759D01*
X82659591Y-153159062D01*
X82503424Y-152925340D01*
X82304660Y-152726576D01*
X82070938Y-152570409D01*
X81811241Y-152462838D01*
X81535547Y-152408000D01*
X81254453Y-152408000D01*
X80978759Y-152462838D01*
X80719062Y-152570409D01*
X80485340Y-152726576D01*
X80286576Y-152925340D01*
X80130409Y-153159062D01*
X80022838Y-153418759D01*
X79968000Y-153694453D01*
X76322000Y-153694453D01*
X76267162Y-153418759D01*
X76159591Y-153159062D01*
X76003424Y-152925340D01*
X75804660Y-152726576D01*
X75570938Y-152570409D01*
X75311241Y-152462838D01*
X75035547Y-152408000D01*
X74754453Y-152408000D01*
X74478759Y-152462838D01*
X74219062Y-152570409D01*
X73985340Y-152726576D01*
X73786576Y-152925340D01*
X73630409Y-153159062D01*
X73522838Y-153418759D01*
X73468000Y-153694453D01*
X65497000Y-153694453D01*
X65497000Y-148818418D01*
X163033000Y-148755083D01*
X163033000Y-188632917D01*
M02*
