M48
; DRILL file {KiCad (5.1.5)-3} date 08.07.2020 10:13:00
; FORMAT={-:-/ absolute / inch / decimal}
; #@! TF.CreationDate,2020-07-08T10:13:00+02:00
; #@! TF.GenerationSoftware,Kicad,Pcbnew,(5.1.5)-3
; #@! TF.FileFunction,Plated,1,2,PTH
FMAT,2
INCH
T1C0.0118
T2C0.0354
T3C0.0394
T4C0.0433
%
G90
G05
T1
X2.6199Y-7.2569
X2.7186Y-7.1565
X2.8454Y-6.8415
X2.9498Y-6.9423
X2.9886Y-6.9065
X3.0636Y-6.9065
X3.0636Y-7.1565
X3.0742Y-7.3982
X3.2258Y-7.0565
X3.2258Y-7.1065
X4.0156Y-6.7467
X4.053Y-6.7856
X4.3486Y-6.9315
X4.5254Y-6.5321
X4.7786Y-5.9315
X5.1686Y-6.109
X5.7663Y-6.4128
X5.7686Y-6.1765
X6.0486Y-7.1715
X6.0686Y-6.769
T2
X3.5986Y-7.3315
X3.6986Y-7.3315
X5.1236Y-6.9815
X5.2236Y-6.9815
X5.4486Y-7.2065
X5.5486Y-7.2065
X5.4486Y-6.7565
X5.5486Y-6.7565
X5.1236Y-6.5315
X5.2236Y-6.5315
X3.0736Y-6.4065
X3.1736Y-6.4065
X3.5986Y-7.1065
X3.6986Y-7.1065
X3.5986Y-6.8815
X3.6986Y-6.8815
X5.4486Y-6.9815
X5.5486Y-6.9815
X5.1236Y-6.7565
X5.2236Y-6.7565
X5.1236Y-7.2065
X5.2236Y-7.2065
X3.0736Y-6.6565
X3.1736Y-6.6565
X5.4486Y-6.5315
X5.5486Y-6.5315
X3.5986Y-6.4315
X3.6986Y-6.4315
X3.5986Y-6.6565
X3.6986Y-6.6565
T3
X2.6486Y-6.4415
X2.6486Y-6.5415
X2.6486Y-6.6415
X2.6486Y-6.7415
X2.6486Y-6.8415
X2.7486Y-6.4415
X2.7486Y-6.5415
X2.7486Y-6.6415
X2.7486Y-6.7415
X2.7486Y-6.8415
X6.2961Y-6.489
X6.2961Y-6.589
X6.2961Y-6.689
X6.2961Y-6.789
T4
X4.6486Y-6.0565
X4.6486Y-6.2337
X4.9045Y-6.0565
X4.9045Y-6.2337
X3.3736Y-6.0565
X3.3736Y-6.2337
X3.6295Y-6.0565
X3.6295Y-6.2337
X2.9486Y-6.0565
X2.9486Y-6.2337
X3.2045Y-6.0565
X3.2045Y-6.2337
X3.7986Y-6.0565
X3.7986Y-6.2337
X4.0545Y-6.0565
X4.0545Y-6.2337
X4.2236Y-6.0565
X4.2236Y-6.2337
X4.4795Y-6.0565
X4.4795Y-6.2337
T0
M30
