M48
; DRILL file {KiCad (5.1.4)-1} date 12.09.2020 21:15:07
; FORMAT={-:-/ absolute / inch / decimal}
; #@! TF.CreationDate,2020-09-12T21:15:07+02:00
; #@! TF.GenerationSoftware,Kicad,Pcbnew,(5.1.4)-1
; #@! TF.FileFunction,Plated,1,2,PTH
FMAT,2
INCH
T1C0.0118
T2C0.0157
T3C0.0236
T4C0.0315
T5C0.0354
T6C0.0394
T7C0.0551
T8C0.0787
%
G90
G05
T1
X3.024Y-2.1579
X3.024Y-2.3299
X3.1589Y-2.425
X3.1589Y-2.4994
X3.1736Y-2.6
X3.1736Y-2.9276
X3.4106Y-2.3055
X3.4711Y-2.4624
X3.5Y-2.7
X3.9Y-2.6161
X4.0Y-2.575
X4.1134Y-2.85
X4.1362Y-3.2004
X4.137Y-2.9661
X4.1374Y-3.1622
X4.1382Y-3.0067
X4.1382Y-3.0445
X4.1382Y-3.1248
X4.2173Y-2.9661
X4.2173Y-3.0067
X4.2173Y-3.0445
X4.2193Y-3.1248
X4.2925Y-2.5669
X4.3228Y-2.85
X4.4492Y-2.5657
X4.4508Y-3.4138
X4.4512Y-3.3803
X4.4516Y-3.3441
X4.452Y-3.3087
X4.4524Y-3.2319
X4.4524Y-3.2705
X4.7535Y-2.8138
X4.8Y-2.7362
X4.848Y-2.9051
X4.85Y-2.1
X4.926Y-2.4539
X4.926Y-2.4945
X4.926Y-2.5327
X4.9264Y-2.3756
X4.9264Y-2.4146
X4.9268Y-2.611
X4.9272Y-2.5728
X4.9272Y-2.6512
X5.25Y-4.0
X5.3098Y-2.3594
X5.35Y-4.0
X5.3823Y-3.1118
X5.4157Y-2.3594
X5.4906Y-3.474
X5.5504Y-2.6451
X5.5591Y-3.4185
X5.5957Y-2.9677
X5.6185Y-3.1886
X5.6185Y-3.3181
X5.6272Y-2.8528
X5.6276Y-2.8992
X5.6354Y-2.9992
X5.6369Y-3.63
X5.6594Y-3.161
X5.6744Y-3.2201
X5.6744Y-3.3594
X5.711Y-3.7535
X5.725Y-2.6
X5.7547Y-3.7528
X5.7917Y-3.163
X5.7925Y-3.0311
X5.7925Y-3.0839
X5.7925Y-3.1228
X5.7925Y-3.2516
X5.7925Y-3.3594
X5.8Y-3.785
X5.82Y-3.63
X5.85Y-3.425
X5.9488Y-2.972
X6.05Y-2.9055
X6.08Y-3.535
X6.0803Y-3.9144
X6.1902Y-3.2376
X6.235Y-2.3
X6.3394Y-3.2274
X6.465Y-1.985
X6.475Y-2.965
X6.565Y-2.195
X6.6689Y-2.2317
X6.7677Y-3.3344
T2
X3.2Y-3.95
X3.2Y-4.075
X3.2173Y-2.1797
X3.3Y-3.95
X3.3Y-4.075
X3.425Y-3.95
X3.425Y-4.075
X3.525Y-3.95
X3.525Y-4.075
X3.675Y-3.95
X3.675Y-4.075
X3.775Y-3.95
X3.775Y-4.075
X3.9Y-3.95
X3.9Y-4.075
X4.0Y-3.95
X4.0Y-4.075
X4.375Y-3.95
X4.375Y-4.075
X4.475Y-3.95
X4.475Y-4.075
X4.675Y-3.95
X4.675Y-4.075
X4.7Y-2.075
X4.775Y-3.95
X4.775Y-4.075
X4.975Y-3.95
X4.975Y-4.075
X5.075Y-3.95
X5.075Y-4.075
X5.525Y-3.95
X5.525Y-4.075
X5.625Y-3.95
X5.625Y-4.075
X6.1791Y-2.3451
X6.1819Y-2.0274
X6.3409Y-2.027
X6.7625Y-2.38
T3
X6.2Y-2.18
X6.2Y-2.23
X6.25Y-2.18
X6.25Y-2.23
X6.3Y-2.18
X6.3Y-2.23
X6.35Y-2.18
X6.35Y-2.23
X6.4Y-2.18
X6.4Y-2.23
T4
X3.125Y-4.9
T5
X5.625Y-2.3
X5.625Y-2.4
X5.725Y-2.3
X5.725Y-2.4
X5.825Y-2.3
X5.825Y-2.4
X3.465Y-4.66
X3.465Y-4.76
X3.565Y-4.66
X3.565Y-4.76
X3.665Y-4.66
X3.665Y-4.76
X3.765Y-4.66
X3.765Y-4.76
X3.865Y-4.66
X3.865Y-4.76
X4.5Y-2.3
X4.5Y-2.4
X4.6Y-2.3
X4.6Y-2.4
X4.7Y-2.3
X4.7Y-2.4
X3.775Y-2.3
X3.775Y-2.4
X3.875Y-2.3
X3.875Y-2.4
X3.975Y-2.3
X3.975Y-2.4
X4.61Y-4.655
X4.61Y-4.755
X4.71Y-4.655
X4.71Y-4.755
X4.81Y-4.655
X4.81Y-4.755
X4.91Y-4.655
X4.91Y-4.755
X5.01Y-4.655
X5.01Y-4.755
X5.5Y-4.65
X5.5Y-4.75
X5.6Y-4.65
X5.6Y-4.75
X5.7Y-4.65
X5.7Y-4.75
X5.8Y-4.65
X5.8Y-4.75
X5.9Y-4.65
X5.9Y-4.75
T6
X3.075Y-3.325
X3.075Y-3.425
X3.075Y-3.525
X3.075Y-3.625
X3.075Y-3.725
X3.175Y-3.325
X3.175Y-3.425
X3.175Y-3.525
X3.175Y-3.625
X3.175Y-3.725
X6.625Y-3.375
X6.625Y-3.475
X6.625Y-3.575
X6.625Y-3.675
X4.25Y-4.85
X4.25Y-4.95
X4.25Y-5.05
X6.4496Y-4.45
X6.45Y-4.25
T7
X6.3531Y-4.75
X6.55Y-4.75
T8
X2.975Y-3.125
X2.975Y-3.925
X6.725Y-3.125
X6.725Y-3.925
T0
M30
