G04 #@! TF.GenerationSoftware,KiCad,Pcbnew,(5.1.5)-3*
G04 #@! TF.CreationDate,2020-07-08T15:45:16+02:00*
G04 #@! TF.ProjectId,SBIO3,5342494f-332e-46b6-9963-61645f706362,rev?*
G04 #@! TF.SameCoordinates,Original*
G04 #@! TF.FileFunction,Legend,Top*
G04 #@! TF.FilePolarity,Positive*
%FSLAX46Y46*%
G04 Gerber Fmt 4.6, Leading zero omitted, Abs format (unit mm)*
G04 Created by KiCad (PCBNEW (5.1.5)-3) date 2020-07-08 15:45:16*
%MOMM*%
%LPD*%
G04 APERTURE LIST*
%ADD10C,0.120000*%
%ADD11C,0.150000*%
G04 APERTURE END LIST*
D10*
X79340000Y-151489000D02*
X80670000Y-151489000D01*
X80670000Y-151489000D02*
X80670000Y-152819000D01*
X78070000Y-151489000D02*
X78070000Y-154089000D01*
X78070000Y-154089000D02*
X80670000Y-154089000D01*
X80670000Y-154089000D02*
X80670000Y-164309000D01*
X75470000Y-164309000D02*
X80670000Y-164309000D01*
X75470000Y-151489000D02*
X75470000Y-164309000D01*
X75470000Y-151489000D02*
X78070000Y-151489000D01*
X169446500Y-152695500D02*
X170776500Y-152695500D01*
X170776500Y-152695500D02*
X170776500Y-154025500D01*
X170776500Y-155295500D02*
X170776500Y-162975500D01*
X168116500Y-162975500D02*
X170776500Y-162975500D01*
X168116500Y-155295500D02*
X168116500Y-162975500D01*
X168116500Y-155295500D02*
X170776500Y-155295500D01*
X87823870Y-157200163D02*
G75*
G02X89905961Y-157200000I1041130J-1079837D01*
G01*
X87823870Y-159359837D02*
G75*
G03X89905961Y-159360000I1041130J1079837D01*
G01*
X87192665Y-157201392D02*
G75*
G02X90425000Y-157044484I1672335J-1078608D01*
G01*
X87192665Y-159358608D02*
G75*
G03X90425000Y-159515516I1672335J1078608D01*
G01*
X90425000Y-157200000D02*
X90425000Y-157044000D01*
X90425000Y-159516000D02*
X90425000Y-159360000D01*
X87823870Y-150850163D02*
G75*
G02X89905961Y-150850000I1041130J-1079837D01*
G01*
X87823870Y-153009837D02*
G75*
G03X89905961Y-153010000I1041130J1079837D01*
G01*
X87192665Y-150851392D02*
G75*
G02X90425000Y-150694484I1672335J-1078608D01*
G01*
X87192665Y-153008608D02*
G75*
G03X90425000Y-153165516I1672335J1078608D01*
G01*
X90425000Y-150850000D02*
X90425000Y-150694000D01*
X90425000Y-153166000D02*
X90425000Y-153010000D01*
D11*
X88560000Y-176690000D02*
X88560000Y-176665000D01*
X84410000Y-176690000D02*
X84410000Y-176585000D01*
X84410000Y-166540000D02*
X84410000Y-166645000D01*
X88560000Y-166540000D02*
X88560000Y-166645000D01*
X88560000Y-176690000D02*
X84410000Y-176690000D01*
X88560000Y-166540000D02*
X84410000Y-166540000D01*
X88560000Y-176665000D02*
X89935000Y-176665000D01*
D10*
X123555000Y-146040000D02*
X123555000Y-144540000D01*
X122305000Y-142040000D02*
X117805000Y-142040000D01*
X116555000Y-144540000D02*
X116555000Y-146040000D01*
X117805000Y-148540000D02*
X122305000Y-148540000D01*
X85420000Y-148540000D02*
X89920000Y-148540000D01*
X84170000Y-144540000D02*
X84170000Y-146040000D01*
X89920000Y-142040000D02*
X85420000Y-142040000D01*
X91170000Y-146040000D02*
X91170000Y-144540000D01*
D11*
X122055000Y-176665000D02*
X123430000Y-176665000D01*
X122055000Y-166540000D02*
X117905000Y-166540000D01*
X122055000Y-176690000D02*
X117905000Y-176690000D01*
X122055000Y-166540000D02*
X122055000Y-166645000D01*
X117905000Y-166540000D02*
X117905000Y-166645000D01*
X117905000Y-176690000D02*
X117905000Y-176585000D01*
X122055000Y-176690000D02*
X122055000Y-176665000D01*
D10*
X96215000Y-148540000D02*
X100715000Y-148540000D01*
X94965000Y-144540000D02*
X94965000Y-146040000D01*
X100715000Y-142040000D02*
X96215000Y-142040000D01*
X101965000Y-146040000D02*
X101965000Y-144540000D01*
X134350000Y-146040000D02*
X134350000Y-144540000D01*
X133100000Y-142040000D02*
X128600000Y-142040000D01*
X127350000Y-144540000D02*
X127350000Y-146040000D01*
X128600000Y-148540000D02*
X133100000Y-148540000D01*
X112760000Y-146040000D02*
X112760000Y-144540000D01*
X111510000Y-142040000D02*
X107010000Y-142040000D01*
X105760000Y-144540000D02*
X105760000Y-146040000D01*
X107010000Y-148540000D02*
X111510000Y-148540000D01*
X142495000Y-159740000D02*
X142495000Y-159584000D01*
X142495000Y-162056000D02*
X142495000Y-161900000D01*
X139893870Y-159740163D02*
G75*
G02X141975961Y-159740000I1041130J-1079837D01*
G01*
X139893870Y-161899837D02*
G75*
G03X141975961Y-161900000I1041130J1079837D01*
G01*
X139262665Y-159741392D02*
G75*
G02X142495000Y-159584484I1672335J-1078608D01*
G01*
X139262665Y-161898608D02*
G75*
G03X142495000Y-162055516I1672335J1078608D01*
G01*
X97620000Y-176105000D02*
X96620000Y-176105000D01*
X96620000Y-174745000D02*
X97620000Y-174745000D01*
X155405000Y-161500000D02*
X154405000Y-161500000D01*
X154405000Y-160140000D02*
X155405000Y-160140000D01*
X100527665Y-176503608D02*
G75*
G03X103760000Y-176660516I1672335J1078608D01*
G01*
X100527665Y-174346392D02*
G75*
G02X103760000Y-174189484I1672335J-1078608D01*
G01*
X101158870Y-176504837D02*
G75*
G03X103240961Y-176505000I1041130J1079837D01*
G01*
X101158870Y-174345163D02*
G75*
G02X103240961Y-174345000I1041130J-1079837D01*
G01*
X103760000Y-176661000D02*
X103760000Y-176505000D01*
X103760000Y-174345000D02*
X103760000Y-174189000D01*
X103760000Y-157200000D02*
X103760000Y-157044000D01*
X103760000Y-159516000D02*
X103760000Y-159360000D01*
X101158870Y-157200163D02*
G75*
G02X103240961Y-157200000I1041130J-1079837D01*
G01*
X101158870Y-159359837D02*
G75*
G03X103240961Y-159360000I1041130J1079837D01*
G01*
X100527665Y-157201392D02*
G75*
G02X103760000Y-157044484I1672335J-1078608D01*
G01*
X100527665Y-159358608D02*
G75*
G03X103760000Y-159515516I1672335J1078608D01*
G01*
X103760000Y-151485000D02*
X103760000Y-151329000D01*
X103760000Y-153801000D02*
X103760000Y-153645000D01*
X101158870Y-151485163D02*
G75*
G02X103240961Y-151485000I1041130J-1079837D01*
G01*
X101158870Y-153644837D02*
G75*
G03X103240961Y-153645000I1041130J1079837D01*
G01*
X100527665Y-151486392D02*
G75*
G02X103760000Y-151329484I1672335J-1078608D01*
G01*
X100527665Y-153643608D02*
G75*
G03X103760000Y-153800516I1672335J1078608D01*
G01*
X139262665Y-173328608D02*
G75*
G03X142495000Y-173485516I1672335J1078608D01*
G01*
X139262665Y-171171392D02*
G75*
G02X142495000Y-171014484I1672335J-1078608D01*
G01*
X139893870Y-173329837D02*
G75*
G03X141975961Y-173330000I1041130J1079837D01*
G01*
X139893870Y-171170163D02*
G75*
G02X141975961Y-171170000I1041130J-1079837D01*
G01*
X142495000Y-173486000D02*
X142495000Y-173330000D01*
X142495000Y-171170000D02*
X142495000Y-171014000D01*
X150862335Y-165456392D02*
G75*
G03X147630000Y-165299484I-1672335J-1078608D01*
G01*
X150862335Y-167613608D02*
G75*
G02X147630000Y-167770516I-1672335J1078608D01*
G01*
X150231130Y-165455163D02*
G75*
G03X148149039Y-165455000I-1041130J-1079837D01*
G01*
X150231130Y-167614837D02*
G75*
G02X148149039Y-167615000I-1041130J1079837D01*
G01*
X147630000Y-165299000D02*
X147630000Y-165455000D01*
X147630000Y-167615000D02*
X147630000Y-167771000D01*
X142495000Y-154025000D02*
X142495000Y-153869000D01*
X142495000Y-156341000D02*
X142495000Y-156185000D01*
X139893870Y-154025163D02*
G75*
G02X141975961Y-154025000I1041130J-1079837D01*
G01*
X139893870Y-156184837D02*
G75*
G03X141975961Y-156185000I1041130J1079837D01*
G01*
X139262665Y-154026392D02*
G75*
G02X142495000Y-153869484I1672335J-1078608D01*
G01*
X139262665Y-156183608D02*
G75*
G03X142495000Y-156340516I1672335J1078608D01*
G01*
X75485000Y-167500000D02*
X75485000Y-166500000D01*
X76845000Y-166500000D02*
X76845000Y-167500000D01*
X79475000Y-174110000D02*
X80475000Y-174110000D01*
X80475000Y-175470000D02*
X79475000Y-175470000D01*
X135720000Y-167215000D02*
X134720000Y-167215000D01*
X134720000Y-165855000D02*
X135720000Y-165855000D01*
X97620000Y-158960000D02*
X96620000Y-158960000D01*
X96620000Y-157600000D02*
X97620000Y-157600000D01*
X134720000Y-154425000D02*
X135720000Y-154425000D01*
X135720000Y-155785000D02*
X134720000Y-155785000D01*
X103760000Y-162915000D02*
X103760000Y-162759000D01*
X103760000Y-165231000D02*
X103760000Y-165075000D01*
X101158870Y-162915163D02*
G75*
G02X103240961Y-162915000I1041130J-1079837D01*
G01*
X101158870Y-165074837D02*
G75*
G03X103240961Y-165075000I1041130J1079837D01*
G01*
X100527665Y-162916392D02*
G75*
G02X103760000Y-162759484I1672335J-1078608D01*
G01*
X100527665Y-165073608D02*
G75*
G03X103760000Y-165230516I1672335J1078608D01*
G01*
X150862335Y-159741392D02*
G75*
G03X147630000Y-159584484I-1672335J-1078608D01*
G01*
X150862335Y-161898608D02*
G75*
G02X147630000Y-162055516I-1672335J1078608D01*
G01*
X150231130Y-159740163D02*
G75*
G03X148149039Y-159740000I-1041130J-1079837D01*
G01*
X150231130Y-161899837D02*
G75*
G02X148149039Y-161900000I-1041130J1079837D01*
G01*
X147630000Y-159584000D02*
X147630000Y-159740000D01*
X147630000Y-161900000D02*
X147630000Y-162056000D01*
X96620000Y-151885000D02*
X97620000Y-151885000D01*
X97620000Y-153245000D02*
X96620000Y-153245000D01*
X83740000Y-153530000D02*
X83740000Y-152530000D01*
X85100000Y-152530000D02*
X85100000Y-153530000D01*
X96620000Y-163315000D02*
X97620000Y-163315000D01*
X97620000Y-164675000D02*
X96620000Y-164675000D01*
X97620000Y-170390000D02*
X96620000Y-170390000D01*
X96620000Y-169030000D02*
X97620000Y-169030000D01*
X150862335Y-171171392D02*
G75*
G03X147630000Y-171014484I-1672335J-1078608D01*
G01*
X150862335Y-173328608D02*
G75*
G02X147630000Y-173485516I-1672335J1078608D01*
G01*
X150231130Y-171170163D02*
G75*
G03X148149039Y-171170000I-1041130J-1079837D01*
G01*
X150231130Y-173329837D02*
G75*
G02X148149039Y-173330000I-1041130J1079837D01*
G01*
X147630000Y-171014000D02*
X147630000Y-171170000D01*
X147630000Y-173330000D02*
X147630000Y-173486000D01*
X139262665Y-167613608D02*
G75*
G03X142495000Y-167770516I1672335J1078608D01*
G01*
X139262665Y-165456392D02*
G75*
G02X142495000Y-165299484I1672335J-1078608D01*
G01*
X139893870Y-167614837D02*
G75*
G03X141975961Y-167615000I1041130J1079837D01*
G01*
X139893870Y-165455163D02*
G75*
G02X141975961Y-165455000I1041130J-1079837D01*
G01*
X142495000Y-167771000D02*
X142495000Y-167615000D01*
X142495000Y-165455000D02*
X142495000Y-165299000D01*
X78750000Y-166500000D02*
X78750000Y-167500000D01*
X77390000Y-167500000D02*
X77390000Y-166500000D01*
X147630000Y-156185000D02*
X147630000Y-156341000D01*
X147630000Y-153869000D02*
X147630000Y-154025000D01*
X150231130Y-156184837D02*
G75*
G02X148149039Y-156185000I-1041130J1079837D01*
G01*
X150231130Y-154025163D02*
G75*
G03X148149039Y-154025000I-1041130J-1079837D01*
G01*
X150862335Y-156183608D02*
G75*
G02X147630000Y-156340516I-1672335J1078608D01*
G01*
X150862335Y-154026392D02*
G75*
G03X147630000Y-153869484I-1672335J-1078608D01*
G01*
X80655000Y-166500000D02*
X80655000Y-167500000D01*
X79295000Y-167500000D02*
X79295000Y-166500000D01*
X154405000Y-171570000D02*
X155405000Y-171570000D01*
X155405000Y-172930000D02*
X154405000Y-172930000D01*
X126295000Y-139185000D02*
X127295000Y-139185000D01*
X127295000Y-140545000D02*
X126295000Y-140545000D01*
X154405000Y-154425000D02*
X155405000Y-154425000D01*
X155405000Y-155785000D02*
X154405000Y-155785000D01*
X134720000Y-171570000D02*
X135720000Y-171570000D01*
X135720000Y-172930000D02*
X134720000Y-172930000D01*
X154405000Y-165855000D02*
X155405000Y-165855000D01*
X155405000Y-167215000D02*
X154405000Y-167215000D01*
X134720000Y-160140000D02*
X135720000Y-160140000D01*
X135720000Y-161500000D02*
X134720000Y-161500000D01*
X103760000Y-168630000D02*
X103760000Y-168474000D01*
X103760000Y-170946000D02*
X103760000Y-170790000D01*
X101158870Y-168630163D02*
G75*
G02X103240961Y-168630000I1041130J-1079837D01*
G01*
X101158870Y-170789837D02*
G75*
G03X103240961Y-170790000I1041130J1079837D01*
G01*
X100527665Y-168631392D02*
G75*
G02X103760000Y-168474484I1672335J-1078608D01*
G01*
X100527665Y-170788608D02*
G75*
G03X103760000Y-170945516I1672335J1078608D01*
G01*
D11*
X77260476Y-149501380D02*
X77260476Y-150215666D01*
X77212857Y-150358523D01*
X77117619Y-150453761D01*
X76974761Y-150501380D01*
X76879523Y-150501380D01*
X78260476Y-150501380D02*
X77689047Y-150501380D01*
X77974761Y-150501380D02*
X77974761Y-149501380D01*
X77879523Y-149644238D01*
X77784285Y-149739476D01*
X77689047Y-149787095D01*
X78593809Y-149501380D02*
X79212857Y-149501380D01*
X78879523Y-149882333D01*
X79022380Y-149882333D01*
X79117619Y-149929952D01*
X79165238Y-149977571D01*
X79212857Y-150072809D01*
X79212857Y-150310904D01*
X79165238Y-150406142D01*
X79117619Y-150453761D01*
X79022380Y-150501380D01*
X78736666Y-150501380D01*
X78641428Y-150453761D01*
X78593809Y-150406142D01*
X168636976Y-150707880D02*
X168636976Y-151422166D01*
X168589357Y-151565023D01*
X168494119Y-151660261D01*
X168351261Y-151707880D01*
X168256023Y-151707880D01*
X169636976Y-151707880D02*
X169065547Y-151707880D01*
X169351261Y-151707880D02*
X169351261Y-150707880D01*
X169256023Y-150850738D01*
X169160785Y-150945976D01*
X169065547Y-150993595D01*
X170494119Y-151041214D02*
X170494119Y-151707880D01*
X170256023Y-150660261D02*
X170017928Y-151374547D01*
X170636976Y-151374547D01*
X88895314Y-161119980D02*
X88895314Y-160119980D01*
X89133409Y-160119980D01*
X89276266Y-160167600D01*
X89371504Y-160262838D01*
X89419123Y-160358076D01*
X89466742Y-160548552D01*
X89466742Y-160691409D01*
X89419123Y-160881885D01*
X89371504Y-160977123D01*
X89276266Y-161072361D01*
X89133409Y-161119980D01*
X88895314Y-161119980D01*
X90419123Y-161119980D02*
X89847695Y-161119980D01*
X90133409Y-161119980D02*
X90133409Y-160119980D01*
X90038171Y-160262838D01*
X89942933Y-160358076D01*
X89847695Y-160405695D01*
X91323885Y-160119980D02*
X90847695Y-160119980D01*
X90800076Y-160596171D01*
X90847695Y-160548552D01*
X90942933Y-160500933D01*
X91181028Y-160500933D01*
X91276266Y-160548552D01*
X91323885Y-160596171D01*
X91371504Y-160691409D01*
X91371504Y-160929504D01*
X91323885Y-161024742D01*
X91276266Y-161072361D01*
X91181028Y-161119980D01*
X90942933Y-161119980D01*
X90847695Y-161072361D01*
X90800076Y-161024742D01*
X88895314Y-154769980D02*
X88895314Y-153769980D01*
X89133409Y-153769980D01*
X89276266Y-153817600D01*
X89371504Y-153912838D01*
X89419123Y-154008076D01*
X89466742Y-154198552D01*
X89466742Y-154341409D01*
X89419123Y-154531885D01*
X89371504Y-154627123D01*
X89276266Y-154722361D01*
X89133409Y-154769980D01*
X88895314Y-154769980D01*
X90419123Y-154769980D02*
X89847695Y-154769980D01*
X90133409Y-154769980D02*
X90133409Y-153769980D01*
X90038171Y-153912838D01*
X89942933Y-154008076D01*
X89847695Y-154055695D01*
X91276266Y-154103314D02*
X91276266Y-154769980D01*
X91038171Y-153722361D02*
X90800076Y-154436647D01*
X91419123Y-154436647D01*
X85246904Y-177067380D02*
X85246904Y-177876904D01*
X85294523Y-177972142D01*
X85342142Y-178019761D01*
X85437380Y-178067380D01*
X85627857Y-178067380D01*
X85723095Y-178019761D01*
X85770714Y-177972142D01*
X85818333Y-177876904D01*
X85818333Y-177067380D01*
X86818333Y-178067380D02*
X86246904Y-178067380D01*
X86532619Y-178067380D02*
X86532619Y-177067380D01*
X86437380Y-177210238D01*
X86342142Y-177305476D01*
X86246904Y-177353095D01*
X87294523Y-178067380D02*
X87485000Y-178067380D01*
X87580238Y-178019761D01*
X87627857Y-177972142D01*
X87723095Y-177829285D01*
X87770714Y-177638809D01*
X87770714Y-177257857D01*
X87723095Y-177162619D01*
X87675476Y-177115000D01*
X87580238Y-177067380D01*
X87389761Y-177067380D01*
X87294523Y-177115000D01*
X87246904Y-177162619D01*
X87199285Y-177257857D01*
X87199285Y-177495952D01*
X87246904Y-177591190D01*
X87294523Y-177638809D01*
X87389761Y-177686428D01*
X87580238Y-177686428D01*
X87675476Y-177638809D01*
X87723095Y-177591190D01*
X87770714Y-177495952D01*
X118721666Y-141444761D02*
X118864523Y-141492380D01*
X119102619Y-141492380D01*
X119197857Y-141444761D01*
X119245476Y-141397142D01*
X119293095Y-141301904D01*
X119293095Y-141206666D01*
X119245476Y-141111428D01*
X119197857Y-141063809D01*
X119102619Y-141016190D01*
X118912142Y-140968571D01*
X118816904Y-140920952D01*
X118769285Y-140873333D01*
X118721666Y-140778095D01*
X118721666Y-140682857D01*
X118769285Y-140587619D01*
X118816904Y-140540000D01*
X118912142Y-140492380D01*
X119150238Y-140492380D01*
X119293095Y-140540000D01*
X119626428Y-140492380D02*
X119864523Y-141492380D01*
X120055000Y-140778095D01*
X120245476Y-141492380D01*
X120483571Y-140492380D01*
X121388333Y-141492380D02*
X120816904Y-141492380D01*
X121102619Y-141492380D02*
X121102619Y-140492380D01*
X121007380Y-140635238D01*
X120912142Y-140730476D01*
X120816904Y-140778095D01*
X86336666Y-141444761D02*
X86479523Y-141492380D01*
X86717619Y-141492380D01*
X86812857Y-141444761D01*
X86860476Y-141397142D01*
X86908095Y-141301904D01*
X86908095Y-141206666D01*
X86860476Y-141111428D01*
X86812857Y-141063809D01*
X86717619Y-141016190D01*
X86527142Y-140968571D01*
X86431904Y-140920952D01*
X86384285Y-140873333D01*
X86336666Y-140778095D01*
X86336666Y-140682857D01*
X86384285Y-140587619D01*
X86431904Y-140540000D01*
X86527142Y-140492380D01*
X86765238Y-140492380D01*
X86908095Y-140540000D01*
X87241428Y-140492380D02*
X87479523Y-141492380D01*
X87670000Y-140778095D01*
X87860476Y-141492380D01*
X88098571Y-140492380D01*
X88431904Y-140587619D02*
X88479523Y-140540000D01*
X88574761Y-140492380D01*
X88812857Y-140492380D01*
X88908095Y-140540000D01*
X88955714Y-140587619D01*
X89003333Y-140682857D01*
X89003333Y-140778095D01*
X88955714Y-140920952D01*
X88384285Y-141492380D01*
X89003333Y-141492380D01*
X118741904Y-177067380D02*
X118741904Y-177876904D01*
X118789523Y-177972142D01*
X118837142Y-178019761D01*
X118932380Y-178067380D01*
X119122857Y-178067380D01*
X119218095Y-178019761D01*
X119265714Y-177972142D01*
X119313333Y-177876904D01*
X119313333Y-177067380D01*
X119741904Y-177162619D02*
X119789523Y-177115000D01*
X119884761Y-177067380D01*
X120122857Y-177067380D01*
X120218095Y-177115000D01*
X120265714Y-177162619D01*
X120313333Y-177257857D01*
X120313333Y-177353095D01*
X120265714Y-177495952D01*
X119694285Y-178067380D01*
X120313333Y-178067380D01*
X120932380Y-177067380D02*
X121027619Y-177067380D01*
X121122857Y-177115000D01*
X121170476Y-177162619D01*
X121218095Y-177257857D01*
X121265714Y-177448333D01*
X121265714Y-177686428D01*
X121218095Y-177876904D01*
X121170476Y-177972142D01*
X121122857Y-178019761D01*
X121027619Y-178067380D01*
X120932380Y-178067380D01*
X120837142Y-178019761D01*
X120789523Y-177972142D01*
X120741904Y-177876904D01*
X120694285Y-177686428D01*
X120694285Y-177448333D01*
X120741904Y-177257857D01*
X120789523Y-177162619D01*
X120837142Y-177115000D01*
X120932380Y-177067380D01*
X97131666Y-141444761D02*
X97274523Y-141492380D01*
X97512619Y-141492380D01*
X97607857Y-141444761D01*
X97655476Y-141397142D01*
X97703095Y-141301904D01*
X97703095Y-141206666D01*
X97655476Y-141111428D01*
X97607857Y-141063809D01*
X97512619Y-141016190D01*
X97322142Y-140968571D01*
X97226904Y-140920952D01*
X97179285Y-140873333D01*
X97131666Y-140778095D01*
X97131666Y-140682857D01*
X97179285Y-140587619D01*
X97226904Y-140540000D01*
X97322142Y-140492380D01*
X97560238Y-140492380D01*
X97703095Y-140540000D01*
X98036428Y-140492380D02*
X98274523Y-141492380D01*
X98465000Y-140778095D01*
X98655476Y-141492380D01*
X98893571Y-140492380D01*
X99703095Y-140825714D02*
X99703095Y-141492380D01*
X99465000Y-140444761D02*
X99226904Y-141159047D01*
X99845952Y-141159047D01*
X129516666Y-141444761D02*
X129659523Y-141492380D01*
X129897619Y-141492380D01*
X129992857Y-141444761D01*
X130040476Y-141397142D01*
X130088095Y-141301904D01*
X130088095Y-141206666D01*
X130040476Y-141111428D01*
X129992857Y-141063809D01*
X129897619Y-141016190D01*
X129707142Y-140968571D01*
X129611904Y-140920952D01*
X129564285Y-140873333D01*
X129516666Y-140778095D01*
X129516666Y-140682857D01*
X129564285Y-140587619D01*
X129611904Y-140540000D01*
X129707142Y-140492380D01*
X129945238Y-140492380D01*
X130088095Y-140540000D01*
X130421428Y-140492380D02*
X130659523Y-141492380D01*
X130850000Y-140778095D01*
X131040476Y-141492380D01*
X131278571Y-140492380D01*
X132135714Y-140492380D02*
X131659523Y-140492380D01*
X131611904Y-140968571D01*
X131659523Y-140920952D01*
X131754761Y-140873333D01*
X131992857Y-140873333D01*
X132088095Y-140920952D01*
X132135714Y-140968571D01*
X132183333Y-141063809D01*
X132183333Y-141301904D01*
X132135714Y-141397142D01*
X132088095Y-141444761D01*
X131992857Y-141492380D01*
X131754761Y-141492380D01*
X131659523Y-141444761D01*
X131611904Y-141397142D01*
X107918665Y-141128760D02*
X108061522Y-141176379D01*
X108299618Y-141176379D01*
X108394856Y-141128760D01*
X108442475Y-141081141D01*
X108490094Y-140985903D01*
X108490094Y-140890665D01*
X108442475Y-140795427D01*
X108394856Y-140747808D01*
X108299618Y-140700189D01*
X108109141Y-140652570D01*
X108013903Y-140604951D01*
X107966284Y-140557332D01*
X107918665Y-140462094D01*
X107918665Y-140366856D01*
X107966284Y-140271618D01*
X108013903Y-140223999D01*
X108109141Y-140176379D01*
X108347237Y-140176379D01*
X108490094Y-140223999D01*
X108823427Y-140176379D02*
X109061522Y-141176379D01*
X109251999Y-140462094D01*
X109442475Y-141176379D01*
X109680570Y-140176379D01*
X109966284Y-140176379D02*
X110585332Y-140176379D01*
X110251999Y-140557332D01*
X110394856Y-140557332D01*
X110490094Y-140604951D01*
X110537713Y-140652570D01*
X110585332Y-140747808D01*
X110585332Y-140985903D01*
X110537713Y-141081141D01*
X110490094Y-141128760D01*
X110394856Y-141176379D01*
X110109141Y-141176379D01*
X110013903Y-141128760D01*
X109966284Y-141081141D01*
X139720714Y-164232380D02*
X139720714Y-163232380D01*
X139958809Y-163232380D01*
X140101666Y-163280000D01*
X140196904Y-163375238D01*
X140244523Y-163470476D01*
X140292142Y-163660952D01*
X140292142Y-163803809D01*
X140244523Y-163994285D01*
X140196904Y-164089523D01*
X140101666Y-164184761D01*
X139958809Y-164232380D01*
X139720714Y-164232380D01*
X140625476Y-163232380D02*
X141244523Y-163232380D01*
X140911190Y-163613333D01*
X141054047Y-163613333D01*
X141149285Y-163660952D01*
X141196904Y-163708571D01*
X141244523Y-163803809D01*
X141244523Y-164041904D01*
X141196904Y-164137142D01*
X141149285Y-164184761D01*
X141054047Y-164232380D01*
X140768333Y-164232380D01*
X140673095Y-164184761D01*
X140625476Y-164137142D01*
X142149285Y-163232380D02*
X141673095Y-163232380D01*
X141625476Y-163708571D01*
X141673095Y-163660952D01*
X141768333Y-163613333D01*
X142006428Y-163613333D01*
X142101666Y-163660952D01*
X142149285Y-163708571D01*
X142196904Y-163803809D01*
X142196904Y-164041904D01*
X142149285Y-164137142D01*
X142101666Y-164184761D01*
X142006428Y-164232380D01*
X141768333Y-164232380D01*
X141673095Y-164184761D01*
X141625476Y-164137142D01*
X96477142Y-177327380D02*
X96143809Y-176851190D01*
X95905714Y-177327380D02*
X95905714Y-176327380D01*
X96286666Y-176327380D01*
X96381904Y-176375000D01*
X96429523Y-176422619D01*
X96477142Y-176517857D01*
X96477142Y-176660714D01*
X96429523Y-176755952D01*
X96381904Y-176803571D01*
X96286666Y-176851190D01*
X95905714Y-176851190D01*
X97381904Y-176327380D02*
X96905714Y-176327380D01*
X96858095Y-176803571D01*
X96905714Y-176755952D01*
X97000952Y-176708333D01*
X97239047Y-176708333D01*
X97334285Y-176755952D01*
X97381904Y-176803571D01*
X97429523Y-176898809D01*
X97429523Y-177136904D01*
X97381904Y-177232142D01*
X97334285Y-177279761D01*
X97239047Y-177327380D01*
X97000952Y-177327380D01*
X96905714Y-177279761D01*
X96858095Y-177232142D01*
X97762857Y-176327380D02*
X98429523Y-176327380D01*
X98000952Y-177327380D01*
X154262142Y-159822380D02*
X153928809Y-159346190D01*
X153690714Y-159822380D02*
X153690714Y-158822380D01*
X154071666Y-158822380D01*
X154166904Y-158870000D01*
X154214523Y-158917619D01*
X154262142Y-159012857D01*
X154262142Y-159155714D01*
X154214523Y-159250952D01*
X154166904Y-159298571D01*
X154071666Y-159346190D01*
X153690714Y-159346190D01*
X155119285Y-158822380D02*
X154928809Y-158822380D01*
X154833571Y-158870000D01*
X154785952Y-158917619D01*
X154690714Y-159060476D01*
X154643095Y-159250952D01*
X154643095Y-159631904D01*
X154690714Y-159727142D01*
X154738333Y-159774761D01*
X154833571Y-159822380D01*
X155024047Y-159822380D01*
X155119285Y-159774761D01*
X155166904Y-159727142D01*
X155214523Y-159631904D01*
X155214523Y-159393809D01*
X155166904Y-159298571D01*
X155119285Y-159250952D01*
X155024047Y-159203333D01*
X154833571Y-159203333D01*
X154738333Y-159250952D01*
X154690714Y-159298571D01*
X154643095Y-159393809D01*
X155595476Y-158917619D02*
X155643095Y-158870000D01*
X155738333Y-158822380D01*
X155976428Y-158822380D01*
X156071666Y-158870000D01*
X156119285Y-158917619D01*
X156166904Y-159012857D01*
X156166904Y-159108095D01*
X156119285Y-159250952D01*
X155547857Y-159822380D01*
X156166904Y-159822380D01*
X100985714Y-178837380D02*
X100985714Y-177837380D01*
X101223809Y-177837380D01*
X101366666Y-177885000D01*
X101461904Y-177980238D01*
X101509523Y-178075476D01*
X101557142Y-178265952D01*
X101557142Y-178408809D01*
X101509523Y-178599285D01*
X101461904Y-178694523D01*
X101366666Y-178789761D01*
X101223809Y-178837380D01*
X100985714Y-178837380D01*
X101938095Y-177932619D02*
X101985714Y-177885000D01*
X102080952Y-177837380D01*
X102319047Y-177837380D01*
X102414285Y-177885000D01*
X102461904Y-177932619D01*
X102509523Y-178027857D01*
X102509523Y-178123095D01*
X102461904Y-178265952D01*
X101890476Y-178837380D01*
X102509523Y-178837380D01*
X102842857Y-177837380D02*
X103461904Y-177837380D01*
X103128571Y-178218333D01*
X103271428Y-178218333D01*
X103366666Y-178265952D01*
X103414285Y-178313571D01*
X103461904Y-178408809D01*
X103461904Y-178646904D01*
X103414285Y-178742142D01*
X103366666Y-178789761D01*
X103271428Y-178837380D01*
X102985714Y-178837380D01*
X102890476Y-178789761D01*
X102842857Y-178742142D01*
X100985714Y-161692380D02*
X100985714Y-160692380D01*
X101223809Y-160692380D01*
X101366666Y-160740000D01*
X101461904Y-160835238D01*
X101509523Y-160930476D01*
X101557142Y-161120952D01*
X101557142Y-161263809D01*
X101509523Y-161454285D01*
X101461904Y-161549523D01*
X101366666Y-161644761D01*
X101223809Y-161692380D01*
X100985714Y-161692380D01*
X101938095Y-160787619D02*
X101985714Y-160740000D01*
X102080952Y-160692380D01*
X102319047Y-160692380D01*
X102414285Y-160740000D01*
X102461904Y-160787619D01*
X102509523Y-160882857D01*
X102509523Y-160978095D01*
X102461904Y-161120952D01*
X101890476Y-161692380D01*
X102509523Y-161692380D01*
X103366666Y-160692380D02*
X103176190Y-160692380D01*
X103080952Y-160740000D01*
X103033333Y-160787619D01*
X102938095Y-160930476D01*
X102890476Y-161120952D01*
X102890476Y-161501904D01*
X102938095Y-161597142D01*
X102985714Y-161644761D01*
X103080952Y-161692380D01*
X103271428Y-161692380D01*
X103366666Y-161644761D01*
X103414285Y-161597142D01*
X103461904Y-161501904D01*
X103461904Y-161263809D01*
X103414285Y-161168571D01*
X103366666Y-161120952D01*
X103271428Y-161073333D01*
X103080952Y-161073333D01*
X102985714Y-161120952D01*
X102938095Y-161168571D01*
X102890476Y-161263809D01*
X100985714Y-155977380D02*
X100985714Y-154977380D01*
X101223809Y-154977380D01*
X101366666Y-155025000D01*
X101461904Y-155120238D01*
X101509523Y-155215476D01*
X101557142Y-155405952D01*
X101557142Y-155548809D01*
X101509523Y-155739285D01*
X101461904Y-155834523D01*
X101366666Y-155929761D01*
X101223809Y-155977380D01*
X100985714Y-155977380D01*
X101938095Y-155072619D02*
X101985714Y-155025000D01*
X102080952Y-154977380D01*
X102319047Y-154977380D01*
X102414285Y-155025000D01*
X102461904Y-155072619D01*
X102509523Y-155167857D01*
X102509523Y-155263095D01*
X102461904Y-155405952D01*
X101890476Y-155977380D01*
X102509523Y-155977380D01*
X102842857Y-154977380D02*
X103509523Y-154977380D01*
X103080952Y-155977380D01*
X139720714Y-175662380D02*
X139720714Y-174662380D01*
X139958809Y-174662380D01*
X140101666Y-174710000D01*
X140196904Y-174805238D01*
X140244523Y-174900476D01*
X140292142Y-175090952D01*
X140292142Y-175233809D01*
X140244523Y-175424285D01*
X140196904Y-175519523D01*
X140101666Y-175614761D01*
X139958809Y-175662380D01*
X139720714Y-175662380D01*
X140625476Y-174662380D02*
X141244523Y-174662380D01*
X140911190Y-175043333D01*
X141054047Y-175043333D01*
X141149285Y-175090952D01*
X141196904Y-175138571D01*
X141244523Y-175233809D01*
X141244523Y-175471904D01*
X141196904Y-175567142D01*
X141149285Y-175614761D01*
X141054047Y-175662380D01*
X140768333Y-175662380D01*
X140673095Y-175614761D01*
X140625476Y-175567142D01*
X142196904Y-175662380D02*
X141625476Y-175662380D01*
X141911190Y-175662380D02*
X141911190Y-174662380D01*
X141815952Y-174805238D01*
X141720714Y-174900476D01*
X141625476Y-174948095D01*
X147975714Y-164027380D02*
X147975714Y-163027380D01*
X148213809Y-163027380D01*
X148356666Y-163075000D01*
X148451904Y-163170238D01*
X148499523Y-163265476D01*
X148547142Y-163455952D01*
X148547142Y-163598809D01*
X148499523Y-163789285D01*
X148451904Y-163884523D01*
X148356666Y-163979761D01*
X148213809Y-164027380D01*
X147975714Y-164027380D01*
X148880476Y-163027380D02*
X149499523Y-163027380D01*
X149166190Y-163408333D01*
X149309047Y-163408333D01*
X149404285Y-163455952D01*
X149451904Y-163503571D01*
X149499523Y-163598809D01*
X149499523Y-163836904D01*
X149451904Y-163932142D01*
X149404285Y-163979761D01*
X149309047Y-164027380D01*
X149023333Y-164027380D01*
X148928095Y-163979761D01*
X148880476Y-163932142D01*
X149880476Y-163122619D02*
X149928095Y-163075000D01*
X150023333Y-163027380D01*
X150261428Y-163027380D01*
X150356666Y-163075000D01*
X150404285Y-163122619D01*
X150451904Y-163217857D01*
X150451904Y-163313095D01*
X150404285Y-163455952D01*
X149832857Y-164027380D01*
X150451904Y-164027380D01*
X139720714Y-158517380D02*
X139720714Y-157517380D01*
X139958809Y-157517380D01*
X140101666Y-157565000D01*
X140196904Y-157660238D01*
X140244523Y-157755476D01*
X140292142Y-157945952D01*
X140292142Y-158088809D01*
X140244523Y-158279285D01*
X140196904Y-158374523D01*
X140101666Y-158469761D01*
X139958809Y-158517380D01*
X139720714Y-158517380D01*
X140673095Y-157612619D02*
X140720714Y-157565000D01*
X140815952Y-157517380D01*
X141054047Y-157517380D01*
X141149285Y-157565000D01*
X141196904Y-157612619D01*
X141244523Y-157707857D01*
X141244523Y-157803095D01*
X141196904Y-157945952D01*
X140625476Y-158517380D01*
X141244523Y-158517380D01*
X141720714Y-158517380D02*
X141911190Y-158517380D01*
X142006428Y-158469761D01*
X142054047Y-158422142D01*
X142149285Y-158279285D01*
X142196904Y-158088809D01*
X142196904Y-157707857D01*
X142149285Y-157612619D01*
X142101666Y-157565000D01*
X142006428Y-157517380D01*
X141815952Y-157517380D01*
X141720714Y-157565000D01*
X141673095Y-157612619D01*
X141625476Y-157707857D01*
X141625476Y-157945952D01*
X141673095Y-158041190D01*
X141720714Y-158088809D01*
X141815952Y-158136428D01*
X142006428Y-158136428D01*
X142101666Y-158088809D01*
X142149285Y-158041190D01*
X142196904Y-157945952D01*
X78067380Y-167642857D02*
X77591190Y-167976190D01*
X78067380Y-168214285D02*
X77067380Y-168214285D01*
X77067380Y-167833333D01*
X77115000Y-167738095D01*
X77162619Y-167690476D01*
X77257857Y-167642857D01*
X77400714Y-167642857D01*
X77495952Y-167690476D01*
X77543571Y-167738095D01*
X77591190Y-167833333D01*
X77591190Y-168214285D01*
X77067380Y-166738095D02*
X77067380Y-167214285D01*
X77543571Y-167261904D01*
X77495952Y-167214285D01*
X77448333Y-167119047D01*
X77448333Y-166880952D01*
X77495952Y-166785714D01*
X77543571Y-166738095D01*
X77638809Y-166690476D01*
X77876904Y-166690476D01*
X77972142Y-166738095D01*
X78019761Y-166785714D01*
X78067380Y-166880952D01*
X78067380Y-167119047D01*
X78019761Y-167214285D01*
X77972142Y-167261904D01*
X77162619Y-166309523D02*
X77115000Y-166261904D01*
X77067380Y-166166666D01*
X77067380Y-165928571D01*
X77115000Y-165833333D01*
X77162619Y-165785714D01*
X77257857Y-165738095D01*
X77353095Y-165738095D01*
X77495952Y-165785714D01*
X78067380Y-166357142D01*
X78067380Y-165738095D01*
X79332142Y-173792380D02*
X78998809Y-173316190D01*
X78760714Y-173792380D02*
X78760714Y-172792380D01*
X79141666Y-172792380D01*
X79236904Y-172840000D01*
X79284523Y-172887619D01*
X79332142Y-172982857D01*
X79332142Y-173125714D01*
X79284523Y-173220952D01*
X79236904Y-173268571D01*
X79141666Y-173316190D01*
X78760714Y-173316190D01*
X80236904Y-172792380D02*
X79760714Y-172792380D01*
X79713095Y-173268571D01*
X79760714Y-173220952D01*
X79855952Y-173173333D01*
X80094047Y-173173333D01*
X80189285Y-173220952D01*
X80236904Y-173268571D01*
X80284523Y-173363809D01*
X80284523Y-173601904D01*
X80236904Y-173697142D01*
X80189285Y-173744761D01*
X80094047Y-173792380D01*
X79855952Y-173792380D01*
X79760714Y-173744761D01*
X79713095Y-173697142D01*
X81141666Y-172792380D02*
X80951190Y-172792380D01*
X80855952Y-172840000D01*
X80808333Y-172887619D01*
X80713095Y-173030476D01*
X80665476Y-173220952D01*
X80665476Y-173601904D01*
X80713095Y-173697142D01*
X80760714Y-173744761D01*
X80855952Y-173792380D01*
X81046428Y-173792380D01*
X81141666Y-173744761D01*
X81189285Y-173697142D01*
X81236904Y-173601904D01*
X81236904Y-173363809D01*
X81189285Y-173268571D01*
X81141666Y-173220952D01*
X81046428Y-173173333D01*
X80855952Y-173173333D01*
X80760714Y-173220952D01*
X80713095Y-173268571D01*
X80665476Y-173363809D01*
X134577142Y-168437380D02*
X134243809Y-167961190D01*
X134005714Y-168437380D02*
X134005714Y-167437380D01*
X134386666Y-167437380D01*
X134481904Y-167485000D01*
X134529523Y-167532619D01*
X134577142Y-167627857D01*
X134577142Y-167770714D01*
X134529523Y-167865952D01*
X134481904Y-167913571D01*
X134386666Y-167961190D01*
X134005714Y-167961190D01*
X135434285Y-167437380D02*
X135243809Y-167437380D01*
X135148571Y-167485000D01*
X135100952Y-167532619D01*
X135005714Y-167675476D01*
X134958095Y-167865952D01*
X134958095Y-168246904D01*
X135005714Y-168342142D01*
X135053333Y-168389761D01*
X135148571Y-168437380D01*
X135339047Y-168437380D01*
X135434285Y-168389761D01*
X135481904Y-168342142D01*
X135529523Y-168246904D01*
X135529523Y-168008809D01*
X135481904Y-167913571D01*
X135434285Y-167865952D01*
X135339047Y-167818333D01*
X135148571Y-167818333D01*
X135053333Y-167865952D01*
X135005714Y-167913571D01*
X134958095Y-168008809D01*
X136481904Y-168437380D02*
X135910476Y-168437380D01*
X136196190Y-168437380D02*
X136196190Y-167437380D01*
X136100952Y-167580238D01*
X136005714Y-167675476D01*
X135910476Y-167723095D01*
X96524761Y-160182380D02*
X95953333Y-160182380D01*
X96239047Y-160182380D02*
X96239047Y-159182380D01*
X96143809Y-159325238D01*
X96048571Y-159420476D01*
X95953333Y-159468095D01*
X96953333Y-160182380D02*
X96953333Y-159182380D01*
X97048571Y-159801428D02*
X97334285Y-160182380D01*
X97334285Y-159515714D02*
X96953333Y-159896666D01*
X98191428Y-159515714D02*
X98191428Y-160182380D01*
X97953333Y-159134761D02*
X97715238Y-159849047D01*
X98334285Y-159849047D01*
X134624761Y-157007380D02*
X134053333Y-157007380D01*
X134339047Y-157007380D02*
X134339047Y-156007380D01*
X134243809Y-156150238D01*
X134148571Y-156245476D01*
X134053333Y-156293095D01*
X135053333Y-157007380D02*
X135053333Y-156007380D01*
X135148571Y-156626428D02*
X135434285Y-157007380D01*
X135434285Y-156340714D02*
X135053333Y-156721666D01*
X135767619Y-156007380D02*
X136434285Y-156007380D01*
X136005714Y-157007380D01*
X100985714Y-167407380D02*
X100985714Y-166407380D01*
X101223809Y-166407380D01*
X101366666Y-166455000D01*
X101461904Y-166550238D01*
X101509523Y-166645476D01*
X101557142Y-166835952D01*
X101557142Y-166978809D01*
X101509523Y-167169285D01*
X101461904Y-167264523D01*
X101366666Y-167359761D01*
X101223809Y-167407380D01*
X100985714Y-167407380D01*
X101938095Y-166502619D02*
X101985714Y-166455000D01*
X102080952Y-166407380D01*
X102319047Y-166407380D01*
X102414285Y-166455000D01*
X102461904Y-166502619D01*
X102509523Y-166597857D01*
X102509523Y-166693095D01*
X102461904Y-166835952D01*
X101890476Y-167407380D01*
X102509523Y-167407380D01*
X103414285Y-166407380D02*
X102938095Y-166407380D01*
X102890476Y-166883571D01*
X102938095Y-166835952D01*
X103033333Y-166788333D01*
X103271428Y-166788333D01*
X103366666Y-166835952D01*
X103414285Y-166883571D01*
X103461904Y-166978809D01*
X103461904Y-167216904D01*
X103414285Y-167312142D01*
X103366666Y-167359761D01*
X103271428Y-167407380D01*
X103033333Y-167407380D01*
X102938095Y-167359761D01*
X102890476Y-167312142D01*
X147975714Y-158312380D02*
X147975714Y-157312380D01*
X148213809Y-157312380D01*
X148356666Y-157360000D01*
X148451904Y-157455238D01*
X148499523Y-157550476D01*
X148547142Y-157740952D01*
X148547142Y-157883809D01*
X148499523Y-158074285D01*
X148451904Y-158169523D01*
X148356666Y-158264761D01*
X148213809Y-158312380D01*
X147975714Y-158312380D01*
X148880476Y-157312380D02*
X149499523Y-157312380D01*
X149166190Y-157693333D01*
X149309047Y-157693333D01*
X149404285Y-157740952D01*
X149451904Y-157788571D01*
X149499523Y-157883809D01*
X149499523Y-158121904D01*
X149451904Y-158217142D01*
X149404285Y-158264761D01*
X149309047Y-158312380D01*
X149023333Y-158312380D01*
X148928095Y-158264761D01*
X148880476Y-158217142D01*
X150356666Y-157645714D02*
X150356666Y-158312380D01*
X150118571Y-157264761D02*
X149880476Y-157979047D01*
X150499523Y-157979047D01*
X96524761Y-154467380D02*
X95953333Y-154467380D01*
X96239047Y-154467380D02*
X96239047Y-153467380D01*
X96143809Y-153610238D01*
X96048571Y-153705476D01*
X95953333Y-153753095D01*
X96953333Y-154467380D02*
X96953333Y-153467380D01*
X97048571Y-154086428D02*
X97334285Y-154467380D01*
X97334285Y-153800714D02*
X96953333Y-154181666D01*
X98239047Y-153467380D02*
X97762857Y-153467380D01*
X97715238Y-153943571D01*
X97762857Y-153895952D01*
X97858095Y-153848333D01*
X98096190Y-153848333D01*
X98191428Y-153895952D01*
X98239047Y-153943571D01*
X98286666Y-154038809D01*
X98286666Y-154276904D01*
X98239047Y-154372142D01*
X98191428Y-154419761D01*
X98096190Y-154467380D01*
X97858095Y-154467380D01*
X97762857Y-154419761D01*
X97715238Y-154372142D01*
X86322380Y-153625238D02*
X86322380Y-154196666D01*
X86322380Y-153910952D02*
X85322380Y-153910952D01*
X85465238Y-154006190D01*
X85560476Y-154101428D01*
X85608095Y-154196666D01*
X86322380Y-153196666D02*
X85322380Y-153196666D01*
X85941428Y-153101428D02*
X86322380Y-152815714D01*
X85655714Y-152815714D02*
X86036666Y-153196666D01*
X86322380Y-151863333D02*
X86322380Y-152434761D01*
X86322380Y-152149047D02*
X85322380Y-152149047D01*
X85465238Y-152244285D01*
X85560476Y-152339523D01*
X85608095Y-152434761D01*
X96524761Y-165897380D02*
X95953333Y-165897380D01*
X96239047Y-165897380D02*
X96239047Y-164897380D01*
X96143809Y-165040238D01*
X96048571Y-165135476D01*
X95953333Y-165183095D01*
X96953333Y-165897380D02*
X96953333Y-164897380D01*
X97048571Y-165516428D02*
X97334285Y-165897380D01*
X97334285Y-165230714D02*
X96953333Y-165611666D01*
X97667619Y-164897380D02*
X98286666Y-164897380D01*
X97953333Y-165278333D01*
X98096190Y-165278333D01*
X98191428Y-165325952D01*
X98239047Y-165373571D01*
X98286666Y-165468809D01*
X98286666Y-165706904D01*
X98239047Y-165802142D01*
X98191428Y-165849761D01*
X98096190Y-165897380D01*
X97810476Y-165897380D01*
X97715238Y-165849761D01*
X97667619Y-165802142D01*
X96524761Y-171612380D02*
X95953333Y-171612380D01*
X96239047Y-171612380D02*
X96239047Y-170612380D01*
X96143809Y-170755238D01*
X96048571Y-170850476D01*
X95953333Y-170898095D01*
X96953333Y-171612380D02*
X96953333Y-170612380D01*
X97048571Y-171231428D02*
X97334285Y-171612380D01*
X97334285Y-170945714D02*
X96953333Y-171326666D01*
X97715238Y-170707619D02*
X97762857Y-170660000D01*
X97858095Y-170612380D01*
X98096190Y-170612380D01*
X98191428Y-170660000D01*
X98239047Y-170707619D01*
X98286666Y-170802857D01*
X98286666Y-170898095D01*
X98239047Y-171040952D01*
X97667619Y-171612380D01*
X98286666Y-171612380D01*
X147975714Y-169742380D02*
X147975714Y-168742380D01*
X148213809Y-168742380D01*
X148356666Y-168790000D01*
X148451904Y-168885238D01*
X148499523Y-168980476D01*
X148547142Y-169170952D01*
X148547142Y-169313809D01*
X148499523Y-169504285D01*
X148451904Y-169599523D01*
X148356666Y-169694761D01*
X148213809Y-169742380D01*
X147975714Y-169742380D01*
X148880476Y-168742380D02*
X149499523Y-168742380D01*
X149166190Y-169123333D01*
X149309047Y-169123333D01*
X149404285Y-169170952D01*
X149451904Y-169218571D01*
X149499523Y-169313809D01*
X149499523Y-169551904D01*
X149451904Y-169647142D01*
X149404285Y-169694761D01*
X149309047Y-169742380D01*
X149023333Y-169742380D01*
X148928095Y-169694761D01*
X148880476Y-169647142D01*
X150118571Y-168742380D02*
X150213809Y-168742380D01*
X150309047Y-168790000D01*
X150356666Y-168837619D01*
X150404285Y-168932857D01*
X150451904Y-169123333D01*
X150451904Y-169361428D01*
X150404285Y-169551904D01*
X150356666Y-169647142D01*
X150309047Y-169694761D01*
X150213809Y-169742380D01*
X150118571Y-169742380D01*
X150023333Y-169694761D01*
X149975714Y-169647142D01*
X149928095Y-169551904D01*
X149880476Y-169361428D01*
X149880476Y-169123333D01*
X149928095Y-168932857D01*
X149975714Y-168837619D01*
X150023333Y-168790000D01*
X150118571Y-168742380D01*
X139720714Y-169947380D02*
X139720714Y-168947380D01*
X139958809Y-168947380D01*
X140101666Y-168995000D01*
X140196904Y-169090238D01*
X140244523Y-169185476D01*
X140292142Y-169375952D01*
X140292142Y-169518809D01*
X140244523Y-169709285D01*
X140196904Y-169804523D01*
X140101666Y-169899761D01*
X139958809Y-169947380D01*
X139720714Y-169947380D01*
X140625476Y-168947380D02*
X141244523Y-168947380D01*
X140911190Y-169328333D01*
X141054047Y-169328333D01*
X141149285Y-169375952D01*
X141196904Y-169423571D01*
X141244523Y-169518809D01*
X141244523Y-169756904D01*
X141196904Y-169852142D01*
X141149285Y-169899761D01*
X141054047Y-169947380D01*
X140768333Y-169947380D01*
X140673095Y-169899761D01*
X140625476Y-169852142D01*
X141577857Y-168947380D02*
X142196904Y-168947380D01*
X141863571Y-169328333D01*
X142006428Y-169328333D01*
X142101666Y-169375952D01*
X142149285Y-169423571D01*
X142196904Y-169518809D01*
X142196904Y-169756904D01*
X142149285Y-169852142D01*
X142101666Y-169899761D01*
X142006428Y-169947380D01*
X141720714Y-169947380D01*
X141625476Y-169899761D01*
X141577857Y-169852142D01*
X79972380Y-167642857D02*
X79496190Y-167976190D01*
X79972380Y-168214285D02*
X78972380Y-168214285D01*
X78972380Y-167833333D01*
X79020000Y-167738095D01*
X79067619Y-167690476D01*
X79162857Y-167642857D01*
X79305714Y-167642857D01*
X79400952Y-167690476D01*
X79448571Y-167738095D01*
X79496190Y-167833333D01*
X79496190Y-168214285D01*
X78972380Y-166738095D02*
X78972380Y-167214285D01*
X79448571Y-167261904D01*
X79400952Y-167214285D01*
X79353333Y-167119047D01*
X79353333Y-166880952D01*
X79400952Y-166785714D01*
X79448571Y-166738095D01*
X79543809Y-166690476D01*
X79781904Y-166690476D01*
X79877142Y-166738095D01*
X79924761Y-166785714D01*
X79972380Y-166880952D01*
X79972380Y-167119047D01*
X79924761Y-167214285D01*
X79877142Y-167261904D01*
X79305714Y-165833333D02*
X79972380Y-165833333D01*
X78924761Y-166071428D02*
X79639047Y-166309523D01*
X79639047Y-165690476D01*
X147975714Y-152597380D02*
X147975714Y-151597380D01*
X148213809Y-151597380D01*
X148356666Y-151645000D01*
X148451904Y-151740238D01*
X148499523Y-151835476D01*
X148547142Y-152025952D01*
X148547142Y-152168809D01*
X148499523Y-152359285D01*
X148451904Y-152454523D01*
X148356666Y-152549761D01*
X148213809Y-152597380D01*
X147975714Y-152597380D01*
X148928095Y-151692619D02*
X148975714Y-151645000D01*
X149070952Y-151597380D01*
X149309047Y-151597380D01*
X149404285Y-151645000D01*
X149451904Y-151692619D01*
X149499523Y-151787857D01*
X149499523Y-151883095D01*
X149451904Y-152025952D01*
X148880476Y-152597380D01*
X149499523Y-152597380D01*
X150070952Y-152025952D02*
X149975714Y-151978333D01*
X149928095Y-151930714D01*
X149880476Y-151835476D01*
X149880476Y-151787857D01*
X149928095Y-151692619D01*
X149975714Y-151645000D01*
X150070952Y-151597380D01*
X150261428Y-151597380D01*
X150356666Y-151645000D01*
X150404285Y-151692619D01*
X150451904Y-151787857D01*
X150451904Y-151835476D01*
X150404285Y-151930714D01*
X150356666Y-151978333D01*
X150261428Y-152025952D01*
X150070952Y-152025952D01*
X149975714Y-152073571D01*
X149928095Y-152121190D01*
X149880476Y-152216428D01*
X149880476Y-152406904D01*
X149928095Y-152502142D01*
X149975714Y-152549761D01*
X150070952Y-152597380D01*
X150261428Y-152597380D01*
X150356666Y-152549761D01*
X150404285Y-152502142D01*
X150451904Y-152406904D01*
X150451904Y-152216428D01*
X150404285Y-152121190D01*
X150356666Y-152073571D01*
X150261428Y-152025952D01*
X81877380Y-167642857D02*
X81401190Y-167976190D01*
X81877380Y-168214285D02*
X80877380Y-168214285D01*
X80877380Y-167833333D01*
X80925000Y-167738095D01*
X80972619Y-167690476D01*
X81067857Y-167642857D01*
X81210714Y-167642857D01*
X81305952Y-167690476D01*
X81353571Y-167738095D01*
X81401190Y-167833333D01*
X81401190Y-168214285D01*
X80877380Y-166738095D02*
X80877380Y-167214285D01*
X81353571Y-167261904D01*
X81305952Y-167214285D01*
X81258333Y-167119047D01*
X81258333Y-166880952D01*
X81305952Y-166785714D01*
X81353571Y-166738095D01*
X81448809Y-166690476D01*
X81686904Y-166690476D01*
X81782142Y-166738095D01*
X81829761Y-166785714D01*
X81877380Y-166880952D01*
X81877380Y-167119047D01*
X81829761Y-167214285D01*
X81782142Y-167261904D01*
X80877380Y-165785714D02*
X80877380Y-166261904D01*
X81353571Y-166309523D01*
X81305952Y-166261904D01*
X81258333Y-166166666D01*
X81258333Y-165928571D01*
X81305952Y-165833333D01*
X81353571Y-165785714D01*
X81448809Y-165738095D01*
X81686904Y-165738095D01*
X81782142Y-165785714D01*
X81829761Y-165833333D01*
X81877380Y-165928571D01*
X81877380Y-166166666D01*
X81829761Y-166261904D01*
X81782142Y-166309523D01*
X154262142Y-171252380D02*
X153928809Y-170776190D01*
X153690714Y-171252380D02*
X153690714Y-170252380D01*
X154071666Y-170252380D01*
X154166904Y-170300000D01*
X154214523Y-170347619D01*
X154262142Y-170442857D01*
X154262142Y-170585714D01*
X154214523Y-170680952D01*
X154166904Y-170728571D01*
X154071666Y-170776190D01*
X153690714Y-170776190D01*
X155166904Y-170252380D02*
X154690714Y-170252380D01*
X154643095Y-170728571D01*
X154690714Y-170680952D01*
X154785952Y-170633333D01*
X155024047Y-170633333D01*
X155119285Y-170680952D01*
X155166904Y-170728571D01*
X155214523Y-170823809D01*
X155214523Y-171061904D01*
X155166904Y-171157142D01*
X155119285Y-171204761D01*
X155024047Y-171252380D01*
X154785952Y-171252380D01*
X154690714Y-171204761D01*
X154643095Y-171157142D01*
X155785952Y-170680952D02*
X155690714Y-170633333D01*
X155643095Y-170585714D01*
X155595476Y-170490476D01*
X155595476Y-170442857D01*
X155643095Y-170347619D01*
X155690714Y-170300000D01*
X155785952Y-170252380D01*
X155976428Y-170252380D01*
X156071666Y-170300000D01*
X156119285Y-170347619D01*
X156166904Y-170442857D01*
X156166904Y-170490476D01*
X156119285Y-170585714D01*
X156071666Y-170633333D01*
X155976428Y-170680952D01*
X155785952Y-170680952D01*
X155690714Y-170728571D01*
X155643095Y-170776190D01*
X155595476Y-170871428D01*
X155595476Y-171061904D01*
X155643095Y-171157142D01*
X155690714Y-171204761D01*
X155785952Y-171252380D01*
X155976428Y-171252380D01*
X156071666Y-171204761D01*
X156119285Y-171157142D01*
X156166904Y-171061904D01*
X156166904Y-170871428D01*
X156119285Y-170776190D01*
X156071666Y-170728571D01*
X155976428Y-170680952D01*
X126152142Y-141767380D02*
X125818809Y-141291190D01*
X125580714Y-141767380D02*
X125580714Y-140767380D01*
X125961666Y-140767380D01*
X126056904Y-140815000D01*
X126104523Y-140862619D01*
X126152142Y-140957857D01*
X126152142Y-141100714D01*
X126104523Y-141195952D01*
X126056904Y-141243571D01*
X125961666Y-141291190D01*
X125580714Y-141291190D01*
X127056904Y-140767380D02*
X126580714Y-140767380D01*
X126533095Y-141243571D01*
X126580714Y-141195952D01*
X126675952Y-141148333D01*
X126914047Y-141148333D01*
X127009285Y-141195952D01*
X127056904Y-141243571D01*
X127104523Y-141338809D01*
X127104523Y-141576904D01*
X127056904Y-141672142D01*
X127009285Y-141719761D01*
X126914047Y-141767380D01*
X126675952Y-141767380D01*
X126580714Y-141719761D01*
X126533095Y-141672142D01*
X127437857Y-140767380D02*
X128056904Y-140767380D01*
X127723571Y-141148333D01*
X127866428Y-141148333D01*
X127961666Y-141195952D01*
X128009285Y-141243571D01*
X128056904Y-141338809D01*
X128056904Y-141576904D01*
X128009285Y-141672142D01*
X127961666Y-141719761D01*
X127866428Y-141767380D01*
X127580714Y-141767380D01*
X127485476Y-141719761D01*
X127437857Y-141672142D01*
X154309761Y-154107380D02*
X153738333Y-154107380D01*
X154024047Y-154107380D02*
X154024047Y-153107380D01*
X153928809Y-153250238D01*
X153833571Y-153345476D01*
X153738333Y-153393095D01*
X154738333Y-154107380D02*
X154738333Y-153107380D01*
X154833571Y-153726428D02*
X155119285Y-154107380D01*
X155119285Y-153440714D02*
X154738333Y-153821666D01*
X155976428Y-153107380D02*
X155785952Y-153107380D01*
X155690714Y-153155000D01*
X155643095Y-153202619D01*
X155547857Y-153345476D01*
X155500238Y-153535952D01*
X155500238Y-153916904D01*
X155547857Y-154012142D01*
X155595476Y-154059761D01*
X155690714Y-154107380D01*
X155881190Y-154107380D01*
X155976428Y-154059761D01*
X156024047Y-154012142D01*
X156071666Y-153916904D01*
X156071666Y-153678809D01*
X156024047Y-153583571D01*
X155976428Y-153535952D01*
X155881190Y-153488333D01*
X155690714Y-153488333D01*
X155595476Y-153535952D01*
X155547857Y-153583571D01*
X155500238Y-153678809D01*
X134577142Y-174152380D02*
X134243809Y-173676190D01*
X134005714Y-174152380D02*
X134005714Y-173152380D01*
X134386666Y-173152380D01*
X134481904Y-173200000D01*
X134529523Y-173247619D01*
X134577142Y-173342857D01*
X134577142Y-173485714D01*
X134529523Y-173580952D01*
X134481904Y-173628571D01*
X134386666Y-173676190D01*
X134005714Y-173676190D01*
X135481904Y-173152380D02*
X135005714Y-173152380D01*
X134958095Y-173628571D01*
X135005714Y-173580952D01*
X135100952Y-173533333D01*
X135339047Y-173533333D01*
X135434285Y-173580952D01*
X135481904Y-173628571D01*
X135529523Y-173723809D01*
X135529523Y-173961904D01*
X135481904Y-174057142D01*
X135434285Y-174104761D01*
X135339047Y-174152380D01*
X135100952Y-174152380D01*
X135005714Y-174104761D01*
X134958095Y-174057142D01*
X136005714Y-174152380D02*
X136196190Y-174152380D01*
X136291428Y-174104761D01*
X136339047Y-174057142D01*
X136434285Y-173914285D01*
X136481904Y-173723809D01*
X136481904Y-173342857D01*
X136434285Y-173247619D01*
X136386666Y-173200000D01*
X136291428Y-173152380D01*
X136100952Y-173152380D01*
X136005714Y-173200000D01*
X135958095Y-173247619D01*
X135910476Y-173342857D01*
X135910476Y-173580952D01*
X135958095Y-173676190D01*
X136005714Y-173723809D01*
X136100952Y-173771428D01*
X136291428Y-173771428D01*
X136386666Y-173723809D01*
X136434285Y-173676190D01*
X136481904Y-173580952D01*
X154262142Y-165537380D02*
X153928809Y-165061190D01*
X153690714Y-165537380D02*
X153690714Y-164537380D01*
X154071666Y-164537380D01*
X154166904Y-164585000D01*
X154214523Y-164632619D01*
X154262142Y-164727857D01*
X154262142Y-164870714D01*
X154214523Y-164965952D01*
X154166904Y-165013571D01*
X154071666Y-165061190D01*
X153690714Y-165061190D01*
X155119285Y-164537380D02*
X154928809Y-164537380D01*
X154833571Y-164585000D01*
X154785952Y-164632619D01*
X154690714Y-164775476D01*
X154643095Y-164965952D01*
X154643095Y-165346904D01*
X154690714Y-165442142D01*
X154738333Y-165489761D01*
X154833571Y-165537380D01*
X155024047Y-165537380D01*
X155119285Y-165489761D01*
X155166904Y-165442142D01*
X155214523Y-165346904D01*
X155214523Y-165108809D01*
X155166904Y-165013571D01*
X155119285Y-164965952D01*
X155024047Y-164918333D01*
X154833571Y-164918333D01*
X154738333Y-164965952D01*
X154690714Y-165013571D01*
X154643095Y-165108809D01*
X155833571Y-164537380D02*
X155928809Y-164537380D01*
X156024047Y-164585000D01*
X156071666Y-164632619D01*
X156119285Y-164727857D01*
X156166904Y-164918333D01*
X156166904Y-165156428D01*
X156119285Y-165346904D01*
X156071666Y-165442142D01*
X156024047Y-165489761D01*
X155928809Y-165537380D01*
X155833571Y-165537380D01*
X155738333Y-165489761D01*
X155690714Y-165442142D01*
X155643095Y-165346904D01*
X155595476Y-165156428D01*
X155595476Y-164918333D01*
X155643095Y-164727857D01*
X155690714Y-164632619D01*
X155738333Y-164585000D01*
X155833571Y-164537380D01*
X134577142Y-162722380D02*
X134243809Y-162246190D01*
X134005714Y-162722380D02*
X134005714Y-161722380D01*
X134386666Y-161722380D01*
X134481904Y-161770000D01*
X134529523Y-161817619D01*
X134577142Y-161912857D01*
X134577142Y-162055714D01*
X134529523Y-162150952D01*
X134481904Y-162198571D01*
X134386666Y-162246190D01*
X134005714Y-162246190D01*
X135434285Y-161722380D02*
X135243809Y-161722380D01*
X135148571Y-161770000D01*
X135100952Y-161817619D01*
X135005714Y-161960476D01*
X134958095Y-162150952D01*
X134958095Y-162531904D01*
X135005714Y-162627142D01*
X135053333Y-162674761D01*
X135148571Y-162722380D01*
X135339047Y-162722380D01*
X135434285Y-162674761D01*
X135481904Y-162627142D01*
X135529523Y-162531904D01*
X135529523Y-162293809D01*
X135481904Y-162198571D01*
X135434285Y-162150952D01*
X135339047Y-162103333D01*
X135148571Y-162103333D01*
X135053333Y-162150952D01*
X135005714Y-162198571D01*
X134958095Y-162293809D01*
X135862857Y-161722380D02*
X136481904Y-161722380D01*
X136148571Y-162103333D01*
X136291428Y-162103333D01*
X136386666Y-162150952D01*
X136434285Y-162198571D01*
X136481904Y-162293809D01*
X136481904Y-162531904D01*
X136434285Y-162627142D01*
X136386666Y-162674761D01*
X136291428Y-162722380D01*
X136005714Y-162722380D01*
X135910476Y-162674761D01*
X135862857Y-162627142D01*
X100985714Y-173122380D02*
X100985714Y-172122380D01*
X101223809Y-172122380D01*
X101366666Y-172170000D01*
X101461904Y-172265238D01*
X101509523Y-172360476D01*
X101557142Y-172550952D01*
X101557142Y-172693809D01*
X101509523Y-172884285D01*
X101461904Y-172979523D01*
X101366666Y-173074761D01*
X101223809Y-173122380D01*
X100985714Y-173122380D01*
X101938095Y-172217619D02*
X101985714Y-172170000D01*
X102080952Y-172122380D01*
X102319047Y-172122380D01*
X102414285Y-172170000D01*
X102461904Y-172217619D01*
X102509523Y-172312857D01*
X102509523Y-172408095D01*
X102461904Y-172550952D01*
X101890476Y-173122380D01*
X102509523Y-173122380D01*
X103366666Y-172455714D02*
X103366666Y-173122380D01*
X103128571Y-172074761D02*
X102890476Y-172789047D01*
X103509523Y-172789047D01*
M02*
