M48
; DRILL file {KiCad (5.1.5)-3} date 08.07.2020 15:45:12
; FORMAT={-:-/ absolute / inch / decimal}
; #@! TF.CreationDate,2020-07-08T15:45:12+02:00
; #@! TF.GenerationSoftware,Kicad,Pcbnew,(5.1.5)-3
; #@! TF.FileFunction,Plated,1,2,PTH
FMAT,2
INCH
T1C0.0118
T2C0.0354
T3C0.0394
T4C0.0433
%
G90
G05
T1
X2.9949Y-6.8319
X3.0936Y-6.7315
X3.2204Y-6.4165
X3.3248Y-6.5173
X3.3636Y-6.4815
X3.4386Y-6.4815
X3.4386Y-6.7315
X3.4492Y-6.9732
X3.6008Y-6.6315
X3.6008Y-6.6815
X4.3906Y-6.3217
X4.428Y-6.3606
X4.7236Y-6.5065
X4.9004Y-6.1071
X5.1536Y-5.5065
X5.5436Y-5.684
X6.1413Y-5.9878
X6.1436Y-5.7515
X6.4236Y-6.7465
X6.4436Y-6.344
T2
X3.9736Y-6.9065
X4.0736Y-6.9065
X5.4986Y-6.5565
X5.5986Y-6.5565
X5.8236Y-6.7815
X5.9236Y-6.7815
X5.8236Y-6.3315
X5.9236Y-6.3315
X5.4986Y-6.1065
X5.5986Y-6.1065
X3.4486Y-5.9815
X3.5486Y-5.9815
X3.9736Y-6.6815
X4.0736Y-6.6815
X3.9736Y-6.4565
X4.0736Y-6.4565
X5.8236Y-6.5565
X5.9236Y-6.5565
X5.4986Y-6.3315
X5.5986Y-6.3315
X5.4986Y-6.7815
X5.5986Y-6.7815
X3.4486Y-6.2315
X3.5486Y-6.2315
X5.8236Y-6.1065
X5.9236Y-6.1065
X3.9736Y-6.0065
X4.0736Y-6.0065
X3.9736Y-6.2315
X4.0736Y-6.2315
T3
X3.0236Y-6.0165
X3.0236Y-6.1165
X3.0236Y-6.2165
X3.0236Y-6.3165
X3.0236Y-6.4165
X3.1236Y-6.0165
X3.1236Y-6.1165
X3.1236Y-6.2165
X3.1236Y-6.3165
X3.1236Y-6.4165
X6.6711Y-6.064
X6.6711Y-6.164
X6.6711Y-6.264
X6.6711Y-6.364
T4
X5.0236Y-5.6315
X5.0236Y-5.8087
X5.2795Y-5.6315
X5.2795Y-5.8087
X3.7486Y-5.6315
X3.7486Y-5.8087
X4.0045Y-5.6315
X4.0045Y-5.8087
X3.3236Y-5.6315
X3.3236Y-5.8087
X3.5795Y-5.6315
X3.5795Y-5.8087
X4.1736Y-5.6315
X4.1736Y-5.8087
X4.4295Y-5.6315
X4.4295Y-5.8087
X4.5986Y-5.6315
X4.5986Y-5.8087
X4.8545Y-5.6315
X4.8545Y-5.8087
T0
M30
