G04 #@! TF.GenerationSoftware,KiCad,Pcbnew,(5.1.5)-3*
G04 #@! TF.CreationDate,2020-07-08T15:45:16+02:00*
G04 #@! TF.ProjectId,SBIO3,5342494f-332e-46b6-9963-61645f706362,rev?*
G04 #@! TF.SameCoordinates,Original*
G04 #@! TF.FileFunction,Paste,Top*
G04 #@! TF.FilePolarity,Positive*
%FSLAX46Y46*%
G04 Gerber Fmt 4.6, Leading zero omitted, Abs format (unit mm)*
G04 Created by KiCad (PCBNEW (5.1.5)-3) date 2020-07-08 15:45:16*
%MOMM*%
%LPD*%
G04 APERTURE LIST*
%ADD10R,1.500000X0.600000*%
%ADD11R,1.200000X0.900000*%
%ADD12R,0.900000X1.200000*%
G04 APERTURE END LIST*
D10*
X89185000Y-176060000D03*
X89185000Y-174790000D03*
X89185000Y-173520000D03*
X89185000Y-172250000D03*
X89185000Y-170980000D03*
X89185000Y-169710000D03*
X89185000Y-168440000D03*
X89185000Y-167170000D03*
X83785000Y-167170000D03*
X83785000Y-168440000D03*
X83785000Y-169710000D03*
X83785000Y-170980000D03*
X83785000Y-172250000D03*
X83785000Y-173520000D03*
X83785000Y-174790000D03*
X83785000Y-176060000D03*
X117280000Y-176060000D03*
X117280000Y-174790000D03*
X117280000Y-173520000D03*
X117280000Y-172250000D03*
X117280000Y-170980000D03*
X117280000Y-169710000D03*
X117280000Y-168440000D03*
X117280000Y-167170000D03*
X122680000Y-167170000D03*
X122680000Y-168440000D03*
X122680000Y-169710000D03*
X122680000Y-170980000D03*
X122680000Y-172250000D03*
X122680000Y-173520000D03*
X122680000Y-174790000D03*
X122680000Y-176060000D03*
D11*
X96020000Y-175425000D03*
X98220000Y-175425000D03*
X153805000Y-160820000D03*
X156005000Y-160820000D03*
D12*
X76165000Y-165900000D03*
X76165000Y-168100000D03*
D11*
X81075000Y-174790000D03*
X78875000Y-174790000D03*
X134120000Y-166535000D03*
X136320000Y-166535000D03*
X96020000Y-158280000D03*
X98220000Y-158280000D03*
X136320000Y-155105000D03*
X134120000Y-155105000D03*
X98220000Y-152565000D03*
X96020000Y-152565000D03*
D12*
X84420000Y-151930000D03*
X84420000Y-154130000D03*
D11*
X98220000Y-163995000D03*
X96020000Y-163995000D03*
X96020000Y-169710000D03*
X98220000Y-169710000D03*
D12*
X78070000Y-168100000D03*
X78070000Y-165900000D03*
X79975000Y-168100000D03*
X79975000Y-165900000D03*
D11*
X156005000Y-172250000D03*
X153805000Y-172250000D03*
X127895000Y-139865000D03*
X125695000Y-139865000D03*
X156005000Y-155105000D03*
X153805000Y-155105000D03*
X136320000Y-172250000D03*
X134120000Y-172250000D03*
X156005000Y-166535000D03*
X153805000Y-166535000D03*
X136320000Y-160820000D03*
X134120000Y-160820000D03*
M02*
