G04 #@! TF.GenerationSoftware,KiCad,Pcbnew,(5.1.4)-1*
G04 #@! TF.CreationDate,2020-11-15T15:40:13+01:00*
G04 #@! TF.ProjectId,Sensorplatine,53656e73-6f72-4706-9c61-74696e652e6b,rev?*
G04 #@! TF.SameCoordinates,Original*
G04 #@! TF.FileFunction,Soldermask,Top*
G04 #@! TF.FilePolarity,Negative*
%FSLAX46Y46*%
G04 Gerber Fmt 4.6, Leading zero omitted, Abs format (unit mm)*
G04 Created by KiCad (PCBNEW (5.1.4)-1) date 2020-11-15 15:40:13*
%MOMM*%
%LPD*%
G04 APERTURE LIST*
%ADD10C,0.100000*%
G04 APERTURE END LIST*
D10*
G36*
X165362199Y-98479954D02*
G01*
X165374450Y-98480556D01*
X165392869Y-98480556D01*
X165415149Y-98482750D01*
X165499233Y-98499476D01*
X165520660Y-98505976D01*
X165599858Y-98538780D01*
X165605303Y-98541691D01*
X165605309Y-98541693D01*
X165614169Y-98546429D01*
X165614173Y-98546432D01*
X165619614Y-98549340D01*
X165690899Y-98596971D01*
X165708204Y-98611172D01*
X165768828Y-98671796D01*
X165783029Y-98689101D01*
X165830660Y-98760386D01*
X165833568Y-98765827D01*
X165833571Y-98765831D01*
X165838307Y-98774691D01*
X165838309Y-98774697D01*
X165841220Y-98780142D01*
X165874024Y-98859340D01*
X165880524Y-98880767D01*
X165897250Y-98964851D01*
X165899444Y-98987131D01*
X165899444Y-99005550D01*
X165900046Y-99017801D01*
X165901852Y-99036139D01*
X165901852Y-99523860D01*
X165900263Y-99539999D01*
X165897348Y-99549608D01*
X165892610Y-99558472D01*
X165886237Y-99566237D01*
X165873794Y-99576448D01*
X165863425Y-99583378D01*
X165846098Y-99600705D01*
X165832485Y-99621080D01*
X165823109Y-99643720D01*
X165818329Y-99667753D01*
X165818330Y-99692257D01*
X165823112Y-99716290D01*
X165832490Y-99738929D01*
X165846105Y-99759302D01*
X165863432Y-99776629D01*
X165873802Y-99783558D01*
X165886237Y-99793763D01*
X165892610Y-99801528D01*
X165897348Y-99810392D01*
X165900263Y-99820001D01*
X165901852Y-99836140D01*
X165901852Y-100323862D01*
X165900046Y-100342199D01*
X165899444Y-100354450D01*
X165899444Y-100372869D01*
X165897250Y-100395149D01*
X165880524Y-100479233D01*
X165874024Y-100500660D01*
X165841220Y-100579858D01*
X165838309Y-100585303D01*
X165838307Y-100585309D01*
X165833571Y-100594169D01*
X165833568Y-100594173D01*
X165830660Y-100599614D01*
X165783029Y-100670899D01*
X165768828Y-100688204D01*
X165708204Y-100748828D01*
X165690899Y-100763029D01*
X165619614Y-100810660D01*
X165614173Y-100813568D01*
X165614169Y-100813571D01*
X165605309Y-100818307D01*
X165605303Y-100818309D01*
X165599858Y-100821220D01*
X165520660Y-100854024D01*
X165499233Y-100860524D01*
X165415149Y-100877250D01*
X165392869Y-100879444D01*
X165374450Y-100879444D01*
X165362199Y-100880046D01*
X165343862Y-100881852D01*
X164856138Y-100881852D01*
X164837801Y-100880046D01*
X164825550Y-100879444D01*
X164807131Y-100879444D01*
X164784851Y-100877250D01*
X164700767Y-100860524D01*
X164679340Y-100854024D01*
X164600142Y-100821220D01*
X164594697Y-100818309D01*
X164594691Y-100818307D01*
X164585831Y-100813571D01*
X164585827Y-100813568D01*
X164580386Y-100810660D01*
X164509101Y-100763029D01*
X164491796Y-100748828D01*
X164431172Y-100688204D01*
X164416971Y-100670899D01*
X164369340Y-100599614D01*
X164366432Y-100594173D01*
X164366429Y-100594169D01*
X164361693Y-100585309D01*
X164361691Y-100585303D01*
X164358780Y-100579858D01*
X164325976Y-100500660D01*
X164319476Y-100479233D01*
X164302750Y-100395149D01*
X164300556Y-100372869D01*
X164300556Y-100354450D01*
X164299954Y-100342199D01*
X164298148Y-100323862D01*
X164298148Y-99836140D01*
X164299737Y-99820001D01*
X164302652Y-99810392D01*
X164307390Y-99801528D01*
X164313763Y-99793763D01*
X164326206Y-99783552D01*
X164336575Y-99776622D01*
X164353902Y-99759295D01*
X164367515Y-99738920D01*
X164376891Y-99716280D01*
X164381671Y-99692247D01*
X164381670Y-99667743D01*
X164376888Y-99643710D01*
X164367510Y-99621071D01*
X164353895Y-99600698D01*
X164336568Y-99583371D01*
X164326198Y-99576442D01*
X164313763Y-99566237D01*
X164307390Y-99558472D01*
X164302652Y-99549608D01*
X164299737Y-99539999D01*
X164298148Y-99523860D01*
X164298148Y-99036139D01*
X164299954Y-99017801D01*
X164300556Y-99005550D01*
X164300556Y-98987131D01*
X164302750Y-98964851D01*
X164319476Y-98880767D01*
X164325976Y-98859340D01*
X164358780Y-98780142D01*
X164361691Y-98774697D01*
X164361693Y-98774691D01*
X164366429Y-98765831D01*
X164366432Y-98765827D01*
X164369340Y-98760386D01*
X164416971Y-98689101D01*
X164431172Y-98671796D01*
X164491796Y-98611172D01*
X164509101Y-98596971D01*
X164580386Y-98549340D01*
X164585827Y-98546432D01*
X164585831Y-98546429D01*
X164594691Y-98541693D01*
X164594697Y-98541691D01*
X164600142Y-98538780D01*
X164679340Y-98505976D01*
X164700767Y-98499476D01*
X164784851Y-98482750D01*
X164807131Y-98480556D01*
X164825550Y-98480556D01*
X164837801Y-98479954D01*
X164856139Y-98478148D01*
X165343861Y-98478148D01*
X165362199Y-98479954D01*
X165362199Y-98479954D01*
G37*
G36*
X176154499Y-99808445D02*
G01*
X176191995Y-99819820D01*
X176226554Y-99838292D01*
X176256847Y-99863153D01*
X176281708Y-99893446D01*
X176300180Y-99928005D01*
X176311555Y-99965501D01*
X176316000Y-100010638D01*
X176316000Y-100649362D01*
X176311555Y-100694499D01*
X176300180Y-100731995D01*
X176281708Y-100766554D01*
X176256847Y-100796847D01*
X176226554Y-100821708D01*
X176191995Y-100840180D01*
X176154499Y-100851555D01*
X176109362Y-100856000D01*
X175370638Y-100856000D01*
X175325501Y-100851555D01*
X175288005Y-100840180D01*
X175253446Y-100821708D01*
X175223153Y-100796847D01*
X175198292Y-100766554D01*
X175179820Y-100731995D01*
X175168445Y-100694499D01*
X175164000Y-100649362D01*
X175164000Y-100010638D01*
X175168445Y-99965501D01*
X175179820Y-99928005D01*
X175198292Y-99893446D01*
X175223153Y-99863153D01*
X175253446Y-99838292D01*
X175288005Y-99819820D01*
X175325501Y-99808445D01*
X175370638Y-99804000D01*
X176109362Y-99804000D01*
X176154499Y-99808445D01*
X176154499Y-99808445D01*
G37*
G36*
X168844499Y-99808445D02*
G01*
X168881995Y-99819820D01*
X168916554Y-99838292D01*
X168946847Y-99863153D01*
X168971708Y-99893446D01*
X168990180Y-99928005D01*
X169001555Y-99965501D01*
X169006000Y-100010638D01*
X169006000Y-100649362D01*
X169001555Y-100694499D01*
X168990180Y-100731995D01*
X168971708Y-100766554D01*
X168946847Y-100796847D01*
X168916554Y-100821708D01*
X168881995Y-100840180D01*
X168844499Y-100851555D01*
X168799362Y-100856000D01*
X168060638Y-100856000D01*
X168015501Y-100851555D01*
X167978005Y-100840180D01*
X167943446Y-100821708D01*
X167913153Y-100796847D01*
X167888292Y-100766554D01*
X167869820Y-100731995D01*
X167858445Y-100694499D01*
X167854000Y-100649362D01*
X167854000Y-100010638D01*
X167858445Y-99965501D01*
X167869820Y-99928005D01*
X167888292Y-99893446D01*
X167913153Y-99863153D01*
X167943446Y-99838292D01*
X167978005Y-99819820D01*
X168015501Y-99808445D01*
X168060638Y-99804000D01*
X168799362Y-99804000D01*
X168844499Y-99808445D01*
X168844499Y-99808445D01*
G37*
G36*
X174404499Y-99808445D02*
G01*
X174441995Y-99819820D01*
X174476554Y-99838292D01*
X174506847Y-99863153D01*
X174531708Y-99893446D01*
X174550180Y-99928005D01*
X174561555Y-99965501D01*
X174566000Y-100010638D01*
X174566000Y-100649362D01*
X174561555Y-100694499D01*
X174550180Y-100731995D01*
X174531708Y-100766554D01*
X174506847Y-100796847D01*
X174476554Y-100821708D01*
X174441995Y-100840180D01*
X174404499Y-100851555D01*
X174359362Y-100856000D01*
X173620638Y-100856000D01*
X173575501Y-100851555D01*
X173538005Y-100840180D01*
X173503446Y-100821708D01*
X173473153Y-100796847D01*
X173448292Y-100766554D01*
X173429820Y-100731995D01*
X173418445Y-100694499D01*
X173414000Y-100649362D01*
X173414000Y-100010638D01*
X173418445Y-99965501D01*
X173429820Y-99928005D01*
X173448292Y-99893446D01*
X173473153Y-99863153D01*
X173503446Y-99838292D01*
X173538005Y-99819820D01*
X173575501Y-99808445D01*
X173620638Y-99804000D01*
X174359362Y-99804000D01*
X174404499Y-99808445D01*
X174404499Y-99808445D01*
G37*
G36*
X170594499Y-99808445D02*
G01*
X170631995Y-99819820D01*
X170666554Y-99838292D01*
X170696847Y-99863153D01*
X170721708Y-99893446D01*
X170740180Y-99928005D01*
X170751555Y-99965501D01*
X170756000Y-100010638D01*
X170756000Y-100649362D01*
X170751555Y-100694499D01*
X170740180Y-100731995D01*
X170721708Y-100766554D01*
X170696847Y-100796847D01*
X170666554Y-100821708D01*
X170631995Y-100840180D01*
X170594499Y-100851555D01*
X170549362Y-100856000D01*
X169810638Y-100856000D01*
X169765501Y-100851555D01*
X169728005Y-100840180D01*
X169693446Y-100821708D01*
X169663153Y-100796847D01*
X169638292Y-100766554D01*
X169619820Y-100731995D01*
X169608445Y-100694499D01*
X169604000Y-100649362D01*
X169604000Y-100010638D01*
X169608445Y-99965501D01*
X169619820Y-99928005D01*
X169638292Y-99893446D01*
X169663153Y-99863153D01*
X169693446Y-99838292D01*
X169728005Y-99819820D01*
X169765501Y-99808445D01*
X169810638Y-99804000D01*
X170549362Y-99804000D01*
X170594499Y-99808445D01*
X170594499Y-99808445D01*
G37*
G36*
X180450442Y-97530518D02*
G01*
X180516627Y-97537037D01*
X180686466Y-97588557D01*
X180842991Y-97672222D01*
X180878729Y-97701552D01*
X180980186Y-97784814D01*
X181063448Y-97886271D01*
X181092778Y-97922009D01*
X181176443Y-98078534D01*
X181227963Y-98248373D01*
X181245359Y-98425000D01*
X181227963Y-98601627D01*
X181176443Y-98771466D01*
X181092778Y-98927991D01*
X181077543Y-98946555D01*
X180980186Y-99065186D01*
X180878729Y-99148448D01*
X180842991Y-99177778D01*
X180686466Y-99261443D01*
X180516627Y-99312963D01*
X180450442Y-99319482D01*
X180384260Y-99326000D01*
X180295740Y-99326000D01*
X180229557Y-99319481D01*
X180163373Y-99312963D01*
X179993534Y-99261443D01*
X179837009Y-99177778D01*
X179801271Y-99148448D01*
X179699814Y-99065186D01*
X179602457Y-98946555D01*
X179587222Y-98927991D01*
X179503557Y-98771466D01*
X179452037Y-98601627D01*
X179434641Y-98425000D01*
X179452037Y-98248373D01*
X179503557Y-98078534D01*
X179587222Y-97922009D01*
X179616552Y-97886271D01*
X179699814Y-97784814D01*
X179801271Y-97701552D01*
X179837009Y-97672222D01*
X179993534Y-97588557D01*
X180163373Y-97537037D01*
X180229558Y-97530518D01*
X180295740Y-97524000D01*
X180384260Y-97524000D01*
X180450442Y-97530518D01*
X180450442Y-97530518D01*
G37*
G36*
X182990442Y-97530518D02*
G01*
X183056627Y-97537037D01*
X183226466Y-97588557D01*
X183382991Y-97672222D01*
X183418729Y-97701552D01*
X183520186Y-97784814D01*
X183603448Y-97886271D01*
X183632778Y-97922009D01*
X183716443Y-98078534D01*
X183767963Y-98248373D01*
X183785359Y-98425000D01*
X183767963Y-98601627D01*
X183716443Y-98771466D01*
X183632778Y-98927991D01*
X183617543Y-98946555D01*
X183520186Y-99065186D01*
X183418729Y-99148448D01*
X183382991Y-99177778D01*
X183226466Y-99261443D01*
X183056627Y-99312963D01*
X182990442Y-99319482D01*
X182924260Y-99326000D01*
X182835740Y-99326000D01*
X182769557Y-99319481D01*
X182703373Y-99312963D01*
X182533534Y-99261443D01*
X182377009Y-99177778D01*
X182341271Y-99148448D01*
X182239814Y-99065186D01*
X182142457Y-98946555D01*
X182127222Y-98927991D01*
X182043557Y-98771466D01*
X181992037Y-98601627D01*
X181974641Y-98425000D01*
X181992037Y-98248373D01*
X182043557Y-98078534D01*
X182127222Y-97922009D01*
X182156552Y-97886271D01*
X182239814Y-97784814D01*
X182341271Y-97701552D01*
X182377009Y-97672222D01*
X182533534Y-97588557D01*
X182703373Y-97537037D01*
X182769558Y-97530518D01*
X182835740Y-97524000D01*
X182924260Y-97524000D01*
X182990442Y-97530518D01*
X182990442Y-97530518D01*
G37*
G36*
X174404499Y-97903445D02*
G01*
X174441995Y-97914820D01*
X174476554Y-97933292D01*
X174506847Y-97958153D01*
X174531708Y-97988446D01*
X174550180Y-98023005D01*
X174561555Y-98060501D01*
X174566000Y-98105638D01*
X174566000Y-98744362D01*
X174561555Y-98789499D01*
X174550180Y-98826995D01*
X174531708Y-98861554D01*
X174506847Y-98891847D01*
X174476554Y-98916708D01*
X174441995Y-98935180D01*
X174404499Y-98946555D01*
X174359362Y-98951000D01*
X173620638Y-98951000D01*
X173575501Y-98946555D01*
X173538005Y-98935180D01*
X173503446Y-98916708D01*
X173473153Y-98891847D01*
X173448292Y-98861554D01*
X173429820Y-98826995D01*
X173418445Y-98789499D01*
X173414000Y-98744362D01*
X173414000Y-98105638D01*
X173418445Y-98060501D01*
X173429820Y-98023005D01*
X173448292Y-97988446D01*
X173473153Y-97958153D01*
X173503446Y-97933292D01*
X173538005Y-97914820D01*
X173575501Y-97903445D01*
X173620638Y-97899000D01*
X174359362Y-97899000D01*
X174404499Y-97903445D01*
X174404499Y-97903445D01*
G37*
G36*
X176154499Y-97903445D02*
G01*
X176191995Y-97914820D01*
X176226554Y-97933292D01*
X176256847Y-97958153D01*
X176281708Y-97988446D01*
X176300180Y-98023005D01*
X176311555Y-98060501D01*
X176316000Y-98105638D01*
X176316000Y-98744362D01*
X176311555Y-98789499D01*
X176300180Y-98826995D01*
X176281708Y-98861554D01*
X176256847Y-98891847D01*
X176226554Y-98916708D01*
X176191995Y-98935180D01*
X176154499Y-98946555D01*
X176109362Y-98951000D01*
X175370638Y-98951000D01*
X175325501Y-98946555D01*
X175288005Y-98935180D01*
X175253446Y-98916708D01*
X175223153Y-98891847D01*
X175198292Y-98861554D01*
X175179820Y-98826995D01*
X175168445Y-98789499D01*
X175164000Y-98744362D01*
X175164000Y-98105638D01*
X175168445Y-98060501D01*
X175179820Y-98023005D01*
X175198292Y-97988446D01*
X175223153Y-97958153D01*
X175253446Y-97933292D01*
X175288005Y-97914820D01*
X175325501Y-97903445D01*
X175370638Y-97899000D01*
X176109362Y-97899000D01*
X176154499Y-97903445D01*
X176154499Y-97903445D01*
G37*
G36*
X168844499Y-97903445D02*
G01*
X168881995Y-97914820D01*
X168916554Y-97933292D01*
X168946847Y-97958153D01*
X168971708Y-97988446D01*
X168990180Y-98023005D01*
X169001555Y-98060501D01*
X169006000Y-98105638D01*
X169006000Y-98744362D01*
X169001555Y-98789499D01*
X168990180Y-98826995D01*
X168971708Y-98861554D01*
X168946847Y-98891847D01*
X168916554Y-98916708D01*
X168881995Y-98935180D01*
X168844499Y-98946555D01*
X168799362Y-98951000D01*
X168060638Y-98951000D01*
X168015501Y-98946555D01*
X167978005Y-98935180D01*
X167943446Y-98916708D01*
X167913153Y-98891847D01*
X167888292Y-98861554D01*
X167869820Y-98826995D01*
X167858445Y-98789499D01*
X167854000Y-98744362D01*
X167854000Y-98105638D01*
X167858445Y-98060501D01*
X167869820Y-98023005D01*
X167888292Y-97988446D01*
X167913153Y-97958153D01*
X167943446Y-97933292D01*
X167978005Y-97914820D01*
X168015501Y-97903445D01*
X168060638Y-97899000D01*
X168799362Y-97899000D01*
X168844499Y-97903445D01*
X168844499Y-97903445D01*
G37*
G36*
X170594499Y-97903445D02*
G01*
X170631995Y-97914820D01*
X170666554Y-97933292D01*
X170696847Y-97958153D01*
X170721708Y-97988446D01*
X170740180Y-98023005D01*
X170751555Y-98060501D01*
X170756000Y-98105638D01*
X170756000Y-98744362D01*
X170751555Y-98789499D01*
X170740180Y-98826995D01*
X170721708Y-98861554D01*
X170696847Y-98891847D01*
X170666554Y-98916708D01*
X170631995Y-98935180D01*
X170594499Y-98946555D01*
X170549362Y-98951000D01*
X169810638Y-98951000D01*
X169765501Y-98946555D01*
X169728005Y-98935180D01*
X169693446Y-98916708D01*
X169663153Y-98891847D01*
X169638292Y-98861554D01*
X169619820Y-98826995D01*
X169608445Y-98789499D01*
X169604000Y-98744362D01*
X169604000Y-98105638D01*
X169608445Y-98060501D01*
X169619820Y-98023005D01*
X169638292Y-97988446D01*
X169663153Y-97958153D01*
X169693446Y-97933292D01*
X169728005Y-97914820D01*
X169765501Y-97903445D01*
X169810638Y-97899000D01*
X170549362Y-97899000D01*
X170594499Y-97903445D01*
X170594499Y-97903445D01*
G37*
G36*
X160130442Y-95625518D02*
G01*
X160196627Y-95632037D01*
X160366466Y-95683557D01*
X160366468Y-95683558D01*
X160411615Y-95707690D01*
X160522991Y-95767222D01*
X160544044Y-95784500D01*
X160660186Y-95879814D01*
X160712861Y-95944000D01*
X160772778Y-96017009D01*
X160772779Y-96017011D01*
X160844573Y-96151326D01*
X160856443Y-96173534D01*
X160907963Y-96343373D01*
X160925359Y-96520000D01*
X160907963Y-96696627D01*
X160856443Y-96866466D01*
X160772778Y-97022991D01*
X160749236Y-97051677D01*
X160660186Y-97160186D01*
X160558729Y-97243448D01*
X160522991Y-97272778D01*
X160366466Y-97356443D01*
X160196627Y-97407963D01*
X160130442Y-97414482D01*
X160064260Y-97421000D01*
X159975740Y-97421000D01*
X159909558Y-97414482D01*
X159843373Y-97407963D01*
X159673534Y-97356443D01*
X159517009Y-97272778D01*
X159481271Y-97243448D01*
X159379814Y-97160186D01*
X159290764Y-97051677D01*
X159267222Y-97022991D01*
X159183557Y-96866466D01*
X159132037Y-96696627D01*
X159114641Y-96520000D01*
X159132037Y-96343373D01*
X159183557Y-96173534D01*
X159195428Y-96151326D01*
X159267221Y-96017011D01*
X159267222Y-96017009D01*
X159327139Y-95944000D01*
X159379814Y-95879814D01*
X159495956Y-95784500D01*
X159517009Y-95767222D01*
X159628385Y-95707690D01*
X159673532Y-95683558D01*
X159673534Y-95683557D01*
X159843373Y-95632037D01*
X159909558Y-95625518D01*
X159975740Y-95619000D01*
X160064260Y-95619000D01*
X160130442Y-95625518D01*
X160130442Y-95625518D01*
G37*
G36*
X174354499Y-95948445D02*
G01*
X174391995Y-95959820D01*
X174426554Y-95978292D01*
X174456847Y-96003153D01*
X174481708Y-96033446D01*
X174500180Y-96068005D01*
X174511555Y-96105501D01*
X174516000Y-96150638D01*
X174516000Y-96889362D01*
X174511555Y-96934499D01*
X174500180Y-96971995D01*
X174481708Y-97006554D01*
X174456847Y-97036847D01*
X174426554Y-97061708D01*
X174391995Y-97080180D01*
X174354499Y-97091555D01*
X174309362Y-97096000D01*
X173670638Y-97096000D01*
X173625501Y-97091555D01*
X173588005Y-97080180D01*
X173553446Y-97061708D01*
X173523153Y-97036847D01*
X173498292Y-97006554D01*
X173479820Y-96971995D01*
X173468445Y-96934499D01*
X173464000Y-96889362D01*
X173464000Y-96150638D01*
X173468445Y-96105501D01*
X173479820Y-96068005D01*
X173498292Y-96033446D01*
X173523153Y-96003153D01*
X173553446Y-95978292D01*
X173588005Y-95959820D01*
X173625501Y-95948445D01*
X173670638Y-95944000D01*
X174309362Y-95944000D01*
X174354499Y-95948445D01*
X174354499Y-95948445D01*
G37*
G36*
X176259499Y-95948445D02*
G01*
X176296995Y-95959820D01*
X176331554Y-95978292D01*
X176361847Y-96003153D01*
X176386708Y-96033446D01*
X176405180Y-96068005D01*
X176416555Y-96105501D01*
X176421000Y-96150638D01*
X176421000Y-96889362D01*
X176416555Y-96934499D01*
X176405180Y-96971995D01*
X176386708Y-97006554D01*
X176361847Y-97036847D01*
X176331554Y-97061708D01*
X176296995Y-97080180D01*
X176259499Y-97091555D01*
X176214362Y-97096000D01*
X175575638Y-97096000D01*
X175530501Y-97091555D01*
X175493005Y-97080180D01*
X175458446Y-97061708D01*
X175428153Y-97036847D01*
X175403292Y-97006554D01*
X175384820Y-96971995D01*
X175373445Y-96934499D01*
X175369000Y-96889362D01*
X175369000Y-96150638D01*
X175373445Y-96105501D01*
X175384820Y-96068005D01*
X175403292Y-96033446D01*
X175428153Y-96003153D01*
X175458446Y-95978292D01*
X175493005Y-95959820D01*
X175530501Y-95948445D01*
X175575638Y-95944000D01*
X176214362Y-95944000D01*
X176259499Y-95948445D01*
X176259499Y-95948445D01*
G37*
G36*
X182990443Y-94990519D02*
G01*
X183056627Y-94997037D01*
X183226466Y-95048557D01*
X183382991Y-95132222D01*
X183418729Y-95161552D01*
X183520186Y-95244814D01*
X183586796Y-95325980D01*
X183632778Y-95382009D01*
X183716443Y-95538534D01*
X183767963Y-95708373D01*
X183785359Y-95885000D01*
X183767963Y-96061627D01*
X183716443Y-96231466D01*
X183632778Y-96387991D01*
X183603448Y-96423729D01*
X183520186Y-96525186D01*
X183418729Y-96608448D01*
X183382991Y-96637778D01*
X183226466Y-96721443D01*
X183056627Y-96772963D01*
X182990442Y-96779482D01*
X182924260Y-96786000D01*
X182835740Y-96786000D01*
X182769558Y-96779482D01*
X182703373Y-96772963D01*
X182533534Y-96721443D01*
X182377009Y-96637778D01*
X182341271Y-96608448D01*
X182239814Y-96525186D01*
X182156552Y-96423729D01*
X182127222Y-96387991D01*
X182043557Y-96231466D01*
X181992037Y-96061627D01*
X181974641Y-95885000D01*
X181992037Y-95708373D01*
X182043557Y-95538534D01*
X182127222Y-95382009D01*
X182173204Y-95325980D01*
X182239814Y-95244814D01*
X182341271Y-95161552D01*
X182377009Y-95132222D01*
X182533534Y-95048557D01*
X182703373Y-94997037D01*
X182769557Y-94990519D01*
X182835740Y-94984000D01*
X182924260Y-94984000D01*
X182990443Y-94990519D01*
X182990443Y-94990519D01*
G37*
G36*
X180450443Y-94990519D02*
G01*
X180516627Y-94997037D01*
X180686466Y-95048557D01*
X180842991Y-95132222D01*
X180878729Y-95161552D01*
X180980186Y-95244814D01*
X181046796Y-95325980D01*
X181092778Y-95382009D01*
X181176443Y-95538534D01*
X181227963Y-95708373D01*
X181245359Y-95885000D01*
X181227963Y-96061627D01*
X181176443Y-96231466D01*
X181092778Y-96387991D01*
X181063448Y-96423729D01*
X180980186Y-96525186D01*
X180878729Y-96608448D01*
X180842991Y-96637778D01*
X180686466Y-96721443D01*
X180516627Y-96772963D01*
X180450442Y-96779482D01*
X180384260Y-96786000D01*
X180295740Y-96786000D01*
X180229558Y-96779482D01*
X180163373Y-96772963D01*
X179993534Y-96721443D01*
X179837009Y-96637778D01*
X179801271Y-96608448D01*
X179699814Y-96525186D01*
X179616552Y-96423729D01*
X179587222Y-96387991D01*
X179503557Y-96231466D01*
X179452037Y-96061627D01*
X179434641Y-95885000D01*
X179452037Y-95708373D01*
X179503557Y-95538534D01*
X179587222Y-95382009D01*
X179633204Y-95325980D01*
X179699814Y-95244814D01*
X179801271Y-95161552D01*
X179837009Y-95132222D01*
X179993534Y-95048557D01*
X180163373Y-94997037D01*
X180229557Y-94990519D01*
X180295740Y-94984000D01*
X180384260Y-94984000D01*
X180450443Y-94990519D01*
X180450443Y-94990519D01*
G37*
G36*
X170754295Y-95177323D02*
G01*
X170761310Y-95179451D01*
X170767776Y-95182908D01*
X170773442Y-95187558D01*
X170778092Y-95193224D01*
X170781549Y-95199690D01*
X170783677Y-95206705D01*
X170785000Y-95220140D01*
X170785000Y-95533860D01*
X170783677Y-95547295D01*
X170781549Y-95554310D01*
X170772590Y-95571070D01*
X170771961Y-95572011D01*
X170762570Y-95594644D01*
X170757775Y-95618674D01*
X170757761Y-95643178D01*
X170762527Y-95667214D01*
X170771891Y-95689859D01*
X170772526Y-95690809D01*
X170781549Y-95707690D01*
X170783677Y-95714705D01*
X170785000Y-95728140D01*
X170785000Y-96041860D01*
X170783677Y-96055295D01*
X170781549Y-96062310D01*
X170772590Y-96079070D01*
X170771961Y-96080011D01*
X170762570Y-96102644D01*
X170757775Y-96126674D01*
X170757761Y-96151178D01*
X170762527Y-96175214D01*
X170771891Y-96197859D01*
X170772526Y-96198809D01*
X170781549Y-96215690D01*
X170783677Y-96222705D01*
X170785000Y-96236140D01*
X170785000Y-96549860D01*
X170783677Y-96563295D01*
X170781549Y-96570310D01*
X170778092Y-96576776D01*
X170773442Y-96582442D01*
X170767776Y-96587092D01*
X170761310Y-96590549D01*
X170754295Y-96592677D01*
X170740860Y-96594000D01*
X170127140Y-96594000D01*
X170113705Y-96592677D01*
X170106690Y-96590549D01*
X170100224Y-96587092D01*
X170094558Y-96582442D01*
X170089908Y-96576776D01*
X170086451Y-96570310D01*
X170084323Y-96563295D01*
X170083000Y-96549860D01*
X170083000Y-96236140D01*
X170084323Y-96222705D01*
X170086451Y-96215690D01*
X170095410Y-96198930D01*
X170096039Y-96197989D01*
X170105430Y-96175356D01*
X170110225Y-96151326D01*
X170110239Y-96126822D01*
X170105473Y-96102786D01*
X170096109Y-96080141D01*
X170095474Y-96079191D01*
X170086451Y-96062310D01*
X170084323Y-96055295D01*
X170083000Y-96041860D01*
X170083000Y-95728140D01*
X170084323Y-95714705D01*
X170086451Y-95707690D01*
X170095410Y-95690930D01*
X170096039Y-95689989D01*
X170105430Y-95667356D01*
X170110225Y-95643326D01*
X170110239Y-95618822D01*
X170105473Y-95594786D01*
X170096109Y-95572141D01*
X170095474Y-95571191D01*
X170086451Y-95554310D01*
X170084323Y-95547295D01*
X170083000Y-95533860D01*
X170083000Y-95220140D01*
X170084323Y-95206705D01*
X170086451Y-95199690D01*
X170089908Y-95193224D01*
X170094558Y-95187558D01*
X170100224Y-95182908D01*
X170106690Y-95179451D01*
X170113705Y-95177323D01*
X170127140Y-95176000D01*
X170740860Y-95176000D01*
X170754295Y-95177323D01*
X170754295Y-95177323D01*
G37*
G36*
X168214295Y-95177323D02*
G01*
X168221310Y-95179451D01*
X168227776Y-95182908D01*
X168233442Y-95187558D01*
X168238092Y-95193224D01*
X168241549Y-95199690D01*
X168243677Y-95206705D01*
X168245000Y-95220140D01*
X168245000Y-95533860D01*
X168243677Y-95547295D01*
X168241549Y-95554310D01*
X168232590Y-95571070D01*
X168231961Y-95572011D01*
X168222570Y-95594644D01*
X168217775Y-95618674D01*
X168217761Y-95643178D01*
X168222527Y-95667214D01*
X168231891Y-95689859D01*
X168232526Y-95690809D01*
X168241549Y-95707690D01*
X168243677Y-95714705D01*
X168245000Y-95728140D01*
X168245000Y-96041860D01*
X168243677Y-96055295D01*
X168241549Y-96062310D01*
X168232590Y-96079070D01*
X168231961Y-96080011D01*
X168222570Y-96102644D01*
X168217775Y-96126674D01*
X168217761Y-96151178D01*
X168222527Y-96175214D01*
X168231891Y-96197859D01*
X168232526Y-96198809D01*
X168241549Y-96215690D01*
X168243677Y-96222705D01*
X168245000Y-96236140D01*
X168245000Y-96549860D01*
X168243677Y-96563295D01*
X168241549Y-96570310D01*
X168238092Y-96576776D01*
X168233442Y-96582442D01*
X168227776Y-96587092D01*
X168221310Y-96590549D01*
X168214295Y-96592677D01*
X168200860Y-96594000D01*
X167587140Y-96594000D01*
X167573705Y-96592677D01*
X167566690Y-96590549D01*
X167560224Y-96587092D01*
X167554558Y-96582442D01*
X167549908Y-96576776D01*
X167546451Y-96570310D01*
X167544323Y-96563295D01*
X167543000Y-96549860D01*
X167543000Y-96236140D01*
X167544323Y-96222705D01*
X167546451Y-96215690D01*
X167555410Y-96198930D01*
X167556039Y-96197989D01*
X167565430Y-96175356D01*
X167570225Y-96151326D01*
X167570239Y-96126822D01*
X167565473Y-96102786D01*
X167556109Y-96080141D01*
X167555474Y-96079191D01*
X167546451Y-96062310D01*
X167544323Y-96055295D01*
X167543000Y-96041860D01*
X167543000Y-95728140D01*
X167544323Y-95714705D01*
X167546451Y-95707690D01*
X167555410Y-95690930D01*
X167556039Y-95689989D01*
X167565430Y-95667356D01*
X167570225Y-95643326D01*
X167570239Y-95618822D01*
X167565473Y-95594786D01*
X167556109Y-95572141D01*
X167555474Y-95571191D01*
X167546451Y-95554310D01*
X167544323Y-95547295D01*
X167543000Y-95533860D01*
X167543000Y-95220140D01*
X167544323Y-95206705D01*
X167546451Y-95199690D01*
X167549908Y-95193224D01*
X167554558Y-95187558D01*
X167560224Y-95182908D01*
X167566690Y-95179451D01*
X167573705Y-95177323D01*
X167587140Y-95176000D01*
X168200860Y-95176000D01*
X168214295Y-95177323D01*
X168214295Y-95177323D01*
G37*
G36*
X176259499Y-94198445D02*
G01*
X176296995Y-94209820D01*
X176331554Y-94228292D01*
X176361847Y-94253153D01*
X176386708Y-94283446D01*
X176405180Y-94318005D01*
X176416555Y-94355501D01*
X176421000Y-94400638D01*
X176421000Y-95139362D01*
X176416555Y-95184499D01*
X176405180Y-95221995D01*
X176386708Y-95256554D01*
X176361847Y-95286847D01*
X176331554Y-95311708D01*
X176296995Y-95330180D01*
X176259499Y-95341555D01*
X176214362Y-95346000D01*
X175575638Y-95346000D01*
X175530501Y-95341555D01*
X175493005Y-95330180D01*
X175458446Y-95311708D01*
X175428153Y-95286847D01*
X175403292Y-95256554D01*
X175384820Y-95221995D01*
X175373445Y-95184499D01*
X175369000Y-95139362D01*
X175369000Y-94400638D01*
X175373445Y-94355501D01*
X175384820Y-94318005D01*
X175403292Y-94283446D01*
X175428153Y-94253153D01*
X175458446Y-94228292D01*
X175493005Y-94209820D01*
X175530501Y-94198445D01*
X175575638Y-94194000D01*
X176214362Y-94194000D01*
X176259499Y-94198445D01*
X176259499Y-94198445D01*
G37*
G36*
X174354499Y-94198445D02*
G01*
X174391995Y-94209820D01*
X174426554Y-94228292D01*
X174456847Y-94253153D01*
X174481708Y-94283446D01*
X174500180Y-94318005D01*
X174511555Y-94355501D01*
X174516000Y-94400638D01*
X174516000Y-95139362D01*
X174511555Y-95184499D01*
X174500180Y-95221995D01*
X174481708Y-95256554D01*
X174456847Y-95286847D01*
X174426554Y-95311708D01*
X174391995Y-95330180D01*
X174354499Y-95341555D01*
X174309362Y-95346000D01*
X173670638Y-95346000D01*
X173625501Y-95341555D01*
X173588005Y-95330180D01*
X173553446Y-95311708D01*
X173523153Y-95286847D01*
X173498292Y-95256554D01*
X173479820Y-95221995D01*
X173468445Y-95184499D01*
X173464000Y-95139362D01*
X173464000Y-94400638D01*
X173468445Y-94355501D01*
X173479820Y-94318005D01*
X173498292Y-94283446D01*
X173523153Y-94253153D01*
X173553446Y-94228292D01*
X173588005Y-94209820D01*
X173625501Y-94198445D01*
X173670638Y-94194000D01*
X174309362Y-94194000D01*
X174354499Y-94198445D01*
X174354499Y-94198445D01*
G37*
G36*
X160130443Y-93085519D02*
G01*
X160196627Y-93092037D01*
X160366466Y-93143557D01*
X160522991Y-93227222D01*
X160540604Y-93241677D01*
X160660186Y-93339814D01*
X160739577Y-93436554D01*
X160772778Y-93477009D01*
X160856443Y-93633534D01*
X160907963Y-93803373D01*
X160925359Y-93980000D01*
X160907963Y-94156627D01*
X160856443Y-94326466D01*
X160772778Y-94482991D01*
X160743448Y-94518729D01*
X160660186Y-94620186D01*
X160558729Y-94703448D01*
X160522991Y-94732778D01*
X160366466Y-94816443D01*
X160196627Y-94867963D01*
X160130443Y-94874481D01*
X160064260Y-94881000D01*
X159975740Y-94881000D01*
X159909557Y-94874481D01*
X159843373Y-94867963D01*
X159673534Y-94816443D01*
X159517009Y-94732778D01*
X159481271Y-94703448D01*
X159379814Y-94620186D01*
X159296552Y-94518729D01*
X159267222Y-94482991D01*
X159183557Y-94326466D01*
X159132037Y-94156627D01*
X159114641Y-93980000D01*
X159132037Y-93803373D01*
X159183557Y-93633534D01*
X159267222Y-93477009D01*
X159300423Y-93436554D01*
X159379814Y-93339814D01*
X159499396Y-93241677D01*
X159517009Y-93227222D01*
X159673534Y-93143557D01*
X159843373Y-93092037D01*
X159909557Y-93085519D01*
X159975740Y-93079000D01*
X160064260Y-93079000D01*
X160130443Y-93085519D01*
X160130443Y-93085519D01*
G37*
G36*
X183781000Y-94246000D02*
G01*
X181979000Y-94246000D01*
X181979000Y-92444000D01*
X183781000Y-92444000D01*
X183781000Y-94246000D01*
X183781000Y-94246000D01*
G37*
G36*
X180450443Y-92450519D02*
G01*
X180516627Y-92457037D01*
X180686466Y-92508557D01*
X180842991Y-92592222D01*
X180861981Y-92607807D01*
X180980186Y-92704814D01*
X181063448Y-92806271D01*
X181092778Y-92842009D01*
X181176443Y-92998534D01*
X181227963Y-93168373D01*
X181245359Y-93345000D01*
X181227963Y-93521627D01*
X181176443Y-93691466D01*
X181092778Y-93847991D01*
X181063448Y-93883729D01*
X180980186Y-93985186D01*
X180878729Y-94068448D01*
X180842991Y-94097778D01*
X180686466Y-94181443D01*
X180516627Y-94232963D01*
X180462205Y-94238323D01*
X180384260Y-94246000D01*
X180295740Y-94246000D01*
X180217795Y-94238323D01*
X180163373Y-94232963D01*
X179993534Y-94181443D01*
X179837009Y-94097778D01*
X179801271Y-94068448D01*
X179699814Y-93985186D01*
X179616552Y-93883729D01*
X179587222Y-93847991D01*
X179503557Y-93691466D01*
X179452037Y-93521627D01*
X179434641Y-93345000D01*
X179452037Y-93168373D01*
X179503557Y-92998534D01*
X179587222Y-92842009D01*
X179616552Y-92806271D01*
X179699814Y-92704814D01*
X179818019Y-92607807D01*
X179837009Y-92592222D01*
X179993534Y-92508557D01*
X180163373Y-92457037D01*
X180229557Y-92450519D01*
X180295740Y-92444000D01*
X180384260Y-92444000D01*
X180450443Y-92450519D01*
X180450443Y-92450519D01*
G37*
G36*
X164194499Y-92378445D02*
G01*
X164231995Y-92389820D01*
X164266554Y-92408292D01*
X164296847Y-92433153D01*
X164321708Y-92463446D01*
X164340180Y-92498005D01*
X164351555Y-92535501D01*
X164356000Y-92580638D01*
X164356000Y-93319362D01*
X164351555Y-93364499D01*
X164340180Y-93401995D01*
X164321708Y-93436554D01*
X164296847Y-93466847D01*
X164266554Y-93491708D01*
X164231995Y-93510180D01*
X164194499Y-93521555D01*
X164149362Y-93526000D01*
X163510638Y-93526000D01*
X163465501Y-93521555D01*
X163428005Y-93510180D01*
X163393446Y-93491708D01*
X163363153Y-93466847D01*
X163338292Y-93436554D01*
X163319820Y-93401995D01*
X163308445Y-93364499D01*
X163304000Y-93319362D01*
X163304000Y-92580638D01*
X163308445Y-92535501D01*
X163319820Y-92498005D01*
X163338292Y-92463446D01*
X163363153Y-92433153D01*
X163393446Y-92408292D01*
X163428005Y-92389820D01*
X163465501Y-92378445D01*
X163510638Y-92374000D01*
X164149362Y-92374000D01*
X164194499Y-92378445D01*
X164194499Y-92378445D01*
G37*
G36*
X176259499Y-92138445D02*
G01*
X176296995Y-92149820D01*
X176331554Y-92168292D01*
X176361847Y-92193153D01*
X176386708Y-92223446D01*
X176405180Y-92258005D01*
X176416555Y-92295501D01*
X176421000Y-92340638D01*
X176421000Y-93079362D01*
X176416555Y-93124499D01*
X176405180Y-93161995D01*
X176386708Y-93196554D01*
X176361847Y-93226847D01*
X176331554Y-93251708D01*
X176296995Y-93270180D01*
X176259499Y-93281555D01*
X176214362Y-93286000D01*
X175575638Y-93286000D01*
X175530501Y-93281555D01*
X175493005Y-93270180D01*
X175458446Y-93251708D01*
X175428153Y-93226847D01*
X175403292Y-93196554D01*
X175384820Y-93161995D01*
X175373445Y-93124499D01*
X175369000Y-93079362D01*
X175369000Y-92340638D01*
X175373445Y-92295501D01*
X175384820Y-92258005D01*
X175403292Y-92223446D01*
X175428153Y-92193153D01*
X175458446Y-92168292D01*
X175493005Y-92149820D01*
X175530501Y-92138445D01*
X175575638Y-92134000D01*
X176214362Y-92134000D01*
X176259499Y-92138445D01*
X176259499Y-92138445D01*
G37*
G36*
X174354499Y-92138445D02*
G01*
X174391995Y-92149820D01*
X174426554Y-92168292D01*
X174456847Y-92193153D01*
X174481708Y-92223446D01*
X174500180Y-92258005D01*
X174511555Y-92295501D01*
X174516000Y-92340638D01*
X174516000Y-93079362D01*
X174511555Y-93124499D01*
X174500180Y-93161995D01*
X174481708Y-93196554D01*
X174456847Y-93226847D01*
X174426554Y-93251708D01*
X174391995Y-93270180D01*
X174354499Y-93281555D01*
X174309362Y-93286000D01*
X173670638Y-93286000D01*
X173625501Y-93281555D01*
X173588005Y-93270180D01*
X173553446Y-93251708D01*
X173523153Y-93226847D01*
X173498292Y-93196554D01*
X173479820Y-93161995D01*
X173468445Y-93124499D01*
X173464000Y-93079362D01*
X173464000Y-92340638D01*
X173468445Y-92295501D01*
X173479820Y-92258005D01*
X173498292Y-92223446D01*
X173523153Y-92193153D01*
X173553446Y-92168292D01*
X173588005Y-92149820D01*
X173625501Y-92138445D01*
X173670638Y-92134000D01*
X174309362Y-92134000D01*
X174354499Y-92138445D01*
X174354499Y-92138445D01*
G37*
G36*
X167860170Y-90190803D02*
G01*
X167871875Y-90194354D01*
X167882665Y-90200121D01*
X167892119Y-90207881D01*
X167899879Y-90217335D01*
X167905646Y-90228125D01*
X167911350Y-90246927D01*
X167920728Y-90269566D01*
X167934342Y-90289940D01*
X167951670Y-90307266D01*
X167972044Y-90320880D01*
X167994683Y-90330256D01*
X168018717Y-90335036D01*
X168043221Y-90335036D01*
X168067254Y-90330255D01*
X168089893Y-90320877D01*
X168110267Y-90307263D01*
X168127593Y-90289935D01*
X168139447Y-90272193D01*
X168163222Y-90243222D01*
X168190964Y-90220456D01*
X168222613Y-90203539D01*
X168256952Y-90193122D01*
X168298807Y-90189000D01*
X169521193Y-90189000D01*
X169563048Y-90193122D01*
X169597387Y-90203539D01*
X169629036Y-90220456D01*
X169656778Y-90243222D01*
X169680552Y-90272192D01*
X169692406Y-90289934D01*
X169709732Y-90307262D01*
X169730106Y-90320876D01*
X169752745Y-90330254D01*
X169776778Y-90335036D01*
X169801282Y-90335037D01*
X169825315Y-90330257D01*
X169847954Y-90320880D01*
X169868329Y-90307267D01*
X169885657Y-90289941D01*
X169899271Y-90269567D01*
X169908650Y-90246927D01*
X169914354Y-90228125D01*
X169920121Y-90217335D01*
X169927881Y-90207881D01*
X169937335Y-90200121D01*
X169948125Y-90194354D01*
X169959830Y-90190803D01*
X169978138Y-90189000D01*
X170741862Y-90189000D01*
X170760170Y-90190803D01*
X170771875Y-90194354D01*
X170782665Y-90200121D01*
X170792119Y-90207881D01*
X170799879Y-90217335D01*
X170805646Y-90228125D01*
X170809197Y-90239830D01*
X170811000Y-90258138D01*
X170811000Y-90621862D01*
X170809197Y-90640170D01*
X170805646Y-90651875D01*
X170799879Y-90662665D01*
X170792119Y-90672119D01*
X170782665Y-90679879D01*
X170771875Y-90685646D01*
X170760170Y-90689197D01*
X170741862Y-90691000D01*
X169978138Y-90691000D01*
X169959830Y-90689197D01*
X169948125Y-90685646D01*
X169937335Y-90679879D01*
X169922096Y-90667372D01*
X169915298Y-90660574D01*
X169894924Y-90646960D01*
X169872285Y-90637583D01*
X169848252Y-90632802D01*
X169823748Y-90632802D01*
X169799715Y-90637582D01*
X169777076Y-90646959D01*
X169756701Y-90660573D01*
X169739374Y-90677900D01*
X169725760Y-90698274D01*
X169716383Y-90720913D01*
X169711602Y-90744946D01*
X169711000Y-90757199D01*
X169711000Y-91122801D01*
X169713402Y-91147187D01*
X169720515Y-91170636D01*
X169732066Y-91192247D01*
X169747611Y-91211189D01*
X169766553Y-91226734D01*
X169788164Y-91238285D01*
X169811613Y-91245398D01*
X169835999Y-91247800D01*
X169860385Y-91245398D01*
X169883834Y-91238285D01*
X169905445Y-91226734D01*
X169924387Y-91211189D01*
X169925948Y-91209467D01*
X169937335Y-91200121D01*
X169948125Y-91194354D01*
X169959830Y-91190803D01*
X169978138Y-91189000D01*
X170741862Y-91189000D01*
X170760170Y-91190803D01*
X170771875Y-91194354D01*
X170782665Y-91200121D01*
X170792119Y-91207881D01*
X170799879Y-91217335D01*
X170805646Y-91228125D01*
X170809197Y-91239830D01*
X170811000Y-91258138D01*
X170811000Y-91621862D01*
X170809197Y-91640170D01*
X170805646Y-91651875D01*
X170799879Y-91662665D01*
X170792119Y-91672119D01*
X170782665Y-91679879D01*
X170771875Y-91685646D01*
X170760170Y-91689197D01*
X170741862Y-91691000D01*
X169978138Y-91691000D01*
X169959830Y-91689197D01*
X169948125Y-91685646D01*
X169937335Y-91679879D01*
X169922096Y-91667372D01*
X169915298Y-91660574D01*
X169894924Y-91646960D01*
X169872285Y-91637583D01*
X169848252Y-91632802D01*
X169823748Y-91632802D01*
X169799715Y-91637582D01*
X169777076Y-91646959D01*
X169756701Y-91660573D01*
X169739374Y-91677900D01*
X169725760Y-91698274D01*
X169716383Y-91720913D01*
X169711602Y-91744946D01*
X169711000Y-91757199D01*
X169711000Y-92122801D01*
X169713402Y-92147187D01*
X169720515Y-92170636D01*
X169732066Y-92192247D01*
X169747611Y-92211189D01*
X169766553Y-92226734D01*
X169788164Y-92238285D01*
X169811613Y-92245398D01*
X169835999Y-92247800D01*
X169860385Y-92245398D01*
X169883834Y-92238285D01*
X169905445Y-92226734D01*
X169924387Y-92211189D01*
X169925948Y-92209467D01*
X169937335Y-92200121D01*
X169948125Y-92194354D01*
X169959830Y-92190803D01*
X169978138Y-92189000D01*
X170741862Y-92189000D01*
X170760170Y-92190803D01*
X170771875Y-92194354D01*
X170782665Y-92200121D01*
X170792119Y-92207881D01*
X170799879Y-92217335D01*
X170805646Y-92228125D01*
X170809197Y-92239830D01*
X170811000Y-92258138D01*
X170811000Y-92621862D01*
X170809197Y-92640170D01*
X170805646Y-92651875D01*
X170799879Y-92662665D01*
X170792119Y-92672119D01*
X170782665Y-92679879D01*
X170771875Y-92685646D01*
X170760170Y-92689197D01*
X170741862Y-92691000D01*
X169978138Y-92691000D01*
X169959830Y-92689197D01*
X169948125Y-92685646D01*
X169937335Y-92679879D01*
X169927881Y-92672119D01*
X169920121Y-92662665D01*
X169914354Y-92651875D01*
X169908650Y-92633073D01*
X169899272Y-92610434D01*
X169885658Y-92590060D01*
X169868330Y-92572734D01*
X169847956Y-92559120D01*
X169825317Y-92549744D01*
X169801283Y-92544964D01*
X169776779Y-92544964D01*
X169752746Y-92549745D01*
X169730107Y-92559123D01*
X169709733Y-92572737D01*
X169692407Y-92590065D01*
X169680553Y-92607807D01*
X169656778Y-92636778D01*
X169629036Y-92659544D01*
X169597387Y-92676461D01*
X169563048Y-92686878D01*
X169521193Y-92691000D01*
X168298807Y-92691000D01*
X168256952Y-92686878D01*
X168222613Y-92676461D01*
X168190964Y-92659544D01*
X168163222Y-92636778D01*
X168139448Y-92607808D01*
X168127594Y-92590066D01*
X168110268Y-92572738D01*
X168089894Y-92559124D01*
X168067255Y-92549746D01*
X168043222Y-92544964D01*
X168018718Y-92544963D01*
X167994685Y-92549743D01*
X167972046Y-92559120D01*
X167951671Y-92572733D01*
X167934343Y-92590059D01*
X167920729Y-92610433D01*
X167911350Y-92633073D01*
X167905646Y-92651875D01*
X167899879Y-92662665D01*
X167892119Y-92672119D01*
X167882665Y-92679879D01*
X167871875Y-92685646D01*
X167860170Y-92689197D01*
X167841862Y-92691000D01*
X167078138Y-92691000D01*
X167059830Y-92689197D01*
X167048125Y-92685646D01*
X167037335Y-92679879D01*
X167027881Y-92672119D01*
X167020121Y-92662665D01*
X167014354Y-92651875D01*
X167010803Y-92640170D01*
X167009000Y-92621862D01*
X167009000Y-92258138D01*
X167010803Y-92239830D01*
X167014354Y-92228125D01*
X167020121Y-92217335D01*
X167027881Y-92207881D01*
X167037335Y-92200121D01*
X167048125Y-92194354D01*
X167059830Y-92190803D01*
X167078138Y-92189000D01*
X167841862Y-92189000D01*
X167860170Y-92190803D01*
X167871875Y-92194354D01*
X167882665Y-92200121D01*
X167897904Y-92212628D01*
X167904702Y-92219426D01*
X167925076Y-92233040D01*
X167947715Y-92242417D01*
X167971748Y-92247198D01*
X167996252Y-92247198D01*
X168020285Y-92242418D01*
X168042924Y-92233041D01*
X168063299Y-92219427D01*
X168080626Y-92202100D01*
X168094240Y-92181726D01*
X168103617Y-92159087D01*
X168108398Y-92135054D01*
X168109000Y-92122801D01*
X168109000Y-91757199D01*
X168106598Y-91732813D01*
X168099485Y-91709364D01*
X168087934Y-91687753D01*
X168072389Y-91668811D01*
X168053447Y-91653266D01*
X168031836Y-91641715D01*
X168008387Y-91634602D01*
X167984001Y-91632200D01*
X167959615Y-91634602D01*
X167936166Y-91641715D01*
X167914555Y-91653266D01*
X167895613Y-91668811D01*
X167894052Y-91670533D01*
X167882665Y-91679879D01*
X167871875Y-91685646D01*
X167860170Y-91689197D01*
X167841862Y-91691000D01*
X167078138Y-91691000D01*
X167059830Y-91689197D01*
X167048125Y-91685646D01*
X167037335Y-91679879D01*
X167027881Y-91672119D01*
X167020121Y-91662665D01*
X167014354Y-91651875D01*
X167010803Y-91640170D01*
X167009000Y-91621862D01*
X167009000Y-91258138D01*
X167010803Y-91239830D01*
X167014354Y-91228125D01*
X167020121Y-91217335D01*
X167027881Y-91207881D01*
X167037335Y-91200121D01*
X167048125Y-91194354D01*
X167059830Y-91190803D01*
X167078138Y-91189000D01*
X167841862Y-91189000D01*
X167860170Y-91190803D01*
X167871875Y-91194354D01*
X167882665Y-91200121D01*
X167897904Y-91212628D01*
X167904702Y-91219426D01*
X167925076Y-91233040D01*
X167947715Y-91242417D01*
X167971748Y-91247198D01*
X167996252Y-91247198D01*
X168020285Y-91242418D01*
X168042924Y-91233041D01*
X168063299Y-91219427D01*
X168080626Y-91202100D01*
X168094240Y-91181726D01*
X168103617Y-91159087D01*
X168108398Y-91135054D01*
X168109000Y-91122801D01*
X168109000Y-90757199D01*
X168106598Y-90732813D01*
X168099485Y-90709364D01*
X168087934Y-90687753D01*
X168072389Y-90668811D01*
X168053447Y-90653266D01*
X168031836Y-90641715D01*
X168008387Y-90634602D01*
X167984001Y-90632200D01*
X167959615Y-90634602D01*
X167936166Y-90641715D01*
X167914555Y-90653266D01*
X167895613Y-90668811D01*
X167894052Y-90670533D01*
X167882665Y-90679879D01*
X167871875Y-90685646D01*
X167860170Y-90689197D01*
X167841862Y-90691000D01*
X167078138Y-90691000D01*
X167059830Y-90689197D01*
X167048125Y-90685646D01*
X167037335Y-90679879D01*
X167027881Y-90672119D01*
X167020121Y-90662665D01*
X167014354Y-90651875D01*
X167010803Y-90640170D01*
X167009000Y-90621862D01*
X167009000Y-90258138D01*
X167010803Y-90239830D01*
X167014354Y-90228125D01*
X167020121Y-90217335D01*
X167027881Y-90207881D01*
X167037335Y-90200121D01*
X167048125Y-90194354D01*
X167059830Y-90190803D01*
X167078138Y-90189000D01*
X167841862Y-90189000D01*
X167860170Y-90190803D01*
X167860170Y-90190803D01*
G37*
G36*
X160130265Y-90545501D02*
G01*
X160196627Y-90552037D01*
X160366466Y-90603557D01*
X160366468Y-90603558D01*
X160400712Y-90621862D01*
X160522991Y-90687222D01*
X160539817Y-90701031D01*
X160660186Y-90799814D01*
X160743448Y-90901271D01*
X160772778Y-90937009D01*
X160856443Y-91093534D01*
X160907963Y-91263373D01*
X160925359Y-91440000D01*
X160907963Y-91616627D01*
X160856443Y-91786466D01*
X160772778Y-91942991D01*
X160743448Y-91978729D01*
X160660186Y-92080186D01*
X160564043Y-92159087D01*
X160522991Y-92192778D01*
X160477048Y-92217335D01*
X160385119Y-92266473D01*
X160366466Y-92276443D01*
X160196627Y-92327963D01*
X160130443Y-92334481D01*
X160064260Y-92341000D01*
X159975740Y-92341000D01*
X159909557Y-92334481D01*
X159843373Y-92327963D01*
X159673534Y-92276443D01*
X159654882Y-92266473D01*
X159562952Y-92217335D01*
X159517009Y-92192778D01*
X159475957Y-92159087D01*
X159379814Y-92080186D01*
X159296552Y-91978729D01*
X159267222Y-91942991D01*
X159183557Y-91786466D01*
X159132037Y-91616627D01*
X159114641Y-91440000D01*
X159132037Y-91263373D01*
X159183557Y-91093534D01*
X159267222Y-90937009D01*
X159296552Y-90901271D01*
X159379814Y-90799814D01*
X159500183Y-90701031D01*
X159517009Y-90687222D01*
X159639288Y-90621862D01*
X159673532Y-90603558D01*
X159673534Y-90603557D01*
X159843373Y-90552037D01*
X159909735Y-90545501D01*
X159975740Y-90539000D01*
X160064260Y-90539000D01*
X160130265Y-90545501D01*
X160130265Y-90545501D01*
G37*
G36*
X164194499Y-90628445D02*
G01*
X164231995Y-90639820D01*
X164266554Y-90658292D01*
X164296847Y-90683153D01*
X164321708Y-90713446D01*
X164340180Y-90748005D01*
X164351555Y-90785501D01*
X164356000Y-90830638D01*
X164356000Y-91569362D01*
X164351555Y-91614499D01*
X164340180Y-91651995D01*
X164321708Y-91686554D01*
X164296847Y-91716847D01*
X164266554Y-91741708D01*
X164231995Y-91760180D01*
X164194499Y-91771555D01*
X164149362Y-91776000D01*
X163510638Y-91776000D01*
X163465501Y-91771555D01*
X163428005Y-91760180D01*
X163393446Y-91741708D01*
X163363153Y-91716847D01*
X163338292Y-91686554D01*
X163319820Y-91651995D01*
X163308445Y-91614499D01*
X163304000Y-91569362D01*
X163304000Y-90830638D01*
X163308445Y-90785501D01*
X163319820Y-90748005D01*
X163338292Y-90713446D01*
X163363153Y-90683153D01*
X163393446Y-90658292D01*
X163428005Y-90639820D01*
X163465501Y-90628445D01*
X163510638Y-90624000D01*
X164149362Y-90624000D01*
X164194499Y-90628445D01*
X164194499Y-90628445D01*
G37*
G36*
X176259499Y-90388445D02*
G01*
X176296995Y-90399820D01*
X176331554Y-90418292D01*
X176361847Y-90443153D01*
X176386708Y-90473446D01*
X176405180Y-90508005D01*
X176416555Y-90545501D01*
X176421000Y-90590638D01*
X176421000Y-91329362D01*
X176416555Y-91374499D01*
X176405180Y-91411995D01*
X176386708Y-91446554D01*
X176361847Y-91476847D01*
X176331554Y-91501708D01*
X176296995Y-91520180D01*
X176259499Y-91531555D01*
X176214362Y-91536000D01*
X175575638Y-91536000D01*
X175530501Y-91531555D01*
X175493005Y-91520180D01*
X175458446Y-91501708D01*
X175428153Y-91476847D01*
X175403292Y-91446554D01*
X175384820Y-91411995D01*
X175373445Y-91374499D01*
X175369000Y-91329362D01*
X175369000Y-90590638D01*
X175373445Y-90545501D01*
X175384820Y-90508005D01*
X175403292Y-90473446D01*
X175428153Y-90443153D01*
X175458446Y-90418292D01*
X175493005Y-90399820D01*
X175530501Y-90388445D01*
X175575638Y-90384000D01*
X176214362Y-90384000D01*
X176259499Y-90388445D01*
X176259499Y-90388445D01*
G37*
G36*
X174354499Y-90388445D02*
G01*
X174391995Y-90399820D01*
X174426554Y-90418292D01*
X174456847Y-90443153D01*
X174481708Y-90473446D01*
X174500180Y-90508005D01*
X174511555Y-90545501D01*
X174516000Y-90590638D01*
X174516000Y-91329362D01*
X174511555Y-91374499D01*
X174500180Y-91411995D01*
X174481708Y-91446554D01*
X174456847Y-91476847D01*
X174426554Y-91501708D01*
X174391995Y-91520180D01*
X174354499Y-91531555D01*
X174309362Y-91536000D01*
X173670638Y-91536000D01*
X173625501Y-91531555D01*
X173588005Y-91520180D01*
X173553446Y-91501708D01*
X173523153Y-91476847D01*
X173498292Y-91446554D01*
X173479820Y-91411995D01*
X173468445Y-91374499D01*
X173464000Y-91329362D01*
X173464000Y-90590638D01*
X173468445Y-90545501D01*
X173479820Y-90508005D01*
X173498292Y-90473446D01*
X173523153Y-90443153D01*
X173553446Y-90418292D01*
X173588005Y-90399820D01*
X173625501Y-90388445D01*
X173670638Y-90384000D01*
X174309362Y-90384000D01*
X174354499Y-90388445D01*
X174354499Y-90388445D01*
G37*
G36*
X160921000Y-89801000D02*
G01*
X159119000Y-89801000D01*
X159119000Y-87999000D01*
X160921000Y-87999000D01*
X160921000Y-89801000D01*
X160921000Y-89801000D01*
G37*
G36*
X164418674Y-88423465D02*
G01*
X164456367Y-88434899D01*
X164491103Y-88453466D01*
X164521548Y-88478452D01*
X164546534Y-88508897D01*
X164565101Y-88543633D01*
X164576535Y-88581326D01*
X164581000Y-88626661D01*
X164581000Y-89463339D01*
X164576535Y-89508674D01*
X164565101Y-89546367D01*
X164546534Y-89581103D01*
X164521548Y-89611548D01*
X164491103Y-89636534D01*
X164456367Y-89655101D01*
X164418674Y-89666535D01*
X164373339Y-89671000D01*
X163286661Y-89671000D01*
X163241326Y-89666535D01*
X163203633Y-89655101D01*
X163168897Y-89636534D01*
X163138452Y-89611548D01*
X163113466Y-89581103D01*
X163094899Y-89546367D01*
X163083465Y-89508674D01*
X163079000Y-89463339D01*
X163079000Y-88626661D01*
X163083465Y-88581326D01*
X163094899Y-88543633D01*
X163113466Y-88508897D01*
X163138452Y-88478452D01*
X163168897Y-88453466D01*
X163203633Y-88434899D01*
X163241326Y-88423465D01*
X163286661Y-88419000D01*
X164373339Y-88419000D01*
X164418674Y-88423465D01*
X164418674Y-88423465D01*
G37*
G36*
X176894499Y-88173445D02*
G01*
X176931995Y-88184820D01*
X176966554Y-88203292D01*
X176996847Y-88228153D01*
X177021708Y-88258446D01*
X177040180Y-88293005D01*
X177051555Y-88330501D01*
X177056000Y-88375638D01*
X177056000Y-89114362D01*
X177051555Y-89159499D01*
X177040180Y-89196995D01*
X177021708Y-89231554D01*
X176996847Y-89261847D01*
X176966554Y-89286708D01*
X176931995Y-89305180D01*
X176894499Y-89316555D01*
X176849362Y-89321000D01*
X176210638Y-89321000D01*
X176165501Y-89316555D01*
X176128005Y-89305180D01*
X176093446Y-89286708D01*
X176063153Y-89261847D01*
X176038292Y-89231554D01*
X176019820Y-89196995D01*
X176008445Y-89159499D01*
X176004000Y-89114362D01*
X176004000Y-88375638D01*
X176008445Y-88330501D01*
X176019820Y-88293005D01*
X176038292Y-88258446D01*
X176063153Y-88228153D01*
X176093446Y-88203292D01*
X176128005Y-88184820D01*
X176165501Y-88173445D01*
X176210638Y-88169000D01*
X176849362Y-88169000D01*
X176894499Y-88173445D01*
X176894499Y-88173445D01*
G37*
G36*
X170199499Y-87743445D02*
G01*
X170236995Y-87754820D01*
X170271554Y-87773292D01*
X170301847Y-87798153D01*
X170326708Y-87828446D01*
X170345180Y-87863005D01*
X170356555Y-87900501D01*
X170361000Y-87945638D01*
X170361000Y-88584362D01*
X170356555Y-88629499D01*
X170345180Y-88666995D01*
X170326708Y-88701554D01*
X170301847Y-88731847D01*
X170271554Y-88756708D01*
X170236995Y-88775180D01*
X170199499Y-88786555D01*
X170154362Y-88791000D01*
X169415638Y-88791000D01*
X169370501Y-88786555D01*
X169333005Y-88775180D01*
X169298446Y-88756708D01*
X169268153Y-88731847D01*
X169243292Y-88701554D01*
X169224820Y-88666995D01*
X169213445Y-88629499D01*
X169209000Y-88584362D01*
X169209000Y-87945638D01*
X169213445Y-87900501D01*
X169224820Y-87863005D01*
X169243292Y-87828446D01*
X169268153Y-87798153D01*
X169298446Y-87773292D01*
X169333005Y-87754820D01*
X169370501Y-87743445D01*
X169415638Y-87739000D01*
X170154362Y-87739000D01*
X170199499Y-87743445D01*
X170199499Y-87743445D01*
G37*
G36*
X168449499Y-87743445D02*
G01*
X168486995Y-87754820D01*
X168521554Y-87773292D01*
X168551847Y-87798153D01*
X168576708Y-87828446D01*
X168595180Y-87863005D01*
X168606555Y-87900501D01*
X168611000Y-87945638D01*
X168611000Y-88584362D01*
X168606555Y-88629499D01*
X168595180Y-88666995D01*
X168576708Y-88701554D01*
X168551847Y-88731847D01*
X168521554Y-88756708D01*
X168486995Y-88775180D01*
X168449499Y-88786555D01*
X168404362Y-88791000D01*
X167665638Y-88791000D01*
X167620501Y-88786555D01*
X167583005Y-88775180D01*
X167548446Y-88756708D01*
X167518153Y-88731847D01*
X167493292Y-88701554D01*
X167474820Y-88666995D01*
X167463445Y-88629499D01*
X167459000Y-88584362D01*
X167459000Y-87945638D01*
X167463445Y-87900501D01*
X167474820Y-87863005D01*
X167493292Y-87828446D01*
X167518153Y-87798153D01*
X167548446Y-87773292D01*
X167583005Y-87754820D01*
X167620501Y-87743445D01*
X167665638Y-87739000D01*
X168404362Y-87739000D01*
X168449499Y-87743445D01*
X168449499Y-87743445D01*
G37*
G36*
X164418674Y-86373465D02*
G01*
X164456367Y-86384899D01*
X164491103Y-86403466D01*
X164521548Y-86428452D01*
X164546534Y-86458897D01*
X164565101Y-86493633D01*
X164576535Y-86531326D01*
X164581000Y-86576661D01*
X164581000Y-87413339D01*
X164576535Y-87458674D01*
X164565101Y-87496367D01*
X164546534Y-87531103D01*
X164521548Y-87561548D01*
X164491103Y-87586534D01*
X164456367Y-87605101D01*
X164418674Y-87616535D01*
X164373339Y-87621000D01*
X163286661Y-87621000D01*
X163241326Y-87616535D01*
X163203633Y-87605101D01*
X163168897Y-87586534D01*
X163138452Y-87561548D01*
X163113466Y-87531103D01*
X163094899Y-87496367D01*
X163083465Y-87458674D01*
X163079000Y-87413339D01*
X163079000Y-86576661D01*
X163083465Y-86531326D01*
X163094899Y-86493633D01*
X163113466Y-86458897D01*
X163138452Y-86428452D01*
X163168897Y-86403466D01*
X163203633Y-86384899D01*
X163241326Y-86373465D01*
X163286661Y-86369000D01*
X164373339Y-86369000D01*
X164418674Y-86373465D01*
X164418674Y-86373465D01*
G37*
G36*
X176894499Y-86423445D02*
G01*
X176931995Y-86434820D01*
X176966554Y-86453292D01*
X176996847Y-86478153D01*
X177021708Y-86508446D01*
X177040180Y-86543005D01*
X177051555Y-86580501D01*
X177056000Y-86625638D01*
X177056000Y-87364362D01*
X177051555Y-87409499D01*
X177040180Y-87446995D01*
X177021708Y-87481554D01*
X176996847Y-87511847D01*
X176966554Y-87536708D01*
X176931995Y-87555180D01*
X176894499Y-87566555D01*
X176849362Y-87571000D01*
X176210638Y-87571000D01*
X176165501Y-87566555D01*
X176128005Y-87555180D01*
X176093446Y-87536708D01*
X176063153Y-87511847D01*
X176038292Y-87481554D01*
X176019820Y-87446995D01*
X176008445Y-87409499D01*
X176004000Y-87364362D01*
X176004000Y-86625638D01*
X176008445Y-86580501D01*
X176019820Y-86543005D01*
X176038292Y-86508446D01*
X176063153Y-86478153D01*
X176093446Y-86453292D01*
X176128005Y-86434820D01*
X176165501Y-86423445D01*
X176210638Y-86419000D01*
X176849362Y-86419000D01*
X176894499Y-86423445D01*
X176894499Y-86423445D01*
G37*
M02*
