G04 #@! TF.GenerationSoftware,KiCad,Pcbnew,(5.1.4)-1*
G04 #@! TF.CreationDate,2020-07-10T21:54:52+02:00*
G04 #@! TF.ProjectId,SBIO3,5342494f-332e-46b6-9963-61645f706362,rev?*
G04 #@! TF.SameCoordinates,Original*
G04 #@! TF.FileFunction,Soldermask,Bot*
G04 #@! TF.FilePolarity,Negative*
%FSLAX46Y46*%
G04 Gerber Fmt 4.6, Leading zero omitted, Abs format (unit mm)*
G04 Created by KiCad (PCBNEW (5.1.4)-1) date 2020-07-10 21:54:52*
%MOMM*%
%LPD*%
G04 APERTURE LIST*
%ADD10C,0.100000*%
G04 APERTURE END LIST*
D10*
G36*
X108060442Y-127375518D02*
G01*
X108126627Y-127382037D01*
X108296466Y-127433557D01*
X108452991Y-127517222D01*
X108488729Y-127546552D01*
X108590186Y-127629814D01*
X108673448Y-127731271D01*
X108702778Y-127767009D01*
X108786443Y-127923534D01*
X108837963Y-128093373D01*
X108855359Y-128270000D01*
X108837963Y-128446627D01*
X108786443Y-128616466D01*
X108702778Y-128772991D01*
X108673448Y-128808729D01*
X108590186Y-128910186D01*
X108488729Y-128993448D01*
X108452991Y-129022778D01*
X108296466Y-129106443D01*
X108126627Y-129157963D01*
X108060442Y-129164482D01*
X107994260Y-129171000D01*
X107905740Y-129171000D01*
X107839558Y-129164482D01*
X107773373Y-129157963D01*
X107603534Y-129106443D01*
X107447009Y-129022778D01*
X107411271Y-128993448D01*
X107309814Y-128910186D01*
X107226552Y-128808729D01*
X107197222Y-128772991D01*
X107113557Y-128616466D01*
X107062037Y-128446627D01*
X107044641Y-128270000D01*
X107062037Y-128093373D01*
X107113557Y-127923534D01*
X107197222Y-127767009D01*
X107226552Y-127731271D01*
X107309814Y-127629814D01*
X107411271Y-127546552D01*
X107447009Y-127517222D01*
X107603534Y-127433557D01*
X107773373Y-127382037D01*
X107839558Y-127375518D01*
X107905740Y-127369000D01*
X107994260Y-127369000D01*
X108060442Y-127375518D01*
X108060442Y-127375518D01*
G37*
G36*
X108060443Y-124835519D02*
G01*
X108126627Y-124842037D01*
X108296466Y-124893557D01*
X108452991Y-124977222D01*
X108488729Y-125006552D01*
X108590186Y-125089814D01*
X108673448Y-125191271D01*
X108702778Y-125227009D01*
X108786443Y-125383534D01*
X108837963Y-125553373D01*
X108855359Y-125730000D01*
X108837963Y-125906627D01*
X108786443Y-126076466D01*
X108702778Y-126232991D01*
X108673448Y-126268729D01*
X108590186Y-126370186D01*
X108488729Y-126453448D01*
X108452991Y-126482778D01*
X108296466Y-126566443D01*
X108126627Y-126617963D01*
X108060442Y-126624482D01*
X107994260Y-126631000D01*
X107905740Y-126631000D01*
X107839558Y-126624482D01*
X107773373Y-126617963D01*
X107603534Y-126566443D01*
X107447009Y-126482778D01*
X107411271Y-126453448D01*
X107309814Y-126370186D01*
X107226552Y-126268729D01*
X107197222Y-126232991D01*
X107113557Y-126076466D01*
X107062037Y-125906627D01*
X107044641Y-125730000D01*
X107062037Y-125553373D01*
X107113557Y-125383534D01*
X107197222Y-125227009D01*
X107226552Y-125191271D01*
X107309814Y-125089814D01*
X107411271Y-125006552D01*
X107447009Y-124977222D01*
X107603534Y-124893557D01*
X107773373Y-124842037D01*
X107839557Y-124835519D01*
X107905740Y-124829000D01*
X107994260Y-124829000D01*
X108060443Y-124835519D01*
X108060443Y-124835519D01*
G37*
G36*
X108851000Y-124091000D02*
G01*
X107049000Y-124091000D01*
X107049000Y-122289000D01*
X108851000Y-122289000D01*
X108851000Y-124091000D01*
X108851000Y-124091000D01*
G37*
G36*
X166576031Y-118814207D02*
G01*
X166774145Y-118874305D01*
X166774148Y-118874306D01*
X166828872Y-118903557D01*
X166956729Y-118971897D01*
X167116765Y-119103235D01*
X167248103Y-119263271D01*
X167248104Y-119263273D01*
X167345694Y-119445851D01*
X167345694Y-119445852D01*
X167345695Y-119445854D01*
X167405793Y-119643968D01*
X167421000Y-119798370D01*
X167421000Y-121501630D01*
X167405793Y-121656032D01*
X167345695Y-121854146D01*
X167345694Y-121854149D01*
X167293939Y-121950975D01*
X167248103Y-122036729D01*
X167116765Y-122196765D01*
X166956729Y-122328103D01*
X166887976Y-122364852D01*
X166774149Y-122425694D01*
X166774146Y-122425695D01*
X166576032Y-122485793D01*
X166370000Y-122506085D01*
X166163969Y-122485793D01*
X165965855Y-122425695D01*
X165965852Y-122425694D01*
X165852025Y-122364852D01*
X165783272Y-122328103D01*
X165623236Y-122196765D01*
X165491898Y-122036729D01*
X165457904Y-121973130D01*
X165394305Y-121854146D01*
X165334207Y-121656033D01*
X165319000Y-121501631D01*
X165319000Y-119798370D01*
X165334207Y-119643971D01*
X165334207Y-119643969D01*
X165394305Y-119445855D01*
X165394306Y-119445852D01*
X165429521Y-119379970D01*
X165491897Y-119263271D01*
X165623235Y-119103235D01*
X165783271Y-118971897D01*
X165888270Y-118915774D01*
X165965851Y-118874306D01*
X165965854Y-118874305D01*
X166163968Y-118814207D01*
X166370000Y-118793915D01*
X166576031Y-118814207D01*
X166576031Y-118814207D01*
G37*
G36*
X162284852Y-118802840D02*
G01*
X162316443Y-118812423D01*
X162345557Y-118827985D01*
X162371074Y-118848926D01*
X162392015Y-118874443D01*
X162407577Y-118903557D01*
X162417160Y-118935148D01*
X162421000Y-118974140D01*
X162421000Y-122325860D01*
X162417160Y-122364852D01*
X162407577Y-122396443D01*
X162392015Y-122425557D01*
X162371074Y-122451074D01*
X162345557Y-122472015D01*
X162316443Y-122487577D01*
X162284852Y-122497160D01*
X162245860Y-122501000D01*
X160494140Y-122501000D01*
X160455148Y-122497160D01*
X160423557Y-122487577D01*
X160394443Y-122472015D01*
X160368926Y-122451074D01*
X160347985Y-122425557D01*
X160332423Y-122396443D01*
X160322840Y-122364852D01*
X160319000Y-122325860D01*
X160319000Y-118974140D01*
X160322840Y-118935148D01*
X160332423Y-118903557D01*
X160347985Y-118874443D01*
X160368926Y-118848926D01*
X160394443Y-118827985D01*
X160423557Y-118812423D01*
X160455148Y-118802840D01*
X160494140Y-118799000D01*
X162245860Y-118799000D01*
X162284852Y-118802840D01*
X162284852Y-118802840D01*
G37*
G36*
X151878512Y-119753927D02*
G01*
X152027812Y-119783624D01*
X152191784Y-119851544D01*
X152339354Y-119950147D01*
X152464853Y-120075646D01*
X152563456Y-120223216D01*
X152631376Y-120387188D01*
X152666000Y-120561259D01*
X152666000Y-120738741D01*
X152631376Y-120912812D01*
X152563456Y-121076784D01*
X152464853Y-121224354D01*
X152339354Y-121349853D01*
X152191784Y-121448456D01*
X152027812Y-121516376D01*
X151878512Y-121546073D01*
X151853742Y-121551000D01*
X151676258Y-121551000D01*
X151651488Y-121546073D01*
X151502188Y-121516376D01*
X151338216Y-121448456D01*
X151190646Y-121349853D01*
X151065147Y-121224354D01*
X150966544Y-121076784D01*
X150898624Y-120912812D01*
X150864000Y-120738741D01*
X150864000Y-120561259D01*
X150898624Y-120387188D01*
X150966544Y-120223216D01*
X151065147Y-120075646D01*
X151190646Y-119950147D01*
X151338216Y-119851544D01*
X151502188Y-119783624D01*
X151651488Y-119753927D01*
X151676258Y-119749000D01*
X151853742Y-119749000D01*
X151878512Y-119753927D01*
X151878512Y-119753927D01*
G37*
G36*
X149338512Y-119753927D02*
G01*
X149487812Y-119783624D01*
X149651784Y-119851544D01*
X149799354Y-119950147D01*
X149924853Y-120075646D01*
X150023456Y-120223216D01*
X150091376Y-120387188D01*
X150126000Y-120561259D01*
X150126000Y-120738741D01*
X150091376Y-120912812D01*
X150023456Y-121076784D01*
X149924853Y-121224354D01*
X149799354Y-121349853D01*
X149651784Y-121448456D01*
X149487812Y-121516376D01*
X149338512Y-121546073D01*
X149313742Y-121551000D01*
X149136258Y-121551000D01*
X149111488Y-121546073D01*
X148962188Y-121516376D01*
X148798216Y-121448456D01*
X148650646Y-121349853D01*
X148525147Y-121224354D01*
X148426544Y-121076784D01*
X148358624Y-120912812D01*
X148324000Y-120738741D01*
X148324000Y-120561259D01*
X148358624Y-120387188D01*
X148426544Y-120223216D01*
X148525147Y-120075646D01*
X148650646Y-119950147D01*
X148798216Y-119851544D01*
X148962188Y-119783624D01*
X149111488Y-119753927D01*
X149136258Y-119749000D01*
X149313742Y-119749000D01*
X149338512Y-119753927D01*
X149338512Y-119753927D01*
G37*
G36*
X146798512Y-119753927D02*
G01*
X146947812Y-119783624D01*
X147111784Y-119851544D01*
X147259354Y-119950147D01*
X147384853Y-120075646D01*
X147483456Y-120223216D01*
X147551376Y-120387188D01*
X147586000Y-120561259D01*
X147586000Y-120738741D01*
X147551376Y-120912812D01*
X147483456Y-121076784D01*
X147384853Y-121224354D01*
X147259354Y-121349853D01*
X147111784Y-121448456D01*
X146947812Y-121516376D01*
X146798512Y-121546073D01*
X146773742Y-121551000D01*
X146596258Y-121551000D01*
X146571488Y-121546073D01*
X146422188Y-121516376D01*
X146258216Y-121448456D01*
X146110646Y-121349853D01*
X145985147Y-121224354D01*
X145886544Y-121076784D01*
X145818624Y-120912812D01*
X145784000Y-120738741D01*
X145784000Y-120561259D01*
X145818624Y-120387188D01*
X145886544Y-120223216D01*
X145985147Y-120075646D01*
X146110646Y-119950147D01*
X146258216Y-119851544D01*
X146422188Y-119783624D01*
X146571488Y-119753927D01*
X146596258Y-119749000D01*
X146773742Y-119749000D01*
X146798512Y-119753927D01*
X146798512Y-119753927D01*
G37*
G36*
X144258512Y-119753927D02*
G01*
X144407812Y-119783624D01*
X144571784Y-119851544D01*
X144719354Y-119950147D01*
X144844853Y-120075646D01*
X144943456Y-120223216D01*
X145011376Y-120387188D01*
X145046000Y-120561259D01*
X145046000Y-120738741D01*
X145011376Y-120912812D01*
X144943456Y-121076784D01*
X144844853Y-121224354D01*
X144719354Y-121349853D01*
X144571784Y-121448456D01*
X144407812Y-121516376D01*
X144258512Y-121546073D01*
X144233742Y-121551000D01*
X144056258Y-121551000D01*
X144031488Y-121546073D01*
X143882188Y-121516376D01*
X143718216Y-121448456D01*
X143570646Y-121349853D01*
X143445147Y-121224354D01*
X143346544Y-121076784D01*
X143278624Y-120912812D01*
X143244000Y-120738741D01*
X143244000Y-120561259D01*
X143278624Y-120387188D01*
X143346544Y-120223216D01*
X143445147Y-120075646D01*
X143570646Y-119950147D01*
X143718216Y-119851544D01*
X143882188Y-119783624D01*
X144031488Y-119753927D01*
X144056258Y-119749000D01*
X144233742Y-119749000D01*
X144258512Y-119753927D01*
X144258512Y-119753927D01*
G37*
G36*
X141718512Y-119753927D02*
G01*
X141867812Y-119783624D01*
X142031784Y-119851544D01*
X142179354Y-119950147D01*
X142304853Y-120075646D01*
X142403456Y-120223216D01*
X142471376Y-120387188D01*
X142506000Y-120561259D01*
X142506000Y-120738741D01*
X142471376Y-120912812D01*
X142403456Y-121076784D01*
X142304853Y-121224354D01*
X142179354Y-121349853D01*
X142031784Y-121448456D01*
X141867812Y-121516376D01*
X141718512Y-121546073D01*
X141693742Y-121551000D01*
X141516258Y-121551000D01*
X141491488Y-121546073D01*
X141342188Y-121516376D01*
X141178216Y-121448456D01*
X141030646Y-121349853D01*
X140905147Y-121224354D01*
X140806544Y-121076784D01*
X140738624Y-120912812D01*
X140704000Y-120738741D01*
X140704000Y-120561259D01*
X140738624Y-120387188D01*
X140806544Y-120223216D01*
X140905147Y-120075646D01*
X141030646Y-119950147D01*
X141178216Y-119851544D01*
X141342188Y-119783624D01*
X141491488Y-119753927D01*
X141516258Y-119749000D01*
X141693742Y-119749000D01*
X141718512Y-119753927D01*
X141718512Y-119753927D01*
G37*
G36*
X139178512Y-119753927D02*
G01*
X139327812Y-119783624D01*
X139491784Y-119851544D01*
X139639354Y-119950147D01*
X139764853Y-120075646D01*
X139863456Y-120223216D01*
X139931376Y-120387188D01*
X139966000Y-120561259D01*
X139966000Y-120738741D01*
X139931376Y-120912812D01*
X139863456Y-121076784D01*
X139764853Y-121224354D01*
X139639354Y-121349853D01*
X139491784Y-121448456D01*
X139327812Y-121516376D01*
X139178512Y-121546073D01*
X139153742Y-121551000D01*
X138976258Y-121551000D01*
X138951488Y-121546073D01*
X138802188Y-121516376D01*
X138638216Y-121448456D01*
X138490646Y-121349853D01*
X138365147Y-121224354D01*
X138266544Y-121076784D01*
X138198624Y-120912812D01*
X138164000Y-120738741D01*
X138164000Y-120561259D01*
X138198624Y-120387188D01*
X138266544Y-120223216D01*
X138365147Y-120075646D01*
X138490646Y-119950147D01*
X138638216Y-119851544D01*
X138802188Y-119783624D01*
X138951488Y-119753927D01*
X138976258Y-119749000D01*
X139153742Y-119749000D01*
X139178512Y-119753927D01*
X139178512Y-119753927D01*
G37*
G36*
X113778512Y-119753927D02*
G01*
X113927812Y-119783624D01*
X114091784Y-119851544D01*
X114239354Y-119950147D01*
X114364853Y-120075646D01*
X114463456Y-120223216D01*
X114531376Y-120387188D01*
X114566000Y-120561259D01*
X114566000Y-120738741D01*
X114531376Y-120912812D01*
X114463456Y-121076784D01*
X114364853Y-121224354D01*
X114239354Y-121349853D01*
X114091784Y-121448456D01*
X113927812Y-121516376D01*
X113778512Y-121546073D01*
X113753742Y-121551000D01*
X113576258Y-121551000D01*
X113551488Y-121546073D01*
X113402188Y-121516376D01*
X113238216Y-121448456D01*
X113090646Y-121349853D01*
X112965147Y-121224354D01*
X112866544Y-121076784D01*
X112798624Y-120912812D01*
X112764000Y-120738741D01*
X112764000Y-120561259D01*
X112798624Y-120387188D01*
X112866544Y-120223216D01*
X112965147Y-120075646D01*
X113090646Y-119950147D01*
X113238216Y-119851544D01*
X113402188Y-119783624D01*
X113551488Y-119753927D01*
X113576258Y-119749000D01*
X113753742Y-119749000D01*
X113778512Y-119753927D01*
X113778512Y-119753927D01*
G37*
G36*
X116318512Y-119753927D02*
G01*
X116467812Y-119783624D01*
X116631784Y-119851544D01*
X116779354Y-119950147D01*
X116904853Y-120075646D01*
X117003456Y-120223216D01*
X117071376Y-120387188D01*
X117106000Y-120561259D01*
X117106000Y-120738741D01*
X117071376Y-120912812D01*
X117003456Y-121076784D01*
X116904853Y-121224354D01*
X116779354Y-121349853D01*
X116631784Y-121448456D01*
X116467812Y-121516376D01*
X116318512Y-121546073D01*
X116293742Y-121551000D01*
X116116258Y-121551000D01*
X116091488Y-121546073D01*
X115942188Y-121516376D01*
X115778216Y-121448456D01*
X115630646Y-121349853D01*
X115505147Y-121224354D01*
X115406544Y-121076784D01*
X115338624Y-120912812D01*
X115304000Y-120738741D01*
X115304000Y-120561259D01*
X115338624Y-120387188D01*
X115406544Y-120223216D01*
X115505147Y-120075646D01*
X115630646Y-119950147D01*
X115778216Y-119851544D01*
X115942188Y-119783624D01*
X116091488Y-119753927D01*
X116116258Y-119749000D01*
X116293742Y-119749000D01*
X116318512Y-119753927D01*
X116318512Y-119753927D01*
G37*
G36*
X118858512Y-119753927D02*
G01*
X119007812Y-119783624D01*
X119171784Y-119851544D01*
X119319354Y-119950147D01*
X119444853Y-120075646D01*
X119543456Y-120223216D01*
X119611376Y-120387188D01*
X119646000Y-120561259D01*
X119646000Y-120738741D01*
X119611376Y-120912812D01*
X119543456Y-121076784D01*
X119444853Y-121224354D01*
X119319354Y-121349853D01*
X119171784Y-121448456D01*
X119007812Y-121516376D01*
X118858512Y-121546073D01*
X118833742Y-121551000D01*
X118656258Y-121551000D01*
X118631488Y-121546073D01*
X118482188Y-121516376D01*
X118318216Y-121448456D01*
X118170646Y-121349853D01*
X118045147Y-121224354D01*
X117946544Y-121076784D01*
X117878624Y-120912812D01*
X117844000Y-120738741D01*
X117844000Y-120561259D01*
X117878624Y-120387188D01*
X117946544Y-120223216D01*
X118045147Y-120075646D01*
X118170646Y-119950147D01*
X118318216Y-119851544D01*
X118482188Y-119783624D01*
X118631488Y-119753927D01*
X118656258Y-119749000D01*
X118833742Y-119749000D01*
X118858512Y-119753927D01*
X118858512Y-119753927D01*
G37*
G36*
X125208512Y-119753927D02*
G01*
X125357812Y-119783624D01*
X125521784Y-119851544D01*
X125669354Y-119950147D01*
X125794853Y-120075646D01*
X125893456Y-120223216D01*
X125961376Y-120387188D01*
X125996000Y-120561259D01*
X125996000Y-120738741D01*
X125961376Y-120912812D01*
X125893456Y-121076784D01*
X125794853Y-121224354D01*
X125669354Y-121349853D01*
X125521784Y-121448456D01*
X125357812Y-121516376D01*
X125208512Y-121546073D01*
X125183742Y-121551000D01*
X125006258Y-121551000D01*
X124981488Y-121546073D01*
X124832188Y-121516376D01*
X124668216Y-121448456D01*
X124520646Y-121349853D01*
X124395147Y-121224354D01*
X124296544Y-121076784D01*
X124228624Y-120912812D01*
X124194000Y-120738741D01*
X124194000Y-120561259D01*
X124228624Y-120387188D01*
X124296544Y-120223216D01*
X124395147Y-120075646D01*
X124520646Y-119950147D01*
X124668216Y-119851544D01*
X124832188Y-119783624D01*
X124981488Y-119753927D01*
X125006258Y-119749000D01*
X125183742Y-119749000D01*
X125208512Y-119753927D01*
X125208512Y-119753927D01*
G37*
G36*
X130288512Y-119753927D02*
G01*
X130437812Y-119783624D01*
X130601784Y-119851544D01*
X130749354Y-119950147D01*
X130874853Y-120075646D01*
X130973456Y-120223216D01*
X131041376Y-120387188D01*
X131076000Y-120561259D01*
X131076000Y-120738741D01*
X131041376Y-120912812D01*
X130973456Y-121076784D01*
X130874853Y-121224354D01*
X130749354Y-121349853D01*
X130601784Y-121448456D01*
X130437812Y-121516376D01*
X130288512Y-121546073D01*
X130263742Y-121551000D01*
X130086258Y-121551000D01*
X130061488Y-121546073D01*
X129912188Y-121516376D01*
X129748216Y-121448456D01*
X129600646Y-121349853D01*
X129475147Y-121224354D01*
X129376544Y-121076784D01*
X129308624Y-120912812D01*
X129274000Y-120738741D01*
X129274000Y-120561259D01*
X129308624Y-120387188D01*
X129376544Y-120223216D01*
X129475147Y-120075646D01*
X129600646Y-119950147D01*
X129748216Y-119851544D01*
X129912188Y-119783624D01*
X130061488Y-119753927D01*
X130086258Y-119749000D01*
X130263742Y-119749000D01*
X130288512Y-119753927D01*
X130288512Y-119753927D01*
G37*
G36*
X154418512Y-119753927D02*
G01*
X154567812Y-119783624D01*
X154731784Y-119851544D01*
X154879354Y-119950147D01*
X155004853Y-120075646D01*
X155103456Y-120223216D01*
X155171376Y-120387188D01*
X155206000Y-120561259D01*
X155206000Y-120738741D01*
X155171376Y-120912812D01*
X155103456Y-121076784D01*
X155004853Y-121224354D01*
X154879354Y-121349853D01*
X154731784Y-121448456D01*
X154567812Y-121516376D01*
X154418512Y-121546073D01*
X154393742Y-121551000D01*
X154216258Y-121551000D01*
X154191488Y-121546073D01*
X154042188Y-121516376D01*
X153878216Y-121448456D01*
X153730646Y-121349853D01*
X153605147Y-121224354D01*
X153506544Y-121076784D01*
X153438624Y-120912812D01*
X153404000Y-120738741D01*
X153404000Y-120561259D01*
X153438624Y-120387188D01*
X153506544Y-120223216D01*
X153605147Y-120075646D01*
X153730646Y-119950147D01*
X153878216Y-119851544D01*
X154042188Y-119783624D01*
X154191488Y-119753927D01*
X154216258Y-119749000D01*
X154393742Y-119749000D01*
X154418512Y-119753927D01*
X154418512Y-119753927D01*
G37*
G36*
X127748512Y-119753927D02*
G01*
X127897812Y-119783624D01*
X128061784Y-119851544D01*
X128209354Y-119950147D01*
X128334853Y-120075646D01*
X128433456Y-120223216D01*
X128501376Y-120387188D01*
X128536000Y-120561259D01*
X128536000Y-120738741D01*
X128501376Y-120912812D01*
X128433456Y-121076784D01*
X128334853Y-121224354D01*
X128209354Y-121349853D01*
X128061784Y-121448456D01*
X127897812Y-121516376D01*
X127748512Y-121546073D01*
X127723742Y-121551000D01*
X127546258Y-121551000D01*
X127521488Y-121546073D01*
X127372188Y-121516376D01*
X127208216Y-121448456D01*
X127060646Y-121349853D01*
X126935147Y-121224354D01*
X126836544Y-121076784D01*
X126768624Y-120912812D01*
X126734000Y-120738741D01*
X126734000Y-120561259D01*
X126768624Y-120387188D01*
X126836544Y-120223216D01*
X126935147Y-120075646D01*
X127060646Y-119950147D01*
X127208216Y-119851544D01*
X127372188Y-119783624D01*
X127521488Y-119753927D01*
X127546258Y-119749000D01*
X127723742Y-119749000D01*
X127748512Y-119753927D01*
X127748512Y-119753927D01*
G37*
G36*
X102348512Y-119753927D02*
G01*
X102497812Y-119783624D01*
X102661784Y-119851544D01*
X102809354Y-119950147D01*
X102934853Y-120075646D01*
X103033456Y-120223216D01*
X103101376Y-120387188D01*
X103136000Y-120561259D01*
X103136000Y-120738741D01*
X103101376Y-120912812D01*
X103033456Y-121076784D01*
X102934853Y-121224354D01*
X102809354Y-121349853D01*
X102661784Y-121448456D01*
X102497812Y-121516376D01*
X102348512Y-121546073D01*
X102323742Y-121551000D01*
X102146258Y-121551000D01*
X102121488Y-121546073D01*
X101972188Y-121516376D01*
X101808216Y-121448456D01*
X101660646Y-121349853D01*
X101535147Y-121224354D01*
X101436544Y-121076784D01*
X101368624Y-120912812D01*
X101334000Y-120738741D01*
X101334000Y-120561259D01*
X101368624Y-120387188D01*
X101436544Y-120223216D01*
X101535147Y-120075646D01*
X101660646Y-119950147D01*
X101808216Y-119851544D01*
X101972188Y-119783624D01*
X102121488Y-119753927D01*
X102146258Y-119749000D01*
X102323742Y-119749000D01*
X102348512Y-119753927D01*
X102348512Y-119753927D01*
G37*
G36*
X84568512Y-119753927D02*
G01*
X84717812Y-119783624D01*
X84881784Y-119851544D01*
X85029354Y-119950147D01*
X85154853Y-120075646D01*
X85253456Y-120223216D01*
X85321376Y-120387188D01*
X85356000Y-120561259D01*
X85356000Y-120738741D01*
X85321376Y-120912812D01*
X85253456Y-121076784D01*
X85154853Y-121224354D01*
X85029354Y-121349853D01*
X84881784Y-121448456D01*
X84717812Y-121516376D01*
X84568512Y-121546073D01*
X84543742Y-121551000D01*
X84366258Y-121551000D01*
X84341488Y-121546073D01*
X84192188Y-121516376D01*
X84028216Y-121448456D01*
X83880646Y-121349853D01*
X83755147Y-121224354D01*
X83656544Y-121076784D01*
X83588624Y-120912812D01*
X83554000Y-120738741D01*
X83554000Y-120561259D01*
X83588624Y-120387188D01*
X83656544Y-120223216D01*
X83755147Y-120075646D01*
X83880646Y-119950147D01*
X84028216Y-119851544D01*
X84192188Y-119783624D01*
X84341488Y-119753927D01*
X84366258Y-119749000D01*
X84543742Y-119749000D01*
X84568512Y-119753927D01*
X84568512Y-119753927D01*
G37*
G36*
X87108512Y-119753927D02*
G01*
X87257812Y-119783624D01*
X87421784Y-119851544D01*
X87569354Y-119950147D01*
X87694853Y-120075646D01*
X87793456Y-120223216D01*
X87861376Y-120387188D01*
X87896000Y-120561259D01*
X87896000Y-120738741D01*
X87861376Y-120912812D01*
X87793456Y-121076784D01*
X87694853Y-121224354D01*
X87569354Y-121349853D01*
X87421784Y-121448456D01*
X87257812Y-121516376D01*
X87108512Y-121546073D01*
X87083742Y-121551000D01*
X86906258Y-121551000D01*
X86881488Y-121546073D01*
X86732188Y-121516376D01*
X86568216Y-121448456D01*
X86420646Y-121349853D01*
X86295147Y-121224354D01*
X86196544Y-121076784D01*
X86128624Y-120912812D01*
X86094000Y-120738741D01*
X86094000Y-120561259D01*
X86128624Y-120387188D01*
X86196544Y-120223216D01*
X86295147Y-120075646D01*
X86420646Y-119950147D01*
X86568216Y-119851544D01*
X86732188Y-119783624D01*
X86881488Y-119753927D01*
X86906258Y-119749000D01*
X87083742Y-119749000D01*
X87108512Y-119753927D01*
X87108512Y-119753927D01*
G37*
G36*
X89648512Y-119753927D02*
G01*
X89797812Y-119783624D01*
X89961784Y-119851544D01*
X90109354Y-119950147D01*
X90234853Y-120075646D01*
X90333456Y-120223216D01*
X90401376Y-120387188D01*
X90436000Y-120561259D01*
X90436000Y-120738741D01*
X90401376Y-120912812D01*
X90333456Y-121076784D01*
X90234853Y-121224354D01*
X90109354Y-121349853D01*
X89961784Y-121448456D01*
X89797812Y-121516376D01*
X89648512Y-121546073D01*
X89623742Y-121551000D01*
X89446258Y-121551000D01*
X89421488Y-121546073D01*
X89272188Y-121516376D01*
X89108216Y-121448456D01*
X88960646Y-121349853D01*
X88835147Y-121224354D01*
X88736544Y-121076784D01*
X88668624Y-120912812D01*
X88634000Y-120738741D01*
X88634000Y-120561259D01*
X88668624Y-120387188D01*
X88736544Y-120223216D01*
X88835147Y-120075646D01*
X88960646Y-119950147D01*
X89108216Y-119851544D01*
X89272188Y-119783624D01*
X89421488Y-119753927D01*
X89446258Y-119749000D01*
X89623742Y-119749000D01*
X89648512Y-119753927D01*
X89648512Y-119753927D01*
G37*
G36*
X92188512Y-119753927D02*
G01*
X92337812Y-119783624D01*
X92501784Y-119851544D01*
X92649354Y-119950147D01*
X92774853Y-120075646D01*
X92873456Y-120223216D01*
X92941376Y-120387188D01*
X92976000Y-120561259D01*
X92976000Y-120738741D01*
X92941376Y-120912812D01*
X92873456Y-121076784D01*
X92774853Y-121224354D01*
X92649354Y-121349853D01*
X92501784Y-121448456D01*
X92337812Y-121516376D01*
X92188512Y-121546073D01*
X92163742Y-121551000D01*
X91986258Y-121551000D01*
X91961488Y-121546073D01*
X91812188Y-121516376D01*
X91648216Y-121448456D01*
X91500646Y-121349853D01*
X91375147Y-121224354D01*
X91276544Y-121076784D01*
X91208624Y-120912812D01*
X91174000Y-120738741D01*
X91174000Y-120561259D01*
X91208624Y-120387188D01*
X91276544Y-120223216D01*
X91375147Y-120075646D01*
X91500646Y-119950147D01*
X91648216Y-119851544D01*
X91812188Y-119783624D01*
X91961488Y-119753927D01*
X91986258Y-119749000D01*
X92163742Y-119749000D01*
X92188512Y-119753927D01*
X92188512Y-119753927D01*
G37*
G36*
X94728512Y-119753927D02*
G01*
X94877812Y-119783624D01*
X95041784Y-119851544D01*
X95189354Y-119950147D01*
X95314853Y-120075646D01*
X95413456Y-120223216D01*
X95481376Y-120387188D01*
X95516000Y-120561259D01*
X95516000Y-120738741D01*
X95481376Y-120912812D01*
X95413456Y-121076784D01*
X95314853Y-121224354D01*
X95189354Y-121349853D01*
X95041784Y-121448456D01*
X94877812Y-121516376D01*
X94728512Y-121546073D01*
X94703742Y-121551000D01*
X94526258Y-121551000D01*
X94501488Y-121546073D01*
X94352188Y-121516376D01*
X94188216Y-121448456D01*
X94040646Y-121349853D01*
X93915147Y-121224354D01*
X93816544Y-121076784D01*
X93748624Y-120912812D01*
X93714000Y-120738741D01*
X93714000Y-120561259D01*
X93748624Y-120387188D01*
X93816544Y-120223216D01*
X93915147Y-120075646D01*
X94040646Y-119950147D01*
X94188216Y-119851544D01*
X94352188Y-119783624D01*
X94501488Y-119753927D01*
X94526258Y-119749000D01*
X94703742Y-119749000D01*
X94728512Y-119753927D01*
X94728512Y-119753927D01*
G37*
G36*
X97268512Y-119753927D02*
G01*
X97417812Y-119783624D01*
X97581784Y-119851544D01*
X97729354Y-119950147D01*
X97854853Y-120075646D01*
X97953456Y-120223216D01*
X98021376Y-120387188D01*
X98056000Y-120561259D01*
X98056000Y-120738741D01*
X98021376Y-120912812D01*
X97953456Y-121076784D01*
X97854853Y-121224354D01*
X97729354Y-121349853D01*
X97581784Y-121448456D01*
X97417812Y-121516376D01*
X97268512Y-121546073D01*
X97243742Y-121551000D01*
X97066258Y-121551000D01*
X97041488Y-121546073D01*
X96892188Y-121516376D01*
X96728216Y-121448456D01*
X96580646Y-121349853D01*
X96455147Y-121224354D01*
X96356544Y-121076784D01*
X96288624Y-120912812D01*
X96254000Y-120738741D01*
X96254000Y-120561259D01*
X96288624Y-120387188D01*
X96356544Y-120223216D01*
X96455147Y-120075646D01*
X96580646Y-119950147D01*
X96728216Y-119851544D01*
X96892188Y-119783624D01*
X97041488Y-119753927D01*
X97066258Y-119749000D01*
X97243742Y-119749000D01*
X97268512Y-119753927D01*
X97268512Y-119753927D01*
G37*
G36*
X99808512Y-119753927D02*
G01*
X99957812Y-119783624D01*
X100121784Y-119851544D01*
X100269354Y-119950147D01*
X100394853Y-120075646D01*
X100493456Y-120223216D01*
X100561376Y-120387188D01*
X100596000Y-120561259D01*
X100596000Y-120738741D01*
X100561376Y-120912812D01*
X100493456Y-121076784D01*
X100394853Y-121224354D01*
X100269354Y-121349853D01*
X100121784Y-121448456D01*
X99957812Y-121516376D01*
X99808512Y-121546073D01*
X99783742Y-121551000D01*
X99606258Y-121551000D01*
X99581488Y-121546073D01*
X99432188Y-121516376D01*
X99268216Y-121448456D01*
X99120646Y-121349853D01*
X98995147Y-121224354D01*
X98896544Y-121076784D01*
X98828624Y-120912812D01*
X98794000Y-120738741D01*
X98794000Y-120561259D01*
X98828624Y-120387188D01*
X98896544Y-120223216D01*
X98995147Y-120075646D01*
X99120646Y-119950147D01*
X99268216Y-119851544D01*
X99432188Y-119783624D01*
X99581488Y-119753927D01*
X99606258Y-119749000D01*
X99783742Y-119749000D01*
X99808512Y-119753927D01*
X99808512Y-119753927D01*
G37*
G36*
X146798512Y-117213927D02*
G01*
X146947812Y-117243624D01*
X147111784Y-117311544D01*
X147259354Y-117410147D01*
X147384853Y-117535646D01*
X147483456Y-117683216D01*
X147551376Y-117847188D01*
X147586000Y-118021259D01*
X147586000Y-118198741D01*
X147551376Y-118372812D01*
X147483456Y-118536784D01*
X147384853Y-118684354D01*
X147259354Y-118809853D01*
X147111784Y-118908456D01*
X146947812Y-118976376D01*
X146798512Y-119006073D01*
X146773742Y-119011000D01*
X146596258Y-119011000D01*
X146571488Y-119006073D01*
X146422188Y-118976376D01*
X146258216Y-118908456D01*
X146110646Y-118809853D01*
X145985147Y-118684354D01*
X145886544Y-118536784D01*
X145818624Y-118372812D01*
X145784000Y-118198741D01*
X145784000Y-118021259D01*
X145818624Y-117847188D01*
X145886544Y-117683216D01*
X145985147Y-117535646D01*
X146110646Y-117410147D01*
X146258216Y-117311544D01*
X146422188Y-117243624D01*
X146571488Y-117213927D01*
X146596258Y-117209000D01*
X146773742Y-117209000D01*
X146798512Y-117213927D01*
X146798512Y-117213927D01*
G37*
G36*
X92188512Y-117213927D02*
G01*
X92337812Y-117243624D01*
X92501784Y-117311544D01*
X92649354Y-117410147D01*
X92774853Y-117535646D01*
X92873456Y-117683216D01*
X92941376Y-117847188D01*
X92976000Y-118021259D01*
X92976000Y-118198741D01*
X92941376Y-118372812D01*
X92873456Y-118536784D01*
X92774853Y-118684354D01*
X92649354Y-118809853D01*
X92501784Y-118908456D01*
X92337812Y-118976376D01*
X92188512Y-119006073D01*
X92163742Y-119011000D01*
X91986258Y-119011000D01*
X91961488Y-119006073D01*
X91812188Y-118976376D01*
X91648216Y-118908456D01*
X91500646Y-118809853D01*
X91375147Y-118684354D01*
X91276544Y-118536784D01*
X91208624Y-118372812D01*
X91174000Y-118198741D01*
X91174000Y-118021259D01*
X91208624Y-117847188D01*
X91276544Y-117683216D01*
X91375147Y-117535646D01*
X91500646Y-117410147D01*
X91648216Y-117311544D01*
X91812188Y-117243624D01*
X91961488Y-117213927D01*
X91986258Y-117209000D01*
X92163742Y-117209000D01*
X92188512Y-117213927D01*
X92188512Y-117213927D01*
G37*
G36*
X149338512Y-117213927D02*
G01*
X149487812Y-117243624D01*
X149651784Y-117311544D01*
X149799354Y-117410147D01*
X149924853Y-117535646D01*
X150023456Y-117683216D01*
X150091376Y-117847188D01*
X150126000Y-118021259D01*
X150126000Y-118198741D01*
X150091376Y-118372812D01*
X150023456Y-118536784D01*
X149924853Y-118684354D01*
X149799354Y-118809853D01*
X149651784Y-118908456D01*
X149487812Y-118976376D01*
X149338512Y-119006073D01*
X149313742Y-119011000D01*
X149136258Y-119011000D01*
X149111488Y-119006073D01*
X148962188Y-118976376D01*
X148798216Y-118908456D01*
X148650646Y-118809853D01*
X148525147Y-118684354D01*
X148426544Y-118536784D01*
X148358624Y-118372812D01*
X148324000Y-118198741D01*
X148324000Y-118021259D01*
X148358624Y-117847188D01*
X148426544Y-117683216D01*
X148525147Y-117535646D01*
X148650646Y-117410147D01*
X148798216Y-117311544D01*
X148962188Y-117243624D01*
X149111488Y-117213927D01*
X149136258Y-117209000D01*
X149313742Y-117209000D01*
X149338512Y-117213927D01*
X149338512Y-117213927D01*
G37*
G36*
X151878512Y-117213927D02*
G01*
X152027812Y-117243624D01*
X152191784Y-117311544D01*
X152339354Y-117410147D01*
X152464853Y-117535646D01*
X152563456Y-117683216D01*
X152631376Y-117847188D01*
X152666000Y-118021259D01*
X152666000Y-118198741D01*
X152631376Y-118372812D01*
X152563456Y-118536784D01*
X152464853Y-118684354D01*
X152339354Y-118809853D01*
X152191784Y-118908456D01*
X152027812Y-118976376D01*
X151878512Y-119006073D01*
X151853742Y-119011000D01*
X151676258Y-119011000D01*
X151651488Y-119006073D01*
X151502188Y-118976376D01*
X151338216Y-118908456D01*
X151190646Y-118809853D01*
X151065147Y-118684354D01*
X150966544Y-118536784D01*
X150898624Y-118372812D01*
X150864000Y-118198741D01*
X150864000Y-118021259D01*
X150898624Y-117847188D01*
X150966544Y-117683216D01*
X151065147Y-117535646D01*
X151190646Y-117410147D01*
X151338216Y-117311544D01*
X151502188Y-117243624D01*
X151651488Y-117213927D01*
X151676258Y-117209000D01*
X151853742Y-117209000D01*
X151878512Y-117213927D01*
X151878512Y-117213927D01*
G37*
G36*
X154418512Y-117213927D02*
G01*
X154567812Y-117243624D01*
X154731784Y-117311544D01*
X154879354Y-117410147D01*
X155004853Y-117535646D01*
X155103456Y-117683216D01*
X155171376Y-117847188D01*
X155206000Y-118021259D01*
X155206000Y-118198741D01*
X155171376Y-118372812D01*
X155103456Y-118536784D01*
X155004853Y-118684354D01*
X154879354Y-118809853D01*
X154731784Y-118908456D01*
X154567812Y-118976376D01*
X154418512Y-119006073D01*
X154393742Y-119011000D01*
X154216258Y-119011000D01*
X154191488Y-119006073D01*
X154042188Y-118976376D01*
X153878216Y-118908456D01*
X153730646Y-118809853D01*
X153605147Y-118684354D01*
X153506544Y-118536784D01*
X153438624Y-118372812D01*
X153404000Y-118198741D01*
X153404000Y-118021259D01*
X153438624Y-117847188D01*
X153506544Y-117683216D01*
X153605147Y-117535646D01*
X153730646Y-117410147D01*
X153878216Y-117311544D01*
X154042188Y-117243624D01*
X154191488Y-117213927D01*
X154216258Y-117209000D01*
X154393742Y-117209000D01*
X154418512Y-117213927D01*
X154418512Y-117213927D01*
G37*
G36*
X127748512Y-117213927D02*
G01*
X127897812Y-117243624D01*
X128061784Y-117311544D01*
X128209354Y-117410147D01*
X128334853Y-117535646D01*
X128433456Y-117683216D01*
X128501376Y-117847188D01*
X128536000Y-118021259D01*
X128536000Y-118198741D01*
X128501376Y-118372812D01*
X128433456Y-118536784D01*
X128334853Y-118684354D01*
X128209354Y-118809853D01*
X128061784Y-118908456D01*
X127897812Y-118976376D01*
X127748512Y-119006073D01*
X127723742Y-119011000D01*
X127546258Y-119011000D01*
X127521488Y-119006073D01*
X127372188Y-118976376D01*
X127208216Y-118908456D01*
X127060646Y-118809853D01*
X126935147Y-118684354D01*
X126836544Y-118536784D01*
X126768624Y-118372812D01*
X126734000Y-118198741D01*
X126734000Y-118021259D01*
X126768624Y-117847188D01*
X126836544Y-117683216D01*
X126935147Y-117535646D01*
X127060646Y-117410147D01*
X127208216Y-117311544D01*
X127372188Y-117243624D01*
X127521488Y-117213927D01*
X127546258Y-117209000D01*
X127723742Y-117209000D01*
X127748512Y-117213927D01*
X127748512Y-117213927D01*
G37*
G36*
X125208512Y-117213927D02*
G01*
X125357812Y-117243624D01*
X125521784Y-117311544D01*
X125669354Y-117410147D01*
X125794853Y-117535646D01*
X125893456Y-117683216D01*
X125961376Y-117847188D01*
X125996000Y-118021259D01*
X125996000Y-118198741D01*
X125961376Y-118372812D01*
X125893456Y-118536784D01*
X125794853Y-118684354D01*
X125669354Y-118809853D01*
X125521784Y-118908456D01*
X125357812Y-118976376D01*
X125208512Y-119006073D01*
X125183742Y-119011000D01*
X125006258Y-119011000D01*
X124981488Y-119006073D01*
X124832188Y-118976376D01*
X124668216Y-118908456D01*
X124520646Y-118809853D01*
X124395147Y-118684354D01*
X124296544Y-118536784D01*
X124228624Y-118372812D01*
X124194000Y-118198741D01*
X124194000Y-118021259D01*
X124228624Y-117847188D01*
X124296544Y-117683216D01*
X124395147Y-117535646D01*
X124520646Y-117410147D01*
X124668216Y-117311544D01*
X124832188Y-117243624D01*
X124981488Y-117213927D01*
X125006258Y-117209000D01*
X125183742Y-117209000D01*
X125208512Y-117213927D01*
X125208512Y-117213927D01*
G37*
G36*
X139178512Y-117213927D02*
G01*
X139327812Y-117243624D01*
X139491784Y-117311544D01*
X139639354Y-117410147D01*
X139764853Y-117535646D01*
X139863456Y-117683216D01*
X139931376Y-117847188D01*
X139966000Y-118021259D01*
X139966000Y-118198741D01*
X139931376Y-118372812D01*
X139863456Y-118536784D01*
X139764853Y-118684354D01*
X139639354Y-118809853D01*
X139491784Y-118908456D01*
X139327812Y-118976376D01*
X139178512Y-119006073D01*
X139153742Y-119011000D01*
X138976258Y-119011000D01*
X138951488Y-119006073D01*
X138802188Y-118976376D01*
X138638216Y-118908456D01*
X138490646Y-118809853D01*
X138365147Y-118684354D01*
X138266544Y-118536784D01*
X138198624Y-118372812D01*
X138164000Y-118198741D01*
X138164000Y-118021259D01*
X138198624Y-117847188D01*
X138266544Y-117683216D01*
X138365147Y-117535646D01*
X138490646Y-117410147D01*
X138638216Y-117311544D01*
X138802188Y-117243624D01*
X138951488Y-117213927D01*
X138976258Y-117209000D01*
X139153742Y-117209000D01*
X139178512Y-117213927D01*
X139178512Y-117213927D01*
G37*
G36*
X118858512Y-117213927D02*
G01*
X119007812Y-117243624D01*
X119171784Y-117311544D01*
X119319354Y-117410147D01*
X119444853Y-117535646D01*
X119543456Y-117683216D01*
X119611376Y-117847188D01*
X119646000Y-118021259D01*
X119646000Y-118198741D01*
X119611376Y-118372812D01*
X119543456Y-118536784D01*
X119444853Y-118684354D01*
X119319354Y-118809853D01*
X119171784Y-118908456D01*
X119007812Y-118976376D01*
X118858512Y-119006073D01*
X118833742Y-119011000D01*
X118656258Y-119011000D01*
X118631488Y-119006073D01*
X118482188Y-118976376D01*
X118318216Y-118908456D01*
X118170646Y-118809853D01*
X118045147Y-118684354D01*
X117946544Y-118536784D01*
X117878624Y-118372812D01*
X117844000Y-118198741D01*
X117844000Y-118021259D01*
X117878624Y-117847188D01*
X117946544Y-117683216D01*
X118045147Y-117535646D01*
X118170646Y-117410147D01*
X118318216Y-117311544D01*
X118482188Y-117243624D01*
X118631488Y-117213927D01*
X118656258Y-117209000D01*
X118833742Y-117209000D01*
X118858512Y-117213927D01*
X118858512Y-117213927D01*
G37*
G36*
X116318512Y-117213927D02*
G01*
X116467812Y-117243624D01*
X116631784Y-117311544D01*
X116779354Y-117410147D01*
X116904853Y-117535646D01*
X117003456Y-117683216D01*
X117071376Y-117847188D01*
X117106000Y-118021259D01*
X117106000Y-118198741D01*
X117071376Y-118372812D01*
X117003456Y-118536784D01*
X116904853Y-118684354D01*
X116779354Y-118809853D01*
X116631784Y-118908456D01*
X116467812Y-118976376D01*
X116318512Y-119006073D01*
X116293742Y-119011000D01*
X116116258Y-119011000D01*
X116091488Y-119006073D01*
X115942188Y-118976376D01*
X115778216Y-118908456D01*
X115630646Y-118809853D01*
X115505147Y-118684354D01*
X115406544Y-118536784D01*
X115338624Y-118372812D01*
X115304000Y-118198741D01*
X115304000Y-118021259D01*
X115338624Y-117847188D01*
X115406544Y-117683216D01*
X115505147Y-117535646D01*
X115630646Y-117410147D01*
X115778216Y-117311544D01*
X115942188Y-117243624D01*
X116091488Y-117213927D01*
X116116258Y-117209000D01*
X116293742Y-117209000D01*
X116318512Y-117213927D01*
X116318512Y-117213927D01*
G37*
G36*
X113778512Y-117213927D02*
G01*
X113927812Y-117243624D01*
X114091784Y-117311544D01*
X114239354Y-117410147D01*
X114364853Y-117535646D01*
X114463456Y-117683216D01*
X114531376Y-117847188D01*
X114566000Y-118021259D01*
X114566000Y-118198741D01*
X114531376Y-118372812D01*
X114463456Y-118536784D01*
X114364853Y-118684354D01*
X114239354Y-118809853D01*
X114091784Y-118908456D01*
X113927812Y-118976376D01*
X113778512Y-119006073D01*
X113753742Y-119011000D01*
X113576258Y-119011000D01*
X113551488Y-119006073D01*
X113402188Y-118976376D01*
X113238216Y-118908456D01*
X113090646Y-118809853D01*
X112965147Y-118684354D01*
X112866544Y-118536784D01*
X112798624Y-118372812D01*
X112764000Y-118198741D01*
X112764000Y-118021259D01*
X112798624Y-117847188D01*
X112866544Y-117683216D01*
X112965147Y-117535646D01*
X113090646Y-117410147D01*
X113238216Y-117311544D01*
X113402188Y-117243624D01*
X113551488Y-117213927D01*
X113576258Y-117209000D01*
X113753742Y-117209000D01*
X113778512Y-117213927D01*
X113778512Y-117213927D01*
G37*
G36*
X144258512Y-117213927D02*
G01*
X144407812Y-117243624D01*
X144571784Y-117311544D01*
X144719354Y-117410147D01*
X144844853Y-117535646D01*
X144943456Y-117683216D01*
X145011376Y-117847188D01*
X145046000Y-118021259D01*
X145046000Y-118198741D01*
X145011376Y-118372812D01*
X144943456Y-118536784D01*
X144844853Y-118684354D01*
X144719354Y-118809853D01*
X144571784Y-118908456D01*
X144407812Y-118976376D01*
X144258512Y-119006073D01*
X144233742Y-119011000D01*
X144056258Y-119011000D01*
X144031488Y-119006073D01*
X143882188Y-118976376D01*
X143718216Y-118908456D01*
X143570646Y-118809853D01*
X143445147Y-118684354D01*
X143346544Y-118536784D01*
X143278624Y-118372812D01*
X143244000Y-118198741D01*
X143244000Y-118021259D01*
X143278624Y-117847188D01*
X143346544Y-117683216D01*
X143445147Y-117535646D01*
X143570646Y-117410147D01*
X143718216Y-117311544D01*
X143882188Y-117243624D01*
X144031488Y-117213927D01*
X144056258Y-117209000D01*
X144233742Y-117209000D01*
X144258512Y-117213927D01*
X144258512Y-117213927D01*
G37*
G36*
X141718512Y-117213927D02*
G01*
X141867812Y-117243624D01*
X142031784Y-117311544D01*
X142179354Y-117410147D01*
X142304853Y-117535646D01*
X142403456Y-117683216D01*
X142471376Y-117847188D01*
X142506000Y-118021259D01*
X142506000Y-118198741D01*
X142471376Y-118372812D01*
X142403456Y-118536784D01*
X142304853Y-118684354D01*
X142179354Y-118809853D01*
X142031784Y-118908456D01*
X141867812Y-118976376D01*
X141718512Y-119006073D01*
X141693742Y-119011000D01*
X141516258Y-119011000D01*
X141491488Y-119006073D01*
X141342188Y-118976376D01*
X141178216Y-118908456D01*
X141030646Y-118809853D01*
X140905147Y-118684354D01*
X140806544Y-118536784D01*
X140738624Y-118372812D01*
X140704000Y-118198741D01*
X140704000Y-118021259D01*
X140738624Y-117847188D01*
X140806544Y-117683216D01*
X140905147Y-117535646D01*
X141030646Y-117410147D01*
X141178216Y-117311544D01*
X141342188Y-117243624D01*
X141491488Y-117213927D01*
X141516258Y-117209000D01*
X141693742Y-117209000D01*
X141718512Y-117213927D01*
X141718512Y-117213927D01*
G37*
G36*
X84568512Y-117213927D02*
G01*
X84717812Y-117243624D01*
X84881784Y-117311544D01*
X85029354Y-117410147D01*
X85154853Y-117535646D01*
X85253456Y-117683216D01*
X85321376Y-117847188D01*
X85356000Y-118021259D01*
X85356000Y-118198741D01*
X85321376Y-118372812D01*
X85253456Y-118536784D01*
X85154853Y-118684354D01*
X85029354Y-118809853D01*
X84881784Y-118908456D01*
X84717812Y-118976376D01*
X84568512Y-119006073D01*
X84543742Y-119011000D01*
X84366258Y-119011000D01*
X84341488Y-119006073D01*
X84192188Y-118976376D01*
X84028216Y-118908456D01*
X83880646Y-118809853D01*
X83755147Y-118684354D01*
X83656544Y-118536784D01*
X83588624Y-118372812D01*
X83554000Y-118198741D01*
X83554000Y-118021259D01*
X83588624Y-117847188D01*
X83656544Y-117683216D01*
X83755147Y-117535646D01*
X83880646Y-117410147D01*
X84028216Y-117311544D01*
X84192188Y-117243624D01*
X84341488Y-117213927D01*
X84366258Y-117209000D01*
X84543742Y-117209000D01*
X84568512Y-117213927D01*
X84568512Y-117213927D01*
G37*
G36*
X87108512Y-117213927D02*
G01*
X87257812Y-117243624D01*
X87421784Y-117311544D01*
X87569354Y-117410147D01*
X87694853Y-117535646D01*
X87793456Y-117683216D01*
X87861376Y-117847188D01*
X87896000Y-118021259D01*
X87896000Y-118198741D01*
X87861376Y-118372812D01*
X87793456Y-118536784D01*
X87694853Y-118684354D01*
X87569354Y-118809853D01*
X87421784Y-118908456D01*
X87257812Y-118976376D01*
X87108512Y-119006073D01*
X87083742Y-119011000D01*
X86906258Y-119011000D01*
X86881488Y-119006073D01*
X86732188Y-118976376D01*
X86568216Y-118908456D01*
X86420646Y-118809853D01*
X86295147Y-118684354D01*
X86196544Y-118536784D01*
X86128624Y-118372812D01*
X86094000Y-118198741D01*
X86094000Y-118021259D01*
X86128624Y-117847188D01*
X86196544Y-117683216D01*
X86295147Y-117535646D01*
X86420646Y-117410147D01*
X86568216Y-117311544D01*
X86732188Y-117243624D01*
X86881488Y-117213927D01*
X86906258Y-117209000D01*
X87083742Y-117209000D01*
X87108512Y-117213927D01*
X87108512Y-117213927D01*
G37*
G36*
X89648512Y-117213927D02*
G01*
X89797812Y-117243624D01*
X89961784Y-117311544D01*
X90109354Y-117410147D01*
X90234853Y-117535646D01*
X90333456Y-117683216D01*
X90401376Y-117847188D01*
X90436000Y-118021259D01*
X90436000Y-118198741D01*
X90401376Y-118372812D01*
X90333456Y-118536784D01*
X90234853Y-118684354D01*
X90109354Y-118809853D01*
X89961784Y-118908456D01*
X89797812Y-118976376D01*
X89648512Y-119006073D01*
X89623742Y-119011000D01*
X89446258Y-119011000D01*
X89421488Y-119006073D01*
X89272188Y-118976376D01*
X89108216Y-118908456D01*
X88960646Y-118809853D01*
X88835147Y-118684354D01*
X88736544Y-118536784D01*
X88668624Y-118372812D01*
X88634000Y-118198741D01*
X88634000Y-118021259D01*
X88668624Y-117847188D01*
X88736544Y-117683216D01*
X88835147Y-117535646D01*
X88960646Y-117410147D01*
X89108216Y-117311544D01*
X89272188Y-117243624D01*
X89421488Y-117213927D01*
X89446258Y-117209000D01*
X89623742Y-117209000D01*
X89648512Y-117213927D01*
X89648512Y-117213927D01*
G37*
G36*
X94728512Y-117213927D02*
G01*
X94877812Y-117243624D01*
X95041784Y-117311544D01*
X95189354Y-117410147D01*
X95314853Y-117535646D01*
X95413456Y-117683216D01*
X95481376Y-117847188D01*
X95516000Y-118021259D01*
X95516000Y-118198741D01*
X95481376Y-118372812D01*
X95413456Y-118536784D01*
X95314853Y-118684354D01*
X95189354Y-118809853D01*
X95041784Y-118908456D01*
X94877812Y-118976376D01*
X94728512Y-119006073D01*
X94703742Y-119011000D01*
X94526258Y-119011000D01*
X94501488Y-119006073D01*
X94352188Y-118976376D01*
X94188216Y-118908456D01*
X94040646Y-118809853D01*
X93915147Y-118684354D01*
X93816544Y-118536784D01*
X93748624Y-118372812D01*
X93714000Y-118198741D01*
X93714000Y-118021259D01*
X93748624Y-117847188D01*
X93816544Y-117683216D01*
X93915147Y-117535646D01*
X94040646Y-117410147D01*
X94188216Y-117311544D01*
X94352188Y-117243624D01*
X94501488Y-117213927D01*
X94526258Y-117209000D01*
X94703742Y-117209000D01*
X94728512Y-117213927D01*
X94728512Y-117213927D01*
G37*
G36*
X97268512Y-117213927D02*
G01*
X97417812Y-117243624D01*
X97581784Y-117311544D01*
X97729354Y-117410147D01*
X97854853Y-117535646D01*
X97953456Y-117683216D01*
X98021376Y-117847188D01*
X98056000Y-118021259D01*
X98056000Y-118198741D01*
X98021376Y-118372812D01*
X97953456Y-118536784D01*
X97854853Y-118684354D01*
X97729354Y-118809853D01*
X97581784Y-118908456D01*
X97417812Y-118976376D01*
X97268512Y-119006073D01*
X97243742Y-119011000D01*
X97066258Y-119011000D01*
X97041488Y-119006073D01*
X96892188Y-118976376D01*
X96728216Y-118908456D01*
X96580646Y-118809853D01*
X96455147Y-118684354D01*
X96356544Y-118536784D01*
X96288624Y-118372812D01*
X96254000Y-118198741D01*
X96254000Y-118021259D01*
X96288624Y-117847188D01*
X96356544Y-117683216D01*
X96455147Y-117535646D01*
X96580646Y-117410147D01*
X96728216Y-117311544D01*
X96892188Y-117243624D01*
X97041488Y-117213927D01*
X97066258Y-117209000D01*
X97243742Y-117209000D01*
X97268512Y-117213927D01*
X97268512Y-117213927D01*
G37*
G36*
X99808512Y-117213927D02*
G01*
X99957812Y-117243624D01*
X100121784Y-117311544D01*
X100269354Y-117410147D01*
X100394853Y-117535646D01*
X100493456Y-117683216D01*
X100561376Y-117847188D01*
X100596000Y-118021259D01*
X100596000Y-118198741D01*
X100561376Y-118372812D01*
X100493456Y-118536784D01*
X100394853Y-118684354D01*
X100269354Y-118809853D01*
X100121784Y-118908456D01*
X99957812Y-118976376D01*
X99808512Y-119006073D01*
X99783742Y-119011000D01*
X99606258Y-119011000D01*
X99581488Y-119006073D01*
X99432188Y-118976376D01*
X99268216Y-118908456D01*
X99120646Y-118809853D01*
X98995147Y-118684354D01*
X98896544Y-118536784D01*
X98828624Y-118372812D01*
X98794000Y-118198741D01*
X98794000Y-118021259D01*
X98828624Y-117847188D01*
X98896544Y-117683216D01*
X98995147Y-117535646D01*
X99120646Y-117410147D01*
X99268216Y-117311544D01*
X99432188Y-117243624D01*
X99581488Y-117213927D01*
X99606258Y-117209000D01*
X99783742Y-117209000D01*
X99808512Y-117213927D01*
X99808512Y-117213927D01*
G37*
G36*
X102348512Y-117213927D02*
G01*
X102497812Y-117243624D01*
X102661784Y-117311544D01*
X102809354Y-117410147D01*
X102934853Y-117535646D01*
X103033456Y-117683216D01*
X103101376Y-117847188D01*
X103136000Y-118021259D01*
X103136000Y-118198741D01*
X103101376Y-118372812D01*
X103033456Y-118536784D01*
X102934853Y-118684354D01*
X102809354Y-118809853D01*
X102661784Y-118908456D01*
X102497812Y-118976376D01*
X102348512Y-119006073D01*
X102323742Y-119011000D01*
X102146258Y-119011000D01*
X102121488Y-119006073D01*
X101972188Y-118976376D01*
X101808216Y-118908456D01*
X101660646Y-118809853D01*
X101535147Y-118684354D01*
X101436544Y-118536784D01*
X101368624Y-118372812D01*
X101334000Y-118198741D01*
X101334000Y-118021259D01*
X101368624Y-117847188D01*
X101436544Y-117683216D01*
X101535147Y-117535646D01*
X101660646Y-117410147D01*
X101808216Y-117311544D01*
X101972188Y-117243624D01*
X102121488Y-117213927D01*
X102146258Y-117209000D01*
X102323742Y-117209000D01*
X102348512Y-117213927D01*
X102348512Y-117213927D01*
G37*
G36*
X130288512Y-117213927D02*
G01*
X130437812Y-117243624D01*
X130601784Y-117311544D01*
X130749354Y-117410147D01*
X130874853Y-117535646D01*
X130973456Y-117683216D01*
X131041376Y-117847188D01*
X131076000Y-118021259D01*
X131076000Y-118198741D01*
X131041376Y-118372812D01*
X130973456Y-118536784D01*
X130874853Y-118684354D01*
X130749354Y-118809853D01*
X130601784Y-118908456D01*
X130437812Y-118976376D01*
X130288512Y-119006073D01*
X130263742Y-119011000D01*
X130086258Y-119011000D01*
X130061488Y-119006073D01*
X129912188Y-118976376D01*
X129748216Y-118908456D01*
X129600646Y-118809853D01*
X129475147Y-118684354D01*
X129376544Y-118536784D01*
X129308624Y-118372812D01*
X129274000Y-118198741D01*
X129274000Y-118021259D01*
X129308624Y-117847188D01*
X129376544Y-117683216D01*
X129475147Y-117535646D01*
X129600646Y-117410147D01*
X129748216Y-117311544D01*
X129912188Y-117243624D01*
X130061488Y-117213927D01*
X130086258Y-117209000D01*
X130263742Y-117209000D01*
X130288512Y-117213927D01*
X130288512Y-117213927D01*
G37*
G36*
X80120443Y-93720519D02*
G01*
X80186627Y-93727037D01*
X80356466Y-93778557D01*
X80512991Y-93862222D01*
X80548729Y-93891552D01*
X80650186Y-93974814D01*
X80733448Y-94076271D01*
X80762778Y-94112009D01*
X80846443Y-94268534D01*
X80897963Y-94438373D01*
X80915359Y-94615000D01*
X80897963Y-94791627D01*
X80846443Y-94961466D01*
X80762778Y-95117991D01*
X80733448Y-95153729D01*
X80650186Y-95255186D01*
X80548729Y-95338448D01*
X80512991Y-95367778D01*
X80356466Y-95451443D01*
X80186627Y-95502963D01*
X80120443Y-95509481D01*
X80054260Y-95516000D01*
X79965740Y-95516000D01*
X79899557Y-95509481D01*
X79833373Y-95502963D01*
X79663534Y-95451443D01*
X79507009Y-95367778D01*
X79471271Y-95338448D01*
X79369814Y-95255186D01*
X79286552Y-95153729D01*
X79257222Y-95117991D01*
X79173557Y-94961466D01*
X79122037Y-94791627D01*
X79104641Y-94615000D01*
X79122037Y-94438373D01*
X79173557Y-94268534D01*
X79257222Y-94112009D01*
X79286552Y-94076271D01*
X79369814Y-93974814D01*
X79471271Y-93891552D01*
X79507009Y-93862222D01*
X79663534Y-93778557D01*
X79833373Y-93727037D01*
X79899557Y-93720519D01*
X79965740Y-93714000D01*
X80054260Y-93714000D01*
X80120443Y-93720519D01*
X80120443Y-93720519D01*
G37*
G36*
X77580443Y-93720519D02*
G01*
X77646627Y-93727037D01*
X77816466Y-93778557D01*
X77972991Y-93862222D01*
X78008729Y-93891552D01*
X78110186Y-93974814D01*
X78193448Y-94076271D01*
X78222778Y-94112009D01*
X78306443Y-94268534D01*
X78357963Y-94438373D01*
X78375359Y-94615000D01*
X78357963Y-94791627D01*
X78306443Y-94961466D01*
X78222778Y-95117991D01*
X78193448Y-95153729D01*
X78110186Y-95255186D01*
X78008729Y-95338448D01*
X77972991Y-95367778D01*
X77816466Y-95451443D01*
X77646627Y-95502963D01*
X77580443Y-95509481D01*
X77514260Y-95516000D01*
X77425740Y-95516000D01*
X77359557Y-95509481D01*
X77293373Y-95502963D01*
X77123534Y-95451443D01*
X76967009Y-95367778D01*
X76931271Y-95338448D01*
X76829814Y-95255186D01*
X76746552Y-95153729D01*
X76717222Y-95117991D01*
X76633557Y-94961466D01*
X76582037Y-94791627D01*
X76564641Y-94615000D01*
X76582037Y-94438373D01*
X76633557Y-94268534D01*
X76717222Y-94112009D01*
X76746552Y-94076271D01*
X76829814Y-93974814D01*
X76931271Y-93891552D01*
X76967009Y-93862222D01*
X77123534Y-93778557D01*
X77293373Y-93727037D01*
X77359557Y-93720519D01*
X77425740Y-93714000D01*
X77514260Y-93714000D01*
X77580443Y-93720519D01*
X77580443Y-93720519D01*
G37*
G36*
X170290443Y-92450519D02*
G01*
X170356627Y-92457037D01*
X170526466Y-92508557D01*
X170682991Y-92592222D01*
X170718729Y-92621552D01*
X170820186Y-92704814D01*
X170903448Y-92806271D01*
X170932778Y-92842009D01*
X171016443Y-92998534D01*
X171067963Y-93168373D01*
X171085359Y-93345000D01*
X171067963Y-93521627D01*
X171016443Y-93691466D01*
X170932778Y-93847991D01*
X170903448Y-93883729D01*
X170820186Y-93985186D01*
X170718729Y-94068448D01*
X170682991Y-94097778D01*
X170526466Y-94181443D01*
X170356627Y-94232963D01*
X170290443Y-94239481D01*
X170224260Y-94246000D01*
X170135740Y-94246000D01*
X170069557Y-94239481D01*
X170003373Y-94232963D01*
X169833534Y-94181443D01*
X169677009Y-94097778D01*
X169641271Y-94068448D01*
X169539814Y-93985186D01*
X169456552Y-93883729D01*
X169427222Y-93847991D01*
X169343557Y-93691466D01*
X169292037Y-93521627D01*
X169274641Y-93345000D01*
X169292037Y-93168373D01*
X169343557Y-92998534D01*
X169427222Y-92842009D01*
X169456552Y-92806271D01*
X169539814Y-92704814D01*
X169641271Y-92621552D01*
X169677009Y-92592222D01*
X169833534Y-92508557D01*
X170003373Y-92457037D01*
X170069557Y-92450519D01*
X170135740Y-92444000D01*
X170224260Y-92444000D01*
X170290443Y-92450519D01*
X170290443Y-92450519D01*
G37*
G36*
X77580442Y-91180518D02*
G01*
X77646627Y-91187037D01*
X77816466Y-91238557D01*
X77972991Y-91322222D01*
X78008729Y-91351552D01*
X78110186Y-91434814D01*
X78193448Y-91536271D01*
X78222778Y-91572009D01*
X78306443Y-91728534D01*
X78357963Y-91898373D01*
X78375359Y-92075000D01*
X78357963Y-92251627D01*
X78306443Y-92421466D01*
X78222778Y-92577991D01*
X78193448Y-92613729D01*
X78110186Y-92715186D01*
X78008729Y-92798448D01*
X77972991Y-92827778D01*
X77816466Y-92911443D01*
X77646627Y-92962963D01*
X77580442Y-92969482D01*
X77514260Y-92976000D01*
X77425740Y-92976000D01*
X77359558Y-92969482D01*
X77293373Y-92962963D01*
X77123534Y-92911443D01*
X76967009Y-92827778D01*
X76931271Y-92798448D01*
X76829814Y-92715186D01*
X76746552Y-92613729D01*
X76717222Y-92577991D01*
X76633557Y-92421466D01*
X76582037Y-92251627D01*
X76564641Y-92075000D01*
X76582037Y-91898373D01*
X76633557Y-91728534D01*
X76717222Y-91572009D01*
X76746552Y-91536271D01*
X76829814Y-91434814D01*
X76931271Y-91351552D01*
X76967009Y-91322222D01*
X77123534Y-91238557D01*
X77293373Y-91187037D01*
X77359558Y-91180518D01*
X77425740Y-91174000D01*
X77514260Y-91174000D01*
X77580442Y-91180518D01*
X77580442Y-91180518D01*
G37*
G36*
X80120442Y-91180518D02*
G01*
X80186627Y-91187037D01*
X80356466Y-91238557D01*
X80512991Y-91322222D01*
X80548729Y-91351552D01*
X80650186Y-91434814D01*
X80733448Y-91536271D01*
X80762778Y-91572009D01*
X80846443Y-91728534D01*
X80897963Y-91898373D01*
X80915359Y-92075000D01*
X80897963Y-92251627D01*
X80846443Y-92421466D01*
X80762778Y-92577991D01*
X80733448Y-92613729D01*
X80650186Y-92715186D01*
X80548729Y-92798448D01*
X80512991Y-92827778D01*
X80356466Y-92911443D01*
X80186627Y-92962963D01*
X80120442Y-92969482D01*
X80054260Y-92976000D01*
X79965740Y-92976000D01*
X79899558Y-92969482D01*
X79833373Y-92962963D01*
X79663534Y-92911443D01*
X79507009Y-92827778D01*
X79471271Y-92798448D01*
X79369814Y-92715186D01*
X79286552Y-92613729D01*
X79257222Y-92577991D01*
X79173557Y-92421466D01*
X79122037Y-92251627D01*
X79104641Y-92075000D01*
X79122037Y-91898373D01*
X79173557Y-91728534D01*
X79257222Y-91572009D01*
X79286552Y-91536271D01*
X79369814Y-91434814D01*
X79471271Y-91351552D01*
X79507009Y-91322222D01*
X79663534Y-91238557D01*
X79833373Y-91187037D01*
X79899558Y-91180518D01*
X79965740Y-91174000D01*
X80054260Y-91174000D01*
X80120442Y-91180518D01*
X80120442Y-91180518D01*
G37*
G36*
X170290442Y-89910518D02*
G01*
X170356627Y-89917037D01*
X170526466Y-89968557D01*
X170682991Y-90052222D01*
X170718729Y-90081552D01*
X170820186Y-90164814D01*
X170903448Y-90266271D01*
X170932778Y-90302009D01*
X171016443Y-90458534D01*
X171067963Y-90628373D01*
X171085359Y-90805000D01*
X171067963Y-90981627D01*
X171016443Y-91151466D01*
X170932778Y-91307991D01*
X170903448Y-91343729D01*
X170820186Y-91445186D01*
X170718729Y-91528448D01*
X170682991Y-91557778D01*
X170526466Y-91641443D01*
X170356627Y-91692963D01*
X170290442Y-91699482D01*
X170224260Y-91706000D01*
X170135740Y-91706000D01*
X170069558Y-91699482D01*
X170003373Y-91692963D01*
X169833534Y-91641443D01*
X169677009Y-91557778D01*
X169641271Y-91528448D01*
X169539814Y-91445186D01*
X169456552Y-91343729D01*
X169427222Y-91307991D01*
X169343557Y-91151466D01*
X169292037Y-90981627D01*
X169274641Y-90805000D01*
X169292037Y-90628373D01*
X169343557Y-90458534D01*
X169427222Y-90302009D01*
X169456552Y-90266271D01*
X169539814Y-90164814D01*
X169641271Y-90081552D01*
X169677009Y-90052222D01*
X169833534Y-89968557D01*
X170003373Y-89917037D01*
X170069558Y-89910518D01*
X170135740Y-89904000D01*
X170224260Y-89904000D01*
X170290442Y-89910518D01*
X170290442Y-89910518D01*
G37*
G36*
X80120443Y-88640519D02*
G01*
X80186627Y-88647037D01*
X80356466Y-88698557D01*
X80512991Y-88782222D01*
X80548729Y-88811552D01*
X80650186Y-88894814D01*
X80733448Y-88996271D01*
X80762778Y-89032009D01*
X80846443Y-89188534D01*
X80897963Y-89358373D01*
X80915359Y-89535000D01*
X80897963Y-89711627D01*
X80846443Y-89881466D01*
X80762778Y-90037991D01*
X80733448Y-90073729D01*
X80650186Y-90175186D01*
X80548729Y-90258448D01*
X80512991Y-90287778D01*
X80356466Y-90371443D01*
X80186627Y-90422963D01*
X80120443Y-90429481D01*
X80054260Y-90436000D01*
X79965740Y-90436000D01*
X79899557Y-90429481D01*
X79833373Y-90422963D01*
X79663534Y-90371443D01*
X79507009Y-90287778D01*
X79471271Y-90258448D01*
X79369814Y-90175186D01*
X79286552Y-90073729D01*
X79257222Y-90037991D01*
X79173557Y-89881466D01*
X79122037Y-89711627D01*
X79104641Y-89535000D01*
X79122037Y-89358373D01*
X79173557Y-89188534D01*
X79257222Y-89032009D01*
X79286552Y-88996271D01*
X79369814Y-88894814D01*
X79471271Y-88811552D01*
X79507009Y-88782222D01*
X79663534Y-88698557D01*
X79833373Y-88647037D01*
X79899557Y-88640519D01*
X79965740Y-88634000D01*
X80054260Y-88634000D01*
X80120443Y-88640519D01*
X80120443Y-88640519D01*
G37*
G36*
X77580443Y-88640519D02*
G01*
X77646627Y-88647037D01*
X77816466Y-88698557D01*
X77972991Y-88782222D01*
X78008729Y-88811552D01*
X78110186Y-88894814D01*
X78193448Y-88996271D01*
X78222778Y-89032009D01*
X78306443Y-89188534D01*
X78357963Y-89358373D01*
X78375359Y-89535000D01*
X78357963Y-89711627D01*
X78306443Y-89881466D01*
X78222778Y-90037991D01*
X78193448Y-90073729D01*
X78110186Y-90175186D01*
X78008729Y-90258448D01*
X77972991Y-90287778D01*
X77816466Y-90371443D01*
X77646627Y-90422963D01*
X77580443Y-90429481D01*
X77514260Y-90436000D01*
X77425740Y-90436000D01*
X77359557Y-90429481D01*
X77293373Y-90422963D01*
X77123534Y-90371443D01*
X76967009Y-90287778D01*
X76931271Y-90258448D01*
X76829814Y-90175186D01*
X76746552Y-90073729D01*
X76717222Y-90037991D01*
X76633557Y-89881466D01*
X76582037Y-89711627D01*
X76564641Y-89535000D01*
X76582037Y-89358373D01*
X76633557Y-89188534D01*
X76717222Y-89032009D01*
X76746552Y-88996271D01*
X76829814Y-88894814D01*
X76931271Y-88811552D01*
X76967009Y-88782222D01*
X77123534Y-88698557D01*
X77293373Y-88647037D01*
X77359557Y-88640519D01*
X77425740Y-88634000D01*
X77514260Y-88634000D01*
X77580443Y-88640519D01*
X77580443Y-88640519D01*
G37*
G36*
X170290443Y-87370519D02*
G01*
X170356627Y-87377037D01*
X170526466Y-87428557D01*
X170682991Y-87512222D01*
X170718729Y-87541552D01*
X170820186Y-87624814D01*
X170903448Y-87726271D01*
X170932778Y-87762009D01*
X171016443Y-87918534D01*
X171067963Y-88088373D01*
X171085359Y-88265000D01*
X171067963Y-88441627D01*
X171016443Y-88611466D01*
X170932778Y-88767991D01*
X170903448Y-88803729D01*
X170820186Y-88905186D01*
X170718729Y-88988448D01*
X170682991Y-89017778D01*
X170526466Y-89101443D01*
X170356627Y-89152963D01*
X170290443Y-89159481D01*
X170224260Y-89166000D01*
X170135740Y-89166000D01*
X170069557Y-89159481D01*
X170003373Y-89152963D01*
X169833534Y-89101443D01*
X169677009Y-89017778D01*
X169641271Y-88988448D01*
X169539814Y-88905186D01*
X169456552Y-88803729D01*
X169427222Y-88767991D01*
X169343557Y-88611466D01*
X169292037Y-88441627D01*
X169274641Y-88265000D01*
X169292037Y-88088373D01*
X169343557Y-87918534D01*
X169427222Y-87762009D01*
X169456552Y-87726271D01*
X169539814Y-87624814D01*
X169641271Y-87541552D01*
X169677009Y-87512222D01*
X169833534Y-87428557D01*
X170003373Y-87377037D01*
X170069557Y-87370519D01*
X170135740Y-87364000D01*
X170224260Y-87364000D01*
X170290443Y-87370519D01*
X170290443Y-87370519D01*
G37*
G36*
X77580442Y-86100518D02*
G01*
X77646627Y-86107037D01*
X77816466Y-86158557D01*
X77972991Y-86242222D01*
X78008729Y-86271552D01*
X78110186Y-86354814D01*
X78193448Y-86456271D01*
X78222778Y-86492009D01*
X78306443Y-86648534D01*
X78357963Y-86818373D01*
X78375359Y-86995000D01*
X78357963Y-87171627D01*
X78306443Y-87341466D01*
X78222778Y-87497991D01*
X78193448Y-87533729D01*
X78110186Y-87635186D01*
X78008729Y-87718448D01*
X77972991Y-87747778D01*
X77816466Y-87831443D01*
X77646627Y-87882963D01*
X77580443Y-87889481D01*
X77514260Y-87896000D01*
X77425740Y-87896000D01*
X77359557Y-87889481D01*
X77293373Y-87882963D01*
X77123534Y-87831443D01*
X76967009Y-87747778D01*
X76931271Y-87718448D01*
X76829814Y-87635186D01*
X76746552Y-87533729D01*
X76717222Y-87497991D01*
X76633557Y-87341466D01*
X76582037Y-87171627D01*
X76564641Y-86995000D01*
X76582037Y-86818373D01*
X76633557Y-86648534D01*
X76717222Y-86492009D01*
X76746552Y-86456271D01*
X76829814Y-86354814D01*
X76931271Y-86271552D01*
X76967009Y-86242222D01*
X77123534Y-86158557D01*
X77293373Y-86107037D01*
X77359558Y-86100518D01*
X77425740Y-86094000D01*
X77514260Y-86094000D01*
X77580442Y-86100518D01*
X77580442Y-86100518D01*
G37*
G36*
X80120442Y-86100518D02*
G01*
X80186627Y-86107037D01*
X80356466Y-86158557D01*
X80512991Y-86242222D01*
X80548729Y-86271552D01*
X80650186Y-86354814D01*
X80733448Y-86456271D01*
X80762778Y-86492009D01*
X80846443Y-86648534D01*
X80897963Y-86818373D01*
X80915359Y-86995000D01*
X80897963Y-87171627D01*
X80846443Y-87341466D01*
X80762778Y-87497991D01*
X80733448Y-87533729D01*
X80650186Y-87635186D01*
X80548729Y-87718448D01*
X80512991Y-87747778D01*
X80356466Y-87831443D01*
X80186627Y-87882963D01*
X80120443Y-87889481D01*
X80054260Y-87896000D01*
X79965740Y-87896000D01*
X79899557Y-87889481D01*
X79833373Y-87882963D01*
X79663534Y-87831443D01*
X79507009Y-87747778D01*
X79471271Y-87718448D01*
X79369814Y-87635186D01*
X79286552Y-87533729D01*
X79257222Y-87497991D01*
X79173557Y-87341466D01*
X79122037Y-87171627D01*
X79104641Y-86995000D01*
X79122037Y-86818373D01*
X79173557Y-86648534D01*
X79257222Y-86492009D01*
X79286552Y-86456271D01*
X79369814Y-86354814D01*
X79471271Y-86271552D01*
X79507009Y-86242222D01*
X79663534Y-86158557D01*
X79833373Y-86107037D01*
X79899558Y-86100518D01*
X79965740Y-86094000D01*
X80054260Y-86094000D01*
X80120442Y-86100518D01*
X80120442Y-86100518D01*
G37*
G36*
X171081000Y-86626000D02*
G01*
X169279000Y-86626000D01*
X169279000Y-84824000D01*
X171081000Y-84824000D01*
X171081000Y-86626000D01*
X171081000Y-86626000D01*
G37*
G36*
X80911000Y-85356000D02*
G01*
X79109000Y-85356000D01*
X79109000Y-83554000D01*
X80911000Y-83554000D01*
X80911000Y-85356000D01*
X80911000Y-85356000D01*
G37*
G36*
X77580443Y-83560519D02*
G01*
X77646627Y-83567037D01*
X77816466Y-83618557D01*
X77972991Y-83702222D01*
X78008729Y-83731552D01*
X78110186Y-83814814D01*
X78193448Y-83916271D01*
X78222778Y-83952009D01*
X78306443Y-84108534D01*
X78357963Y-84278373D01*
X78375359Y-84455000D01*
X78357963Y-84631627D01*
X78306443Y-84801466D01*
X78222778Y-84957991D01*
X78193448Y-84993729D01*
X78110186Y-85095186D01*
X78008729Y-85178448D01*
X77972991Y-85207778D01*
X77816466Y-85291443D01*
X77646627Y-85342963D01*
X77580442Y-85349482D01*
X77514260Y-85356000D01*
X77425740Y-85356000D01*
X77359558Y-85349482D01*
X77293373Y-85342963D01*
X77123534Y-85291443D01*
X76967009Y-85207778D01*
X76931271Y-85178448D01*
X76829814Y-85095186D01*
X76746552Y-84993729D01*
X76717222Y-84957991D01*
X76633557Y-84801466D01*
X76582037Y-84631627D01*
X76564641Y-84455000D01*
X76582037Y-84278373D01*
X76633557Y-84108534D01*
X76717222Y-83952009D01*
X76746552Y-83916271D01*
X76829814Y-83814814D01*
X76931271Y-83731552D01*
X76967009Y-83702222D01*
X77123534Y-83618557D01*
X77293373Y-83567037D01*
X77359557Y-83560519D01*
X77425740Y-83554000D01*
X77514260Y-83554000D01*
X77580443Y-83560519D01*
X77580443Y-83560519D01*
G37*
G36*
X148703512Y-60063927D02*
G01*
X148852812Y-60093624D01*
X149016784Y-60161544D01*
X149164354Y-60260147D01*
X149289853Y-60385646D01*
X149388456Y-60533216D01*
X149456376Y-60697188D01*
X149491000Y-60871259D01*
X149491000Y-61048741D01*
X149456376Y-61222812D01*
X149388456Y-61386784D01*
X149289853Y-61534354D01*
X149164354Y-61659853D01*
X149016784Y-61758456D01*
X148852812Y-61826376D01*
X148703512Y-61856073D01*
X148678742Y-61861000D01*
X148501258Y-61861000D01*
X148476488Y-61856073D01*
X148327188Y-61826376D01*
X148163216Y-61758456D01*
X148015646Y-61659853D01*
X147890147Y-61534354D01*
X147791544Y-61386784D01*
X147723624Y-61222812D01*
X147689000Y-61048741D01*
X147689000Y-60871259D01*
X147723624Y-60697188D01*
X147791544Y-60533216D01*
X147890147Y-60385646D01*
X148015646Y-60260147D01*
X148163216Y-60161544D01*
X148327188Y-60093624D01*
X148476488Y-60063927D01*
X148501258Y-60059000D01*
X148678742Y-60059000D01*
X148703512Y-60063927D01*
X148703512Y-60063927D01*
G37*
G36*
X157593512Y-60063927D02*
G01*
X157742812Y-60093624D01*
X157906784Y-60161544D01*
X158054354Y-60260147D01*
X158179853Y-60385646D01*
X158278456Y-60533216D01*
X158346376Y-60697188D01*
X158381000Y-60871259D01*
X158381000Y-61048741D01*
X158346376Y-61222812D01*
X158278456Y-61386784D01*
X158179853Y-61534354D01*
X158054354Y-61659853D01*
X157906784Y-61758456D01*
X157742812Y-61826376D01*
X157593512Y-61856073D01*
X157568742Y-61861000D01*
X157391258Y-61861000D01*
X157366488Y-61856073D01*
X157217188Y-61826376D01*
X157053216Y-61758456D01*
X156905646Y-61659853D01*
X156780147Y-61534354D01*
X156681544Y-61386784D01*
X156613624Y-61222812D01*
X156579000Y-61048741D01*
X156579000Y-60871259D01*
X156613624Y-60697188D01*
X156681544Y-60533216D01*
X156780147Y-60385646D01*
X156905646Y-60260147D01*
X157053216Y-60161544D01*
X157217188Y-60093624D01*
X157366488Y-60063927D01*
X157391258Y-60059000D01*
X157568742Y-60059000D01*
X157593512Y-60063927D01*
X157593512Y-60063927D01*
G37*
G36*
X160133512Y-60063927D02*
G01*
X160282812Y-60093624D01*
X160446784Y-60161544D01*
X160594354Y-60260147D01*
X160719853Y-60385646D01*
X160818456Y-60533216D01*
X160886376Y-60697188D01*
X160921000Y-60871259D01*
X160921000Y-61048741D01*
X160886376Y-61222812D01*
X160818456Y-61386784D01*
X160719853Y-61534354D01*
X160594354Y-61659853D01*
X160446784Y-61758456D01*
X160282812Y-61826376D01*
X160133512Y-61856073D01*
X160108742Y-61861000D01*
X159931258Y-61861000D01*
X159906488Y-61856073D01*
X159757188Y-61826376D01*
X159593216Y-61758456D01*
X159445646Y-61659853D01*
X159320147Y-61534354D01*
X159221544Y-61386784D01*
X159153624Y-61222812D01*
X159119000Y-61048741D01*
X159119000Y-60871259D01*
X159153624Y-60697188D01*
X159221544Y-60533216D01*
X159320147Y-60385646D01*
X159445646Y-60260147D01*
X159593216Y-60161544D01*
X159757188Y-60093624D01*
X159906488Y-60063927D01*
X159931258Y-60059000D01*
X160108742Y-60059000D01*
X160133512Y-60063927D01*
X160133512Y-60063927D01*
G37*
G36*
X95363512Y-60063927D02*
G01*
X95512812Y-60093624D01*
X95676784Y-60161544D01*
X95824354Y-60260147D01*
X95949853Y-60385646D01*
X96048456Y-60533216D01*
X96116376Y-60697188D01*
X96151000Y-60871259D01*
X96151000Y-61048741D01*
X96116376Y-61222812D01*
X96048456Y-61386784D01*
X95949853Y-61534354D01*
X95824354Y-61659853D01*
X95676784Y-61758456D01*
X95512812Y-61826376D01*
X95363512Y-61856073D01*
X95338742Y-61861000D01*
X95161258Y-61861000D01*
X95136488Y-61856073D01*
X94987188Y-61826376D01*
X94823216Y-61758456D01*
X94675646Y-61659853D01*
X94550147Y-61534354D01*
X94451544Y-61386784D01*
X94383624Y-61222812D01*
X94349000Y-61048741D01*
X94349000Y-60871259D01*
X94383624Y-60697188D01*
X94451544Y-60533216D01*
X94550147Y-60385646D01*
X94675646Y-60260147D01*
X94823216Y-60161544D01*
X94987188Y-60093624D01*
X95136488Y-60063927D01*
X95161258Y-60059000D01*
X95338742Y-60059000D01*
X95363512Y-60063927D01*
X95363512Y-60063927D01*
G37*
G36*
X97903512Y-60063927D02*
G01*
X98052812Y-60093624D01*
X98216784Y-60161544D01*
X98364354Y-60260147D01*
X98489853Y-60385646D01*
X98588456Y-60533216D01*
X98656376Y-60697188D01*
X98691000Y-60871259D01*
X98691000Y-61048741D01*
X98656376Y-61222812D01*
X98588456Y-61386784D01*
X98489853Y-61534354D01*
X98364354Y-61659853D01*
X98216784Y-61758456D01*
X98052812Y-61826376D01*
X97903512Y-61856073D01*
X97878742Y-61861000D01*
X97701258Y-61861000D01*
X97676488Y-61856073D01*
X97527188Y-61826376D01*
X97363216Y-61758456D01*
X97215646Y-61659853D01*
X97090147Y-61534354D01*
X96991544Y-61386784D01*
X96923624Y-61222812D01*
X96889000Y-61048741D01*
X96889000Y-60871259D01*
X96923624Y-60697188D01*
X96991544Y-60533216D01*
X97090147Y-60385646D01*
X97215646Y-60260147D01*
X97363216Y-60161544D01*
X97527188Y-60093624D01*
X97676488Y-60063927D01*
X97701258Y-60059000D01*
X97878742Y-60059000D01*
X97903512Y-60063927D01*
X97903512Y-60063927D01*
G37*
G36*
X151243512Y-60063927D02*
G01*
X151392812Y-60093624D01*
X151556784Y-60161544D01*
X151704354Y-60260147D01*
X151829853Y-60385646D01*
X151928456Y-60533216D01*
X151996376Y-60697188D01*
X152031000Y-60871259D01*
X152031000Y-61048741D01*
X151996376Y-61222812D01*
X151928456Y-61386784D01*
X151829853Y-61534354D01*
X151704354Y-61659853D01*
X151556784Y-61758456D01*
X151392812Y-61826376D01*
X151243512Y-61856073D01*
X151218742Y-61861000D01*
X151041258Y-61861000D01*
X151016488Y-61856073D01*
X150867188Y-61826376D01*
X150703216Y-61758456D01*
X150555646Y-61659853D01*
X150430147Y-61534354D01*
X150331544Y-61386784D01*
X150263624Y-61222812D01*
X150229000Y-61048741D01*
X150229000Y-60871259D01*
X150263624Y-60697188D01*
X150331544Y-60533216D01*
X150430147Y-60385646D01*
X150555646Y-60260147D01*
X150703216Y-60161544D01*
X150867188Y-60093624D01*
X151016488Y-60063927D01*
X151041258Y-60059000D01*
X151218742Y-60059000D01*
X151243512Y-60063927D01*
X151243512Y-60063927D01*
G37*
G36*
X167753512Y-60063927D02*
G01*
X167902812Y-60093624D01*
X168066784Y-60161544D01*
X168214354Y-60260147D01*
X168339853Y-60385646D01*
X168438456Y-60533216D01*
X168506376Y-60697188D01*
X168541000Y-60871259D01*
X168541000Y-61048741D01*
X168506376Y-61222812D01*
X168438456Y-61386784D01*
X168339853Y-61534354D01*
X168214354Y-61659853D01*
X168066784Y-61758456D01*
X167902812Y-61826376D01*
X167753512Y-61856073D01*
X167728742Y-61861000D01*
X167551258Y-61861000D01*
X167526488Y-61856073D01*
X167377188Y-61826376D01*
X167213216Y-61758456D01*
X167065646Y-61659853D01*
X166940147Y-61534354D01*
X166841544Y-61386784D01*
X166773624Y-61222812D01*
X166739000Y-61048741D01*
X166739000Y-60871259D01*
X166773624Y-60697188D01*
X166841544Y-60533216D01*
X166940147Y-60385646D01*
X167065646Y-60260147D01*
X167213216Y-60161544D01*
X167377188Y-60093624D01*
X167526488Y-60063927D01*
X167551258Y-60059000D01*
X167728742Y-60059000D01*
X167753512Y-60063927D01*
X167753512Y-60063927D01*
G37*
G36*
X162673512Y-60063927D02*
G01*
X162822812Y-60093624D01*
X162986784Y-60161544D01*
X163134354Y-60260147D01*
X163259853Y-60385646D01*
X163358456Y-60533216D01*
X163426376Y-60697188D01*
X163461000Y-60871259D01*
X163461000Y-61048741D01*
X163426376Y-61222812D01*
X163358456Y-61386784D01*
X163259853Y-61534354D01*
X163134354Y-61659853D01*
X162986784Y-61758456D01*
X162822812Y-61826376D01*
X162673512Y-61856073D01*
X162648742Y-61861000D01*
X162471258Y-61861000D01*
X162446488Y-61856073D01*
X162297188Y-61826376D01*
X162133216Y-61758456D01*
X161985646Y-61659853D01*
X161860147Y-61534354D01*
X161761544Y-61386784D01*
X161693624Y-61222812D01*
X161659000Y-61048741D01*
X161659000Y-60871259D01*
X161693624Y-60697188D01*
X161761544Y-60533216D01*
X161860147Y-60385646D01*
X161985646Y-60260147D01*
X162133216Y-60161544D01*
X162297188Y-60093624D01*
X162446488Y-60063927D01*
X162471258Y-60059000D01*
X162648742Y-60059000D01*
X162673512Y-60063927D01*
X162673512Y-60063927D01*
G37*
G36*
X106158512Y-60063927D02*
G01*
X106307812Y-60093624D01*
X106471784Y-60161544D01*
X106619354Y-60260147D01*
X106744853Y-60385646D01*
X106843456Y-60533216D01*
X106911376Y-60697188D01*
X106946000Y-60871259D01*
X106946000Y-61048741D01*
X106911376Y-61222812D01*
X106843456Y-61386784D01*
X106744853Y-61534354D01*
X106619354Y-61659853D01*
X106471784Y-61758456D01*
X106307812Y-61826376D01*
X106158512Y-61856073D01*
X106133742Y-61861000D01*
X105956258Y-61861000D01*
X105931488Y-61856073D01*
X105782188Y-61826376D01*
X105618216Y-61758456D01*
X105470646Y-61659853D01*
X105345147Y-61534354D01*
X105246544Y-61386784D01*
X105178624Y-61222812D01*
X105144000Y-61048741D01*
X105144000Y-60871259D01*
X105178624Y-60697188D01*
X105246544Y-60533216D01*
X105345147Y-60385646D01*
X105470646Y-60260147D01*
X105618216Y-60161544D01*
X105782188Y-60093624D01*
X105931488Y-60063927D01*
X105956258Y-60059000D01*
X106133742Y-60059000D01*
X106158512Y-60063927D01*
X106158512Y-60063927D01*
G37*
G36*
X108698512Y-60063927D02*
G01*
X108847812Y-60093624D01*
X109011784Y-60161544D01*
X109159354Y-60260147D01*
X109284853Y-60385646D01*
X109383456Y-60533216D01*
X109451376Y-60697188D01*
X109486000Y-60871259D01*
X109486000Y-61048741D01*
X109451376Y-61222812D01*
X109383456Y-61386784D01*
X109284853Y-61534354D01*
X109159354Y-61659853D01*
X109011784Y-61758456D01*
X108847812Y-61826376D01*
X108698512Y-61856073D01*
X108673742Y-61861000D01*
X108496258Y-61861000D01*
X108471488Y-61856073D01*
X108322188Y-61826376D01*
X108158216Y-61758456D01*
X108010646Y-61659853D01*
X107885147Y-61534354D01*
X107786544Y-61386784D01*
X107718624Y-61222812D01*
X107684000Y-61048741D01*
X107684000Y-60871259D01*
X107718624Y-60697188D01*
X107786544Y-60533216D01*
X107885147Y-60385646D01*
X108010646Y-60260147D01*
X108158216Y-60161544D01*
X108322188Y-60093624D01*
X108471488Y-60063927D01*
X108496258Y-60059000D01*
X108673742Y-60059000D01*
X108698512Y-60063927D01*
X108698512Y-60063927D01*
G37*
G36*
X111238512Y-60063927D02*
G01*
X111387812Y-60093624D01*
X111551784Y-60161544D01*
X111699354Y-60260147D01*
X111824853Y-60385646D01*
X111923456Y-60533216D01*
X111991376Y-60697188D01*
X112026000Y-60871259D01*
X112026000Y-61048741D01*
X111991376Y-61222812D01*
X111923456Y-61386784D01*
X111824853Y-61534354D01*
X111699354Y-61659853D01*
X111551784Y-61758456D01*
X111387812Y-61826376D01*
X111238512Y-61856073D01*
X111213742Y-61861000D01*
X111036258Y-61861000D01*
X111011488Y-61856073D01*
X110862188Y-61826376D01*
X110698216Y-61758456D01*
X110550646Y-61659853D01*
X110425147Y-61534354D01*
X110326544Y-61386784D01*
X110258624Y-61222812D01*
X110224000Y-61048741D01*
X110224000Y-60871259D01*
X110258624Y-60697188D01*
X110326544Y-60533216D01*
X110425147Y-60385646D01*
X110550646Y-60260147D01*
X110698216Y-60161544D01*
X110862188Y-60093624D01*
X111011488Y-60063927D01*
X111036258Y-60059000D01*
X111213742Y-60059000D01*
X111238512Y-60063927D01*
X111238512Y-60063927D01*
G37*
G36*
X113829312Y-60063927D02*
G01*
X113978612Y-60093624D01*
X114142584Y-60161544D01*
X114290154Y-60260147D01*
X114415653Y-60385646D01*
X114514256Y-60533216D01*
X114582176Y-60697188D01*
X114616800Y-60871259D01*
X114616800Y-61048741D01*
X114582176Y-61222812D01*
X114514256Y-61386784D01*
X114415653Y-61534354D01*
X114290154Y-61659853D01*
X114142584Y-61758456D01*
X113978612Y-61826376D01*
X113829312Y-61856073D01*
X113804542Y-61861000D01*
X113627058Y-61861000D01*
X113602288Y-61856073D01*
X113452988Y-61826376D01*
X113289016Y-61758456D01*
X113141446Y-61659853D01*
X113015947Y-61534354D01*
X112917344Y-61386784D01*
X112849424Y-61222812D01*
X112814800Y-61048741D01*
X112814800Y-60871259D01*
X112849424Y-60697188D01*
X112917344Y-60533216D01*
X113015947Y-60385646D01*
X113141446Y-60260147D01*
X113289016Y-60161544D01*
X113452988Y-60093624D01*
X113602288Y-60063927D01*
X113627058Y-60059000D01*
X113804542Y-60059000D01*
X113829312Y-60063927D01*
X113829312Y-60063927D01*
G37*
G36*
X146163512Y-60063927D02*
G01*
X146312812Y-60093624D01*
X146476784Y-60161544D01*
X146624354Y-60260147D01*
X146749853Y-60385646D01*
X146848456Y-60533216D01*
X146916376Y-60697188D01*
X146951000Y-60871259D01*
X146951000Y-61048741D01*
X146916376Y-61222812D01*
X146848456Y-61386784D01*
X146749853Y-61534354D01*
X146624354Y-61659853D01*
X146476784Y-61758456D01*
X146312812Y-61826376D01*
X146163512Y-61856073D01*
X146138742Y-61861000D01*
X145961258Y-61861000D01*
X145936488Y-61856073D01*
X145787188Y-61826376D01*
X145623216Y-61758456D01*
X145475646Y-61659853D01*
X145350147Y-61534354D01*
X145251544Y-61386784D01*
X145183624Y-61222812D01*
X145149000Y-61048741D01*
X145149000Y-60871259D01*
X145183624Y-60697188D01*
X145251544Y-60533216D01*
X145350147Y-60385646D01*
X145475646Y-60260147D01*
X145623216Y-60161544D01*
X145787188Y-60093624D01*
X145936488Y-60063927D01*
X145961258Y-60059000D01*
X146138742Y-60059000D01*
X146163512Y-60063927D01*
X146163512Y-60063927D01*
G37*
G36*
X100443512Y-60063927D02*
G01*
X100592812Y-60093624D01*
X100756784Y-60161544D01*
X100904354Y-60260147D01*
X101029853Y-60385646D01*
X101128456Y-60533216D01*
X101196376Y-60697188D01*
X101231000Y-60871259D01*
X101231000Y-61048741D01*
X101196376Y-61222812D01*
X101128456Y-61386784D01*
X101029853Y-61534354D01*
X100904354Y-61659853D01*
X100756784Y-61758456D01*
X100592812Y-61826376D01*
X100443512Y-61856073D01*
X100418742Y-61861000D01*
X100241258Y-61861000D01*
X100216488Y-61856073D01*
X100067188Y-61826376D01*
X99903216Y-61758456D01*
X99755646Y-61659853D01*
X99630147Y-61534354D01*
X99531544Y-61386784D01*
X99463624Y-61222812D01*
X99429000Y-61048741D01*
X99429000Y-60871259D01*
X99463624Y-60697188D01*
X99531544Y-60533216D01*
X99630147Y-60385646D01*
X99755646Y-60260147D01*
X99903216Y-60161544D01*
X100067188Y-60093624D01*
X100216488Y-60063927D01*
X100241258Y-60059000D01*
X100418742Y-60059000D01*
X100443512Y-60063927D01*
X100443512Y-60063927D01*
G37*
G36*
X165213512Y-60063927D02*
G01*
X165362812Y-60093624D01*
X165526784Y-60161544D01*
X165674354Y-60260147D01*
X165799853Y-60385646D01*
X165898456Y-60533216D01*
X165966376Y-60697188D01*
X166001000Y-60871259D01*
X166001000Y-61048741D01*
X165966376Y-61222812D01*
X165898456Y-61386784D01*
X165799853Y-61534354D01*
X165674354Y-61659853D01*
X165526784Y-61758456D01*
X165362812Y-61826376D01*
X165213512Y-61856073D01*
X165188742Y-61861000D01*
X165011258Y-61861000D01*
X164986488Y-61856073D01*
X164837188Y-61826376D01*
X164673216Y-61758456D01*
X164525646Y-61659853D01*
X164400147Y-61534354D01*
X164301544Y-61386784D01*
X164233624Y-61222812D01*
X164199000Y-61048741D01*
X164199000Y-60871259D01*
X164233624Y-60697188D01*
X164301544Y-60533216D01*
X164400147Y-60385646D01*
X164525646Y-60260147D01*
X164673216Y-60161544D01*
X164837188Y-60093624D01*
X164986488Y-60063927D01*
X165011258Y-60059000D01*
X165188742Y-60059000D01*
X165213512Y-60063927D01*
X165213512Y-60063927D01*
G37*
G36*
X160133512Y-57523927D02*
G01*
X160282812Y-57553624D01*
X160446784Y-57621544D01*
X160594354Y-57720147D01*
X160719853Y-57845646D01*
X160818456Y-57993216D01*
X160886376Y-58157188D01*
X160921000Y-58331259D01*
X160921000Y-58508741D01*
X160886376Y-58682812D01*
X160818456Y-58846784D01*
X160719853Y-58994354D01*
X160594354Y-59119853D01*
X160446784Y-59218456D01*
X160282812Y-59286376D01*
X160133512Y-59316073D01*
X160108742Y-59321000D01*
X159931258Y-59321000D01*
X159906488Y-59316073D01*
X159757188Y-59286376D01*
X159593216Y-59218456D01*
X159445646Y-59119853D01*
X159320147Y-58994354D01*
X159221544Y-58846784D01*
X159153624Y-58682812D01*
X159119000Y-58508741D01*
X159119000Y-58331259D01*
X159153624Y-58157188D01*
X159221544Y-57993216D01*
X159320147Y-57845646D01*
X159445646Y-57720147D01*
X159593216Y-57621544D01*
X159757188Y-57553624D01*
X159906488Y-57523927D01*
X159931258Y-57519000D01*
X160108742Y-57519000D01*
X160133512Y-57523927D01*
X160133512Y-57523927D01*
G37*
G36*
X167753512Y-57523927D02*
G01*
X167902812Y-57553624D01*
X168066784Y-57621544D01*
X168214354Y-57720147D01*
X168339853Y-57845646D01*
X168438456Y-57993216D01*
X168506376Y-58157188D01*
X168541000Y-58331259D01*
X168541000Y-58508741D01*
X168506376Y-58682812D01*
X168438456Y-58846784D01*
X168339853Y-58994354D01*
X168214354Y-59119853D01*
X168066784Y-59218456D01*
X167902812Y-59286376D01*
X167753512Y-59316073D01*
X167728742Y-59321000D01*
X167551258Y-59321000D01*
X167526488Y-59316073D01*
X167377188Y-59286376D01*
X167213216Y-59218456D01*
X167065646Y-59119853D01*
X166940147Y-58994354D01*
X166841544Y-58846784D01*
X166773624Y-58682812D01*
X166739000Y-58508741D01*
X166739000Y-58331259D01*
X166773624Y-58157188D01*
X166841544Y-57993216D01*
X166940147Y-57845646D01*
X167065646Y-57720147D01*
X167213216Y-57621544D01*
X167377188Y-57553624D01*
X167526488Y-57523927D01*
X167551258Y-57519000D01*
X167728742Y-57519000D01*
X167753512Y-57523927D01*
X167753512Y-57523927D01*
G37*
G36*
X165213512Y-57523927D02*
G01*
X165362812Y-57553624D01*
X165526784Y-57621544D01*
X165674354Y-57720147D01*
X165799853Y-57845646D01*
X165898456Y-57993216D01*
X165966376Y-58157188D01*
X166001000Y-58331259D01*
X166001000Y-58508741D01*
X165966376Y-58682812D01*
X165898456Y-58846784D01*
X165799853Y-58994354D01*
X165674354Y-59119853D01*
X165526784Y-59218456D01*
X165362812Y-59286376D01*
X165213512Y-59316073D01*
X165188742Y-59321000D01*
X165011258Y-59321000D01*
X164986488Y-59316073D01*
X164837188Y-59286376D01*
X164673216Y-59218456D01*
X164525646Y-59119853D01*
X164400147Y-58994354D01*
X164301544Y-58846784D01*
X164233624Y-58682812D01*
X164199000Y-58508741D01*
X164199000Y-58331259D01*
X164233624Y-58157188D01*
X164301544Y-57993216D01*
X164400147Y-57845646D01*
X164525646Y-57720147D01*
X164673216Y-57621544D01*
X164837188Y-57553624D01*
X164986488Y-57523927D01*
X165011258Y-57519000D01*
X165188742Y-57519000D01*
X165213512Y-57523927D01*
X165213512Y-57523927D01*
G37*
G36*
X95363512Y-57523927D02*
G01*
X95512812Y-57553624D01*
X95676784Y-57621544D01*
X95824354Y-57720147D01*
X95949853Y-57845646D01*
X96048456Y-57993216D01*
X96116376Y-58157188D01*
X96151000Y-58331259D01*
X96151000Y-58508741D01*
X96116376Y-58682812D01*
X96048456Y-58846784D01*
X95949853Y-58994354D01*
X95824354Y-59119853D01*
X95676784Y-59218456D01*
X95512812Y-59286376D01*
X95363512Y-59316073D01*
X95338742Y-59321000D01*
X95161258Y-59321000D01*
X95136488Y-59316073D01*
X94987188Y-59286376D01*
X94823216Y-59218456D01*
X94675646Y-59119853D01*
X94550147Y-58994354D01*
X94451544Y-58846784D01*
X94383624Y-58682812D01*
X94349000Y-58508741D01*
X94349000Y-58331259D01*
X94383624Y-58157188D01*
X94451544Y-57993216D01*
X94550147Y-57845646D01*
X94675646Y-57720147D01*
X94823216Y-57621544D01*
X94987188Y-57553624D01*
X95136488Y-57523927D01*
X95161258Y-57519000D01*
X95338742Y-57519000D01*
X95363512Y-57523927D01*
X95363512Y-57523927D01*
G37*
G36*
X97903512Y-57523927D02*
G01*
X98052812Y-57553624D01*
X98216784Y-57621544D01*
X98364354Y-57720147D01*
X98489853Y-57845646D01*
X98588456Y-57993216D01*
X98656376Y-58157188D01*
X98691000Y-58331259D01*
X98691000Y-58508741D01*
X98656376Y-58682812D01*
X98588456Y-58846784D01*
X98489853Y-58994354D01*
X98364354Y-59119853D01*
X98216784Y-59218456D01*
X98052812Y-59286376D01*
X97903512Y-59316073D01*
X97878742Y-59321000D01*
X97701258Y-59321000D01*
X97676488Y-59316073D01*
X97527188Y-59286376D01*
X97363216Y-59218456D01*
X97215646Y-59119853D01*
X97090147Y-58994354D01*
X96991544Y-58846784D01*
X96923624Y-58682812D01*
X96889000Y-58508741D01*
X96889000Y-58331259D01*
X96923624Y-58157188D01*
X96991544Y-57993216D01*
X97090147Y-57845646D01*
X97215646Y-57720147D01*
X97363216Y-57621544D01*
X97527188Y-57553624D01*
X97676488Y-57523927D01*
X97701258Y-57519000D01*
X97878742Y-57519000D01*
X97903512Y-57523927D01*
X97903512Y-57523927D01*
G37*
G36*
X100443512Y-57523927D02*
G01*
X100592812Y-57553624D01*
X100756784Y-57621544D01*
X100904354Y-57720147D01*
X101029853Y-57845646D01*
X101128456Y-57993216D01*
X101196376Y-58157188D01*
X101231000Y-58331259D01*
X101231000Y-58508741D01*
X101196376Y-58682812D01*
X101128456Y-58846784D01*
X101029853Y-58994354D01*
X100904354Y-59119853D01*
X100756784Y-59218456D01*
X100592812Y-59286376D01*
X100443512Y-59316073D01*
X100418742Y-59321000D01*
X100241258Y-59321000D01*
X100216488Y-59316073D01*
X100067188Y-59286376D01*
X99903216Y-59218456D01*
X99755646Y-59119853D01*
X99630147Y-58994354D01*
X99531544Y-58846784D01*
X99463624Y-58682812D01*
X99429000Y-58508741D01*
X99429000Y-58331259D01*
X99463624Y-58157188D01*
X99531544Y-57993216D01*
X99630147Y-57845646D01*
X99755646Y-57720147D01*
X99903216Y-57621544D01*
X100067188Y-57553624D01*
X100216488Y-57523927D01*
X100241258Y-57519000D01*
X100418742Y-57519000D01*
X100443512Y-57523927D01*
X100443512Y-57523927D01*
G37*
G36*
X146163512Y-57523927D02*
G01*
X146312812Y-57553624D01*
X146476784Y-57621544D01*
X146624354Y-57720147D01*
X146749853Y-57845646D01*
X146848456Y-57993216D01*
X146916376Y-58157188D01*
X146951000Y-58331259D01*
X146951000Y-58508741D01*
X146916376Y-58682812D01*
X146848456Y-58846784D01*
X146749853Y-58994354D01*
X146624354Y-59119853D01*
X146476784Y-59218456D01*
X146312812Y-59286376D01*
X146163512Y-59316073D01*
X146138742Y-59321000D01*
X145961258Y-59321000D01*
X145936488Y-59316073D01*
X145787188Y-59286376D01*
X145623216Y-59218456D01*
X145475646Y-59119853D01*
X145350147Y-58994354D01*
X145251544Y-58846784D01*
X145183624Y-58682812D01*
X145149000Y-58508741D01*
X145149000Y-58331259D01*
X145183624Y-58157188D01*
X145251544Y-57993216D01*
X145350147Y-57845646D01*
X145475646Y-57720147D01*
X145623216Y-57621544D01*
X145787188Y-57553624D01*
X145936488Y-57523927D01*
X145961258Y-57519000D01*
X146138742Y-57519000D01*
X146163512Y-57523927D01*
X146163512Y-57523927D01*
G37*
G36*
X148703512Y-57523927D02*
G01*
X148852812Y-57553624D01*
X149016784Y-57621544D01*
X149164354Y-57720147D01*
X149289853Y-57845646D01*
X149388456Y-57993216D01*
X149456376Y-58157188D01*
X149491000Y-58331259D01*
X149491000Y-58508741D01*
X149456376Y-58682812D01*
X149388456Y-58846784D01*
X149289853Y-58994354D01*
X149164354Y-59119853D01*
X149016784Y-59218456D01*
X148852812Y-59286376D01*
X148703512Y-59316073D01*
X148678742Y-59321000D01*
X148501258Y-59321000D01*
X148476488Y-59316073D01*
X148327188Y-59286376D01*
X148163216Y-59218456D01*
X148015646Y-59119853D01*
X147890147Y-58994354D01*
X147791544Y-58846784D01*
X147723624Y-58682812D01*
X147689000Y-58508741D01*
X147689000Y-58331259D01*
X147723624Y-58157188D01*
X147791544Y-57993216D01*
X147890147Y-57845646D01*
X148015646Y-57720147D01*
X148163216Y-57621544D01*
X148327188Y-57553624D01*
X148476488Y-57523927D01*
X148501258Y-57519000D01*
X148678742Y-57519000D01*
X148703512Y-57523927D01*
X148703512Y-57523927D01*
G37*
G36*
X162673512Y-57523927D02*
G01*
X162822812Y-57553624D01*
X162986784Y-57621544D01*
X163134354Y-57720147D01*
X163259853Y-57845646D01*
X163358456Y-57993216D01*
X163426376Y-58157188D01*
X163461000Y-58331259D01*
X163461000Y-58508741D01*
X163426376Y-58682812D01*
X163358456Y-58846784D01*
X163259853Y-58994354D01*
X163134354Y-59119853D01*
X162986784Y-59218456D01*
X162822812Y-59286376D01*
X162673512Y-59316073D01*
X162648742Y-59321000D01*
X162471258Y-59321000D01*
X162446488Y-59316073D01*
X162297188Y-59286376D01*
X162133216Y-59218456D01*
X161985646Y-59119853D01*
X161860147Y-58994354D01*
X161761544Y-58846784D01*
X161693624Y-58682812D01*
X161659000Y-58508741D01*
X161659000Y-58331259D01*
X161693624Y-58157188D01*
X161761544Y-57993216D01*
X161860147Y-57845646D01*
X161985646Y-57720147D01*
X162133216Y-57621544D01*
X162297188Y-57553624D01*
X162446488Y-57523927D01*
X162471258Y-57519000D01*
X162648742Y-57519000D01*
X162673512Y-57523927D01*
X162673512Y-57523927D01*
G37*
G36*
X157593512Y-57523927D02*
G01*
X157742812Y-57553624D01*
X157906784Y-57621544D01*
X158054354Y-57720147D01*
X158179853Y-57845646D01*
X158278456Y-57993216D01*
X158346376Y-58157188D01*
X158381000Y-58331259D01*
X158381000Y-58508741D01*
X158346376Y-58682812D01*
X158278456Y-58846784D01*
X158179853Y-58994354D01*
X158054354Y-59119853D01*
X157906784Y-59218456D01*
X157742812Y-59286376D01*
X157593512Y-59316073D01*
X157568742Y-59321000D01*
X157391258Y-59321000D01*
X157366488Y-59316073D01*
X157217188Y-59286376D01*
X157053216Y-59218456D01*
X156905646Y-59119853D01*
X156780147Y-58994354D01*
X156681544Y-58846784D01*
X156613624Y-58682812D01*
X156579000Y-58508741D01*
X156579000Y-58331259D01*
X156613624Y-58157188D01*
X156681544Y-57993216D01*
X156780147Y-57845646D01*
X156905646Y-57720147D01*
X157053216Y-57621544D01*
X157217188Y-57553624D01*
X157366488Y-57523927D01*
X157391258Y-57519000D01*
X157568742Y-57519000D01*
X157593512Y-57523927D01*
X157593512Y-57523927D01*
G37*
G36*
X106158512Y-57523927D02*
G01*
X106307812Y-57553624D01*
X106471784Y-57621544D01*
X106619354Y-57720147D01*
X106744853Y-57845646D01*
X106843456Y-57993216D01*
X106911376Y-58157188D01*
X106946000Y-58331259D01*
X106946000Y-58508741D01*
X106911376Y-58682812D01*
X106843456Y-58846784D01*
X106744853Y-58994354D01*
X106619354Y-59119853D01*
X106471784Y-59218456D01*
X106307812Y-59286376D01*
X106158512Y-59316073D01*
X106133742Y-59321000D01*
X105956258Y-59321000D01*
X105931488Y-59316073D01*
X105782188Y-59286376D01*
X105618216Y-59218456D01*
X105470646Y-59119853D01*
X105345147Y-58994354D01*
X105246544Y-58846784D01*
X105178624Y-58682812D01*
X105144000Y-58508741D01*
X105144000Y-58331259D01*
X105178624Y-58157188D01*
X105246544Y-57993216D01*
X105345147Y-57845646D01*
X105470646Y-57720147D01*
X105618216Y-57621544D01*
X105782188Y-57553624D01*
X105931488Y-57523927D01*
X105956258Y-57519000D01*
X106133742Y-57519000D01*
X106158512Y-57523927D01*
X106158512Y-57523927D01*
G37*
G36*
X151243512Y-57523927D02*
G01*
X151392812Y-57553624D01*
X151556784Y-57621544D01*
X151704354Y-57720147D01*
X151829853Y-57845646D01*
X151928456Y-57993216D01*
X151996376Y-58157188D01*
X152031000Y-58331259D01*
X152031000Y-58508741D01*
X151996376Y-58682812D01*
X151928456Y-58846784D01*
X151829853Y-58994354D01*
X151704354Y-59119853D01*
X151556784Y-59218456D01*
X151392812Y-59286376D01*
X151243512Y-59316073D01*
X151218742Y-59321000D01*
X151041258Y-59321000D01*
X151016488Y-59316073D01*
X150867188Y-59286376D01*
X150703216Y-59218456D01*
X150555646Y-59119853D01*
X150430147Y-58994354D01*
X150331544Y-58846784D01*
X150263624Y-58682812D01*
X150229000Y-58508741D01*
X150229000Y-58331259D01*
X150263624Y-58157188D01*
X150331544Y-57993216D01*
X150430147Y-57845646D01*
X150555646Y-57720147D01*
X150703216Y-57621544D01*
X150867188Y-57553624D01*
X151016488Y-57523927D01*
X151041258Y-57519000D01*
X151218742Y-57519000D01*
X151243512Y-57523927D01*
X151243512Y-57523927D01*
G37*
G36*
X113778512Y-57523927D02*
G01*
X113927812Y-57553624D01*
X114091784Y-57621544D01*
X114239354Y-57720147D01*
X114364853Y-57845646D01*
X114463456Y-57993216D01*
X114531376Y-58157188D01*
X114566000Y-58331259D01*
X114566000Y-58508741D01*
X114531376Y-58682812D01*
X114463456Y-58846784D01*
X114364853Y-58994354D01*
X114239354Y-59119853D01*
X114091784Y-59218456D01*
X113927812Y-59286376D01*
X113778512Y-59316073D01*
X113753742Y-59321000D01*
X113576258Y-59321000D01*
X113551488Y-59316073D01*
X113402188Y-59286376D01*
X113238216Y-59218456D01*
X113090646Y-59119853D01*
X112965147Y-58994354D01*
X112866544Y-58846784D01*
X112798624Y-58682812D01*
X112764000Y-58508741D01*
X112764000Y-58331259D01*
X112798624Y-58157188D01*
X112866544Y-57993216D01*
X112965147Y-57845646D01*
X113090646Y-57720147D01*
X113238216Y-57621544D01*
X113402188Y-57553624D01*
X113551488Y-57523927D01*
X113576258Y-57519000D01*
X113753742Y-57519000D01*
X113778512Y-57523927D01*
X113778512Y-57523927D01*
G37*
G36*
X111238512Y-57523927D02*
G01*
X111387812Y-57553624D01*
X111551784Y-57621544D01*
X111699354Y-57720147D01*
X111824853Y-57845646D01*
X111923456Y-57993216D01*
X111991376Y-58157188D01*
X112026000Y-58331259D01*
X112026000Y-58508741D01*
X111991376Y-58682812D01*
X111923456Y-58846784D01*
X111824853Y-58994354D01*
X111699354Y-59119853D01*
X111551784Y-59218456D01*
X111387812Y-59286376D01*
X111238512Y-59316073D01*
X111213742Y-59321000D01*
X111036258Y-59321000D01*
X111011488Y-59316073D01*
X110862188Y-59286376D01*
X110698216Y-59218456D01*
X110550646Y-59119853D01*
X110425147Y-58994354D01*
X110326544Y-58846784D01*
X110258624Y-58682812D01*
X110224000Y-58508741D01*
X110224000Y-58331259D01*
X110258624Y-58157188D01*
X110326544Y-57993216D01*
X110425147Y-57845646D01*
X110550646Y-57720147D01*
X110698216Y-57621544D01*
X110862188Y-57553624D01*
X111011488Y-57523927D01*
X111036258Y-57519000D01*
X111213742Y-57519000D01*
X111238512Y-57523927D01*
X111238512Y-57523927D01*
G37*
G36*
X108698512Y-57523927D02*
G01*
X108847812Y-57553624D01*
X109011784Y-57621544D01*
X109159354Y-57720147D01*
X109284853Y-57845646D01*
X109383456Y-57993216D01*
X109451376Y-58157188D01*
X109486000Y-58331259D01*
X109486000Y-58508741D01*
X109451376Y-58682812D01*
X109383456Y-58846784D01*
X109284853Y-58994354D01*
X109159354Y-59119853D01*
X109011784Y-59218456D01*
X108847812Y-59286376D01*
X108698512Y-59316073D01*
X108673742Y-59321000D01*
X108496258Y-59321000D01*
X108471488Y-59316073D01*
X108322188Y-59286376D01*
X108158216Y-59218456D01*
X108010646Y-59119853D01*
X107885147Y-58994354D01*
X107786544Y-58846784D01*
X107718624Y-58682812D01*
X107684000Y-58508741D01*
X107684000Y-58331259D01*
X107718624Y-58157188D01*
X107786544Y-57993216D01*
X107885147Y-57845646D01*
X108010646Y-57720147D01*
X108158216Y-57621544D01*
X108322188Y-57553624D01*
X108471488Y-57523927D01*
X108496258Y-57519000D01*
X108673742Y-57519000D01*
X108698512Y-57523927D01*
X108698512Y-57523927D01*
G37*
G36*
X81855721Y-53435174D02*
G01*
X81955995Y-53476709D01*
X81955996Y-53476710D01*
X82046242Y-53537010D01*
X82122990Y-53613758D01*
X82122991Y-53613760D01*
X82183291Y-53704005D01*
X82224826Y-53804279D01*
X82246000Y-53910730D01*
X82246000Y-54019270D01*
X82224826Y-54125721D01*
X82183291Y-54225995D01*
X82183290Y-54225996D01*
X82122990Y-54316242D01*
X82046242Y-54392990D01*
X82000812Y-54423345D01*
X81955995Y-54453291D01*
X81855721Y-54494826D01*
X81749270Y-54516000D01*
X81640730Y-54516000D01*
X81534279Y-54494826D01*
X81434005Y-54453291D01*
X81389188Y-54423345D01*
X81343758Y-54392990D01*
X81267010Y-54316242D01*
X81206710Y-54225996D01*
X81206709Y-54225995D01*
X81165174Y-54125721D01*
X81144000Y-54019270D01*
X81144000Y-53910730D01*
X81165174Y-53804279D01*
X81206709Y-53704005D01*
X81267009Y-53613760D01*
X81267010Y-53613758D01*
X81343758Y-53537010D01*
X81434004Y-53476710D01*
X81434005Y-53476709D01*
X81534279Y-53435174D01*
X81640730Y-53414000D01*
X81749270Y-53414000D01*
X81855721Y-53435174D01*
X81855721Y-53435174D01*
G37*
G36*
X86255721Y-53435174D02*
G01*
X86355995Y-53476709D01*
X86355996Y-53476710D01*
X86446242Y-53537010D01*
X86522990Y-53613758D01*
X86522991Y-53613760D01*
X86583291Y-53704005D01*
X86624826Y-53804279D01*
X86646000Y-53910730D01*
X86646000Y-54019270D01*
X86624826Y-54125721D01*
X86583291Y-54225995D01*
X86583290Y-54225996D01*
X86522990Y-54316242D01*
X86446242Y-54392990D01*
X86400812Y-54423345D01*
X86355995Y-54453291D01*
X86255721Y-54494826D01*
X86149270Y-54516000D01*
X86040730Y-54516000D01*
X85934279Y-54494826D01*
X85834005Y-54453291D01*
X85789188Y-54423345D01*
X85743758Y-54392990D01*
X85667010Y-54316242D01*
X85606710Y-54225996D01*
X85606709Y-54225995D01*
X85565174Y-54125721D01*
X85544000Y-54019270D01*
X85544000Y-53910730D01*
X85565174Y-53804279D01*
X85606709Y-53704005D01*
X85667009Y-53613760D01*
X85667010Y-53613758D01*
X85743758Y-53537010D01*
X85834004Y-53476710D01*
X85834005Y-53476709D01*
X85934279Y-53435174D01*
X86040730Y-53414000D01*
X86149270Y-53414000D01*
X86255721Y-53435174D01*
X86255721Y-53435174D01*
G37*
G36*
X134219794Y-52210155D02*
G01*
X134326150Y-52231311D01*
X134426334Y-52272809D01*
X134526520Y-52314307D01*
X134706844Y-52434795D01*
X134860205Y-52588156D01*
X134980693Y-52768480D01*
X134980693Y-52768481D01*
X135063689Y-52968850D01*
X135106000Y-53181561D01*
X135106000Y-53398439D01*
X135063689Y-53611150D01*
X135025227Y-53704004D01*
X134980693Y-53811520D01*
X134860205Y-53991844D01*
X134706844Y-54145205D01*
X134526520Y-54265693D01*
X134326150Y-54348689D01*
X134219794Y-54369845D01*
X134113440Y-54391000D01*
X133896560Y-54391000D01*
X133790206Y-54369845D01*
X133683850Y-54348689D01*
X133483480Y-54265693D01*
X133303156Y-54145205D01*
X133149795Y-53991844D01*
X133029307Y-53811520D01*
X132984773Y-53704004D01*
X132946311Y-53611150D01*
X132904000Y-53398439D01*
X132904000Y-53181561D01*
X132946311Y-52968850D01*
X133029307Y-52768481D01*
X133029307Y-52768480D01*
X133149795Y-52588156D01*
X133303156Y-52434795D01*
X133483480Y-52314307D01*
X133583666Y-52272809D01*
X133683850Y-52231311D01*
X133790206Y-52210155D01*
X133896560Y-52189000D01*
X134113440Y-52189000D01*
X134219794Y-52210155D01*
X134219794Y-52210155D01*
G37*
G36*
X141229794Y-52210155D02*
G01*
X141336150Y-52231311D01*
X141436334Y-52272809D01*
X141536520Y-52314307D01*
X141716844Y-52434795D01*
X141870205Y-52588156D01*
X141990693Y-52768480D01*
X141990693Y-52768481D01*
X142073689Y-52968850D01*
X142116000Y-53181561D01*
X142116000Y-53398439D01*
X142073689Y-53611150D01*
X142035227Y-53704004D01*
X141990693Y-53811520D01*
X141870205Y-53991844D01*
X141716844Y-54145205D01*
X141536520Y-54265693D01*
X141336150Y-54348689D01*
X141229794Y-54369845D01*
X141123440Y-54391000D01*
X140906560Y-54391000D01*
X140800206Y-54369845D01*
X140693850Y-54348689D01*
X140493480Y-54265693D01*
X140313156Y-54145205D01*
X140159795Y-53991844D01*
X140039307Y-53811520D01*
X139994773Y-53704004D01*
X139956311Y-53611150D01*
X139914000Y-53398439D01*
X139914000Y-53181561D01*
X139956311Y-52968850D01*
X140039307Y-52768481D01*
X140039307Y-52768480D01*
X140159795Y-52588156D01*
X140313156Y-52434795D01*
X140493480Y-52314307D01*
X140593666Y-52272809D01*
X140693850Y-52231311D01*
X140800206Y-52210155D01*
X140906560Y-52189000D01*
X141123440Y-52189000D01*
X141229794Y-52210155D01*
X141229794Y-52210155D01*
G37*
G36*
X140025104Y-49909585D02*
G01*
X140193626Y-49979389D01*
X140345291Y-50080728D01*
X140474272Y-50209709D01*
X140575611Y-50361374D01*
X140645415Y-50529896D01*
X140681000Y-50708797D01*
X140681000Y-50891203D01*
X140645415Y-51070104D01*
X140575611Y-51238626D01*
X140474272Y-51390291D01*
X140345291Y-51519272D01*
X140193626Y-51620611D01*
X140025104Y-51690415D01*
X139846203Y-51726000D01*
X139663797Y-51726000D01*
X139484896Y-51690415D01*
X139316374Y-51620611D01*
X139164709Y-51519272D01*
X139035728Y-51390291D01*
X138934389Y-51238626D01*
X138864585Y-51070104D01*
X138829000Y-50891203D01*
X138829000Y-50708797D01*
X138864585Y-50529896D01*
X138934389Y-50361374D01*
X139035728Y-50209709D01*
X139164709Y-50080728D01*
X139316374Y-49979389D01*
X139484896Y-49909585D01*
X139663797Y-49874000D01*
X139846203Y-49874000D01*
X140025104Y-49909585D01*
X140025104Y-49909585D01*
G37*
G36*
X135525104Y-49909585D02*
G01*
X135693626Y-49979389D01*
X135845291Y-50080728D01*
X135974272Y-50209709D01*
X136075611Y-50361374D01*
X136145415Y-50529896D01*
X136181000Y-50708797D01*
X136181000Y-50891203D01*
X136145415Y-51070104D01*
X136075611Y-51238626D01*
X135974272Y-51390291D01*
X135845291Y-51519272D01*
X135693626Y-51620611D01*
X135525104Y-51690415D01*
X135346203Y-51726000D01*
X135163797Y-51726000D01*
X134984896Y-51690415D01*
X134816374Y-51620611D01*
X134664709Y-51519272D01*
X134535728Y-51390291D01*
X134434389Y-51238626D01*
X134364585Y-51070104D01*
X134329000Y-50891203D01*
X134329000Y-50708797D01*
X134364585Y-50529896D01*
X134434389Y-50361374D01*
X134535728Y-50209709D01*
X134664709Y-50080728D01*
X134816374Y-49979389D01*
X134984896Y-49909585D01*
X135163797Y-49874000D01*
X135346203Y-49874000D01*
X135525104Y-49909585D01*
X135525104Y-49909585D01*
G37*
M02*
