G04 #@! TF.GenerationSoftware,KiCad,Pcbnew,(5.1.4)-1*
G04 #@! TF.CreationDate,2020-07-08T19:37:27+02:00*
G04 #@! TF.ProjectId,SBIO3,5342494f-332e-46b6-9963-61645f706362,rev?*
G04 #@! TF.SameCoordinates,Original*
G04 #@! TF.FileFunction,Copper,L2,Bot*
G04 #@! TF.FilePolarity,Positive*
%FSLAX46Y46*%
G04 Gerber Fmt 4.6, Leading zero omitted, Abs format (unit mm)*
G04 Created by KiCad (PCBNEW (5.1.4)-1) date 2020-07-08 19:37:27*
%MOMM*%
%LPD*%
G04 APERTURE LIST*
%ADD10C,1.800000*%
%ADD11R,1.800000X1.800000*%
%ADD12O,1.700000X1.700000*%
%ADD13R,1.700000X1.700000*%
%ADD14C,2.000000*%
%ADD15C,0.500000*%
%ADD16C,0.300000*%
%ADD17C,0.500000*%
%ADD18C,0.254000*%
G04 APERTURE END LIST*
D10*
X88265000Y-146050000D03*
D11*
X90805000Y-146050000D03*
D10*
X88265000Y-152400000D03*
D11*
X90805000Y-152400000D03*
D12*
X170116500Y-155765500D03*
X170116500Y-153225500D03*
X170116500Y-150685500D03*
D13*
X170116500Y-148145500D03*
D12*
X77470000Y-157099000D03*
X80010000Y-157099000D03*
X77470000Y-154559000D03*
X80010000Y-154559000D03*
X77470000Y-152019000D03*
X80010000Y-152019000D03*
X77470000Y-149479000D03*
X80010000Y-149479000D03*
X77470000Y-146939000D03*
D13*
X80010000Y-146939000D03*
D14*
X134770000Y-137160000D03*
X134770000Y-141660000D03*
X128270000Y-137160000D03*
X128270000Y-141660000D03*
D11*
X104140000Y-169545000D03*
D10*
X101600000Y-169545000D03*
X101600000Y-163830000D03*
D11*
X104140000Y-163830000D03*
D10*
X101600000Y-152400000D03*
D11*
X104140000Y-152400000D03*
D10*
X140335000Y-149225000D03*
D11*
X142875000Y-149225000D03*
X148590000Y-160655000D03*
D10*
X151130000Y-160655000D03*
D14*
X123975000Y-137160000D03*
X123975000Y-141660000D03*
X117475000Y-137160000D03*
X117475000Y-141660000D03*
X85090000Y-141660000D03*
X85090000Y-137160000D03*
X91590000Y-141660000D03*
X91590000Y-137160000D03*
X113180000Y-137160000D03*
X113180000Y-141660000D03*
X106680000Y-137160000D03*
X106680000Y-141660000D03*
X95885000Y-141660000D03*
X95885000Y-137160000D03*
X102385000Y-141660000D03*
X102385000Y-137160000D03*
D10*
X101600000Y-158115000D03*
D11*
X104140000Y-158115000D03*
D10*
X151130000Y-149225000D03*
D11*
X148590000Y-149225000D03*
X142875000Y-160655000D03*
D10*
X140335000Y-160655000D03*
D11*
X148590000Y-166370000D03*
D10*
X151130000Y-166370000D03*
D11*
X142875000Y-166370000D03*
D10*
X140335000Y-166370000D03*
D11*
X148590000Y-154940000D03*
D10*
X151130000Y-154940000D03*
X140335000Y-154940000D03*
D11*
X142875000Y-154940000D03*
D10*
X101600000Y-146685000D03*
D11*
X104140000Y-146685000D03*
D15*
X163830000Y-165481000D03*
X164338000Y-155257500D03*
X156718000Y-140208000D03*
X141478000Y-138493500D03*
X79248000Y-165100000D03*
X88011000Y-165100000D03*
X86106000Y-158750000D03*
X88011000Y-158750000D03*
X120650000Y-159385000D03*
X131572000Y-133985000D03*
X113140000Y-155680000D03*
X82469000Y-157099000D03*
X76740000Y-167650000D03*
X112190000Y-154690000D03*
X156660000Y-146210000D03*
X92130000Y-163830000D03*
X92130000Y-162560000D03*
X125140000Y-149240000D03*
X88280000Y-171240000D03*
X85120000Y-159660000D03*
D16*
X148590000Y-160655000D02*
X148590000Y-166370000D01*
D17*
X170116500Y-153225500D02*
X170116500Y-155765500D01*
D16*
X142875000Y-160655000D02*
X142875000Y-166370000D01*
X148590000Y-154940000D02*
X148590000Y-160655000D01*
X142875000Y-154940000D02*
X142875000Y-160655000D01*
D17*
X93726000Y-165100000D02*
X88011000Y-165100000D01*
X118935500Y-162560000D02*
X96266000Y-162560000D01*
X155829000Y-150685500D02*
X154432000Y-152082500D01*
X120650000Y-160845500D02*
X118935500Y-162560000D01*
X170116500Y-150685500D02*
X155829000Y-150685500D01*
X170116500Y-134874000D02*
X169227500Y-133985000D01*
X170116500Y-148145500D02*
X170116500Y-134874000D01*
X125984000Y-152082500D02*
X120650000Y-157416500D01*
X88011000Y-158750000D02*
X86106000Y-158750000D01*
X96266000Y-162560000D02*
X93726000Y-165100000D01*
X169227500Y-133985000D02*
X131572000Y-133985000D01*
X170116500Y-148145500D02*
X170116500Y-150685500D01*
X120650000Y-159385000D02*
X120650000Y-160845500D01*
X120650000Y-157416500D02*
X120650000Y-159385000D01*
X154432000Y-152082500D02*
X125984000Y-152082500D01*
D16*
X82469000Y-157099000D02*
X91091000Y-157099000D01*
X92510000Y-155680000D02*
X113140000Y-155680000D01*
X80010000Y-157099000D02*
X82469000Y-157099000D01*
X91091000Y-157099000D02*
X92510000Y-155680000D01*
X77470000Y-154570000D02*
X76150000Y-155890000D01*
X76150000Y-155890000D02*
X76150000Y-167060000D01*
X76150000Y-167060000D02*
X76740000Y-167650000D01*
X77470000Y-154559000D02*
X77470000Y-154570000D01*
X80010000Y-154559000D02*
X82069000Y-154559000D01*
X92580000Y-154690000D02*
X112190000Y-154690000D01*
X83940000Y-156430000D02*
X90840000Y-156430000D01*
X90840000Y-156430000D02*
X92580000Y-154690000D01*
X82069000Y-154559000D02*
X83940000Y-156430000D01*
X92130000Y-163830000D02*
X94000000Y-163830000D01*
X130750000Y-146210000D02*
X156660000Y-146210000D01*
X94000000Y-163830000D02*
X96870000Y-160960000D01*
X96870000Y-160960000D02*
X116000000Y-160960000D01*
X116000000Y-160960000D02*
X130750000Y-146210000D01*
X92130000Y-162560000D02*
X94370000Y-162560000D01*
X115750000Y-160310000D02*
X125140000Y-150920000D01*
X125140000Y-150920000D02*
X125140000Y-149240000D01*
X96620000Y-160310000D02*
X115750000Y-160310000D01*
X94370000Y-162560000D02*
X96620000Y-160310000D01*
X87120000Y-170640000D02*
X87720000Y-171240000D01*
X87120000Y-170050000D02*
X87120000Y-170640000D01*
X87720000Y-171240000D02*
X88280000Y-171240000D01*
X87120000Y-160340000D02*
X87120000Y-170050000D01*
X86440000Y-159660000D02*
X87120000Y-160340000D01*
X85850000Y-159660000D02*
X86440000Y-159660000D01*
X85120000Y-159660000D02*
X85850000Y-159660000D01*
D18*
G36*
X173101000Y-171831000D02*
G01*
X88614075Y-171831000D01*
X88711563Y-171765860D01*
X88805860Y-171671563D01*
X88879950Y-171560680D01*
X88930984Y-171437474D01*
X88957000Y-171306679D01*
X88957000Y-171173321D01*
X88930984Y-171042526D01*
X88879950Y-170919320D01*
X88805860Y-170808437D01*
X88711563Y-170714140D01*
X88600680Y-170640050D01*
X88477474Y-170589016D01*
X88346679Y-170563000D01*
X88213321Y-170563000D01*
X88082526Y-170589016D01*
X87959320Y-170640050D01*
X87945372Y-170649370D01*
X87697000Y-170400999D01*
X87697000Y-169414302D01*
X100273000Y-169414302D01*
X100273000Y-169675698D01*
X100323996Y-169932072D01*
X100424028Y-170173570D01*
X100569252Y-170390913D01*
X100754087Y-170575748D01*
X100971430Y-170720972D01*
X101212928Y-170821004D01*
X101469302Y-170872000D01*
X101730698Y-170872000D01*
X101987072Y-170821004D01*
X102228570Y-170720972D01*
X102445913Y-170575748D01*
X102602055Y-170419606D01*
X102601928Y-170445000D01*
X102614188Y-170569482D01*
X102650498Y-170689180D01*
X102709463Y-170799494D01*
X102788815Y-170896185D01*
X102885506Y-170975537D01*
X102995820Y-171034502D01*
X103115518Y-171070812D01*
X103240000Y-171083072D01*
X103854250Y-171080000D01*
X104013000Y-170921250D01*
X104013000Y-169672000D01*
X104267000Y-169672000D01*
X104267000Y-170921250D01*
X104425750Y-171080000D01*
X105040000Y-171083072D01*
X105164482Y-171070812D01*
X105284180Y-171034502D01*
X105394494Y-170975537D01*
X105491185Y-170896185D01*
X105570537Y-170799494D01*
X105629502Y-170689180D01*
X105665812Y-170569482D01*
X105678072Y-170445000D01*
X105675000Y-169830750D01*
X105516250Y-169672000D01*
X104267000Y-169672000D01*
X104013000Y-169672000D01*
X103993000Y-169672000D01*
X103993000Y-169418000D01*
X104013000Y-169418000D01*
X104013000Y-168168750D01*
X104267000Y-168168750D01*
X104267000Y-169418000D01*
X105516250Y-169418000D01*
X105675000Y-169259250D01*
X105678072Y-168645000D01*
X105665812Y-168520518D01*
X105629502Y-168400820D01*
X105570537Y-168290506D01*
X105491185Y-168193815D01*
X105394494Y-168114463D01*
X105284180Y-168055498D01*
X105164482Y-168019188D01*
X105040000Y-168006928D01*
X104425750Y-168010000D01*
X104267000Y-168168750D01*
X104013000Y-168168750D01*
X103854250Y-168010000D01*
X103240000Y-168006928D01*
X103115518Y-168019188D01*
X102995820Y-168055498D01*
X102885506Y-168114463D01*
X102788815Y-168193815D01*
X102709463Y-168290506D01*
X102650498Y-168400820D01*
X102614188Y-168520518D01*
X102601928Y-168645000D01*
X102602055Y-168670394D01*
X102445913Y-168514252D01*
X102228570Y-168369028D01*
X101987072Y-168268996D01*
X101730698Y-168218000D01*
X101469302Y-168218000D01*
X101212928Y-168268996D01*
X100971430Y-168369028D01*
X100754087Y-168514252D01*
X100569252Y-168699087D01*
X100424028Y-168916430D01*
X100323996Y-169157928D01*
X100273000Y-169414302D01*
X87697000Y-169414302D01*
X87697000Y-166239302D01*
X139008000Y-166239302D01*
X139008000Y-166500698D01*
X139058996Y-166757072D01*
X139159028Y-166998570D01*
X139304252Y-167215913D01*
X139489087Y-167400748D01*
X139706430Y-167545972D01*
X139947928Y-167646004D01*
X140204302Y-167697000D01*
X140465698Y-167697000D01*
X140722072Y-167646004D01*
X140963570Y-167545972D01*
X141180913Y-167400748D01*
X141337055Y-167244606D01*
X141336928Y-167270000D01*
X141349188Y-167394482D01*
X141385498Y-167514180D01*
X141444463Y-167624494D01*
X141523815Y-167721185D01*
X141620506Y-167800537D01*
X141730820Y-167859502D01*
X141850518Y-167895812D01*
X141975000Y-167908072D01*
X142589250Y-167905000D01*
X142748000Y-167746250D01*
X142748000Y-166497000D01*
X143002000Y-166497000D01*
X143002000Y-167746250D01*
X143160750Y-167905000D01*
X143775000Y-167908072D01*
X143899482Y-167895812D01*
X144019180Y-167859502D01*
X144129494Y-167800537D01*
X144226185Y-167721185D01*
X144305537Y-167624494D01*
X144364502Y-167514180D01*
X144400812Y-167394482D01*
X144413072Y-167270000D01*
X147051928Y-167270000D01*
X147064188Y-167394482D01*
X147100498Y-167514180D01*
X147159463Y-167624494D01*
X147238815Y-167721185D01*
X147335506Y-167800537D01*
X147445820Y-167859502D01*
X147565518Y-167895812D01*
X147690000Y-167908072D01*
X148304250Y-167905000D01*
X148463000Y-167746250D01*
X148463000Y-166497000D01*
X147213750Y-166497000D01*
X147055000Y-166655750D01*
X147051928Y-167270000D01*
X144413072Y-167270000D01*
X144410000Y-166655750D01*
X144251250Y-166497000D01*
X143002000Y-166497000D01*
X142748000Y-166497000D01*
X142728000Y-166497000D01*
X142728000Y-166243000D01*
X142748000Y-166243000D01*
X142748000Y-164993750D01*
X143002000Y-164993750D01*
X143002000Y-166243000D01*
X144251250Y-166243000D01*
X144410000Y-166084250D01*
X144413072Y-165470000D01*
X147051928Y-165470000D01*
X147055000Y-166084250D01*
X147213750Y-166243000D01*
X148463000Y-166243000D01*
X148463000Y-164993750D01*
X148717000Y-164993750D01*
X148717000Y-166243000D01*
X148737000Y-166243000D01*
X148737000Y-166497000D01*
X148717000Y-166497000D01*
X148717000Y-167746250D01*
X148875750Y-167905000D01*
X149490000Y-167908072D01*
X149614482Y-167895812D01*
X149734180Y-167859502D01*
X149844494Y-167800537D01*
X149941185Y-167721185D01*
X150020537Y-167624494D01*
X150079502Y-167514180D01*
X150115812Y-167394482D01*
X150128072Y-167270000D01*
X150127945Y-167244606D01*
X150284087Y-167400748D01*
X150501430Y-167545972D01*
X150742928Y-167646004D01*
X150999302Y-167697000D01*
X151260698Y-167697000D01*
X151517072Y-167646004D01*
X151758570Y-167545972D01*
X151975913Y-167400748D01*
X152160748Y-167215913D01*
X152305972Y-166998570D01*
X152406004Y-166757072D01*
X152457000Y-166500698D01*
X152457000Y-166239302D01*
X152406004Y-165982928D01*
X152305972Y-165741430D01*
X152160748Y-165524087D01*
X151975913Y-165339252D01*
X151758570Y-165194028D01*
X151517072Y-165093996D01*
X151260698Y-165043000D01*
X150999302Y-165043000D01*
X150742928Y-165093996D01*
X150501430Y-165194028D01*
X150284087Y-165339252D01*
X150127945Y-165495394D01*
X150128072Y-165470000D01*
X150115812Y-165345518D01*
X150079502Y-165225820D01*
X150020537Y-165115506D01*
X149941185Y-165018815D01*
X149844494Y-164939463D01*
X149734180Y-164880498D01*
X149614482Y-164844188D01*
X149490000Y-164831928D01*
X148875750Y-164835000D01*
X148717000Y-164993750D01*
X148463000Y-164993750D01*
X148304250Y-164835000D01*
X147690000Y-164831928D01*
X147565518Y-164844188D01*
X147445820Y-164880498D01*
X147335506Y-164939463D01*
X147238815Y-165018815D01*
X147159463Y-165115506D01*
X147100498Y-165225820D01*
X147064188Y-165345518D01*
X147051928Y-165470000D01*
X144413072Y-165470000D01*
X144400812Y-165345518D01*
X144364502Y-165225820D01*
X144305537Y-165115506D01*
X144226185Y-165018815D01*
X144129494Y-164939463D01*
X144019180Y-164880498D01*
X143899482Y-164844188D01*
X143775000Y-164831928D01*
X143160750Y-164835000D01*
X143002000Y-164993750D01*
X142748000Y-164993750D01*
X142589250Y-164835000D01*
X141975000Y-164831928D01*
X141850518Y-164844188D01*
X141730820Y-164880498D01*
X141620506Y-164939463D01*
X141523815Y-165018815D01*
X141444463Y-165115506D01*
X141385498Y-165225820D01*
X141349188Y-165345518D01*
X141336928Y-165470000D01*
X141337055Y-165495394D01*
X141180913Y-165339252D01*
X140963570Y-165194028D01*
X140722072Y-165093996D01*
X140465698Y-165043000D01*
X140204302Y-165043000D01*
X139947928Y-165093996D01*
X139706430Y-165194028D01*
X139489087Y-165339252D01*
X139304252Y-165524087D01*
X139159028Y-165741430D01*
X139058996Y-165982928D01*
X139008000Y-166239302D01*
X87697000Y-166239302D01*
X87697000Y-165702717D01*
X87721208Y-165712744D01*
X87750670Y-165728492D01*
X87782636Y-165738189D01*
X87813526Y-165750984D01*
X87846315Y-165757506D01*
X87878285Y-165767204D01*
X87911536Y-165770479D01*
X87944321Y-165777000D01*
X93692755Y-165777000D01*
X93726000Y-165780274D01*
X93759245Y-165777000D01*
X93759252Y-165777000D01*
X93858715Y-165767204D01*
X93986330Y-165728492D01*
X94103941Y-165665628D01*
X94207027Y-165581027D01*
X94228226Y-165555196D01*
X96546422Y-163237000D01*
X100409294Y-163237000D01*
X100323996Y-163442928D01*
X100273000Y-163699302D01*
X100273000Y-163960698D01*
X100323996Y-164217072D01*
X100424028Y-164458570D01*
X100569252Y-164675913D01*
X100754087Y-164860748D01*
X100971430Y-165005972D01*
X101212928Y-165106004D01*
X101469302Y-165157000D01*
X101730698Y-165157000D01*
X101987072Y-165106004D01*
X102228570Y-165005972D01*
X102445913Y-164860748D01*
X102602055Y-164704606D01*
X102601928Y-164730000D01*
X102614188Y-164854482D01*
X102650498Y-164974180D01*
X102709463Y-165084494D01*
X102788815Y-165181185D01*
X102885506Y-165260537D01*
X102995820Y-165319502D01*
X103115518Y-165355812D01*
X103240000Y-165368072D01*
X103854250Y-165365000D01*
X104013000Y-165206250D01*
X104013000Y-163957000D01*
X104267000Y-163957000D01*
X104267000Y-165206250D01*
X104425750Y-165365000D01*
X105040000Y-165368072D01*
X105164482Y-165355812D01*
X105284180Y-165319502D01*
X105394494Y-165260537D01*
X105491185Y-165181185D01*
X105570537Y-165084494D01*
X105629502Y-164974180D01*
X105665812Y-164854482D01*
X105678072Y-164730000D01*
X105675000Y-164115750D01*
X105516250Y-163957000D01*
X104267000Y-163957000D01*
X104013000Y-163957000D01*
X103993000Y-163957000D01*
X103993000Y-163703000D01*
X104013000Y-163703000D01*
X104013000Y-163683000D01*
X104267000Y-163683000D01*
X104267000Y-163703000D01*
X105516250Y-163703000D01*
X105675000Y-163544250D01*
X105676537Y-163237000D01*
X118902255Y-163237000D01*
X118935500Y-163240274D01*
X118968745Y-163237000D01*
X118968752Y-163237000D01*
X119068215Y-163227204D01*
X119195830Y-163188492D01*
X119313441Y-163125628D01*
X119416527Y-163041027D01*
X119437726Y-163015196D01*
X121105196Y-161347726D01*
X121131027Y-161326527D01*
X121215628Y-161223441D01*
X121278492Y-161105830D01*
X121317204Y-160978215D01*
X121327000Y-160878752D01*
X121327000Y-160878743D01*
X121330274Y-160845501D01*
X121327000Y-160812259D01*
X121327000Y-160524302D01*
X139008000Y-160524302D01*
X139008000Y-160785698D01*
X139058996Y-161042072D01*
X139159028Y-161283570D01*
X139304252Y-161500913D01*
X139489087Y-161685748D01*
X139706430Y-161830972D01*
X139947928Y-161931004D01*
X140204302Y-161982000D01*
X140465698Y-161982000D01*
X140722072Y-161931004D01*
X140963570Y-161830972D01*
X141180913Y-161685748D01*
X141337055Y-161529606D01*
X141336928Y-161555000D01*
X141349188Y-161679482D01*
X141385498Y-161799180D01*
X141444463Y-161909494D01*
X141523815Y-162006185D01*
X141620506Y-162085537D01*
X141730820Y-162144502D01*
X141850518Y-162180812D01*
X141975000Y-162193072D01*
X142589250Y-162190000D01*
X142748000Y-162031250D01*
X142748000Y-160782000D01*
X143002000Y-160782000D01*
X143002000Y-162031250D01*
X143160750Y-162190000D01*
X143775000Y-162193072D01*
X143899482Y-162180812D01*
X144019180Y-162144502D01*
X144129494Y-162085537D01*
X144226185Y-162006185D01*
X144305537Y-161909494D01*
X144364502Y-161799180D01*
X144400812Y-161679482D01*
X144413072Y-161555000D01*
X147051928Y-161555000D01*
X147064188Y-161679482D01*
X147100498Y-161799180D01*
X147159463Y-161909494D01*
X147238815Y-162006185D01*
X147335506Y-162085537D01*
X147445820Y-162144502D01*
X147565518Y-162180812D01*
X147690000Y-162193072D01*
X148304250Y-162190000D01*
X148463000Y-162031250D01*
X148463000Y-160782000D01*
X147213750Y-160782000D01*
X147055000Y-160940750D01*
X147051928Y-161555000D01*
X144413072Y-161555000D01*
X144410000Y-160940750D01*
X144251250Y-160782000D01*
X143002000Y-160782000D01*
X142748000Y-160782000D01*
X142728000Y-160782000D01*
X142728000Y-160528000D01*
X142748000Y-160528000D01*
X142748000Y-159278750D01*
X143002000Y-159278750D01*
X143002000Y-160528000D01*
X144251250Y-160528000D01*
X144410000Y-160369250D01*
X144413072Y-159755000D01*
X147051928Y-159755000D01*
X147055000Y-160369250D01*
X147213750Y-160528000D01*
X148463000Y-160528000D01*
X148463000Y-159278750D01*
X148717000Y-159278750D01*
X148717000Y-160528000D01*
X148737000Y-160528000D01*
X148737000Y-160782000D01*
X148717000Y-160782000D01*
X148717000Y-162031250D01*
X148875750Y-162190000D01*
X149490000Y-162193072D01*
X149614482Y-162180812D01*
X149734180Y-162144502D01*
X149844494Y-162085537D01*
X149941185Y-162006185D01*
X150020537Y-161909494D01*
X150079502Y-161799180D01*
X150115812Y-161679482D01*
X150128072Y-161555000D01*
X150127945Y-161529606D01*
X150284087Y-161685748D01*
X150501430Y-161830972D01*
X150742928Y-161931004D01*
X150999302Y-161982000D01*
X151260698Y-161982000D01*
X151517072Y-161931004D01*
X151758570Y-161830972D01*
X151975913Y-161685748D01*
X152160748Y-161500913D01*
X152305972Y-161283570D01*
X152406004Y-161042072D01*
X152457000Y-160785698D01*
X152457000Y-160524302D01*
X152406004Y-160267928D01*
X152305972Y-160026430D01*
X152160748Y-159809087D01*
X151975913Y-159624252D01*
X151758570Y-159479028D01*
X151517072Y-159378996D01*
X151260698Y-159328000D01*
X150999302Y-159328000D01*
X150742928Y-159378996D01*
X150501430Y-159479028D01*
X150284087Y-159624252D01*
X150127945Y-159780394D01*
X150128072Y-159755000D01*
X150115812Y-159630518D01*
X150079502Y-159510820D01*
X150020537Y-159400506D01*
X149941185Y-159303815D01*
X149844494Y-159224463D01*
X149734180Y-159165498D01*
X149614482Y-159129188D01*
X149490000Y-159116928D01*
X148875750Y-159120000D01*
X148717000Y-159278750D01*
X148463000Y-159278750D01*
X148304250Y-159120000D01*
X147690000Y-159116928D01*
X147565518Y-159129188D01*
X147445820Y-159165498D01*
X147335506Y-159224463D01*
X147238815Y-159303815D01*
X147159463Y-159400506D01*
X147100498Y-159510820D01*
X147064188Y-159630518D01*
X147051928Y-159755000D01*
X144413072Y-159755000D01*
X144400812Y-159630518D01*
X144364502Y-159510820D01*
X144305537Y-159400506D01*
X144226185Y-159303815D01*
X144129494Y-159224463D01*
X144019180Y-159165498D01*
X143899482Y-159129188D01*
X143775000Y-159116928D01*
X143160750Y-159120000D01*
X143002000Y-159278750D01*
X142748000Y-159278750D01*
X142589250Y-159120000D01*
X141975000Y-159116928D01*
X141850518Y-159129188D01*
X141730820Y-159165498D01*
X141620506Y-159224463D01*
X141523815Y-159303815D01*
X141444463Y-159400506D01*
X141385498Y-159510820D01*
X141349188Y-159630518D01*
X141336928Y-159755000D01*
X141337055Y-159780394D01*
X141180913Y-159624252D01*
X140963570Y-159479028D01*
X140722072Y-159378996D01*
X140465698Y-159328000D01*
X140204302Y-159328000D01*
X139947928Y-159378996D01*
X139706430Y-159479028D01*
X139489087Y-159624252D01*
X139304252Y-159809087D01*
X139159028Y-160026430D01*
X139058996Y-160267928D01*
X139008000Y-160524302D01*
X121327000Y-160524302D01*
X121327000Y-157696922D01*
X124214620Y-154809302D01*
X139008000Y-154809302D01*
X139008000Y-155070698D01*
X139058996Y-155327072D01*
X139159028Y-155568570D01*
X139304252Y-155785913D01*
X139489087Y-155970748D01*
X139706430Y-156115972D01*
X139947928Y-156216004D01*
X140204302Y-156267000D01*
X140465698Y-156267000D01*
X140722072Y-156216004D01*
X140963570Y-156115972D01*
X141180913Y-155970748D01*
X141337055Y-155814606D01*
X141336928Y-155840000D01*
X141349188Y-155964482D01*
X141385498Y-156084180D01*
X141444463Y-156194494D01*
X141523815Y-156291185D01*
X141620506Y-156370537D01*
X141730820Y-156429502D01*
X141850518Y-156465812D01*
X141975000Y-156478072D01*
X142589250Y-156475000D01*
X142748000Y-156316250D01*
X142748000Y-155067000D01*
X143002000Y-155067000D01*
X143002000Y-156316250D01*
X143160750Y-156475000D01*
X143775000Y-156478072D01*
X143899482Y-156465812D01*
X144019180Y-156429502D01*
X144129494Y-156370537D01*
X144226185Y-156291185D01*
X144305537Y-156194494D01*
X144364502Y-156084180D01*
X144400812Y-155964482D01*
X144413072Y-155840000D01*
X147051928Y-155840000D01*
X147064188Y-155964482D01*
X147100498Y-156084180D01*
X147159463Y-156194494D01*
X147238815Y-156291185D01*
X147335506Y-156370537D01*
X147445820Y-156429502D01*
X147565518Y-156465812D01*
X147690000Y-156478072D01*
X148304250Y-156475000D01*
X148463000Y-156316250D01*
X148463000Y-155067000D01*
X147213750Y-155067000D01*
X147055000Y-155225750D01*
X147051928Y-155840000D01*
X144413072Y-155840000D01*
X144410000Y-155225750D01*
X144251250Y-155067000D01*
X143002000Y-155067000D01*
X142748000Y-155067000D01*
X142728000Y-155067000D01*
X142728000Y-154813000D01*
X142748000Y-154813000D01*
X142748000Y-153563750D01*
X143002000Y-153563750D01*
X143002000Y-154813000D01*
X144251250Y-154813000D01*
X144410000Y-154654250D01*
X144413072Y-154040000D01*
X147051928Y-154040000D01*
X147055000Y-154654250D01*
X147213750Y-154813000D01*
X148463000Y-154813000D01*
X148463000Y-153563750D01*
X148717000Y-153563750D01*
X148717000Y-154813000D01*
X148737000Y-154813000D01*
X148737000Y-155067000D01*
X148717000Y-155067000D01*
X148717000Y-156316250D01*
X148875750Y-156475000D01*
X149490000Y-156478072D01*
X149614482Y-156465812D01*
X149734180Y-156429502D01*
X149844494Y-156370537D01*
X149941185Y-156291185D01*
X150020537Y-156194494D01*
X150079502Y-156084180D01*
X150115812Y-155964482D01*
X150128072Y-155840000D01*
X150127945Y-155814606D01*
X150284087Y-155970748D01*
X150501430Y-156115972D01*
X150742928Y-156216004D01*
X150999302Y-156267000D01*
X151260698Y-156267000D01*
X151517072Y-156216004D01*
X151743075Y-156122390D01*
X168675024Y-156122390D01*
X168719675Y-156269599D01*
X168844859Y-156532420D01*
X169018912Y-156765769D01*
X169235145Y-156960678D01*
X169485248Y-157109657D01*
X169759609Y-157206981D01*
X169989500Y-157086314D01*
X169989500Y-155892500D01*
X170243500Y-155892500D01*
X170243500Y-157086314D01*
X170473391Y-157206981D01*
X170747752Y-157109657D01*
X170997855Y-156960678D01*
X171214088Y-156765769D01*
X171388141Y-156532420D01*
X171513325Y-156269599D01*
X171557976Y-156122390D01*
X171436655Y-155892500D01*
X170243500Y-155892500D01*
X169989500Y-155892500D01*
X168796345Y-155892500D01*
X168675024Y-156122390D01*
X151743075Y-156122390D01*
X151758570Y-156115972D01*
X151975913Y-155970748D01*
X152160748Y-155785913D01*
X152305972Y-155568570D01*
X152406004Y-155327072D01*
X152457000Y-155070698D01*
X152457000Y-154809302D01*
X152406004Y-154552928D01*
X152305972Y-154311430D01*
X152160748Y-154094087D01*
X151975913Y-153909252D01*
X151758570Y-153764028D01*
X151517072Y-153663996D01*
X151260698Y-153613000D01*
X150999302Y-153613000D01*
X150742928Y-153663996D01*
X150501430Y-153764028D01*
X150284087Y-153909252D01*
X150127945Y-154065394D01*
X150128072Y-154040000D01*
X150115812Y-153915518D01*
X150079502Y-153795820D01*
X150020537Y-153685506D01*
X149941185Y-153588815D01*
X149933357Y-153582390D01*
X168675024Y-153582390D01*
X168719675Y-153729599D01*
X168844859Y-153992420D01*
X169018912Y-154225769D01*
X169235145Y-154420678D01*
X169360755Y-154495500D01*
X169235145Y-154570322D01*
X169018912Y-154765231D01*
X168844859Y-154998580D01*
X168719675Y-155261401D01*
X168675024Y-155408610D01*
X168796345Y-155638500D01*
X169989500Y-155638500D01*
X169989500Y-153352500D01*
X170243500Y-153352500D01*
X170243500Y-155638500D01*
X171436655Y-155638500D01*
X171557976Y-155408610D01*
X171513325Y-155261401D01*
X171388141Y-154998580D01*
X171214088Y-154765231D01*
X170997855Y-154570322D01*
X170872245Y-154495500D01*
X170997855Y-154420678D01*
X171214088Y-154225769D01*
X171388141Y-153992420D01*
X171513325Y-153729599D01*
X171557976Y-153582390D01*
X171436655Y-153352500D01*
X170243500Y-153352500D01*
X169989500Y-153352500D01*
X168796345Y-153352500D01*
X168675024Y-153582390D01*
X149933357Y-153582390D01*
X149844494Y-153509463D01*
X149734180Y-153450498D01*
X149614482Y-153414188D01*
X149490000Y-153401928D01*
X148875750Y-153405000D01*
X148717000Y-153563750D01*
X148463000Y-153563750D01*
X148304250Y-153405000D01*
X147690000Y-153401928D01*
X147565518Y-153414188D01*
X147445820Y-153450498D01*
X147335506Y-153509463D01*
X147238815Y-153588815D01*
X147159463Y-153685506D01*
X147100498Y-153795820D01*
X147064188Y-153915518D01*
X147051928Y-154040000D01*
X144413072Y-154040000D01*
X144400812Y-153915518D01*
X144364502Y-153795820D01*
X144305537Y-153685506D01*
X144226185Y-153588815D01*
X144129494Y-153509463D01*
X144019180Y-153450498D01*
X143899482Y-153414188D01*
X143775000Y-153401928D01*
X143160750Y-153405000D01*
X143002000Y-153563750D01*
X142748000Y-153563750D01*
X142589250Y-153405000D01*
X141975000Y-153401928D01*
X141850518Y-153414188D01*
X141730820Y-153450498D01*
X141620506Y-153509463D01*
X141523815Y-153588815D01*
X141444463Y-153685506D01*
X141385498Y-153795820D01*
X141349188Y-153915518D01*
X141336928Y-154040000D01*
X141337055Y-154065394D01*
X141180913Y-153909252D01*
X140963570Y-153764028D01*
X140722072Y-153663996D01*
X140465698Y-153613000D01*
X140204302Y-153613000D01*
X139947928Y-153663996D01*
X139706430Y-153764028D01*
X139489087Y-153909252D01*
X139304252Y-154094087D01*
X139159028Y-154311430D01*
X139058996Y-154552928D01*
X139008000Y-154809302D01*
X124214620Y-154809302D01*
X126264422Y-152759500D01*
X154398755Y-152759500D01*
X154432000Y-152762774D01*
X154465245Y-152759500D01*
X154465252Y-152759500D01*
X154564715Y-152749704D01*
X154692330Y-152710992D01*
X154809941Y-152648128D01*
X154913027Y-152563527D01*
X154934226Y-152537696D01*
X156109422Y-151362500D01*
X169030389Y-151362500D01*
X169049576Y-151398396D01*
X169209156Y-151592844D01*
X169403604Y-151752424D01*
X169581150Y-151847324D01*
X169485248Y-151881343D01*
X169235145Y-152030322D01*
X169018912Y-152225231D01*
X168844859Y-152458580D01*
X168719675Y-152721401D01*
X168675024Y-152868610D01*
X168796345Y-153098500D01*
X169989500Y-153098500D01*
X169989500Y-153078500D01*
X170243500Y-153078500D01*
X170243500Y-153098500D01*
X171436655Y-153098500D01*
X171557976Y-152868610D01*
X171513325Y-152721401D01*
X171388141Y-152458580D01*
X171214088Y-152225231D01*
X170997855Y-152030322D01*
X170747752Y-151881343D01*
X170651850Y-151847324D01*
X170829396Y-151752424D01*
X171023844Y-151592844D01*
X171183424Y-151398396D01*
X171302002Y-151176551D01*
X171375022Y-150935836D01*
X171399678Y-150685500D01*
X171375022Y-150435164D01*
X171302002Y-150194449D01*
X171183424Y-149972604D01*
X171023844Y-149778156D01*
X170829396Y-149618576D01*
X170793500Y-149599389D01*
X170793500Y-149424566D01*
X170966500Y-149424566D01*
X171050207Y-149416322D01*
X171130696Y-149391905D01*
X171204876Y-149352255D01*
X171269895Y-149298895D01*
X171323255Y-149233876D01*
X171362905Y-149159696D01*
X171387322Y-149079207D01*
X171395566Y-148995500D01*
X171395566Y-147295500D01*
X171387322Y-147211793D01*
X171362905Y-147131304D01*
X171323255Y-147057124D01*
X171269895Y-146992105D01*
X171204876Y-146938745D01*
X171130696Y-146899095D01*
X171050207Y-146874678D01*
X170966500Y-146866434D01*
X170793500Y-146866434D01*
X170793500Y-134907252D01*
X170796775Y-134874000D01*
X170783704Y-134741285D01*
X170744992Y-134613670D01*
X170682128Y-134496059D01*
X170618724Y-134418801D01*
X170618722Y-134418799D01*
X170597527Y-134392973D01*
X170571701Y-134371778D01*
X169729726Y-133529804D01*
X169708527Y-133503973D01*
X169605441Y-133419372D01*
X169487830Y-133356508D01*
X169360215Y-133317796D01*
X169260752Y-133308000D01*
X169260745Y-133308000D01*
X169227500Y-133304726D01*
X169194255Y-133308000D01*
X131505321Y-133308000D01*
X131472536Y-133314521D01*
X131439285Y-133317796D01*
X131407315Y-133327494D01*
X131374526Y-133334016D01*
X131343636Y-133346811D01*
X131311670Y-133356508D01*
X131282208Y-133372256D01*
X131251320Y-133385050D01*
X131223524Y-133403623D01*
X131194059Y-133419372D01*
X131168231Y-133440568D01*
X131140437Y-133459140D01*
X131116801Y-133482776D01*
X131090973Y-133503973D01*
X131069778Y-133529799D01*
X131046140Y-133553437D01*
X131027568Y-133581231D01*
X131006372Y-133607059D01*
X130990623Y-133636524D01*
X130972050Y-133664320D01*
X130959256Y-133695208D01*
X130943508Y-133724670D01*
X130933811Y-133756636D01*
X130921016Y-133787526D01*
X130914494Y-133820315D01*
X130904796Y-133852285D01*
X130901521Y-133885536D01*
X130895000Y-133918321D01*
X130895000Y-133951748D01*
X130891725Y-133985000D01*
X130895000Y-134018252D01*
X130895000Y-134051679D01*
X130901521Y-134084464D01*
X130904796Y-134117715D01*
X130914494Y-134149685D01*
X130921016Y-134182474D01*
X130933811Y-134213364D01*
X130943508Y-134245330D01*
X130959256Y-134274792D01*
X130972050Y-134305680D01*
X130990623Y-134333476D01*
X131006372Y-134362941D01*
X131027568Y-134388769D01*
X131046140Y-134416563D01*
X131069778Y-134440201D01*
X131090973Y-134466027D01*
X131116799Y-134487222D01*
X131140437Y-134510860D01*
X131168231Y-134529432D01*
X131194059Y-134550628D01*
X131223524Y-134566377D01*
X131251320Y-134584950D01*
X131282208Y-134597744D01*
X131311670Y-134613492D01*
X131343636Y-134623189D01*
X131374526Y-134635984D01*
X131407315Y-134642506D01*
X131439285Y-134652204D01*
X131472536Y-134655479D01*
X131505321Y-134662000D01*
X168947078Y-134662000D01*
X169439501Y-135154424D01*
X169439500Y-146866434D01*
X169266500Y-146866434D01*
X169182793Y-146874678D01*
X169102304Y-146899095D01*
X169028124Y-146938745D01*
X168963105Y-146992105D01*
X168909745Y-147057124D01*
X168870095Y-147131304D01*
X168845678Y-147211793D01*
X168837434Y-147295500D01*
X168837434Y-148995500D01*
X168845678Y-149079207D01*
X168870095Y-149159696D01*
X168909745Y-149233876D01*
X168963105Y-149298895D01*
X169028124Y-149352255D01*
X169102304Y-149391905D01*
X169182793Y-149416322D01*
X169266500Y-149424566D01*
X169439501Y-149424566D01*
X169439501Y-149599389D01*
X169403604Y-149618576D01*
X169209156Y-149778156D01*
X169049576Y-149972604D01*
X169030389Y-150008500D01*
X155862241Y-150008500D01*
X155828999Y-150005226D01*
X155795757Y-150008500D01*
X155795748Y-150008500D01*
X155696285Y-150018296D01*
X155568670Y-150057008D01*
X155451059Y-150119872D01*
X155347973Y-150204473D01*
X155326774Y-150230304D01*
X154151578Y-151405500D01*
X126370502Y-151405500D01*
X128681700Y-149094302D01*
X139008000Y-149094302D01*
X139008000Y-149355698D01*
X139058996Y-149612072D01*
X139159028Y-149853570D01*
X139304252Y-150070913D01*
X139489087Y-150255748D01*
X139706430Y-150400972D01*
X139947928Y-150501004D01*
X140204302Y-150552000D01*
X140465698Y-150552000D01*
X140722072Y-150501004D01*
X140963570Y-150400972D01*
X141180913Y-150255748D01*
X141337055Y-150099606D01*
X141336928Y-150125000D01*
X141349188Y-150249482D01*
X141385498Y-150369180D01*
X141444463Y-150479494D01*
X141523815Y-150576185D01*
X141620506Y-150655537D01*
X141730820Y-150714502D01*
X141850518Y-150750812D01*
X141975000Y-150763072D01*
X142589250Y-150760000D01*
X142748000Y-150601250D01*
X142748000Y-149352000D01*
X143002000Y-149352000D01*
X143002000Y-150601250D01*
X143160750Y-150760000D01*
X143775000Y-150763072D01*
X143899482Y-150750812D01*
X144019180Y-150714502D01*
X144129494Y-150655537D01*
X144226185Y-150576185D01*
X144305537Y-150479494D01*
X144364502Y-150369180D01*
X144400812Y-150249482D01*
X144413072Y-150125000D01*
X147051928Y-150125000D01*
X147064188Y-150249482D01*
X147100498Y-150369180D01*
X147159463Y-150479494D01*
X147238815Y-150576185D01*
X147335506Y-150655537D01*
X147445820Y-150714502D01*
X147565518Y-150750812D01*
X147690000Y-150763072D01*
X148304250Y-150760000D01*
X148463000Y-150601250D01*
X148463000Y-149352000D01*
X147213750Y-149352000D01*
X147055000Y-149510750D01*
X147051928Y-150125000D01*
X144413072Y-150125000D01*
X144410000Y-149510750D01*
X144251250Y-149352000D01*
X143002000Y-149352000D01*
X142748000Y-149352000D01*
X142728000Y-149352000D01*
X142728000Y-149098000D01*
X142748000Y-149098000D01*
X142748000Y-147848750D01*
X143002000Y-147848750D01*
X143002000Y-149098000D01*
X144251250Y-149098000D01*
X144410000Y-148939250D01*
X144413072Y-148325000D01*
X147051928Y-148325000D01*
X147055000Y-148939250D01*
X147213750Y-149098000D01*
X148463000Y-149098000D01*
X148463000Y-147848750D01*
X148717000Y-147848750D01*
X148717000Y-149098000D01*
X148737000Y-149098000D01*
X148737000Y-149352000D01*
X148717000Y-149352000D01*
X148717000Y-150601250D01*
X148875750Y-150760000D01*
X149490000Y-150763072D01*
X149614482Y-150750812D01*
X149734180Y-150714502D01*
X149844494Y-150655537D01*
X149941185Y-150576185D01*
X150020537Y-150479494D01*
X150079502Y-150369180D01*
X150115812Y-150249482D01*
X150128072Y-150125000D01*
X150127945Y-150099606D01*
X150284087Y-150255748D01*
X150501430Y-150400972D01*
X150742928Y-150501004D01*
X150999302Y-150552000D01*
X151260698Y-150552000D01*
X151517072Y-150501004D01*
X151758570Y-150400972D01*
X151975913Y-150255748D01*
X152160748Y-150070913D01*
X152305972Y-149853570D01*
X152406004Y-149612072D01*
X152457000Y-149355698D01*
X152457000Y-149094302D01*
X152406004Y-148837928D01*
X152305972Y-148596430D01*
X152160748Y-148379087D01*
X151975913Y-148194252D01*
X151758570Y-148049028D01*
X151517072Y-147948996D01*
X151260698Y-147898000D01*
X150999302Y-147898000D01*
X150742928Y-147948996D01*
X150501430Y-148049028D01*
X150284087Y-148194252D01*
X150127945Y-148350394D01*
X150128072Y-148325000D01*
X150115812Y-148200518D01*
X150079502Y-148080820D01*
X150020537Y-147970506D01*
X149941185Y-147873815D01*
X149844494Y-147794463D01*
X149734180Y-147735498D01*
X149614482Y-147699188D01*
X149490000Y-147686928D01*
X148875750Y-147690000D01*
X148717000Y-147848750D01*
X148463000Y-147848750D01*
X148304250Y-147690000D01*
X147690000Y-147686928D01*
X147565518Y-147699188D01*
X147445820Y-147735498D01*
X147335506Y-147794463D01*
X147238815Y-147873815D01*
X147159463Y-147970506D01*
X147100498Y-148080820D01*
X147064188Y-148200518D01*
X147051928Y-148325000D01*
X144413072Y-148325000D01*
X144400812Y-148200518D01*
X144364502Y-148080820D01*
X144305537Y-147970506D01*
X144226185Y-147873815D01*
X144129494Y-147794463D01*
X144019180Y-147735498D01*
X143899482Y-147699188D01*
X143775000Y-147686928D01*
X143160750Y-147690000D01*
X143002000Y-147848750D01*
X142748000Y-147848750D01*
X142589250Y-147690000D01*
X141975000Y-147686928D01*
X141850518Y-147699188D01*
X141730820Y-147735498D01*
X141620506Y-147794463D01*
X141523815Y-147873815D01*
X141444463Y-147970506D01*
X141385498Y-148080820D01*
X141349188Y-148200518D01*
X141336928Y-148325000D01*
X141337055Y-148350394D01*
X141180913Y-148194252D01*
X140963570Y-148049028D01*
X140722072Y-147948996D01*
X140465698Y-147898000D01*
X140204302Y-147898000D01*
X139947928Y-147948996D01*
X139706430Y-148049028D01*
X139489087Y-148194252D01*
X139304252Y-148379087D01*
X139159028Y-148596430D01*
X139058996Y-148837928D01*
X139008000Y-149094302D01*
X128681700Y-149094302D01*
X130989002Y-146787000D01*
X156304973Y-146787000D01*
X156339320Y-146809950D01*
X156462526Y-146860984D01*
X156593321Y-146887000D01*
X156726679Y-146887000D01*
X156857474Y-146860984D01*
X156980680Y-146809950D01*
X157091563Y-146735860D01*
X157185860Y-146641563D01*
X157259950Y-146530680D01*
X157310984Y-146407474D01*
X157337000Y-146276679D01*
X157337000Y-146143321D01*
X157310984Y-146012526D01*
X157259950Y-145889320D01*
X157185860Y-145778437D01*
X157091563Y-145684140D01*
X156980680Y-145610050D01*
X156857474Y-145559016D01*
X156726679Y-145533000D01*
X156593321Y-145533000D01*
X156462526Y-145559016D01*
X156339320Y-145610050D01*
X156304973Y-145633000D01*
X130778328Y-145633000D01*
X130749999Y-145630210D01*
X130721670Y-145633000D01*
X130721664Y-145633000D01*
X130636888Y-145641350D01*
X130528124Y-145674343D01*
X130427885Y-145727921D01*
X130396720Y-145753498D01*
X130362035Y-145781963D01*
X130362033Y-145781965D01*
X130340026Y-145800026D01*
X130321965Y-145822033D01*
X125717000Y-150426998D01*
X125717000Y-149595027D01*
X125739950Y-149560680D01*
X125790984Y-149437474D01*
X125817000Y-149306679D01*
X125817000Y-149173321D01*
X125790984Y-149042526D01*
X125739950Y-148919320D01*
X125665860Y-148808437D01*
X125571563Y-148714140D01*
X125460680Y-148640050D01*
X125337474Y-148589016D01*
X125206679Y-148563000D01*
X125073321Y-148563000D01*
X124942526Y-148589016D01*
X124819320Y-148640050D01*
X124708437Y-148714140D01*
X124614140Y-148808437D01*
X124540050Y-148919320D01*
X124489016Y-149042526D01*
X124463000Y-149173321D01*
X124463000Y-149306679D01*
X124489016Y-149437474D01*
X124540050Y-149560680D01*
X124563001Y-149595028D01*
X124563000Y-150680999D01*
X115510999Y-159733000D01*
X96648339Y-159733000D01*
X96620000Y-159730209D01*
X96506888Y-159741349D01*
X96398123Y-159774343D01*
X96372228Y-159788184D01*
X96297885Y-159827921D01*
X96210026Y-159900026D01*
X96191963Y-159922036D01*
X94130999Y-161983000D01*
X92485027Y-161983000D01*
X92450680Y-161960050D01*
X92327474Y-161909016D01*
X92196679Y-161883000D01*
X92063321Y-161883000D01*
X91932526Y-161909016D01*
X91809320Y-161960050D01*
X91698437Y-162034140D01*
X91604140Y-162128437D01*
X91530050Y-162239320D01*
X91479016Y-162362526D01*
X91453000Y-162493321D01*
X91453000Y-162626679D01*
X91479016Y-162757474D01*
X91530050Y-162880680D01*
X91604140Y-162991563D01*
X91698437Y-163085860D01*
X91809320Y-163159950D01*
X91893938Y-163195000D01*
X91809320Y-163230050D01*
X91698437Y-163304140D01*
X91604140Y-163398437D01*
X91530050Y-163509320D01*
X91479016Y-163632526D01*
X91453000Y-163763321D01*
X91453000Y-163896679D01*
X91479016Y-164027474D01*
X91530050Y-164150680D01*
X91604140Y-164261563D01*
X91698437Y-164355860D01*
X91798919Y-164423000D01*
X87944321Y-164423000D01*
X87911536Y-164429521D01*
X87878285Y-164432796D01*
X87846315Y-164442494D01*
X87813526Y-164449016D01*
X87782636Y-164461811D01*
X87750670Y-164471508D01*
X87721208Y-164487256D01*
X87697000Y-164497283D01*
X87697000Y-160368328D01*
X87699790Y-160339999D01*
X87697000Y-160311670D01*
X87697000Y-160311664D01*
X87688650Y-160226888D01*
X87655657Y-160118124D01*
X87602079Y-160017885D01*
X87529974Y-159930026D01*
X87507968Y-159911966D01*
X87023001Y-159427000D01*
X88077679Y-159427000D01*
X88110464Y-159420479D01*
X88143715Y-159417204D01*
X88175685Y-159407506D01*
X88208474Y-159400984D01*
X88239364Y-159388189D01*
X88271330Y-159378492D01*
X88300792Y-159362744D01*
X88331680Y-159349950D01*
X88359476Y-159331377D01*
X88388941Y-159315628D01*
X88414769Y-159294432D01*
X88442563Y-159275860D01*
X88466201Y-159252222D01*
X88492027Y-159231027D01*
X88513222Y-159205201D01*
X88536860Y-159181563D01*
X88555432Y-159153769D01*
X88576628Y-159127941D01*
X88592377Y-159098476D01*
X88610950Y-159070680D01*
X88623744Y-159039792D01*
X88639492Y-159010330D01*
X88649189Y-158978364D01*
X88661984Y-158947474D01*
X88668506Y-158914685D01*
X88678204Y-158882715D01*
X88681479Y-158849464D01*
X88688000Y-158816679D01*
X88688000Y-158783252D01*
X88691275Y-158750000D01*
X88688000Y-158716748D01*
X88688000Y-158683321D01*
X88681479Y-158650536D01*
X88678204Y-158617285D01*
X88668506Y-158585315D01*
X88661984Y-158552526D01*
X88649189Y-158521636D01*
X88639492Y-158489670D01*
X88623744Y-158460208D01*
X88610950Y-158429320D01*
X88592377Y-158401524D01*
X88576628Y-158372059D01*
X88555432Y-158346231D01*
X88536860Y-158318437D01*
X88513222Y-158294799D01*
X88492027Y-158268973D01*
X88466201Y-158247778D01*
X88442563Y-158224140D01*
X88414769Y-158205568D01*
X88388941Y-158184372D01*
X88359476Y-158168623D01*
X88331680Y-158150050D01*
X88300792Y-158137256D01*
X88271330Y-158121508D01*
X88239364Y-158111811D01*
X88208474Y-158099016D01*
X88175685Y-158092494D01*
X88143715Y-158082796D01*
X88110464Y-158079521D01*
X88077679Y-158073000D01*
X86039321Y-158073000D01*
X86006536Y-158079521D01*
X85973285Y-158082796D01*
X85941315Y-158092494D01*
X85908526Y-158099016D01*
X85877636Y-158111811D01*
X85845670Y-158121508D01*
X85816208Y-158137256D01*
X85785320Y-158150050D01*
X85757524Y-158168623D01*
X85728059Y-158184372D01*
X85702231Y-158205568D01*
X85674437Y-158224140D01*
X85650799Y-158247778D01*
X85624973Y-158268973D01*
X85603778Y-158294799D01*
X85580140Y-158318437D01*
X85561568Y-158346231D01*
X85540372Y-158372059D01*
X85524623Y-158401524D01*
X85506050Y-158429320D01*
X85493256Y-158460208D01*
X85477508Y-158489670D01*
X85467811Y-158521636D01*
X85455016Y-158552526D01*
X85448494Y-158585315D01*
X85438796Y-158617285D01*
X85435521Y-158650536D01*
X85429000Y-158683321D01*
X85429000Y-158716748D01*
X85425725Y-158750000D01*
X85429000Y-158783252D01*
X85429000Y-158816679D01*
X85435521Y-158849464D01*
X85438796Y-158882715D01*
X85448494Y-158914685D01*
X85455016Y-158947474D01*
X85467811Y-158978364D01*
X85477508Y-159010330D01*
X85493256Y-159039792D01*
X85506050Y-159070680D01*
X85514282Y-159083000D01*
X85475027Y-159083000D01*
X85440680Y-159060050D01*
X85317474Y-159009016D01*
X85186679Y-158983000D01*
X85053321Y-158983000D01*
X84922526Y-159009016D01*
X84799320Y-159060050D01*
X84688437Y-159134140D01*
X84594140Y-159228437D01*
X84520050Y-159339320D01*
X84469016Y-159462526D01*
X84443000Y-159593321D01*
X84443000Y-159726679D01*
X84469016Y-159857474D01*
X84520050Y-159980680D01*
X84594140Y-160091563D01*
X84688437Y-160185860D01*
X84799320Y-160259950D01*
X84922526Y-160310984D01*
X85053321Y-160337000D01*
X85186679Y-160337000D01*
X85317474Y-160310984D01*
X85440680Y-160259950D01*
X85475027Y-160237000D01*
X86200999Y-160237000D01*
X86543000Y-160579002D01*
X86543001Y-170021655D01*
X86543000Y-170021665D01*
X86543000Y-170611669D01*
X86540210Y-170640000D01*
X86551349Y-170753111D01*
X86564897Y-170797770D01*
X86584343Y-170861876D01*
X86637922Y-170962115D01*
X86668840Y-170999788D01*
X86691963Y-171027964D01*
X86691966Y-171027967D01*
X86710027Y-171049974D01*
X86732033Y-171068034D01*
X87291965Y-171627967D01*
X87310026Y-171649974D01*
X87332033Y-171668035D01*
X87332035Y-171668037D01*
X87351980Y-171684405D01*
X87397885Y-171722079D01*
X87498124Y-171775657D01*
X87606888Y-171808650D01*
X87691664Y-171817000D01*
X87691670Y-171817000D01*
X87719999Y-171819790D01*
X87748328Y-171817000D01*
X87924973Y-171817000D01*
X87945925Y-171831000D01*
X75819000Y-171831000D01*
X75819000Y-167545001D01*
X76080957Y-167806959D01*
X76089016Y-167847474D01*
X76140050Y-167970680D01*
X76214140Y-168081563D01*
X76308437Y-168175860D01*
X76419320Y-168249950D01*
X76542526Y-168300984D01*
X76673321Y-168327000D01*
X76806679Y-168327000D01*
X76937474Y-168300984D01*
X77060680Y-168249950D01*
X77171563Y-168175860D01*
X77265860Y-168081563D01*
X77339950Y-167970680D01*
X77390984Y-167847474D01*
X77417000Y-167716679D01*
X77417000Y-167583321D01*
X77390984Y-167452526D01*
X77339950Y-167329320D01*
X77265860Y-167218437D01*
X77171563Y-167124140D01*
X77060680Y-167050050D01*
X76937474Y-166999016D01*
X76896959Y-166990957D01*
X76727000Y-166820999D01*
X76727000Y-158376592D01*
X76838748Y-158443157D01*
X77113109Y-158540481D01*
X77343000Y-158419814D01*
X77343000Y-157226000D01*
X77323000Y-157226000D01*
X77323000Y-156972000D01*
X77343000Y-156972000D01*
X77343000Y-156952000D01*
X77597000Y-156952000D01*
X77597000Y-156972000D01*
X77617000Y-156972000D01*
X77617000Y-157226000D01*
X77597000Y-157226000D01*
X77597000Y-158419814D01*
X77826891Y-158540481D01*
X78101252Y-158443157D01*
X78351355Y-158294178D01*
X78567588Y-158099269D01*
X78741641Y-157865920D01*
X78850166Y-157638073D01*
X78943076Y-157811896D01*
X79102656Y-158006344D01*
X79297104Y-158165924D01*
X79518949Y-158284502D01*
X79759664Y-158357522D01*
X79947274Y-158376000D01*
X80072726Y-158376000D01*
X80260336Y-158357522D01*
X80501051Y-158284502D01*
X80722896Y-158165924D01*
X80917344Y-158006344D01*
X80935433Y-157984302D01*
X100273000Y-157984302D01*
X100273000Y-158245698D01*
X100323996Y-158502072D01*
X100424028Y-158743570D01*
X100569252Y-158960913D01*
X100754087Y-159145748D01*
X100971430Y-159290972D01*
X101212928Y-159391004D01*
X101469302Y-159442000D01*
X101730698Y-159442000D01*
X101987072Y-159391004D01*
X102228570Y-159290972D01*
X102445913Y-159145748D01*
X102602055Y-158989606D01*
X102601928Y-159015000D01*
X102614188Y-159139482D01*
X102650498Y-159259180D01*
X102709463Y-159369494D01*
X102788815Y-159466185D01*
X102885506Y-159545537D01*
X102995820Y-159604502D01*
X103115518Y-159640812D01*
X103240000Y-159653072D01*
X103854250Y-159650000D01*
X104013000Y-159491250D01*
X104013000Y-158242000D01*
X104267000Y-158242000D01*
X104267000Y-159491250D01*
X104425750Y-159650000D01*
X105040000Y-159653072D01*
X105164482Y-159640812D01*
X105284180Y-159604502D01*
X105394494Y-159545537D01*
X105491185Y-159466185D01*
X105570537Y-159369494D01*
X105629502Y-159259180D01*
X105665812Y-159139482D01*
X105678072Y-159015000D01*
X105675000Y-158400750D01*
X105516250Y-158242000D01*
X104267000Y-158242000D01*
X104013000Y-158242000D01*
X103993000Y-158242000D01*
X103993000Y-157988000D01*
X104013000Y-157988000D01*
X104013000Y-156738750D01*
X104267000Y-156738750D01*
X104267000Y-157988000D01*
X105516250Y-157988000D01*
X105675000Y-157829250D01*
X105678072Y-157215000D01*
X105665812Y-157090518D01*
X105629502Y-156970820D01*
X105570537Y-156860506D01*
X105491185Y-156763815D01*
X105394494Y-156684463D01*
X105284180Y-156625498D01*
X105164482Y-156589188D01*
X105040000Y-156576928D01*
X104425750Y-156580000D01*
X104267000Y-156738750D01*
X104013000Y-156738750D01*
X103854250Y-156580000D01*
X103240000Y-156576928D01*
X103115518Y-156589188D01*
X102995820Y-156625498D01*
X102885506Y-156684463D01*
X102788815Y-156763815D01*
X102709463Y-156860506D01*
X102650498Y-156970820D01*
X102614188Y-157090518D01*
X102601928Y-157215000D01*
X102602055Y-157240394D01*
X102445913Y-157084252D01*
X102228570Y-156939028D01*
X101987072Y-156838996D01*
X101730698Y-156788000D01*
X101469302Y-156788000D01*
X101212928Y-156838996D01*
X100971430Y-156939028D01*
X100754087Y-157084252D01*
X100569252Y-157269087D01*
X100424028Y-157486430D01*
X100323996Y-157727928D01*
X100273000Y-157984302D01*
X80935433Y-157984302D01*
X81076924Y-157811896D01*
X81149562Y-157676000D01*
X82113973Y-157676000D01*
X82148320Y-157698950D01*
X82271526Y-157749984D01*
X82402321Y-157776000D01*
X82535679Y-157776000D01*
X82666474Y-157749984D01*
X82789680Y-157698950D01*
X82824027Y-157676000D01*
X91062669Y-157676000D01*
X91091000Y-157678790D01*
X91119331Y-157676000D01*
X91119336Y-157676000D01*
X91149045Y-157673074D01*
X91204111Y-157667651D01*
X91248770Y-157654103D01*
X91312876Y-157634657D01*
X91413115Y-157581079D01*
X91500974Y-157508974D01*
X91519039Y-157486962D01*
X92749002Y-156257000D01*
X112784973Y-156257000D01*
X112819320Y-156279950D01*
X112942526Y-156330984D01*
X113073321Y-156357000D01*
X113206679Y-156357000D01*
X113337474Y-156330984D01*
X113460680Y-156279950D01*
X113571563Y-156205860D01*
X113665860Y-156111563D01*
X113739950Y-156000680D01*
X113790984Y-155877474D01*
X113817000Y-155746679D01*
X113817000Y-155613321D01*
X113790984Y-155482526D01*
X113739950Y-155359320D01*
X113665860Y-155248437D01*
X113571563Y-155154140D01*
X113460680Y-155080050D01*
X113337474Y-155029016D01*
X113206679Y-155003000D01*
X113073321Y-155003000D01*
X112942526Y-155029016D01*
X112819320Y-155080050D01*
X112784973Y-155103000D01*
X112728263Y-155103000D01*
X112789950Y-155010680D01*
X112840984Y-154887474D01*
X112867000Y-154756679D01*
X112867000Y-154623321D01*
X112840984Y-154492526D01*
X112789950Y-154369320D01*
X112715860Y-154258437D01*
X112621563Y-154164140D01*
X112510680Y-154090050D01*
X112387474Y-154039016D01*
X112256679Y-154013000D01*
X112123321Y-154013000D01*
X111992526Y-154039016D01*
X111869320Y-154090050D01*
X111834973Y-154113000D01*
X92608339Y-154113000D01*
X92580000Y-154110209D01*
X92466888Y-154121349D01*
X92358123Y-154154343D01*
X92339795Y-154164140D01*
X92257885Y-154207921D01*
X92170026Y-154280026D01*
X92151961Y-154302038D01*
X90600999Y-155853000D01*
X84179001Y-155853000D01*
X82497039Y-154171038D01*
X82478974Y-154149026D01*
X82391115Y-154076921D01*
X82290876Y-154023343D01*
X82218371Y-154001349D01*
X82182111Y-153990349D01*
X82127045Y-153984926D01*
X82097336Y-153982000D01*
X82097331Y-153982000D01*
X82069000Y-153979210D01*
X82040669Y-153982000D01*
X81149562Y-153982000D01*
X81076924Y-153846104D01*
X80917344Y-153651656D01*
X80722896Y-153492076D01*
X80501051Y-153373498D01*
X80260336Y-153300478D01*
X80143798Y-153289000D01*
X80260336Y-153277522D01*
X80501051Y-153204502D01*
X80722896Y-153085924D01*
X80917344Y-152926344D01*
X81076924Y-152731896D01*
X81195502Y-152510051D01*
X81268522Y-152269336D01*
X81268525Y-152269302D01*
X86938000Y-152269302D01*
X86938000Y-152530698D01*
X86988996Y-152787072D01*
X87089028Y-153028570D01*
X87234252Y-153245913D01*
X87419087Y-153430748D01*
X87636430Y-153575972D01*
X87877928Y-153676004D01*
X88134302Y-153727000D01*
X88395698Y-153727000D01*
X88652072Y-153676004D01*
X88893570Y-153575972D01*
X89110913Y-153430748D01*
X89267055Y-153274606D01*
X89266928Y-153300000D01*
X89279188Y-153424482D01*
X89315498Y-153544180D01*
X89374463Y-153654494D01*
X89453815Y-153751185D01*
X89550506Y-153830537D01*
X89660820Y-153889502D01*
X89780518Y-153925812D01*
X89905000Y-153938072D01*
X90519250Y-153935000D01*
X90678000Y-153776250D01*
X90678000Y-152527000D01*
X90932000Y-152527000D01*
X90932000Y-153776250D01*
X91090750Y-153935000D01*
X91705000Y-153938072D01*
X91829482Y-153925812D01*
X91949180Y-153889502D01*
X92059494Y-153830537D01*
X92156185Y-153751185D01*
X92235537Y-153654494D01*
X92294502Y-153544180D01*
X92330812Y-153424482D01*
X92343072Y-153300000D01*
X92340000Y-152685750D01*
X92181250Y-152527000D01*
X90932000Y-152527000D01*
X90678000Y-152527000D01*
X90658000Y-152527000D01*
X90658000Y-152273000D01*
X90678000Y-152273000D01*
X90678000Y-151023750D01*
X90932000Y-151023750D01*
X90932000Y-152273000D01*
X92181250Y-152273000D01*
X92184948Y-152269302D01*
X100273000Y-152269302D01*
X100273000Y-152530698D01*
X100323996Y-152787072D01*
X100424028Y-153028570D01*
X100569252Y-153245913D01*
X100754087Y-153430748D01*
X100971430Y-153575972D01*
X101212928Y-153676004D01*
X101469302Y-153727000D01*
X101730698Y-153727000D01*
X101987072Y-153676004D01*
X102228570Y-153575972D01*
X102445913Y-153430748D01*
X102602055Y-153274606D01*
X102601928Y-153300000D01*
X102614188Y-153424482D01*
X102650498Y-153544180D01*
X102709463Y-153654494D01*
X102788815Y-153751185D01*
X102885506Y-153830537D01*
X102995820Y-153889502D01*
X103115518Y-153925812D01*
X103240000Y-153938072D01*
X103854250Y-153935000D01*
X104013000Y-153776250D01*
X104013000Y-152527000D01*
X104267000Y-152527000D01*
X104267000Y-153776250D01*
X104425750Y-153935000D01*
X105040000Y-153938072D01*
X105164482Y-153925812D01*
X105284180Y-153889502D01*
X105394494Y-153830537D01*
X105491185Y-153751185D01*
X105570537Y-153654494D01*
X105629502Y-153544180D01*
X105665812Y-153424482D01*
X105678072Y-153300000D01*
X105675000Y-152685750D01*
X105516250Y-152527000D01*
X104267000Y-152527000D01*
X104013000Y-152527000D01*
X103993000Y-152527000D01*
X103993000Y-152273000D01*
X104013000Y-152273000D01*
X104013000Y-151023750D01*
X104267000Y-151023750D01*
X104267000Y-152273000D01*
X105516250Y-152273000D01*
X105675000Y-152114250D01*
X105678072Y-151500000D01*
X105665812Y-151375518D01*
X105629502Y-151255820D01*
X105570537Y-151145506D01*
X105491185Y-151048815D01*
X105394494Y-150969463D01*
X105284180Y-150910498D01*
X105164482Y-150874188D01*
X105040000Y-150861928D01*
X104425750Y-150865000D01*
X104267000Y-151023750D01*
X104013000Y-151023750D01*
X103854250Y-150865000D01*
X103240000Y-150861928D01*
X103115518Y-150874188D01*
X102995820Y-150910498D01*
X102885506Y-150969463D01*
X102788815Y-151048815D01*
X102709463Y-151145506D01*
X102650498Y-151255820D01*
X102614188Y-151375518D01*
X102601928Y-151500000D01*
X102602055Y-151525394D01*
X102445913Y-151369252D01*
X102228570Y-151224028D01*
X101987072Y-151123996D01*
X101730698Y-151073000D01*
X101469302Y-151073000D01*
X101212928Y-151123996D01*
X100971430Y-151224028D01*
X100754087Y-151369252D01*
X100569252Y-151554087D01*
X100424028Y-151771430D01*
X100323996Y-152012928D01*
X100273000Y-152269302D01*
X92184948Y-152269302D01*
X92340000Y-152114250D01*
X92343072Y-151500000D01*
X92330812Y-151375518D01*
X92294502Y-151255820D01*
X92235537Y-151145506D01*
X92156185Y-151048815D01*
X92059494Y-150969463D01*
X91949180Y-150910498D01*
X91829482Y-150874188D01*
X91705000Y-150861928D01*
X91090750Y-150865000D01*
X90932000Y-151023750D01*
X90678000Y-151023750D01*
X90519250Y-150865000D01*
X89905000Y-150861928D01*
X89780518Y-150874188D01*
X89660820Y-150910498D01*
X89550506Y-150969463D01*
X89453815Y-151048815D01*
X89374463Y-151145506D01*
X89315498Y-151255820D01*
X89279188Y-151375518D01*
X89266928Y-151500000D01*
X89267055Y-151525394D01*
X89110913Y-151369252D01*
X88893570Y-151224028D01*
X88652072Y-151123996D01*
X88395698Y-151073000D01*
X88134302Y-151073000D01*
X87877928Y-151123996D01*
X87636430Y-151224028D01*
X87419087Y-151369252D01*
X87234252Y-151554087D01*
X87089028Y-151771430D01*
X86988996Y-152012928D01*
X86938000Y-152269302D01*
X81268525Y-152269302D01*
X81293178Y-152019000D01*
X81268522Y-151768664D01*
X81195502Y-151527949D01*
X81076924Y-151306104D01*
X80917344Y-151111656D01*
X80722896Y-150952076D01*
X80501051Y-150833498D01*
X80260336Y-150760478D01*
X80143798Y-150749000D01*
X80260336Y-150737522D01*
X80501051Y-150664502D01*
X80722896Y-150545924D01*
X80917344Y-150386344D01*
X81076924Y-150191896D01*
X81195502Y-149970051D01*
X81268522Y-149729336D01*
X81293178Y-149479000D01*
X81268522Y-149228664D01*
X81195502Y-148987949D01*
X81076924Y-148766104D01*
X80917344Y-148571656D01*
X80722896Y-148412076D01*
X80501051Y-148293498D01*
X80260336Y-148220478D01*
X80235847Y-148218066D01*
X80860000Y-148218066D01*
X80943707Y-148209822D01*
X81024196Y-148185405D01*
X81098376Y-148145755D01*
X81163395Y-148092395D01*
X81216755Y-148027376D01*
X81256405Y-147953196D01*
X81280822Y-147872707D01*
X81289066Y-147789000D01*
X81289066Y-146089000D01*
X81280822Y-146005293D01*
X81256405Y-145924804D01*
X81253465Y-145919302D01*
X86938000Y-145919302D01*
X86938000Y-146180698D01*
X86988996Y-146437072D01*
X87089028Y-146678570D01*
X87234252Y-146895913D01*
X87419087Y-147080748D01*
X87636430Y-147225972D01*
X87877928Y-147326004D01*
X88134302Y-147377000D01*
X88395698Y-147377000D01*
X88652072Y-147326004D01*
X88893570Y-147225972D01*
X89110913Y-147080748D01*
X89267055Y-146924606D01*
X89266928Y-146950000D01*
X89279188Y-147074482D01*
X89315498Y-147194180D01*
X89374463Y-147304494D01*
X89453815Y-147401185D01*
X89550506Y-147480537D01*
X89660820Y-147539502D01*
X89780518Y-147575812D01*
X89905000Y-147588072D01*
X90519250Y-147585000D01*
X90678000Y-147426250D01*
X90678000Y-146177000D01*
X90932000Y-146177000D01*
X90932000Y-147426250D01*
X91090750Y-147585000D01*
X91705000Y-147588072D01*
X91829482Y-147575812D01*
X91949180Y-147539502D01*
X92059494Y-147480537D01*
X92156185Y-147401185D01*
X92235537Y-147304494D01*
X92294502Y-147194180D01*
X92330812Y-147074482D01*
X92343072Y-146950000D01*
X92341094Y-146554302D01*
X100273000Y-146554302D01*
X100273000Y-146815698D01*
X100323996Y-147072072D01*
X100424028Y-147313570D01*
X100569252Y-147530913D01*
X100754087Y-147715748D01*
X100971430Y-147860972D01*
X101212928Y-147961004D01*
X101469302Y-148012000D01*
X101730698Y-148012000D01*
X101987072Y-147961004D01*
X102228570Y-147860972D01*
X102445913Y-147715748D01*
X102602055Y-147559606D01*
X102601928Y-147585000D01*
X102614188Y-147709482D01*
X102650498Y-147829180D01*
X102709463Y-147939494D01*
X102788815Y-148036185D01*
X102885506Y-148115537D01*
X102995820Y-148174502D01*
X103115518Y-148210812D01*
X103240000Y-148223072D01*
X103854250Y-148220000D01*
X104013000Y-148061250D01*
X104013000Y-146812000D01*
X104267000Y-146812000D01*
X104267000Y-148061250D01*
X104425750Y-148220000D01*
X105040000Y-148223072D01*
X105164482Y-148210812D01*
X105284180Y-148174502D01*
X105394494Y-148115537D01*
X105491185Y-148036185D01*
X105570537Y-147939494D01*
X105629502Y-147829180D01*
X105665812Y-147709482D01*
X105678072Y-147585000D01*
X105675000Y-146970750D01*
X105516250Y-146812000D01*
X104267000Y-146812000D01*
X104013000Y-146812000D01*
X103993000Y-146812000D01*
X103993000Y-146558000D01*
X104013000Y-146558000D01*
X104013000Y-145308750D01*
X104267000Y-145308750D01*
X104267000Y-146558000D01*
X105516250Y-146558000D01*
X105675000Y-146399250D01*
X105678072Y-145785000D01*
X105665812Y-145660518D01*
X105629502Y-145540820D01*
X105570537Y-145430506D01*
X105491185Y-145333815D01*
X105394494Y-145254463D01*
X105284180Y-145195498D01*
X105164482Y-145159188D01*
X105040000Y-145146928D01*
X104425750Y-145150000D01*
X104267000Y-145308750D01*
X104013000Y-145308750D01*
X103854250Y-145150000D01*
X103240000Y-145146928D01*
X103115518Y-145159188D01*
X102995820Y-145195498D01*
X102885506Y-145254463D01*
X102788815Y-145333815D01*
X102709463Y-145430506D01*
X102650498Y-145540820D01*
X102614188Y-145660518D01*
X102601928Y-145785000D01*
X102602055Y-145810394D01*
X102445913Y-145654252D01*
X102228570Y-145509028D01*
X101987072Y-145408996D01*
X101730698Y-145358000D01*
X101469302Y-145358000D01*
X101212928Y-145408996D01*
X100971430Y-145509028D01*
X100754087Y-145654252D01*
X100569252Y-145839087D01*
X100424028Y-146056430D01*
X100323996Y-146297928D01*
X100273000Y-146554302D01*
X92341094Y-146554302D01*
X92340000Y-146335750D01*
X92181250Y-146177000D01*
X90932000Y-146177000D01*
X90678000Y-146177000D01*
X90658000Y-146177000D01*
X90658000Y-145923000D01*
X90678000Y-145923000D01*
X90678000Y-144673750D01*
X90932000Y-144673750D01*
X90932000Y-145923000D01*
X92181250Y-145923000D01*
X92340000Y-145764250D01*
X92343072Y-145150000D01*
X92330812Y-145025518D01*
X92294502Y-144905820D01*
X92235537Y-144795506D01*
X92156185Y-144698815D01*
X92059494Y-144619463D01*
X91949180Y-144560498D01*
X91829482Y-144524188D01*
X91705000Y-144511928D01*
X91090750Y-144515000D01*
X90932000Y-144673750D01*
X90678000Y-144673750D01*
X90519250Y-144515000D01*
X89905000Y-144511928D01*
X89780518Y-144524188D01*
X89660820Y-144560498D01*
X89550506Y-144619463D01*
X89453815Y-144698815D01*
X89374463Y-144795506D01*
X89315498Y-144905820D01*
X89279188Y-145025518D01*
X89266928Y-145150000D01*
X89267055Y-145175394D01*
X89110913Y-145019252D01*
X88893570Y-144874028D01*
X88652072Y-144773996D01*
X88395698Y-144723000D01*
X88134302Y-144723000D01*
X87877928Y-144773996D01*
X87636430Y-144874028D01*
X87419087Y-145019252D01*
X87234252Y-145204087D01*
X87089028Y-145421430D01*
X86988996Y-145662928D01*
X86938000Y-145919302D01*
X81253465Y-145919302D01*
X81216755Y-145850624D01*
X81163395Y-145785605D01*
X81098376Y-145732245D01*
X81024196Y-145692595D01*
X80943707Y-145668178D01*
X80860000Y-145659934D01*
X79160000Y-145659934D01*
X79076293Y-145668178D01*
X78995804Y-145692595D01*
X78921624Y-145732245D01*
X78856605Y-145785605D01*
X78803245Y-145850624D01*
X78763595Y-145924804D01*
X78739178Y-146005293D01*
X78730934Y-146089000D01*
X78730934Y-146713153D01*
X78728522Y-146688664D01*
X78655502Y-146447949D01*
X78536924Y-146226104D01*
X78377344Y-146031656D01*
X78182896Y-145872076D01*
X77961051Y-145753498D01*
X77720336Y-145680478D01*
X77532726Y-145662000D01*
X77407274Y-145662000D01*
X77219664Y-145680478D01*
X76978949Y-145753498D01*
X76757104Y-145872076D01*
X76562656Y-146031656D01*
X76403076Y-146226104D01*
X76284498Y-146447949D01*
X76211478Y-146688664D01*
X76186822Y-146939000D01*
X76211478Y-147189336D01*
X76284498Y-147430051D01*
X76403076Y-147651896D01*
X76562656Y-147846344D01*
X76757104Y-148005924D01*
X76978949Y-148124502D01*
X77219664Y-148197522D01*
X77336202Y-148209000D01*
X77219664Y-148220478D01*
X76978949Y-148293498D01*
X76757104Y-148412076D01*
X76562656Y-148571656D01*
X76403076Y-148766104D01*
X76284498Y-148987949D01*
X76211478Y-149228664D01*
X76186822Y-149479000D01*
X76211478Y-149729336D01*
X76284498Y-149970051D01*
X76403076Y-150191896D01*
X76562656Y-150386344D01*
X76757104Y-150545924D01*
X76978949Y-150664502D01*
X77219664Y-150737522D01*
X77336202Y-150749000D01*
X77219664Y-150760478D01*
X76978949Y-150833498D01*
X76757104Y-150952076D01*
X76562656Y-151111656D01*
X76403076Y-151306104D01*
X76284498Y-151527949D01*
X76211478Y-151768664D01*
X76186822Y-152019000D01*
X76211478Y-152269336D01*
X76284498Y-152510051D01*
X76403076Y-152731896D01*
X76562656Y-152926344D01*
X76757104Y-153085924D01*
X76978949Y-153204502D01*
X77219664Y-153277522D01*
X77336202Y-153289000D01*
X77219664Y-153300478D01*
X76978949Y-153373498D01*
X76757104Y-153492076D01*
X76562656Y-153651656D01*
X76403076Y-153846104D01*
X76284498Y-154067949D01*
X76211478Y-154308664D01*
X76186822Y-154559000D01*
X76211478Y-154809336D01*
X76258768Y-154965231D01*
X75819000Y-155404999D01*
X75819000Y-142795413D01*
X84134192Y-142795413D01*
X84229956Y-143059814D01*
X84519571Y-143200704D01*
X84831108Y-143282384D01*
X85152595Y-143301718D01*
X85471675Y-143257961D01*
X85776088Y-143152795D01*
X85950044Y-143059814D01*
X86045808Y-142795413D01*
X90634192Y-142795413D01*
X90729956Y-143059814D01*
X91019571Y-143200704D01*
X91331108Y-143282384D01*
X91652595Y-143301718D01*
X91971675Y-143257961D01*
X92276088Y-143152795D01*
X92450044Y-143059814D01*
X92545808Y-142795413D01*
X94929192Y-142795413D01*
X95024956Y-143059814D01*
X95314571Y-143200704D01*
X95626108Y-143282384D01*
X95947595Y-143301718D01*
X96266675Y-143257961D01*
X96571088Y-143152795D01*
X96745044Y-143059814D01*
X96840808Y-142795413D01*
X101429192Y-142795413D01*
X101524956Y-143059814D01*
X101814571Y-143200704D01*
X102126108Y-143282384D01*
X102447595Y-143301718D01*
X102766675Y-143257961D01*
X103071088Y-143152795D01*
X103245044Y-143059814D01*
X103340808Y-142795413D01*
X105724192Y-142795413D01*
X105819956Y-143059814D01*
X106109571Y-143200704D01*
X106421108Y-143282384D01*
X106742595Y-143301718D01*
X107061675Y-143257961D01*
X107366088Y-143152795D01*
X107540044Y-143059814D01*
X107635808Y-142795413D01*
X112224192Y-142795413D01*
X112319956Y-143059814D01*
X112609571Y-143200704D01*
X112921108Y-143282384D01*
X113242595Y-143301718D01*
X113561675Y-143257961D01*
X113866088Y-143152795D01*
X114040044Y-143059814D01*
X114135808Y-142795413D01*
X116519192Y-142795413D01*
X116614956Y-143059814D01*
X116904571Y-143200704D01*
X117216108Y-143282384D01*
X117537595Y-143301718D01*
X117856675Y-143257961D01*
X118161088Y-143152795D01*
X118335044Y-143059814D01*
X118430808Y-142795413D01*
X123019192Y-142795413D01*
X123114956Y-143059814D01*
X123404571Y-143200704D01*
X123716108Y-143282384D01*
X124037595Y-143301718D01*
X124356675Y-143257961D01*
X124661088Y-143152795D01*
X124835044Y-143059814D01*
X124930808Y-142795413D01*
X127314192Y-142795413D01*
X127409956Y-143059814D01*
X127699571Y-143200704D01*
X128011108Y-143282384D01*
X128332595Y-143301718D01*
X128651675Y-143257961D01*
X128956088Y-143152795D01*
X129130044Y-143059814D01*
X129225808Y-142795413D01*
X133814192Y-142795413D01*
X133909956Y-143059814D01*
X134199571Y-143200704D01*
X134511108Y-143282384D01*
X134832595Y-143301718D01*
X135151675Y-143257961D01*
X135456088Y-143152795D01*
X135630044Y-143059814D01*
X135725808Y-142795413D01*
X134770000Y-141839605D01*
X133814192Y-142795413D01*
X129225808Y-142795413D01*
X128270000Y-141839605D01*
X127314192Y-142795413D01*
X124930808Y-142795413D01*
X123975000Y-141839605D01*
X123019192Y-142795413D01*
X118430808Y-142795413D01*
X117475000Y-141839605D01*
X116519192Y-142795413D01*
X114135808Y-142795413D01*
X113180000Y-141839605D01*
X112224192Y-142795413D01*
X107635808Y-142795413D01*
X106680000Y-141839605D01*
X105724192Y-142795413D01*
X103340808Y-142795413D01*
X102385000Y-141839605D01*
X101429192Y-142795413D01*
X96840808Y-142795413D01*
X95885000Y-141839605D01*
X94929192Y-142795413D01*
X92545808Y-142795413D01*
X91590000Y-141839605D01*
X90634192Y-142795413D01*
X86045808Y-142795413D01*
X85090000Y-141839605D01*
X84134192Y-142795413D01*
X75819000Y-142795413D01*
X75819000Y-141722595D01*
X83448282Y-141722595D01*
X83492039Y-142041675D01*
X83597205Y-142346088D01*
X83690186Y-142520044D01*
X83954587Y-142615808D01*
X84910395Y-141660000D01*
X85269605Y-141660000D01*
X86225413Y-142615808D01*
X86489814Y-142520044D01*
X86630704Y-142230429D01*
X86712384Y-141918892D01*
X86724189Y-141722595D01*
X89948282Y-141722595D01*
X89992039Y-142041675D01*
X90097205Y-142346088D01*
X90190186Y-142520044D01*
X90454587Y-142615808D01*
X91410395Y-141660000D01*
X91769605Y-141660000D01*
X92725413Y-142615808D01*
X92989814Y-142520044D01*
X93130704Y-142230429D01*
X93212384Y-141918892D01*
X93224189Y-141722595D01*
X94243282Y-141722595D01*
X94287039Y-142041675D01*
X94392205Y-142346088D01*
X94485186Y-142520044D01*
X94749587Y-142615808D01*
X95705395Y-141660000D01*
X96064605Y-141660000D01*
X97020413Y-142615808D01*
X97284814Y-142520044D01*
X97425704Y-142230429D01*
X97507384Y-141918892D01*
X97519189Y-141722595D01*
X100743282Y-141722595D01*
X100787039Y-142041675D01*
X100892205Y-142346088D01*
X100985186Y-142520044D01*
X101249587Y-142615808D01*
X102205395Y-141660000D01*
X102564605Y-141660000D01*
X103520413Y-142615808D01*
X103784814Y-142520044D01*
X103925704Y-142230429D01*
X104007384Y-141918892D01*
X104019189Y-141722595D01*
X105038282Y-141722595D01*
X105082039Y-142041675D01*
X105187205Y-142346088D01*
X105280186Y-142520044D01*
X105544587Y-142615808D01*
X106500395Y-141660000D01*
X106859605Y-141660000D01*
X107815413Y-142615808D01*
X108079814Y-142520044D01*
X108220704Y-142230429D01*
X108302384Y-141918892D01*
X108314189Y-141722595D01*
X111538282Y-141722595D01*
X111582039Y-142041675D01*
X111687205Y-142346088D01*
X111780186Y-142520044D01*
X112044587Y-142615808D01*
X113000395Y-141660000D01*
X113359605Y-141660000D01*
X114315413Y-142615808D01*
X114579814Y-142520044D01*
X114720704Y-142230429D01*
X114802384Y-141918892D01*
X114814189Y-141722595D01*
X115833282Y-141722595D01*
X115877039Y-142041675D01*
X115982205Y-142346088D01*
X116075186Y-142520044D01*
X116339587Y-142615808D01*
X117295395Y-141660000D01*
X117654605Y-141660000D01*
X118610413Y-142615808D01*
X118874814Y-142520044D01*
X119015704Y-142230429D01*
X119097384Y-141918892D01*
X119109189Y-141722595D01*
X122333282Y-141722595D01*
X122377039Y-142041675D01*
X122482205Y-142346088D01*
X122575186Y-142520044D01*
X122839587Y-142615808D01*
X123795395Y-141660000D01*
X124154605Y-141660000D01*
X125110413Y-142615808D01*
X125374814Y-142520044D01*
X125515704Y-142230429D01*
X125597384Y-141918892D01*
X125609189Y-141722595D01*
X126628282Y-141722595D01*
X126672039Y-142041675D01*
X126777205Y-142346088D01*
X126870186Y-142520044D01*
X127134587Y-142615808D01*
X128090395Y-141660000D01*
X128449605Y-141660000D01*
X129405413Y-142615808D01*
X129669814Y-142520044D01*
X129810704Y-142230429D01*
X129892384Y-141918892D01*
X129904189Y-141722595D01*
X133128282Y-141722595D01*
X133172039Y-142041675D01*
X133277205Y-142346088D01*
X133370186Y-142520044D01*
X133634587Y-142615808D01*
X134590395Y-141660000D01*
X134949605Y-141660000D01*
X135905413Y-142615808D01*
X136169814Y-142520044D01*
X136310704Y-142230429D01*
X136392384Y-141918892D01*
X136411718Y-141597405D01*
X136367961Y-141278325D01*
X136262795Y-140973912D01*
X136169814Y-140799956D01*
X135905413Y-140704192D01*
X134949605Y-141660000D01*
X134590395Y-141660000D01*
X133634587Y-140704192D01*
X133370186Y-140799956D01*
X133229296Y-141089571D01*
X133147616Y-141401108D01*
X133128282Y-141722595D01*
X129904189Y-141722595D01*
X129911718Y-141597405D01*
X129867961Y-141278325D01*
X129762795Y-140973912D01*
X129669814Y-140799956D01*
X129405413Y-140704192D01*
X128449605Y-141660000D01*
X128090395Y-141660000D01*
X127134587Y-140704192D01*
X126870186Y-140799956D01*
X126729296Y-141089571D01*
X126647616Y-141401108D01*
X126628282Y-141722595D01*
X125609189Y-141722595D01*
X125616718Y-141597405D01*
X125572961Y-141278325D01*
X125467795Y-140973912D01*
X125374814Y-140799956D01*
X125110413Y-140704192D01*
X124154605Y-141660000D01*
X123795395Y-141660000D01*
X122839587Y-140704192D01*
X122575186Y-140799956D01*
X122434296Y-141089571D01*
X122352616Y-141401108D01*
X122333282Y-141722595D01*
X119109189Y-141722595D01*
X119116718Y-141597405D01*
X119072961Y-141278325D01*
X118967795Y-140973912D01*
X118874814Y-140799956D01*
X118610413Y-140704192D01*
X117654605Y-141660000D01*
X117295395Y-141660000D01*
X116339587Y-140704192D01*
X116075186Y-140799956D01*
X115934296Y-141089571D01*
X115852616Y-141401108D01*
X115833282Y-141722595D01*
X114814189Y-141722595D01*
X114821718Y-141597405D01*
X114777961Y-141278325D01*
X114672795Y-140973912D01*
X114579814Y-140799956D01*
X114315413Y-140704192D01*
X113359605Y-141660000D01*
X113000395Y-141660000D01*
X112044587Y-140704192D01*
X111780186Y-140799956D01*
X111639296Y-141089571D01*
X111557616Y-141401108D01*
X111538282Y-141722595D01*
X108314189Y-141722595D01*
X108321718Y-141597405D01*
X108277961Y-141278325D01*
X108172795Y-140973912D01*
X108079814Y-140799956D01*
X107815413Y-140704192D01*
X106859605Y-141660000D01*
X106500395Y-141660000D01*
X105544587Y-140704192D01*
X105280186Y-140799956D01*
X105139296Y-141089571D01*
X105057616Y-141401108D01*
X105038282Y-141722595D01*
X104019189Y-141722595D01*
X104026718Y-141597405D01*
X103982961Y-141278325D01*
X103877795Y-140973912D01*
X103784814Y-140799956D01*
X103520413Y-140704192D01*
X102564605Y-141660000D01*
X102205395Y-141660000D01*
X101249587Y-140704192D01*
X100985186Y-140799956D01*
X100844296Y-141089571D01*
X100762616Y-141401108D01*
X100743282Y-141722595D01*
X97519189Y-141722595D01*
X97526718Y-141597405D01*
X97482961Y-141278325D01*
X97377795Y-140973912D01*
X97284814Y-140799956D01*
X97020413Y-140704192D01*
X96064605Y-141660000D01*
X95705395Y-141660000D01*
X94749587Y-140704192D01*
X94485186Y-140799956D01*
X94344296Y-141089571D01*
X94262616Y-141401108D01*
X94243282Y-141722595D01*
X93224189Y-141722595D01*
X93231718Y-141597405D01*
X93187961Y-141278325D01*
X93082795Y-140973912D01*
X92989814Y-140799956D01*
X92725413Y-140704192D01*
X91769605Y-141660000D01*
X91410395Y-141660000D01*
X90454587Y-140704192D01*
X90190186Y-140799956D01*
X90049296Y-141089571D01*
X89967616Y-141401108D01*
X89948282Y-141722595D01*
X86724189Y-141722595D01*
X86731718Y-141597405D01*
X86687961Y-141278325D01*
X86582795Y-140973912D01*
X86489814Y-140799956D01*
X86225413Y-140704192D01*
X85269605Y-141660000D01*
X84910395Y-141660000D01*
X83954587Y-140704192D01*
X83690186Y-140799956D01*
X83549296Y-141089571D01*
X83467616Y-141401108D01*
X83448282Y-141722595D01*
X75819000Y-141722595D01*
X75819000Y-140524587D01*
X84134192Y-140524587D01*
X85090000Y-141480395D01*
X86045808Y-140524587D01*
X90634192Y-140524587D01*
X91590000Y-141480395D01*
X92545808Y-140524587D01*
X94929192Y-140524587D01*
X95885000Y-141480395D01*
X96840808Y-140524587D01*
X101429192Y-140524587D01*
X102385000Y-141480395D01*
X103340808Y-140524587D01*
X105724192Y-140524587D01*
X106680000Y-141480395D01*
X107635808Y-140524587D01*
X112224192Y-140524587D01*
X113180000Y-141480395D01*
X114135808Y-140524587D01*
X116519192Y-140524587D01*
X117475000Y-141480395D01*
X118430808Y-140524587D01*
X123019192Y-140524587D01*
X123975000Y-141480395D01*
X124930808Y-140524587D01*
X127314192Y-140524587D01*
X128270000Y-141480395D01*
X129225808Y-140524587D01*
X133814192Y-140524587D01*
X134770000Y-141480395D01*
X135725808Y-140524587D01*
X135630044Y-140260186D01*
X135340429Y-140119296D01*
X135028892Y-140037616D01*
X134707405Y-140018282D01*
X134388325Y-140062039D01*
X134083912Y-140167205D01*
X133909956Y-140260186D01*
X133814192Y-140524587D01*
X129225808Y-140524587D01*
X129130044Y-140260186D01*
X128840429Y-140119296D01*
X128528892Y-140037616D01*
X128207405Y-140018282D01*
X127888325Y-140062039D01*
X127583912Y-140167205D01*
X127409956Y-140260186D01*
X127314192Y-140524587D01*
X124930808Y-140524587D01*
X124835044Y-140260186D01*
X124545429Y-140119296D01*
X124233892Y-140037616D01*
X123912405Y-140018282D01*
X123593325Y-140062039D01*
X123288912Y-140167205D01*
X123114956Y-140260186D01*
X123019192Y-140524587D01*
X118430808Y-140524587D01*
X118335044Y-140260186D01*
X118045429Y-140119296D01*
X117733892Y-140037616D01*
X117412405Y-140018282D01*
X117093325Y-140062039D01*
X116788912Y-140167205D01*
X116614956Y-140260186D01*
X116519192Y-140524587D01*
X114135808Y-140524587D01*
X114040044Y-140260186D01*
X113750429Y-140119296D01*
X113438892Y-140037616D01*
X113117405Y-140018282D01*
X112798325Y-140062039D01*
X112493912Y-140167205D01*
X112319956Y-140260186D01*
X112224192Y-140524587D01*
X107635808Y-140524587D01*
X107540044Y-140260186D01*
X107250429Y-140119296D01*
X106938892Y-140037616D01*
X106617405Y-140018282D01*
X106298325Y-140062039D01*
X105993912Y-140167205D01*
X105819956Y-140260186D01*
X105724192Y-140524587D01*
X103340808Y-140524587D01*
X103245044Y-140260186D01*
X102955429Y-140119296D01*
X102643892Y-140037616D01*
X102322405Y-140018282D01*
X102003325Y-140062039D01*
X101698912Y-140167205D01*
X101524956Y-140260186D01*
X101429192Y-140524587D01*
X96840808Y-140524587D01*
X96745044Y-140260186D01*
X96455429Y-140119296D01*
X96143892Y-140037616D01*
X95822405Y-140018282D01*
X95503325Y-140062039D01*
X95198912Y-140167205D01*
X95024956Y-140260186D01*
X94929192Y-140524587D01*
X92545808Y-140524587D01*
X92450044Y-140260186D01*
X92160429Y-140119296D01*
X91848892Y-140037616D01*
X91527405Y-140018282D01*
X91208325Y-140062039D01*
X90903912Y-140167205D01*
X90729956Y-140260186D01*
X90634192Y-140524587D01*
X86045808Y-140524587D01*
X85950044Y-140260186D01*
X85660429Y-140119296D01*
X85348892Y-140037616D01*
X85027405Y-140018282D01*
X84708325Y-140062039D01*
X84403912Y-140167205D01*
X84229956Y-140260186D01*
X84134192Y-140524587D01*
X75819000Y-140524587D01*
X75819000Y-137019453D01*
X83663000Y-137019453D01*
X83663000Y-137300547D01*
X83717838Y-137576241D01*
X83825409Y-137835938D01*
X83981576Y-138069660D01*
X84180340Y-138268424D01*
X84414062Y-138424591D01*
X84673759Y-138532162D01*
X84949453Y-138587000D01*
X85230547Y-138587000D01*
X85506241Y-138532162D01*
X85765938Y-138424591D01*
X85999660Y-138268424D01*
X86198424Y-138069660D01*
X86354591Y-137835938D01*
X86462162Y-137576241D01*
X86517000Y-137300547D01*
X86517000Y-137019453D01*
X90163000Y-137019453D01*
X90163000Y-137300547D01*
X90217838Y-137576241D01*
X90325409Y-137835938D01*
X90481576Y-138069660D01*
X90680340Y-138268424D01*
X90914062Y-138424591D01*
X91173759Y-138532162D01*
X91449453Y-138587000D01*
X91730547Y-138587000D01*
X92006241Y-138532162D01*
X92265938Y-138424591D01*
X92499660Y-138268424D01*
X92698424Y-138069660D01*
X92854591Y-137835938D01*
X92962162Y-137576241D01*
X93017000Y-137300547D01*
X93017000Y-137019453D01*
X94458000Y-137019453D01*
X94458000Y-137300547D01*
X94512838Y-137576241D01*
X94620409Y-137835938D01*
X94776576Y-138069660D01*
X94975340Y-138268424D01*
X95209062Y-138424591D01*
X95468759Y-138532162D01*
X95744453Y-138587000D01*
X96025547Y-138587000D01*
X96301241Y-138532162D01*
X96560938Y-138424591D01*
X96794660Y-138268424D01*
X96993424Y-138069660D01*
X97149591Y-137835938D01*
X97257162Y-137576241D01*
X97312000Y-137300547D01*
X97312000Y-137019453D01*
X100958000Y-137019453D01*
X100958000Y-137300547D01*
X101012838Y-137576241D01*
X101120409Y-137835938D01*
X101276576Y-138069660D01*
X101475340Y-138268424D01*
X101709062Y-138424591D01*
X101968759Y-138532162D01*
X102244453Y-138587000D01*
X102525547Y-138587000D01*
X102801241Y-138532162D01*
X103060938Y-138424591D01*
X103294660Y-138268424D01*
X103493424Y-138069660D01*
X103649591Y-137835938D01*
X103757162Y-137576241D01*
X103812000Y-137300547D01*
X103812000Y-137019453D01*
X105253000Y-137019453D01*
X105253000Y-137300547D01*
X105307838Y-137576241D01*
X105415409Y-137835938D01*
X105571576Y-138069660D01*
X105770340Y-138268424D01*
X106004062Y-138424591D01*
X106263759Y-138532162D01*
X106539453Y-138587000D01*
X106820547Y-138587000D01*
X107096241Y-138532162D01*
X107355938Y-138424591D01*
X107589660Y-138268424D01*
X107788424Y-138069660D01*
X107944591Y-137835938D01*
X108052162Y-137576241D01*
X108107000Y-137300547D01*
X108107000Y-137019453D01*
X111753000Y-137019453D01*
X111753000Y-137300547D01*
X111807838Y-137576241D01*
X111915409Y-137835938D01*
X112071576Y-138069660D01*
X112270340Y-138268424D01*
X112504062Y-138424591D01*
X112763759Y-138532162D01*
X113039453Y-138587000D01*
X113320547Y-138587000D01*
X113596241Y-138532162D01*
X113855938Y-138424591D01*
X114089660Y-138268424D01*
X114288424Y-138069660D01*
X114444591Y-137835938D01*
X114552162Y-137576241D01*
X114607000Y-137300547D01*
X114607000Y-137019453D01*
X116048000Y-137019453D01*
X116048000Y-137300547D01*
X116102838Y-137576241D01*
X116210409Y-137835938D01*
X116366576Y-138069660D01*
X116565340Y-138268424D01*
X116799062Y-138424591D01*
X117058759Y-138532162D01*
X117334453Y-138587000D01*
X117615547Y-138587000D01*
X117891241Y-138532162D01*
X118150938Y-138424591D01*
X118384660Y-138268424D01*
X118583424Y-138069660D01*
X118739591Y-137835938D01*
X118847162Y-137576241D01*
X118902000Y-137300547D01*
X118902000Y-137019453D01*
X122548000Y-137019453D01*
X122548000Y-137300547D01*
X122602838Y-137576241D01*
X122710409Y-137835938D01*
X122866576Y-138069660D01*
X123065340Y-138268424D01*
X123299062Y-138424591D01*
X123558759Y-138532162D01*
X123834453Y-138587000D01*
X124115547Y-138587000D01*
X124391241Y-138532162D01*
X124650938Y-138424591D01*
X124884660Y-138268424D01*
X125083424Y-138069660D01*
X125239591Y-137835938D01*
X125347162Y-137576241D01*
X125402000Y-137300547D01*
X125402000Y-137019453D01*
X126843000Y-137019453D01*
X126843000Y-137300547D01*
X126897838Y-137576241D01*
X127005409Y-137835938D01*
X127161576Y-138069660D01*
X127360340Y-138268424D01*
X127594062Y-138424591D01*
X127853759Y-138532162D01*
X128129453Y-138587000D01*
X128410547Y-138587000D01*
X128686241Y-138532162D01*
X128945938Y-138424591D01*
X129179660Y-138268424D01*
X129378424Y-138069660D01*
X129534591Y-137835938D01*
X129642162Y-137576241D01*
X129697000Y-137300547D01*
X129697000Y-137019453D01*
X133343000Y-137019453D01*
X133343000Y-137300547D01*
X133397838Y-137576241D01*
X133505409Y-137835938D01*
X133661576Y-138069660D01*
X133860340Y-138268424D01*
X134094062Y-138424591D01*
X134353759Y-138532162D01*
X134629453Y-138587000D01*
X134910547Y-138587000D01*
X135186241Y-138532162D01*
X135445938Y-138424591D01*
X135679660Y-138268424D01*
X135878424Y-138069660D01*
X136034591Y-137835938D01*
X136142162Y-137576241D01*
X136197000Y-137300547D01*
X136197000Y-137019453D01*
X136142162Y-136743759D01*
X136034591Y-136484062D01*
X135878424Y-136250340D01*
X135679660Y-136051576D01*
X135445938Y-135895409D01*
X135186241Y-135787838D01*
X134910547Y-135733000D01*
X134629453Y-135733000D01*
X134353759Y-135787838D01*
X134094062Y-135895409D01*
X133860340Y-136051576D01*
X133661576Y-136250340D01*
X133505409Y-136484062D01*
X133397838Y-136743759D01*
X133343000Y-137019453D01*
X129697000Y-137019453D01*
X129642162Y-136743759D01*
X129534591Y-136484062D01*
X129378424Y-136250340D01*
X129179660Y-136051576D01*
X128945938Y-135895409D01*
X128686241Y-135787838D01*
X128410547Y-135733000D01*
X128129453Y-135733000D01*
X127853759Y-135787838D01*
X127594062Y-135895409D01*
X127360340Y-136051576D01*
X127161576Y-136250340D01*
X127005409Y-136484062D01*
X126897838Y-136743759D01*
X126843000Y-137019453D01*
X125402000Y-137019453D01*
X125347162Y-136743759D01*
X125239591Y-136484062D01*
X125083424Y-136250340D01*
X124884660Y-136051576D01*
X124650938Y-135895409D01*
X124391241Y-135787838D01*
X124115547Y-135733000D01*
X123834453Y-135733000D01*
X123558759Y-135787838D01*
X123299062Y-135895409D01*
X123065340Y-136051576D01*
X122866576Y-136250340D01*
X122710409Y-136484062D01*
X122602838Y-136743759D01*
X122548000Y-137019453D01*
X118902000Y-137019453D01*
X118847162Y-136743759D01*
X118739591Y-136484062D01*
X118583424Y-136250340D01*
X118384660Y-136051576D01*
X118150938Y-135895409D01*
X117891241Y-135787838D01*
X117615547Y-135733000D01*
X117334453Y-135733000D01*
X117058759Y-135787838D01*
X116799062Y-135895409D01*
X116565340Y-136051576D01*
X116366576Y-136250340D01*
X116210409Y-136484062D01*
X116102838Y-136743759D01*
X116048000Y-137019453D01*
X114607000Y-137019453D01*
X114552162Y-136743759D01*
X114444591Y-136484062D01*
X114288424Y-136250340D01*
X114089660Y-136051576D01*
X113855938Y-135895409D01*
X113596241Y-135787838D01*
X113320547Y-135733000D01*
X113039453Y-135733000D01*
X112763759Y-135787838D01*
X112504062Y-135895409D01*
X112270340Y-136051576D01*
X112071576Y-136250340D01*
X111915409Y-136484062D01*
X111807838Y-136743759D01*
X111753000Y-137019453D01*
X108107000Y-137019453D01*
X108052162Y-136743759D01*
X107944591Y-136484062D01*
X107788424Y-136250340D01*
X107589660Y-136051576D01*
X107355938Y-135895409D01*
X107096241Y-135787838D01*
X106820547Y-135733000D01*
X106539453Y-135733000D01*
X106263759Y-135787838D01*
X106004062Y-135895409D01*
X105770340Y-136051576D01*
X105571576Y-136250340D01*
X105415409Y-136484062D01*
X105307838Y-136743759D01*
X105253000Y-137019453D01*
X103812000Y-137019453D01*
X103757162Y-136743759D01*
X103649591Y-136484062D01*
X103493424Y-136250340D01*
X103294660Y-136051576D01*
X103060938Y-135895409D01*
X102801241Y-135787838D01*
X102525547Y-135733000D01*
X102244453Y-135733000D01*
X101968759Y-135787838D01*
X101709062Y-135895409D01*
X101475340Y-136051576D01*
X101276576Y-136250340D01*
X101120409Y-136484062D01*
X101012838Y-136743759D01*
X100958000Y-137019453D01*
X97312000Y-137019453D01*
X97257162Y-136743759D01*
X97149591Y-136484062D01*
X96993424Y-136250340D01*
X96794660Y-136051576D01*
X96560938Y-135895409D01*
X96301241Y-135787838D01*
X96025547Y-135733000D01*
X95744453Y-135733000D01*
X95468759Y-135787838D01*
X95209062Y-135895409D01*
X94975340Y-136051576D01*
X94776576Y-136250340D01*
X94620409Y-136484062D01*
X94512838Y-136743759D01*
X94458000Y-137019453D01*
X93017000Y-137019453D01*
X92962162Y-136743759D01*
X92854591Y-136484062D01*
X92698424Y-136250340D01*
X92499660Y-136051576D01*
X92265938Y-135895409D01*
X92006241Y-135787838D01*
X91730547Y-135733000D01*
X91449453Y-135733000D01*
X91173759Y-135787838D01*
X90914062Y-135895409D01*
X90680340Y-136051576D01*
X90481576Y-136250340D01*
X90325409Y-136484062D01*
X90217838Y-136743759D01*
X90163000Y-137019453D01*
X86517000Y-137019453D01*
X86462162Y-136743759D01*
X86354591Y-136484062D01*
X86198424Y-136250340D01*
X85999660Y-136051576D01*
X85765938Y-135895409D01*
X85506241Y-135787838D01*
X85230547Y-135733000D01*
X84949453Y-135733000D01*
X84673759Y-135787838D01*
X84414062Y-135895409D01*
X84180340Y-136051576D01*
X83981576Y-136250340D01*
X83825409Y-136484062D01*
X83717838Y-136743759D01*
X83663000Y-137019453D01*
X75819000Y-137019453D01*
X75819000Y-132270417D01*
X173101000Y-132207083D01*
X173101000Y-171831000D01*
X173101000Y-171831000D01*
G37*
X173101000Y-171831000D02*
X88614075Y-171831000D01*
X88711563Y-171765860D01*
X88805860Y-171671563D01*
X88879950Y-171560680D01*
X88930984Y-171437474D01*
X88957000Y-171306679D01*
X88957000Y-171173321D01*
X88930984Y-171042526D01*
X88879950Y-170919320D01*
X88805860Y-170808437D01*
X88711563Y-170714140D01*
X88600680Y-170640050D01*
X88477474Y-170589016D01*
X88346679Y-170563000D01*
X88213321Y-170563000D01*
X88082526Y-170589016D01*
X87959320Y-170640050D01*
X87945372Y-170649370D01*
X87697000Y-170400999D01*
X87697000Y-169414302D01*
X100273000Y-169414302D01*
X100273000Y-169675698D01*
X100323996Y-169932072D01*
X100424028Y-170173570D01*
X100569252Y-170390913D01*
X100754087Y-170575748D01*
X100971430Y-170720972D01*
X101212928Y-170821004D01*
X101469302Y-170872000D01*
X101730698Y-170872000D01*
X101987072Y-170821004D01*
X102228570Y-170720972D01*
X102445913Y-170575748D01*
X102602055Y-170419606D01*
X102601928Y-170445000D01*
X102614188Y-170569482D01*
X102650498Y-170689180D01*
X102709463Y-170799494D01*
X102788815Y-170896185D01*
X102885506Y-170975537D01*
X102995820Y-171034502D01*
X103115518Y-171070812D01*
X103240000Y-171083072D01*
X103854250Y-171080000D01*
X104013000Y-170921250D01*
X104013000Y-169672000D01*
X104267000Y-169672000D01*
X104267000Y-170921250D01*
X104425750Y-171080000D01*
X105040000Y-171083072D01*
X105164482Y-171070812D01*
X105284180Y-171034502D01*
X105394494Y-170975537D01*
X105491185Y-170896185D01*
X105570537Y-170799494D01*
X105629502Y-170689180D01*
X105665812Y-170569482D01*
X105678072Y-170445000D01*
X105675000Y-169830750D01*
X105516250Y-169672000D01*
X104267000Y-169672000D01*
X104013000Y-169672000D01*
X103993000Y-169672000D01*
X103993000Y-169418000D01*
X104013000Y-169418000D01*
X104013000Y-168168750D01*
X104267000Y-168168750D01*
X104267000Y-169418000D01*
X105516250Y-169418000D01*
X105675000Y-169259250D01*
X105678072Y-168645000D01*
X105665812Y-168520518D01*
X105629502Y-168400820D01*
X105570537Y-168290506D01*
X105491185Y-168193815D01*
X105394494Y-168114463D01*
X105284180Y-168055498D01*
X105164482Y-168019188D01*
X105040000Y-168006928D01*
X104425750Y-168010000D01*
X104267000Y-168168750D01*
X104013000Y-168168750D01*
X103854250Y-168010000D01*
X103240000Y-168006928D01*
X103115518Y-168019188D01*
X102995820Y-168055498D01*
X102885506Y-168114463D01*
X102788815Y-168193815D01*
X102709463Y-168290506D01*
X102650498Y-168400820D01*
X102614188Y-168520518D01*
X102601928Y-168645000D01*
X102602055Y-168670394D01*
X102445913Y-168514252D01*
X102228570Y-168369028D01*
X101987072Y-168268996D01*
X101730698Y-168218000D01*
X101469302Y-168218000D01*
X101212928Y-168268996D01*
X100971430Y-168369028D01*
X100754087Y-168514252D01*
X100569252Y-168699087D01*
X100424028Y-168916430D01*
X100323996Y-169157928D01*
X100273000Y-169414302D01*
X87697000Y-169414302D01*
X87697000Y-166239302D01*
X139008000Y-166239302D01*
X139008000Y-166500698D01*
X139058996Y-166757072D01*
X139159028Y-166998570D01*
X139304252Y-167215913D01*
X139489087Y-167400748D01*
X139706430Y-167545972D01*
X139947928Y-167646004D01*
X140204302Y-167697000D01*
X140465698Y-167697000D01*
X140722072Y-167646004D01*
X140963570Y-167545972D01*
X141180913Y-167400748D01*
X141337055Y-167244606D01*
X141336928Y-167270000D01*
X141349188Y-167394482D01*
X141385498Y-167514180D01*
X141444463Y-167624494D01*
X141523815Y-167721185D01*
X141620506Y-167800537D01*
X141730820Y-167859502D01*
X141850518Y-167895812D01*
X141975000Y-167908072D01*
X142589250Y-167905000D01*
X142748000Y-167746250D01*
X142748000Y-166497000D01*
X143002000Y-166497000D01*
X143002000Y-167746250D01*
X143160750Y-167905000D01*
X143775000Y-167908072D01*
X143899482Y-167895812D01*
X144019180Y-167859502D01*
X144129494Y-167800537D01*
X144226185Y-167721185D01*
X144305537Y-167624494D01*
X144364502Y-167514180D01*
X144400812Y-167394482D01*
X144413072Y-167270000D01*
X147051928Y-167270000D01*
X147064188Y-167394482D01*
X147100498Y-167514180D01*
X147159463Y-167624494D01*
X147238815Y-167721185D01*
X147335506Y-167800537D01*
X147445820Y-167859502D01*
X147565518Y-167895812D01*
X147690000Y-167908072D01*
X148304250Y-167905000D01*
X148463000Y-167746250D01*
X148463000Y-166497000D01*
X147213750Y-166497000D01*
X147055000Y-166655750D01*
X147051928Y-167270000D01*
X144413072Y-167270000D01*
X144410000Y-166655750D01*
X144251250Y-166497000D01*
X143002000Y-166497000D01*
X142748000Y-166497000D01*
X142728000Y-166497000D01*
X142728000Y-166243000D01*
X142748000Y-166243000D01*
X142748000Y-164993750D01*
X143002000Y-164993750D01*
X143002000Y-166243000D01*
X144251250Y-166243000D01*
X144410000Y-166084250D01*
X144413072Y-165470000D01*
X147051928Y-165470000D01*
X147055000Y-166084250D01*
X147213750Y-166243000D01*
X148463000Y-166243000D01*
X148463000Y-164993750D01*
X148717000Y-164993750D01*
X148717000Y-166243000D01*
X148737000Y-166243000D01*
X148737000Y-166497000D01*
X148717000Y-166497000D01*
X148717000Y-167746250D01*
X148875750Y-167905000D01*
X149490000Y-167908072D01*
X149614482Y-167895812D01*
X149734180Y-167859502D01*
X149844494Y-167800537D01*
X149941185Y-167721185D01*
X150020537Y-167624494D01*
X150079502Y-167514180D01*
X150115812Y-167394482D01*
X150128072Y-167270000D01*
X150127945Y-167244606D01*
X150284087Y-167400748D01*
X150501430Y-167545972D01*
X150742928Y-167646004D01*
X150999302Y-167697000D01*
X151260698Y-167697000D01*
X151517072Y-167646004D01*
X151758570Y-167545972D01*
X151975913Y-167400748D01*
X152160748Y-167215913D01*
X152305972Y-166998570D01*
X152406004Y-166757072D01*
X152457000Y-166500698D01*
X152457000Y-166239302D01*
X152406004Y-165982928D01*
X152305972Y-165741430D01*
X152160748Y-165524087D01*
X151975913Y-165339252D01*
X151758570Y-165194028D01*
X151517072Y-165093996D01*
X151260698Y-165043000D01*
X150999302Y-165043000D01*
X150742928Y-165093996D01*
X150501430Y-165194028D01*
X150284087Y-165339252D01*
X150127945Y-165495394D01*
X150128072Y-165470000D01*
X150115812Y-165345518D01*
X150079502Y-165225820D01*
X150020537Y-165115506D01*
X149941185Y-165018815D01*
X149844494Y-164939463D01*
X149734180Y-164880498D01*
X149614482Y-164844188D01*
X149490000Y-164831928D01*
X148875750Y-164835000D01*
X148717000Y-164993750D01*
X148463000Y-164993750D01*
X148304250Y-164835000D01*
X147690000Y-164831928D01*
X147565518Y-164844188D01*
X147445820Y-164880498D01*
X147335506Y-164939463D01*
X147238815Y-165018815D01*
X147159463Y-165115506D01*
X147100498Y-165225820D01*
X147064188Y-165345518D01*
X147051928Y-165470000D01*
X144413072Y-165470000D01*
X144400812Y-165345518D01*
X144364502Y-165225820D01*
X144305537Y-165115506D01*
X144226185Y-165018815D01*
X144129494Y-164939463D01*
X144019180Y-164880498D01*
X143899482Y-164844188D01*
X143775000Y-164831928D01*
X143160750Y-164835000D01*
X143002000Y-164993750D01*
X142748000Y-164993750D01*
X142589250Y-164835000D01*
X141975000Y-164831928D01*
X141850518Y-164844188D01*
X141730820Y-164880498D01*
X141620506Y-164939463D01*
X141523815Y-165018815D01*
X141444463Y-165115506D01*
X141385498Y-165225820D01*
X141349188Y-165345518D01*
X141336928Y-165470000D01*
X141337055Y-165495394D01*
X141180913Y-165339252D01*
X140963570Y-165194028D01*
X140722072Y-165093996D01*
X140465698Y-165043000D01*
X140204302Y-165043000D01*
X139947928Y-165093996D01*
X139706430Y-165194028D01*
X139489087Y-165339252D01*
X139304252Y-165524087D01*
X139159028Y-165741430D01*
X139058996Y-165982928D01*
X139008000Y-166239302D01*
X87697000Y-166239302D01*
X87697000Y-165702717D01*
X87721208Y-165712744D01*
X87750670Y-165728492D01*
X87782636Y-165738189D01*
X87813526Y-165750984D01*
X87846315Y-165757506D01*
X87878285Y-165767204D01*
X87911536Y-165770479D01*
X87944321Y-165777000D01*
X93692755Y-165777000D01*
X93726000Y-165780274D01*
X93759245Y-165777000D01*
X93759252Y-165777000D01*
X93858715Y-165767204D01*
X93986330Y-165728492D01*
X94103941Y-165665628D01*
X94207027Y-165581027D01*
X94228226Y-165555196D01*
X96546422Y-163237000D01*
X100409294Y-163237000D01*
X100323996Y-163442928D01*
X100273000Y-163699302D01*
X100273000Y-163960698D01*
X100323996Y-164217072D01*
X100424028Y-164458570D01*
X100569252Y-164675913D01*
X100754087Y-164860748D01*
X100971430Y-165005972D01*
X101212928Y-165106004D01*
X101469302Y-165157000D01*
X101730698Y-165157000D01*
X101987072Y-165106004D01*
X102228570Y-165005972D01*
X102445913Y-164860748D01*
X102602055Y-164704606D01*
X102601928Y-164730000D01*
X102614188Y-164854482D01*
X102650498Y-164974180D01*
X102709463Y-165084494D01*
X102788815Y-165181185D01*
X102885506Y-165260537D01*
X102995820Y-165319502D01*
X103115518Y-165355812D01*
X103240000Y-165368072D01*
X103854250Y-165365000D01*
X104013000Y-165206250D01*
X104013000Y-163957000D01*
X104267000Y-163957000D01*
X104267000Y-165206250D01*
X104425750Y-165365000D01*
X105040000Y-165368072D01*
X105164482Y-165355812D01*
X105284180Y-165319502D01*
X105394494Y-165260537D01*
X105491185Y-165181185D01*
X105570537Y-165084494D01*
X105629502Y-164974180D01*
X105665812Y-164854482D01*
X105678072Y-164730000D01*
X105675000Y-164115750D01*
X105516250Y-163957000D01*
X104267000Y-163957000D01*
X104013000Y-163957000D01*
X103993000Y-163957000D01*
X103993000Y-163703000D01*
X104013000Y-163703000D01*
X104013000Y-163683000D01*
X104267000Y-163683000D01*
X104267000Y-163703000D01*
X105516250Y-163703000D01*
X105675000Y-163544250D01*
X105676537Y-163237000D01*
X118902255Y-163237000D01*
X118935500Y-163240274D01*
X118968745Y-163237000D01*
X118968752Y-163237000D01*
X119068215Y-163227204D01*
X119195830Y-163188492D01*
X119313441Y-163125628D01*
X119416527Y-163041027D01*
X119437726Y-163015196D01*
X121105196Y-161347726D01*
X121131027Y-161326527D01*
X121215628Y-161223441D01*
X121278492Y-161105830D01*
X121317204Y-160978215D01*
X121327000Y-160878752D01*
X121327000Y-160878743D01*
X121330274Y-160845501D01*
X121327000Y-160812259D01*
X121327000Y-160524302D01*
X139008000Y-160524302D01*
X139008000Y-160785698D01*
X139058996Y-161042072D01*
X139159028Y-161283570D01*
X139304252Y-161500913D01*
X139489087Y-161685748D01*
X139706430Y-161830972D01*
X139947928Y-161931004D01*
X140204302Y-161982000D01*
X140465698Y-161982000D01*
X140722072Y-161931004D01*
X140963570Y-161830972D01*
X141180913Y-161685748D01*
X141337055Y-161529606D01*
X141336928Y-161555000D01*
X141349188Y-161679482D01*
X141385498Y-161799180D01*
X141444463Y-161909494D01*
X141523815Y-162006185D01*
X141620506Y-162085537D01*
X141730820Y-162144502D01*
X141850518Y-162180812D01*
X141975000Y-162193072D01*
X142589250Y-162190000D01*
X142748000Y-162031250D01*
X142748000Y-160782000D01*
X143002000Y-160782000D01*
X143002000Y-162031250D01*
X143160750Y-162190000D01*
X143775000Y-162193072D01*
X143899482Y-162180812D01*
X144019180Y-162144502D01*
X144129494Y-162085537D01*
X144226185Y-162006185D01*
X144305537Y-161909494D01*
X144364502Y-161799180D01*
X144400812Y-161679482D01*
X144413072Y-161555000D01*
X147051928Y-161555000D01*
X147064188Y-161679482D01*
X147100498Y-161799180D01*
X147159463Y-161909494D01*
X147238815Y-162006185D01*
X147335506Y-162085537D01*
X147445820Y-162144502D01*
X147565518Y-162180812D01*
X147690000Y-162193072D01*
X148304250Y-162190000D01*
X148463000Y-162031250D01*
X148463000Y-160782000D01*
X147213750Y-160782000D01*
X147055000Y-160940750D01*
X147051928Y-161555000D01*
X144413072Y-161555000D01*
X144410000Y-160940750D01*
X144251250Y-160782000D01*
X143002000Y-160782000D01*
X142748000Y-160782000D01*
X142728000Y-160782000D01*
X142728000Y-160528000D01*
X142748000Y-160528000D01*
X142748000Y-159278750D01*
X143002000Y-159278750D01*
X143002000Y-160528000D01*
X144251250Y-160528000D01*
X144410000Y-160369250D01*
X144413072Y-159755000D01*
X147051928Y-159755000D01*
X147055000Y-160369250D01*
X147213750Y-160528000D01*
X148463000Y-160528000D01*
X148463000Y-159278750D01*
X148717000Y-159278750D01*
X148717000Y-160528000D01*
X148737000Y-160528000D01*
X148737000Y-160782000D01*
X148717000Y-160782000D01*
X148717000Y-162031250D01*
X148875750Y-162190000D01*
X149490000Y-162193072D01*
X149614482Y-162180812D01*
X149734180Y-162144502D01*
X149844494Y-162085537D01*
X149941185Y-162006185D01*
X150020537Y-161909494D01*
X150079502Y-161799180D01*
X150115812Y-161679482D01*
X150128072Y-161555000D01*
X150127945Y-161529606D01*
X150284087Y-161685748D01*
X150501430Y-161830972D01*
X150742928Y-161931004D01*
X150999302Y-161982000D01*
X151260698Y-161982000D01*
X151517072Y-161931004D01*
X151758570Y-161830972D01*
X151975913Y-161685748D01*
X152160748Y-161500913D01*
X152305972Y-161283570D01*
X152406004Y-161042072D01*
X152457000Y-160785698D01*
X152457000Y-160524302D01*
X152406004Y-160267928D01*
X152305972Y-160026430D01*
X152160748Y-159809087D01*
X151975913Y-159624252D01*
X151758570Y-159479028D01*
X151517072Y-159378996D01*
X151260698Y-159328000D01*
X150999302Y-159328000D01*
X150742928Y-159378996D01*
X150501430Y-159479028D01*
X150284087Y-159624252D01*
X150127945Y-159780394D01*
X150128072Y-159755000D01*
X150115812Y-159630518D01*
X150079502Y-159510820D01*
X150020537Y-159400506D01*
X149941185Y-159303815D01*
X149844494Y-159224463D01*
X149734180Y-159165498D01*
X149614482Y-159129188D01*
X149490000Y-159116928D01*
X148875750Y-159120000D01*
X148717000Y-159278750D01*
X148463000Y-159278750D01*
X148304250Y-159120000D01*
X147690000Y-159116928D01*
X147565518Y-159129188D01*
X147445820Y-159165498D01*
X147335506Y-159224463D01*
X147238815Y-159303815D01*
X147159463Y-159400506D01*
X147100498Y-159510820D01*
X147064188Y-159630518D01*
X147051928Y-159755000D01*
X144413072Y-159755000D01*
X144400812Y-159630518D01*
X144364502Y-159510820D01*
X144305537Y-159400506D01*
X144226185Y-159303815D01*
X144129494Y-159224463D01*
X144019180Y-159165498D01*
X143899482Y-159129188D01*
X143775000Y-159116928D01*
X143160750Y-159120000D01*
X143002000Y-159278750D01*
X142748000Y-159278750D01*
X142589250Y-159120000D01*
X141975000Y-159116928D01*
X141850518Y-159129188D01*
X141730820Y-159165498D01*
X141620506Y-159224463D01*
X141523815Y-159303815D01*
X141444463Y-159400506D01*
X141385498Y-159510820D01*
X141349188Y-159630518D01*
X141336928Y-159755000D01*
X141337055Y-159780394D01*
X141180913Y-159624252D01*
X140963570Y-159479028D01*
X140722072Y-159378996D01*
X140465698Y-159328000D01*
X140204302Y-159328000D01*
X139947928Y-159378996D01*
X139706430Y-159479028D01*
X139489087Y-159624252D01*
X139304252Y-159809087D01*
X139159028Y-160026430D01*
X139058996Y-160267928D01*
X139008000Y-160524302D01*
X121327000Y-160524302D01*
X121327000Y-157696922D01*
X124214620Y-154809302D01*
X139008000Y-154809302D01*
X139008000Y-155070698D01*
X139058996Y-155327072D01*
X139159028Y-155568570D01*
X139304252Y-155785913D01*
X139489087Y-155970748D01*
X139706430Y-156115972D01*
X139947928Y-156216004D01*
X140204302Y-156267000D01*
X140465698Y-156267000D01*
X140722072Y-156216004D01*
X140963570Y-156115972D01*
X141180913Y-155970748D01*
X141337055Y-155814606D01*
X141336928Y-155840000D01*
X141349188Y-155964482D01*
X141385498Y-156084180D01*
X141444463Y-156194494D01*
X141523815Y-156291185D01*
X141620506Y-156370537D01*
X141730820Y-156429502D01*
X141850518Y-156465812D01*
X141975000Y-156478072D01*
X142589250Y-156475000D01*
X142748000Y-156316250D01*
X142748000Y-155067000D01*
X143002000Y-155067000D01*
X143002000Y-156316250D01*
X143160750Y-156475000D01*
X143775000Y-156478072D01*
X143899482Y-156465812D01*
X144019180Y-156429502D01*
X144129494Y-156370537D01*
X144226185Y-156291185D01*
X144305537Y-156194494D01*
X144364502Y-156084180D01*
X144400812Y-155964482D01*
X144413072Y-155840000D01*
X147051928Y-155840000D01*
X147064188Y-155964482D01*
X147100498Y-156084180D01*
X147159463Y-156194494D01*
X147238815Y-156291185D01*
X147335506Y-156370537D01*
X147445820Y-156429502D01*
X147565518Y-156465812D01*
X147690000Y-156478072D01*
X148304250Y-156475000D01*
X148463000Y-156316250D01*
X148463000Y-155067000D01*
X147213750Y-155067000D01*
X147055000Y-155225750D01*
X147051928Y-155840000D01*
X144413072Y-155840000D01*
X144410000Y-155225750D01*
X144251250Y-155067000D01*
X143002000Y-155067000D01*
X142748000Y-155067000D01*
X142728000Y-155067000D01*
X142728000Y-154813000D01*
X142748000Y-154813000D01*
X142748000Y-153563750D01*
X143002000Y-153563750D01*
X143002000Y-154813000D01*
X144251250Y-154813000D01*
X144410000Y-154654250D01*
X144413072Y-154040000D01*
X147051928Y-154040000D01*
X147055000Y-154654250D01*
X147213750Y-154813000D01*
X148463000Y-154813000D01*
X148463000Y-153563750D01*
X148717000Y-153563750D01*
X148717000Y-154813000D01*
X148737000Y-154813000D01*
X148737000Y-155067000D01*
X148717000Y-155067000D01*
X148717000Y-156316250D01*
X148875750Y-156475000D01*
X149490000Y-156478072D01*
X149614482Y-156465812D01*
X149734180Y-156429502D01*
X149844494Y-156370537D01*
X149941185Y-156291185D01*
X150020537Y-156194494D01*
X150079502Y-156084180D01*
X150115812Y-155964482D01*
X150128072Y-155840000D01*
X150127945Y-155814606D01*
X150284087Y-155970748D01*
X150501430Y-156115972D01*
X150742928Y-156216004D01*
X150999302Y-156267000D01*
X151260698Y-156267000D01*
X151517072Y-156216004D01*
X151743075Y-156122390D01*
X168675024Y-156122390D01*
X168719675Y-156269599D01*
X168844859Y-156532420D01*
X169018912Y-156765769D01*
X169235145Y-156960678D01*
X169485248Y-157109657D01*
X169759609Y-157206981D01*
X169989500Y-157086314D01*
X169989500Y-155892500D01*
X170243500Y-155892500D01*
X170243500Y-157086314D01*
X170473391Y-157206981D01*
X170747752Y-157109657D01*
X170997855Y-156960678D01*
X171214088Y-156765769D01*
X171388141Y-156532420D01*
X171513325Y-156269599D01*
X171557976Y-156122390D01*
X171436655Y-155892500D01*
X170243500Y-155892500D01*
X169989500Y-155892500D01*
X168796345Y-155892500D01*
X168675024Y-156122390D01*
X151743075Y-156122390D01*
X151758570Y-156115972D01*
X151975913Y-155970748D01*
X152160748Y-155785913D01*
X152305972Y-155568570D01*
X152406004Y-155327072D01*
X152457000Y-155070698D01*
X152457000Y-154809302D01*
X152406004Y-154552928D01*
X152305972Y-154311430D01*
X152160748Y-154094087D01*
X151975913Y-153909252D01*
X151758570Y-153764028D01*
X151517072Y-153663996D01*
X151260698Y-153613000D01*
X150999302Y-153613000D01*
X150742928Y-153663996D01*
X150501430Y-153764028D01*
X150284087Y-153909252D01*
X150127945Y-154065394D01*
X150128072Y-154040000D01*
X150115812Y-153915518D01*
X150079502Y-153795820D01*
X150020537Y-153685506D01*
X149941185Y-153588815D01*
X149933357Y-153582390D01*
X168675024Y-153582390D01*
X168719675Y-153729599D01*
X168844859Y-153992420D01*
X169018912Y-154225769D01*
X169235145Y-154420678D01*
X169360755Y-154495500D01*
X169235145Y-154570322D01*
X169018912Y-154765231D01*
X168844859Y-154998580D01*
X168719675Y-155261401D01*
X168675024Y-155408610D01*
X168796345Y-155638500D01*
X169989500Y-155638500D01*
X169989500Y-153352500D01*
X170243500Y-153352500D01*
X170243500Y-155638500D01*
X171436655Y-155638500D01*
X171557976Y-155408610D01*
X171513325Y-155261401D01*
X171388141Y-154998580D01*
X171214088Y-154765231D01*
X170997855Y-154570322D01*
X170872245Y-154495500D01*
X170997855Y-154420678D01*
X171214088Y-154225769D01*
X171388141Y-153992420D01*
X171513325Y-153729599D01*
X171557976Y-153582390D01*
X171436655Y-153352500D01*
X170243500Y-153352500D01*
X169989500Y-153352500D01*
X168796345Y-153352500D01*
X168675024Y-153582390D01*
X149933357Y-153582390D01*
X149844494Y-153509463D01*
X149734180Y-153450498D01*
X149614482Y-153414188D01*
X149490000Y-153401928D01*
X148875750Y-153405000D01*
X148717000Y-153563750D01*
X148463000Y-153563750D01*
X148304250Y-153405000D01*
X147690000Y-153401928D01*
X147565518Y-153414188D01*
X147445820Y-153450498D01*
X147335506Y-153509463D01*
X147238815Y-153588815D01*
X147159463Y-153685506D01*
X147100498Y-153795820D01*
X147064188Y-153915518D01*
X147051928Y-154040000D01*
X144413072Y-154040000D01*
X144400812Y-153915518D01*
X144364502Y-153795820D01*
X144305537Y-153685506D01*
X144226185Y-153588815D01*
X144129494Y-153509463D01*
X144019180Y-153450498D01*
X143899482Y-153414188D01*
X143775000Y-153401928D01*
X143160750Y-153405000D01*
X143002000Y-153563750D01*
X142748000Y-153563750D01*
X142589250Y-153405000D01*
X141975000Y-153401928D01*
X141850518Y-153414188D01*
X141730820Y-153450498D01*
X141620506Y-153509463D01*
X141523815Y-153588815D01*
X141444463Y-153685506D01*
X141385498Y-153795820D01*
X141349188Y-153915518D01*
X141336928Y-154040000D01*
X141337055Y-154065394D01*
X141180913Y-153909252D01*
X140963570Y-153764028D01*
X140722072Y-153663996D01*
X140465698Y-153613000D01*
X140204302Y-153613000D01*
X139947928Y-153663996D01*
X139706430Y-153764028D01*
X139489087Y-153909252D01*
X139304252Y-154094087D01*
X139159028Y-154311430D01*
X139058996Y-154552928D01*
X139008000Y-154809302D01*
X124214620Y-154809302D01*
X126264422Y-152759500D01*
X154398755Y-152759500D01*
X154432000Y-152762774D01*
X154465245Y-152759500D01*
X154465252Y-152759500D01*
X154564715Y-152749704D01*
X154692330Y-152710992D01*
X154809941Y-152648128D01*
X154913027Y-152563527D01*
X154934226Y-152537696D01*
X156109422Y-151362500D01*
X169030389Y-151362500D01*
X169049576Y-151398396D01*
X169209156Y-151592844D01*
X169403604Y-151752424D01*
X169581150Y-151847324D01*
X169485248Y-151881343D01*
X169235145Y-152030322D01*
X169018912Y-152225231D01*
X168844859Y-152458580D01*
X168719675Y-152721401D01*
X168675024Y-152868610D01*
X168796345Y-153098500D01*
X169989500Y-153098500D01*
X169989500Y-153078500D01*
X170243500Y-153078500D01*
X170243500Y-153098500D01*
X171436655Y-153098500D01*
X171557976Y-152868610D01*
X171513325Y-152721401D01*
X171388141Y-152458580D01*
X171214088Y-152225231D01*
X170997855Y-152030322D01*
X170747752Y-151881343D01*
X170651850Y-151847324D01*
X170829396Y-151752424D01*
X171023844Y-151592844D01*
X171183424Y-151398396D01*
X171302002Y-151176551D01*
X171375022Y-150935836D01*
X171399678Y-150685500D01*
X171375022Y-150435164D01*
X171302002Y-150194449D01*
X171183424Y-149972604D01*
X171023844Y-149778156D01*
X170829396Y-149618576D01*
X170793500Y-149599389D01*
X170793500Y-149424566D01*
X170966500Y-149424566D01*
X171050207Y-149416322D01*
X171130696Y-149391905D01*
X171204876Y-149352255D01*
X171269895Y-149298895D01*
X171323255Y-149233876D01*
X171362905Y-149159696D01*
X171387322Y-149079207D01*
X171395566Y-148995500D01*
X171395566Y-147295500D01*
X171387322Y-147211793D01*
X171362905Y-147131304D01*
X171323255Y-147057124D01*
X171269895Y-146992105D01*
X171204876Y-146938745D01*
X171130696Y-146899095D01*
X171050207Y-146874678D01*
X170966500Y-146866434D01*
X170793500Y-146866434D01*
X170793500Y-134907252D01*
X170796775Y-134874000D01*
X170783704Y-134741285D01*
X170744992Y-134613670D01*
X170682128Y-134496059D01*
X170618724Y-134418801D01*
X170618722Y-134418799D01*
X170597527Y-134392973D01*
X170571701Y-134371778D01*
X169729726Y-133529804D01*
X169708527Y-133503973D01*
X169605441Y-133419372D01*
X169487830Y-133356508D01*
X169360215Y-133317796D01*
X169260752Y-133308000D01*
X169260745Y-133308000D01*
X169227500Y-133304726D01*
X169194255Y-133308000D01*
X131505321Y-133308000D01*
X131472536Y-133314521D01*
X131439285Y-133317796D01*
X131407315Y-133327494D01*
X131374526Y-133334016D01*
X131343636Y-133346811D01*
X131311670Y-133356508D01*
X131282208Y-133372256D01*
X131251320Y-133385050D01*
X131223524Y-133403623D01*
X131194059Y-133419372D01*
X131168231Y-133440568D01*
X131140437Y-133459140D01*
X131116801Y-133482776D01*
X131090973Y-133503973D01*
X131069778Y-133529799D01*
X131046140Y-133553437D01*
X131027568Y-133581231D01*
X131006372Y-133607059D01*
X130990623Y-133636524D01*
X130972050Y-133664320D01*
X130959256Y-133695208D01*
X130943508Y-133724670D01*
X130933811Y-133756636D01*
X130921016Y-133787526D01*
X130914494Y-133820315D01*
X130904796Y-133852285D01*
X130901521Y-133885536D01*
X130895000Y-133918321D01*
X130895000Y-133951748D01*
X130891725Y-133985000D01*
X130895000Y-134018252D01*
X130895000Y-134051679D01*
X130901521Y-134084464D01*
X130904796Y-134117715D01*
X130914494Y-134149685D01*
X130921016Y-134182474D01*
X130933811Y-134213364D01*
X130943508Y-134245330D01*
X130959256Y-134274792D01*
X130972050Y-134305680D01*
X130990623Y-134333476D01*
X131006372Y-134362941D01*
X131027568Y-134388769D01*
X131046140Y-134416563D01*
X131069778Y-134440201D01*
X131090973Y-134466027D01*
X131116799Y-134487222D01*
X131140437Y-134510860D01*
X131168231Y-134529432D01*
X131194059Y-134550628D01*
X131223524Y-134566377D01*
X131251320Y-134584950D01*
X131282208Y-134597744D01*
X131311670Y-134613492D01*
X131343636Y-134623189D01*
X131374526Y-134635984D01*
X131407315Y-134642506D01*
X131439285Y-134652204D01*
X131472536Y-134655479D01*
X131505321Y-134662000D01*
X168947078Y-134662000D01*
X169439501Y-135154424D01*
X169439500Y-146866434D01*
X169266500Y-146866434D01*
X169182793Y-146874678D01*
X169102304Y-146899095D01*
X169028124Y-146938745D01*
X168963105Y-146992105D01*
X168909745Y-147057124D01*
X168870095Y-147131304D01*
X168845678Y-147211793D01*
X168837434Y-147295500D01*
X168837434Y-148995500D01*
X168845678Y-149079207D01*
X168870095Y-149159696D01*
X168909745Y-149233876D01*
X168963105Y-149298895D01*
X169028124Y-149352255D01*
X169102304Y-149391905D01*
X169182793Y-149416322D01*
X169266500Y-149424566D01*
X169439501Y-149424566D01*
X169439501Y-149599389D01*
X169403604Y-149618576D01*
X169209156Y-149778156D01*
X169049576Y-149972604D01*
X169030389Y-150008500D01*
X155862241Y-150008500D01*
X155828999Y-150005226D01*
X155795757Y-150008500D01*
X155795748Y-150008500D01*
X155696285Y-150018296D01*
X155568670Y-150057008D01*
X155451059Y-150119872D01*
X155347973Y-150204473D01*
X155326774Y-150230304D01*
X154151578Y-151405500D01*
X126370502Y-151405500D01*
X128681700Y-149094302D01*
X139008000Y-149094302D01*
X139008000Y-149355698D01*
X139058996Y-149612072D01*
X139159028Y-149853570D01*
X139304252Y-150070913D01*
X139489087Y-150255748D01*
X139706430Y-150400972D01*
X139947928Y-150501004D01*
X140204302Y-150552000D01*
X140465698Y-150552000D01*
X140722072Y-150501004D01*
X140963570Y-150400972D01*
X141180913Y-150255748D01*
X141337055Y-150099606D01*
X141336928Y-150125000D01*
X141349188Y-150249482D01*
X141385498Y-150369180D01*
X141444463Y-150479494D01*
X141523815Y-150576185D01*
X141620506Y-150655537D01*
X141730820Y-150714502D01*
X141850518Y-150750812D01*
X141975000Y-150763072D01*
X142589250Y-150760000D01*
X142748000Y-150601250D01*
X142748000Y-149352000D01*
X143002000Y-149352000D01*
X143002000Y-150601250D01*
X143160750Y-150760000D01*
X143775000Y-150763072D01*
X143899482Y-150750812D01*
X144019180Y-150714502D01*
X144129494Y-150655537D01*
X144226185Y-150576185D01*
X144305537Y-150479494D01*
X144364502Y-150369180D01*
X144400812Y-150249482D01*
X144413072Y-150125000D01*
X147051928Y-150125000D01*
X147064188Y-150249482D01*
X147100498Y-150369180D01*
X147159463Y-150479494D01*
X147238815Y-150576185D01*
X147335506Y-150655537D01*
X147445820Y-150714502D01*
X147565518Y-150750812D01*
X147690000Y-150763072D01*
X148304250Y-150760000D01*
X148463000Y-150601250D01*
X148463000Y-149352000D01*
X147213750Y-149352000D01*
X147055000Y-149510750D01*
X147051928Y-150125000D01*
X144413072Y-150125000D01*
X144410000Y-149510750D01*
X144251250Y-149352000D01*
X143002000Y-149352000D01*
X142748000Y-149352000D01*
X142728000Y-149352000D01*
X142728000Y-149098000D01*
X142748000Y-149098000D01*
X142748000Y-147848750D01*
X143002000Y-147848750D01*
X143002000Y-149098000D01*
X144251250Y-149098000D01*
X144410000Y-148939250D01*
X144413072Y-148325000D01*
X147051928Y-148325000D01*
X147055000Y-148939250D01*
X147213750Y-149098000D01*
X148463000Y-149098000D01*
X148463000Y-147848750D01*
X148717000Y-147848750D01*
X148717000Y-149098000D01*
X148737000Y-149098000D01*
X148737000Y-149352000D01*
X148717000Y-149352000D01*
X148717000Y-150601250D01*
X148875750Y-150760000D01*
X149490000Y-150763072D01*
X149614482Y-150750812D01*
X149734180Y-150714502D01*
X149844494Y-150655537D01*
X149941185Y-150576185D01*
X150020537Y-150479494D01*
X150079502Y-150369180D01*
X150115812Y-150249482D01*
X150128072Y-150125000D01*
X150127945Y-150099606D01*
X150284087Y-150255748D01*
X150501430Y-150400972D01*
X150742928Y-150501004D01*
X150999302Y-150552000D01*
X151260698Y-150552000D01*
X151517072Y-150501004D01*
X151758570Y-150400972D01*
X151975913Y-150255748D01*
X152160748Y-150070913D01*
X152305972Y-149853570D01*
X152406004Y-149612072D01*
X152457000Y-149355698D01*
X152457000Y-149094302D01*
X152406004Y-148837928D01*
X152305972Y-148596430D01*
X152160748Y-148379087D01*
X151975913Y-148194252D01*
X151758570Y-148049028D01*
X151517072Y-147948996D01*
X151260698Y-147898000D01*
X150999302Y-147898000D01*
X150742928Y-147948996D01*
X150501430Y-148049028D01*
X150284087Y-148194252D01*
X150127945Y-148350394D01*
X150128072Y-148325000D01*
X150115812Y-148200518D01*
X150079502Y-148080820D01*
X150020537Y-147970506D01*
X149941185Y-147873815D01*
X149844494Y-147794463D01*
X149734180Y-147735498D01*
X149614482Y-147699188D01*
X149490000Y-147686928D01*
X148875750Y-147690000D01*
X148717000Y-147848750D01*
X148463000Y-147848750D01*
X148304250Y-147690000D01*
X147690000Y-147686928D01*
X147565518Y-147699188D01*
X147445820Y-147735498D01*
X147335506Y-147794463D01*
X147238815Y-147873815D01*
X147159463Y-147970506D01*
X147100498Y-148080820D01*
X147064188Y-148200518D01*
X147051928Y-148325000D01*
X144413072Y-148325000D01*
X144400812Y-148200518D01*
X144364502Y-148080820D01*
X144305537Y-147970506D01*
X144226185Y-147873815D01*
X144129494Y-147794463D01*
X144019180Y-147735498D01*
X143899482Y-147699188D01*
X143775000Y-147686928D01*
X143160750Y-147690000D01*
X143002000Y-147848750D01*
X142748000Y-147848750D01*
X142589250Y-147690000D01*
X141975000Y-147686928D01*
X141850518Y-147699188D01*
X141730820Y-147735498D01*
X141620506Y-147794463D01*
X141523815Y-147873815D01*
X141444463Y-147970506D01*
X141385498Y-148080820D01*
X141349188Y-148200518D01*
X141336928Y-148325000D01*
X141337055Y-148350394D01*
X141180913Y-148194252D01*
X140963570Y-148049028D01*
X140722072Y-147948996D01*
X140465698Y-147898000D01*
X140204302Y-147898000D01*
X139947928Y-147948996D01*
X139706430Y-148049028D01*
X139489087Y-148194252D01*
X139304252Y-148379087D01*
X139159028Y-148596430D01*
X139058996Y-148837928D01*
X139008000Y-149094302D01*
X128681700Y-149094302D01*
X130989002Y-146787000D01*
X156304973Y-146787000D01*
X156339320Y-146809950D01*
X156462526Y-146860984D01*
X156593321Y-146887000D01*
X156726679Y-146887000D01*
X156857474Y-146860984D01*
X156980680Y-146809950D01*
X157091563Y-146735860D01*
X157185860Y-146641563D01*
X157259950Y-146530680D01*
X157310984Y-146407474D01*
X157337000Y-146276679D01*
X157337000Y-146143321D01*
X157310984Y-146012526D01*
X157259950Y-145889320D01*
X157185860Y-145778437D01*
X157091563Y-145684140D01*
X156980680Y-145610050D01*
X156857474Y-145559016D01*
X156726679Y-145533000D01*
X156593321Y-145533000D01*
X156462526Y-145559016D01*
X156339320Y-145610050D01*
X156304973Y-145633000D01*
X130778328Y-145633000D01*
X130749999Y-145630210D01*
X130721670Y-145633000D01*
X130721664Y-145633000D01*
X130636888Y-145641350D01*
X130528124Y-145674343D01*
X130427885Y-145727921D01*
X130396720Y-145753498D01*
X130362035Y-145781963D01*
X130362033Y-145781965D01*
X130340026Y-145800026D01*
X130321965Y-145822033D01*
X125717000Y-150426998D01*
X125717000Y-149595027D01*
X125739950Y-149560680D01*
X125790984Y-149437474D01*
X125817000Y-149306679D01*
X125817000Y-149173321D01*
X125790984Y-149042526D01*
X125739950Y-148919320D01*
X125665860Y-148808437D01*
X125571563Y-148714140D01*
X125460680Y-148640050D01*
X125337474Y-148589016D01*
X125206679Y-148563000D01*
X125073321Y-148563000D01*
X124942526Y-148589016D01*
X124819320Y-148640050D01*
X124708437Y-148714140D01*
X124614140Y-148808437D01*
X124540050Y-148919320D01*
X124489016Y-149042526D01*
X124463000Y-149173321D01*
X124463000Y-149306679D01*
X124489016Y-149437474D01*
X124540050Y-149560680D01*
X124563001Y-149595028D01*
X124563000Y-150680999D01*
X115510999Y-159733000D01*
X96648339Y-159733000D01*
X96620000Y-159730209D01*
X96506888Y-159741349D01*
X96398123Y-159774343D01*
X96372228Y-159788184D01*
X96297885Y-159827921D01*
X96210026Y-159900026D01*
X96191963Y-159922036D01*
X94130999Y-161983000D01*
X92485027Y-161983000D01*
X92450680Y-161960050D01*
X92327474Y-161909016D01*
X92196679Y-161883000D01*
X92063321Y-161883000D01*
X91932526Y-161909016D01*
X91809320Y-161960050D01*
X91698437Y-162034140D01*
X91604140Y-162128437D01*
X91530050Y-162239320D01*
X91479016Y-162362526D01*
X91453000Y-162493321D01*
X91453000Y-162626679D01*
X91479016Y-162757474D01*
X91530050Y-162880680D01*
X91604140Y-162991563D01*
X91698437Y-163085860D01*
X91809320Y-163159950D01*
X91893938Y-163195000D01*
X91809320Y-163230050D01*
X91698437Y-163304140D01*
X91604140Y-163398437D01*
X91530050Y-163509320D01*
X91479016Y-163632526D01*
X91453000Y-163763321D01*
X91453000Y-163896679D01*
X91479016Y-164027474D01*
X91530050Y-164150680D01*
X91604140Y-164261563D01*
X91698437Y-164355860D01*
X91798919Y-164423000D01*
X87944321Y-164423000D01*
X87911536Y-164429521D01*
X87878285Y-164432796D01*
X87846315Y-164442494D01*
X87813526Y-164449016D01*
X87782636Y-164461811D01*
X87750670Y-164471508D01*
X87721208Y-164487256D01*
X87697000Y-164497283D01*
X87697000Y-160368328D01*
X87699790Y-160339999D01*
X87697000Y-160311670D01*
X87697000Y-160311664D01*
X87688650Y-160226888D01*
X87655657Y-160118124D01*
X87602079Y-160017885D01*
X87529974Y-159930026D01*
X87507968Y-159911966D01*
X87023001Y-159427000D01*
X88077679Y-159427000D01*
X88110464Y-159420479D01*
X88143715Y-159417204D01*
X88175685Y-159407506D01*
X88208474Y-159400984D01*
X88239364Y-159388189D01*
X88271330Y-159378492D01*
X88300792Y-159362744D01*
X88331680Y-159349950D01*
X88359476Y-159331377D01*
X88388941Y-159315628D01*
X88414769Y-159294432D01*
X88442563Y-159275860D01*
X88466201Y-159252222D01*
X88492027Y-159231027D01*
X88513222Y-159205201D01*
X88536860Y-159181563D01*
X88555432Y-159153769D01*
X88576628Y-159127941D01*
X88592377Y-159098476D01*
X88610950Y-159070680D01*
X88623744Y-159039792D01*
X88639492Y-159010330D01*
X88649189Y-158978364D01*
X88661984Y-158947474D01*
X88668506Y-158914685D01*
X88678204Y-158882715D01*
X88681479Y-158849464D01*
X88688000Y-158816679D01*
X88688000Y-158783252D01*
X88691275Y-158750000D01*
X88688000Y-158716748D01*
X88688000Y-158683321D01*
X88681479Y-158650536D01*
X88678204Y-158617285D01*
X88668506Y-158585315D01*
X88661984Y-158552526D01*
X88649189Y-158521636D01*
X88639492Y-158489670D01*
X88623744Y-158460208D01*
X88610950Y-158429320D01*
X88592377Y-158401524D01*
X88576628Y-158372059D01*
X88555432Y-158346231D01*
X88536860Y-158318437D01*
X88513222Y-158294799D01*
X88492027Y-158268973D01*
X88466201Y-158247778D01*
X88442563Y-158224140D01*
X88414769Y-158205568D01*
X88388941Y-158184372D01*
X88359476Y-158168623D01*
X88331680Y-158150050D01*
X88300792Y-158137256D01*
X88271330Y-158121508D01*
X88239364Y-158111811D01*
X88208474Y-158099016D01*
X88175685Y-158092494D01*
X88143715Y-158082796D01*
X88110464Y-158079521D01*
X88077679Y-158073000D01*
X86039321Y-158073000D01*
X86006536Y-158079521D01*
X85973285Y-158082796D01*
X85941315Y-158092494D01*
X85908526Y-158099016D01*
X85877636Y-158111811D01*
X85845670Y-158121508D01*
X85816208Y-158137256D01*
X85785320Y-158150050D01*
X85757524Y-158168623D01*
X85728059Y-158184372D01*
X85702231Y-158205568D01*
X85674437Y-158224140D01*
X85650799Y-158247778D01*
X85624973Y-158268973D01*
X85603778Y-158294799D01*
X85580140Y-158318437D01*
X85561568Y-158346231D01*
X85540372Y-158372059D01*
X85524623Y-158401524D01*
X85506050Y-158429320D01*
X85493256Y-158460208D01*
X85477508Y-158489670D01*
X85467811Y-158521636D01*
X85455016Y-158552526D01*
X85448494Y-158585315D01*
X85438796Y-158617285D01*
X85435521Y-158650536D01*
X85429000Y-158683321D01*
X85429000Y-158716748D01*
X85425725Y-158750000D01*
X85429000Y-158783252D01*
X85429000Y-158816679D01*
X85435521Y-158849464D01*
X85438796Y-158882715D01*
X85448494Y-158914685D01*
X85455016Y-158947474D01*
X85467811Y-158978364D01*
X85477508Y-159010330D01*
X85493256Y-159039792D01*
X85506050Y-159070680D01*
X85514282Y-159083000D01*
X85475027Y-159083000D01*
X85440680Y-159060050D01*
X85317474Y-159009016D01*
X85186679Y-158983000D01*
X85053321Y-158983000D01*
X84922526Y-159009016D01*
X84799320Y-159060050D01*
X84688437Y-159134140D01*
X84594140Y-159228437D01*
X84520050Y-159339320D01*
X84469016Y-159462526D01*
X84443000Y-159593321D01*
X84443000Y-159726679D01*
X84469016Y-159857474D01*
X84520050Y-159980680D01*
X84594140Y-160091563D01*
X84688437Y-160185860D01*
X84799320Y-160259950D01*
X84922526Y-160310984D01*
X85053321Y-160337000D01*
X85186679Y-160337000D01*
X85317474Y-160310984D01*
X85440680Y-160259950D01*
X85475027Y-160237000D01*
X86200999Y-160237000D01*
X86543000Y-160579002D01*
X86543001Y-170021655D01*
X86543000Y-170021665D01*
X86543000Y-170611669D01*
X86540210Y-170640000D01*
X86551349Y-170753111D01*
X86564897Y-170797770D01*
X86584343Y-170861876D01*
X86637922Y-170962115D01*
X86668840Y-170999788D01*
X86691963Y-171027964D01*
X86691966Y-171027967D01*
X86710027Y-171049974D01*
X86732033Y-171068034D01*
X87291965Y-171627967D01*
X87310026Y-171649974D01*
X87332033Y-171668035D01*
X87332035Y-171668037D01*
X87351980Y-171684405D01*
X87397885Y-171722079D01*
X87498124Y-171775657D01*
X87606888Y-171808650D01*
X87691664Y-171817000D01*
X87691670Y-171817000D01*
X87719999Y-171819790D01*
X87748328Y-171817000D01*
X87924973Y-171817000D01*
X87945925Y-171831000D01*
X75819000Y-171831000D01*
X75819000Y-167545001D01*
X76080957Y-167806959D01*
X76089016Y-167847474D01*
X76140050Y-167970680D01*
X76214140Y-168081563D01*
X76308437Y-168175860D01*
X76419320Y-168249950D01*
X76542526Y-168300984D01*
X76673321Y-168327000D01*
X76806679Y-168327000D01*
X76937474Y-168300984D01*
X77060680Y-168249950D01*
X77171563Y-168175860D01*
X77265860Y-168081563D01*
X77339950Y-167970680D01*
X77390984Y-167847474D01*
X77417000Y-167716679D01*
X77417000Y-167583321D01*
X77390984Y-167452526D01*
X77339950Y-167329320D01*
X77265860Y-167218437D01*
X77171563Y-167124140D01*
X77060680Y-167050050D01*
X76937474Y-166999016D01*
X76896959Y-166990957D01*
X76727000Y-166820999D01*
X76727000Y-158376592D01*
X76838748Y-158443157D01*
X77113109Y-158540481D01*
X77343000Y-158419814D01*
X77343000Y-157226000D01*
X77323000Y-157226000D01*
X77323000Y-156972000D01*
X77343000Y-156972000D01*
X77343000Y-156952000D01*
X77597000Y-156952000D01*
X77597000Y-156972000D01*
X77617000Y-156972000D01*
X77617000Y-157226000D01*
X77597000Y-157226000D01*
X77597000Y-158419814D01*
X77826891Y-158540481D01*
X78101252Y-158443157D01*
X78351355Y-158294178D01*
X78567588Y-158099269D01*
X78741641Y-157865920D01*
X78850166Y-157638073D01*
X78943076Y-157811896D01*
X79102656Y-158006344D01*
X79297104Y-158165924D01*
X79518949Y-158284502D01*
X79759664Y-158357522D01*
X79947274Y-158376000D01*
X80072726Y-158376000D01*
X80260336Y-158357522D01*
X80501051Y-158284502D01*
X80722896Y-158165924D01*
X80917344Y-158006344D01*
X80935433Y-157984302D01*
X100273000Y-157984302D01*
X100273000Y-158245698D01*
X100323996Y-158502072D01*
X100424028Y-158743570D01*
X100569252Y-158960913D01*
X100754087Y-159145748D01*
X100971430Y-159290972D01*
X101212928Y-159391004D01*
X101469302Y-159442000D01*
X101730698Y-159442000D01*
X101987072Y-159391004D01*
X102228570Y-159290972D01*
X102445913Y-159145748D01*
X102602055Y-158989606D01*
X102601928Y-159015000D01*
X102614188Y-159139482D01*
X102650498Y-159259180D01*
X102709463Y-159369494D01*
X102788815Y-159466185D01*
X102885506Y-159545537D01*
X102995820Y-159604502D01*
X103115518Y-159640812D01*
X103240000Y-159653072D01*
X103854250Y-159650000D01*
X104013000Y-159491250D01*
X104013000Y-158242000D01*
X104267000Y-158242000D01*
X104267000Y-159491250D01*
X104425750Y-159650000D01*
X105040000Y-159653072D01*
X105164482Y-159640812D01*
X105284180Y-159604502D01*
X105394494Y-159545537D01*
X105491185Y-159466185D01*
X105570537Y-159369494D01*
X105629502Y-159259180D01*
X105665812Y-159139482D01*
X105678072Y-159015000D01*
X105675000Y-158400750D01*
X105516250Y-158242000D01*
X104267000Y-158242000D01*
X104013000Y-158242000D01*
X103993000Y-158242000D01*
X103993000Y-157988000D01*
X104013000Y-157988000D01*
X104013000Y-156738750D01*
X104267000Y-156738750D01*
X104267000Y-157988000D01*
X105516250Y-157988000D01*
X105675000Y-157829250D01*
X105678072Y-157215000D01*
X105665812Y-157090518D01*
X105629502Y-156970820D01*
X105570537Y-156860506D01*
X105491185Y-156763815D01*
X105394494Y-156684463D01*
X105284180Y-156625498D01*
X105164482Y-156589188D01*
X105040000Y-156576928D01*
X104425750Y-156580000D01*
X104267000Y-156738750D01*
X104013000Y-156738750D01*
X103854250Y-156580000D01*
X103240000Y-156576928D01*
X103115518Y-156589188D01*
X102995820Y-156625498D01*
X102885506Y-156684463D01*
X102788815Y-156763815D01*
X102709463Y-156860506D01*
X102650498Y-156970820D01*
X102614188Y-157090518D01*
X102601928Y-157215000D01*
X102602055Y-157240394D01*
X102445913Y-157084252D01*
X102228570Y-156939028D01*
X101987072Y-156838996D01*
X101730698Y-156788000D01*
X101469302Y-156788000D01*
X101212928Y-156838996D01*
X100971430Y-156939028D01*
X100754087Y-157084252D01*
X100569252Y-157269087D01*
X100424028Y-157486430D01*
X100323996Y-157727928D01*
X100273000Y-157984302D01*
X80935433Y-157984302D01*
X81076924Y-157811896D01*
X81149562Y-157676000D01*
X82113973Y-157676000D01*
X82148320Y-157698950D01*
X82271526Y-157749984D01*
X82402321Y-157776000D01*
X82535679Y-157776000D01*
X82666474Y-157749984D01*
X82789680Y-157698950D01*
X82824027Y-157676000D01*
X91062669Y-157676000D01*
X91091000Y-157678790D01*
X91119331Y-157676000D01*
X91119336Y-157676000D01*
X91149045Y-157673074D01*
X91204111Y-157667651D01*
X91248770Y-157654103D01*
X91312876Y-157634657D01*
X91413115Y-157581079D01*
X91500974Y-157508974D01*
X91519039Y-157486962D01*
X92749002Y-156257000D01*
X112784973Y-156257000D01*
X112819320Y-156279950D01*
X112942526Y-156330984D01*
X113073321Y-156357000D01*
X113206679Y-156357000D01*
X113337474Y-156330984D01*
X113460680Y-156279950D01*
X113571563Y-156205860D01*
X113665860Y-156111563D01*
X113739950Y-156000680D01*
X113790984Y-155877474D01*
X113817000Y-155746679D01*
X113817000Y-155613321D01*
X113790984Y-155482526D01*
X113739950Y-155359320D01*
X113665860Y-155248437D01*
X113571563Y-155154140D01*
X113460680Y-155080050D01*
X113337474Y-155029016D01*
X113206679Y-155003000D01*
X113073321Y-155003000D01*
X112942526Y-155029016D01*
X112819320Y-155080050D01*
X112784973Y-155103000D01*
X112728263Y-155103000D01*
X112789950Y-155010680D01*
X112840984Y-154887474D01*
X112867000Y-154756679D01*
X112867000Y-154623321D01*
X112840984Y-154492526D01*
X112789950Y-154369320D01*
X112715860Y-154258437D01*
X112621563Y-154164140D01*
X112510680Y-154090050D01*
X112387474Y-154039016D01*
X112256679Y-154013000D01*
X112123321Y-154013000D01*
X111992526Y-154039016D01*
X111869320Y-154090050D01*
X111834973Y-154113000D01*
X92608339Y-154113000D01*
X92580000Y-154110209D01*
X92466888Y-154121349D01*
X92358123Y-154154343D01*
X92339795Y-154164140D01*
X92257885Y-154207921D01*
X92170026Y-154280026D01*
X92151961Y-154302038D01*
X90600999Y-155853000D01*
X84179001Y-155853000D01*
X82497039Y-154171038D01*
X82478974Y-154149026D01*
X82391115Y-154076921D01*
X82290876Y-154023343D01*
X82218371Y-154001349D01*
X82182111Y-153990349D01*
X82127045Y-153984926D01*
X82097336Y-153982000D01*
X82097331Y-153982000D01*
X82069000Y-153979210D01*
X82040669Y-153982000D01*
X81149562Y-153982000D01*
X81076924Y-153846104D01*
X80917344Y-153651656D01*
X80722896Y-153492076D01*
X80501051Y-153373498D01*
X80260336Y-153300478D01*
X80143798Y-153289000D01*
X80260336Y-153277522D01*
X80501051Y-153204502D01*
X80722896Y-153085924D01*
X80917344Y-152926344D01*
X81076924Y-152731896D01*
X81195502Y-152510051D01*
X81268522Y-152269336D01*
X81268525Y-152269302D01*
X86938000Y-152269302D01*
X86938000Y-152530698D01*
X86988996Y-152787072D01*
X87089028Y-153028570D01*
X87234252Y-153245913D01*
X87419087Y-153430748D01*
X87636430Y-153575972D01*
X87877928Y-153676004D01*
X88134302Y-153727000D01*
X88395698Y-153727000D01*
X88652072Y-153676004D01*
X88893570Y-153575972D01*
X89110913Y-153430748D01*
X89267055Y-153274606D01*
X89266928Y-153300000D01*
X89279188Y-153424482D01*
X89315498Y-153544180D01*
X89374463Y-153654494D01*
X89453815Y-153751185D01*
X89550506Y-153830537D01*
X89660820Y-153889502D01*
X89780518Y-153925812D01*
X89905000Y-153938072D01*
X90519250Y-153935000D01*
X90678000Y-153776250D01*
X90678000Y-152527000D01*
X90932000Y-152527000D01*
X90932000Y-153776250D01*
X91090750Y-153935000D01*
X91705000Y-153938072D01*
X91829482Y-153925812D01*
X91949180Y-153889502D01*
X92059494Y-153830537D01*
X92156185Y-153751185D01*
X92235537Y-153654494D01*
X92294502Y-153544180D01*
X92330812Y-153424482D01*
X92343072Y-153300000D01*
X92340000Y-152685750D01*
X92181250Y-152527000D01*
X90932000Y-152527000D01*
X90678000Y-152527000D01*
X90658000Y-152527000D01*
X90658000Y-152273000D01*
X90678000Y-152273000D01*
X90678000Y-151023750D01*
X90932000Y-151023750D01*
X90932000Y-152273000D01*
X92181250Y-152273000D01*
X92184948Y-152269302D01*
X100273000Y-152269302D01*
X100273000Y-152530698D01*
X100323996Y-152787072D01*
X100424028Y-153028570D01*
X100569252Y-153245913D01*
X100754087Y-153430748D01*
X100971430Y-153575972D01*
X101212928Y-153676004D01*
X101469302Y-153727000D01*
X101730698Y-153727000D01*
X101987072Y-153676004D01*
X102228570Y-153575972D01*
X102445913Y-153430748D01*
X102602055Y-153274606D01*
X102601928Y-153300000D01*
X102614188Y-153424482D01*
X102650498Y-153544180D01*
X102709463Y-153654494D01*
X102788815Y-153751185D01*
X102885506Y-153830537D01*
X102995820Y-153889502D01*
X103115518Y-153925812D01*
X103240000Y-153938072D01*
X103854250Y-153935000D01*
X104013000Y-153776250D01*
X104013000Y-152527000D01*
X104267000Y-152527000D01*
X104267000Y-153776250D01*
X104425750Y-153935000D01*
X105040000Y-153938072D01*
X105164482Y-153925812D01*
X105284180Y-153889502D01*
X105394494Y-153830537D01*
X105491185Y-153751185D01*
X105570537Y-153654494D01*
X105629502Y-153544180D01*
X105665812Y-153424482D01*
X105678072Y-153300000D01*
X105675000Y-152685750D01*
X105516250Y-152527000D01*
X104267000Y-152527000D01*
X104013000Y-152527000D01*
X103993000Y-152527000D01*
X103993000Y-152273000D01*
X104013000Y-152273000D01*
X104013000Y-151023750D01*
X104267000Y-151023750D01*
X104267000Y-152273000D01*
X105516250Y-152273000D01*
X105675000Y-152114250D01*
X105678072Y-151500000D01*
X105665812Y-151375518D01*
X105629502Y-151255820D01*
X105570537Y-151145506D01*
X105491185Y-151048815D01*
X105394494Y-150969463D01*
X105284180Y-150910498D01*
X105164482Y-150874188D01*
X105040000Y-150861928D01*
X104425750Y-150865000D01*
X104267000Y-151023750D01*
X104013000Y-151023750D01*
X103854250Y-150865000D01*
X103240000Y-150861928D01*
X103115518Y-150874188D01*
X102995820Y-150910498D01*
X102885506Y-150969463D01*
X102788815Y-151048815D01*
X102709463Y-151145506D01*
X102650498Y-151255820D01*
X102614188Y-151375518D01*
X102601928Y-151500000D01*
X102602055Y-151525394D01*
X102445913Y-151369252D01*
X102228570Y-151224028D01*
X101987072Y-151123996D01*
X101730698Y-151073000D01*
X101469302Y-151073000D01*
X101212928Y-151123996D01*
X100971430Y-151224028D01*
X100754087Y-151369252D01*
X100569252Y-151554087D01*
X100424028Y-151771430D01*
X100323996Y-152012928D01*
X100273000Y-152269302D01*
X92184948Y-152269302D01*
X92340000Y-152114250D01*
X92343072Y-151500000D01*
X92330812Y-151375518D01*
X92294502Y-151255820D01*
X92235537Y-151145506D01*
X92156185Y-151048815D01*
X92059494Y-150969463D01*
X91949180Y-150910498D01*
X91829482Y-150874188D01*
X91705000Y-150861928D01*
X91090750Y-150865000D01*
X90932000Y-151023750D01*
X90678000Y-151023750D01*
X90519250Y-150865000D01*
X89905000Y-150861928D01*
X89780518Y-150874188D01*
X89660820Y-150910498D01*
X89550506Y-150969463D01*
X89453815Y-151048815D01*
X89374463Y-151145506D01*
X89315498Y-151255820D01*
X89279188Y-151375518D01*
X89266928Y-151500000D01*
X89267055Y-151525394D01*
X89110913Y-151369252D01*
X88893570Y-151224028D01*
X88652072Y-151123996D01*
X88395698Y-151073000D01*
X88134302Y-151073000D01*
X87877928Y-151123996D01*
X87636430Y-151224028D01*
X87419087Y-151369252D01*
X87234252Y-151554087D01*
X87089028Y-151771430D01*
X86988996Y-152012928D01*
X86938000Y-152269302D01*
X81268525Y-152269302D01*
X81293178Y-152019000D01*
X81268522Y-151768664D01*
X81195502Y-151527949D01*
X81076924Y-151306104D01*
X80917344Y-151111656D01*
X80722896Y-150952076D01*
X80501051Y-150833498D01*
X80260336Y-150760478D01*
X80143798Y-150749000D01*
X80260336Y-150737522D01*
X80501051Y-150664502D01*
X80722896Y-150545924D01*
X80917344Y-150386344D01*
X81076924Y-150191896D01*
X81195502Y-149970051D01*
X81268522Y-149729336D01*
X81293178Y-149479000D01*
X81268522Y-149228664D01*
X81195502Y-148987949D01*
X81076924Y-148766104D01*
X80917344Y-148571656D01*
X80722896Y-148412076D01*
X80501051Y-148293498D01*
X80260336Y-148220478D01*
X80235847Y-148218066D01*
X80860000Y-148218066D01*
X80943707Y-148209822D01*
X81024196Y-148185405D01*
X81098376Y-148145755D01*
X81163395Y-148092395D01*
X81216755Y-148027376D01*
X81256405Y-147953196D01*
X81280822Y-147872707D01*
X81289066Y-147789000D01*
X81289066Y-146089000D01*
X81280822Y-146005293D01*
X81256405Y-145924804D01*
X81253465Y-145919302D01*
X86938000Y-145919302D01*
X86938000Y-146180698D01*
X86988996Y-146437072D01*
X87089028Y-146678570D01*
X87234252Y-146895913D01*
X87419087Y-147080748D01*
X87636430Y-147225972D01*
X87877928Y-147326004D01*
X88134302Y-147377000D01*
X88395698Y-147377000D01*
X88652072Y-147326004D01*
X88893570Y-147225972D01*
X89110913Y-147080748D01*
X89267055Y-146924606D01*
X89266928Y-146950000D01*
X89279188Y-147074482D01*
X89315498Y-147194180D01*
X89374463Y-147304494D01*
X89453815Y-147401185D01*
X89550506Y-147480537D01*
X89660820Y-147539502D01*
X89780518Y-147575812D01*
X89905000Y-147588072D01*
X90519250Y-147585000D01*
X90678000Y-147426250D01*
X90678000Y-146177000D01*
X90932000Y-146177000D01*
X90932000Y-147426250D01*
X91090750Y-147585000D01*
X91705000Y-147588072D01*
X91829482Y-147575812D01*
X91949180Y-147539502D01*
X92059494Y-147480537D01*
X92156185Y-147401185D01*
X92235537Y-147304494D01*
X92294502Y-147194180D01*
X92330812Y-147074482D01*
X92343072Y-146950000D01*
X92341094Y-146554302D01*
X100273000Y-146554302D01*
X100273000Y-146815698D01*
X100323996Y-147072072D01*
X100424028Y-147313570D01*
X100569252Y-147530913D01*
X100754087Y-147715748D01*
X100971430Y-147860972D01*
X101212928Y-147961004D01*
X101469302Y-148012000D01*
X101730698Y-148012000D01*
X101987072Y-147961004D01*
X102228570Y-147860972D01*
X102445913Y-147715748D01*
X102602055Y-147559606D01*
X102601928Y-147585000D01*
X102614188Y-147709482D01*
X102650498Y-147829180D01*
X102709463Y-147939494D01*
X102788815Y-148036185D01*
X102885506Y-148115537D01*
X102995820Y-148174502D01*
X103115518Y-148210812D01*
X103240000Y-148223072D01*
X103854250Y-148220000D01*
X104013000Y-148061250D01*
X104013000Y-146812000D01*
X104267000Y-146812000D01*
X104267000Y-148061250D01*
X104425750Y-148220000D01*
X105040000Y-148223072D01*
X105164482Y-148210812D01*
X105284180Y-148174502D01*
X105394494Y-148115537D01*
X105491185Y-148036185D01*
X105570537Y-147939494D01*
X105629502Y-147829180D01*
X105665812Y-147709482D01*
X105678072Y-147585000D01*
X105675000Y-146970750D01*
X105516250Y-146812000D01*
X104267000Y-146812000D01*
X104013000Y-146812000D01*
X103993000Y-146812000D01*
X103993000Y-146558000D01*
X104013000Y-146558000D01*
X104013000Y-145308750D01*
X104267000Y-145308750D01*
X104267000Y-146558000D01*
X105516250Y-146558000D01*
X105675000Y-146399250D01*
X105678072Y-145785000D01*
X105665812Y-145660518D01*
X105629502Y-145540820D01*
X105570537Y-145430506D01*
X105491185Y-145333815D01*
X105394494Y-145254463D01*
X105284180Y-145195498D01*
X105164482Y-145159188D01*
X105040000Y-145146928D01*
X104425750Y-145150000D01*
X104267000Y-145308750D01*
X104013000Y-145308750D01*
X103854250Y-145150000D01*
X103240000Y-145146928D01*
X103115518Y-145159188D01*
X102995820Y-145195498D01*
X102885506Y-145254463D01*
X102788815Y-145333815D01*
X102709463Y-145430506D01*
X102650498Y-145540820D01*
X102614188Y-145660518D01*
X102601928Y-145785000D01*
X102602055Y-145810394D01*
X102445913Y-145654252D01*
X102228570Y-145509028D01*
X101987072Y-145408996D01*
X101730698Y-145358000D01*
X101469302Y-145358000D01*
X101212928Y-145408996D01*
X100971430Y-145509028D01*
X100754087Y-145654252D01*
X100569252Y-145839087D01*
X100424028Y-146056430D01*
X100323996Y-146297928D01*
X100273000Y-146554302D01*
X92341094Y-146554302D01*
X92340000Y-146335750D01*
X92181250Y-146177000D01*
X90932000Y-146177000D01*
X90678000Y-146177000D01*
X90658000Y-146177000D01*
X90658000Y-145923000D01*
X90678000Y-145923000D01*
X90678000Y-144673750D01*
X90932000Y-144673750D01*
X90932000Y-145923000D01*
X92181250Y-145923000D01*
X92340000Y-145764250D01*
X92343072Y-145150000D01*
X92330812Y-145025518D01*
X92294502Y-144905820D01*
X92235537Y-144795506D01*
X92156185Y-144698815D01*
X92059494Y-144619463D01*
X91949180Y-144560498D01*
X91829482Y-144524188D01*
X91705000Y-144511928D01*
X91090750Y-144515000D01*
X90932000Y-144673750D01*
X90678000Y-144673750D01*
X90519250Y-144515000D01*
X89905000Y-144511928D01*
X89780518Y-144524188D01*
X89660820Y-144560498D01*
X89550506Y-144619463D01*
X89453815Y-144698815D01*
X89374463Y-144795506D01*
X89315498Y-144905820D01*
X89279188Y-145025518D01*
X89266928Y-145150000D01*
X89267055Y-145175394D01*
X89110913Y-145019252D01*
X88893570Y-144874028D01*
X88652072Y-144773996D01*
X88395698Y-144723000D01*
X88134302Y-144723000D01*
X87877928Y-144773996D01*
X87636430Y-144874028D01*
X87419087Y-145019252D01*
X87234252Y-145204087D01*
X87089028Y-145421430D01*
X86988996Y-145662928D01*
X86938000Y-145919302D01*
X81253465Y-145919302D01*
X81216755Y-145850624D01*
X81163395Y-145785605D01*
X81098376Y-145732245D01*
X81024196Y-145692595D01*
X80943707Y-145668178D01*
X80860000Y-145659934D01*
X79160000Y-145659934D01*
X79076293Y-145668178D01*
X78995804Y-145692595D01*
X78921624Y-145732245D01*
X78856605Y-145785605D01*
X78803245Y-145850624D01*
X78763595Y-145924804D01*
X78739178Y-146005293D01*
X78730934Y-146089000D01*
X78730934Y-146713153D01*
X78728522Y-146688664D01*
X78655502Y-146447949D01*
X78536924Y-146226104D01*
X78377344Y-146031656D01*
X78182896Y-145872076D01*
X77961051Y-145753498D01*
X77720336Y-145680478D01*
X77532726Y-145662000D01*
X77407274Y-145662000D01*
X77219664Y-145680478D01*
X76978949Y-145753498D01*
X76757104Y-145872076D01*
X76562656Y-146031656D01*
X76403076Y-146226104D01*
X76284498Y-146447949D01*
X76211478Y-146688664D01*
X76186822Y-146939000D01*
X76211478Y-147189336D01*
X76284498Y-147430051D01*
X76403076Y-147651896D01*
X76562656Y-147846344D01*
X76757104Y-148005924D01*
X76978949Y-148124502D01*
X77219664Y-148197522D01*
X77336202Y-148209000D01*
X77219664Y-148220478D01*
X76978949Y-148293498D01*
X76757104Y-148412076D01*
X76562656Y-148571656D01*
X76403076Y-148766104D01*
X76284498Y-148987949D01*
X76211478Y-149228664D01*
X76186822Y-149479000D01*
X76211478Y-149729336D01*
X76284498Y-149970051D01*
X76403076Y-150191896D01*
X76562656Y-150386344D01*
X76757104Y-150545924D01*
X76978949Y-150664502D01*
X77219664Y-150737522D01*
X77336202Y-150749000D01*
X77219664Y-150760478D01*
X76978949Y-150833498D01*
X76757104Y-150952076D01*
X76562656Y-151111656D01*
X76403076Y-151306104D01*
X76284498Y-151527949D01*
X76211478Y-151768664D01*
X76186822Y-152019000D01*
X76211478Y-152269336D01*
X76284498Y-152510051D01*
X76403076Y-152731896D01*
X76562656Y-152926344D01*
X76757104Y-153085924D01*
X76978949Y-153204502D01*
X77219664Y-153277522D01*
X77336202Y-153289000D01*
X77219664Y-153300478D01*
X76978949Y-153373498D01*
X76757104Y-153492076D01*
X76562656Y-153651656D01*
X76403076Y-153846104D01*
X76284498Y-154067949D01*
X76211478Y-154308664D01*
X76186822Y-154559000D01*
X76211478Y-154809336D01*
X76258768Y-154965231D01*
X75819000Y-155404999D01*
X75819000Y-142795413D01*
X84134192Y-142795413D01*
X84229956Y-143059814D01*
X84519571Y-143200704D01*
X84831108Y-143282384D01*
X85152595Y-143301718D01*
X85471675Y-143257961D01*
X85776088Y-143152795D01*
X85950044Y-143059814D01*
X86045808Y-142795413D01*
X90634192Y-142795413D01*
X90729956Y-143059814D01*
X91019571Y-143200704D01*
X91331108Y-143282384D01*
X91652595Y-143301718D01*
X91971675Y-143257961D01*
X92276088Y-143152795D01*
X92450044Y-143059814D01*
X92545808Y-142795413D01*
X94929192Y-142795413D01*
X95024956Y-143059814D01*
X95314571Y-143200704D01*
X95626108Y-143282384D01*
X95947595Y-143301718D01*
X96266675Y-143257961D01*
X96571088Y-143152795D01*
X96745044Y-143059814D01*
X96840808Y-142795413D01*
X101429192Y-142795413D01*
X101524956Y-143059814D01*
X101814571Y-143200704D01*
X102126108Y-143282384D01*
X102447595Y-143301718D01*
X102766675Y-143257961D01*
X103071088Y-143152795D01*
X103245044Y-143059814D01*
X103340808Y-142795413D01*
X105724192Y-142795413D01*
X105819956Y-143059814D01*
X106109571Y-143200704D01*
X106421108Y-143282384D01*
X106742595Y-143301718D01*
X107061675Y-143257961D01*
X107366088Y-143152795D01*
X107540044Y-143059814D01*
X107635808Y-142795413D01*
X112224192Y-142795413D01*
X112319956Y-143059814D01*
X112609571Y-143200704D01*
X112921108Y-143282384D01*
X113242595Y-143301718D01*
X113561675Y-143257961D01*
X113866088Y-143152795D01*
X114040044Y-143059814D01*
X114135808Y-142795413D01*
X116519192Y-142795413D01*
X116614956Y-143059814D01*
X116904571Y-143200704D01*
X117216108Y-143282384D01*
X117537595Y-143301718D01*
X117856675Y-143257961D01*
X118161088Y-143152795D01*
X118335044Y-143059814D01*
X118430808Y-142795413D01*
X123019192Y-142795413D01*
X123114956Y-143059814D01*
X123404571Y-143200704D01*
X123716108Y-143282384D01*
X124037595Y-143301718D01*
X124356675Y-143257961D01*
X124661088Y-143152795D01*
X124835044Y-143059814D01*
X124930808Y-142795413D01*
X127314192Y-142795413D01*
X127409956Y-143059814D01*
X127699571Y-143200704D01*
X128011108Y-143282384D01*
X128332595Y-143301718D01*
X128651675Y-143257961D01*
X128956088Y-143152795D01*
X129130044Y-143059814D01*
X129225808Y-142795413D01*
X133814192Y-142795413D01*
X133909956Y-143059814D01*
X134199571Y-143200704D01*
X134511108Y-143282384D01*
X134832595Y-143301718D01*
X135151675Y-143257961D01*
X135456088Y-143152795D01*
X135630044Y-143059814D01*
X135725808Y-142795413D01*
X134770000Y-141839605D01*
X133814192Y-142795413D01*
X129225808Y-142795413D01*
X128270000Y-141839605D01*
X127314192Y-142795413D01*
X124930808Y-142795413D01*
X123975000Y-141839605D01*
X123019192Y-142795413D01*
X118430808Y-142795413D01*
X117475000Y-141839605D01*
X116519192Y-142795413D01*
X114135808Y-142795413D01*
X113180000Y-141839605D01*
X112224192Y-142795413D01*
X107635808Y-142795413D01*
X106680000Y-141839605D01*
X105724192Y-142795413D01*
X103340808Y-142795413D01*
X102385000Y-141839605D01*
X101429192Y-142795413D01*
X96840808Y-142795413D01*
X95885000Y-141839605D01*
X94929192Y-142795413D01*
X92545808Y-142795413D01*
X91590000Y-141839605D01*
X90634192Y-142795413D01*
X86045808Y-142795413D01*
X85090000Y-141839605D01*
X84134192Y-142795413D01*
X75819000Y-142795413D01*
X75819000Y-141722595D01*
X83448282Y-141722595D01*
X83492039Y-142041675D01*
X83597205Y-142346088D01*
X83690186Y-142520044D01*
X83954587Y-142615808D01*
X84910395Y-141660000D01*
X85269605Y-141660000D01*
X86225413Y-142615808D01*
X86489814Y-142520044D01*
X86630704Y-142230429D01*
X86712384Y-141918892D01*
X86724189Y-141722595D01*
X89948282Y-141722595D01*
X89992039Y-142041675D01*
X90097205Y-142346088D01*
X90190186Y-142520044D01*
X90454587Y-142615808D01*
X91410395Y-141660000D01*
X91769605Y-141660000D01*
X92725413Y-142615808D01*
X92989814Y-142520044D01*
X93130704Y-142230429D01*
X93212384Y-141918892D01*
X93224189Y-141722595D01*
X94243282Y-141722595D01*
X94287039Y-142041675D01*
X94392205Y-142346088D01*
X94485186Y-142520044D01*
X94749587Y-142615808D01*
X95705395Y-141660000D01*
X96064605Y-141660000D01*
X97020413Y-142615808D01*
X97284814Y-142520044D01*
X97425704Y-142230429D01*
X97507384Y-141918892D01*
X97519189Y-141722595D01*
X100743282Y-141722595D01*
X100787039Y-142041675D01*
X100892205Y-142346088D01*
X100985186Y-142520044D01*
X101249587Y-142615808D01*
X102205395Y-141660000D01*
X102564605Y-141660000D01*
X103520413Y-142615808D01*
X103784814Y-142520044D01*
X103925704Y-142230429D01*
X104007384Y-141918892D01*
X104019189Y-141722595D01*
X105038282Y-141722595D01*
X105082039Y-142041675D01*
X105187205Y-142346088D01*
X105280186Y-142520044D01*
X105544587Y-142615808D01*
X106500395Y-141660000D01*
X106859605Y-141660000D01*
X107815413Y-142615808D01*
X108079814Y-142520044D01*
X108220704Y-142230429D01*
X108302384Y-141918892D01*
X108314189Y-141722595D01*
X111538282Y-141722595D01*
X111582039Y-142041675D01*
X111687205Y-142346088D01*
X111780186Y-142520044D01*
X112044587Y-142615808D01*
X113000395Y-141660000D01*
X113359605Y-141660000D01*
X114315413Y-142615808D01*
X114579814Y-142520044D01*
X114720704Y-142230429D01*
X114802384Y-141918892D01*
X114814189Y-141722595D01*
X115833282Y-141722595D01*
X115877039Y-142041675D01*
X115982205Y-142346088D01*
X116075186Y-142520044D01*
X116339587Y-142615808D01*
X117295395Y-141660000D01*
X117654605Y-141660000D01*
X118610413Y-142615808D01*
X118874814Y-142520044D01*
X119015704Y-142230429D01*
X119097384Y-141918892D01*
X119109189Y-141722595D01*
X122333282Y-141722595D01*
X122377039Y-142041675D01*
X122482205Y-142346088D01*
X122575186Y-142520044D01*
X122839587Y-142615808D01*
X123795395Y-141660000D01*
X124154605Y-141660000D01*
X125110413Y-142615808D01*
X125374814Y-142520044D01*
X125515704Y-142230429D01*
X125597384Y-141918892D01*
X125609189Y-141722595D01*
X126628282Y-141722595D01*
X126672039Y-142041675D01*
X126777205Y-142346088D01*
X126870186Y-142520044D01*
X127134587Y-142615808D01*
X128090395Y-141660000D01*
X128449605Y-141660000D01*
X129405413Y-142615808D01*
X129669814Y-142520044D01*
X129810704Y-142230429D01*
X129892384Y-141918892D01*
X129904189Y-141722595D01*
X133128282Y-141722595D01*
X133172039Y-142041675D01*
X133277205Y-142346088D01*
X133370186Y-142520044D01*
X133634587Y-142615808D01*
X134590395Y-141660000D01*
X134949605Y-141660000D01*
X135905413Y-142615808D01*
X136169814Y-142520044D01*
X136310704Y-142230429D01*
X136392384Y-141918892D01*
X136411718Y-141597405D01*
X136367961Y-141278325D01*
X136262795Y-140973912D01*
X136169814Y-140799956D01*
X135905413Y-140704192D01*
X134949605Y-141660000D01*
X134590395Y-141660000D01*
X133634587Y-140704192D01*
X133370186Y-140799956D01*
X133229296Y-141089571D01*
X133147616Y-141401108D01*
X133128282Y-141722595D01*
X129904189Y-141722595D01*
X129911718Y-141597405D01*
X129867961Y-141278325D01*
X129762795Y-140973912D01*
X129669814Y-140799956D01*
X129405413Y-140704192D01*
X128449605Y-141660000D01*
X128090395Y-141660000D01*
X127134587Y-140704192D01*
X126870186Y-140799956D01*
X126729296Y-141089571D01*
X126647616Y-141401108D01*
X126628282Y-141722595D01*
X125609189Y-141722595D01*
X125616718Y-141597405D01*
X125572961Y-141278325D01*
X125467795Y-140973912D01*
X125374814Y-140799956D01*
X125110413Y-140704192D01*
X124154605Y-141660000D01*
X123795395Y-141660000D01*
X122839587Y-140704192D01*
X122575186Y-140799956D01*
X122434296Y-141089571D01*
X122352616Y-141401108D01*
X122333282Y-141722595D01*
X119109189Y-141722595D01*
X119116718Y-141597405D01*
X119072961Y-141278325D01*
X118967795Y-140973912D01*
X118874814Y-140799956D01*
X118610413Y-140704192D01*
X117654605Y-141660000D01*
X117295395Y-141660000D01*
X116339587Y-140704192D01*
X116075186Y-140799956D01*
X115934296Y-141089571D01*
X115852616Y-141401108D01*
X115833282Y-141722595D01*
X114814189Y-141722595D01*
X114821718Y-141597405D01*
X114777961Y-141278325D01*
X114672795Y-140973912D01*
X114579814Y-140799956D01*
X114315413Y-140704192D01*
X113359605Y-141660000D01*
X113000395Y-141660000D01*
X112044587Y-140704192D01*
X111780186Y-140799956D01*
X111639296Y-141089571D01*
X111557616Y-141401108D01*
X111538282Y-141722595D01*
X108314189Y-141722595D01*
X108321718Y-141597405D01*
X108277961Y-141278325D01*
X108172795Y-140973912D01*
X108079814Y-140799956D01*
X107815413Y-140704192D01*
X106859605Y-141660000D01*
X106500395Y-141660000D01*
X105544587Y-140704192D01*
X105280186Y-140799956D01*
X105139296Y-141089571D01*
X105057616Y-141401108D01*
X105038282Y-141722595D01*
X104019189Y-141722595D01*
X104026718Y-141597405D01*
X103982961Y-141278325D01*
X103877795Y-140973912D01*
X103784814Y-140799956D01*
X103520413Y-140704192D01*
X102564605Y-141660000D01*
X102205395Y-141660000D01*
X101249587Y-140704192D01*
X100985186Y-140799956D01*
X100844296Y-141089571D01*
X100762616Y-141401108D01*
X100743282Y-141722595D01*
X97519189Y-141722595D01*
X97526718Y-141597405D01*
X97482961Y-141278325D01*
X97377795Y-140973912D01*
X97284814Y-140799956D01*
X97020413Y-140704192D01*
X96064605Y-141660000D01*
X95705395Y-141660000D01*
X94749587Y-140704192D01*
X94485186Y-140799956D01*
X94344296Y-141089571D01*
X94262616Y-141401108D01*
X94243282Y-141722595D01*
X93224189Y-141722595D01*
X93231718Y-141597405D01*
X93187961Y-141278325D01*
X93082795Y-140973912D01*
X92989814Y-140799956D01*
X92725413Y-140704192D01*
X91769605Y-141660000D01*
X91410395Y-141660000D01*
X90454587Y-140704192D01*
X90190186Y-140799956D01*
X90049296Y-141089571D01*
X89967616Y-141401108D01*
X89948282Y-141722595D01*
X86724189Y-141722595D01*
X86731718Y-141597405D01*
X86687961Y-141278325D01*
X86582795Y-140973912D01*
X86489814Y-140799956D01*
X86225413Y-140704192D01*
X85269605Y-141660000D01*
X84910395Y-141660000D01*
X83954587Y-140704192D01*
X83690186Y-140799956D01*
X83549296Y-141089571D01*
X83467616Y-141401108D01*
X83448282Y-141722595D01*
X75819000Y-141722595D01*
X75819000Y-140524587D01*
X84134192Y-140524587D01*
X85090000Y-141480395D01*
X86045808Y-140524587D01*
X90634192Y-140524587D01*
X91590000Y-141480395D01*
X92545808Y-140524587D01*
X94929192Y-140524587D01*
X95885000Y-141480395D01*
X96840808Y-140524587D01*
X101429192Y-140524587D01*
X102385000Y-141480395D01*
X103340808Y-140524587D01*
X105724192Y-140524587D01*
X106680000Y-141480395D01*
X107635808Y-140524587D01*
X112224192Y-140524587D01*
X113180000Y-141480395D01*
X114135808Y-140524587D01*
X116519192Y-140524587D01*
X117475000Y-141480395D01*
X118430808Y-140524587D01*
X123019192Y-140524587D01*
X123975000Y-141480395D01*
X124930808Y-140524587D01*
X127314192Y-140524587D01*
X128270000Y-141480395D01*
X129225808Y-140524587D01*
X133814192Y-140524587D01*
X134770000Y-141480395D01*
X135725808Y-140524587D01*
X135630044Y-140260186D01*
X135340429Y-140119296D01*
X135028892Y-140037616D01*
X134707405Y-140018282D01*
X134388325Y-140062039D01*
X134083912Y-140167205D01*
X133909956Y-140260186D01*
X133814192Y-140524587D01*
X129225808Y-140524587D01*
X129130044Y-140260186D01*
X128840429Y-140119296D01*
X128528892Y-140037616D01*
X128207405Y-140018282D01*
X127888325Y-140062039D01*
X127583912Y-140167205D01*
X127409956Y-140260186D01*
X127314192Y-140524587D01*
X124930808Y-140524587D01*
X124835044Y-140260186D01*
X124545429Y-140119296D01*
X124233892Y-140037616D01*
X123912405Y-140018282D01*
X123593325Y-140062039D01*
X123288912Y-140167205D01*
X123114956Y-140260186D01*
X123019192Y-140524587D01*
X118430808Y-140524587D01*
X118335044Y-140260186D01*
X118045429Y-140119296D01*
X117733892Y-140037616D01*
X117412405Y-140018282D01*
X117093325Y-140062039D01*
X116788912Y-140167205D01*
X116614956Y-140260186D01*
X116519192Y-140524587D01*
X114135808Y-140524587D01*
X114040044Y-140260186D01*
X113750429Y-140119296D01*
X113438892Y-140037616D01*
X113117405Y-140018282D01*
X112798325Y-140062039D01*
X112493912Y-140167205D01*
X112319956Y-140260186D01*
X112224192Y-140524587D01*
X107635808Y-140524587D01*
X107540044Y-140260186D01*
X107250429Y-140119296D01*
X106938892Y-140037616D01*
X106617405Y-140018282D01*
X106298325Y-140062039D01*
X105993912Y-140167205D01*
X105819956Y-140260186D01*
X105724192Y-140524587D01*
X103340808Y-140524587D01*
X103245044Y-140260186D01*
X102955429Y-140119296D01*
X102643892Y-140037616D01*
X102322405Y-140018282D01*
X102003325Y-140062039D01*
X101698912Y-140167205D01*
X101524956Y-140260186D01*
X101429192Y-140524587D01*
X96840808Y-140524587D01*
X96745044Y-140260186D01*
X96455429Y-140119296D01*
X96143892Y-140037616D01*
X95822405Y-140018282D01*
X95503325Y-140062039D01*
X95198912Y-140167205D01*
X95024956Y-140260186D01*
X94929192Y-140524587D01*
X92545808Y-140524587D01*
X92450044Y-140260186D01*
X92160429Y-140119296D01*
X91848892Y-140037616D01*
X91527405Y-140018282D01*
X91208325Y-140062039D01*
X90903912Y-140167205D01*
X90729956Y-140260186D01*
X90634192Y-140524587D01*
X86045808Y-140524587D01*
X85950044Y-140260186D01*
X85660429Y-140119296D01*
X85348892Y-140037616D01*
X85027405Y-140018282D01*
X84708325Y-140062039D01*
X84403912Y-140167205D01*
X84229956Y-140260186D01*
X84134192Y-140524587D01*
X75819000Y-140524587D01*
X75819000Y-137019453D01*
X83663000Y-137019453D01*
X83663000Y-137300547D01*
X83717838Y-137576241D01*
X83825409Y-137835938D01*
X83981576Y-138069660D01*
X84180340Y-138268424D01*
X84414062Y-138424591D01*
X84673759Y-138532162D01*
X84949453Y-138587000D01*
X85230547Y-138587000D01*
X85506241Y-138532162D01*
X85765938Y-138424591D01*
X85999660Y-138268424D01*
X86198424Y-138069660D01*
X86354591Y-137835938D01*
X86462162Y-137576241D01*
X86517000Y-137300547D01*
X86517000Y-137019453D01*
X90163000Y-137019453D01*
X90163000Y-137300547D01*
X90217838Y-137576241D01*
X90325409Y-137835938D01*
X90481576Y-138069660D01*
X90680340Y-138268424D01*
X90914062Y-138424591D01*
X91173759Y-138532162D01*
X91449453Y-138587000D01*
X91730547Y-138587000D01*
X92006241Y-138532162D01*
X92265938Y-138424591D01*
X92499660Y-138268424D01*
X92698424Y-138069660D01*
X92854591Y-137835938D01*
X92962162Y-137576241D01*
X93017000Y-137300547D01*
X93017000Y-137019453D01*
X94458000Y-137019453D01*
X94458000Y-137300547D01*
X94512838Y-137576241D01*
X94620409Y-137835938D01*
X94776576Y-138069660D01*
X94975340Y-138268424D01*
X95209062Y-138424591D01*
X95468759Y-138532162D01*
X95744453Y-138587000D01*
X96025547Y-138587000D01*
X96301241Y-138532162D01*
X96560938Y-138424591D01*
X96794660Y-138268424D01*
X96993424Y-138069660D01*
X97149591Y-137835938D01*
X97257162Y-137576241D01*
X97312000Y-137300547D01*
X97312000Y-137019453D01*
X100958000Y-137019453D01*
X100958000Y-137300547D01*
X101012838Y-137576241D01*
X101120409Y-137835938D01*
X101276576Y-138069660D01*
X101475340Y-138268424D01*
X101709062Y-138424591D01*
X101968759Y-138532162D01*
X102244453Y-138587000D01*
X102525547Y-138587000D01*
X102801241Y-138532162D01*
X103060938Y-138424591D01*
X103294660Y-138268424D01*
X103493424Y-138069660D01*
X103649591Y-137835938D01*
X103757162Y-137576241D01*
X103812000Y-137300547D01*
X103812000Y-137019453D01*
X105253000Y-137019453D01*
X105253000Y-137300547D01*
X105307838Y-137576241D01*
X105415409Y-137835938D01*
X105571576Y-138069660D01*
X105770340Y-138268424D01*
X106004062Y-138424591D01*
X106263759Y-138532162D01*
X106539453Y-138587000D01*
X106820547Y-138587000D01*
X107096241Y-138532162D01*
X107355938Y-138424591D01*
X107589660Y-138268424D01*
X107788424Y-138069660D01*
X107944591Y-137835938D01*
X108052162Y-137576241D01*
X108107000Y-137300547D01*
X108107000Y-137019453D01*
X111753000Y-137019453D01*
X111753000Y-137300547D01*
X111807838Y-137576241D01*
X111915409Y-137835938D01*
X112071576Y-138069660D01*
X112270340Y-138268424D01*
X112504062Y-138424591D01*
X112763759Y-138532162D01*
X113039453Y-138587000D01*
X113320547Y-138587000D01*
X113596241Y-138532162D01*
X113855938Y-138424591D01*
X114089660Y-138268424D01*
X114288424Y-138069660D01*
X114444591Y-137835938D01*
X114552162Y-137576241D01*
X114607000Y-137300547D01*
X114607000Y-137019453D01*
X116048000Y-137019453D01*
X116048000Y-137300547D01*
X116102838Y-137576241D01*
X116210409Y-137835938D01*
X116366576Y-138069660D01*
X116565340Y-138268424D01*
X116799062Y-138424591D01*
X117058759Y-138532162D01*
X117334453Y-138587000D01*
X117615547Y-138587000D01*
X117891241Y-138532162D01*
X118150938Y-138424591D01*
X118384660Y-138268424D01*
X118583424Y-138069660D01*
X118739591Y-137835938D01*
X118847162Y-137576241D01*
X118902000Y-137300547D01*
X118902000Y-137019453D01*
X122548000Y-137019453D01*
X122548000Y-137300547D01*
X122602838Y-137576241D01*
X122710409Y-137835938D01*
X122866576Y-138069660D01*
X123065340Y-138268424D01*
X123299062Y-138424591D01*
X123558759Y-138532162D01*
X123834453Y-138587000D01*
X124115547Y-138587000D01*
X124391241Y-138532162D01*
X124650938Y-138424591D01*
X124884660Y-138268424D01*
X125083424Y-138069660D01*
X125239591Y-137835938D01*
X125347162Y-137576241D01*
X125402000Y-137300547D01*
X125402000Y-137019453D01*
X126843000Y-137019453D01*
X126843000Y-137300547D01*
X126897838Y-137576241D01*
X127005409Y-137835938D01*
X127161576Y-138069660D01*
X127360340Y-138268424D01*
X127594062Y-138424591D01*
X127853759Y-138532162D01*
X128129453Y-138587000D01*
X128410547Y-138587000D01*
X128686241Y-138532162D01*
X128945938Y-138424591D01*
X129179660Y-138268424D01*
X129378424Y-138069660D01*
X129534591Y-137835938D01*
X129642162Y-137576241D01*
X129697000Y-137300547D01*
X129697000Y-137019453D01*
X133343000Y-137019453D01*
X133343000Y-137300547D01*
X133397838Y-137576241D01*
X133505409Y-137835938D01*
X133661576Y-138069660D01*
X133860340Y-138268424D01*
X134094062Y-138424591D01*
X134353759Y-138532162D01*
X134629453Y-138587000D01*
X134910547Y-138587000D01*
X135186241Y-138532162D01*
X135445938Y-138424591D01*
X135679660Y-138268424D01*
X135878424Y-138069660D01*
X136034591Y-137835938D01*
X136142162Y-137576241D01*
X136197000Y-137300547D01*
X136197000Y-137019453D01*
X136142162Y-136743759D01*
X136034591Y-136484062D01*
X135878424Y-136250340D01*
X135679660Y-136051576D01*
X135445938Y-135895409D01*
X135186241Y-135787838D01*
X134910547Y-135733000D01*
X134629453Y-135733000D01*
X134353759Y-135787838D01*
X134094062Y-135895409D01*
X133860340Y-136051576D01*
X133661576Y-136250340D01*
X133505409Y-136484062D01*
X133397838Y-136743759D01*
X133343000Y-137019453D01*
X129697000Y-137019453D01*
X129642162Y-136743759D01*
X129534591Y-136484062D01*
X129378424Y-136250340D01*
X129179660Y-136051576D01*
X128945938Y-135895409D01*
X128686241Y-135787838D01*
X128410547Y-135733000D01*
X128129453Y-135733000D01*
X127853759Y-135787838D01*
X127594062Y-135895409D01*
X127360340Y-136051576D01*
X127161576Y-136250340D01*
X127005409Y-136484062D01*
X126897838Y-136743759D01*
X126843000Y-137019453D01*
X125402000Y-137019453D01*
X125347162Y-136743759D01*
X125239591Y-136484062D01*
X125083424Y-136250340D01*
X124884660Y-136051576D01*
X124650938Y-135895409D01*
X124391241Y-135787838D01*
X124115547Y-135733000D01*
X123834453Y-135733000D01*
X123558759Y-135787838D01*
X123299062Y-135895409D01*
X123065340Y-136051576D01*
X122866576Y-136250340D01*
X122710409Y-136484062D01*
X122602838Y-136743759D01*
X122548000Y-137019453D01*
X118902000Y-137019453D01*
X118847162Y-136743759D01*
X118739591Y-136484062D01*
X118583424Y-136250340D01*
X118384660Y-136051576D01*
X118150938Y-135895409D01*
X117891241Y-135787838D01*
X117615547Y-135733000D01*
X117334453Y-135733000D01*
X117058759Y-135787838D01*
X116799062Y-135895409D01*
X116565340Y-136051576D01*
X116366576Y-136250340D01*
X116210409Y-136484062D01*
X116102838Y-136743759D01*
X116048000Y-137019453D01*
X114607000Y-137019453D01*
X114552162Y-136743759D01*
X114444591Y-136484062D01*
X114288424Y-136250340D01*
X114089660Y-136051576D01*
X113855938Y-135895409D01*
X113596241Y-135787838D01*
X113320547Y-135733000D01*
X113039453Y-135733000D01*
X112763759Y-135787838D01*
X112504062Y-135895409D01*
X112270340Y-136051576D01*
X112071576Y-136250340D01*
X111915409Y-136484062D01*
X111807838Y-136743759D01*
X111753000Y-137019453D01*
X108107000Y-137019453D01*
X108052162Y-136743759D01*
X107944591Y-136484062D01*
X107788424Y-136250340D01*
X107589660Y-136051576D01*
X107355938Y-135895409D01*
X107096241Y-135787838D01*
X106820547Y-135733000D01*
X106539453Y-135733000D01*
X106263759Y-135787838D01*
X106004062Y-135895409D01*
X105770340Y-136051576D01*
X105571576Y-136250340D01*
X105415409Y-136484062D01*
X105307838Y-136743759D01*
X105253000Y-137019453D01*
X103812000Y-137019453D01*
X103757162Y-136743759D01*
X103649591Y-136484062D01*
X103493424Y-136250340D01*
X103294660Y-136051576D01*
X103060938Y-135895409D01*
X102801241Y-135787838D01*
X102525547Y-135733000D01*
X102244453Y-135733000D01*
X101968759Y-135787838D01*
X101709062Y-135895409D01*
X101475340Y-136051576D01*
X101276576Y-136250340D01*
X101120409Y-136484062D01*
X101012838Y-136743759D01*
X100958000Y-137019453D01*
X97312000Y-137019453D01*
X97257162Y-136743759D01*
X97149591Y-136484062D01*
X96993424Y-136250340D01*
X96794660Y-136051576D01*
X96560938Y-135895409D01*
X96301241Y-135787838D01*
X96025547Y-135733000D01*
X95744453Y-135733000D01*
X95468759Y-135787838D01*
X95209062Y-135895409D01*
X94975340Y-136051576D01*
X94776576Y-136250340D01*
X94620409Y-136484062D01*
X94512838Y-136743759D01*
X94458000Y-137019453D01*
X93017000Y-137019453D01*
X92962162Y-136743759D01*
X92854591Y-136484062D01*
X92698424Y-136250340D01*
X92499660Y-136051576D01*
X92265938Y-135895409D01*
X92006241Y-135787838D01*
X91730547Y-135733000D01*
X91449453Y-135733000D01*
X91173759Y-135787838D01*
X90914062Y-135895409D01*
X90680340Y-136051576D01*
X90481576Y-136250340D01*
X90325409Y-136484062D01*
X90217838Y-136743759D01*
X90163000Y-137019453D01*
X86517000Y-137019453D01*
X86462162Y-136743759D01*
X86354591Y-136484062D01*
X86198424Y-136250340D01*
X85999660Y-136051576D01*
X85765938Y-135895409D01*
X85506241Y-135787838D01*
X85230547Y-135733000D01*
X84949453Y-135733000D01*
X84673759Y-135787838D01*
X84414062Y-135895409D01*
X84180340Y-136051576D01*
X83981576Y-136250340D01*
X83825409Y-136484062D01*
X83717838Y-136743759D01*
X83663000Y-137019453D01*
X75819000Y-137019453D01*
X75819000Y-132270417D01*
X173101000Y-132207083D01*
X173101000Y-171831000D01*
M02*
