M48
; DRILL file {KiCad (5.1.4)-1} date 08.07.2020 19:37:24
; FORMAT={-:-/ absolute / metric / decimal}
; #@! TF.CreationDate,2020-07-08T19:37:24+02:00
; #@! TF.GenerationSoftware,Kicad,Pcbnew,(5.1.4)-1
; #@! TF.FileFunction,Plated,1,2,PTH
FMAT,2
METRIC
T1C0.300
T2C0.900
T3C1.000
T4C1.100
%
G90
G05
T1
X76.74Y-167.65
X79.248Y-165.1
X82.469Y-157.099
X85.12Y-159.66
X86.106Y-158.75
X88.011Y-158.75
X88.011Y-165.1
X88.28Y-171.24
X92.13Y-162.56
X92.13Y-163.83
X112.19Y-154.69
X113.14Y-155.68
X120.65Y-159.385
X125.14Y-149.24
X131.572Y-133.985
X141.478Y-138.493
X156.66Y-146.21
X156.718Y-140.208
X163.83Y-165.481
X164.338Y-155.257
T2
X140.335Y-160.655
X142.875Y-160.655
X148.59Y-154.94
X151.13Y-154.94
X140.335Y-149.225
X142.875Y-149.225
X101.6Y-163.83
X104.14Y-163.83
X148.59Y-166.37
X151.13Y-166.37
X140.335Y-166.37
X142.875Y-166.37
X88.265Y-146.05
X90.805Y-146.05
X148.59Y-149.225
X151.13Y-149.225
X140.335Y-154.94
X142.875Y-154.94
X101.6Y-158.115
X104.14Y-158.115
X101.6Y-146.685
X104.14Y-146.685
X101.6Y-169.545
X104.14Y-169.545
X148.59Y-160.655
X151.13Y-160.655
X101.6Y-152.4
X104.14Y-152.4
X88.265Y-152.4
X90.805Y-152.4
T3
X77.47Y-146.939
X77.47Y-149.479
X77.47Y-152.019
X77.47Y-154.559
X77.47Y-157.099
X80.01Y-146.939
X80.01Y-149.479
X80.01Y-152.019
X80.01Y-154.559
X80.01Y-157.099
X170.117Y-148.145
X170.117Y-150.685
X170.117Y-153.225
X170.117Y-155.766
T4
X95.885Y-137.16
X95.885Y-141.66
X102.385Y-137.16
X102.385Y-141.66
X85.09Y-137.16
X85.09Y-141.66
X91.59Y-137.16
X91.59Y-141.66
X128.27Y-137.16
X128.27Y-141.66
X134.77Y-137.16
X134.77Y-141.66
X106.68Y-137.16
X106.68Y-141.66
X113.18Y-137.16
X113.18Y-141.66
X117.475Y-137.16
X117.475Y-141.66
X123.975Y-137.16
X123.975Y-141.66
T0
M30
