M48
; DRILL file {KiCad (5.1.4)-1} date 08.07.2020 19:24:37
; FORMAT={-:-/ absolute / metric / decimal}
; #@! TF.CreationDate,2020-07-08T19:24:37+02:00
; #@! TF.GenerationSoftware,Kicad,Pcbnew,(5.1.4)-1
; #@! TF.FileFunction,Plated,1,2,PTH
FMAT,2
METRIC
T1C0.300
T2C0.400
T3C0.800
T4C0.900
T5C0.990
T6C1.000
T7C1.300
T8C1.400
%
G90
G05
T1
X76.81Y-54.81
X76.81Y-59.18
X80.19Y-54.47
X80.235Y-61.595
X80.235Y-63.485
X80.61Y-66.04
X80.61Y-74.36
X83.82Y-107.315
X86.36Y-107.315
X86.63Y-58.56
X87.26Y-54.59
X88.165Y-62.545
X88.9Y-68.58
X89.535Y-107.315
X89.57Y-54.58
X92.075Y-107.315
X95.885Y-107.315
X98.425Y-107.315
X99.06Y-66.34
X101.6Y-65.405
X101.6Y-107.315
X104.14Y-107.315
X104.74Y-72.39
X105.06Y-81.29
X105.08Y-75.34
X105.09Y-80.32
X105.11Y-76.37
X105.11Y-77.33
X105.11Y-79.37
X105.14Y-52.39
X105.15Y-51.63
X107.12Y-75.34
X107.12Y-76.37
X107.12Y-77.33
X107.17Y-79.37
X109.99Y-72.39
X113.05Y-86.71
X113.06Y-85.86
X113.07Y-84.94
X113.08Y-84.04
X113.09Y-82.09
X113.09Y-83.07
X115.14Y-54.61
X120.74Y-71.47
X121.92Y-69.5
X123.14Y-73.79
X125.12Y-62.33
X125.12Y-63.36
X125.12Y-64.33
X125.13Y-60.34
X125.13Y-61.33
X125.14Y-66.32
X125.15Y-65.35
X125.15Y-67.34
X129.53Y-57.13
X129.54Y-56.29
X134.43Y-67.355
X134.87Y-59.93
X137.56Y-59.93
X140.73Y-57.13
X141.6Y-56.3
X142.13Y-75.38
X142.71Y-80.99
X142.71Y-84.28
X142.93Y-72.46
X142.94Y-73.64
X143.14Y-76.18
X144.13Y-81.79
X144.13Y-85.33
X145.06Y-95.34
X145.415Y-66.04
X146.17Y-95.32
X147.11Y-80.34
X147.13Y-76.99
X147.13Y-78.33
X147.13Y-79.32
X147.13Y-82.59
X147.13Y-85.33
X149.41Y-96.36
X150.12Y-76.99
X150.13Y-78.33
X150.13Y-80.34
X150.14Y-79.32
X151.13Y-71.755
X152.4Y-95.25
X152.93Y-92.58
X153.67Y-73.8
X156.21Y-98.425
X158.07Y-73.66
X158.76Y-66.25
X163.83Y-91.62
X165.1Y-55.88
X169.59Y-68.34
T2
X81.28Y-100.33
X81.28Y-103.505
X83.82Y-100.33
X83.82Y-103.505
X86.995Y-100.33
X86.995Y-103.505
X89.535Y-100.33
X89.535Y-103.505
X93.345Y-100.33
X93.345Y-103.505
X95.885Y-100.33
X95.885Y-103.505
X99.06Y-100.33
X99.06Y-103.505
X101.6Y-100.33
X101.6Y-103.505
X111.125Y-100.33
X111.125Y-103.505
X113.665Y-100.33
X113.665Y-103.505
X118.745Y-100.33
X118.745Y-103.505
X121.285Y-100.33
X121.285Y-103.505
X126.365Y-100.33
X126.365Y-103.505
X128.905Y-100.33
X128.905Y-103.505
X133.35Y-100.33
X133.35Y-103.505
X135.89Y-100.33
X135.89Y-103.505
X137.105Y-126.325
X140.335Y-100.33
X140.335Y-103.505
X142.875Y-100.33
X142.875Y-103.505
X146.95Y-111.91
X156.845Y-102.235
T3
X108.585Y-108.585
T4
X113.665Y-118.11
X113.665Y-120.65
X116.205Y-118.11
X116.205Y-120.65
X118.745Y-118.11
X118.745Y-120.65
X157.48Y-58.42
X157.48Y-60.96
X160.02Y-58.42
X160.02Y-60.96
X162.56Y-58.42
X162.56Y-60.96
X165.1Y-58.42
X165.1Y-60.96
X167.64Y-58.42
X167.64Y-60.96
X125.095Y-118.11
X125.095Y-120.65
X127.635Y-118.11
X127.635Y-120.65
X130.175Y-118.11
X130.175Y-120.65
X84.455Y-118.11
X84.455Y-120.65
X86.995Y-118.11
X86.995Y-120.65
X89.535Y-118.11
X89.535Y-120.65
X92.075Y-118.11
X92.075Y-120.65
X94.615Y-118.11
X94.615Y-120.65
X97.155Y-118.11
X97.155Y-120.65
X99.695Y-118.11
X99.695Y-120.65
X102.235Y-118.11
X102.235Y-120.65
X106.045Y-58.42
X106.045Y-60.96
X108.585Y-58.42
X108.585Y-60.96
X111.125Y-58.42
X111.125Y-60.96
X113.665Y-58.42
X113.716Y-60.96
X146.05Y-58.42
X146.05Y-60.96
X148.59Y-58.42
X148.59Y-60.96
X151.13Y-58.42
X151.13Y-60.96
X95.25Y-58.42
X95.25Y-60.96
X97.79Y-58.42
X97.79Y-60.96
X100.33Y-58.42
X100.33Y-60.96
X139.065Y-118.11
X139.065Y-120.65
X141.605Y-118.11
X141.605Y-120.65
X144.145Y-118.11
X144.145Y-120.65
X146.685Y-118.11
X146.685Y-120.65
X149.225Y-118.11
X149.225Y-120.65
X151.765Y-118.11
X151.765Y-120.65
X154.305Y-118.11
X154.305Y-120.65
T5
X135.255Y-50.8
X139.755Y-50.8
T6
X170.18Y-85.725
X170.18Y-88.265
X170.18Y-90.805
X170.18Y-93.345
X77.47Y-84.455
X77.47Y-86.995
X77.47Y-89.535
X77.47Y-92.075
X77.47Y-94.615
X80.01Y-84.455
X80.01Y-86.995
X80.01Y-89.535
X80.01Y-92.075
X80.01Y-94.615
T7
X134.005Y-53.29
X141.015Y-53.29
T8
X161.37Y-120.65
X166.37Y-120.65
T0
M30
