G04 #@! TF.GenerationSoftware,KiCad,Pcbnew,(5.1.5)-3*
G04 #@! TF.CreationDate,2020-07-08T15:38:15+02:00*
G04 #@! TF.ProjectId,SBIO3,5342494f-332e-46b6-9963-61645f706362,rev?*
G04 #@! TF.SameCoordinates,Original*
G04 #@! TF.FileFunction,Copper,L2,Bot*
G04 #@! TF.FilePolarity,Positive*
%FSLAX46Y46*%
G04 Gerber Fmt 4.6, Leading zero omitted, Abs format (unit mm)*
G04 Created by KiCad (PCBNEW (5.1.5)-3) date 2020-07-08 15:38:15*
%MOMM*%
%LPD*%
G04 APERTURE LIST*
%ADD10O,1.700000X1.700000*%
%ADD11R,1.700000X1.700000*%
%ADD12C,1.800000*%
%ADD13R,1.800000X1.800000*%
%ADD14C,2.000000*%
%ADD15C,0.500000*%
%ADD16C,0.300000*%
%ADD17C,0.500000*%
%ADD18C,0.254000*%
G04 APERTURE END LIST*
D10*
X76800000Y-162979000D03*
X79340000Y-162979000D03*
X76800000Y-160439000D03*
X79340000Y-160439000D03*
X76800000Y-157899000D03*
X79340000Y-157899000D03*
X76800000Y-155359000D03*
X79340000Y-155359000D03*
X76800000Y-152819000D03*
D11*
X79340000Y-152819000D03*
D10*
X169446500Y-161645500D03*
X169446500Y-159105500D03*
X169446500Y-156565500D03*
D11*
X169446500Y-154025500D03*
D12*
X87595000Y-158280000D03*
D13*
X90135000Y-158280000D03*
D12*
X87595000Y-151930000D03*
D13*
X90135000Y-151930000D03*
D14*
X123305000Y-143040000D03*
X123305000Y-147540000D03*
X116805000Y-143040000D03*
X116805000Y-147540000D03*
X84420000Y-147540000D03*
X84420000Y-143040000D03*
X90920000Y-147540000D03*
X90920000Y-143040000D03*
X95215000Y-147540000D03*
X95215000Y-143040000D03*
X101715000Y-147540000D03*
X101715000Y-143040000D03*
X134100000Y-143040000D03*
X134100000Y-147540000D03*
X127600000Y-143040000D03*
X127600000Y-147540000D03*
X112510000Y-143040000D03*
X112510000Y-147540000D03*
X106010000Y-143040000D03*
X106010000Y-147540000D03*
D12*
X139665000Y-160820000D03*
D13*
X142205000Y-160820000D03*
X103470000Y-175425000D03*
D12*
X100930000Y-175425000D03*
X100930000Y-158280000D03*
D13*
X103470000Y-158280000D03*
D12*
X100930000Y-152565000D03*
D13*
X103470000Y-152565000D03*
X142205000Y-172250000D03*
D12*
X139665000Y-172250000D03*
D13*
X147920000Y-166535000D03*
D12*
X150460000Y-166535000D03*
X139665000Y-155105000D03*
D13*
X142205000Y-155105000D03*
D12*
X100930000Y-163995000D03*
D13*
X103470000Y-163995000D03*
X147920000Y-160820000D03*
D12*
X150460000Y-160820000D03*
D13*
X147920000Y-172250000D03*
D12*
X150460000Y-172250000D03*
D13*
X142205000Y-166535000D03*
D12*
X139665000Y-166535000D03*
X150460000Y-155105000D03*
D13*
X147920000Y-155105000D03*
D12*
X100930000Y-169710000D03*
D13*
X103470000Y-169710000D03*
D15*
X163160000Y-171361000D03*
X78578000Y-170980000D03*
X156048000Y-146088000D03*
X163668000Y-161137500D03*
X140808000Y-144373500D03*
X119980000Y-165265000D03*
X130902000Y-139865000D03*
X87341000Y-164630000D03*
X85436000Y-164630000D03*
X87341000Y-170980000D03*
X81799000Y-162979000D03*
X112470000Y-161560000D03*
X76070000Y-173530000D03*
X111520000Y-160570000D03*
X91460000Y-169710000D03*
X155990000Y-152090000D03*
X91460000Y-168440000D03*
X124470000Y-155120000D03*
X84450000Y-165540000D03*
X87610000Y-177120000D03*
D16*
X142205000Y-160820000D02*
X142205000Y-166535000D01*
X147920000Y-166535000D02*
X147920000Y-172250000D01*
X147920000Y-160820000D02*
X147920000Y-166535000D01*
X142205000Y-166535000D02*
X142205000Y-172250000D01*
D17*
X169446500Y-159105500D02*
X169446500Y-161645500D01*
X93056000Y-170980000D02*
X87341000Y-170980000D01*
X119980000Y-166725500D02*
X118265500Y-168440000D01*
X119980000Y-163296500D02*
X119980000Y-165265000D01*
X125314000Y-157962500D02*
X119980000Y-163296500D01*
X119980000Y-165265000D02*
X119980000Y-166725500D01*
X87341000Y-164630000D02*
X85436000Y-164630000D01*
X95596000Y-168440000D02*
X93056000Y-170980000D01*
X163795000Y-139865000D02*
X130902000Y-139865000D01*
X168557500Y-139865000D02*
X163795000Y-139865000D01*
X118265500Y-168440000D02*
X95596000Y-168440000D01*
X155159000Y-156565500D02*
X153762000Y-157962500D01*
X169446500Y-156565500D02*
X155159000Y-156565500D01*
X169446500Y-140754000D02*
X168557500Y-139865000D01*
X169446500Y-154025500D02*
X169446500Y-156565500D01*
X153762000Y-157962500D02*
X125314000Y-157962500D01*
X169446500Y-154025500D02*
X169446500Y-140754000D01*
D16*
X79340000Y-162979000D02*
X81799000Y-162979000D01*
X90421000Y-162979000D02*
X91840000Y-161560000D01*
X91840000Y-161560000D02*
X112470000Y-161560000D01*
X81799000Y-162979000D02*
X90421000Y-162979000D01*
X75480000Y-172940000D02*
X76070000Y-173530000D01*
X75480000Y-161770000D02*
X75480000Y-172940000D01*
X76800000Y-160439000D02*
X76800000Y-160450000D01*
X76800000Y-160450000D02*
X75480000Y-161770000D01*
X79340000Y-160439000D02*
X81399000Y-160439000D01*
X91910000Y-160570000D02*
X111520000Y-160570000D01*
X90170000Y-162310000D02*
X91910000Y-160570000D01*
X83270000Y-162310000D02*
X90170000Y-162310000D01*
X81399000Y-160439000D02*
X83270000Y-162310000D01*
X91460000Y-169710000D02*
X93330000Y-169710000D01*
X96200000Y-166840000D02*
X115330000Y-166840000D01*
X130080000Y-152090000D02*
X155990000Y-152090000D01*
X93330000Y-169710000D02*
X96200000Y-166840000D01*
X115330000Y-166840000D02*
X130080000Y-152090000D01*
X91460000Y-168440000D02*
X93700000Y-168440000D01*
X115080000Y-166190000D02*
X124470000Y-156800000D01*
X95950000Y-166190000D02*
X115080000Y-166190000D01*
X124470000Y-156800000D02*
X124470000Y-155120000D01*
X93700000Y-168440000D02*
X95950000Y-166190000D01*
X87050000Y-177120000D02*
X87610000Y-177120000D01*
X86450000Y-176520000D02*
X87050000Y-177120000D01*
X86450000Y-175930000D02*
X86450000Y-176520000D01*
X85770000Y-165540000D02*
X86450000Y-166220000D01*
X85180000Y-165540000D02*
X85770000Y-165540000D01*
X84450000Y-165540000D02*
X85180000Y-165540000D01*
X86450000Y-166220000D02*
X86450000Y-175930000D01*
D18*
G36*
X172558000Y-177837917D02*
G01*
X87747840Y-177782846D01*
X87807474Y-177770984D01*
X87930680Y-177719950D01*
X88041563Y-177645860D01*
X88135860Y-177551563D01*
X88209950Y-177440680D01*
X88260984Y-177317474D01*
X88287000Y-177186679D01*
X88287000Y-177053321D01*
X88260984Y-176922526D01*
X88209950Y-176799320D01*
X88135860Y-176688437D01*
X88041563Y-176594140D01*
X87930680Y-176520050D01*
X87807474Y-176469016D01*
X87676679Y-176443000D01*
X87543321Y-176443000D01*
X87412526Y-176469016D01*
X87289320Y-176520050D01*
X87275372Y-176529370D01*
X87027000Y-176280999D01*
X87027000Y-175294302D01*
X99603000Y-175294302D01*
X99603000Y-175555698D01*
X99653996Y-175812072D01*
X99754028Y-176053570D01*
X99899252Y-176270913D01*
X100084087Y-176455748D01*
X100301430Y-176600972D01*
X100542928Y-176701004D01*
X100799302Y-176752000D01*
X101060698Y-176752000D01*
X101317072Y-176701004D01*
X101558570Y-176600972D01*
X101775913Y-176455748D01*
X101932055Y-176299606D01*
X101931928Y-176325000D01*
X101944188Y-176449482D01*
X101980498Y-176569180D01*
X102039463Y-176679494D01*
X102118815Y-176776185D01*
X102215506Y-176855537D01*
X102325820Y-176914502D01*
X102445518Y-176950812D01*
X102570000Y-176963072D01*
X103184250Y-176960000D01*
X103343000Y-176801250D01*
X103343000Y-175552000D01*
X103597000Y-175552000D01*
X103597000Y-176801250D01*
X103755750Y-176960000D01*
X104370000Y-176963072D01*
X104494482Y-176950812D01*
X104614180Y-176914502D01*
X104724494Y-176855537D01*
X104821185Y-176776185D01*
X104900537Y-176679494D01*
X104959502Y-176569180D01*
X104995812Y-176449482D01*
X105008072Y-176325000D01*
X105005000Y-175710750D01*
X104846250Y-175552000D01*
X103597000Y-175552000D01*
X103343000Y-175552000D01*
X103323000Y-175552000D01*
X103323000Y-175298000D01*
X103343000Y-175298000D01*
X103343000Y-174048750D01*
X103597000Y-174048750D01*
X103597000Y-175298000D01*
X104846250Y-175298000D01*
X105005000Y-175139250D01*
X105008072Y-174525000D01*
X104995812Y-174400518D01*
X104959502Y-174280820D01*
X104900537Y-174170506D01*
X104821185Y-174073815D01*
X104724494Y-173994463D01*
X104614180Y-173935498D01*
X104494482Y-173899188D01*
X104370000Y-173886928D01*
X103755750Y-173890000D01*
X103597000Y-174048750D01*
X103343000Y-174048750D01*
X103184250Y-173890000D01*
X102570000Y-173886928D01*
X102445518Y-173899188D01*
X102325820Y-173935498D01*
X102215506Y-173994463D01*
X102118815Y-174073815D01*
X102039463Y-174170506D01*
X101980498Y-174280820D01*
X101944188Y-174400518D01*
X101931928Y-174525000D01*
X101932055Y-174550394D01*
X101775913Y-174394252D01*
X101558570Y-174249028D01*
X101317072Y-174148996D01*
X101060698Y-174098000D01*
X100799302Y-174098000D01*
X100542928Y-174148996D01*
X100301430Y-174249028D01*
X100084087Y-174394252D01*
X99899252Y-174579087D01*
X99754028Y-174796430D01*
X99653996Y-175037928D01*
X99603000Y-175294302D01*
X87027000Y-175294302D01*
X87027000Y-172119302D01*
X138338000Y-172119302D01*
X138338000Y-172380698D01*
X138388996Y-172637072D01*
X138489028Y-172878570D01*
X138634252Y-173095913D01*
X138819087Y-173280748D01*
X139036430Y-173425972D01*
X139277928Y-173526004D01*
X139534302Y-173577000D01*
X139795698Y-173577000D01*
X140052072Y-173526004D01*
X140293570Y-173425972D01*
X140510913Y-173280748D01*
X140667055Y-173124606D01*
X140666928Y-173150000D01*
X140679188Y-173274482D01*
X140715498Y-173394180D01*
X140774463Y-173504494D01*
X140853815Y-173601185D01*
X140950506Y-173680537D01*
X141060820Y-173739502D01*
X141180518Y-173775812D01*
X141305000Y-173788072D01*
X141919250Y-173785000D01*
X142078000Y-173626250D01*
X142078000Y-172377000D01*
X142332000Y-172377000D01*
X142332000Y-173626250D01*
X142490750Y-173785000D01*
X143105000Y-173788072D01*
X143229482Y-173775812D01*
X143349180Y-173739502D01*
X143459494Y-173680537D01*
X143556185Y-173601185D01*
X143635537Y-173504494D01*
X143694502Y-173394180D01*
X143730812Y-173274482D01*
X143743072Y-173150000D01*
X146381928Y-173150000D01*
X146394188Y-173274482D01*
X146430498Y-173394180D01*
X146489463Y-173504494D01*
X146568815Y-173601185D01*
X146665506Y-173680537D01*
X146775820Y-173739502D01*
X146895518Y-173775812D01*
X147020000Y-173788072D01*
X147634250Y-173785000D01*
X147793000Y-173626250D01*
X147793000Y-172377000D01*
X146543750Y-172377000D01*
X146385000Y-172535750D01*
X146381928Y-173150000D01*
X143743072Y-173150000D01*
X143740000Y-172535750D01*
X143581250Y-172377000D01*
X142332000Y-172377000D01*
X142078000Y-172377000D01*
X142058000Y-172377000D01*
X142058000Y-172123000D01*
X142078000Y-172123000D01*
X142078000Y-170873750D01*
X142332000Y-170873750D01*
X142332000Y-172123000D01*
X143581250Y-172123000D01*
X143740000Y-171964250D01*
X143743072Y-171350000D01*
X146381928Y-171350000D01*
X146385000Y-171964250D01*
X146543750Y-172123000D01*
X147793000Y-172123000D01*
X147793000Y-170873750D01*
X148047000Y-170873750D01*
X148047000Y-172123000D01*
X148067000Y-172123000D01*
X148067000Y-172377000D01*
X148047000Y-172377000D01*
X148047000Y-173626250D01*
X148205750Y-173785000D01*
X148820000Y-173788072D01*
X148944482Y-173775812D01*
X149064180Y-173739502D01*
X149174494Y-173680537D01*
X149271185Y-173601185D01*
X149350537Y-173504494D01*
X149409502Y-173394180D01*
X149445812Y-173274482D01*
X149458072Y-173150000D01*
X149457945Y-173124606D01*
X149614087Y-173280748D01*
X149831430Y-173425972D01*
X150072928Y-173526004D01*
X150329302Y-173577000D01*
X150590698Y-173577000D01*
X150847072Y-173526004D01*
X151088570Y-173425972D01*
X151305913Y-173280748D01*
X151490748Y-173095913D01*
X151635972Y-172878570D01*
X151736004Y-172637072D01*
X151787000Y-172380698D01*
X151787000Y-172119302D01*
X151736004Y-171862928D01*
X151635972Y-171621430D01*
X151490748Y-171404087D01*
X151305913Y-171219252D01*
X151088570Y-171074028D01*
X150847072Y-170973996D01*
X150590698Y-170923000D01*
X150329302Y-170923000D01*
X150072928Y-170973996D01*
X149831430Y-171074028D01*
X149614087Y-171219252D01*
X149457945Y-171375394D01*
X149458072Y-171350000D01*
X149445812Y-171225518D01*
X149409502Y-171105820D01*
X149350537Y-170995506D01*
X149271185Y-170898815D01*
X149174494Y-170819463D01*
X149064180Y-170760498D01*
X148944482Y-170724188D01*
X148820000Y-170711928D01*
X148205750Y-170715000D01*
X148047000Y-170873750D01*
X147793000Y-170873750D01*
X147634250Y-170715000D01*
X147020000Y-170711928D01*
X146895518Y-170724188D01*
X146775820Y-170760498D01*
X146665506Y-170819463D01*
X146568815Y-170898815D01*
X146489463Y-170995506D01*
X146430498Y-171105820D01*
X146394188Y-171225518D01*
X146381928Y-171350000D01*
X143743072Y-171350000D01*
X143730812Y-171225518D01*
X143694502Y-171105820D01*
X143635537Y-170995506D01*
X143556185Y-170898815D01*
X143459494Y-170819463D01*
X143349180Y-170760498D01*
X143229482Y-170724188D01*
X143105000Y-170711928D01*
X142490750Y-170715000D01*
X142332000Y-170873750D01*
X142078000Y-170873750D01*
X141919250Y-170715000D01*
X141305000Y-170711928D01*
X141180518Y-170724188D01*
X141060820Y-170760498D01*
X140950506Y-170819463D01*
X140853815Y-170898815D01*
X140774463Y-170995506D01*
X140715498Y-171105820D01*
X140679188Y-171225518D01*
X140666928Y-171350000D01*
X140667055Y-171375394D01*
X140510913Y-171219252D01*
X140293570Y-171074028D01*
X140052072Y-170973996D01*
X139795698Y-170923000D01*
X139534302Y-170923000D01*
X139277928Y-170973996D01*
X139036430Y-171074028D01*
X138819087Y-171219252D01*
X138634252Y-171404087D01*
X138489028Y-171621430D01*
X138388996Y-171862928D01*
X138338000Y-172119302D01*
X87027000Y-172119302D01*
X87027000Y-171582717D01*
X87051208Y-171592744D01*
X87080670Y-171608492D01*
X87112636Y-171618189D01*
X87143526Y-171630984D01*
X87176315Y-171637506D01*
X87208285Y-171647204D01*
X87241536Y-171650479D01*
X87274321Y-171657000D01*
X93022755Y-171657000D01*
X93056000Y-171660274D01*
X93089245Y-171657000D01*
X93089252Y-171657000D01*
X93188715Y-171647204D01*
X93316330Y-171608492D01*
X93433941Y-171545628D01*
X93537027Y-171461027D01*
X93558226Y-171435196D01*
X95876422Y-169117000D01*
X99739294Y-169117000D01*
X99653996Y-169322928D01*
X99603000Y-169579302D01*
X99603000Y-169840698D01*
X99653996Y-170097072D01*
X99754028Y-170338570D01*
X99899252Y-170555913D01*
X100084087Y-170740748D01*
X100301430Y-170885972D01*
X100542928Y-170986004D01*
X100799302Y-171037000D01*
X101060698Y-171037000D01*
X101317072Y-170986004D01*
X101558570Y-170885972D01*
X101775913Y-170740748D01*
X101932055Y-170584606D01*
X101931928Y-170610000D01*
X101944188Y-170734482D01*
X101980498Y-170854180D01*
X102039463Y-170964494D01*
X102118815Y-171061185D01*
X102215506Y-171140537D01*
X102325820Y-171199502D01*
X102445518Y-171235812D01*
X102570000Y-171248072D01*
X103184250Y-171245000D01*
X103343000Y-171086250D01*
X103343000Y-169837000D01*
X103597000Y-169837000D01*
X103597000Y-171086250D01*
X103755750Y-171245000D01*
X104370000Y-171248072D01*
X104494482Y-171235812D01*
X104614180Y-171199502D01*
X104724494Y-171140537D01*
X104821185Y-171061185D01*
X104900537Y-170964494D01*
X104959502Y-170854180D01*
X104995812Y-170734482D01*
X105008072Y-170610000D01*
X105005000Y-169995750D01*
X104846250Y-169837000D01*
X103597000Y-169837000D01*
X103343000Y-169837000D01*
X103323000Y-169837000D01*
X103323000Y-169583000D01*
X103343000Y-169583000D01*
X103343000Y-169563000D01*
X103597000Y-169563000D01*
X103597000Y-169583000D01*
X104846250Y-169583000D01*
X105005000Y-169424250D01*
X105006537Y-169117000D01*
X118232255Y-169117000D01*
X118265500Y-169120274D01*
X118298745Y-169117000D01*
X118298752Y-169117000D01*
X118398215Y-169107204D01*
X118525830Y-169068492D01*
X118643441Y-169005628D01*
X118746527Y-168921027D01*
X118767726Y-168895196D01*
X120435196Y-167227726D01*
X120461027Y-167206527D01*
X120545628Y-167103441D01*
X120608492Y-166985830D01*
X120647204Y-166858215D01*
X120657000Y-166758752D01*
X120657000Y-166758743D01*
X120660274Y-166725501D01*
X120657000Y-166692259D01*
X120657000Y-166404302D01*
X138338000Y-166404302D01*
X138338000Y-166665698D01*
X138388996Y-166922072D01*
X138489028Y-167163570D01*
X138634252Y-167380913D01*
X138819087Y-167565748D01*
X139036430Y-167710972D01*
X139277928Y-167811004D01*
X139534302Y-167862000D01*
X139795698Y-167862000D01*
X140052072Y-167811004D01*
X140293570Y-167710972D01*
X140510913Y-167565748D01*
X140667055Y-167409606D01*
X140666928Y-167435000D01*
X140679188Y-167559482D01*
X140715498Y-167679180D01*
X140774463Y-167789494D01*
X140853815Y-167886185D01*
X140950506Y-167965537D01*
X141060820Y-168024502D01*
X141180518Y-168060812D01*
X141305000Y-168073072D01*
X141919250Y-168070000D01*
X142078000Y-167911250D01*
X142078000Y-166662000D01*
X142332000Y-166662000D01*
X142332000Y-167911250D01*
X142490750Y-168070000D01*
X143105000Y-168073072D01*
X143229482Y-168060812D01*
X143349180Y-168024502D01*
X143459494Y-167965537D01*
X143556185Y-167886185D01*
X143635537Y-167789494D01*
X143694502Y-167679180D01*
X143730812Y-167559482D01*
X143743072Y-167435000D01*
X146381928Y-167435000D01*
X146394188Y-167559482D01*
X146430498Y-167679180D01*
X146489463Y-167789494D01*
X146568815Y-167886185D01*
X146665506Y-167965537D01*
X146775820Y-168024502D01*
X146895518Y-168060812D01*
X147020000Y-168073072D01*
X147634250Y-168070000D01*
X147793000Y-167911250D01*
X147793000Y-166662000D01*
X146543750Y-166662000D01*
X146385000Y-166820750D01*
X146381928Y-167435000D01*
X143743072Y-167435000D01*
X143740000Y-166820750D01*
X143581250Y-166662000D01*
X142332000Y-166662000D01*
X142078000Y-166662000D01*
X142058000Y-166662000D01*
X142058000Y-166408000D01*
X142078000Y-166408000D01*
X142078000Y-165158750D01*
X142332000Y-165158750D01*
X142332000Y-166408000D01*
X143581250Y-166408000D01*
X143740000Y-166249250D01*
X143743072Y-165635000D01*
X146381928Y-165635000D01*
X146385000Y-166249250D01*
X146543750Y-166408000D01*
X147793000Y-166408000D01*
X147793000Y-165158750D01*
X148047000Y-165158750D01*
X148047000Y-166408000D01*
X148067000Y-166408000D01*
X148067000Y-166662000D01*
X148047000Y-166662000D01*
X148047000Y-167911250D01*
X148205750Y-168070000D01*
X148820000Y-168073072D01*
X148944482Y-168060812D01*
X149064180Y-168024502D01*
X149174494Y-167965537D01*
X149271185Y-167886185D01*
X149350537Y-167789494D01*
X149409502Y-167679180D01*
X149445812Y-167559482D01*
X149458072Y-167435000D01*
X149457945Y-167409606D01*
X149614087Y-167565748D01*
X149831430Y-167710972D01*
X150072928Y-167811004D01*
X150329302Y-167862000D01*
X150590698Y-167862000D01*
X150847072Y-167811004D01*
X151088570Y-167710972D01*
X151305913Y-167565748D01*
X151490748Y-167380913D01*
X151635972Y-167163570D01*
X151736004Y-166922072D01*
X151787000Y-166665698D01*
X151787000Y-166404302D01*
X151736004Y-166147928D01*
X151635972Y-165906430D01*
X151490748Y-165689087D01*
X151305913Y-165504252D01*
X151088570Y-165359028D01*
X150847072Y-165258996D01*
X150590698Y-165208000D01*
X150329302Y-165208000D01*
X150072928Y-165258996D01*
X149831430Y-165359028D01*
X149614087Y-165504252D01*
X149457945Y-165660394D01*
X149458072Y-165635000D01*
X149445812Y-165510518D01*
X149409502Y-165390820D01*
X149350537Y-165280506D01*
X149271185Y-165183815D01*
X149174494Y-165104463D01*
X149064180Y-165045498D01*
X148944482Y-165009188D01*
X148820000Y-164996928D01*
X148205750Y-165000000D01*
X148047000Y-165158750D01*
X147793000Y-165158750D01*
X147634250Y-165000000D01*
X147020000Y-164996928D01*
X146895518Y-165009188D01*
X146775820Y-165045498D01*
X146665506Y-165104463D01*
X146568815Y-165183815D01*
X146489463Y-165280506D01*
X146430498Y-165390820D01*
X146394188Y-165510518D01*
X146381928Y-165635000D01*
X143743072Y-165635000D01*
X143730812Y-165510518D01*
X143694502Y-165390820D01*
X143635537Y-165280506D01*
X143556185Y-165183815D01*
X143459494Y-165104463D01*
X143349180Y-165045498D01*
X143229482Y-165009188D01*
X143105000Y-164996928D01*
X142490750Y-165000000D01*
X142332000Y-165158750D01*
X142078000Y-165158750D01*
X141919250Y-165000000D01*
X141305000Y-164996928D01*
X141180518Y-165009188D01*
X141060820Y-165045498D01*
X140950506Y-165104463D01*
X140853815Y-165183815D01*
X140774463Y-165280506D01*
X140715498Y-165390820D01*
X140679188Y-165510518D01*
X140666928Y-165635000D01*
X140667055Y-165660394D01*
X140510913Y-165504252D01*
X140293570Y-165359028D01*
X140052072Y-165258996D01*
X139795698Y-165208000D01*
X139534302Y-165208000D01*
X139277928Y-165258996D01*
X139036430Y-165359028D01*
X138819087Y-165504252D01*
X138634252Y-165689087D01*
X138489028Y-165906430D01*
X138388996Y-166147928D01*
X138338000Y-166404302D01*
X120657000Y-166404302D01*
X120657000Y-163576922D01*
X123544620Y-160689302D01*
X138338000Y-160689302D01*
X138338000Y-160950698D01*
X138388996Y-161207072D01*
X138489028Y-161448570D01*
X138634252Y-161665913D01*
X138819087Y-161850748D01*
X139036430Y-161995972D01*
X139277928Y-162096004D01*
X139534302Y-162147000D01*
X139795698Y-162147000D01*
X140052072Y-162096004D01*
X140293570Y-161995972D01*
X140510913Y-161850748D01*
X140667055Y-161694606D01*
X140666928Y-161720000D01*
X140679188Y-161844482D01*
X140715498Y-161964180D01*
X140774463Y-162074494D01*
X140853815Y-162171185D01*
X140950506Y-162250537D01*
X141060820Y-162309502D01*
X141180518Y-162345812D01*
X141305000Y-162358072D01*
X141919250Y-162355000D01*
X142078000Y-162196250D01*
X142078000Y-160947000D01*
X142332000Y-160947000D01*
X142332000Y-162196250D01*
X142490750Y-162355000D01*
X143105000Y-162358072D01*
X143229482Y-162345812D01*
X143349180Y-162309502D01*
X143459494Y-162250537D01*
X143556185Y-162171185D01*
X143635537Y-162074494D01*
X143694502Y-161964180D01*
X143730812Y-161844482D01*
X143743072Y-161720000D01*
X146381928Y-161720000D01*
X146394188Y-161844482D01*
X146430498Y-161964180D01*
X146489463Y-162074494D01*
X146568815Y-162171185D01*
X146665506Y-162250537D01*
X146775820Y-162309502D01*
X146895518Y-162345812D01*
X147020000Y-162358072D01*
X147634250Y-162355000D01*
X147793000Y-162196250D01*
X147793000Y-160947000D01*
X146543750Y-160947000D01*
X146385000Y-161105750D01*
X146381928Y-161720000D01*
X143743072Y-161720000D01*
X143740000Y-161105750D01*
X143581250Y-160947000D01*
X142332000Y-160947000D01*
X142078000Y-160947000D01*
X142058000Y-160947000D01*
X142058000Y-160693000D01*
X142078000Y-160693000D01*
X142078000Y-159443750D01*
X142332000Y-159443750D01*
X142332000Y-160693000D01*
X143581250Y-160693000D01*
X143740000Y-160534250D01*
X143743072Y-159920000D01*
X146381928Y-159920000D01*
X146385000Y-160534250D01*
X146543750Y-160693000D01*
X147793000Y-160693000D01*
X147793000Y-159443750D01*
X148047000Y-159443750D01*
X148047000Y-160693000D01*
X148067000Y-160693000D01*
X148067000Y-160947000D01*
X148047000Y-160947000D01*
X148047000Y-162196250D01*
X148205750Y-162355000D01*
X148820000Y-162358072D01*
X148944482Y-162345812D01*
X149064180Y-162309502D01*
X149174494Y-162250537D01*
X149271185Y-162171185D01*
X149350537Y-162074494D01*
X149409502Y-161964180D01*
X149445812Y-161844482D01*
X149458072Y-161720000D01*
X149457945Y-161694606D01*
X149614087Y-161850748D01*
X149831430Y-161995972D01*
X150072928Y-162096004D01*
X150329302Y-162147000D01*
X150590698Y-162147000D01*
X150847072Y-162096004D01*
X151073075Y-162002390D01*
X168005024Y-162002390D01*
X168049675Y-162149599D01*
X168174859Y-162412420D01*
X168348912Y-162645769D01*
X168565145Y-162840678D01*
X168815248Y-162989657D01*
X169089609Y-163086981D01*
X169319500Y-162966314D01*
X169319500Y-161772500D01*
X169573500Y-161772500D01*
X169573500Y-162966314D01*
X169803391Y-163086981D01*
X170077752Y-162989657D01*
X170327855Y-162840678D01*
X170544088Y-162645769D01*
X170718141Y-162412420D01*
X170843325Y-162149599D01*
X170887976Y-162002390D01*
X170766655Y-161772500D01*
X169573500Y-161772500D01*
X169319500Y-161772500D01*
X168126345Y-161772500D01*
X168005024Y-162002390D01*
X151073075Y-162002390D01*
X151088570Y-161995972D01*
X151305913Y-161850748D01*
X151490748Y-161665913D01*
X151635972Y-161448570D01*
X151736004Y-161207072D01*
X151787000Y-160950698D01*
X151787000Y-160689302D01*
X151736004Y-160432928D01*
X151635972Y-160191430D01*
X151490748Y-159974087D01*
X151305913Y-159789252D01*
X151088570Y-159644028D01*
X150847072Y-159543996D01*
X150590698Y-159493000D01*
X150329302Y-159493000D01*
X150072928Y-159543996D01*
X149831430Y-159644028D01*
X149614087Y-159789252D01*
X149457945Y-159945394D01*
X149458072Y-159920000D01*
X149445812Y-159795518D01*
X149409502Y-159675820D01*
X149350537Y-159565506D01*
X149271185Y-159468815D01*
X149263357Y-159462390D01*
X168005024Y-159462390D01*
X168049675Y-159609599D01*
X168174859Y-159872420D01*
X168348912Y-160105769D01*
X168565145Y-160300678D01*
X168690755Y-160375500D01*
X168565145Y-160450322D01*
X168348912Y-160645231D01*
X168174859Y-160878580D01*
X168049675Y-161141401D01*
X168005024Y-161288610D01*
X168126345Y-161518500D01*
X169319500Y-161518500D01*
X169319500Y-159232500D01*
X169573500Y-159232500D01*
X169573500Y-161518500D01*
X170766655Y-161518500D01*
X170887976Y-161288610D01*
X170843325Y-161141401D01*
X170718141Y-160878580D01*
X170544088Y-160645231D01*
X170327855Y-160450322D01*
X170202245Y-160375500D01*
X170327855Y-160300678D01*
X170544088Y-160105769D01*
X170718141Y-159872420D01*
X170843325Y-159609599D01*
X170887976Y-159462390D01*
X170766655Y-159232500D01*
X169573500Y-159232500D01*
X169319500Y-159232500D01*
X168126345Y-159232500D01*
X168005024Y-159462390D01*
X149263357Y-159462390D01*
X149174494Y-159389463D01*
X149064180Y-159330498D01*
X148944482Y-159294188D01*
X148820000Y-159281928D01*
X148205750Y-159285000D01*
X148047000Y-159443750D01*
X147793000Y-159443750D01*
X147634250Y-159285000D01*
X147020000Y-159281928D01*
X146895518Y-159294188D01*
X146775820Y-159330498D01*
X146665506Y-159389463D01*
X146568815Y-159468815D01*
X146489463Y-159565506D01*
X146430498Y-159675820D01*
X146394188Y-159795518D01*
X146381928Y-159920000D01*
X143743072Y-159920000D01*
X143730812Y-159795518D01*
X143694502Y-159675820D01*
X143635537Y-159565506D01*
X143556185Y-159468815D01*
X143459494Y-159389463D01*
X143349180Y-159330498D01*
X143229482Y-159294188D01*
X143105000Y-159281928D01*
X142490750Y-159285000D01*
X142332000Y-159443750D01*
X142078000Y-159443750D01*
X141919250Y-159285000D01*
X141305000Y-159281928D01*
X141180518Y-159294188D01*
X141060820Y-159330498D01*
X140950506Y-159389463D01*
X140853815Y-159468815D01*
X140774463Y-159565506D01*
X140715498Y-159675820D01*
X140679188Y-159795518D01*
X140666928Y-159920000D01*
X140667055Y-159945394D01*
X140510913Y-159789252D01*
X140293570Y-159644028D01*
X140052072Y-159543996D01*
X139795698Y-159493000D01*
X139534302Y-159493000D01*
X139277928Y-159543996D01*
X139036430Y-159644028D01*
X138819087Y-159789252D01*
X138634252Y-159974087D01*
X138489028Y-160191430D01*
X138388996Y-160432928D01*
X138338000Y-160689302D01*
X123544620Y-160689302D01*
X125594422Y-158639500D01*
X153728755Y-158639500D01*
X153762000Y-158642774D01*
X153795245Y-158639500D01*
X153795252Y-158639500D01*
X153894715Y-158629704D01*
X154022330Y-158590992D01*
X154139941Y-158528128D01*
X154243027Y-158443527D01*
X154264226Y-158417696D01*
X155439422Y-157242500D01*
X168363022Y-157242500D01*
X168454589Y-157379540D01*
X168632460Y-157557411D01*
X168841614Y-157697163D01*
X168912916Y-157726697D01*
X168815248Y-157761343D01*
X168565145Y-157910322D01*
X168348912Y-158105231D01*
X168174859Y-158338580D01*
X168049675Y-158601401D01*
X168005024Y-158748610D01*
X168126345Y-158978500D01*
X169319500Y-158978500D01*
X169319500Y-158958500D01*
X169573500Y-158958500D01*
X169573500Y-158978500D01*
X170766655Y-158978500D01*
X170887976Y-158748610D01*
X170843325Y-158601401D01*
X170718141Y-158338580D01*
X170544088Y-158105231D01*
X170327855Y-157910322D01*
X170077752Y-157761343D01*
X169980084Y-157726697D01*
X170051386Y-157697163D01*
X170260540Y-157557411D01*
X170438411Y-157379540D01*
X170578163Y-157170386D01*
X170674426Y-156937987D01*
X170723500Y-156691274D01*
X170723500Y-156439726D01*
X170674426Y-156193013D01*
X170578163Y-155960614D01*
X170438411Y-155751460D01*
X170260540Y-155573589D01*
X170123500Y-155482022D01*
X170123500Y-155304566D01*
X170296500Y-155304566D01*
X170380207Y-155296322D01*
X170460696Y-155271905D01*
X170534876Y-155232255D01*
X170599895Y-155178895D01*
X170653255Y-155113876D01*
X170692905Y-155039696D01*
X170717322Y-154959207D01*
X170725566Y-154875500D01*
X170725566Y-153175500D01*
X170717322Y-153091793D01*
X170692905Y-153011304D01*
X170653255Y-152937124D01*
X170599895Y-152872105D01*
X170534876Y-152818745D01*
X170460696Y-152779095D01*
X170380207Y-152754678D01*
X170296500Y-152746434D01*
X170123500Y-152746434D01*
X170123500Y-140787252D01*
X170126775Y-140754000D01*
X170113704Y-140621285D01*
X170074992Y-140493670D01*
X170012128Y-140376059D01*
X169948724Y-140298801D01*
X169948722Y-140298799D01*
X169927527Y-140272973D01*
X169901701Y-140251778D01*
X169059726Y-139409804D01*
X169038527Y-139383973D01*
X168935441Y-139299372D01*
X168817830Y-139236508D01*
X168690215Y-139197796D01*
X168590752Y-139188000D01*
X168590745Y-139188000D01*
X168557500Y-139184726D01*
X168524255Y-139188000D01*
X130835321Y-139188000D01*
X130802536Y-139194521D01*
X130769285Y-139197796D01*
X130737315Y-139207494D01*
X130704526Y-139214016D01*
X130673636Y-139226811D01*
X130641670Y-139236508D01*
X130612208Y-139252256D01*
X130581320Y-139265050D01*
X130553524Y-139283623D01*
X130524059Y-139299372D01*
X130498231Y-139320568D01*
X130470437Y-139339140D01*
X130446801Y-139362776D01*
X130420973Y-139383973D01*
X130399778Y-139409799D01*
X130376140Y-139433437D01*
X130357568Y-139461231D01*
X130336372Y-139487059D01*
X130320623Y-139516524D01*
X130302050Y-139544320D01*
X130289256Y-139575208D01*
X130273508Y-139604670D01*
X130263811Y-139636636D01*
X130251016Y-139667526D01*
X130244494Y-139700315D01*
X130234796Y-139732285D01*
X130231521Y-139765536D01*
X130225000Y-139798321D01*
X130225000Y-139831748D01*
X130221725Y-139865000D01*
X130225000Y-139898252D01*
X130225000Y-139931679D01*
X130231521Y-139964464D01*
X130234796Y-139997715D01*
X130244494Y-140029685D01*
X130251016Y-140062474D01*
X130263811Y-140093364D01*
X130273508Y-140125330D01*
X130289256Y-140154792D01*
X130302050Y-140185680D01*
X130320623Y-140213476D01*
X130336372Y-140242941D01*
X130357568Y-140268769D01*
X130376140Y-140296563D01*
X130399778Y-140320201D01*
X130420973Y-140346027D01*
X130446799Y-140367222D01*
X130470437Y-140390860D01*
X130498231Y-140409432D01*
X130524059Y-140430628D01*
X130553524Y-140446377D01*
X130581320Y-140464950D01*
X130612208Y-140477744D01*
X130641670Y-140493492D01*
X130673636Y-140503189D01*
X130704526Y-140515984D01*
X130737315Y-140522506D01*
X130769285Y-140532204D01*
X130802536Y-140535479D01*
X130835321Y-140542000D01*
X168277078Y-140542000D01*
X168769501Y-141034424D01*
X168769500Y-152746434D01*
X168596500Y-152746434D01*
X168512793Y-152754678D01*
X168432304Y-152779095D01*
X168358124Y-152818745D01*
X168293105Y-152872105D01*
X168239745Y-152937124D01*
X168200095Y-153011304D01*
X168175678Y-153091793D01*
X168167434Y-153175500D01*
X168167434Y-154875500D01*
X168175678Y-154959207D01*
X168200095Y-155039696D01*
X168239745Y-155113876D01*
X168293105Y-155178895D01*
X168358124Y-155232255D01*
X168432304Y-155271905D01*
X168512793Y-155296322D01*
X168596500Y-155304566D01*
X168769501Y-155304566D01*
X168769501Y-155482022D01*
X168632460Y-155573589D01*
X168454589Y-155751460D01*
X168363022Y-155888500D01*
X155192241Y-155888500D01*
X155158999Y-155885226D01*
X155125757Y-155888500D01*
X155125748Y-155888500D01*
X155026285Y-155898296D01*
X154898670Y-155937008D01*
X154781059Y-155999872D01*
X154677973Y-156084473D01*
X154656774Y-156110304D01*
X153481578Y-157285500D01*
X125700502Y-157285500D01*
X128011700Y-154974302D01*
X138338000Y-154974302D01*
X138338000Y-155235698D01*
X138388996Y-155492072D01*
X138489028Y-155733570D01*
X138634252Y-155950913D01*
X138819087Y-156135748D01*
X139036430Y-156280972D01*
X139277928Y-156381004D01*
X139534302Y-156432000D01*
X139795698Y-156432000D01*
X140052072Y-156381004D01*
X140293570Y-156280972D01*
X140510913Y-156135748D01*
X140667055Y-155979606D01*
X140666928Y-156005000D01*
X140679188Y-156129482D01*
X140715498Y-156249180D01*
X140774463Y-156359494D01*
X140853815Y-156456185D01*
X140950506Y-156535537D01*
X141060820Y-156594502D01*
X141180518Y-156630812D01*
X141305000Y-156643072D01*
X141919250Y-156640000D01*
X142078000Y-156481250D01*
X142078000Y-155232000D01*
X142332000Y-155232000D01*
X142332000Y-156481250D01*
X142490750Y-156640000D01*
X143105000Y-156643072D01*
X143229482Y-156630812D01*
X143349180Y-156594502D01*
X143459494Y-156535537D01*
X143556185Y-156456185D01*
X143635537Y-156359494D01*
X143694502Y-156249180D01*
X143730812Y-156129482D01*
X143743072Y-156005000D01*
X146381928Y-156005000D01*
X146394188Y-156129482D01*
X146430498Y-156249180D01*
X146489463Y-156359494D01*
X146568815Y-156456185D01*
X146665506Y-156535537D01*
X146775820Y-156594502D01*
X146895518Y-156630812D01*
X147020000Y-156643072D01*
X147634250Y-156640000D01*
X147793000Y-156481250D01*
X147793000Y-155232000D01*
X146543750Y-155232000D01*
X146385000Y-155390750D01*
X146381928Y-156005000D01*
X143743072Y-156005000D01*
X143740000Y-155390750D01*
X143581250Y-155232000D01*
X142332000Y-155232000D01*
X142078000Y-155232000D01*
X142058000Y-155232000D01*
X142058000Y-154978000D01*
X142078000Y-154978000D01*
X142078000Y-153728750D01*
X142332000Y-153728750D01*
X142332000Y-154978000D01*
X143581250Y-154978000D01*
X143740000Y-154819250D01*
X143743072Y-154205000D01*
X146381928Y-154205000D01*
X146385000Y-154819250D01*
X146543750Y-154978000D01*
X147793000Y-154978000D01*
X147793000Y-153728750D01*
X148047000Y-153728750D01*
X148047000Y-154978000D01*
X148067000Y-154978000D01*
X148067000Y-155232000D01*
X148047000Y-155232000D01*
X148047000Y-156481250D01*
X148205750Y-156640000D01*
X148820000Y-156643072D01*
X148944482Y-156630812D01*
X149064180Y-156594502D01*
X149174494Y-156535537D01*
X149271185Y-156456185D01*
X149350537Y-156359494D01*
X149409502Y-156249180D01*
X149445812Y-156129482D01*
X149458072Y-156005000D01*
X149457945Y-155979606D01*
X149614087Y-156135748D01*
X149831430Y-156280972D01*
X150072928Y-156381004D01*
X150329302Y-156432000D01*
X150590698Y-156432000D01*
X150847072Y-156381004D01*
X151088570Y-156280972D01*
X151305913Y-156135748D01*
X151490748Y-155950913D01*
X151635972Y-155733570D01*
X151736004Y-155492072D01*
X151787000Y-155235698D01*
X151787000Y-154974302D01*
X151736004Y-154717928D01*
X151635972Y-154476430D01*
X151490748Y-154259087D01*
X151305913Y-154074252D01*
X151088570Y-153929028D01*
X150847072Y-153828996D01*
X150590698Y-153778000D01*
X150329302Y-153778000D01*
X150072928Y-153828996D01*
X149831430Y-153929028D01*
X149614087Y-154074252D01*
X149457945Y-154230394D01*
X149458072Y-154205000D01*
X149445812Y-154080518D01*
X149409502Y-153960820D01*
X149350537Y-153850506D01*
X149271185Y-153753815D01*
X149174494Y-153674463D01*
X149064180Y-153615498D01*
X148944482Y-153579188D01*
X148820000Y-153566928D01*
X148205750Y-153570000D01*
X148047000Y-153728750D01*
X147793000Y-153728750D01*
X147634250Y-153570000D01*
X147020000Y-153566928D01*
X146895518Y-153579188D01*
X146775820Y-153615498D01*
X146665506Y-153674463D01*
X146568815Y-153753815D01*
X146489463Y-153850506D01*
X146430498Y-153960820D01*
X146394188Y-154080518D01*
X146381928Y-154205000D01*
X143743072Y-154205000D01*
X143730812Y-154080518D01*
X143694502Y-153960820D01*
X143635537Y-153850506D01*
X143556185Y-153753815D01*
X143459494Y-153674463D01*
X143349180Y-153615498D01*
X143229482Y-153579188D01*
X143105000Y-153566928D01*
X142490750Y-153570000D01*
X142332000Y-153728750D01*
X142078000Y-153728750D01*
X141919250Y-153570000D01*
X141305000Y-153566928D01*
X141180518Y-153579188D01*
X141060820Y-153615498D01*
X140950506Y-153674463D01*
X140853815Y-153753815D01*
X140774463Y-153850506D01*
X140715498Y-153960820D01*
X140679188Y-154080518D01*
X140666928Y-154205000D01*
X140667055Y-154230394D01*
X140510913Y-154074252D01*
X140293570Y-153929028D01*
X140052072Y-153828996D01*
X139795698Y-153778000D01*
X139534302Y-153778000D01*
X139277928Y-153828996D01*
X139036430Y-153929028D01*
X138819087Y-154074252D01*
X138634252Y-154259087D01*
X138489028Y-154476430D01*
X138388996Y-154717928D01*
X138338000Y-154974302D01*
X128011700Y-154974302D01*
X130319002Y-152667000D01*
X155634973Y-152667000D01*
X155669320Y-152689950D01*
X155792526Y-152740984D01*
X155923321Y-152767000D01*
X156056679Y-152767000D01*
X156187474Y-152740984D01*
X156310680Y-152689950D01*
X156421563Y-152615860D01*
X156515860Y-152521563D01*
X156589950Y-152410680D01*
X156640984Y-152287474D01*
X156667000Y-152156679D01*
X156667000Y-152023321D01*
X156640984Y-151892526D01*
X156589950Y-151769320D01*
X156515860Y-151658437D01*
X156421563Y-151564140D01*
X156310680Y-151490050D01*
X156187474Y-151439016D01*
X156056679Y-151413000D01*
X155923321Y-151413000D01*
X155792526Y-151439016D01*
X155669320Y-151490050D01*
X155634973Y-151513000D01*
X130108328Y-151513000D01*
X130079999Y-151510210D01*
X130051670Y-151513000D01*
X130051664Y-151513000D01*
X129966888Y-151521350D01*
X129858124Y-151554343D01*
X129757885Y-151607921D01*
X129713619Y-151644250D01*
X129692035Y-151661963D01*
X129692033Y-151661965D01*
X129670026Y-151680026D01*
X129651965Y-151702033D01*
X125047000Y-156306998D01*
X125047000Y-155475027D01*
X125069950Y-155440680D01*
X125120984Y-155317474D01*
X125147000Y-155186679D01*
X125147000Y-155053321D01*
X125120984Y-154922526D01*
X125069950Y-154799320D01*
X124995860Y-154688437D01*
X124901563Y-154594140D01*
X124790680Y-154520050D01*
X124667474Y-154469016D01*
X124536679Y-154443000D01*
X124403321Y-154443000D01*
X124272526Y-154469016D01*
X124149320Y-154520050D01*
X124038437Y-154594140D01*
X123944140Y-154688437D01*
X123870050Y-154799320D01*
X123819016Y-154922526D01*
X123793000Y-155053321D01*
X123793000Y-155186679D01*
X123819016Y-155317474D01*
X123870050Y-155440680D01*
X123893001Y-155475028D01*
X123893000Y-156560999D01*
X114840999Y-165613000D01*
X95978339Y-165613000D01*
X95950000Y-165610209D01*
X95836888Y-165621349D01*
X95728123Y-165654343D01*
X95702228Y-165668184D01*
X95627885Y-165707921D01*
X95540026Y-165780026D01*
X95521963Y-165802036D01*
X93460999Y-167863000D01*
X91815027Y-167863000D01*
X91780680Y-167840050D01*
X91657474Y-167789016D01*
X91526679Y-167763000D01*
X91393321Y-167763000D01*
X91262526Y-167789016D01*
X91139320Y-167840050D01*
X91028437Y-167914140D01*
X90934140Y-168008437D01*
X90860050Y-168119320D01*
X90809016Y-168242526D01*
X90783000Y-168373321D01*
X90783000Y-168506679D01*
X90809016Y-168637474D01*
X90860050Y-168760680D01*
X90934140Y-168871563D01*
X91028437Y-168965860D01*
X91139320Y-169039950D01*
X91223938Y-169075000D01*
X91139320Y-169110050D01*
X91028437Y-169184140D01*
X90934140Y-169278437D01*
X90860050Y-169389320D01*
X90809016Y-169512526D01*
X90783000Y-169643321D01*
X90783000Y-169776679D01*
X90809016Y-169907474D01*
X90860050Y-170030680D01*
X90934140Y-170141563D01*
X91028437Y-170235860D01*
X91128919Y-170303000D01*
X87274321Y-170303000D01*
X87241536Y-170309521D01*
X87208285Y-170312796D01*
X87176315Y-170322494D01*
X87143526Y-170329016D01*
X87112636Y-170341811D01*
X87080670Y-170351508D01*
X87051208Y-170367256D01*
X87027000Y-170377283D01*
X87027000Y-166248328D01*
X87029790Y-166219999D01*
X87027000Y-166191670D01*
X87027000Y-166191664D01*
X87018650Y-166106888D01*
X86985657Y-165998124D01*
X86932079Y-165897885D01*
X86859974Y-165810026D01*
X86837968Y-165791966D01*
X86353001Y-165307000D01*
X87407679Y-165307000D01*
X87440464Y-165300479D01*
X87473715Y-165297204D01*
X87505685Y-165287506D01*
X87538474Y-165280984D01*
X87569364Y-165268189D01*
X87601330Y-165258492D01*
X87630792Y-165242744D01*
X87661680Y-165229950D01*
X87689476Y-165211377D01*
X87718941Y-165195628D01*
X87744769Y-165174432D01*
X87772563Y-165155860D01*
X87796201Y-165132222D01*
X87822027Y-165111027D01*
X87843222Y-165085201D01*
X87866860Y-165061563D01*
X87885432Y-165033769D01*
X87906628Y-165007941D01*
X87922377Y-164978476D01*
X87940950Y-164950680D01*
X87953744Y-164919792D01*
X87969492Y-164890330D01*
X87979189Y-164858364D01*
X87991984Y-164827474D01*
X87998506Y-164794685D01*
X88008204Y-164762715D01*
X88011479Y-164729464D01*
X88018000Y-164696679D01*
X88018000Y-164663252D01*
X88021275Y-164630000D01*
X88018000Y-164596748D01*
X88018000Y-164563321D01*
X88011479Y-164530536D01*
X88008204Y-164497285D01*
X87998506Y-164465315D01*
X87991984Y-164432526D01*
X87979189Y-164401636D01*
X87969492Y-164369670D01*
X87953744Y-164340208D01*
X87940950Y-164309320D01*
X87922377Y-164281524D01*
X87906628Y-164252059D01*
X87885432Y-164226231D01*
X87866860Y-164198437D01*
X87843222Y-164174799D01*
X87822027Y-164148973D01*
X87796201Y-164127778D01*
X87772563Y-164104140D01*
X87744769Y-164085568D01*
X87718941Y-164064372D01*
X87689476Y-164048623D01*
X87661680Y-164030050D01*
X87630792Y-164017256D01*
X87601330Y-164001508D01*
X87569364Y-163991811D01*
X87538474Y-163979016D01*
X87505685Y-163972494D01*
X87473715Y-163962796D01*
X87440464Y-163959521D01*
X87407679Y-163953000D01*
X85369321Y-163953000D01*
X85336536Y-163959521D01*
X85303285Y-163962796D01*
X85271315Y-163972494D01*
X85238526Y-163979016D01*
X85207636Y-163991811D01*
X85175670Y-164001508D01*
X85146208Y-164017256D01*
X85115320Y-164030050D01*
X85087524Y-164048623D01*
X85058059Y-164064372D01*
X85032231Y-164085568D01*
X85004437Y-164104140D01*
X84980799Y-164127778D01*
X84954973Y-164148973D01*
X84933778Y-164174799D01*
X84910140Y-164198437D01*
X84891568Y-164226231D01*
X84870372Y-164252059D01*
X84854623Y-164281524D01*
X84836050Y-164309320D01*
X84823256Y-164340208D01*
X84807508Y-164369670D01*
X84797811Y-164401636D01*
X84785016Y-164432526D01*
X84778494Y-164465315D01*
X84768796Y-164497285D01*
X84765521Y-164530536D01*
X84759000Y-164563321D01*
X84759000Y-164596748D01*
X84755725Y-164630000D01*
X84759000Y-164663252D01*
X84759000Y-164696679D01*
X84765521Y-164729464D01*
X84768796Y-164762715D01*
X84778494Y-164794685D01*
X84785016Y-164827474D01*
X84797811Y-164858364D01*
X84807508Y-164890330D01*
X84823256Y-164919792D01*
X84836050Y-164950680D01*
X84844282Y-164963000D01*
X84805027Y-164963000D01*
X84770680Y-164940050D01*
X84647474Y-164889016D01*
X84516679Y-164863000D01*
X84383321Y-164863000D01*
X84252526Y-164889016D01*
X84129320Y-164940050D01*
X84018437Y-165014140D01*
X83924140Y-165108437D01*
X83850050Y-165219320D01*
X83799016Y-165342526D01*
X83773000Y-165473321D01*
X83773000Y-165606679D01*
X83799016Y-165737474D01*
X83850050Y-165860680D01*
X83924140Y-165971563D01*
X84018437Y-166065860D01*
X84129320Y-166139950D01*
X84252526Y-166190984D01*
X84383321Y-166217000D01*
X84516679Y-166217000D01*
X84647474Y-166190984D01*
X84770680Y-166139950D01*
X84805027Y-166117000D01*
X85530999Y-166117000D01*
X85873000Y-166459002D01*
X85873001Y-175901655D01*
X85873000Y-175901665D01*
X85873000Y-176491669D01*
X85870210Y-176520000D01*
X85881349Y-176633111D01*
X85894897Y-176677770D01*
X85914343Y-176741876D01*
X85967922Y-176842115D01*
X85998840Y-176879788D01*
X86021963Y-176907964D01*
X86021966Y-176907967D01*
X86040027Y-176929974D01*
X86062033Y-176948034D01*
X86621965Y-177507967D01*
X86640026Y-177529974D01*
X86662033Y-177548035D01*
X86662035Y-177548037D01*
X86681980Y-177564405D01*
X86727885Y-177602079D01*
X86828124Y-177655657D01*
X86936888Y-177688650D01*
X87021664Y-177697000D01*
X87021670Y-177697000D01*
X87049999Y-177699790D01*
X87078328Y-177697000D01*
X87254973Y-177697000D01*
X87289320Y-177719950D01*
X87412526Y-177770984D01*
X87471257Y-177782666D01*
X75022000Y-177774582D01*
X75022000Y-173291454D01*
X75051963Y-173327964D01*
X75051966Y-173327967D01*
X75070027Y-173349974D01*
X75092033Y-173368034D01*
X75410957Y-173686959D01*
X75419016Y-173727474D01*
X75470050Y-173850680D01*
X75544140Y-173961563D01*
X75638437Y-174055860D01*
X75749320Y-174129950D01*
X75872526Y-174180984D01*
X76003321Y-174207000D01*
X76136679Y-174207000D01*
X76267474Y-174180984D01*
X76390680Y-174129950D01*
X76501563Y-174055860D01*
X76595860Y-173961563D01*
X76669950Y-173850680D01*
X76720984Y-173727474D01*
X76747000Y-173596679D01*
X76747000Y-173463321D01*
X76720984Y-173332526D01*
X76669950Y-173209320D01*
X76595860Y-173098437D01*
X76501563Y-173004140D01*
X76390680Y-172930050D01*
X76267474Y-172879016D01*
X76226959Y-172870957D01*
X76057000Y-172700999D01*
X76057000Y-164256592D01*
X76168748Y-164323157D01*
X76443109Y-164420481D01*
X76673000Y-164299814D01*
X76673000Y-163106000D01*
X76653000Y-163106000D01*
X76653000Y-162852000D01*
X76673000Y-162852000D01*
X76673000Y-162832000D01*
X76927000Y-162832000D01*
X76927000Y-162852000D01*
X76947000Y-162852000D01*
X76947000Y-163106000D01*
X76927000Y-163106000D01*
X76927000Y-164299814D01*
X77156891Y-164420481D01*
X77431252Y-164323157D01*
X77681355Y-164174178D01*
X77897588Y-163979269D01*
X78071641Y-163745920D01*
X78180653Y-163517051D01*
X78208337Y-163583886D01*
X78348089Y-163793040D01*
X78525960Y-163970911D01*
X78735114Y-164110663D01*
X78967513Y-164206926D01*
X79214226Y-164256000D01*
X79465774Y-164256000D01*
X79712487Y-164206926D01*
X79944886Y-164110663D01*
X80154040Y-163970911D01*
X80260649Y-163864302D01*
X99603000Y-163864302D01*
X99603000Y-164125698D01*
X99653996Y-164382072D01*
X99754028Y-164623570D01*
X99899252Y-164840913D01*
X100084087Y-165025748D01*
X100301430Y-165170972D01*
X100542928Y-165271004D01*
X100799302Y-165322000D01*
X101060698Y-165322000D01*
X101317072Y-165271004D01*
X101558570Y-165170972D01*
X101775913Y-165025748D01*
X101932055Y-164869606D01*
X101931928Y-164895000D01*
X101944188Y-165019482D01*
X101980498Y-165139180D01*
X102039463Y-165249494D01*
X102118815Y-165346185D01*
X102215506Y-165425537D01*
X102325820Y-165484502D01*
X102445518Y-165520812D01*
X102570000Y-165533072D01*
X103184250Y-165530000D01*
X103343000Y-165371250D01*
X103343000Y-164122000D01*
X103597000Y-164122000D01*
X103597000Y-165371250D01*
X103755750Y-165530000D01*
X104370000Y-165533072D01*
X104494482Y-165520812D01*
X104614180Y-165484502D01*
X104724494Y-165425537D01*
X104821185Y-165346185D01*
X104900537Y-165249494D01*
X104959502Y-165139180D01*
X104995812Y-165019482D01*
X105008072Y-164895000D01*
X105005000Y-164280750D01*
X104846250Y-164122000D01*
X103597000Y-164122000D01*
X103343000Y-164122000D01*
X103323000Y-164122000D01*
X103323000Y-163868000D01*
X103343000Y-163868000D01*
X103343000Y-162618750D01*
X103597000Y-162618750D01*
X103597000Y-163868000D01*
X104846250Y-163868000D01*
X105005000Y-163709250D01*
X105008072Y-163095000D01*
X104995812Y-162970518D01*
X104959502Y-162850820D01*
X104900537Y-162740506D01*
X104821185Y-162643815D01*
X104724494Y-162564463D01*
X104614180Y-162505498D01*
X104494482Y-162469188D01*
X104370000Y-162456928D01*
X103755750Y-162460000D01*
X103597000Y-162618750D01*
X103343000Y-162618750D01*
X103184250Y-162460000D01*
X102570000Y-162456928D01*
X102445518Y-162469188D01*
X102325820Y-162505498D01*
X102215506Y-162564463D01*
X102118815Y-162643815D01*
X102039463Y-162740506D01*
X101980498Y-162850820D01*
X101944188Y-162970518D01*
X101931928Y-163095000D01*
X101932055Y-163120394D01*
X101775913Y-162964252D01*
X101558570Y-162819028D01*
X101317072Y-162718996D01*
X101060698Y-162668000D01*
X100799302Y-162668000D01*
X100542928Y-162718996D01*
X100301430Y-162819028D01*
X100084087Y-162964252D01*
X99899252Y-163149087D01*
X99754028Y-163366430D01*
X99653996Y-163607928D01*
X99603000Y-163864302D01*
X80260649Y-163864302D01*
X80331911Y-163793040D01*
X80471663Y-163583886D01*
X80483214Y-163556000D01*
X81443973Y-163556000D01*
X81478320Y-163578950D01*
X81601526Y-163629984D01*
X81732321Y-163656000D01*
X81865679Y-163656000D01*
X81996474Y-163629984D01*
X82119680Y-163578950D01*
X82154027Y-163556000D01*
X90392669Y-163556000D01*
X90421000Y-163558790D01*
X90449331Y-163556000D01*
X90449336Y-163556000D01*
X90479045Y-163553074D01*
X90534111Y-163547651D01*
X90578770Y-163534103D01*
X90642876Y-163514657D01*
X90743115Y-163461079D01*
X90830974Y-163388974D01*
X90849039Y-163366962D01*
X92079002Y-162137000D01*
X112114973Y-162137000D01*
X112149320Y-162159950D01*
X112272526Y-162210984D01*
X112403321Y-162237000D01*
X112536679Y-162237000D01*
X112667474Y-162210984D01*
X112790680Y-162159950D01*
X112901563Y-162085860D01*
X112995860Y-161991563D01*
X113069950Y-161880680D01*
X113120984Y-161757474D01*
X113147000Y-161626679D01*
X113147000Y-161493321D01*
X113120984Y-161362526D01*
X113069950Y-161239320D01*
X112995860Y-161128437D01*
X112901563Y-161034140D01*
X112790680Y-160960050D01*
X112667474Y-160909016D01*
X112536679Y-160883000D01*
X112403321Y-160883000D01*
X112272526Y-160909016D01*
X112149320Y-160960050D01*
X112114973Y-160983000D01*
X112058263Y-160983000D01*
X112119950Y-160890680D01*
X112170984Y-160767474D01*
X112197000Y-160636679D01*
X112197000Y-160503321D01*
X112170984Y-160372526D01*
X112119950Y-160249320D01*
X112045860Y-160138437D01*
X111951563Y-160044140D01*
X111840680Y-159970050D01*
X111717474Y-159919016D01*
X111586679Y-159893000D01*
X111453321Y-159893000D01*
X111322526Y-159919016D01*
X111199320Y-159970050D01*
X111164973Y-159993000D01*
X91938339Y-159993000D01*
X91910000Y-159990209D01*
X91796888Y-160001349D01*
X91688123Y-160034343D01*
X91669795Y-160044140D01*
X91587885Y-160087921D01*
X91500026Y-160160026D01*
X91481961Y-160182038D01*
X89930999Y-161733000D01*
X83509001Y-161733000D01*
X81827039Y-160051038D01*
X81808974Y-160029026D01*
X81721115Y-159956921D01*
X81620876Y-159903343D01*
X81548371Y-159881349D01*
X81512111Y-159870349D01*
X81457045Y-159864926D01*
X81427336Y-159862000D01*
X81427331Y-159862000D01*
X81399000Y-159859210D01*
X81370669Y-159862000D01*
X80483214Y-159862000D01*
X80471663Y-159834114D01*
X80331911Y-159624960D01*
X80154040Y-159447089D01*
X79944886Y-159307337D01*
X79712487Y-159211074D01*
X79500966Y-159169000D01*
X79712487Y-159126926D01*
X79944886Y-159030663D01*
X80154040Y-158890911D01*
X80331911Y-158713040D01*
X80471663Y-158503886D01*
X80567926Y-158271487D01*
X80592229Y-158149302D01*
X86268000Y-158149302D01*
X86268000Y-158410698D01*
X86318996Y-158667072D01*
X86419028Y-158908570D01*
X86564252Y-159125913D01*
X86749087Y-159310748D01*
X86966430Y-159455972D01*
X87207928Y-159556004D01*
X87464302Y-159607000D01*
X87725698Y-159607000D01*
X87982072Y-159556004D01*
X88223570Y-159455972D01*
X88440913Y-159310748D01*
X88597055Y-159154606D01*
X88596928Y-159180000D01*
X88609188Y-159304482D01*
X88645498Y-159424180D01*
X88704463Y-159534494D01*
X88783815Y-159631185D01*
X88880506Y-159710537D01*
X88990820Y-159769502D01*
X89110518Y-159805812D01*
X89235000Y-159818072D01*
X89849250Y-159815000D01*
X90008000Y-159656250D01*
X90008000Y-158407000D01*
X90262000Y-158407000D01*
X90262000Y-159656250D01*
X90420750Y-159815000D01*
X91035000Y-159818072D01*
X91159482Y-159805812D01*
X91279180Y-159769502D01*
X91389494Y-159710537D01*
X91486185Y-159631185D01*
X91565537Y-159534494D01*
X91624502Y-159424180D01*
X91660812Y-159304482D01*
X91673072Y-159180000D01*
X91670000Y-158565750D01*
X91511250Y-158407000D01*
X90262000Y-158407000D01*
X90008000Y-158407000D01*
X89988000Y-158407000D01*
X89988000Y-158153000D01*
X90008000Y-158153000D01*
X90008000Y-156903750D01*
X90262000Y-156903750D01*
X90262000Y-158153000D01*
X91511250Y-158153000D01*
X91514948Y-158149302D01*
X99603000Y-158149302D01*
X99603000Y-158410698D01*
X99653996Y-158667072D01*
X99754028Y-158908570D01*
X99899252Y-159125913D01*
X100084087Y-159310748D01*
X100301430Y-159455972D01*
X100542928Y-159556004D01*
X100799302Y-159607000D01*
X101060698Y-159607000D01*
X101317072Y-159556004D01*
X101558570Y-159455972D01*
X101775913Y-159310748D01*
X101932055Y-159154606D01*
X101931928Y-159180000D01*
X101944188Y-159304482D01*
X101980498Y-159424180D01*
X102039463Y-159534494D01*
X102118815Y-159631185D01*
X102215506Y-159710537D01*
X102325820Y-159769502D01*
X102445518Y-159805812D01*
X102570000Y-159818072D01*
X103184250Y-159815000D01*
X103343000Y-159656250D01*
X103343000Y-158407000D01*
X103597000Y-158407000D01*
X103597000Y-159656250D01*
X103755750Y-159815000D01*
X104370000Y-159818072D01*
X104494482Y-159805812D01*
X104614180Y-159769502D01*
X104724494Y-159710537D01*
X104821185Y-159631185D01*
X104900537Y-159534494D01*
X104959502Y-159424180D01*
X104995812Y-159304482D01*
X105008072Y-159180000D01*
X105005000Y-158565750D01*
X104846250Y-158407000D01*
X103597000Y-158407000D01*
X103343000Y-158407000D01*
X103323000Y-158407000D01*
X103323000Y-158153000D01*
X103343000Y-158153000D01*
X103343000Y-156903750D01*
X103597000Y-156903750D01*
X103597000Y-158153000D01*
X104846250Y-158153000D01*
X105005000Y-157994250D01*
X105008072Y-157380000D01*
X104995812Y-157255518D01*
X104959502Y-157135820D01*
X104900537Y-157025506D01*
X104821185Y-156928815D01*
X104724494Y-156849463D01*
X104614180Y-156790498D01*
X104494482Y-156754188D01*
X104370000Y-156741928D01*
X103755750Y-156745000D01*
X103597000Y-156903750D01*
X103343000Y-156903750D01*
X103184250Y-156745000D01*
X102570000Y-156741928D01*
X102445518Y-156754188D01*
X102325820Y-156790498D01*
X102215506Y-156849463D01*
X102118815Y-156928815D01*
X102039463Y-157025506D01*
X101980498Y-157135820D01*
X101944188Y-157255518D01*
X101931928Y-157380000D01*
X101932055Y-157405394D01*
X101775913Y-157249252D01*
X101558570Y-157104028D01*
X101317072Y-157003996D01*
X101060698Y-156953000D01*
X100799302Y-156953000D01*
X100542928Y-157003996D01*
X100301430Y-157104028D01*
X100084087Y-157249252D01*
X99899252Y-157434087D01*
X99754028Y-157651430D01*
X99653996Y-157892928D01*
X99603000Y-158149302D01*
X91514948Y-158149302D01*
X91670000Y-157994250D01*
X91673072Y-157380000D01*
X91660812Y-157255518D01*
X91624502Y-157135820D01*
X91565537Y-157025506D01*
X91486185Y-156928815D01*
X91389494Y-156849463D01*
X91279180Y-156790498D01*
X91159482Y-156754188D01*
X91035000Y-156741928D01*
X90420750Y-156745000D01*
X90262000Y-156903750D01*
X90008000Y-156903750D01*
X89849250Y-156745000D01*
X89235000Y-156741928D01*
X89110518Y-156754188D01*
X88990820Y-156790498D01*
X88880506Y-156849463D01*
X88783815Y-156928815D01*
X88704463Y-157025506D01*
X88645498Y-157135820D01*
X88609188Y-157255518D01*
X88596928Y-157380000D01*
X88597055Y-157405394D01*
X88440913Y-157249252D01*
X88223570Y-157104028D01*
X87982072Y-157003996D01*
X87725698Y-156953000D01*
X87464302Y-156953000D01*
X87207928Y-157003996D01*
X86966430Y-157104028D01*
X86749087Y-157249252D01*
X86564252Y-157434087D01*
X86419028Y-157651430D01*
X86318996Y-157892928D01*
X86268000Y-158149302D01*
X80592229Y-158149302D01*
X80617000Y-158024774D01*
X80617000Y-157773226D01*
X80567926Y-157526513D01*
X80471663Y-157294114D01*
X80331911Y-157084960D01*
X80154040Y-156907089D01*
X79944886Y-156767337D01*
X79712487Y-156671074D01*
X79500966Y-156629000D01*
X79712487Y-156586926D01*
X79944886Y-156490663D01*
X80154040Y-156350911D01*
X80331911Y-156173040D01*
X80471663Y-155963886D01*
X80567926Y-155731487D01*
X80617000Y-155484774D01*
X80617000Y-155233226D01*
X80567926Y-154986513D01*
X80471663Y-154754114D01*
X80331911Y-154544960D01*
X80154040Y-154367089D01*
X79944886Y-154227337D01*
X79712487Y-154131074D01*
X79546544Y-154098066D01*
X80190000Y-154098066D01*
X80273707Y-154089822D01*
X80354196Y-154065405D01*
X80428376Y-154025755D01*
X80493395Y-153972395D01*
X80546755Y-153907376D01*
X80586405Y-153833196D01*
X80610822Y-153752707D01*
X80619066Y-153669000D01*
X80619066Y-151969000D01*
X80610822Y-151885293D01*
X80586405Y-151804804D01*
X80583465Y-151799302D01*
X86268000Y-151799302D01*
X86268000Y-152060698D01*
X86318996Y-152317072D01*
X86419028Y-152558570D01*
X86564252Y-152775913D01*
X86749087Y-152960748D01*
X86966430Y-153105972D01*
X87207928Y-153206004D01*
X87464302Y-153257000D01*
X87725698Y-153257000D01*
X87982072Y-153206004D01*
X88223570Y-153105972D01*
X88440913Y-152960748D01*
X88597055Y-152804606D01*
X88596928Y-152830000D01*
X88609188Y-152954482D01*
X88645498Y-153074180D01*
X88704463Y-153184494D01*
X88783815Y-153281185D01*
X88880506Y-153360537D01*
X88990820Y-153419502D01*
X89110518Y-153455812D01*
X89235000Y-153468072D01*
X89849250Y-153465000D01*
X90008000Y-153306250D01*
X90008000Y-152057000D01*
X90262000Y-152057000D01*
X90262000Y-153306250D01*
X90420750Y-153465000D01*
X91035000Y-153468072D01*
X91159482Y-153455812D01*
X91279180Y-153419502D01*
X91389494Y-153360537D01*
X91486185Y-153281185D01*
X91565537Y-153184494D01*
X91624502Y-153074180D01*
X91660812Y-152954482D01*
X91673072Y-152830000D01*
X91671094Y-152434302D01*
X99603000Y-152434302D01*
X99603000Y-152695698D01*
X99653996Y-152952072D01*
X99754028Y-153193570D01*
X99899252Y-153410913D01*
X100084087Y-153595748D01*
X100301430Y-153740972D01*
X100542928Y-153841004D01*
X100799302Y-153892000D01*
X101060698Y-153892000D01*
X101317072Y-153841004D01*
X101558570Y-153740972D01*
X101775913Y-153595748D01*
X101932055Y-153439606D01*
X101931928Y-153465000D01*
X101944188Y-153589482D01*
X101980498Y-153709180D01*
X102039463Y-153819494D01*
X102118815Y-153916185D01*
X102215506Y-153995537D01*
X102325820Y-154054502D01*
X102445518Y-154090812D01*
X102570000Y-154103072D01*
X103184250Y-154100000D01*
X103343000Y-153941250D01*
X103343000Y-152692000D01*
X103597000Y-152692000D01*
X103597000Y-153941250D01*
X103755750Y-154100000D01*
X104370000Y-154103072D01*
X104494482Y-154090812D01*
X104614180Y-154054502D01*
X104724494Y-153995537D01*
X104821185Y-153916185D01*
X104900537Y-153819494D01*
X104959502Y-153709180D01*
X104995812Y-153589482D01*
X105008072Y-153465000D01*
X105005000Y-152850750D01*
X104846250Y-152692000D01*
X103597000Y-152692000D01*
X103343000Y-152692000D01*
X103323000Y-152692000D01*
X103323000Y-152438000D01*
X103343000Y-152438000D01*
X103343000Y-151188750D01*
X103597000Y-151188750D01*
X103597000Y-152438000D01*
X104846250Y-152438000D01*
X105005000Y-152279250D01*
X105008072Y-151665000D01*
X104995812Y-151540518D01*
X104959502Y-151420820D01*
X104900537Y-151310506D01*
X104821185Y-151213815D01*
X104724494Y-151134463D01*
X104614180Y-151075498D01*
X104494482Y-151039188D01*
X104370000Y-151026928D01*
X103755750Y-151030000D01*
X103597000Y-151188750D01*
X103343000Y-151188750D01*
X103184250Y-151030000D01*
X102570000Y-151026928D01*
X102445518Y-151039188D01*
X102325820Y-151075498D01*
X102215506Y-151134463D01*
X102118815Y-151213815D01*
X102039463Y-151310506D01*
X101980498Y-151420820D01*
X101944188Y-151540518D01*
X101931928Y-151665000D01*
X101932055Y-151690394D01*
X101775913Y-151534252D01*
X101558570Y-151389028D01*
X101317072Y-151288996D01*
X101060698Y-151238000D01*
X100799302Y-151238000D01*
X100542928Y-151288996D01*
X100301430Y-151389028D01*
X100084087Y-151534252D01*
X99899252Y-151719087D01*
X99754028Y-151936430D01*
X99653996Y-152177928D01*
X99603000Y-152434302D01*
X91671094Y-152434302D01*
X91670000Y-152215750D01*
X91511250Y-152057000D01*
X90262000Y-152057000D01*
X90008000Y-152057000D01*
X89988000Y-152057000D01*
X89988000Y-151803000D01*
X90008000Y-151803000D01*
X90008000Y-150553750D01*
X90262000Y-150553750D01*
X90262000Y-151803000D01*
X91511250Y-151803000D01*
X91670000Y-151644250D01*
X91673072Y-151030000D01*
X91660812Y-150905518D01*
X91624502Y-150785820D01*
X91565537Y-150675506D01*
X91486185Y-150578815D01*
X91389494Y-150499463D01*
X91279180Y-150440498D01*
X91159482Y-150404188D01*
X91035000Y-150391928D01*
X90420750Y-150395000D01*
X90262000Y-150553750D01*
X90008000Y-150553750D01*
X89849250Y-150395000D01*
X89235000Y-150391928D01*
X89110518Y-150404188D01*
X88990820Y-150440498D01*
X88880506Y-150499463D01*
X88783815Y-150578815D01*
X88704463Y-150675506D01*
X88645498Y-150785820D01*
X88609188Y-150905518D01*
X88596928Y-151030000D01*
X88597055Y-151055394D01*
X88440913Y-150899252D01*
X88223570Y-150754028D01*
X87982072Y-150653996D01*
X87725698Y-150603000D01*
X87464302Y-150603000D01*
X87207928Y-150653996D01*
X86966430Y-150754028D01*
X86749087Y-150899252D01*
X86564252Y-151084087D01*
X86419028Y-151301430D01*
X86318996Y-151542928D01*
X86268000Y-151799302D01*
X80583465Y-151799302D01*
X80546755Y-151730624D01*
X80493395Y-151665605D01*
X80428376Y-151612245D01*
X80354196Y-151572595D01*
X80273707Y-151548178D01*
X80190000Y-151539934D01*
X78490000Y-151539934D01*
X78406293Y-151548178D01*
X78325804Y-151572595D01*
X78251624Y-151612245D01*
X78186605Y-151665605D01*
X78133245Y-151730624D01*
X78093595Y-151804804D01*
X78069178Y-151885293D01*
X78060934Y-151969000D01*
X78060934Y-152612456D01*
X78027926Y-152446513D01*
X77931663Y-152214114D01*
X77791911Y-152004960D01*
X77614040Y-151827089D01*
X77404886Y-151687337D01*
X77172487Y-151591074D01*
X76925774Y-151542000D01*
X76674226Y-151542000D01*
X76427513Y-151591074D01*
X76195114Y-151687337D01*
X75985960Y-151827089D01*
X75808089Y-152004960D01*
X75668337Y-152214114D01*
X75572074Y-152446513D01*
X75523000Y-152693226D01*
X75523000Y-152944774D01*
X75572074Y-153191487D01*
X75668337Y-153423886D01*
X75808089Y-153633040D01*
X75985960Y-153810911D01*
X76195114Y-153950663D01*
X76427513Y-154046926D01*
X76639034Y-154089000D01*
X76427513Y-154131074D01*
X76195114Y-154227337D01*
X75985960Y-154367089D01*
X75808089Y-154544960D01*
X75668337Y-154754114D01*
X75572074Y-154986513D01*
X75523000Y-155233226D01*
X75523000Y-155484774D01*
X75572074Y-155731487D01*
X75668337Y-155963886D01*
X75808089Y-156173040D01*
X75985960Y-156350911D01*
X76195114Y-156490663D01*
X76427513Y-156586926D01*
X76639034Y-156629000D01*
X76427513Y-156671074D01*
X76195114Y-156767337D01*
X75985960Y-156907089D01*
X75808089Y-157084960D01*
X75668337Y-157294114D01*
X75572074Y-157526513D01*
X75523000Y-157773226D01*
X75523000Y-158024774D01*
X75572074Y-158271487D01*
X75668337Y-158503886D01*
X75808089Y-158713040D01*
X75985960Y-158890911D01*
X76195114Y-159030663D01*
X76427513Y-159126926D01*
X76639034Y-159169000D01*
X76427513Y-159211074D01*
X76195114Y-159307337D01*
X75985960Y-159447089D01*
X75808089Y-159624960D01*
X75668337Y-159834114D01*
X75572074Y-160066513D01*
X75523000Y-160313226D01*
X75523000Y-160564774D01*
X75572074Y-160811487D01*
X75586847Y-160847152D01*
X75092038Y-161341961D01*
X75070026Y-161360026D01*
X75022000Y-161418546D01*
X75022000Y-148675413D01*
X83464192Y-148675413D01*
X83559956Y-148939814D01*
X83849571Y-149080704D01*
X84161108Y-149162384D01*
X84482595Y-149181718D01*
X84801675Y-149137961D01*
X85106088Y-149032795D01*
X85280044Y-148939814D01*
X85375808Y-148675413D01*
X89964192Y-148675413D01*
X90059956Y-148939814D01*
X90349571Y-149080704D01*
X90661108Y-149162384D01*
X90982595Y-149181718D01*
X91301675Y-149137961D01*
X91606088Y-149032795D01*
X91780044Y-148939814D01*
X91875808Y-148675413D01*
X94259192Y-148675413D01*
X94354956Y-148939814D01*
X94644571Y-149080704D01*
X94956108Y-149162384D01*
X95277595Y-149181718D01*
X95596675Y-149137961D01*
X95901088Y-149032795D01*
X96075044Y-148939814D01*
X96170808Y-148675413D01*
X100759192Y-148675413D01*
X100854956Y-148939814D01*
X101144571Y-149080704D01*
X101456108Y-149162384D01*
X101777595Y-149181718D01*
X102096675Y-149137961D01*
X102401088Y-149032795D01*
X102575044Y-148939814D01*
X102670808Y-148675413D01*
X105054192Y-148675413D01*
X105149956Y-148939814D01*
X105439571Y-149080704D01*
X105751108Y-149162384D01*
X106072595Y-149181718D01*
X106391675Y-149137961D01*
X106696088Y-149032795D01*
X106870044Y-148939814D01*
X106965808Y-148675413D01*
X111554192Y-148675413D01*
X111649956Y-148939814D01*
X111939571Y-149080704D01*
X112251108Y-149162384D01*
X112572595Y-149181718D01*
X112891675Y-149137961D01*
X113196088Y-149032795D01*
X113370044Y-148939814D01*
X113465808Y-148675413D01*
X115849192Y-148675413D01*
X115944956Y-148939814D01*
X116234571Y-149080704D01*
X116546108Y-149162384D01*
X116867595Y-149181718D01*
X117186675Y-149137961D01*
X117491088Y-149032795D01*
X117665044Y-148939814D01*
X117760808Y-148675413D01*
X122349192Y-148675413D01*
X122444956Y-148939814D01*
X122734571Y-149080704D01*
X123046108Y-149162384D01*
X123367595Y-149181718D01*
X123686675Y-149137961D01*
X123991088Y-149032795D01*
X124165044Y-148939814D01*
X124260808Y-148675413D01*
X126644192Y-148675413D01*
X126739956Y-148939814D01*
X127029571Y-149080704D01*
X127341108Y-149162384D01*
X127662595Y-149181718D01*
X127981675Y-149137961D01*
X128286088Y-149032795D01*
X128460044Y-148939814D01*
X128555808Y-148675413D01*
X133144192Y-148675413D01*
X133239956Y-148939814D01*
X133529571Y-149080704D01*
X133841108Y-149162384D01*
X134162595Y-149181718D01*
X134481675Y-149137961D01*
X134786088Y-149032795D01*
X134960044Y-148939814D01*
X135055808Y-148675413D01*
X134100000Y-147719605D01*
X133144192Y-148675413D01*
X128555808Y-148675413D01*
X127600000Y-147719605D01*
X126644192Y-148675413D01*
X124260808Y-148675413D01*
X123305000Y-147719605D01*
X122349192Y-148675413D01*
X117760808Y-148675413D01*
X116805000Y-147719605D01*
X115849192Y-148675413D01*
X113465808Y-148675413D01*
X112510000Y-147719605D01*
X111554192Y-148675413D01*
X106965808Y-148675413D01*
X106010000Y-147719605D01*
X105054192Y-148675413D01*
X102670808Y-148675413D01*
X101715000Y-147719605D01*
X100759192Y-148675413D01*
X96170808Y-148675413D01*
X95215000Y-147719605D01*
X94259192Y-148675413D01*
X91875808Y-148675413D01*
X90920000Y-147719605D01*
X89964192Y-148675413D01*
X85375808Y-148675413D01*
X84420000Y-147719605D01*
X83464192Y-148675413D01*
X75022000Y-148675413D01*
X75022000Y-147602595D01*
X82778282Y-147602595D01*
X82822039Y-147921675D01*
X82927205Y-148226088D01*
X83020186Y-148400044D01*
X83284587Y-148495808D01*
X84240395Y-147540000D01*
X84599605Y-147540000D01*
X85555413Y-148495808D01*
X85819814Y-148400044D01*
X85960704Y-148110429D01*
X86042384Y-147798892D01*
X86054189Y-147602595D01*
X89278282Y-147602595D01*
X89322039Y-147921675D01*
X89427205Y-148226088D01*
X89520186Y-148400044D01*
X89784587Y-148495808D01*
X90740395Y-147540000D01*
X91099605Y-147540000D01*
X92055413Y-148495808D01*
X92319814Y-148400044D01*
X92460704Y-148110429D01*
X92542384Y-147798892D01*
X92554189Y-147602595D01*
X93573282Y-147602595D01*
X93617039Y-147921675D01*
X93722205Y-148226088D01*
X93815186Y-148400044D01*
X94079587Y-148495808D01*
X95035395Y-147540000D01*
X95394605Y-147540000D01*
X96350413Y-148495808D01*
X96614814Y-148400044D01*
X96755704Y-148110429D01*
X96837384Y-147798892D01*
X96849189Y-147602595D01*
X100073282Y-147602595D01*
X100117039Y-147921675D01*
X100222205Y-148226088D01*
X100315186Y-148400044D01*
X100579587Y-148495808D01*
X101535395Y-147540000D01*
X101894605Y-147540000D01*
X102850413Y-148495808D01*
X103114814Y-148400044D01*
X103255704Y-148110429D01*
X103337384Y-147798892D01*
X103349189Y-147602595D01*
X104368282Y-147602595D01*
X104412039Y-147921675D01*
X104517205Y-148226088D01*
X104610186Y-148400044D01*
X104874587Y-148495808D01*
X105830395Y-147540000D01*
X106189605Y-147540000D01*
X107145413Y-148495808D01*
X107409814Y-148400044D01*
X107550704Y-148110429D01*
X107632384Y-147798892D01*
X107644189Y-147602595D01*
X110868282Y-147602595D01*
X110912039Y-147921675D01*
X111017205Y-148226088D01*
X111110186Y-148400044D01*
X111374587Y-148495808D01*
X112330395Y-147540000D01*
X112689605Y-147540000D01*
X113645413Y-148495808D01*
X113909814Y-148400044D01*
X114050704Y-148110429D01*
X114132384Y-147798892D01*
X114144189Y-147602595D01*
X115163282Y-147602595D01*
X115207039Y-147921675D01*
X115312205Y-148226088D01*
X115405186Y-148400044D01*
X115669587Y-148495808D01*
X116625395Y-147540000D01*
X116984605Y-147540000D01*
X117940413Y-148495808D01*
X118204814Y-148400044D01*
X118345704Y-148110429D01*
X118427384Y-147798892D01*
X118439189Y-147602595D01*
X121663282Y-147602595D01*
X121707039Y-147921675D01*
X121812205Y-148226088D01*
X121905186Y-148400044D01*
X122169587Y-148495808D01*
X123125395Y-147540000D01*
X123484605Y-147540000D01*
X124440413Y-148495808D01*
X124704814Y-148400044D01*
X124845704Y-148110429D01*
X124927384Y-147798892D01*
X124939189Y-147602595D01*
X125958282Y-147602595D01*
X126002039Y-147921675D01*
X126107205Y-148226088D01*
X126200186Y-148400044D01*
X126464587Y-148495808D01*
X127420395Y-147540000D01*
X127779605Y-147540000D01*
X128735413Y-148495808D01*
X128999814Y-148400044D01*
X129140704Y-148110429D01*
X129222384Y-147798892D01*
X129234189Y-147602595D01*
X132458282Y-147602595D01*
X132502039Y-147921675D01*
X132607205Y-148226088D01*
X132700186Y-148400044D01*
X132964587Y-148495808D01*
X133920395Y-147540000D01*
X134279605Y-147540000D01*
X135235413Y-148495808D01*
X135499814Y-148400044D01*
X135640704Y-148110429D01*
X135722384Y-147798892D01*
X135741718Y-147477405D01*
X135697961Y-147158325D01*
X135592795Y-146853912D01*
X135499814Y-146679956D01*
X135235413Y-146584192D01*
X134279605Y-147540000D01*
X133920395Y-147540000D01*
X132964587Y-146584192D01*
X132700186Y-146679956D01*
X132559296Y-146969571D01*
X132477616Y-147281108D01*
X132458282Y-147602595D01*
X129234189Y-147602595D01*
X129241718Y-147477405D01*
X129197961Y-147158325D01*
X129092795Y-146853912D01*
X128999814Y-146679956D01*
X128735413Y-146584192D01*
X127779605Y-147540000D01*
X127420395Y-147540000D01*
X126464587Y-146584192D01*
X126200186Y-146679956D01*
X126059296Y-146969571D01*
X125977616Y-147281108D01*
X125958282Y-147602595D01*
X124939189Y-147602595D01*
X124946718Y-147477405D01*
X124902961Y-147158325D01*
X124797795Y-146853912D01*
X124704814Y-146679956D01*
X124440413Y-146584192D01*
X123484605Y-147540000D01*
X123125395Y-147540000D01*
X122169587Y-146584192D01*
X121905186Y-146679956D01*
X121764296Y-146969571D01*
X121682616Y-147281108D01*
X121663282Y-147602595D01*
X118439189Y-147602595D01*
X118446718Y-147477405D01*
X118402961Y-147158325D01*
X118297795Y-146853912D01*
X118204814Y-146679956D01*
X117940413Y-146584192D01*
X116984605Y-147540000D01*
X116625395Y-147540000D01*
X115669587Y-146584192D01*
X115405186Y-146679956D01*
X115264296Y-146969571D01*
X115182616Y-147281108D01*
X115163282Y-147602595D01*
X114144189Y-147602595D01*
X114151718Y-147477405D01*
X114107961Y-147158325D01*
X114002795Y-146853912D01*
X113909814Y-146679956D01*
X113645413Y-146584192D01*
X112689605Y-147540000D01*
X112330395Y-147540000D01*
X111374587Y-146584192D01*
X111110186Y-146679956D01*
X110969296Y-146969571D01*
X110887616Y-147281108D01*
X110868282Y-147602595D01*
X107644189Y-147602595D01*
X107651718Y-147477405D01*
X107607961Y-147158325D01*
X107502795Y-146853912D01*
X107409814Y-146679956D01*
X107145413Y-146584192D01*
X106189605Y-147540000D01*
X105830395Y-147540000D01*
X104874587Y-146584192D01*
X104610186Y-146679956D01*
X104469296Y-146969571D01*
X104387616Y-147281108D01*
X104368282Y-147602595D01*
X103349189Y-147602595D01*
X103356718Y-147477405D01*
X103312961Y-147158325D01*
X103207795Y-146853912D01*
X103114814Y-146679956D01*
X102850413Y-146584192D01*
X101894605Y-147540000D01*
X101535395Y-147540000D01*
X100579587Y-146584192D01*
X100315186Y-146679956D01*
X100174296Y-146969571D01*
X100092616Y-147281108D01*
X100073282Y-147602595D01*
X96849189Y-147602595D01*
X96856718Y-147477405D01*
X96812961Y-147158325D01*
X96707795Y-146853912D01*
X96614814Y-146679956D01*
X96350413Y-146584192D01*
X95394605Y-147540000D01*
X95035395Y-147540000D01*
X94079587Y-146584192D01*
X93815186Y-146679956D01*
X93674296Y-146969571D01*
X93592616Y-147281108D01*
X93573282Y-147602595D01*
X92554189Y-147602595D01*
X92561718Y-147477405D01*
X92517961Y-147158325D01*
X92412795Y-146853912D01*
X92319814Y-146679956D01*
X92055413Y-146584192D01*
X91099605Y-147540000D01*
X90740395Y-147540000D01*
X89784587Y-146584192D01*
X89520186Y-146679956D01*
X89379296Y-146969571D01*
X89297616Y-147281108D01*
X89278282Y-147602595D01*
X86054189Y-147602595D01*
X86061718Y-147477405D01*
X86017961Y-147158325D01*
X85912795Y-146853912D01*
X85819814Y-146679956D01*
X85555413Y-146584192D01*
X84599605Y-147540000D01*
X84240395Y-147540000D01*
X83284587Y-146584192D01*
X83020186Y-146679956D01*
X82879296Y-146969571D01*
X82797616Y-147281108D01*
X82778282Y-147602595D01*
X75022000Y-147602595D01*
X75022000Y-146404587D01*
X83464192Y-146404587D01*
X84420000Y-147360395D01*
X85375808Y-146404587D01*
X89964192Y-146404587D01*
X90920000Y-147360395D01*
X91875808Y-146404587D01*
X94259192Y-146404587D01*
X95215000Y-147360395D01*
X96170808Y-146404587D01*
X100759192Y-146404587D01*
X101715000Y-147360395D01*
X102670808Y-146404587D01*
X105054192Y-146404587D01*
X106010000Y-147360395D01*
X106965808Y-146404587D01*
X111554192Y-146404587D01*
X112510000Y-147360395D01*
X113465808Y-146404587D01*
X115849192Y-146404587D01*
X116805000Y-147360395D01*
X117760808Y-146404587D01*
X122349192Y-146404587D01*
X123305000Y-147360395D01*
X124260808Y-146404587D01*
X126644192Y-146404587D01*
X127600000Y-147360395D01*
X128555808Y-146404587D01*
X133144192Y-146404587D01*
X134100000Y-147360395D01*
X135055808Y-146404587D01*
X134960044Y-146140186D01*
X134670429Y-145999296D01*
X134358892Y-145917616D01*
X134037405Y-145898282D01*
X133718325Y-145942039D01*
X133413912Y-146047205D01*
X133239956Y-146140186D01*
X133144192Y-146404587D01*
X128555808Y-146404587D01*
X128460044Y-146140186D01*
X128170429Y-145999296D01*
X127858892Y-145917616D01*
X127537405Y-145898282D01*
X127218325Y-145942039D01*
X126913912Y-146047205D01*
X126739956Y-146140186D01*
X126644192Y-146404587D01*
X124260808Y-146404587D01*
X124165044Y-146140186D01*
X123875429Y-145999296D01*
X123563892Y-145917616D01*
X123242405Y-145898282D01*
X122923325Y-145942039D01*
X122618912Y-146047205D01*
X122444956Y-146140186D01*
X122349192Y-146404587D01*
X117760808Y-146404587D01*
X117665044Y-146140186D01*
X117375429Y-145999296D01*
X117063892Y-145917616D01*
X116742405Y-145898282D01*
X116423325Y-145942039D01*
X116118912Y-146047205D01*
X115944956Y-146140186D01*
X115849192Y-146404587D01*
X113465808Y-146404587D01*
X113370044Y-146140186D01*
X113080429Y-145999296D01*
X112768892Y-145917616D01*
X112447405Y-145898282D01*
X112128325Y-145942039D01*
X111823912Y-146047205D01*
X111649956Y-146140186D01*
X111554192Y-146404587D01*
X106965808Y-146404587D01*
X106870044Y-146140186D01*
X106580429Y-145999296D01*
X106268892Y-145917616D01*
X105947405Y-145898282D01*
X105628325Y-145942039D01*
X105323912Y-146047205D01*
X105149956Y-146140186D01*
X105054192Y-146404587D01*
X102670808Y-146404587D01*
X102575044Y-146140186D01*
X102285429Y-145999296D01*
X101973892Y-145917616D01*
X101652405Y-145898282D01*
X101333325Y-145942039D01*
X101028912Y-146047205D01*
X100854956Y-146140186D01*
X100759192Y-146404587D01*
X96170808Y-146404587D01*
X96075044Y-146140186D01*
X95785429Y-145999296D01*
X95473892Y-145917616D01*
X95152405Y-145898282D01*
X94833325Y-145942039D01*
X94528912Y-146047205D01*
X94354956Y-146140186D01*
X94259192Y-146404587D01*
X91875808Y-146404587D01*
X91780044Y-146140186D01*
X91490429Y-145999296D01*
X91178892Y-145917616D01*
X90857405Y-145898282D01*
X90538325Y-145942039D01*
X90233912Y-146047205D01*
X90059956Y-146140186D01*
X89964192Y-146404587D01*
X85375808Y-146404587D01*
X85280044Y-146140186D01*
X84990429Y-145999296D01*
X84678892Y-145917616D01*
X84357405Y-145898282D01*
X84038325Y-145942039D01*
X83733912Y-146047205D01*
X83559956Y-146140186D01*
X83464192Y-146404587D01*
X75022000Y-146404587D01*
X75022000Y-142899453D01*
X82993000Y-142899453D01*
X82993000Y-143180547D01*
X83047838Y-143456241D01*
X83155409Y-143715938D01*
X83311576Y-143949660D01*
X83510340Y-144148424D01*
X83744062Y-144304591D01*
X84003759Y-144412162D01*
X84279453Y-144467000D01*
X84560547Y-144467000D01*
X84836241Y-144412162D01*
X85095938Y-144304591D01*
X85329660Y-144148424D01*
X85528424Y-143949660D01*
X85684591Y-143715938D01*
X85792162Y-143456241D01*
X85847000Y-143180547D01*
X85847000Y-142899453D01*
X89493000Y-142899453D01*
X89493000Y-143180547D01*
X89547838Y-143456241D01*
X89655409Y-143715938D01*
X89811576Y-143949660D01*
X90010340Y-144148424D01*
X90244062Y-144304591D01*
X90503759Y-144412162D01*
X90779453Y-144467000D01*
X91060547Y-144467000D01*
X91336241Y-144412162D01*
X91595938Y-144304591D01*
X91829660Y-144148424D01*
X92028424Y-143949660D01*
X92184591Y-143715938D01*
X92292162Y-143456241D01*
X92347000Y-143180547D01*
X92347000Y-142899453D01*
X93788000Y-142899453D01*
X93788000Y-143180547D01*
X93842838Y-143456241D01*
X93950409Y-143715938D01*
X94106576Y-143949660D01*
X94305340Y-144148424D01*
X94539062Y-144304591D01*
X94798759Y-144412162D01*
X95074453Y-144467000D01*
X95355547Y-144467000D01*
X95631241Y-144412162D01*
X95890938Y-144304591D01*
X96124660Y-144148424D01*
X96323424Y-143949660D01*
X96479591Y-143715938D01*
X96587162Y-143456241D01*
X96642000Y-143180547D01*
X96642000Y-142899453D01*
X100288000Y-142899453D01*
X100288000Y-143180547D01*
X100342838Y-143456241D01*
X100450409Y-143715938D01*
X100606576Y-143949660D01*
X100805340Y-144148424D01*
X101039062Y-144304591D01*
X101298759Y-144412162D01*
X101574453Y-144467000D01*
X101855547Y-144467000D01*
X102131241Y-144412162D01*
X102390938Y-144304591D01*
X102624660Y-144148424D01*
X102823424Y-143949660D01*
X102979591Y-143715938D01*
X103087162Y-143456241D01*
X103142000Y-143180547D01*
X103142000Y-142899453D01*
X104583000Y-142899453D01*
X104583000Y-143180547D01*
X104637838Y-143456241D01*
X104745409Y-143715938D01*
X104901576Y-143949660D01*
X105100340Y-144148424D01*
X105334062Y-144304591D01*
X105593759Y-144412162D01*
X105869453Y-144467000D01*
X106150547Y-144467000D01*
X106426241Y-144412162D01*
X106685938Y-144304591D01*
X106919660Y-144148424D01*
X107118424Y-143949660D01*
X107274591Y-143715938D01*
X107382162Y-143456241D01*
X107437000Y-143180547D01*
X107437000Y-142899453D01*
X111083000Y-142899453D01*
X111083000Y-143180547D01*
X111137838Y-143456241D01*
X111245409Y-143715938D01*
X111401576Y-143949660D01*
X111600340Y-144148424D01*
X111834062Y-144304591D01*
X112093759Y-144412162D01*
X112369453Y-144467000D01*
X112650547Y-144467000D01*
X112926241Y-144412162D01*
X113185938Y-144304591D01*
X113419660Y-144148424D01*
X113618424Y-143949660D01*
X113774591Y-143715938D01*
X113882162Y-143456241D01*
X113937000Y-143180547D01*
X113937000Y-142899453D01*
X115378000Y-142899453D01*
X115378000Y-143180547D01*
X115432838Y-143456241D01*
X115540409Y-143715938D01*
X115696576Y-143949660D01*
X115895340Y-144148424D01*
X116129062Y-144304591D01*
X116388759Y-144412162D01*
X116664453Y-144467000D01*
X116945547Y-144467000D01*
X117221241Y-144412162D01*
X117480938Y-144304591D01*
X117714660Y-144148424D01*
X117913424Y-143949660D01*
X118069591Y-143715938D01*
X118177162Y-143456241D01*
X118232000Y-143180547D01*
X118232000Y-142899453D01*
X121878000Y-142899453D01*
X121878000Y-143180547D01*
X121932838Y-143456241D01*
X122040409Y-143715938D01*
X122196576Y-143949660D01*
X122395340Y-144148424D01*
X122629062Y-144304591D01*
X122888759Y-144412162D01*
X123164453Y-144467000D01*
X123445547Y-144467000D01*
X123721241Y-144412162D01*
X123980938Y-144304591D01*
X124214660Y-144148424D01*
X124413424Y-143949660D01*
X124569591Y-143715938D01*
X124677162Y-143456241D01*
X124732000Y-143180547D01*
X124732000Y-142899453D01*
X126173000Y-142899453D01*
X126173000Y-143180547D01*
X126227838Y-143456241D01*
X126335409Y-143715938D01*
X126491576Y-143949660D01*
X126690340Y-144148424D01*
X126924062Y-144304591D01*
X127183759Y-144412162D01*
X127459453Y-144467000D01*
X127740547Y-144467000D01*
X128016241Y-144412162D01*
X128275938Y-144304591D01*
X128509660Y-144148424D01*
X128708424Y-143949660D01*
X128864591Y-143715938D01*
X128972162Y-143456241D01*
X129027000Y-143180547D01*
X129027000Y-142899453D01*
X132673000Y-142899453D01*
X132673000Y-143180547D01*
X132727838Y-143456241D01*
X132835409Y-143715938D01*
X132991576Y-143949660D01*
X133190340Y-144148424D01*
X133424062Y-144304591D01*
X133683759Y-144412162D01*
X133959453Y-144467000D01*
X134240547Y-144467000D01*
X134516241Y-144412162D01*
X134775938Y-144304591D01*
X135009660Y-144148424D01*
X135208424Y-143949660D01*
X135364591Y-143715938D01*
X135472162Y-143456241D01*
X135527000Y-143180547D01*
X135527000Y-142899453D01*
X135472162Y-142623759D01*
X135364591Y-142364062D01*
X135208424Y-142130340D01*
X135009660Y-141931576D01*
X134775938Y-141775409D01*
X134516241Y-141667838D01*
X134240547Y-141613000D01*
X133959453Y-141613000D01*
X133683759Y-141667838D01*
X133424062Y-141775409D01*
X133190340Y-141931576D01*
X132991576Y-142130340D01*
X132835409Y-142364062D01*
X132727838Y-142623759D01*
X132673000Y-142899453D01*
X129027000Y-142899453D01*
X128972162Y-142623759D01*
X128864591Y-142364062D01*
X128708424Y-142130340D01*
X128509660Y-141931576D01*
X128275938Y-141775409D01*
X128016241Y-141667838D01*
X127740547Y-141613000D01*
X127459453Y-141613000D01*
X127183759Y-141667838D01*
X126924062Y-141775409D01*
X126690340Y-141931576D01*
X126491576Y-142130340D01*
X126335409Y-142364062D01*
X126227838Y-142623759D01*
X126173000Y-142899453D01*
X124732000Y-142899453D01*
X124677162Y-142623759D01*
X124569591Y-142364062D01*
X124413424Y-142130340D01*
X124214660Y-141931576D01*
X123980938Y-141775409D01*
X123721241Y-141667838D01*
X123445547Y-141613000D01*
X123164453Y-141613000D01*
X122888759Y-141667838D01*
X122629062Y-141775409D01*
X122395340Y-141931576D01*
X122196576Y-142130340D01*
X122040409Y-142364062D01*
X121932838Y-142623759D01*
X121878000Y-142899453D01*
X118232000Y-142899453D01*
X118177162Y-142623759D01*
X118069591Y-142364062D01*
X117913424Y-142130340D01*
X117714660Y-141931576D01*
X117480938Y-141775409D01*
X117221241Y-141667838D01*
X116945547Y-141613000D01*
X116664453Y-141613000D01*
X116388759Y-141667838D01*
X116129062Y-141775409D01*
X115895340Y-141931576D01*
X115696576Y-142130340D01*
X115540409Y-142364062D01*
X115432838Y-142623759D01*
X115378000Y-142899453D01*
X113937000Y-142899453D01*
X113882162Y-142623759D01*
X113774591Y-142364062D01*
X113618424Y-142130340D01*
X113419660Y-141931576D01*
X113185938Y-141775409D01*
X112926241Y-141667838D01*
X112650547Y-141613000D01*
X112369453Y-141613000D01*
X112093759Y-141667838D01*
X111834062Y-141775409D01*
X111600340Y-141931576D01*
X111401576Y-142130340D01*
X111245409Y-142364062D01*
X111137838Y-142623759D01*
X111083000Y-142899453D01*
X107437000Y-142899453D01*
X107382162Y-142623759D01*
X107274591Y-142364062D01*
X107118424Y-142130340D01*
X106919660Y-141931576D01*
X106685938Y-141775409D01*
X106426241Y-141667838D01*
X106150547Y-141613000D01*
X105869453Y-141613000D01*
X105593759Y-141667838D01*
X105334062Y-141775409D01*
X105100340Y-141931576D01*
X104901576Y-142130340D01*
X104745409Y-142364062D01*
X104637838Y-142623759D01*
X104583000Y-142899453D01*
X103142000Y-142899453D01*
X103087162Y-142623759D01*
X102979591Y-142364062D01*
X102823424Y-142130340D01*
X102624660Y-141931576D01*
X102390938Y-141775409D01*
X102131241Y-141667838D01*
X101855547Y-141613000D01*
X101574453Y-141613000D01*
X101298759Y-141667838D01*
X101039062Y-141775409D01*
X100805340Y-141931576D01*
X100606576Y-142130340D01*
X100450409Y-142364062D01*
X100342838Y-142623759D01*
X100288000Y-142899453D01*
X96642000Y-142899453D01*
X96587162Y-142623759D01*
X96479591Y-142364062D01*
X96323424Y-142130340D01*
X96124660Y-141931576D01*
X95890938Y-141775409D01*
X95631241Y-141667838D01*
X95355547Y-141613000D01*
X95074453Y-141613000D01*
X94798759Y-141667838D01*
X94539062Y-141775409D01*
X94305340Y-141931576D01*
X94106576Y-142130340D01*
X93950409Y-142364062D01*
X93842838Y-142623759D01*
X93788000Y-142899453D01*
X92347000Y-142899453D01*
X92292162Y-142623759D01*
X92184591Y-142364062D01*
X92028424Y-142130340D01*
X91829660Y-141931576D01*
X91595938Y-141775409D01*
X91336241Y-141667838D01*
X91060547Y-141613000D01*
X90779453Y-141613000D01*
X90503759Y-141667838D01*
X90244062Y-141775409D01*
X90010340Y-141931576D01*
X89811576Y-142130340D01*
X89655409Y-142364062D01*
X89547838Y-142623759D01*
X89493000Y-142899453D01*
X85847000Y-142899453D01*
X85792162Y-142623759D01*
X85684591Y-142364062D01*
X85528424Y-142130340D01*
X85329660Y-141931576D01*
X85095938Y-141775409D01*
X84836241Y-141667838D01*
X84560547Y-141613000D01*
X84279453Y-141613000D01*
X84003759Y-141667838D01*
X83744062Y-141775409D01*
X83510340Y-141931576D01*
X83311576Y-142130340D01*
X83155409Y-142364062D01*
X83047838Y-142623759D01*
X82993000Y-142899453D01*
X75022000Y-142899453D01*
X75022000Y-138023418D01*
X172558000Y-137960083D01*
X172558000Y-177837917D01*
G37*
X172558000Y-177837917D02*
X87747840Y-177782846D01*
X87807474Y-177770984D01*
X87930680Y-177719950D01*
X88041563Y-177645860D01*
X88135860Y-177551563D01*
X88209950Y-177440680D01*
X88260984Y-177317474D01*
X88287000Y-177186679D01*
X88287000Y-177053321D01*
X88260984Y-176922526D01*
X88209950Y-176799320D01*
X88135860Y-176688437D01*
X88041563Y-176594140D01*
X87930680Y-176520050D01*
X87807474Y-176469016D01*
X87676679Y-176443000D01*
X87543321Y-176443000D01*
X87412526Y-176469016D01*
X87289320Y-176520050D01*
X87275372Y-176529370D01*
X87027000Y-176280999D01*
X87027000Y-175294302D01*
X99603000Y-175294302D01*
X99603000Y-175555698D01*
X99653996Y-175812072D01*
X99754028Y-176053570D01*
X99899252Y-176270913D01*
X100084087Y-176455748D01*
X100301430Y-176600972D01*
X100542928Y-176701004D01*
X100799302Y-176752000D01*
X101060698Y-176752000D01*
X101317072Y-176701004D01*
X101558570Y-176600972D01*
X101775913Y-176455748D01*
X101932055Y-176299606D01*
X101931928Y-176325000D01*
X101944188Y-176449482D01*
X101980498Y-176569180D01*
X102039463Y-176679494D01*
X102118815Y-176776185D01*
X102215506Y-176855537D01*
X102325820Y-176914502D01*
X102445518Y-176950812D01*
X102570000Y-176963072D01*
X103184250Y-176960000D01*
X103343000Y-176801250D01*
X103343000Y-175552000D01*
X103597000Y-175552000D01*
X103597000Y-176801250D01*
X103755750Y-176960000D01*
X104370000Y-176963072D01*
X104494482Y-176950812D01*
X104614180Y-176914502D01*
X104724494Y-176855537D01*
X104821185Y-176776185D01*
X104900537Y-176679494D01*
X104959502Y-176569180D01*
X104995812Y-176449482D01*
X105008072Y-176325000D01*
X105005000Y-175710750D01*
X104846250Y-175552000D01*
X103597000Y-175552000D01*
X103343000Y-175552000D01*
X103323000Y-175552000D01*
X103323000Y-175298000D01*
X103343000Y-175298000D01*
X103343000Y-174048750D01*
X103597000Y-174048750D01*
X103597000Y-175298000D01*
X104846250Y-175298000D01*
X105005000Y-175139250D01*
X105008072Y-174525000D01*
X104995812Y-174400518D01*
X104959502Y-174280820D01*
X104900537Y-174170506D01*
X104821185Y-174073815D01*
X104724494Y-173994463D01*
X104614180Y-173935498D01*
X104494482Y-173899188D01*
X104370000Y-173886928D01*
X103755750Y-173890000D01*
X103597000Y-174048750D01*
X103343000Y-174048750D01*
X103184250Y-173890000D01*
X102570000Y-173886928D01*
X102445518Y-173899188D01*
X102325820Y-173935498D01*
X102215506Y-173994463D01*
X102118815Y-174073815D01*
X102039463Y-174170506D01*
X101980498Y-174280820D01*
X101944188Y-174400518D01*
X101931928Y-174525000D01*
X101932055Y-174550394D01*
X101775913Y-174394252D01*
X101558570Y-174249028D01*
X101317072Y-174148996D01*
X101060698Y-174098000D01*
X100799302Y-174098000D01*
X100542928Y-174148996D01*
X100301430Y-174249028D01*
X100084087Y-174394252D01*
X99899252Y-174579087D01*
X99754028Y-174796430D01*
X99653996Y-175037928D01*
X99603000Y-175294302D01*
X87027000Y-175294302D01*
X87027000Y-172119302D01*
X138338000Y-172119302D01*
X138338000Y-172380698D01*
X138388996Y-172637072D01*
X138489028Y-172878570D01*
X138634252Y-173095913D01*
X138819087Y-173280748D01*
X139036430Y-173425972D01*
X139277928Y-173526004D01*
X139534302Y-173577000D01*
X139795698Y-173577000D01*
X140052072Y-173526004D01*
X140293570Y-173425972D01*
X140510913Y-173280748D01*
X140667055Y-173124606D01*
X140666928Y-173150000D01*
X140679188Y-173274482D01*
X140715498Y-173394180D01*
X140774463Y-173504494D01*
X140853815Y-173601185D01*
X140950506Y-173680537D01*
X141060820Y-173739502D01*
X141180518Y-173775812D01*
X141305000Y-173788072D01*
X141919250Y-173785000D01*
X142078000Y-173626250D01*
X142078000Y-172377000D01*
X142332000Y-172377000D01*
X142332000Y-173626250D01*
X142490750Y-173785000D01*
X143105000Y-173788072D01*
X143229482Y-173775812D01*
X143349180Y-173739502D01*
X143459494Y-173680537D01*
X143556185Y-173601185D01*
X143635537Y-173504494D01*
X143694502Y-173394180D01*
X143730812Y-173274482D01*
X143743072Y-173150000D01*
X146381928Y-173150000D01*
X146394188Y-173274482D01*
X146430498Y-173394180D01*
X146489463Y-173504494D01*
X146568815Y-173601185D01*
X146665506Y-173680537D01*
X146775820Y-173739502D01*
X146895518Y-173775812D01*
X147020000Y-173788072D01*
X147634250Y-173785000D01*
X147793000Y-173626250D01*
X147793000Y-172377000D01*
X146543750Y-172377000D01*
X146385000Y-172535750D01*
X146381928Y-173150000D01*
X143743072Y-173150000D01*
X143740000Y-172535750D01*
X143581250Y-172377000D01*
X142332000Y-172377000D01*
X142078000Y-172377000D01*
X142058000Y-172377000D01*
X142058000Y-172123000D01*
X142078000Y-172123000D01*
X142078000Y-170873750D01*
X142332000Y-170873750D01*
X142332000Y-172123000D01*
X143581250Y-172123000D01*
X143740000Y-171964250D01*
X143743072Y-171350000D01*
X146381928Y-171350000D01*
X146385000Y-171964250D01*
X146543750Y-172123000D01*
X147793000Y-172123000D01*
X147793000Y-170873750D01*
X148047000Y-170873750D01*
X148047000Y-172123000D01*
X148067000Y-172123000D01*
X148067000Y-172377000D01*
X148047000Y-172377000D01*
X148047000Y-173626250D01*
X148205750Y-173785000D01*
X148820000Y-173788072D01*
X148944482Y-173775812D01*
X149064180Y-173739502D01*
X149174494Y-173680537D01*
X149271185Y-173601185D01*
X149350537Y-173504494D01*
X149409502Y-173394180D01*
X149445812Y-173274482D01*
X149458072Y-173150000D01*
X149457945Y-173124606D01*
X149614087Y-173280748D01*
X149831430Y-173425972D01*
X150072928Y-173526004D01*
X150329302Y-173577000D01*
X150590698Y-173577000D01*
X150847072Y-173526004D01*
X151088570Y-173425972D01*
X151305913Y-173280748D01*
X151490748Y-173095913D01*
X151635972Y-172878570D01*
X151736004Y-172637072D01*
X151787000Y-172380698D01*
X151787000Y-172119302D01*
X151736004Y-171862928D01*
X151635972Y-171621430D01*
X151490748Y-171404087D01*
X151305913Y-171219252D01*
X151088570Y-171074028D01*
X150847072Y-170973996D01*
X150590698Y-170923000D01*
X150329302Y-170923000D01*
X150072928Y-170973996D01*
X149831430Y-171074028D01*
X149614087Y-171219252D01*
X149457945Y-171375394D01*
X149458072Y-171350000D01*
X149445812Y-171225518D01*
X149409502Y-171105820D01*
X149350537Y-170995506D01*
X149271185Y-170898815D01*
X149174494Y-170819463D01*
X149064180Y-170760498D01*
X148944482Y-170724188D01*
X148820000Y-170711928D01*
X148205750Y-170715000D01*
X148047000Y-170873750D01*
X147793000Y-170873750D01*
X147634250Y-170715000D01*
X147020000Y-170711928D01*
X146895518Y-170724188D01*
X146775820Y-170760498D01*
X146665506Y-170819463D01*
X146568815Y-170898815D01*
X146489463Y-170995506D01*
X146430498Y-171105820D01*
X146394188Y-171225518D01*
X146381928Y-171350000D01*
X143743072Y-171350000D01*
X143730812Y-171225518D01*
X143694502Y-171105820D01*
X143635537Y-170995506D01*
X143556185Y-170898815D01*
X143459494Y-170819463D01*
X143349180Y-170760498D01*
X143229482Y-170724188D01*
X143105000Y-170711928D01*
X142490750Y-170715000D01*
X142332000Y-170873750D01*
X142078000Y-170873750D01*
X141919250Y-170715000D01*
X141305000Y-170711928D01*
X141180518Y-170724188D01*
X141060820Y-170760498D01*
X140950506Y-170819463D01*
X140853815Y-170898815D01*
X140774463Y-170995506D01*
X140715498Y-171105820D01*
X140679188Y-171225518D01*
X140666928Y-171350000D01*
X140667055Y-171375394D01*
X140510913Y-171219252D01*
X140293570Y-171074028D01*
X140052072Y-170973996D01*
X139795698Y-170923000D01*
X139534302Y-170923000D01*
X139277928Y-170973996D01*
X139036430Y-171074028D01*
X138819087Y-171219252D01*
X138634252Y-171404087D01*
X138489028Y-171621430D01*
X138388996Y-171862928D01*
X138338000Y-172119302D01*
X87027000Y-172119302D01*
X87027000Y-171582717D01*
X87051208Y-171592744D01*
X87080670Y-171608492D01*
X87112636Y-171618189D01*
X87143526Y-171630984D01*
X87176315Y-171637506D01*
X87208285Y-171647204D01*
X87241536Y-171650479D01*
X87274321Y-171657000D01*
X93022755Y-171657000D01*
X93056000Y-171660274D01*
X93089245Y-171657000D01*
X93089252Y-171657000D01*
X93188715Y-171647204D01*
X93316330Y-171608492D01*
X93433941Y-171545628D01*
X93537027Y-171461027D01*
X93558226Y-171435196D01*
X95876422Y-169117000D01*
X99739294Y-169117000D01*
X99653996Y-169322928D01*
X99603000Y-169579302D01*
X99603000Y-169840698D01*
X99653996Y-170097072D01*
X99754028Y-170338570D01*
X99899252Y-170555913D01*
X100084087Y-170740748D01*
X100301430Y-170885972D01*
X100542928Y-170986004D01*
X100799302Y-171037000D01*
X101060698Y-171037000D01*
X101317072Y-170986004D01*
X101558570Y-170885972D01*
X101775913Y-170740748D01*
X101932055Y-170584606D01*
X101931928Y-170610000D01*
X101944188Y-170734482D01*
X101980498Y-170854180D01*
X102039463Y-170964494D01*
X102118815Y-171061185D01*
X102215506Y-171140537D01*
X102325820Y-171199502D01*
X102445518Y-171235812D01*
X102570000Y-171248072D01*
X103184250Y-171245000D01*
X103343000Y-171086250D01*
X103343000Y-169837000D01*
X103597000Y-169837000D01*
X103597000Y-171086250D01*
X103755750Y-171245000D01*
X104370000Y-171248072D01*
X104494482Y-171235812D01*
X104614180Y-171199502D01*
X104724494Y-171140537D01*
X104821185Y-171061185D01*
X104900537Y-170964494D01*
X104959502Y-170854180D01*
X104995812Y-170734482D01*
X105008072Y-170610000D01*
X105005000Y-169995750D01*
X104846250Y-169837000D01*
X103597000Y-169837000D01*
X103343000Y-169837000D01*
X103323000Y-169837000D01*
X103323000Y-169583000D01*
X103343000Y-169583000D01*
X103343000Y-169563000D01*
X103597000Y-169563000D01*
X103597000Y-169583000D01*
X104846250Y-169583000D01*
X105005000Y-169424250D01*
X105006537Y-169117000D01*
X118232255Y-169117000D01*
X118265500Y-169120274D01*
X118298745Y-169117000D01*
X118298752Y-169117000D01*
X118398215Y-169107204D01*
X118525830Y-169068492D01*
X118643441Y-169005628D01*
X118746527Y-168921027D01*
X118767726Y-168895196D01*
X120435196Y-167227726D01*
X120461027Y-167206527D01*
X120545628Y-167103441D01*
X120608492Y-166985830D01*
X120647204Y-166858215D01*
X120657000Y-166758752D01*
X120657000Y-166758743D01*
X120660274Y-166725501D01*
X120657000Y-166692259D01*
X120657000Y-166404302D01*
X138338000Y-166404302D01*
X138338000Y-166665698D01*
X138388996Y-166922072D01*
X138489028Y-167163570D01*
X138634252Y-167380913D01*
X138819087Y-167565748D01*
X139036430Y-167710972D01*
X139277928Y-167811004D01*
X139534302Y-167862000D01*
X139795698Y-167862000D01*
X140052072Y-167811004D01*
X140293570Y-167710972D01*
X140510913Y-167565748D01*
X140667055Y-167409606D01*
X140666928Y-167435000D01*
X140679188Y-167559482D01*
X140715498Y-167679180D01*
X140774463Y-167789494D01*
X140853815Y-167886185D01*
X140950506Y-167965537D01*
X141060820Y-168024502D01*
X141180518Y-168060812D01*
X141305000Y-168073072D01*
X141919250Y-168070000D01*
X142078000Y-167911250D01*
X142078000Y-166662000D01*
X142332000Y-166662000D01*
X142332000Y-167911250D01*
X142490750Y-168070000D01*
X143105000Y-168073072D01*
X143229482Y-168060812D01*
X143349180Y-168024502D01*
X143459494Y-167965537D01*
X143556185Y-167886185D01*
X143635537Y-167789494D01*
X143694502Y-167679180D01*
X143730812Y-167559482D01*
X143743072Y-167435000D01*
X146381928Y-167435000D01*
X146394188Y-167559482D01*
X146430498Y-167679180D01*
X146489463Y-167789494D01*
X146568815Y-167886185D01*
X146665506Y-167965537D01*
X146775820Y-168024502D01*
X146895518Y-168060812D01*
X147020000Y-168073072D01*
X147634250Y-168070000D01*
X147793000Y-167911250D01*
X147793000Y-166662000D01*
X146543750Y-166662000D01*
X146385000Y-166820750D01*
X146381928Y-167435000D01*
X143743072Y-167435000D01*
X143740000Y-166820750D01*
X143581250Y-166662000D01*
X142332000Y-166662000D01*
X142078000Y-166662000D01*
X142058000Y-166662000D01*
X142058000Y-166408000D01*
X142078000Y-166408000D01*
X142078000Y-165158750D01*
X142332000Y-165158750D01*
X142332000Y-166408000D01*
X143581250Y-166408000D01*
X143740000Y-166249250D01*
X143743072Y-165635000D01*
X146381928Y-165635000D01*
X146385000Y-166249250D01*
X146543750Y-166408000D01*
X147793000Y-166408000D01*
X147793000Y-165158750D01*
X148047000Y-165158750D01*
X148047000Y-166408000D01*
X148067000Y-166408000D01*
X148067000Y-166662000D01*
X148047000Y-166662000D01*
X148047000Y-167911250D01*
X148205750Y-168070000D01*
X148820000Y-168073072D01*
X148944482Y-168060812D01*
X149064180Y-168024502D01*
X149174494Y-167965537D01*
X149271185Y-167886185D01*
X149350537Y-167789494D01*
X149409502Y-167679180D01*
X149445812Y-167559482D01*
X149458072Y-167435000D01*
X149457945Y-167409606D01*
X149614087Y-167565748D01*
X149831430Y-167710972D01*
X150072928Y-167811004D01*
X150329302Y-167862000D01*
X150590698Y-167862000D01*
X150847072Y-167811004D01*
X151088570Y-167710972D01*
X151305913Y-167565748D01*
X151490748Y-167380913D01*
X151635972Y-167163570D01*
X151736004Y-166922072D01*
X151787000Y-166665698D01*
X151787000Y-166404302D01*
X151736004Y-166147928D01*
X151635972Y-165906430D01*
X151490748Y-165689087D01*
X151305913Y-165504252D01*
X151088570Y-165359028D01*
X150847072Y-165258996D01*
X150590698Y-165208000D01*
X150329302Y-165208000D01*
X150072928Y-165258996D01*
X149831430Y-165359028D01*
X149614087Y-165504252D01*
X149457945Y-165660394D01*
X149458072Y-165635000D01*
X149445812Y-165510518D01*
X149409502Y-165390820D01*
X149350537Y-165280506D01*
X149271185Y-165183815D01*
X149174494Y-165104463D01*
X149064180Y-165045498D01*
X148944482Y-165009188D01*
X148820000Y-164996928D01*
X148205750Y-165000000D01*
X148047000Y-165158750D01*
X147793000Y-165158750D01*
X147634250Y-165000000D01*
X147020000Y-164996928D01*
X146895518Y-165009188D01*
X146775820Y-165045498D01*
X146665506Y-165104463D01*
X146568815Y-165183815D01*
X146489463Y-165280506D01*
X146430498Y-165390820D01*
X146394188Y-165510518D01*
X146381928Y-165635000D01*
X143743072Y-165635000D01*
X143730812Y-165510518D01*
X143694502Y-165390820D01*
X143635537Y-165280506D01*
X143556185Y-165183815D01*
X143459494Y-165104463D01*
X143349180Y-165045498D01*
X143229482Y-165009188D01*
X143105000Y-164996928D01*
X142490750Y-165000000D01*
X142332000Y-165158750D01*
X142078000Y-165158750D01*
X141919250Y-165000000D01*
X141305000Y-164996928D01*
X141180518Y-165009188D01*
X141060820Y-165045498D01*
X140950506Y-165104463D01*
X140853815Y-165183815D01*
X140774463Y-165280506D01*
X140715498Y-165390820D01*
X140679188Y-165510518D01*
X140666928Y-165635000D01*
X140667055Y-165660394D01*
X140510913Y-165504252D01*
X140293570Y-165359028D01*
X140052072Y-165258996D01*
X139795698Y-165208000D01*
X139534302Y-165208000D01*
X139277928Y-165258996D01*
X139036430Y-165359028D01*
X138819087Y-165504252D01*
X138634252Y-165689087D01*
X138489028Y-165906430D01*
X138388996Y-166147928D01*
X138338000Y-166404302D01*
X120657000Y-166404302D01*
X120657000Y-163576922D01*
X123544620Y-160689302D01*
X138338000Y-160689302D01*
X138338000Y-160950698D01*
X138388996Y-161207072D01*
X138489028Y-161448570D01*
X138634252Y-161665913D01*
X138819087Y-161850748D01*
X139036430Y-161995972D01*
X139277928Y-162096004D01*
X139534302Y-162147000D01*
X139795698Y-162147000D01*
X140052072Y-162096004D01*
X140293570Y-161995972D01*
X140510913Y-161850748D01*
X140667055Y-161694606D01*
X140666928Y-161720000D01*
X140679188Y-161844482D01*
X140715498Y-161964180D01*
X140774463Y-162074494D01*
X140853815Y-162171185D01*
X140950506Y-162250537D01*
X141060820Y-162309502D01*
X141180518Y-162345812D01*
X141305000Y-162358072D01*
X141919250Y-162355000D01*
X142078000Y-162196250D01*
X142078000Y-160947000D01*
X142332000Y-160947000D01*
X142332000Y-162196250D01*
X142490750Y-162355000D01*
X143105000Y-162358072D01*
X143229482Y-162345812D01*
X143349180Y-162309502D01*
X143459494Y-162250537D01*
X143556185Y-162171185D01*
X143635537Y-162074494D01*
X143694502Y-161964180D01*
X143730812Y-161844482D01*
X143743072Y-161720000D01*
X146381928Y-161720000D01*
X146394188Y-161844482D01*
X146430498Y-161964180D01*
X146489463Y-162074494D01*
X146568815Y-162171185D01*
X146665506Y-162250537D01*
X146775820Y-162309502D01*
X146895518Y-162345812D01*
X147020000Y-162358072D01*
X147634250Y-162355000D01*
X147793000Y-162196250D01*
X147793000Y-160947000D01*
X146543750Y-160947000D01*
X146385000Y-161105750D01*
X146381928Y-161720000D01*
X143743072Y-161720000D01*
X143740000Y-161105750D01*
X143581250Y-160947000D01*
X142332000Y-160947000D01*
X142078000Y-160947000D01*
X142058000Y-160947000D01*
X142058000Y-160693000D01*
X142078000Y-160693000D01*
X142078000Y-159443750D01*
X142332000Y-159443750D01*
X142332000Y-160693000D01*
X143581250Y-160693000D01*
X143740000Y-160534250D01*
X143743072Y-159920000D01*
X146381928Y-159920000D01*
X146385000Y-160534250D01*
X146543750Y-160693000D01*
X147793000Y-160693000D01*
X147793000Y-159443750D01*
X148047000Y-159443750D01*
X148047000Y-160693000D01*
X148067000Y-160693000D01*
X148067000Y-160947000D01*
X148047000Y-160947000D01*
X148047000Y-162196250D01*
X148205750Y-162355000D01*
X148820000Y-162358072D01*
X148944482Y-162345812D01*
X149064180Y-162309502D01*
X149174494Y-162250537D01*
X149271185Y-162171185D01*
X149350537Y-162074494D01*
X149409502Y-161964180D01*
X149445812Y-161844482D01*
X149458072Y-161720000D01*
X149457945Y-161694606D01*
X149614087Y-161850748D01*
X149831430Y-161995972D01*
X150072928Y-162096004D01*
X150329302Y-162147000D01*
X150590698Y-162147000D01*
X150847072Y-162096004D01*
X151073075Y-162002390D01*
X168005024Y-162002390D01*
X168049675Y-162149599D01*
X168174859Y-162412420D01*
X168348912Y-162645769D01*
X168565145Y-162840678D01*
X168815248Y-162989657D01*
X169089609Y-163086981D01*
X169319500Y-162966314D01*
X169319500Y-161772500D01*
X169573500Y-161772500D01*
X169573500Y-162966314D01*
X169803391Y-163086981D01*
X170077752Y-162989657D01*
X170327855Y-162840678D01*
X170544088Y-162645769D01*
X170718141Y-162412420D01*
X170843325Y-162149599D01*
X170887976Y-162002390D01*
X170766655Y-161772500D01*
X169573500Y-161772500D01*
X169319500Y-161772500D01*
X168126345Y-161772500D01*
X168005024Y-162002390D01*
X151073075Y-162002390D01*
X151088570Y-161995972D01*
X151305913Y-161850748D01*
X151490748Y-161665913D01*
X151635972Y-161448570D01*
X151736004Y-161207072D01*
X151787000Y-160950698D01*
X151787000Y-160689302D01*
X151736004Y-160432928D01*
X151635972Y-160191430D01*
X151490748Y-159974087D01*
X151305913Y-159789252D01*
X151088570Y-159644028D01*
X150847072Y-159543996D01*
X150590698Y-159493000D01*
X150329302Y-159493000D01*
X150072928Y-159543996D01*
X149831430Y-159644028D01*
X149614087Y-159789252D01*
X149457945Y-159945394D01*
X149458072Y-159920000D01*
X149445812Y-159795518D01*
X149409502Y-159675820D01*
X149350537Y-159565506D01*
X149271185Y-159468815D01*
X149263357Y-159462390D01*
X168005024Y-159462390D01*
X168049675Y-159609599D01*
X168174859Y-159872420D01*
X168348912Y-160105769D01*
X168565145Y-160300678D01*
X168690755Y-160375500D01*
X168565145Y-160450322D01*
X168348912Y-160645231D01*
X168174859Y-160878580D01*
X168049675Y-161141401D01*
X168005024Y-161288610D01*
X168126345Y-161518500D01*
X169319500Y-161518500D01*
X169319500Y-159232500D01*
X169573500Y-159232500D01*
X169573500Y-161518500D01*
X170766655Y-161518500D01*
X170887976Y-161288610D01*
X170843325Y-161141401D01*
X170718141Y-160878580D01*
X170544088Y-160645231D01*
X170327855Y-160450322D01*
X170202245Y-160375500D01*
X170327855Y-160300678D01*
X170544088Y-160105769D01*
X170718141Y-159872420D01*
X170843325Y-159609599D01*
X170887976Y-159462390D01*
X170766655Y-159232500D01*
X169573500Y-159232500D01*
X169319500Y-159232500D01*
X168126345Y-159232500D01*
X168005024Y-159462390D01*
X149263357Y-159462390D01*
X149174494Y-159389463D01*
X149064180Y-159330498D01*
X148944482Y-159294188D01*
X148820000Y-159281928D01*
X148205750Y-159285000D01*
X148047000Y-159443750D01*
X147793000Y-159443750D01*
X147634250Y-159285000D01*
X147020000Y-159281928D01*
X146895518Y-159294188D01*
X146775820Y-159330498D01*
X146665506Y-159389463D01*
X146568815Y-159468815D01*
X146489463Y-159565506D01*
X146430498Y-159675820D01*
X146394188Y-159795518D01*
X146381928Y-159920000D01*
X143743072Y-159920000D01*
X143730812Y-159795518D01*
X143694502Y-159675820D01*
X143635537Y-159565506D01*
X143556185Y-159468815D01*
X143459494Y-159389463D01*
X143349180Y-159330498D01*
X143229482Y-159294188D01*
X143105000Y-159281928D01*
X142490750Y-159285000D01*
X142332000Y-159443750D01*
X142078000Y-159443750D01*
X141919250Y-159285000D01*
X141305000Y-159281928D01*
X141180518Y-159294188D01*
X141060820Y-159330498D01*
X140950506Y-159389463D01*
X140853815Y-159468815D01*
X140774463Y-159565506D01*
X140715498Y-159675820D01*
X140679188Y-159795518D01*
X140666928Y-159920000D01*
X140667055Y-159945394D01*
X140510913Y-159789252D01*
X140293570Y-159644028D01*
X140052072Y-159543996D01*
X139795698Y-159493000D01*
X139534302Y-159493000D01*
X139277928Y-159543996D01*
X139036430Y-159644028D01*
X138819087Y-159789252D01*
X138634252Y-159974087D01*
X138489028Y-160191430D01*
X138388996Y-160432928D01*
X138338000Y-160689302D01*
X123544620Y-160689302D01*
X125594422Y-158639500D01*
X153728755Y-158639500D01*
X153762000Y-158642774D01*
X153795245Y-158639500D01*
X153795252Y-158639500D01*
X153894715Y-158629704D01*
X154022330Y-158590992D01*
X154139941Y-158528128D01*
X154243027Y-158443527D01*
X154264226Y-158417696D01*
X155439422Y-157242500D01*
X168363022Y-157242500D01*
X168454589Y-157379540D01*
X168632460Y-157557411D01*
X168841614Y-157697163D01*
X168912916Y-157726697D01*
X168815248Y-157761343D01*
X168565145Y-157910322D01*
X168348912Y-158105231D01*
X168174859Y-158338580D01*
X168049675Y-158601401D01*
X168005024Y-158748610D01*
X168126345Y-158978500D01*
X169319500Y-158978500D01*
X169319500Y-158958500D01*
X169573500Y-158958500D01*
X169573500Y-158978500D01*
X170766655Y-158978500D01*
X170887976Y-158748610D01*
X170843325Y-158601401D01*
X170718141Y-158338580D01*
X170544088Y-158105231D01*
X170327855Y-157910322D01*
X170077752Y-157761343D01*
X169980084Y-157726697D01*
X170051386Y-157697163D01*
X170260540Y-157557411D01*
X170438411Y-157379540D01*
X170578163Y-157170386D01*
X170674426Y-156937987D01*
X170723500Y-156691274D01*
X170723500Y-156439726D01*
X170674426Y-156193013D01*
X170578163Y-155960614D01*
X170438411Y-155751460D01*
X170260540Y-155573589D01*
X170123500Y-155482022D01*
X170123500Y-155304566D01*
X170296500Y-155304566D01*
X170380207Y-155296322D01*
X170460696Y-155271905D01*
X170534876Y-155232255D01*
X170599895Y-155178895D01*
X170653255Y-155113876D01*
X170692905Y-155039696D01*
X170717322Y-154959207D01*
X170725566Y-154875500D01*
X170725566Y-153175500D01*
X170717322Y-153091793D01*
X170692905Y-153011304D01*
X170653255Y-152937124D01*
X170599895Y-152872105D01*
X170534876Y-152818745D01*
X170460696Y-152779095D01*
X170380207Y-152754678D01*
X170296500Y-152746434D01*
X170123500Y-152746434D01*
X170123500Y-140787252D01*
X170126775Y-140754000D01*
X170113704Y-140621285D01*
X170074992Y-140493670D01*
X170012128Y-140376059D01*
X169948724Y-140298801D01*
X169948722Y-140298799D01*
X169927527Y-140272973D01*
X169901701Y-140251778D01*
X169059726Y-139409804D01*
X169038527Y-139383973D01*
X168935441Y-139299372D01*
X168817830Y-139236508D01*
X168690215Y-139197796D01*
X168590752Y-139188000D01*
X168590745Y-139188000D01*
X168557500Y-139184726D01*
X168524255Y-139188000D01*
X130835321Y-139188000D01*
X130802536Y-139194521D01*
X130769285Y-139197796D01*
X130737315Y-139207494D01*
X130704526Y-139214016D01*
X130673636Y-139226811D01*
X130641670Y-139236508D01*
X130612208Y-139252256D01*
X130581320Y-139265050D01*
X130553524Y-139283623D01*
X130524059Y-139299372D01*
X130498231Y-139320568D01*
X130470437Y-139339140D01*
X130446801Y-139362776D01*
X130420973Y-139383973D01*
X130399778Y-139409799D01*
X130376140Y-139433437D01*
X130357568Y-139461231D01*
X130336372Y-139487059D01*
X130320623Y-139516524D01*
X130302050Y-139544320D01*
X130289256Y-139575208D01*
X130273508Y-139604670D01*
X130263811Y-139636636D01*
X130251016Y-139667526D01*
X130244494Y-139700315D01*
X130234796Y-139732285D01*
X130231521Y-139765536D01*
X130225000Y-139798321D01*
X130225000Y-139831748D01*
X130221725Y-139865000D01*
X130225000Y-139898252D01*
X130225000Y-139931679D01*
X130231521Y-139964464D01*
X130234796Y-139997715D01*
X130244494Y-140029685D01*
X130251016Y-140062474D01*
X130263811Y-140093364D01*
X130273508Y-140125330D01*
X130289256Y-140154792D01*
X130302050Y-140185680D01*
X130320623Y-140213476D01*
X130336372Y-140242941D01*
X130357568Y-140268769D01*
X130376140Y-140296563D01*
X130399778Y-140320201D01*
X130420973Y-140346027D01*
X130446799Y-140367222D01*
X130470437Y-140390860D01*
X130498231Y-140409432D01*
X130524059Y-140430628D01*
X130553524Y-140446377D01*
X130581320Y-140464950D01*
X130612208Y-140477744D01*
X130641670Y-140493492D01*
X130673636Y-140503189D01*
X130704526Y-140515984D01*
X130737315Y-140522506D01*
X130769285Y-140532204D01*
X130802536Y-140535479D01*
X130835321Y-140542000D01*
X168277078Y-140542000D01*
X168769501Y-141034424D01*
X168769500Y-152746434D01*
X168596500Y-152746434D01*
X168512793Y-152754678D01*
X168432304Y-152779095D01*
X168358124Y-152818745D01*
X168293105Y-152872105D01*
X168239745Y-152937124D01*
X168200095Y-153011304D01*
X168175678Y-153091793D01*
X168167434Y-153175500D01*
X168167434Y-154875500D01*
X168175678Y-154959207D01*
X168200095Y-155039696D01*
X168239745Y-155113876D01*
X168293105Y-155178895D01*
X168358124Y-155232255D01*
X168432304Y-155271905D01*
X168512793Y-155296322D01*
X168596500Y-155304566D01*
X168769501Y-155304566D01*
X168769501Y-155482022D01*
X168632460Y-155573589D01*
X168454589Y-155751460D01*
X168363022Y-155888500D01*
X155192241Y-155888500D01*
X155158999Y-155885226D01*
X155125757Y-155888500D01*
X155125748Y-155888500D01*
X155026285Y-155898296D01*
X154898670Y-155937008D01*
X154781059Y-155999872D01*
X154677973Y-156084473D01*
X154656774Y-156110304D01*
X153481578Y-157285500D01*
X125700502Y-157285500D01*
X128011700Y-154974302D01*
X138338000Y-154974302D01*
X138338000Y-155235698D01*
X138388996Y-155492072D01*
X138489028Y-155733570D01*
X138634252Y-155950913D01*
X138819087Y-156135748D01*
X139036430Y-156280972D01*
X139277928Y-156381004D01*
X139534302Y-156432000D01*
X139795698Y-156432000D01*
X140052072Y-156381004D01*
X140293570Y-156280972D01*
X140510913Y-156135748D01*
X140667055Y-155979606D01*
X140666928Y-156005000D01*
X140679188Y-156129482D01*
X140715498Y-156249180D01*
X140774463Y-156359494D01*
X140853815Y-156456185D01*
X140950506Y-156535537D01*
X141060820Y-156594502D01*
X141180518Y-156630812D01*
X141305000Y-156643072D01*
X141919250Y-156640000D01*
X142078000Y-156481250D01*
X142078000Y-155232000D01*
X142332000Y-155232000D01*
X142332000Y-156481250D01*
X142490750Y-156640000D01*
X143105000Y-156643072D01*
X143229482Y-156630812D01*
X143349180Y-156594502D01*
X143459494Y-156535537D01*
X143556185Y-156456185D01*
X143635537Y-156359494D01*
X143694502Y-156249180D01*
X143730812Y-156129482D01*
X143743072Y-156005000D01*
X146381928Y-156005000D01*
X146394188Y-156129482D01*
X146430498Y-156249180D01*
X146489463Y-156359494D01*
X146568815Y-156456185D01*
X146665506Y-156535537D01*
X146775820Y-156594502D01*
X146895518Y-156630812D01*
X147020000Y-156643072D01*
X147634250Y-156640000D01*
X147793000Y-156481250D01*
X147793000Y-155232000D01*
X146543750Y-155232000D01*
X146385000Y-155390750D01*
X146381928Y-156005000D01*
X143743072Y-156005000D01*
X143740000Y-155390750D01*
X143581250Y-155232000D01*
X142332000Y-155232000D01*
X142078000Y-155232000D01*
X142058000Y-155232000D01*
X142058000Y-154978000D01*
X142078000Y-154978000D01*
X142078000Y-153728750D01*
X142332000Y-153728750D01*
X142332000Y-154978000D01*
X143581250Y-154978000D01*
X143740000Y-154819250D01*
X143743072Y-154205000D01*
X146381928Y-154205000D01*
X146385000Y-154819250D01*
X146543750Y-154978000D01*
X147793000Y-154978000D01*
X147793000Y-153728750D01*
X148047000Y-153728750D01*
X148047000Y-154978000D01*
X148067000Y-154978000D01*
X148067000Y-155232000D01*
X148047000Y-155232000D01*
X148047000Y-156481250D01*
X148205750Y-156640000D01*
X148820000Y-156643072D01*
X148944482Y-156630812D01*
X149064180Y-156594502D01*
X149174494Y-156535537D01*
X149271185Y-156456185D01*
X149350537Y-156359494D01*
X149409502Y-156249180D01*
X149445812Y-156129482D01*
X149458072Y-156005000D01*
X149457945Y-155979606D01*
X149614087Y-156135748D01*
X149831430Y-156280972D01*
X150072928Y-156381004D01*
X150329302Y-156432000D01*
X150590698Y-156432000D01*
X150847072Y-156381004D01*
X151088570Y-156280972D01*
X151305913Y-156135748D01*
X151490748Y-155950913D01*
X151635972Y-155733570D01*
X151736004Y-155492072D01*
X151787000Y-155235698D01*
X151787000Y-154974302D01*
X151736004Y-154717928D01*
X151635972Y-154476430D01*
X151490748Y-154259087D01*
X151305913Y-154074252D01*
X151088570Y-153929028D01*
X150847072Y-153828996D01*
X150590698Y-153778000D01*
X150329302Y-153778000D01*
X150072928Y-153828996D01*
X149831430Y-153929028D01*
X149614087Y-154074252D01*
X149457945Y-154230394D01*
X149458072Y-154205000D01*
X149445812Y-154080518D01*
X149409502Y-153960820D01*
X149350537Y-153850506D01*
X149271185Y-153753815D01*
X149174494Y-153674463D01*
X149064180Y-153615498D01*
X148944482Y-153579188D01*
X148820000Y-153566928D01*
X148205750Y-153570000D01*
X148047000Y-153728750D01*
X147793000Y-153728750D01*
X147634250Y-153570000D01*
X147020000Y-153566928D01*
X146895518Y-153579188D01*
X146775820Y-153615498D01*
X146665506Y-153674463D01*
X146568815Y-153753815D01*
X146489463Y-153850506D01*
X146430498Y-153960820D01*
X146394188Y-154080518D01*
X146381928Y-154205000D01*
X143743072Y-154205000D01*
X143730812Y-154080518D01*
X143694502Y-153960820D01*
X143635537Y-153850506D01*
X143556185Y-153753815D01*
X143459494Y-153674463D01*
X143349180Y-153615498D01*
X143229482Y-153579188D01*
X143105000Y-153566928D01*
X142490750Y-153570000D01*
X142332000Y-153728750D01*
X142078000Y-153728750D01*
X141919250Y-153570000D01*
X141305000Y-153566928D01*
X141180518Y-153579188D01*
X141060820Y-153615498D01*
X140950506Y-153674463D01*
X140853815Y-153753815D01*
X140774463Y-153850506D01*
X140715498Y-153960820D01*
X140679188Y-154080518D01*
X140666928Y-154205000D01*
X140667055Y-154230394D01*
X140510913Y-154074252D01*
X140293570Y-153929028D01*
X140052072Y-153828996D01*
X139795698Y-153778000D01*
X139534302Y-153778000D01*
X139277928Y-153828996D01*
X139036430Y-153929028D01*
X138819087Y-154074252D01*
X138634252Y-154259087D01*
X138489028Y-154476430D01*
X138388996Y-154717928D01*
X138338000Y-154974302D01*
X128011700Y-154974302D01*
X130319002Y-152667000D01*
X155634973Y-152667000D01*
X155669320Y-152689950D01*
X155792526Y-152740984D01*
X155923321Y-152767000D01*
X156056679Y-152767000D01*
X156187474Y-152740984D01*
X156310680Y-152689950D01*
X156421563Y-152615860D01*
X156515860Y-152521563D01*
X156589950Y-152410680D01*
X156640984Y-152287474D01*
X156667000Y-152156679D01*
X156667000Y-152023321D01*
X156640984Y-151892526D01*
X156589950Y-151769320D01*
X156515860Y-151658437D01*
X156421563Y-151564140D01*
X156310680Y-151490050D01*
X156187474Y-151439016D01*
X156056679Y-151413000D01*
X155923321Y-151413000D01*
X155792526Y-151439016D01*
X155669320Y-151490050D01*
X155634973Y-151513000D01*
X130108328Y-151513000D01*
X130079999Y-151510210D01*
X130051670Y-151513000D01*
X130051664Y-151513000D01*
X129966888Y-151521350D01*
X129858124Y-151554343D01*
X129757885Y-151607921D01*
X129713619Y-151644250D01*
X129692035Y-151661963D01*
X129692033Y-151661965D01*
X129670026Y-151680026D01*
X129651965Y-151702033D01*
X125047000Y-156306998D01*
X125047000Y-155475027D01*
X125069950Y-155440680D01*
X125120984Y-155317474D01*
X125147000Y-155186679D01*
X125147000Y-155053321D01*
X125120984Y-154922526D01*
X125069950Y-154799320D01*
X124995860Y-154688437D01*
X124901563Y-154594140D01*
X124790680Y-154520050D01*
X124667474Y-154469016D01*
X124536679Y-154443000D01*
X124403321Y-154443000D01*
X124272526Y-154469016D01*
X124149320Y-154520050D01*
X124038437Y-154594140D01*
X123944140Y-154688437D01*
X123870050Y-154799320D01*
X123819016Y-154922526D01*
X123793000Y-155053321D01*
X123793000Y-155186679D01*
X123819016Y-155317474D01*
X123870050Y-155440680D01*
X123893001Y-155475028D01*
X123893000Y-156560999D01*
X114840999Y-165613000D01*
X95978339Y-165613000D01*
X95950000Y-165610209D01*
X95836888Y-165621349D01*
X95728123Y-165654343D01*
X95702228Y-165668184D01*
X95627885Y-165707921D01*
X95540026Y-165780026D01*
X95521963Y-165802036D01*
X93460999Y-167863000D01*
X91815027Y-167863000D01*
X91780680Y-167840050D01*
X91657474Y-167789016D01*
X91526679Y-167763000D01*
X91393321Y-167763000D01*
X91262526Y-167789016D01*
X91139320Y-167840050D01*
X91028437Y-167914140D01*
X90934140Y-168008437D01*
X90860050Y-168119320D01*
X90809016Y-168242526D01*
X90783000Y-168373321D01*
X90783000Y-168506679D01*
X90809016Y-168637474D01*
X90860050Y-168760680D01*
X90934140Y-168871563D01*
X91028437Y-168965860D01*
X91139320Y-169039950D01*
X91223938Y-169075000D01*
X91139320Y-169110050D01*
X91028437Y-169184140D01*
X90934140Y-169278437D01*
X90860050Y-169389320D01*
X90809016Y-169512526D01*
X90783000Y-169643321D01*
X90783000Y-169776679D01*
X90809016Y-169907474D01*
X90860050Y-170030680D01*
X90934140Y-170141563D01*
X91028437Y-170235860D01*
X91128919Y-170303000D01*
X87274321Y-170303000D01*
X87241536Y-170309521D01*
X87208285Y-170312796D01*
X87176315Y-170322494D01*
X87143526Y-170329016D01*
X87112636Y-170341811D01*
X87080670Y-170351508D01*
X87051208Y-170367256D01*
X87027000Y-170377283D01*
X87027000Y-166248328D01*
X87029790Y-166219999D01*
X87027000Y-166191670D01*
X87027000Y-166191664D01*
X87018650Y-166106888D01*
X86985657Y-165998124D01*
X86932079Y-165897885D01*
X86859974Y-165810026D01*
X86837968Y-165791966D01*
X86353001Y-165307000D01*
X87407679Y-165307000D01*
X87440464Y-165300479D01*
X87473715Y-165297204D01*
X87505685Y-165287506D01*
X87538474Y-165280984D01*
X87569364Y-165268189D01*
X87601330Y-165258492D01*
X87630792Y-165242744D01*
X87661680Y-165229950D01*
X87689476Y-165211377D01*
X87718941Y-165195628D01*
X87744769Y-165174432D01*
X87772563Y-165155860D01*
X87796201Y-165132222D01*
X87822027Y-165111027D01*
X87843222Y-165085201D01*
X87866860Y-165061563D01*
X87885432Y-165033769D01*
X87906628Y-165007941D01*
X87922377Y-164978476D01*
X87940950Y-164950680D01*
X87953744Y-164919792D01*
X87969492Y-164890330D01*
X87979189Y-164858364D01*
X87991984Y-164827474D01*
X87998506Y-164794685D01*
X88008204Y-164762715D01*
X88011479Y-164729464D01*
X88018000Y-164696679D01*
X88018000Y-164663252D01*
X88021275Y-164630000D01*
X88018000Y-164596748D01*
X88018000Y-164563321D01*
X88011479Y-164530536D01*
X88008204Y-164497285D01*
X87998506Y-164465315D01*
X87991984Y-164432526D01*
X87979189Y-164401636D01*
X87969492Y-164369670D01*
X87953744Y-164340208D01*
X87940950Y-164309320D01*
X87922377Y-164281524D01*
X87906628Y-164252059D01*
X87885432Y-164226231D01*
X87866860Y-164198437D01*
X87843222Y-164174799D01*
X87822027Y-164148973D01*
X87796201Y-164127778D01*
X87772563Y-164104140D01*
X87744769Y-164085568D01*
X87718941Y-164064372D01*
X87689476Y-164048623D01*
X87661680Y-164030050D01*
X87630792Y-164017256D01*
X87601330Y-164001508D01*
X87569364Y-163991811D01*
X87538474Y-163979016D01*
X87505685Y-163972494D01*
X87473715Y-163962796D01*
X87440464Y-163959521D01*
X87407679Y-163953000D01*
X85369321Y-163953000D01*
X85336536Y-163959521D01*
X85303285Y-163962796D01*
X85271315Y-163972494D01*
X85238526Y-163979016D01*
X85207636Y-163991811D01*
X85175670Y-164001508D01*
X85146208Y-164017256D01*
X85115320Y-164030050D01*
X85087524Y-164048623D01*
X85058059Y-164064372D01*
X85032231Y-164085568D01*
X85004437Y-164104140D01*
X84980799Y-164127778D01*
X84954973Y-164148973D01*
X84933778Y-164174799D01*
X84910140Y-164198437D01*
X84891568Y-164226231D01*
X84870372Y-164252059D01*
X84854623Y-164281524D01*
X84836050Y-164309320D01*
X84823256Y-164340208D01*
X84807508Y-164369670D01*
X84797811Y-164401636D01*
X84785016Y-164432526D01*
X84778494Y-164465315D01*
X84768796Y-164497285D01*
X84765521Y-164530536D01*
X84759000Y-164563321D01*
X84759000Y-164596748D01*
X84755725Y-164630000D01*
X84759000Y-164663252D01*
X84759000Y-164696679D01*
X84765521Y-164729464D01*
X84768796Y-164762715D01*
X84778494Y-164794685D01*
X84785016Y-164827474D01*
X84797811Y-164858364D01*
X84807508Y-164890330D01*
X84823256Y-164919792D01*
X84836050Y-164950680D01*
X84844282Y-164963000D01*
X84805027Y-164963000D01*
X84770680Y-164940050D01*
X84647474Y-164889016D01*
X84516679Y-164863000D01*
X84383321Y-164863000D01*
X84252526Y-164889016D01*
X84129320Y-164940050D01*
X84018437Y-165014140D01*
X83924140Y-165108437D01*
X83850050Y-165219320D01*
X83799016Y-165342526D01*
X83773000Y-165473321D01*
X83773000Y-165606679D01*
X83799016Y-165737474D01*
X83850050Y-165860680D01*
X83924140Y-165971563D01*
X84018437Y-166065860D01*
X84129320Y-166139950D01*
X84252526Y-166190984D01*
X84383321Y-166217000D01*
X84516679Y-166217000D01*
X84647474Y-166190984D01*
X84770680Y-166139950D01*
X84805027Y-166117000D01*
X85530999Y-166117000D01*
X85873000Y-166459002D01*
X85873001Y-175901655D01*
X85873000Y-175901665D01*
X85873000Y-176491669D01*
X85870210Y-176520000D01*
X85881349Y-176633111D01*
X85894897Y-176677770D01*
X85914343Y-176741876D01*
X85967922Y-176842115D01*
X85998840Y-176879788D01*
X86021963Y-176907964D01*
X86021966Y-176907967D01*
X86040027Y-176929974D01*
X86062033Y-176948034D01*
X86621965Y-177507967D01*
X86640026Y-177529974D01*
X86662033Y-177548035D01*
X86662035Y-177548037D01*
X86681980Y-177564405D01*
X86727885Y-177602079D01*
X86828124Y-177655657D01*
X86936888Y-177688650D01*
X87021664Y-177697000D01*
X87021670Y-177697000D01*
X87049999Y-177699790D01*
X87078328Y-177697000D01*
X87254973Y-177697000D01*
X87289320Y-177719950D01*
X87412526Y-177770984D01*
X87471257Y-177782666D01*
X75022000Y-177774582D01*
X75022000Y-173291454D01*
X75051963Y-173327964D01*
X75051966Y-173327967D01*
X75070027Y-173349974D01*
X75092033Y-173368034D01*
X75410957Y-173686959D01*
X75419016Y-173727474D01*
X75470050Y-173850680D01*
X75544140Y-173961563D01*
X75638437Y-174055860D01*
X75749320Y-174129950D01*
X75872526Y-174180984D01*
X76003321Y-174207000D01*
X76136679Y-174207000D01*
X76267474Y-174180984D01*
X76390680Y-174129950D01*
X76501563Y-174055860D01*
X76595860Y-173961563D01*
X76669950Y-173850680D01*
X76720984Y-173727474D01*
X76747000Y-173596679D01*
X76747000Y-173463321D01*
X76720984Y-173332526D01*
X76669950Y-173209320D01*
X76595860Y-173098437D01*
X76501563Y-173004140D01*
X76390680Y-172930050D01*
X76267474Y-172879016D01*
X76226959Y-172870957D01*
X76057000Y-172700999D01*
X76057000Y-164256592D01*
X76168748Y-164323157D01*
X76443109Y-164420481D01*
X76673000Y-164299814D01*
X76673000Y-163106000D01*
X76653000Y-163106000D01*
X76653000Y-162852000D01*
X76673000Y-162852000D01*
X76673000Y-162832000D01*
X76927000Y-162832000D01*
X76927000Y-162852000D01*
X76947000Y-162852000D01*
X76947000Y-163106000D01*
X76927000Y-163106000D01*
X76927000Y-164299814D01*
X77156891Y-164420481D01*
X77431252Y-164323157D01*
X77681355Y-164174178D01*
X77897588Y-163979269D01*
X78071641Y-163745920D01*
X78180653Y-163517051D01*
X78208337Y-163583886D01*
X78348089Y-163793040D01*
X78525960Y-163970911D01*
X78735114Y-164110663D01*
X78967513Y-164206926D01*
X79214226Y-164256000D01*
X79465774Y-164256000D01*
X79712487Y-164206926D01*
X79944886Y-164110663D01*
X80154040Y-163970911D01*
X80260649Y-163864302D01*
X99603000Y-163864302D01*
X99603000Y-164125698D01*
X99653996Y-164382072D01*
X99754028Y-164623570D01*
X99899252Y-164840913D01*
X100084087Y-165025748D01*
X100301430Y-165170972D01*
X100542928Y-165271004D01*
X100799302Y-165322000D01*
X101060698Y-165322000D01*
X101317072Y-165271004D01*
X101558570Y-165170972D01*
X101775913Y-165025748D01*
X101932055Y-164869606D01*
X101931928Y-164895000D01*
X101944188Y-165019482D01*
X101980498Y-165139180D01*
X102039463Y-165249494D01*
X102118815Y-165346185D01*
X102215506Y-165425537D01*
X102325820Y-165484502D01*
X102445518Y-165520812D01*
X102570000Y-165533072D01*
X103184250Y-165530000D01*
X103343000Y-165371250D01*
X103343000Y-164122000D01*
X103597000Y-164122000D01*
X103597000Y-165371250D01*
X103755750Y-165530000D01*
X104370000Y-165533072D01*
X104494482Y-165520812D01*
X104614180Y-165484502D01*
X104724494Y-165425537D01*
X104821185Y-165346185D01*
X104900537Y-165249494D01*
X104959502Y-165139180D01*
X104995812Y-165019482D01*
X105008072Y-164895000D01*
X105005000Y-164280750D01*
X104846250Y-164122000D01*
X103597000Y-164122000D01*
X103343000Y-164122000D01*
X103323000Y-164122000D01*
X103323000Y-163868000D01*
X103343000Y-163868000D01*
X103343000Y-162618750D01*
X103597000Y-162618750D01*
X103597000Y-163868000D01*
X104846250Y-163868000D01*
X105005000Y-163709250D01*
X105008072Y-163095000D01*
X104995812Y-162970518D01*
X104959502Y-162850820D01*
X104900537Y-162740506D01*
X104821185Y-162643815D01*
X104724494Y-162564463D01*
X104614180Y-162505498D01*
X104494482Y-162469188D01*
X104370000Y-162456928D01*
X103755750Y-162460000D01*
X103597000Y-162618750D01*
X103343000Y-162618750D01*
X103184250Y-162460000D01*
X102570000Y-162456928D01*
X102445518Y-162469188D01*
X102325820Y-162505498D01*
X102215506Y-162564463D01*
X102118815Y-162643815D01*
X102039463Y-162740506D01*
X101980498Y-162850820D01*
X101944188Y-162970518D01*
X101931928Y-163095000D01*
X101932055Y-163120394D01*
X101775913Y-162964252D01*
X101558570Y-162819028D01*
X101317072Y-162718996D01*
X101060698Y-162668000D01*
X100799302Y-162668000D01*
X100542928Y-162718996D01*
X100301430Y-162819028D01*
X100084087Y-162964252D01*
X99899252Y-163149087D01*
X99754028Y-163366430D01*
X99653996Y-163607928D01*
X99603000Y-163864302D01*
X80260649Y-163864302D01*
X80331911Y-163793040D01*
X80471663Y-163583886D01*
X80483214Y-163556000D01*
X81443973Y-163556000D01*
X81478320Y-163578950D01*
X81601526Y-163629984D01*
X81732321Y-163656000D01*
X81865679Y-163656000D01*
X81996474Y-163629984D01*
X82119680Y-163578950D01*
X82154027Y-163556000D01*
X90392669Y-163556000D01*
X90421000Y-163558790D01*
X90449331Y-163556000D01*
X90449336Y-163556000D01*
X90479045Y-163553074D01*
X90534111Y-163547651D01*
X90578770Y-163534103D01*
X90642876Y-163514657D01*
X90743115Y-163461079D01*
X90830974Y-163388974D01*
X90849039Y-163366962D01*
X92079002Y-162137000D01*
X112114973Y-162137000D01*
X112149320Y-162159950D01*
X112272526Y-162210984D01*
X112403321Y-162237000D01*
X112536679Y-162237000D01*
X112667474Y-162210984D01*
X112790680Y-162159950D01*
X112901563Y-162085860D01*
X112995860Y-161991563D01*
X113069950Y-161880680D01*
X113120984Y-161757474D01*
X113147000Y-161626679D01*
X113147000Y-161493321D01*
X113120984Y-161362526D01*
X113069950Y-161239320D01*
X112995860Y-161128437D01*
X112901563Y-161034140D01*
X112790680Y-160960050D01*
X112667474Y-160909016D01*
X112536679Y-160883000D01*
X112403321Y-160883000D01*
X112272526Y-160909016D01*
X112149320Y-160960050D01*
X112114973Y-160983000D01*
X112058263Y-160983000D01*
X112119950Y-160890680D01*
X112170984Y-160767474D01*
X112197000Y-160636679D01*
X112197000Y-160503321D01*
X112170984Y-160372526D01*
X112119950Y-160249320D01*
X112045860Y-160138437D01*
X111951563Y-160044140D01*
X111840680Y-159970050D01*
X111717474Y-159919016D01*
X111586679Y-159893000D01*
X111453321Y-159893000D01*
X111322526Y-159919016D01*
X111199320Y-159970050D01*
X111164973Y-159993000D01*
X91938339Y-159993000D01*
X91910000Y-159990209D01*
X91796888Y-160001349D01*
X91688123Y-160034343D01*
X91669795Y-160044140D01*
X91587885Y-160087921D01*
X91500026Y-160160026D01*
X91481961Y-160182038D01*
X89930999Y-161733000D01*
X83509001Y-161733000D01*
X81827039Y-160051038D01*
X81808974Y-160029026D01*
X81721115Y-159956921D01*
X81620876Y-159903343D01*
X81548371Y-159881349D01*
X81512111Y-159870349D01*
X81457045Y-159864926D01*
X81427336Y-159862000D01*
X81427331Y-159862000D01*
X81399000Y-159859210D01*
X81370669Y-159862000D01*
X80483214Y-159862000D01*
X80471663Y-159834114D01*
X80331911Y-159624960D01*
X80154040Y-159447089D01*
X79944886Y-159307337D01*
X79712487Y-159211074D01*
X79500966Y-159169000D01*
X79712487Y-159126926D01*
X79944886Y-159030663D01*
X80154040Y-158890911D01*
X80331911Y-158713040D01*
X80471663Y-158503886D01*
X80567926Y-158271487D01*
X80592229Y-158149302D01*
X86268000Y-158149302D01*
X86268000Y-158410698D01*
X86318996Y-158667072D01*
X86419028Y-158908570D01*
X86564252Y-159125913D01*
X86749087Y-159310748D01*
X86966430Y-159455972D01*
X87207928Y-159556004D01*
X87464302Y-159607000D01*
X87725698Y-159607000D01*
X87982072Y-159556004D01*
X88223570Y-159455972D01*
X88440913Y-159310748D01*
X88597055Y-159154606D01*
X88596928Y-159180000D01*
X88609188Y-159304482D01*
X88645498Y-159424180D01*
X88704463Y-159534494D01*
X88783815Y-159631185D01*
X88880506Y-159710537D01*
X88990820Y-159769502D01*
X89110518Y-159805812D01*
X89235000Y-159818072D01*
X89849250Y-159815000D01*
X90008000Y-159656250D01*
X90008000Y-158407000D01*
X90262000Y-158407000D01*
X90262000Y-159656250D01*
X90420750Y-159815000D01*
X91035000Y-159818072D01*
X91159482Y-159805812D01*
X91279180Y-159769502D01*
X91389494Y-159710537D01*
X91486185Y-159631185D01*
X91565537Y-159534494D01*
X91624502Y-159424180D01*
X91660812Y-159304482D01*
X91673072Y-159180000D01*
X91670000Y-158565750D01*
X91511250Y-158407000D01*
X90262000Y-158407000D01*
X90008000Y-158407000D01*
X89988000Y-158407000D01*
X89988000Y-158153000D01*
X90008000Y-158153000D01*
X90008000Y-156903750D01*
X90262000Y-156903750D01*
X90262000Y-158153000D01*
X91511250Y-158153000D01*
X91514948Y-158149302D01*
X99603000Y-158149302D01*
X99603000Y-158410698D01*
X99653996Y-158667072D01*
X99754028Y-158908570D01*
X99899252Y-159125913D01*
X100084087Y-159310748D01*
X100301430Y-159455972D01*
X100542928Y-159556004D01*
X100799302Y-159607000D01*
X101060698Y-159607000D01*
X101317072Y-159556004D01*
X101558570Y-159455972D01*
X101775913Y-159310748D01*
X101932055Y-159154606D01*
X101931928Y-159180000D01*
X101944188Y-159304482D01*
X101980498Y-159424180D01*
X102039463Y-159534494D01*
X102118815Y-159631185D01*
X102215506Y-159710537D01*
X102325820Y-159769502D01*
X102445518Y-159805812D01*
X102570000Y-159818072D01*
X103184250Y-159815000D01*
X103343000Y-159656250D01*
X103343000Y-158407000D01*
X103597000Y-158407000D01*
X103597000Y-159656250D01*
X103755750Y-159815000D01*
X104370000Y-159818072D01*
X104494482Y-159805812D01*
X104614180Y-159769502D01*
X104724494Y-159710537D01*
X104821185Y-159631185D01*
X104900537Y-159534494D01*
X104959502Y-159424180D01*
X104995812Y-159304482D01*
X105008072Y-159180000D01*
X105005000Y-158565750D01*
X104846250Y-158407000D01*
X103597000Y-158407000D01*
X103343000Y-158407000D01*
X103323000Y-158407000D01*
X103323000Y-158153000D01*
X103343000Y-158153000D01*
X103343000Y-156903750D01*
X103597000Y-156903750D01*
X103597000Y-158153000D01*
X104846250Y-158153000D01*
X105005000Y-157994250D01*
X105008072Y-157380000D01*
X104995812Y-157255518D01*
X104959502Y-157135820D01*
X104900537Y-157025506D01*
X104821185Y-156928815D01*
X104724494Y-156849463D01*
X104614180Y-156790498D01*
X104494482Y-156754188D01*
X104370000Y-156741928D01*
X103755750Y-156745000D01*
X103597000Y-156903750D01*
X103343000Y-156903750D01*
X103184250Y-156745000D01*
X102570000Y-156741928D01*
X102445518Y-156754188D01*
X102325820Y-156790498D01*
X102215506Y-156849463D01*
X102118815Y-156928815D01*
X102039463Y-157025506D01*
X101980498Y-157135820D01*
X101944188Y-157255518D01*
X101931928Y-157380000D01*
X101932055Y-157405394D01*
X101775913Y-157249252D01*
X101558570Y-157104028D01*
X101317072Y-157003996D01*
X101060698Y-156953000D01*
X100799302Y-156953000D01*
X100542928Y-157003996D01*
X100301430Y-157104028D01*
X100084087Y-157249252D01*
X99899252Y-157434087D01*
X99754028Y-157651430D01*
X99653996Y-157892928D01*
X99603000Y-158149302D01*
X91514948Y-158149302D01*
X91670000Y-157994250D01*
X91673072Y-157380000D01*
X91660812Y-157255518D01*
X91624502Y-157135820D01*
X91565537Y-157025506D01*
X91486185Y-156928815D01*
X91389494Y-156849463D01*
X91279180Y-156790498D01*
X91159482Y-156754188D01*
X91035000Y-156741928D01*
X90420750Y-156745000D01*
X90262000Y-156903750D01*
X90008000Y-156903750D01*
X89849250Y-156745000D01*
X89235000Y-156741928D01*
X89110518Y-156754188D01*
X88990820Y-156790498D01*
X88880506Y-156849463D01*
X88783815Y-156928815D01*
X88704463Y-157025506D01*
X88645498Y-157135820D01*
X88609188Y-157255518D01*
X88596928Y-157380000D01*
X88597055Y-157405394D01*
X88440913Y-157249252D01*
X88223570Y-157104028D01*
X87982072Y-157003996D01*
X87725698Y-156953000D01*
X87464302Y-156953000D01*
X87207928Y-157003996D01*
X86966430Y-157104028D01*
X86749087Y-157249252D01*
X86564252Y-157434087D01*
X86419028Y-157651430D01*
X86318996Y-157892928D01*
X86268000Y-158149302D01*
X80592229Y-158149302D01*
X80617000Y-158024774D01*
X80617000Y-157773226D01*
X80567926Y-157526513D01*
X80471663Y-157294114D01*
X80331911Y-157084960D01*
X80154040Y-156907089D01*
X79944886Y-156767337D01*
X79712487Y-156671074D01*
X79500966Y-156629000D01*
X79712487Y-156586926D01*
X79944886Y-156490663D01*
X80154040Y-156350911D01*
X80331911Y-156173040D01*
X80471663Y-155963886D01*
X80567926Y-155731487D01*
X80617000Y-155484774D01*
X80617000Y-155233226D01*
X80567926Y-154986513D01*
X80471663Y-154754114D01*
X80331911Y-154544960D01*
X80154040Y-154367089D01*
X79944886Y-154227337D01*
X79712487Y-154131074D01*
X79546544Y-154098066D01*
X80190000Y-154098066D01*
X80273707Y-154089822D01*
X80354196Y-154065405D01*
X80428376Y-154025755D01*
X80493395Y-153972395D01*
X80546755Y-153907376D01*
X80586405Y-153833196D01*
X80610822Y-153752707D01*
X80619066Y-153669000D01*
X80619066Y-151969000D01*
X80610822Y-151885293D01*
X80586405Y-151804804D01*
X80583465Y-151799302D01*
X86268000Y-151799302D01*
X86268000Y-152060698D01*
X86318996Y-152317072D01*
X86419028Y-152558570D01*
X86564252Y-152775913D01*
X86749087Y-152960748D01*
X86966430Y-153105972D01*
X87207928Y-153206004D01*
X87464302Y-153257000D01*
X87725698Y-153257000D01*
X87982072Y-153206004D01*
X88223570Y-153105972D01*
X88440913Y-152960748D01*
X88597055Y-152804606D01*
X88596928Y-152830000D01*
X88609188Y-152954482D01*
X88645498Y-153074180D01*
X88704463Y-153184494D01*
X88783815Y-153281185D01*
X88880506Y-153360537D01*
X88990820Y-153419502D01*
X89110518Y-153455812D01*
X89235000Y-153468072D01*
X89849250Y-153465000D01*
X90008000Y-153306250D01*
X90008000Y-152057000D01*
X90262000Y-152057000D01*
X90262000Y-153306250D01*
X90420750Y-153465000D01*
X91035000Y-153468072D01*
X91159482Y-153455812D01*
X91279180Y-153419502D01*
X91389494Y-153360537D01*
X91486185Y-153281185D01*
X91565537Y-153184494D01*
X91624502Y-153074180D01*
X91660812Y-152954482D01*
X91673072Y-152830000D01*
X91671094Y-152434302D01*
X99603000Y-152434302D01*
X99603000Y-152695698D01*
X99653996Y-152952072D01*
X99754028Y-153193570D01*
X99899252Y-153410913D01*
X100084087Y-153595748D01*
X100301430Y-153740972D01*
X100542928Y-153841004D01*
X100799302Y-153892000D01*
X101060698Y-153892000D01*
X101317072Y-153841004D01*
X101558570Y-153740972D01*
X101775913Y-153595748D01*
X101932055Y-153439606D01*
X101931928Y-153465000D01*
X101944188Y-153589482D01*
X101980498Y-153709180D01*
X102039463Y-153819494D01*
X102118815Y-153916185D01*
X102215506Y-153995537D01*
X102325820Y-154054502D01*
X102445518Y-154090812D01*
X102570000Y-154103072D01*
X103184250Y-154100000D01*
X103343000Y-153941250D01*
X103343000Y-152692000D01*
X103597000Y-152692000D01*
X103597000Y-153941250D01*
X103755750Y-154100000D01*
X104370000Y-154103072D01*
X104494482Y-154090812D01*
X104614180Y-154054502D01*
X104724494Y-153995537D01*
X104821185Y-153916185D01*
X104900537Y-153819494D01*
X104959502Y-153709180D01*
X104995812Y-153589482D01*
X105008072Y-153465000D01*
X105005000Y-152850750D01*
X104846250Y-152692000D01*
X103597000Y-152692000D01*
X103343000Y-152692000D01*
X103323000Y-152692000D01*
X103323000Y-152438000D01*
X103343000Y-152438000D01*
X103343000Y-151188750D01*
X103597000Y-151188750D01*
X103597000Y-152438000D01*
X104846250Y-152438000D01*
X105005000Y-152279250D01*
X105008072Y-151665000D01*
X104995812Y-151540518D01*
X104959502Y-151420820D01*
X104900537Y-151310506D01*
X104821185Y-151213815D01*
X104724494Y-151134463D01*
X104614180Y-151075498D01*
X104494482Y-151039188D01*
X104370000Y-151026928D01*
X103755750Y-151030000D01*
X103597000Y-151188750D01*
X103343000Y-151188750D01*
X103184250Y-151030000D01*
X102570000Y-151026928D01*
X102445518Y-151039188D01*
X102325820Y-151075498D01*
X102215506Y-151134463D01*
X102118815Y-151213815D01*
X102039463Y-151310506D01*
X101980498Y-151420820D01*
X101944188Y-151540518D01*
X101931928Y-151665000D01*
X101932055Y-151690394D01*
X101775913Y-151534252D01*
X101558570Y-151389028D01*
X101317072Y-151288996D01*
X101060698Y-151238000D01*
X100799302Y-151238000D01*
X100542928Y-151288996D01*
X100301430Y-151389028D01*
X100084087Y-151534252D01*
X99899252Y-151719087D01*
X99754028Y-151936430D01*
X99653996Y-152177928D01*
X99603000Y-152434302D01*
X91671094Y-152434302D01*
X91670000Y-152215750D01*
X91511250Y-152057000D01*
X90262000Y-152057000D01*
X90008000Y-152057000D01*
X89988000Y-152057000D01*
X89988000Y-151803000D01*
X90008000Y-151803000D01*
X90008000Y-150553750D01*
X90262000Y-150553750D01*
X90262000Y-151803000D01*
X91511250Y-151803000D01*
X91670000Y-151644250D01*
X91673072Y-151030000D01*
X91660812Y-150905518D01*
X91624502Y-150785820D01*
X91565537Y-150675506D01*
X91486185Y-150578815D01*
X91389494Y-150499463D01*
X91279180Y-150440498D01*
X91159482Y-150404188D01*
X91035000Y-150391928D01*
X90420750Y-150395000D01*
X90262000Y-150553750D01*
X90008000Y-150553750D01*
X89849250Y-150395000D01*
X89235000Y-150391928D01*
X89110518Y-150404188D01*
X88990820Y-150440498D01*
X88880506Y-150499463D01*
X88783815Y-150578815D01*
X88704463Y-150675506D01*
X88645498Y-150785820D01*
X88609188Y-150905518D01*
X88596928Y-151030000D01*
X88597055Y-151055394D01*
X88440913Y-150899252D01*
X88223570Y-150754028D01*
X87982072Y-150653996D01*
X87725698Y-150603000D01*
X87464302Y-150603000D01*
X87207928Y-150653996D01*
X86966430Y-150754028D01*
X86749087Y-150899252D01*
X86564252Y-151084087D01*
X86419028Y-151301430D01*
X86318996Y-151542928D01*
X86268000Y-151799302D01*
X80583465Y-151799302D01*
X80546755Y-151730624D01*
X80493395Y-151665605D01*
X80428376Y-151612245D01*
X80354196Y-151572595D01*
X80273707Y-151548178D01*
X80190000Y-151539934D01*
X78490000Y-151539934D01*
X78406293Y-151548178D01*
X78325804Y-151572595D01*
X78251624Y-151612245D01*
X78186605Y-151665605D01*
X78133245Y-151730624D01*
X78093595Y-151804804D01*
X78069178Y-151885293D01*
X78060934Y-151969000D01*
X78060934Y-152612456D01*
X78027926Y-152446513D01*
X77931663Y-152214114D01*
X77791911Y-152004960D01*
X77614040Y-151827089D01*
X77404886Y-151687337D01*
X77172487Y-151591074D01*
X76925774Y-151542000D01*
X76674226Y-151542000D01*
X76427513Y-151591074D01*
X76195114Y-151687337D01*
X75985960Y-151827089D01*
X75808089Y-152004960D01*
X75668337Y-152214114D01*
X75572074Y-152446513D01*
X75523000Y-152693226D01*
X75523000Y-152944774D01*
X75572074Y-153191487D01*
X75668337Y-153423886D01*
X75808089Y-153633040D01*
X75985960Y-153810911D01*
X76195114Y-153950663D01*
X76427513Y-154046926D01*
X76639034Y-154089000D01*
X76427513Y-154131074D01*
X76195114Y-154227337D01*
X75985960Y-154367089D01*
X75808089Y-154544960D01*
X75668337Y-154754114D01*
X75572074Y-154986513D01*
X75523000Y-155233226D01*
X75523000Y-155484774D01*
X75572074Y-155731487D01*
X75668337Y-155963886D01*
X75808089Y-156173040D01*
X75985960Y-156350911D01*
X76195114Y-156490663D01*
X76427513Y-156586926D01*
X76639034Y-156629000D01*
X76427513Y-156671074D01*
X76195114Y-156767337D01*
X75985960Y-156907089D01*
X75808089Y-157084960D01*
X75668337Y-157294114D01*
X75572074Y-157526513D01*
X75523000Y-157773226D01*
X75523000Y-158024774D01*
X75572074Y-158271487D01*
X75668337Y-158503886D01*
X75808089Y-158713040D01*
X75985960Y-158890911D01*
X76195114Y-159030663D01*
X76427513Y-159126926D01*
X76639034Y-159169000D01*
X76427513Y-159211074D01*
X76195114Y-159307337D01*
X75985960Y-159447089D01*
X75808089Y-159624960D01*
X75668337Y-159834114D01*
X75572074Y-160066513D01*
X75523000Y-160313226D01*
X75523000Y-160564774D01*
X75572074Y-160811487D01*
X75586847Y-160847152D01*
X75092038Y-161341961D01*
X75070026Y-161360026D01*
X75022000Y-161418546D01*
X75022000Y-148675413D01*
X83464192Y-148675413D01*
X83559956Y-148939814D01*
X83849571Y-149080704D01*
X84161108Y-149162384D01*
X84482595Y-149181718D01*
X84801675Y-149137961D01*
X85106088Y-149032795D01*
X85280044Y-148939814D01*
X85375808Y-148675413D01*
X89964192Y-148675413D01*
X90059956Y-148939814D01*
X90349571Y-149080704D01*
X90661108Y-149162384D01*
X90982595Y-149181718D01*
X91301675Y-149137961D01*
X91606088Y-149032795D01*
X91780044Y-148939814D01*
X91875808Y-148675413D01*
X94259192Y-148675413D01*
X94354956Y-148939814D01*
X94644571Y-149080704D01*
X94956108Y-149162384D01*
X95277595Y-149181718D01*
X95596675Y-149137961D01*
X95901088Y-149032795D01*
X96075044Y-148939814D01*
X96170808Y-148675413D01*
X100759192Y-148675413D01*
X100854956Y-148939814D01*
X101144571Y-149080704D01*
X101456108Y-149162384D01*
X101777595Y-149181718D01*
X102096675Y-149137961D01*
X102401088Y-149032795D01*
X102575044Y-148939814D01*
X102670808Y-148675413D01*
X105054192Y-148675413D01*
X105149956Y-148939814D01*
X105439571Y-149080704D01*
X105751108Y-149162384D01*
X106072595Y-149181718D01*
X106391675Y-149137961D01*
X106696088Y-149032795D01*
X106870044Y-148939814D01*
X106965808Y-148675413D01*
X111554192Y-148675413D01*
X111649956Y-148939814D01*
X111939571Y-149080704D01*
X112251108Y-149162384D01*
X112572595Y-149181718D01*
X112891675Y-149137961D01*
X113196088Y-149032795D01*
X113370044Y-148939814D01*
X113465808Y-148675413D01*
X115849192Y-148675413D01*
X115944956Y-148939814D01*
X116234571Y-149080704D01*
X116546108Y-149162384D01*
X116867595Y-149181718D01*
X117186675Y-149137961D01*
X117491088Y-149032795D01*
X117665044Y-148939814D01*
X117760808Y-148675413D01*
X122349192Y-148675413D01*
X122444956Y-148939814D01*
X122734571Y-149080704D01*
X123046108Y-149162384D01*
X123367595Y-149181718D01*
X123686675Y-149137961D01*
X123991088Y-149032795D01*
X124165044Y-148939814D01*
X124260808Y-148675413D01*
X126644192Y-148675413D01*
X126739956Y-148939814D01*
X127029571Y-149080704D01*
X127341108Y-149162384D01*
X127662595Y-149181718D01*
X127981675Y-149137961D01*
X128286088Y-149032795D01*
X128460044Y-148939814D01*
X128555808Y-148675413D01*
X133144192Y-148675413D01*
X133239956Y-148939814D01*
X133529571Y-149080704D01*
X133841108Y-149162384D01*
X134162595Y-149181718D01*
X134481675Y-149137961D01*
X134786088Y-149032795D01*
X134960044Y-148939814D01*
X135055808Y-148675413D01*
X134100000Y-147719605D01*
X133144192Y-148675413D01*
X128555808Y-148675413D01*
X127600000Y-147719605D01*
X126644192Y-148675413D01*
X124260808Y-148675413D01*
X123305000Y-147719605D01*
X122349192Y-148675413D01*
X117760808Y-148675413D01*
X116805000Y-147719605D01*
X115849192Y-148675413D01*
X113465808Y-148675413D01*
X112510000Y-147719605D01*
X111554192Y-148675413D01*
X106965808Y-148675413D01*
X106010000Y-147719605D01*
X105054192Y-148675413D01*
X102670808Y-148675413D01*
X101715000Y-147719605D01*
X100759192Y-148675413D01*
X96170808Y-148675413D01*
X95215000Y-147719605D01*
X94259192Y-148675413D01*
X91875808Y-148675413D01*
X90920000Y-147719605D01*
X89964192Y-148675413D01*
X85375808Y-148675413D01*
X84420000Y-147719605D01*
X83464192Y-148675413D01*
X75022000Y-148675413D01*
X75022000Y-147602595D01*
X82778282Y-147602595D01*
X82822039Y-147921675D01*
X82927205Y-148226088D01*
X83020186Y-148400044D01*
X83284587Y-148495808D01*
X84240395Y-147540000D01*
X84599605Y-147540000D01*
X85555413Y-148495808D01*
X85819814Y-148400044D01*
X85960704Y-148110429D01*
X86042384Y-147798892D01*
X86054189Y-147602595D01*
X89278282Y-147602595D01*
X89322039Y-147921675D01*
X89427205Y-148226088D01*
X89520186Y-148400044D01*
X89784587Y-148495808D01*
X90740395Y-147540000D01*
X91099605Y-147540000D01*
X92055413Y-148495808D01*
X92319814Y-148400044D01*
X92460704Y-148110429D01*
X92542384Y-147798892D01*
X92554189Y-147602595D01*
X93573282Y-147602595D01*
X93617039Y-147921675D01*
X93722205Y-148226088D01*
X93815186Y-148400044D01*
X94079587Y-148495808D01*
X95035395Y-147540000D01*
X95394605Y-147540000D01*
X96350413Y-148495808D01*
X96614814Y-148400044D01*
X96755704Y-148110429D01*
X96837384Y-147798892D01*
X96849189Y-147602595D01*
X100073282Y-147602595D01*
X100117039Y-147921675D01*
X100222205Y-148226088D01*
X100315186Y-148400044D01*
X100579587Y-148495808D01*
X101535395Y-147540000D01*
X101894605Y-147540000D01*
X102850413Y-148495808D01*
X103114814Y-148400044D01*
X103255704Y-148110429D01*
X103337384Y-147798892D01*
X103349189Y-147602595D01*
X104368282Y-147602595D01*
X104412039Y-147921675D01*
X104517205Y-148226088D01*
X104610186Y-148400044D01*
X104874587Y-148495808D01*
X105830395Y-147540000D01*
X106189605Y-147540000D01*
X107145413Y-148495808D01*
X107409814Y-148400044D01*
X107550704Y-148110429D01*
X107632384Y-147798892D01*
X107644189Y-147602595D01*
X110868282Y-147602595D01*
X110912039Y-147921675D01*
X111017205Y-148226088D01*
X111110186Y-148400044D01*
X111374587Y-148495808D01*
X112330395Y-147540000D01*
X112689605Y-147540000D01*
X113645413Y-148495808D01*
X113909814Y-148400044D01*
X114050704Y-148110429D01*
X114132384Y-147798892D01*
X114144189Y-147602595D01*
X115163282Y-147602595D01*
X115207039Y-147921675D01*
X115312205Y-148226088D01*
X115405186Y-148400044D01*
X115669587Y-148495808D01*
X116625395Y-147540000D01*
X116984605Y-147540000D01*
X117940413Y-148495808D01*
X118204814Y-148400044D01*
X118345704Y-148110429D01*
X118427384Y-147798892D01*
X118439189Y-147602595D01*
X121663282Y-147602595D01*
X121707039Y-147921675D01*
X121812205Y-148226088D01*
X121905186Y-148400044D01*
X122169587Y-148495808D01*
X123125395Y-147540000D01*
X123484605Y-147540000D01*
X124440413Y-148495808D01*
X124704814Y-148400044D01*
X124845704Y-148110429D01*
X124927384Y-147798892D01*
X124939189Y-147602595D01*
X125958282Y-147602595D01*
X126002039Y-147921675D01*
X126107205Y-148226088D01*
X126200186Y-148400044D01*
X126464587Y-148495808D01*
X127420395Y-147540000D01*
X127779605Y-147540000D01*
X128735413Y-148495808D01*
X128999814Y-148400044D01*
X129140704Y-148110429D01*
X129222384Y-147798892D01*
X129234189Y-147602595D01*
X132458282Y-147602595D01*
X132502039Y-147921675D01*
X132607205Y-148226088D01*
X132700186Y-148400044D01*
X132964587Y-148495808D01*
X133920395Y-147540000D01*
X134279605Y-147540000D01*
X135235413Y-148495808D01*
X135499814Y-148400044D01*
X135640704Y-148110429D01*
X135722384Y-147798892D01*
X135741718Y-147477405D01*
X135697961Y-147158325D01*
X135592795Y-146853912D01*
X135499814Y-146679956D01*
X135235413Y-146584192D01*
X134279605Y-147540000D01*
X133920395Y-147540000D01*
X132964587Y-146584192D01*
X132700186Y-146679956D01*
X132559296Y-146969571D01*
X132477616Y-147281108D01*
X132458282Y-147602595D01*
X129234189Y-147602595D01*
X129241718Y-147477405D01*
X129197961Y-147158325D01*
X129092795Y-146853912D01*
X128999814Y-146679956D01*
X128735413Y-146584192D01*
X127779605Y-147540000D01*
X127420395Y-147540000D01*
X126464587Y-146584192D01*
X126200186Y-146679956D01*
X126059296Y-146969571D01*
X125977616Y-147281108D01*
X125958282Y-147602595D01*
X124939189Y-147602595D01*
X124946718Y-147477405D01*
X124902961Y-147158325D01*
X124797795Y-146853912D01*
X124704814Y-146679956D01*
X124440413Y-146584192D01*
X123484605Y-147540000D01*
X123125395Y-147540000D01*
X122169587Y-146584192D01*
X121905186Y-146679956D01*
X121764296Y-146969571D01*
X121682616Y-147281108D01*
X121663282Y-147602595D01*
X118439189Y-147602595D01*
X118446718Y-147477405D01*
X118402961Y-147158325D01*
X118297795Y-146853912D01*
X118204814Y-146679956D01*
X117940413Y-146584192D01*
X116984605Y-147540000D01*
X116625395Y-147540000D01*
X115669587Y-146584192D01*
X115405186Y-146679956D01*
X115264296Y-146969571D01*
X115182616Y-147281108D01*
X115163282Y-147602595D01*
X114144189Y-147602595D01*
X114151718Y-147477405D01*
X114107961Y-147158325D01*
X114002795Y-146853912D01*
X113909814Y-146679956D01*
X113645413Y-146584192D01*
X112689605Y-147540000D01*
X112330395Y-147540000D01*
X111374587Y-146584192D01*
X111110186Y-146679956D01*
X110969296Y-146969571D01*
X110887616Y-147281108D01*
X110868282Y-147602595D01*
X107644189Y-147602595D01*
X107651718Y-147477405D01*
X107607961Y-147158325D01*
X107502795Y-146853912D01*
X107409814Y-146679956D01*
X107145413Y-146584192D01*
X106189605Y-147540000D01*
X105830395Y-147540000D01*
X104874587Y-146584192D01*
X104610186Y-146679956D01*
X104469296Y-146969571D01*
X104387616Y-147281108D01*
X104368282Y-147602595D01*
X103349189Y-147602595D01*
X103356718Y-147477405D01*
X103312961Y-147158325D01*
X103207795Y-146853912D01*
X103114814Y-146679956D01*
X102850413Y-146584192D01*
X101894605Y-147540000D01*
X101535395Y-147540000D01*
X100579587Y-146584192D01*
X100315186Y-146679956D01*
X100174296Y-146969571D01*
X100092616Y-147281108D01*
X100073282Y-147602595D01*
X96849189Y-147602595D01*
X96856718Y-147477405D01*
X96812961Y-147158325D01*
X96707795Y-146853912D01*
X96614814Y-146679956D01*
X96350413Y-146584192D01*
X95394605Y-147540000D01*
X95035395Y-147540000D01*
X94079587Y-146584192D01*
X93815186Y-146679956D01*
X93674296Y-146969571D01*
X93592616Y-147281108D01*
X93573282Y-147602595D01*
X92554189Y-147602595D01*
X92561718Y-147477405D01*
X92517961Y-147158325D01*
X92412795Y-146853912D01*
X92319814Y-146679956D01*
X92055413Y-146584192D01*
X91099605Y-147540000D01*
X90740395Y-147540000D01*
X89784587Y-146584192D01*
X89520186Y-146679956D01*
X89379296Y-146969571D01*
X89297616Y-147281108D01*
X89278282Y-147602595D01*
X86054189Y-147602595D01*
X86061718Y-147477405D01*
X86017961Y-147158325D01*
X85912795Y-146853912D01*
X85819814Y-146679956D01*
X85555413Y-146584192D01*
X84599605Y-147540000D01*
X84240395Y-147540000D01*
X83284587Y-146584192D01*
X83020186Y-146679956D01*
X82879296Y-146969571D01*
X82797616Y-147281108D01*
X82778282Y-147602595D01*
X75022000Y-147602595D01*
X75022000Y-146404587D01*
X83464192Y-146404587D01*
X84420000Y-147360395D01*
X85375808Y-146404587D01*
X89964192Y-146404587D01*
X90920000Y-147360395D01*
X91875808Y-146404587D01*
X94259192Y-146404587D01*
X95215000Y-147360395D01*
X96170808Y-146404587D01*
X100759192Y-146404587D01*
X101715000Y-147360395D01*
X102670808Y-146404587D01*
X105054192Y-146404587D01*
X106010000Y-147360395D01*
X106965808Y-146404587D01*
X111554192Y-146404587D01*
X112510000Y-147360395D01*
X113465808Y-146404587D01*
X115849192Y-146404587D01*
X116805000Y-147360395D01*
X117760808Y-146404587D01*
X122349192Y-146404587D01*
X123305000Y-147360395D01*
X124260808Y-146404587D01*
X126644192Y-146404587D01*
X127600000Y-147360395D01*
X128555808Y-146404587D01*
X133144192Y-146404587D01*
X134100000Y-147360395D01*
X135055808Y-146404587D01*
X134960044Y-146140186D01*
X134670429Y-145999296D01*
X134358892Y-145917616D01*
X134037405Y-145898282D01*
X133718325Y-145942039D01*
X133413912Y-146047205D01*
X133239956Y-146140186D01*
X133144192Y-146404587D01*
X128555808Y-146404587D01*
X128460044Y-146140186D01*
X128170429Y-145999296D01*
X127858892Y-145917616D01*
X127537405Y-145898282D01*
X127218325Y-145942039D01*
X126913912Y-146047205D01*
X126739956Y-146140186D01*
X126644192Y-146404587D01*
X124260808Y-146404587D01*
X124165044Y-146140186D01*
X123875429Y-145999296D01*
X123563892Y-145917616D01*
X123242405Y-145898282D01*
X122923325Y-145942039D01*
X122618912Y-146047205D01*
X122444956Y-146140186D01*
X122349192Y-146404587D01*
X117760808Y-146404587D01*
X117665044Y-146140186D01*
X117375429Y-145999296D01*
X117063892Y-145917616D01*
X116742405Y-145898282D01*
X116423325Y-145942039D01*
X116118912Y-146047205D01*
X115944956Y-146140186D01*
X115849192Y-146404587D01*
X113465808Y-146404587D01*
X113370044Y-146140186D01*
X113080429Y-145999296D01*
X112768892Y-145917616D01*
X112447405Y-145898282D01*
X112128325Y-145942039D01*
X111823912Y-146047205D01*
X111649956Y-146140186D01*
X111554192Y-146404587D01*
X106965808Y-146404587D01*
X106870044Y-146140186D01*
X106580429Y-145999296D01*
X106268892Y-145917616D01*
X105947405Y-145898282D01*
X105628325Y-145942039D01*
X105323912Y-146047205D01*
X105149956Y-146140186D01*
X105054192Y-146404587D01*
X102670808Y-146404587D01*
X102575044Y-146140186D01*
X102285429Y-145999296D01*
X101973892Y-145917616D01*
X101652405Y-145898282D01*
X101333325Y-145942039D01*
X101028912Y-146047205D01*
X100854956Y-146140186D01*
X100759192Y-146404587D01*
X96170808Y-146404587D01*
X96075044Y-146140186D01*
X95785429Y-145999296D01*
X95473892Y-145917616D01*
X95152405Y-145898282D01*
X94833325Y-145942039D01*
X94528912Y-146047205D01*
X94354956Y-146140186D01*
X94259192Y-146404587D01*
X91875808Y-146404587D01*
X91780044Y-146140186D01*
X91490429Y-145999296D01*
X91178892Y-145917616D01*
X90857405Y-145898282D01*
X90538325Y-145942039D01*
X90233912Y-146047205D01*
X90059956Y-146140186D01*
X89964192Y-146404587D01*
X85375808Y-146404587D01*
X85280044Y-146140186D01*
X84990429Y-145999296D01*
X84678892Y-145917616D01*
X84357405Y-145898282D01*
X84038325Y-145942039D01*
X83733912Y-146047205D01*
X83559956Y-146140186D01*
X83464192Y-146404587D01*
X75022000Y-146404587D01*
X75022000Y-142899453D01*
X82993000Y-142899453D01*
X82993000Y-143180547D01*
X83047838Y-143456241D01*
X83155409Y-143715938D01*
X83311576Y-143949660D01*
X83510340Y-144148424D01*
X83744062Y-144304591D01*
X84003759Y-144412162D01*
X84279453Y-144467000D01*
X84560547Y-144467000D01*
X84836241Y-144412162D01*
X85095938Y-144304591D01*
X85329660Y-144148424D01*
X85528424Y-143949660D01*
X85684591Y-143715938D01*
X85792162Y-143456241D01*
X85847000Y-143180547D01*
X85847000Y-142899453D01*
X89493000Y-142899453D01*
X89493000Y-143180547D01*
X89547838Y-143456241D01*
X89655409Y-143715938D01*
X89811576Y-143949660D01*
X90010340Y-144148424D01*
X90244062Y-144304591D01*
X90503759Y-144412162D01*
X90779453Y-144467000D01*
X91060547Y-144467000D01*
X91336241Y-144412162D01*
X91595938Y-144304591D01*
X91829660Y-144148424D01*
X92028424Y-143949660D01*
X92184591Y-143715938D01*
X92292162Y-143456241D01*
X92347000Y-143180547D01*
X92347000Y-142899453D01*
X93788000Y-142899453D01*
X93788000Y-143180547D01*
X93842838Y-143456241D01*
X93950409Y-143715938D01*
X94106576Y-143949660D01*
X94305340Y-144148424D01*
X94539062Y-144304591D01*
X94798759Y-144412162D01*
X95074453Y-144467000D01*
X95355547Y-144467000D01*
X95631241Y-144412162D01*
X95890938Y-144304591D01*
X96124660Y-144148424D01*
X96323424Y-143949660D01*
X96479591Y-143715938D01*
X96587162Y-143456241D01*
X96642000Y-143180547D01*
X96642000Y-142899453D01*
X100288000Y-142899453D01*
X100288000Y-143180547D01*
X100342838Y-143456241D01*
X100450409Y-143715938D01*
X100606576Y-143949660D01*
X100805340Y-144148424D01*
X101039062Y-144304591D01*
X101298759Y-144412162D01*
X101574453Y-144467000D01*
X101855547Y-144467000D01*
X102131241Y-144412162D01*
X102390938Y-144304591D01*
X102624660Y-144148424D01*
X102823424Y-143949660D01*
X102979591Y-143715938D01*
X103087162Y-143456241D01*
X103142000Y-143180547D01*
X103142000Y-142899453D01*
X104583000Y-142899453D01*
X104583000Y-143180547D01*
X104637838Y-143456241D01*
X104745409Y-143715938D01*
X104901576Y-143949660D01*
X105100340Y-144148424D01*
X105334062Y-144304591D01*
X105593759Y-144412162D01*
X105869453Y-144467000D01*
X106150547Y-144467000D01*
X106426241Y-144412162D01*
X106685938Y-144304591D01*
X106919660Y-144148424D01*
X107118424Y-143949660D01*
X107274591Y-143715938D01*
X107382162Y-143456241D01*
X107437000Y-143180547D01*
X107437000Y-142899453D01*
X111083000Y-142899453D01*
X111083000Y-143180547D01*
X111137838Y-143456241D01*
X111245409Y-143715938D01*
X111401576Y-143949660D01*
X111600340Y-144148424D01*
X111834062Y-144304591D01*
X112093759Y-144412162D01*
X112369453Y-144467000D01*
X112650547Y-144467000D01*
X112926241Y-144412162D01*
X113185938Y-144304591D01*
X113419660Y-144148424D01*
X113618424Y-143949660D01*
X113774591Y-143715938D01*
X113882162Y-143456241D01*
X113937000Y-143180547D01*
X113937000Y-142899453D01*
X115378000Y-142899453D01*
X115378000Y-143180547D01*
X115432838Y-143456241D01*
X115540409Y-143715938D01*
X115696576Y-143949660D01*
X115895340Y-144148424D01*
X116129062Y-144304591D01*
X116388759Y-144412162D01*
X116664453Y-144467000D01*
X116945547Y-144467000D01*
X117221241Y-144412162D01*
X117480938Y-144304591D01*
X117714660Y-144148424D01*
X117913424Y-143949660D01*
X118069591Y-143715938D01*
X118177162Y-143456241D01*
X118232000Y-143180547D01*
X118232000Y-142899453D01*
X121878000Y-142899453D01*
X121878000Y-143180547D01*
X121932838Y-143456241D01*
X122040409Y-143715938D01*
X122196576Y-143949660D01*
X122395340Y-144148424D01*
X122629062Y-144304591D01*
X122888759Y-144412162D01*
X123164453Y-144467000D01*
X123445547Y-144467000D01*
X123721241Y-144412162D01*
X123980938Y-144304591D01*
X124214660Y-144148424D01*
X124413424Y-143949660D01*
X124569591Y-143715938D01*
X124677162Y-143456241D01*
X124732000Y-143180547D01*
X124732000Y-142899453D01*
X126173000Y-142899453D01*
X126173000Y-143180547D01*
X126227838Y-143456241D01*
X126335409Y-143715938D01*
X126491576Y-143949660D01*
X126690340Y-144148424D01*
X126924062Y-144304591D01*
X127183759Y-144412162D01*
X127459453Y-144467000D01*
X127740547Y-144467000D01*
X128016241Y-144412162D01*
X128275938Y-144304591D01*
X128509660Y-144148424D01*
X128708424Y-143949660D01*
X128864591Y-143715938D01*
X128972162Y-143456241D01*
X129027000Y-143180547D01*
X129027000Y-142899453D01*
X132673000Y-142899453D01*
X132673000Y-143180547D01*
X132727838Y-143456241D01*
X132835409Y-143715938D01*
X132991576Y-143949660D01*
X133190340Y-144148424D01*
X133424062Y-144304591D01*
X133683759Y-144412162D01*
X133959453Y-144467000D01*
X134240547Y-144467000D01*
X134516241Y-144412162D01*
X134775938Y-144304591D01*
X135009660Y-144148424D01*
X135208424Y-143949660D01*
X135364591Y-143715938D01*
X135472162Y-143456241D01*
X135527000Y-143180547D01*
X135527000Y-142899453D01*
X135472162Y-142623759D01*
X135364591Y-142364062D01*
X135208424Y-142130340D01*
X135009660Y-141931576D01*
X134775938Y-141775409D01*
X134516241Y-141667838D01*
X134240547Y-141613000D01*
X133959453Y-141613000D01*
X133683759Y-141667838D01*
X133424062Y-141775409D01*
X133190340Y-141931576D01*
X132991576Y-142130340D01*
X132835409Y-142364062D01*
X132727838Y-142623759D01*
X132673000Y-142899453D01*
X129027000Y-142899453D01*
X128972162Y-142623759D01*
X128864591Y-142364062D01*
X128708424Y-142130340D01*
X128509660Y-141931576D01*
X128275938Y-141775409D01*
X128016241Y-141667838D01*
X127740547Y-141613000D01*
X127459453Y-141613000D01*
X127183759Y-141667838D01*
X126924062Y-141775409D01*
X126690340Y-141931576D01*
X126491576Y-142130340D01*
X126335409Y-142364062D01*
X126227838Y-142623759D01*
X126173000Y-142899453D01*
X124732000Y-142899453D01*
X124677162Y-142623759D01*
X124569591Y-142364062D01*
X124413424Y-142130340D01*
X124214660Y-141931576D01*
X123980938Y-141775409D01*
X123721241Y-141667838D01*
X123445547Y-141613000D01*
X123164453Y-141613000D01*
X122888759Y-141667838D01*
X122629062Y-141775409D01*
X122395340Y-141931576D01*
X122196576Y-142130340D01*
X122040409Y-142364062D01*
X121932838Y-142623759D01*
X121878000Y-142899453D01*
X118232000Y-142899453D01*
X118177162Y-142623759D01*
X118069591Y-142364062D01*
X117913424Y-142130340D01*
X117714660Y-141931576D01*
X117480938Y-141775409D01*
X117221241Y-141667838D01*
X116945547Y-141613000D01*
X116664453Y-141613000D01*
X116388759Y-141667838D01*
X116129062Y-141775409D01*
X115895340Y-141931576D01*
X115696576Y-142130340D01*
X115540409Y-142364062D01*
X115432838Y-142623759D01*
X115378000Y-142899453D01*
X113937000Y-142899453D01*
X113882162Y-142623759D01*
X113774591Y-142364062D01*
X113618424Y-142130340D01*
X113419660Y-141931576D01*
X113185938Y-141775409D01*
X112926241Y-141667838D01*
X112650547Y-141613000D01*
X112369453Y-141613000D01*
X112093759Y-141667838D01*
X111834062Y-141775409D01*
X111600340Y-141931576D01*
X111401576Y-142130340D01*
X111245409Y-142364062D01*
X111137838Y-142623759D01*
X111083000Y-142899453D01*
X107437000Y-142899453D01*
X107382162Y-142623759D01*
X107274591Y-142364062D01*
X107118424Y-142130340D01*
X106919660Y-141931576D01*
X106685938Y-141775409D01*
X106426241Y-141667838D01*
X106150547Y-141613000D01*
X105869453Y-141613000D01*
X105593759Y-141667838D01*
X105334062Y-141775409D01*
X105100340Y-141931576D01*
X104901576Y-142130340D01*
X104745409Y-142364062D01*
X104637838Y-142623759D01*
X104583000Y-142899453D01*
X103142000Y-142899453D01*
X103087162Y-142623759D01*
X102979591Y-142364062D01*
X102823424Y-142130340D01*
X102624660Y-141931576D01*
X102390938Y-141775409D01*
X102131241Y-141667838D01*
X101855547Y-141613000D01*
X101574453Y-141613000D01*
X101298759Y-141667838D01*
X101039062Y-141775409D01*
X100805340Y-141931576D01*
X100606576Y-142130340D01*
X100450409Y-142364062D01*
X100342838Y-142623759D01*
X100288000Y-142899453D01*
X96642000Y-142899453D01*
X96587162Y-142623759D01*
X96479591Y-142364062D01*
X96323424Y-142130340D01*
X96124660Y-141931576D01*
X95890938Y-141775409D01*
X95631241Y-141667838D01*
X95355547Y-141613000D01*
X95074453Y-141613000D01*
X94798759Y-141667838D01*
X94539062Y-141775409D01*
X94305340Y-141931576D01*
X94106576Y-142130340D01*
X93950409Y-142364062D01*
X93842838Y-142623759D01*
X93788000Y-142899453D01*
X92347000Y-142899453D01*
X92292162Y-142623759D01*
X92184591Y-142364062D01*
X92028424Y-142130340D01*
X91829660Y-141931576D01*
X91595938Y-141775409D01*
X91336241Y-141667838D01*
X91060547Y-141613000D01*
X90779453Y-141613000D01*
X90503759Y-141667838D01*
X90244062Y-141775409D01*
X90010340Y-141931576D01*
X89811576Y-142130340D01*
X89655409Y-142364062D01*
X89547838Y-142623759D01*
X89493000Y-142899453D01*
X85847000Y-142899453D01*
X85792162Y-142623759D01*
X85684591Y-142364062D01*
X85528424Y-142130340D01*
X85329660Y-141931576D01*
X85095938Y-141775409D01*
X84836241Y-141667838D01*
X84560547Y-141613000D01*
X84279453Y-141613000D01*
X84003759Y-141667838D01*
X83744062Y-141775409D01*
X83510340Y-141931576D01*
X83311576Y-142130340D01*
X83155409Y-142364062D01*
X83047838Y-142623759D01*
X82993000Y-142899453D01*
X75022000Y-142899453D01*
X75022000Y-138023418D01*
X172558000Y-137960083D01*
X172558000Y-177837917D01*
M02*
