G04 #@! TF.GenerationSoftware,KiCad,Pcbnew,(5.1.4)-1*
G04 #@! TF.CreationDate,2020-07-08T19:39:57+02:00*
G04 #@! TF.ProjectId,SBIO3,5342494f-332e-46b6-9963-61645f706362,rev?*
G04 #@! TF.SameCoordinates,Original*
G04 #@! TF.FileFunction,Legend,Top*
G04 #@! TF.FilePolarity,Positive*
%FSLAX46Y46*%
G04 Gerber Fmt 4.6, Leading zero omitted, Abs format (unit mm)*
G04 Created by KiCad (PCBNEW (5.1.4)-1) date 2020-07-08 19:39:57*
%MOMM*%
%LPD*%
G04 APERTURE LIST*
%ADD10C,0.120000*%
%ADD11C,0.150000*%
G04 APERTURE END LIST*
D10*
X88493870Y-144970163D02*
G75*
G02X90575961Y-144970000I1041130J-1079837D01*
G01*
X88493870Y-147129837D02*
G75*
G03X90575961Y-147130000I1041130J1079837D01*
G01*
X87862665Y-144971392D02*
G75*
G02X91095000Y-144814484I1672335J-1078608D01*
G01*
X87862665Y-147128608D02*
G75*
G03X91095000Y-147285516I1672335J1078608D01*
G01*
X91095000Y-144970000D02*
X91095000Y-144814000D01*
X91095000Y-147286000D02*
X91095000Y-147130000D01*
X88493870Y-151320163D02*
G75*
G02X90575961Y-151320000I1041130J-1079837D01*
G01*
X88493870Y-153479837D02*
G75*
G03X90575961Y-153480000I1041130J1079837D01*
G01*
X87862665Y-151321392D02*
G75*
G02X91095000Y-151164484I1672335J-1078608D01*
G01*
X87862665Y-153478608D02*
G75*
G03X91095000Y-153635516I1672335J1078608D01*
G01*
X91095000Y-151320000D02*
X91095000Y-151164000D01*
X91095000Y-153636000D02*
X91095000Y-153480000D01*
X170116500Y-146815500D02*
X171446500Y-146815500D01*
X171446500Y-146815500D02*
X171446500Y-148145500D01*
X171446500Y-149415500D02*
X171446500Y-157095500D01*
X168786500Y-157095500D02*
X171446500Y-157095500D01*
X168786500Y-149415500D02*
X168786500Y-157095500D01*
X168786500Y-149415500D02*
X171446500Y-149415500D01*
X80010000Y-145609000D02*
X81340000Y-145609000D01*
X81340000Y-145609000D02*
X81340000Y-146939000D01*
X78740000Y-145609000D02*
X78740000Y-148209000D01*
X78740000Y-148209000D02*
X81340000Y-148209000D01*
X81340000Y-148209000D02*
X81340000Y-158429000D01*
X76140000Y-158429000D02*
X81340000Y-158429000D01*
X76140000Y-145609000D02*
X76140000Y-158429000D01*
X76140000Y-145609000D02*
X78740000Y-145609000D01*
D11*
X122725000Y-170785000D02*
X124100000Y-170785000D01*
X122725000Y-160660000D02*
X118575000Y-160660000D01*
X122725000Y-170810000D02*
X118575000Y-170810000D01*
X122725000Y-160660000D02*
X122725000Y-160765000D01*
X118575000Y-160660000D02*
X118575000Y-160765000D01*
X118575000Y-170810000D02*
X118575000Y-170705000D01*
X122725000Y-170810000D02*
X122725000Y-170785000D01*
D10*
X135020000Y-140160000D02*
X135020000Y-138660000D01*
X133770000Y-136160000D02*
X129270000Y-136160000D01*
X128020000Y-138660000D02*
X128020000Y-140160000D01*
X129270000Y-142660000D02*
X133770000Y-142660000D01*
D11*
X89230000Y-170810000D02*
X89230000Y-170785000D01*
X85080000Y-170810000D02*
X85080000Y-170705000D01*
X85080000Y-160660000D02*
X85080000Y-160765000D01*
X89230000Y-160660000D02*
X89230000Y-160765000D01*
X89230000Y-170810000D02*
X85080000Y-170810000D01*
X89230000Y-160660000D02*
X85080000Y-160660000D01*
X89230000Y-170785000D02*
X90605000Y-170785000D01*
D10*
X101197665Y-170623608D02*
G75*
G03X104430000Y-170780516I1672335J1078608D01*
G01*
X101197665Y-168466392D02*
G75*
G02X104430000Y-168309484I1672335J-1078608D01*
G01*
X101828870Y-170624837D02*
G75*
G03X103910961Y-170625000I1041130J1079837D01*
G01*
X101828870Y-168465163D02*
G75*
G02X103910961Y-168465000I1041130J-1079837D01*
G01*
X104430000Y-170781000D02*
X104430000Y-170625000D01*
X104430000Y-168465000D02*
X104430000Y-168309000D01*
X79420000Y-160620000D02*
X79420000Y-161620000D01*
X78060000Y-161620000D02*
X78060000Y-160620000D01*
X135390000Y-154260000D02*
X136390000Y-154260000D01*
X136390000Y-155620000D02*
X135390000Y-155620000D01*
X80145000Y-168230000D02*
X81145000Y-168230000D01*
X81145000Y-169590000D02*
X80145000Y-169590000D01*
X97290000Y-157435000D02*
X98290000Y-157435000D01*
X98290000Y-158795000D02*
X97290000Y-158795000D01*
X76155000Y-161620000D02*
X76155000Y-160620000D01*
X77515000Y-160620000D02*
X77515000Y-161620000D01*
X104430000Y-162750000D02*
X104430000Y-162594000D01*
X104430000Y-165066000D02*
X104430000Y-164910000D01*
X101828870Y-162750163D02*
G75*
G02X103910961Y-162750000I1041130J-1079837D01*
G01*
X101828870Y-164909837D02*
G75*
G03X103910961Y-164910000I1041130J1079837D01*
G01*
X101197665Y-162751392D02*
G75*
G02X104430000Y-162594484I1672335J-1078608D01*
G01*
X101197665Y-164908608D02*
G75*
G03X104430000Y-165065516I1672335J1078608D01*
G01*
X104430000Y-151320000D02*
X104430000Y-151164000D01*
X104430000Y-153636000D02*
X104430000Y-153480000D01*
X101828870Y-151320163D02*
G75*
G02X103910961Y-151320000I1041130J-1079837D01*
G01*
X101828870Y-153479837D02*
G75*
G03X103910961Y-153480000I1041130J1079837D01*
G01*
X101197665Y-151321392D02*
G75*
G02X104430000Y-151164484I1672335J-1078608D01*
G01*
X101197665Y-153478608D02*
G75*
G03X104430000Y-153635516I1672335J1078608D01*
G01*
X143165000Y-148145000D02*
X143165000Y-147989000D01*
X143165000Y-150461000D02*
X143165000Y-150305000D01*
X140563870Y-148145163D02*
G75*
G02X142645961Y-148145000I1041130J-1079837D01*
G01*
X140563870Y-150304837D02*
G75*
G03X142645961Y-150305000I1041130J1079837D01*
G01*
X139932665Y-148146392D02*
G75*
G02X143165000Y-147989484I1672335J-1078608D01*
G01*
X139932665Y-150303608D02*
G75*
G03X143165000Y-150460516I1672335J1078608D01*
G01*
X151532335Y-159576392D02*
G75*
G03X148300000Y-159419484I-1672335J-1078608D01*
G01*
X151532335Y-161733608D02*
G75*
G02X148300000Y-161890516I-1672335J1078608D01*
G01*
X150901130Y-159575163D02*
G75*
G03X148819039Y-159575000I-1041130J-1079837D01*
G01*
X150901130Y-161734837D02*
G75*
G02X148819039Y-161735000I-1041130J1079837D01*
G01*
X148300000Y-159419000D02*
X148300000Y-159575000D01*
X148300000Y-161735000D02*
X148300000Y-161891000D01*
X81325000Y-160620000D02*
X81325000Y-161620000D01*
X79965000Y-161620000D02*
X79965000Y-160620000D01*
X98290000Y-170225000D02*
X97290000Y-170225000D01*
X97290000Y-168865000D02*
X98290000Y-168865000D01*
X156075000Y-155620000D02*
X155075000Y-155620000D01*
X155075000Y-154260000D02*
X156075000Y-154260000D01*
X155075000Y-165690000D02*
X156075000Y-165690000D01*
X156075000Y-167050000D02*
X155075000Y-167050000D01*
X124225000Y-140160000D02*
X124225000Y-138660000D01*
X122975000Y-136160000D02*
X118475000Y-136160000D01*
X117225000Y-138660000D02*
X117225000Y-140160000D01*
X118475000Y-142660000D02*
X122975000Y-142660000D01*
X86090000Y-142660000D02*
X90590000Y-142660000D01*
X84840000Y-138660000D02*
X84840000Y-140160000D01*
X90590000Y-136160000D02*
X86090000Y-136160000D01*
X91840000Y-140160000D02*
X91840000Y-138660000D01*
X113430000Y-140160000D02*
X113430000Y-138660000D01*
X112180000Y-136160000D02*
X107680000Y-136160000D01*
X106430000Y-138660000D02*
X106430000Y-140160000D01*
X107680000Y-142660000D02*
X112180000Y-142660000D01*
X155075000Y-148545000D02*
X156075000Y-148545000D01*
X156075000Y-149905000D02*
X155075000Y-149905000D01*
X96885000Y-142660000D02*
X101385000Y-142660000D01*
X95635000Y-138660000D02*
X95635000Y-140160000D01*
X101385000Y-136160000D02*
X96885000Y-136160000D01*
X102635000Y-140160000D02*
X102635000Y-138660000D01*
X84410000Y-147650000D02*
X84410000Y-146650000D01*
X85770000Y-146650000D02*
X85770000Y-147650000D01*
X97290000Y-146005000D02*
X98290000Y-146005000D01*
X98290000Y-147365000D02*
X97290000Y-147365000D01*
X135390000Y-148545000D02*
X136390000Y-148545000D01*
X136390000Y-149905000D02*
X135390000Y-149905000D01*
X104430000Y-157035000D02*
X104430000Y-156879000D01*
X104430000Y-159351000D02*
X104430000Y-159195000D01*
X101828870Y-157035163D02*
G75*
G02X103910961Y-157035000I1041130J-1079837D01*
G01*
X101828870Y-159194837D02*
G75*
G03X103910961Y-159195000I1041130J1079837D01*
G01*
X101197665Y-157036392D02*
G75*
G02X104430000Y-156879484I1672335J-1078608D01*
G01*
X101197665Y-159193608D02*
G75*
G03X104430000Y-159350516I1672335J1078608D01*
G01*
X148300000Y-150305000D02*
X148300000Y-150461000D01*
X148300000Y-147989000D02*
X148300000Y-148145000D01*
X150901130Y-150304837D02*
G75*
G02X148819039Y-150305000I-1041130J1079837D01*
G01*
X150901130Y-148145163D02*
G75*
G03X148819039Y-148145000I-1041130J-1079837D01*
G01*
X151532335Y-150303608D02*
G75*
G02X148300000Y-150460516I-1672335J1078608D01*
G01*
X151532335Y-148146392D02*
G75*
G03X148300000Y-147989484I-1672335J-1078608D01*
G01*
X139932665Y-161733608D02*
G75*
G03X143165000Y-161890516I1672335J1078608D01*
G01*
X139932665Y-159576392D02*
G75*
G02X143165000Y-159419484I1672335J-1078608D01*
G01*
X140563870Y-161734837D02*
G75*
G03X142645961Y-161735000I1041130J1079837D01*
G01*
X140563870Y-159575163D02*
G75*
G02X142645961Y-159575000I1041130J-1079837D01*
G01*
X143165000Y-161891000D02*
X143165000Y-161735000D01*
X143165000Y-159575000D02*
X143165000Y-159419000D01*
X98290000Y-164510000D02*
X97290000Y-164510000D01*
X97290000Y-163150000D02*
X98290000Y-163150000D01*
X151532335Y-165291392D02*
G75*
G03X148300000Y-165134484I-1672335J-1078608D01*
G01*
X151532335Y-167448608D02*
G75*
G02X148300000Y-167605516I-1672335J1078608D01*
G01*
X150901130Y-165290163D02*
G75*
G03X148819039Y-165290000I-1041130J-1079837D01*
G01*
X150901130Y-167449837D02*
G75*
G02X148819039Y-167450000I-1041130J1079837D01*
G01*
X148300000Y-165134000D02*
X148300000Y-165290000D01*
X148300000Y-167450000D02*
X148300000Y-167606000D01*
X139932665Y-167448608D02*
G75*
G03X143165000Y-167605516I1672335J1078608D01*
G01*
X139932665Y-165291392D02*
G75*
G02X143165000Y-165134484I1672335J-1078608D01*
G01*
X140563870Y-167449837D02*
G75*
G03X142645961Y-167450000I1041130J1079837D01*
G01*
X140563870Y-165290163D02*
G75*
G02X142645961Y-165290000I1041130J-1079837D01*
G01*
X143165000Y-167606000D02*
X143165000Y-167450000D01*
X143165000Y-165290000D02*
X143165000Y-165134000D01*
X126965000Y-133305000D02*
X127965000Y-133305000D01*
X127965000Y-134665000D02*
X126965000Y-134665000D01*
X151532335Y-153861392D02*
G75*
G03X148300000Y-153704484I-1672335J-1078608D01*
G01*
X151532335Y-156018608D02*
G75*
G02X148300000Y-156175516I-1672335J1078608D01*
G01*
X150901130Y-153860163D02*
G75*
G03X148819039Y-153860000I-1041130J-1079837D01*
G01*
X150901130Y-156019837D02*
G75*
G02X148819039Y-156020000I-1041130J1079837D01*
G01*
X148300000Y-153704000D02*
X148300000Y-153860000D01*
X148300000Y-156020000D02*
X148300000Y-156176000D01*
X143165000Y-153860000D02*
X143165000Y-153704000D01*
X143165000Y-156176000D02*
X143165000Y-156020000D01*
X140563870Y-153860163D02*
G75*
G02X142645961Y-153860000I1041130J-1079837D01*
G01*
X140563870Y-156019837D02*
G75*
G03X142645961Y-156020000I1041130J1079837D01*
G01*
X139932665Y-153861392D02*
G75*
G02X143165000Y-153704484I1672335J-1078608D01*
G01*
X139932665Y-156018608D02*
G75*
G03X143165000Y-156175516I1672335J1078608D01*
G01*
X155075000Y-159975000D02*
X156075000Y-159975000D01*
X156075000Y-161335000D02*
X155075000Y-161335000D01*
X136390000Y-161335000D02*
X135390000Y-161335000D01*
X135390000Y-159975000D02*
X136390000Y-159975000D01*
X104430000Y-145605000D02*
X104430000Y-145449000D01*
X104430000Y-147921000D02*
X104430000Y-147765000D01*
X101828870Y-145605163D02*
G75*
G02X103910961Y-145605000I1041130J-1079837D01*
G01*
X101828870Y-147764837D02*
G75*
G03X103910961Y-147765000I1041130J1079837D01*
G01*
X101197665Y-145606392D02*
G75*
G02X104430000Y-145449484I1672335J-1078608D01*
G01*
X101197665Y-147763608D02*
G75*
G03X104430000Y-147920516I1672335J1078608D01*
G01*
X135390000Y-165690000D02*
X136390000Y-165690000D01*
X136390000Y-167050000D02*
X135390000Y-167050000D01*
X98290000Y-153080000D02*
X97290000Y-153080000D01*
X97290000Y-151720000D02*
X98290000Y-151720000D01*
D11*
X89565314Y-148889980D02*
X89565314Y-147889980D01*
X89803409Y-147889980D01*
X89946266Y-147937600D01*
X90041504Y-148032838D01*
X90089123Y-148128076D01*
X90136742Y-148318552D01*
X90136742Y-148461409D01*
X90089123Y-148651885D01*
X90041504Y-148747123D01*
X89946266Y-148842361D01*
X89803409Y-148889980D01*
X89565314Y-148889980D01*
X91089123Y-148889980D02*
X90517695Y-148889980D01*
X90803409Y-148889980D02*
X90803409Y-147889980D01*
X90708171Y-148032838D01*
X90612933Y-148128076D01*
X90517695Y-148175695D01*
X91946266Y-148223314D02*
X91946266Y-148889980D01*
X91708171Y-147842361D02*
X91470076Y-148556647D01*
X92089123Y-148556647D01*
X89565314Y-155239980D02*
X89565314Y-154239980D01*
X89803409Y-154239980D01*
X89946266Y-154287600D01*
X90041504Y-154382838D01*
X90089123Y-154478076D01*
X90136742Y-154668552D01*
X90136742Y-154811409D01*
X90089123Y-155001885D01*
X90041504Y-155097123D01*
X89946266Y-155192361D01*
X89803409Y-155239980D01*
X89565314Y-155239980D01*
X91089123Y-155239980D02*
X90517695Y-155239980D01*
X90803409Y-155239980D02*
X90803409Y-154239980D01*
X90708171Y-154382838D01*
X90612933Y-154478076D01*
X90517695Y-154525695D01*
X91993885Y-154239980D02*
X91517695Y-154239980D01*
X91470076Y-154716171D01*
X91517695Y-154668552D01*
X91612933Y-154620933D01*
X91851028Y-154620933D01*
X91946266Y-154668552D01*
X91993885Y-154716171D01*
X92041504Y-154811409D01*
X92041504Y-155049504D01*
X91993885Y-155144742D01*
X91946266Y-155192361D01*
X91851028Y-155239980D01*
X91612933Y-155239980D01*
X91517695Y-155192361D01*
X91470076Y-155144742D01*
X169306976Y-144827880D02*
X169306976Y-145542166D01*
X169259357Y-145685023D01*
X169164119Y-145780261D01*
X169021261Y-145827880D01*
X168926023Y-145827880D01*
X170306976Y-145827880D02*
X169735547Y-145827880D01*
X170021261Y-145827880D02*
X170021261Y-144827880D01*
X169926023Y-144970738D01*
X169830785Y-145065976D01*
X169735547Y-145113595D01*
X171164119Y-145161214D02*
X171164119Y-145827880D01*
X170926023Y-144780261D02*
X170687928Y-145494547D01*
X171306976Y-145494547D01*
X77930476Y-143621380D02*
X77930476Y-144335666D01*
X77882857Y-144478523D01*
X77787619Y-144573761D01*
X77644761Y-144621380D01*
X77549523Y-144621380D01*
X78930476Y-144621380D02*
X78359047Y-144621380D01*
X78644761Y-144621380D02*
X78644761Y-143621380D01*
X78549523Y-143764238D01*
X78454285Y-143859476D01*
X78359047Y-143907095D01*
X79263809Y-143621380D02*
X79882857Y-143621380D01*
X79549523Y-144002333D01*
X79692380Y-144002333D01*
X79787619Y-144049952D01*
X79835238Y-144097571D01*
X79882857Y-144192809D01*
X79882857Y-144430904D01*
X79835238Y-144526142D01*
X79787619Y-144573761D01*
X79692380Y-144621380D01*
X79406666Y-144621380D01*
X79311428Y-144573761D01*
X79263809Y-144526142D01*
X119411904Y-171187380D02*
X119411904Y-171996904D01*
X119459523Y-172092142D01*
X119507142Y-172139761D01*
X119602380Y-172187380D01*
X119792857Y-172187380D01*
X119888095Y-172139761D01*
X119935714Y-172092142D01*
X119983333Y-171996904D01*
X119983333Y-171187380D01*
X120411904Y-171282619D02*
X120459523Y-171235000D01*
X120554761Y-171187380D01*
X120792857Y-171187380D01*
X120888095Y-171235000D01*
X120935714Y-171282619D01*
X120983333Y-171377857D01*
X120983333Y-171473095D01*
X120935714Y-171615952D01*
X120364285Y-172187380D01*
X120983333Y-172187380D01*
X121602380Y-171187380D02*
X121697619Y-171187380D01*
X121792857Y-171235000D01*
X121840476Y-171282619D01*
X121888095Y-171377857D01*
X121935714Y-171568333D01*
X121935714Y-171806428D01*
X121888095Y-171996904D01*
X121840476Y-172092142D01*
X121792857Y-172139761D01*
X121697619Y-172187380D01*
X121602380Y-172187380D01*
X121507142Y-172139761D01*
X121459523Y-172092142D01*
X121411904Y-171996904D01*
X121364285Y-171806428D01*
X121364285Y-171568333D01*
X121411904Y-171377857D01*
X121459523Y-171282619D01*
X121507142Y-171235000D01*
X121602380Y-171187380D01*
X130186666Y-135564761D02*
X130329523Y-135612380D01*
X130567619Y-135612380D01*
X130662857Y-135564761D01*
X130710476Y-135517142D01*
X130758095Y-135421904D01*
X130758095Y-135326666D01*
X130710476Y-135231428D01*
X130662857Y-135183809D01*
X130567619Y-135136190D01*
X130377142Y-135088571D01*
X130281904Y-135040952D01*
X130234285Y-134993333D01*
X130186666Y-134898095D01*
X130186666Y-134802857D01*
X130234285Y-134707619D01*
X130281904Y-134660000D01*
X130377142Y-134612380D01*
X130615238Y-134612380D01*
X130758095Y-134660000D01*
X131091428Y-134612380D02*
X131329523Y-135612380D01*
X131520000Y-134898095D01*
X131710476Y-135612380D01*
X131948571Y-134612380D01*
X132805714Y-134612380D02*
X132329523Y-134612380D01*
X132281904Y-135088571D01*
X132329523Y-135040952D01*
X132424761Y-134993333D01*
X132662857Y-134993333D01*
X132758095Y-135040952D01*
X132805714Y-135088571D01*
X132853333Y-135183809D01*
X132853333Y-135421904D01*
X132805714Y-135517142D01*
X132758095Y-135564761D01*
X132662857Y-135612380D01*
X132424761Y-135612380D01*
X132329523Y-135564761D01*
X132281904Y-135517142D01*
X85916904Y-171187380D02*
X85916904Y-171996904D01*
X85964523Y-172092142D01*
X86012142Y-172139761D01*
X86107380Y-172187380D01*
X86297857Y-172187380D01*
X86393095Y-172139761D01*
X86440714Y-172092142D01*
X86488333Y-171996904D01*
X86488333Y-171187380D01*
X87488333Y-172187380D02*
X86916904Y-172187380D01*
X87202619Y-172187380D02*
X87202619Y-171187380D01*
X87107380Y-171330238D01*
X87012142Y-171425476D01*
X86916904Y-171473095D01*
X87964523Y-172187380D02*
X88155000Y-172187380D01*
X88250238Y-172139761D01*
X88297857Y-172092142D01*
X88393095Y-171949285D01*
X88440714Y-171758809D01*
X88440714Y-171377857D01*
X88393095Y-171282619D01*
X88345476Y-171235000D01*
X88250238Y-171187380D01*
X88059761Y-171187380D01*
X87964523Y-171235000D01*
X87916904Y-171282619D01*
X87869285Y-171377857D01*
X87869285Y-171615952D01*
X87916904Y-171711190D01*
X87964523Y-171758809D01*
X88059761Y-171806428D01*
X88250238Y-171806428D01*
X88345476Y-171758809D01*
X88393095Y-171711190D01*
X88440714Y-171615952D01*
X101655714Y-172957380D02*
X101655714Y-171957380D01*
X101893809Y-171957380D01*
X102036666Y-172005000D01*
X102131904Y-172100238D01*
X102179523Y-172195476D01*
X102227142Y-172385952D01*
X102227142Y-172528809D01*
X102179523Y-172719285D01*
X102131904Y-172814523D01*
X102036666Y-172909761D01*
X101893809Y-172957380D01*
X101655714Y-172957380D01*
X102608095Y-172052619D02*
X102655714Y-172005000D01*
X102750952Y-171957380D01*
X102989047Y-171957380D01*
X103084285Y-172005000D01*
X103131904Y-172052619D01*
X103179523Y-172147857D01*
X103179523Y-172243095D01*
X103131904Y-172385952D01*
X102560476Y-172957380D01*
X103179523Y-172957380D01*
X103512857Y-171957380D02*
X104131904Y-171957380D01*
X103798571Y-172338333D01*
X103941428Y-172338333D01*
X104036666Y-172385952D01*
X104084285Y-172433571D01*
X104131904Y-172528809D01*
X104131904Y-172766904D01*
X104084285Y-172862142D01*
X104036666Y-172909761D01*
X103941428Y-172957380D01*
X103655714Y-172957380D01*
X103560476Y-172909761D01*
X103512857Y-172862142D01*
X80642380Y-161762857D02*
X80166190Y-162096190D01*
X80642380Y-162334285D02*
X79642380Y-162334285D01*
X79642380Y-161953333D01*
X79690000Y-161858095D01*
X79737619Y-161810476D01*
X79832857Y-161762857D01*
X79975714Y-161762857D01*
X80070952Y-161810476D01*
X80118571Y-161858095D01*
X80166190Y-161953333D01*
X80166190Y-162334285D01*
X79642380Y-160858095D02*
X79642380Y-161334285D01*
X80118571Y-161381904D01*
X80070952Y-161334285D01*
X80023333Y-161239047D01*
X80023333Y-161000952D01*
X80070952Y-160905714D01*
X80118571Y-160858095D01*
X80213809Y-160810476D01*
X80451904Y-160810476D01*
X80547142Y-160858095D01*
X80594761Y-160905714D01*
X80642380Y-161000952D01*
X80642380Y-161239047D01*
X80594761Y-161334285D01*
X80547142Y-161381904D01*
X79975714Y-159953333D02*
X80642380Y-159953333D01*
X79594761Y-160191428D02*
X80309047Y-160429523D01*
X80309047Y-159810476D01*
X135247142Y-156842380D02*
X134913809Y-156366190D01*
X134675714Y-156842380D02*
X134675714Y-155842380D01*
X135056666Y-155842380D01*
X135151904Y-155890000D01*
X135199523Y-155937619D01*
X135247142Y-156032857D01*
X135247142Y-156175714D01*
X135199523Y-156270952D01*
X135151904Y-156318571D01*
X135056666Y-156366190D01*
X134675714Y-156366190D01*
X136104285Y-155842380D02*
X135913809Y-155842380D01*
X135818571Y-155890000D01*
X135770952Y-155937619D01*
X135675714Y-156080476D01*
X135628095Y-156270952D01*
X135628095Y-156651904D01*
X135675714Y-156747142D01*
X135723333Y-156794761D01*
X135818571Y-156842380D01*
X136009047Y-156842380D01*
X136104285Y-156794761D01*
X136151904Y-156747142D01*
X136199523Y-156651904D01*
X136199523Y-156413809D01*
X136151904Y-156318571D01*
X136104285Y-156270952D01*
X136009047Y-156223333D01*
X135818571Y-156223333D01*
X135723333Y-156270952D01*
X135675714Y-156318571D01*
X135628095Y-156413809D01*
X136532857Y-155842380D02*
X137151904Y-155842380D01*
X136818571Y-156223333D01*
X136961428Y-156223333D01*
X137056666Y-156270952D01*
X137104285Y-156318571D01*
X137151904Y-156413809D01*
X137151904Y-156651904D01*
X137104285Y-156747142D01*
X137056666Y-156794761D01*
X136961428Y-156842380D01*
X136675714Y-156842380D01*
X136580476Y-156794761D01*
X136532857Y-156747142D01*
X80002142Y-167912380D02*
X79668809Y-167436190D01*
X79430714Y-167912380D02*
X79430714Y-166912380D01*
X79811666Y-166912380D01*
X79906904Y-166960000D01*
X79954523Y-167007619D01*
X80002142Y-167102857D01*
X80002142Y-167245714D01*
X79954523Y-167340952D01*
X79906904Y-167388571D01*
X79811666Y-167436190D01*
X79430714Y-167436190D01*
X80906904Y-166912380D02*
X80430714Y-166912380D01*
X80383095Y-167388571D01*
X80430714Y-167340952D01*
X80525952Y-167293333D01*
X80764047Y-167293333D01*
X80859285Y-167340952D01*
X80906904Y-167388571D01*
X80954523Y-167483809D01*
X80954523Y-167721904D01*
X80906904Y-167817142D01*
X80859285Y-167864761D01*
X80764047Y-167912380D01*
X80525952Y-167912380D01*
X80430714Y-167864761D01*
X80383095Y-167817142D01*
X81811666Y-166912380D02*
X81621190Y-166912380D01*
X81525952Y-166960000D01*
X81478333Y-167007619D01*
X81383095Y-167150476D01*
X81335476Y-167340952D01*
X81335476Y-167721904D01*
X81383095Y-167817142D01*
X81430714Y-167864761D01*
X81525952Y-167912380D01*
X81716428Y-167912380D01*
X81811666Y-167864761D01*
X81859285Y-167817142D01*
X81906904Y-167721904D01*
X81906904Y-167483809D01*
X81859285Y-167388571D01*
X81811666Y-167340952D01*
X81716428Y-167293333D01*
X81525952Y-167293333D01*
X81430714Y-167340952D01*
X81383095Y-167388571D01*
X81335476Y-167483809D01*
X97194761Y-160017380D02*
X96623333Y-160017380D01*
X96909047Y-160017380D02*
X96909047Y-159017380D01*
X96813809Y-159160238D01*
X96718571Y-159255476D01*
X96623333Y-159303095D01*
X97623333Y-160017380D02*
X97623333Y-159017380D01*
X97718571Y-159636428D02*
X98004285Y-160017380D01*
X98004285Y-159350714D02*
X97623333Y-159731666D01*
X98337619Y-159017380D02*
X98956666Y-159017380D01*
X98623333Y-159398333D01*
X98766190Y-159398333D01*
X98861428Y-159445952D01*
X98909047Y-159493571D01*
X98956666Y-159588809D01*
X98956666Y-159826904D01*
X98909047Y-159922142D01*
X98861428Y-159969761D01*
X98766190Y-160017380D01*
X98480476Y-160017380D01*
X98385238Y-159969761D01*
X98337619Y-159922142D01*
X78737380Y-161762857D02*
X78261190Y-162096190D01*
X78737380Y-162334285D02*
X77737380Y-162334285D01*
X77737380Y-161953333D01*
X77785000Y-161858095D01*
X77832619Y-161810476D01*
X77927857Y-161762857D01*
X78070714Y-161762857D01*
X78165952Y-161810476D01*
X78213571Y-161858095D01*
X78261190Y-161953333D01*
X78261190Y-162334285D01*
X77737380Y-160858095D02*
X77737380Y-161334285D01*
X78213571Y-161381904D01*
X78165952Y-161334285D01*
X78118333Y-161239047D01*
X78118333Y-161000952D01*
X78165952Y-160905714D01*
X78213571Y-160858095D01*
X78308809Y-160810476D01*
X78546904Y-160810476D01*
X78642142Y-160858095D01*
X78689761Y-160905714D01*
X78737380Y-161000952D01*
X78737380Y-161239047D01*
X78689761Y-161334285D01*
X78642142Y-161381904D01*
X77832619Y-160429523D02*
X77785000Y-160381904D01*
X77737380Y-160286666D01*
X77737380Y-160048571D01*
X77785000Y-159953333D01*
X77832619Y-159905714D01*
X77927857Y-159858095D01*
X78023095Y-159858095D01*
X78165952Y-159905714D01*
X78737380Y-160477142D01*
X78737380Y-159858095D01*
X101655714Y-167242380D02*
X101655714Y-166242380D01*
X101893809Y-166242380D01*
X102036666Y-166290000D01*
X102131904Y-166385238D01*
X102179523Y-166480476D01*
X102227142Y-166670952D01*
X102227142Y-166813809D01*
X102179523Y-167004285D01*
X102131904Y-167099523D01*
X102036666Y-167194761D01*
X101893809Y-167242380D01*
X101655714Y-167242380D01*
X102608095Y-166337619D02*
X102655714Y-166290000D01*
X102750952Y-166242380D01*
X102989047Y-166242380D01*
X103084285Y-166290000D01*
X103131904Y-166337619D01*
X103179523Y-166432857D01*
X103179523Y-166528095D01*
X103131904Y-166670952D01*
X102560476Y-167242380D01*
X103179523Y-167242380D01*
X104036666Y-166575714D02*
X104036666Y-167242380D01*
X103798571Y-166194761D02*
X103560476Y-166909047D01*
X104179523Y-166909047D01*
X101655714Y-155812380D02*
X101655714Y-154812380D01*
X101893809Y-154812380D01*
X102036666Y-154860000D01*
X102131904Y-154955238D01*
X102179523Y-155050476D01*
X102227142Y-155240952D01*
X102227142Y-155383809D01*
X102179523Y-155574285D01*
X102131904Y-155669523D01*
X102036666Y-155764761D01*
X101893809Y-155812380D01*
X101655714Y-155812380D01*
X102608095Y-154907619D02*
X102655714Y-154860000D01*
X102750952Y-154812380D01*
X102989047Y-154812380D01*
X103084285Y-154860000D01*
X103131904Y-154907619D01*
X103179523Y-155002857D01*
X103179523Y-155098095D01*
X103131904Y-155240952D01*
X102560476Y-155812380D01*
X103179523Y-155812380D01*
X104036666Y-154812380D02*
X103846190Y-154812380D01*
X103750952Y-154860000D01*
X103703333Y-154907619D01*
X103608095Y-155050476D01*
X103560476Y-155240952D01*
X103560476Y-155621904D01*
X103608095Y-155717142D01*
X103655714Y-155764761D01*
X103750952Y-155812380D01*
X103941428Y-155812380D01*
X104036666Y-155764761D01*
X104084285Y-155717142D01*
X104131904Y-155621904D01*
X104131904Y-155383809D01*
X104084285Y-155288571D01*
X104036666Y-155240952D01*
X103941428Y-155193333D01*
X103750952Y-155193333D01*
X103655714Y-155240952D01*
X103608095Y-155288571D01*
X103560476Y-155383809D01*
X140390714Y-152637380D02*
X140390714Y-151637380D01*
X140628809Y-151637380D01*
X140771666Y-151685000D01*
X140866904Y-151780238D01*
X140914523Y-151875476D01*
X140962142Y-152065952D01*
X140962142Y-152208809D01*
X140914523Y-152399285D01*
X140866904Y-152494523D01*
X140771666Y-152589761D01*
X140628809Y-152637380D01*
X140390714Y-152637380D01*
X141343095Y-151732619D02*
X141390714Y-151685000D01*
X141485952Y-151637380D01*
X141724047Y-151637380D01*
X141819285Y-151685000D01*
X141866904Y-151732619D01*
X141914523Y-151827857D01*
X141914523Y-151923095D01*
X141866904Y-152065952D01*
X141295476Y-152637380D01*
X141914523Y-152637380D01*
X142390714Y-152637380D02*
X142581190Y-152637380D01*
X142676428Y-152589761D01*
X142724047Y-152542142D01*
X142819285Y-152399285D01*
X142866904Y-152208809D01*
X142866904Y-151827857D01*
X142819285Y-151732619D01*
X142771666Y-151685000D01*
X142676428Y-151637380D01*
X142485952Y-151637380D01*
X142390714Y-151685000D01*
X142343095Y-151732619D01*
X142295476Y-151827857D01*
X142295476Y-152065952D01*
X142343095Y-152161190D01*
X142390714Y-152208809D01*
X142485952Y-152256428D01*
X142676428Y-152256428D01*
X142771666Y-152208809D01*
X142819285Y-152161190D01*
X142866904Y-152065952D01*
X148645714Y-158147380D02*
X148645714Y-157147380D01*
X148883809Y-157147380D01*
X149026666Y-157195000D01*
X149121904Y-157290238D01*
X149169523Y-157385476D01*
X149217142Y-157575952D01*
X149217142Y-157718809D01*
X149169523Y-157909285D01*
X149121904Y-158004523D01*
X149026666Y-158099761D01*
X148883809Y-158147380D01*
X148645714Y-158147380D01*
X149550476Y-157147380D02*
X150169523Y-157147380D01*
X149836190Y-157528333D01*
X149979047Y-157528333D01*
X150074285Y-157575952D01*
X150121904Y-157623571D01*
X150169523Y-157718809D01*
X150169523Y-157956904D01*
X150121904Y-158052142D01*
X150074285Y-158099761D01*
X149979047Y-158147380D01*
X149693333Y-158147380D01*
X149598095Y-158099761D01*
X149550476Y-158052142D01*
X150550476Y-157242619D02*
X150598095Y-157195000D01*
X150693333Y-157147380D01*
X150931428Y-157147380D01*
X151026666Y-157195000D01*
X151074285Y-157242619D01*
X151121904Y-157337857D01*
X151121904Y-157433095D01*
X151074285Y-157575952D01*
X150502857Y-158147380D01*
X151121904Y-158147380D01*
X82547380Y-161762857D02*
X82071190Y-162096190D01*
X82547380Y-162334285D02*
X81547380Y-162334285D01*
X81547380Y-161953333D01*
X81595000Y-161858095D01*
X81642619Y-161810476D01*
X81737857Y-161762857D01*
X81880714Y-161762857D01*
X81975952Y-161810476D01*
X82023571Y-161858095D01*
X82071190Y-161953333D01*
X82071190Y-162334285D01*
X81547380Y-160858095D02*
X81547380Y-161334285D01*
X82023571Y-161381904D01*
X81975952Y-161334285D01*
X81928333Y-161239047D01*
X81928333Y-161000952D01*
X81975952Y-160905714D01*
X82023571Y-160858095D01*
X82118809Y-160810476D01*
X82356904Y-160810476D01*
X82452142Y-160858095D01*
X82499761Y-160905714D01*
X82547380Y-161000952D01*
X82547380Y-161239047D01*
X82499761Y-161334285D01*
X82452142Y-161381904D01*
X81547380Y-159905714D02*
X81547380Y-160381904D01*
X82023571Y-160429523D01*
X81975952Y-160381904D01*
X81928333Y-160286666D01*
X81928333Y-160048571D01*
X81975952Y-159953333D01*
X82023571Y-159905714D01*
X82118809Y-159858095D01*
X82356904Y-159858095D01*
X82452142Y-159905714D01*
X82499761Y-159953333D01*
X82547380Y-160048571D01*
X82547380Y-160286666D01*
X82499761Y-160381904D01*
X82452142Y-160429523D01*
X97147142Y-171447380D02*
X96813809Y-170971190D01*
X96575714Y-171447380D02*
X96575714Y-170447380D01*
X96956666Y-170447380D01*
X97051904Y-170495000D01*
X97099523Y-170542619D01*
X97147142Y-170637857D01*
X97147142Y-170780714D01*
X97099523Y-170875952D01*
X97051904Y-170923571D01*
X96956666Y-170971190D01*
X96575714Y-170971190D01*
X98051904Y-170447380D02*
X97575714Y-170447380D01*
X97528095Y-170923571D01*
X97575714Y-170875952D01*
X97670952Y-170828333D01*
X97909047Y-170828333D01*
X98004285Y-170875952D01*
X98051904Y-170923571D01*
X98099523Y-171018809D01*
X98099523Y-171256904D01*
X98051904Y-171352142D01*
X98004285Y-171399761D01*
X97909047Y-171447380D01*
X97670952Y-171447380D01*
X97575714Y-171399761D01*
X97528095Y-171352142D01*
X98432857Y-170447380D02*
X99099523Y-170447380D01*
X98670952Y-171447380D01*
X154932142Y-153942380D02*
X154598809Y-153466190D01*
X154360714Y-153942380D02*
X154360714Y-152942380D01*
X154741666Y-152942380D01*
X154836904Y-152990000D01*
X154884523Y-153037619D01*
X154932142Y-153132857D01*
X154932142Y-153275714D01*
X154884523Y-153370952D01*
X154836904Y-153418571D01*
X154741666Y-153466190D01*
X154360714Y-153466190D01*
X155789285Y-152942380D02*
X155598809Y-152942380D01*
X155503571Y-152990000D01*
X155455952Y-153037619D01*
X155360714Y-153180476D01*
X155313095Y-153370952D01*
X155313095Y-153751904D01*
X155360714Y-153847142D01*
X155408333Y-153894761D01*
X155503571Y-153942380D01*
X155694047Y-153942380D01*
X155789285Y-153894761D01*
X155836904Y-153847142D01*
X155884523Y-153751904D01*
X155884523Y-153513809D01*
X155836904Y-153418571D01*
X155789285Y-153370952D01*
X155694047Y-153323333D01*
X155503571Y-153323333D01*
X155408333Y-153370952D01*
X155360714Y-153418571D01*
X155313095Y-153513809D01*
X156265476Y-153037619D02*
X156313095Y-152990000D01*
X156408333Y-152942380D01*
X156646428Y-152942380D01*
X156741666Y-152990000D01*
X156789285Y-153037619D01*
X156836904Y-153132857D01*
X156836904Y-153228095D01*
X156789285Y-153370952D01*
X156217857Y-153942380D01*
X156836904Y-153942380D01*
X154932142Y-165372380D02*
X154598809Y-164896190D01*
X154360714Y-165372380D02*
X154360714Y-164372380D01*
X154741666Y-164372380D01*
X154836904Y-164420000D01*
X154884523Y-164467619D01*
X154932142Y-164562857D01*
X154932142Y-164705714D01*
X154884523Y-164800952D01*
X154836904Y-164848571D01*
X154741666Y-164896190D01*
X154360714Y-164896190D01*
X155836904Y-164372380D02*
X155360714Y-164372380D01*
X155313095Y-164848571D01*
X155360714Y-164800952D01*
X155455952Y-164753333D01*
X155694047Y-164753333D01*
X155789285Y-164800952D01*
X155836904Y-164848571D01*
X155884523Y-164943809D01*
X155884523Y-165181904D01*
X155836904Y-165277142D01*
X155789285Y-165324761D01*
X155694047Y-165372380D01*
X155455952Y-165372380D01*
X155360714Y-165324761D01*
X155313095Y-165277142D01*
X156455952Y-164800952D02*
X156360714Y-164753333D01*
X156313095Y-164705714D01*
X156265476Y-164610476D01*
X156265476Y-164562857D01*
X156313095Y-164467619D01*
X156360714Y-164420000D01*
X156455952Y-164372380D01*
X156646428Y-164372380D01*
X156741666Y-164420000D01*
X156789285Y-164467619D01*
X156836904Y-164562857D01*
X156836904Y-164610476D01*
X156789285Y-164705714D01*
X156741666Y-164753333D01*
X156646428Y-164800952D01*
X156455952Y-164800952D01*
X156360714Y-164848571D01*
X156313095Y-164896190D01*
X156265476Y-164991428D01*
X156265476Y-165181904D01*
X156313095Y-165277142D01*
X156360714Y-165324761D01*
X156455952Y-165372380D01*
X156646428Y-165372380D01*
X156741666Y-165324761D01*
X156789285Y-165277142D01*
X156836904Y-165181904D01*
X156836904Y-164991428D01*
X156789285Y-164896190D01*
X156741666Y-164848571D01*
X156646428Y-164800952D01*
X119391666Y-135564761D02*
X119534523Y-135612380D01*
X119772619Y-135612380D01*
X119867857Y-135564761D01*
X119915476Y-135517142D01*
X119963095Y-135421904D01*
X119963095Y-135326666D01*
X119915476Y-135231428D01*
X119867857Y-135183809D01*
X119772619Y-135136190D01*
X119582142Y-135088571D01*
X119486904Y-135040952D01*
X119439285Y-134993333D01*
X119391666Y-134898095D01*
X119391666Y-134802857D01*
X119439285Y-134707619D01*
X119486904Y-134660000D01*
X119582142Y-134612380D01*
X119820238Y-134612380D01*
X119963095Y-134660000D01*
X120296428Y-134612380D02*
X120534523Y-135612380D01*
X120725000Y-134898095D01*
X120915476Y-135612380D01*
X121153571Y-134612380D01*
X122058333Y-135612380D02*
X121486904Y-135612380D01*
X121772619Y-135612380D02*
X121772619Y-134612380D01*
X121677380Y-134755238D01*
X121582142Y-134850476D01*
X121486904Y-134898095D01*
X87006666Y-135564761D02*
X87149523Y-135612380D01*
X87387619Y-135612380D01*
X87482857Y-135564761D01*
X87530476Y-135517142D01*
X87578095Y-135421904D01*
X87578095Y-135326666D01*
X87530476Y-135231428D01*
X87482857Y-135183809D01*
X87387619Y-135136190D01*
X87197142Y-135088571D01*
X87101904Y-135040952D01*
X87054285Y-134993333D01*
X87006666Y-134898095D01*
X87006666Y-134802857D01*
X87054285Y-134707619D01*
X87101904Y-134660000D01*
X87197142Y-134612380D01*
X87435238Y-134612380D01*
X87578095Y-134660000D01*
X87911428Y-134612380D02*
X88149523Y-135612380D01*
X88340000Y-134898095D01*
X88530476Y-135612380D01*
X88768571Y-134612380D01*
X89101904Y-134707619D02*
X89149523Y-134660000D01*
X89244761Y-134612380D01*
X89482857Y-134612380D01*
X89578095Y-134660000D01*
X89625714Y-134707619D01*
X89673333Y-134802857D01*
X89673333Y-134898095D01*
X89625714Y-135040952D01*
X89054285Y-135612380D01*
X89673333Y-135612380D01*
X108588665Y-135248760D02*
X108731522Y-135296379D01*
X108969618Y-135296379D01*
X109064856Y-135248760D01*
X109112475Y-135201141D01*
X109160094Y-135105903D01*
X109160094Y-135010665D01*
X109112475Y-134915427D01*
X109064856Y-134867808D01*
X108969618Y-134820189D01*
X108779141Y-134772570D01*
X108683903Y-134724951D01*
X108636284Y-134677332D01*
X108588665Y-134582094D01*
X108588665Y-134486856D01*
X108636284Y-134391618D01*
X108683903Y-134343999D01*
X108779141Y-134296379D01*
X109017237Y-134296379D01*
X109160094Y-134343999D01*
X109493427Y-134296379D02*
X109731522Y-135296379D01*
X109921999Y-134582094D01*
X110112475Y-135296379D01*
X110350570Y-134296379D01*
X110636284Y-134296379D02*
X111255332Y-134296379D01*
X110921999Y-134677332D01*
X111064856Y-134677332D01*
X111160094Y-134724951D01*
X111207713Y-134772570D01*
X111255332Y-134867808D01*
X111255332Y-135105903D01*
X111207713Y-135201141D01*
X111160094Y-135248760D01*
X111064856Y-135296379D01*
X110779141Y-135296379D01*
X110683903Y-135248760D01*
X110636284Y-135201141D01*
X154979761Y-148227380D02*
X154408333Y-148227380D01*
X154694047Y-148227380D02*
X154694047Y-147227380D01*
X154598809Y-147370238D01*
X154503571Y-147465476D01*
X154408333Y-147513095D01*
X155408333Y-148227380D02*
X155408333Y-147227380D01*
X155503571Y-147846428D02*
X155789285Y-148227380D01*
X155789285Y-147560714D02*
X155408333Y-147941666D01*
X156646428Y-147227380D02*
X156455952Y-147227380D01*
X156360714Y-147275000D01*
X156313095Y-147322619D01*
X156217857Y-147465476D01*
X156170238Y-147655952D01*
X156170238Y-148036904D01*
X156217857Y-148132142D01*
X156265476Y-148179761D01*
X156360714Y-148227380D01*
X156551190Y-148227380D01*
X156646428Y-148179761D01*
X156694047Y-148132142D01*
X156741666Y-148036904D01*
X156741666Y-147798809D01*
X156694047Y-147703571D01*
X156646428Y-147655952D01*
X156551190Y-147608333D01*
X156360714Y-147608333D01*
X156265476Y-147655952D01*
X156217857Y-147703571D01*
X156170238Y-147798809D01*
X97801666Y-135564761D02*
X97944523Y-135612380D01*
X98182619Y-135612380D01*
X98277857Y-135564761D01*
X98325476Y-135517142D01*
X98373095Y-135421904D01*
X98373095Y-135326666D01*
X98325476Y-135231428D01*
X98277857Y-135183809D01*
X98182619Y-135136190D01*
X97992142Y-135088571D01*
X97896904Y-135040952D01*
X97849285Y-134993333D01*
X97801666Y-134898095D01*
X97801666Y-134802857D01*
X97849285Y-134707619D01*
X97896904Y-134660000D01*
X97992142Y-134612380D01*
X98230238Y-134612380D01*
X98373095Y-134660000D01*
X98706428Y-134612380D02*
X98944523Y-135612380D01*
X99135000Y-134898095D01*
X99325476Y-135612380D01*
X99563571Y-134612380D01*
X100373095Y-134945714D02*
X100373095Y-135612380D01*
X100135000Y-134564761D02*
X99896904Y-135279047D01*
X100515952Y-135279047D01*
X86992380Y-147745238D02*
X86992380Y-148316666D01*
X86992380Y-148030952D02*
X85992380Y-148030952D01*
X86135238Y-148126190D01*
X86230476Y-148221428D01*
X86278095Y-148316666D01*
X86992380Y-147316666D02*
X85992380Y-147316666D01*
X86611428Y-147221428D02*
X86992380Y-146935714D01*
X86325714Y-146935714D02*
X86706666Y-147316666D01*
X86992380Y-145983333D02*
X86992380Y-146554761D01*
X86992380Y-146269047D02*
X85992380Y-146269047D01*
X86135238Y-146364285D01*
X86230476Y-146459523D01*
X86278095Y-146554761D01*
X97194761Y-148587380D02*
X96623333Y-148587380D01*
X96909047Y-148587380D02*
X96909047Y-147587380D01*
X96813809Y-147730238D01*
X96718571Y-147825476D01*
X96623333Y-147873095D01*
X97623333Y-148587380D02*
X97623333Y-147587380D01*
X97718571Y-148206428D02*
X98004285Y-148587380D01*
X98004285Y-147920714D02*
X97623333Y-148301666D01*
X98909047Y-147587380D02*
X98432857Y-147587380D01*
X98385238Y-148063571D01*
X98432857Y-148015952D01*
X98528095Y-147968333D01*
X98766190Y-147968333D01*
X98861428Y-148015952D01*
X98909047Y-148063571D01*
X98956666Y-148158809D01*
X98956666Y-148396904D01*
X98909047Y-148492142D01*
X98861428Y-148539761D01*
X98766190Y-148587380D01*
X98528095Y-148587380D01*
X98432857Y-148539761D01*
X98385238Y-148492142D01*
X135294761Y-151127380D02*
X134723333Y-151127380D01*
X135009047Y-151127380D02*
X135009047Y-150127380D01*
X134913809Y-150270238D01*
X134818571Y-150365476D01*
X134723333Y-150413095D01*
X135723333Y-151127380D02*
X135723333Y-150127380D01*
X135818571Y-150746428D02*
X136104285Y-151127380D01*
X136104285Y-150460714D02*
X135723333Y-150841666D01*
X136437619Y-150127380D02*
X137104285Y-150127380D01*
X136675714Y-151127380D01*
X101655714Y-161527380D02*
X101655714Y-160527380D01*
X101893809Y-160527380D01*
X102036666Y-160575000D01*
X102131904Y-160670238D01*
X102179523Y-160765476D01*
X102227142Y-160955952D01*
X102227142Y-161098809D01*
X102179523Y-161289285D01*
X102131904Y-161384523D01*
X102036666Y-161479761D01*
X101893809Y-161527380D01*
X101655714Y-161527380D01*
X102608095Y-160622619D02*
X102655714Y-160575000D01*
X102750952Y-160527380D01*
X102989047Y-160527380D01*
X103084285Y-160575000D01*
X103131904Y-160622619D01*
X103179523Y-160717857D01*
X103179523Y-160813095D01*
X103131904Y-160955952D01*
X102560476Y-161527380D01*
X103179523Y-161527380D01*
X104084285Y-160527380D02*
X103608095Y-160527380D01*
X103560476Y-161003571D01*
X103608095Y-160955952D01*
X103703333Y-160908333D01*
X103941428Y-160908333D01*
X104036666Y-160955952D01*
X104084285Y-161003571D01*
X104131904Y-161098809D01*
X104131904Y-161336904D01*
X104084285Y-161432142D01*
X104036666Y-161479761D01*
X103941428Y-161527380D01*
X103703333Y-161527380D01*
X103608095Y-161479761D01*
X103560476Y-161432142D01*
X148645714Y-146717380D02*
X148645714Y-145717380D01*
X148883809Y-145717380D01*
X149026666Y-145765000D01*
X149121904Y-145860238D01*
X149169523Y-145955476D01*
X149217142Y-146145952D01*
X149217142Y-146288809D01*
X149169523Y-146479285D01*
X149121904Y-146574523D01*
X149026666Y-146669761D01*
X148883809Y-146717380D01*
X148645714Y-146717380D01*
X149598095Y-145812619D02*
X149645714Y-145765000D01*
X149740952Y-145717380D01*
X149979047Y-145717380D01*
X150074285Y-145765000D01*
X150121904Y-145812619D01*
X150169523Y-145907857D01*
X150169523Y-146003095D01*
X150121904Y-146145952D01*
X149550476Y-146717380D01*
X150169523Y-146717380D01*
X150740952Y-146145952D02*
X150645714Y-146098333D01*
X150598095Y-146050714D01*
X150550476Y-145955476D01*
X150550476Y-145907857D01*
X150598095Y-145812619D01*
X150645714Y-145765000D01*
X150740952Y-145717380D01*
X150931428Y-145717380D01*
X151026666Y-145765000D01*
X151074285Y-145812619D01*
X151121904Y-145907857D01*
X151121904Y-145955476D01*
X151074285Y-146050714D01*
X151026666Y-146098333D01*
X150931428Y-146145952D01*
X150740952Y-146145952D01*
X150645714Y-146193571D01*
X150598095Y-146241190D01*
X150550476Y-146336428D01*
X150550476Y-146526904D01*
X150598095Y-146622142D01*
X150645714Y-146669761D01*
X150740952Y-146717380D01*
X150931428Y-146717380D01*
X151026666Y-146669761D01*
X151074285Y-146622142D01*
X151121904Y-146526904D01*
X151121904Y-146336428D01*
X151074285Y-146241190D01*
X151026666Y-146193571D01*
X150931428Y-146145952D01*
X140390714Y-164067380D02*
X140390714Y-163067380D01*
X140628809Y-163067380D01*
X140771666Y-163115000D01*
X140866904Y-163210238D01*
X140914523Y-163305476D01*
X140962142Y-163495952D01*
X140962142Y-163638809D01*
X140914523Y-163829285D01*
X140866904Y-163924523D01*
X140771666Y-164019761D01*
X140628809Y-164067380D01*
X140390714Y-164067380D01*
X141295476Y-163067380D02*
X141914523Y-163067380D01*
X141581190Y-163448333D01*
X141724047Y-163448333D01*
X141819285Y-163495952D01*
X141866904Y-163543571D01*
X141914523Y-163638809D01*
X141914523Y-163876904D01*
X141866904Y-163972142D01*
X141819285Y-164019761D01*
X141724047Y-164067380D01*
X141438333Y-164067380D01*
X141343095Y-164019761D01*
X141295476Y-163972142D01*
X142247857Y-163067380D02*
X142866904Y-163067380D01*
X142533571Y-163448333D01*
X142676428Y-163448333D01*
X142771666Y-163495952D01*
X142819285Y-163543571D01*
X142866904Y-163638809D01*
X142866904Y-163876904D01*
X142819285Y-163972142D01*
X142771666Y-164019761D01*
X142676428Y-164067380D01*
X142390714Y-164067380D01*
X142295476Y-164019761D01*
X142247857Y-163972142D01*
X97194761Y-165732380D02*
X96623333Y-165732380D01*
X96909047Y-165732380D02*
X96909047Y-164732380D01*
X96813809Y-164875238D01*
X96718571Y-164970476D01*
X96623333Y-165018095D01*
X97623333Y-165732380D02*
X97623333Y-164732380D01*
X97718571Y-165351428D02*
X98004285Y-165732380D01*
X98004285Y-165065714D02*
X97623333Y-165446666D01*
X98385238Y-164827619D02*
X98432857Y-164780000D01*
X98528095Y-164732380D01*
X98766190Y-164732380D01*
X98861428Y-164780000D01*
X98909047Y-164827619D01*
X98956666Y-164922857D01*
X98956666Y-165018095D01*
X98909047Y-165160952D01*
X98337619Y-165732380D01*
X98956666Y-165732380D01*
X148645714Y-163862380D02*
X148645714Y-162862380D01*
X148883809Y-162862380D01*
X149026666Y-162910000D01*
X149121904Y-163005238D01*
X149169523Y-163100476D01*
X149217142Y-163290952D01*
X149217142Y-163433809D01*
X149169523Y-163624285D01*
X149121904Y-163719523D01*
X149026666Y-163814761D01*
X148883809Y-163862380D01*
X148645714Y-163862380D01*
X149550476Y-162862380D02*
X150169523Y-162862380D01*
X149836190Y-163243333D01*
X149979047Y-163243333D01*
X150074285Y-163290952D01*
X150121904Y-163338571D01*
X150169523Y-163433809D01*
X150169523Y-163671904D01*
X150121904Y-163767142D01*
X150074285Y-163814761D01*
X149979047Y-163862380D01*
X149693333Y-163862380D01*
X149598095Y-163814761D01*
X149550476Y-163767142D01*
X150788571Y-162862380D02*
X150883809Y-162862380D01*
X150979047Y-162910000D01*
X151026666Y-162957619D01*
X151074285Y-163052857D01*
X151121904Y-163243333D01*
X151121904Y-163481428D01*
X151074285Y-163671904D01*
X151026666Y-163767142D01*
X150979047Y-163814761D01*
X150883809Y-163862380D01*
X150788571Y-163862380D01*
X150693333Y-163814761D01*
X150645714Y-163767142D01*
X150598095Y-163671904D01*
X150550476Y-163481428D01*
X150550476Y-163243333D01*
X150598095Y-163052857D01*
X150645714Y-162957619D01*
X150693333Y-162910000D01*
X150788571Y-162862380D01*
X140390714Y-169782380D02*
X140390714Y-168782380D01*
X140628809Y-168782380D01*
X140771666Y-168830000D01*
X140866904Y-168925238D01*
X140914523Y-169020476D01*
X140962142Y-169210952D01*
X140962142Y-169353809D01*
X140914523Y-169544285D01*
X140866904Y-169639523D01*
X140771666Y-169734761D01*
X140628809Y-169782380D01*
X140390714Y-169782380D01*
X141295476Y-168782380D02*
X141914523Y-168782380D01*
X141581190Y-169163333D01*
X141724047Y-169163333D01*
X141819285Y-169210952D01*
X141866904Y-169258571D01*
X141914523Y-169353809D01*
X141914523Y-169591904D01*
X141866904Y-169687142D01*
X141819285Y-169734761D01*
X141724047Y-169782380D01*
X141438333Y-169782380D01*
X141343095Y-169734761D01*
X141295476Y-169687142D01*
X142866904Y-169782380D02*
X142295476Y-169782380D01*
X142581190Y-169782380D02*
X142581190Y-168782380D01*
X142485952Y-168925238D01*
X142390714Y-169020476D01*
X142295476Y-169068095D01*
X126822142Y-135887380D02*
X126488809Y-135411190D01*
X126250714Y-135887380D02*
X126250714Y-134887380D01*
X126631666Y-134887380D01*
X126726904Y-134935000D01*
X126774523Y-134982619D01*
X126822142Y-135077857D01*
X126822142Y-135220714D01*
X126774523Y-135315952D01*
X126726904Y-135363571D01*
X126631666Y-135411190D01*
X126250714Y-135411190D01*
X127726904Y-134887380D02*
X127250714Y-134887380D01*
X127203095Y-135363571D01*
X127250714Y-135315952D01*
X127345952Y-135268333D01*
X127584047Y-135268333D01*
X127679285Y-135315952D01*
X127726904Y-135363571D01*
X127774523Y-135458809D01*
X127774523Y-135696904D01*
X127726904Y-135792142D01*
X127679285Y-135839761D01*
X127584047Y-135887380D01*
X127345952Y-135887380D01*
X127250714Y-135839761D01*
X127203095Y-135792142D01*
X128107857Y-134887380D02*
X128726904Y-134887380D01*
X128393571Y-135268333D01*
X128536428Y-135268333D01*
X128631666Y-135315952D01*
X128679285Y-135363571D01*
X128726904Y-135458809D01*
X128726904Y-135696904D01*
X128679285Y-135792142D01*
X128631666Y-135839761D01*
X128536428Y-135887380D01*
X128250714Y-135887380D01*
X128155476Y-135839761D01*
X128107857Y-135792142D01*
X148645714Y-152432380D02*
X148645714Y-151432380D01*
X148883809Y-151432380D01*
X149026666Y-151480000D01*
X149121904Y-151575238D01*
X149169523Y-151670476D01*
X149217142Y-151860952D01*
X149217142Y-152003809D01*
X149169523Y-152194285D01*
X149121904Y-152289523D01*
X149026666Y-152384761D01*
X148883809Y-152432380D01*
X148645714Y-152432380D01*
X149550476Y-151432380D02*
X150169523Y-151432380D01*
X149836190Y-151813333D01*
X149979047Y-151813333D01*
X150074285Y-151860952D01*
X150121904Y-151908571D01*
X150169523Y-152003809D01*
X150169523Y-152241904D01*
X150121904Y-152337142D01*
X150074285Y-152384761D01*
X149979047Y-152432380D01*
X149693333Y-152432380D01*
X149598095Y-152384761D01*
X149550476Y-152337142D01*
X151026666Y-151765714D02*
X151026666Y-152432380D01*
X150788571Y-151384761D02*
X150550476Y-152099047D01*
X151169523Y-152099047D01*
X140390714Y-158352380D02*
X140390714Y-157352380D01*
X140628809Y-157352380D01*
X140771666Y-157400000D01*
X140866904Y-157495238D01*
X140914523Y-157590476D01*
X140962142Y-157780952D01*
X140962142Y-157923809D01*
X140914523Y-158114285D01*
X140866904Y-158209523D01*
X140771666Y-158304761D01*
X140628809Y-158352380D01*
X140390714Y-158352380D01*
X141295476Y-157352380D02*
X141914523Y-157352380D01*
X141581190Y-157733333D01*
X141724047Y-157733333D01*
X141819285Y-157780952D01*
X141866904Y-157828571D01*
X141914523Y-157923809D01*
X141914523Y-158161904D01*
X141866904Y-158257142D01*
X141819285Y-158304761D01*
X141724047Y-158352380D01*
X141438333Y-158352380D01*
X141343095Y-158304761D01*
X141295476Y-158257142D01*
X142819285Y-157352380D02*
X142343095Y-157352380D01*
X142295476Y-157828571D01*
X142343095Y-157780952D01*
X142438333Y-157733333D01*
X142676428Y-157733333D01*
X142771666Y-157780952D01*
X142819285Y-157828571D01*
X142866904Y-157923809D01*
X142866904Y-158161904D01*
X142819285Y-158257142D01*
X142771666Y-158304761D01*
X142676428Y-158352380D01*
X142438333Y-158352380D01*
X142343095Y-158304761D01*
X142295476Y-158257142D01*
X154932142Y-159657380D02*
X154598809Y-159181190D01*
X154360714Y-159657380D02*
X154360714Y-158657380D01*
X154741666Y-158657380D01*
X154836904Y-158705000D01*
X154884523Y-158752619D01*
X154932142Y-158847857D01*
X154932142Y-158990714D01*
X154884523Y-159085952D01*
X154836904Y-159133571D01*
X154741666Y-159181190D01*
X154360714Y-159181190D01*
X155789285Y-158657380D02*
X155598809Y-158657380D01*
X155503571Y-158705000D01*
X155455952Y-158752619D01*
X155360714Y-158895476D01*
X155313095Y-159085952D01*
X155313095Y-159466904D01*
X155360714Y-159562142D01*
X155408333Y-159609761D01*
X155503571Y-159657380D01*
X155694047Y-159657380D01*
X155789285Y-159609761D01*
X155836904Y-159562142D01*
X155884523Y-159466904D01*
X155884523Y-159228809D01*
X155836904Y-159133571D01*
X155789285Y-159085952D01*
X155694047Y-159038333D01*
X155503571Y-159038333D01*
X155408333Y-159085952D01*
X155360714Y-159133571D01*
X155313095Y-159228809D01*
X156503571Y-158657380D02*
X156598809Y-158657380D01*
X156694047Y-158705000D01*
X156741666Y-158752619D01*
X156789285Y-158847857D01*
X156836904Y-159038333D01*
X156836904Y-159276428D01*
X156789285Y-159466904D01*
X156741666Y-159562142D01*
X156694047Y-159609761D01*
X156598809Y-159657380D01*
X156503571Y-159657380D01*
X156408333Y-159609761D01*
X156360714Y-159562142D01*
X156313095Y-159466904D01*
X156265476Y-159276428D01*
X156265476Y-159038333D01*
X156313095Y-158847857D01*
X156360714Y-158752619D01*
X156408333Y-158705000D01*
X156503571Y-158657380D01*
X135247142Y-162557380D02*
X134913809Y-162081190D01*
X134675714Y-162557380D02*
X134675714Y-161557380D01*
X135056666Y-161557380D01*
X135151904Y-161605000D01*
X135199523Y-161652619D01*
X135247142Y-161747857D01*
X135247142Y-161890714D01*
X135199523Y-161985952D01*
X135151904Y-162033571D01*
X135056666Y-162081190D01*
X134675714Y-162081190D01*
X136104285Y-161557380D02*
X135913809Y-161557380D01*
X135818571Y-161605000D01*
X135770952Y-161652619D01*
X135675714Y-161795476D01*
X135628095Y-161985952D01*
X135628095Y-162366904D01*
X135675714Y-162462142D01*
X135723333Y-162509761D01*
X135818571Y-162557380D01*
X136009047Y-162557380D01*
X136104285Y-162509761D01*
X136151904Y-162462142D01*
X136199523Y-162366904D01*
X136199523Y-162128809D01*
X136151904Y-162033571D01*
X136104285Y-161985952D01*
X136009047Y-161938333D01*
X135818571Y-161938333D01*
X135723333Y-161985952D01*
X135675714Y-162033571D01*
X135628095Y-162128809D01*
X137151904Y-162557380D02*
X136580476Y-162557380D01*
X136866190Y-162557380D02*
X136866190Y-161557380D01*
X136770952Y-161700238D01*
X136675714Y-161795476D01*
X136580476Y-161843095D01*
X101655714Y-150097380D02*
X101655714Y-149097380D01*
X101893809Y-149097380D01*
X102036666Y-149145000D01*
X102131904Y-149240238D01*
X102179523Y-149335476D01*
X102227142Y-149525952D01*
X102227142Y-149668809D01*
X102179523Y-149859285D01*
X102131904Y-149954523D01*
X102036666Y-150049761D01*
X101893809Y-150097380D01*
X101655714Y-150097380D01*
X102608095Y-149192619D02*
X102655714Y-149145000D01*
X102750952Y-149097380D01*
X102989047Y-149097380D01*
X103084285Y-149145000D01*
X103131904Y-149192619D01*
X103179523Y-149287857D01*
X103179523Y-149383095D01*
X103131904Y-149525952D01*
X102560476Y-150097380D01*
X103179523Y-150097380D01*
X103512857Y-149097380D02*
X104179523Y-149097380D01*
X103750952Y-150097380D01*
X135247142Y-168272380D02*
X134913809Y-167796190D01*
X134675714Y-168272380D02*
X134675714Y-167272380D01*
X135056666Y-167272380D01*
X135151904Y-167320000D01*
X135199523Y-167367619D01*
X135247142Y-167462857D01*
X135247142Y-167605714D01*
X135199523Y-167700952D01*
X135151904Y-167748571D01*
X135056666Y-167796190D01*
X134675714Y-167796190D01*
X136151904Y-167272380D02*
X135675714Y-167272380D01*
X135628095Y-167748571D01*
X135675714Y-167700952D01*
X135770952Y-167653333D01*
X136009047Y-167653333D01*
X136104285Y-167700952D01*
X136151904Y-167748571D01*
X136199523Y-167843809D01*
X136199523Y-168081904D01*
X136151904Y-168177142D01*
X136104285Y-168224761D01*
X136009047Y-168272380D01*
X135770952Y-168272380D01*
X135675714Y-168224761D01*
X135628095Y-168177142D01*
X136675714Y-168272380D02*
X136866190Y-168272380D01*
X136961428Y-168224761D01*
X137009047Y-168177142D01*
X137104285Y-168034285D01*
X137151904Y-167843809D01*
X137151904Y-167462857D01*
X137104285Y-167367619D01*
X137056666Y-167320000D01*
X136961428Y-167272380D01*
X136770952Y-167272380D01*
X136675714Y-167320000D01*
X136628095Y-167367619D01*
X136580476Y-167462857D01*
X136580476Y-167700952D01*
X136628095Y-167796190D01*
X136675714Y-167843809D01*
X136770952Y-167891428D01*
X136961428Y-167891428D01*
X137056666Y-167843809D01*
X137104285Y-167796190D01*
X137151904Y-167700952D01*
X97194761Y-154302380D02*
X96623333Y-154302380D01*
X96909047Y-154302380D02*
X96909047Y-153302380D01*
X96813809Y-153445238D01*
X96718571Y-153540476D01*
X96623333Y-153588095D01*
X97623333Y-154302380D02*
X97623333Y-153302380D01*
X97718571Y-153921428D02*
X98004285Y-154302380D01*
X98004285Y-153635714D02*
X97623333Y-154016666D01*
X98861428Y-153635714D02*
X98861428Y-154302380D01*
X98623333Y-153254761D02*
X98385238Y-153969047D01*
X99004285Y-153969047D01*
M02*
