M48
; DRILL file {KiCad (5.1.4)-1} date 12.09.2020 21:11:32
; FORMAT={-:-/ absolute / inch / decimal}
; #@! TF.CreationDate,2020-09-12T21:11:32+02:00
; #@! TF.GenerationSoftware,Kicad,Pcbnew,(5.1.4)-1
; #@! TF.FileFunction,Plated,1,2,PTH
FMAT,2
INCH
T1C0.0118
T2C0.0354
T3C0.0394
T4C0.0433
%
G90
G05
T1
X2.9863Y-6.8004
X3.085Y-6.7
X3.2118Y-6.385
X3.3162Y-6.4858
X3.355Y-6.45
X3.43Y-6.45
X3.43Y-6.7
X3.4406Y-6.9417
X3.5922Y-6.6
X3.5922Y-6.65
X4.3819Y-6.2902
X4.4193Y-6.3291
X4.715Y-6.475
X4.8918Y-6.0756
X5.145Y-5.475
X5.535Y-5.6525
X6.1327Y-5.9563
X6.135Y-5.72
X6.415Y-6.715
X6.435Y-6.3125
T2
X5.815Y-6.075
X5.915Y-6.075
X5.49Y-6.525
X5.59Y-6.525
X3.45Y-6.2
X3.55Y-6.2
X5.49Y-6.3
X5.59Y-6.3
X3.965Y-6.425
X4.065Y-6.425
X5.815Y-6.525
X5.915Y-6.525
X3.45Y-5.975
X3.55Y-5.975
X5.815Y-6.3
X5.915Y-6.3
X3.965Y-5.975
X4.065Y-5.975
X5.815Y-6.75
X5.915Y-6.75
X5.49Y-6.075
X5.59Y-6.075
X3.965Y-6.65
X4.065Y-6.65
X3.965Y-6.875
X4.065Y-6.875
X3.965Y-6.2
X4.065Y-6.2
X5.49Y-6.75
X5.59Y-6.75
T3
X6.575Y-6.0375
X6.575Y-6.1375
X6.575Y-6.2375
X6.575Y-6.3375
X3.025Y-5.9875
X3.025Y-6.0875
X3.025Y-6.1875
X3.025Y-6.2875
X3.025Y-6.3875
X3.125Y-5.9875
X3.125Y-6.0875
X3.125Y-6.1875
X3.125Y-6.2875
X3.125Y-6.3875
T4
X3.315Y-5.6
X3.315Y-5.7772
X3.5709Y-5.6
X3.5709Y-5.7772
X4.59Y-5.6
X4.59Y-5.7772
X4.8459Y-5.6
X4.8459Y-5.7772
X5.015Y-5.6
X5.015Y-5.7772
X5.2709Y-5.6
X5.2709Y-5.7772
X3.74Y-5.6
X3.74Y-5.7772
X3.9959Y-5.6
X3.9959Y-5.7772
X4.165Y-5.6
X4.165Y-5.7772
X4.4209Y-5.6
X4.4209Y-5.7772
T0
M30
