G04 #@! TF.GenerationSoftware,KiCad,Pcbnew,(5.1.4)-1*
G04 #@! TF.CreationDate,2020-09-12T21:11:29+02:00*
G04 #@! TF.ProjectId,SBIO3,5342494f-332e-46b6-9963-61645f706362,rev?*
G04 #@! TF.SameCoordinates,Original*
G04 #@! TF.FileFunction,Copper,L2,Bot*
G04 #@! TF.FilePolarity,Positive*
%FSLAX46Y46*%
G04 Gerber Fmt 4.6, Leading zero omitted, Abs format (unit mm)*
G04 Created by KiCad (PCBNEW (5.1.4)-1) date 2020-09-12 21:11:29*
%MOMM*%
%LPD*%
G04 APERTURE LIST*
%ADD10C,1.800000*%
%ADD11R,1.800000X1.800000*%
%ADD12O,1.700000X1.700000*%
%ADD13R,1.700000X1.700000*%
%ADD14C,2.000000*%
%ADD15C,0.500000*%
%ADD16C,0.300000*%
%ADD17C,0.500000*%
%ADD18C,0.254000*%
G04 APERTURE END LIST*
D10*
X87630000Y-157480000D03*
D11*
X90170000Y-157480000D03*
D10*
X87630000Y-151765000D03*
D11*
X90170000Y-151765000D03*
D12*
X167005000Y-160972500D03*
X167005000Y-158432500D03*
X167005000Y-155892500D03*
D13*
X167005000Y-153352500D03*
D12*
X76835000Y-162242500D03*
X79375000Y-162242500D03*
X76835000Y-159702500D03*
X79375000Y-159702500D03*
X76835000Y-157162500D03*
X79375000Y-157162500D03*
X76835000Y-154622500D03*
X79375000Y-154622500D03*
X76835000Y-152082500D03*
D13*
X79375000Y-152082500D03*
D14*
X133881000Y-142240000D03*
X133881000Y-146740000D03*
X127381000Y-142240000D03*
X127381000Y-146740000D03*
D11*
X103251000Y-174625000D03*
D10*
X100711000Y-174625000D03*
X100711000Y-168910000D03*
D11*
X103251000Y-168910000D03*
D10*
X100711000Y-157480000D03*
D11*
X103251000Y-157480000D03*
D10*
X139446000Y-154305000D03*
D11*
X141986000Y-154305000D03*
X147701000Y-165735000D03*
D10*
X150241000Y-165735000D03*
D14*
X123086000Y-142240000D03*
X123086000Y-146740000D03*
X116586000Y-142240000D03*
X116586000Y-146740000D03*
X84201000Y-146740000D03*
X84201000Y-142240000D03*
X90701000Y-146740000D03*
X90701000Y-142240000D03*
X112291000Y-142240000D03*
X112291000Y-146740000D03*
X105791000Y-142240000D03*
X105791000Y-146740000D03*
X94996000Y-146740000D03*
X94996000Y-142240000D03*
X101496000Y-146740000D03*
X101496000Y-142240000D03*
D10*
X100711000Y-163195000D03*
D11*
X103251000Y-163195000D03*
D10*
X150241000Y-154305000D03*
D11*
X147701000Y-154305000D03*
X141986000Y-165735000D03*
D10*
X139446000Y-165735000D03*
D11*
X147701000Y-171450000D03*
D10*
X150241000Y-171450000D03*
D11*
X141986000Y-171450000D03*
D10*
X139446000Y-171450000D03*
D11*
X147701000Y-160020000D03*
D10*
X150241000Y-160020000D03*
X139446000Y-160020000D03*
D11*
X141986000Y-160020000D03*
D10*
X100711000Y-151765000D03*
D11*
X103251000Y-151765000D03*
D15*
X162941000Y-170561000D03*
X163449000Y-160337500D03*
X155829000Y-145288000D03*
X140589000Y-143573500D03*
X78359000Y-170180000D03*
X87122000Y-170180000D03*
X85217000Y-163830000D03*
X87122000Y-163830000D03*
X119761000Y-164465000D03*
X130683000Y-139065000D03*
X112251000Y-160760000D03*
X81580000Y-162179000D03*
X75851000Y-172730000D03*
X111301000Y-159770000D03*
X155771000Y-151290000D03*
X91241000Y-168910000D03*
X91241000Y-167640000D03*
X124251000Y-154320000D03*
X87391000Y-176320000D03*
X84231000Y-164740000D03*
D16*
X147701000Y-165735000D02*
X147701000Y-171450000D01*
X141986000Y-165735000D02*
X141986000Y-171450000D01*
X147701000Y-160020000D02*
X147701000Y-165735000D01*
X141986000Y-160020000D02*
X141986000Y-165735000D01*
D17*
X92837000Y-170180000D02*
X87122000Y-170180000D01*
X118046500Y-167640000D02*
X95377000Y-167640000D01*
X119761000Y-165925500D02*
X118046500Y-167640000D01*
X125095000Y-157162500D02*
X119761000Y-162496500D01*
X87122000Y-163830000D02*
X85217000Y-163830000D01*
X95377000Y-167640000D02*
X92837000Y-170180000D01*
X119761000Y-164465000D02*
X119761000Y-165925500D01*
X119761000Y-162496500D02*
X119761000Y-164465000D01*
X153543000Y-157162500D02*
X125095000Y-157162500D01*
X130683000Y-139065000D02*
X165735000Y-139065000D01*
X167005000Y-140335000D02*
X167005000Y-153352500D01*
X165735000Y-139065000D02*
X167005000Y-140335000D01*
X167005000Y-155892500D02*
X167005000Y-153352500D01*
X154813000Y-155892500D02*
X153543000Y-157162500D01*
X167005000Y-155892500D02*
X154813000Y-155892500D01*
D16*
X81580000Y-162179000D02*
X90202000Y-162179000D01*
X91621000Y-160760000D02*
X112251000Y-160760000D01*
X90202000Y-162179000D02*
X91621000Y-160760000D01*
X81516500Y-162242500D02*
X81580000Y-162179000D01*
X79375000Y-162242500D02*
X81516500Y-162242500D01*
X75261000Y-172140000D02*
X75851000Y-172730000D01*
X75261000Y-161276500D02*
X76835000Y-159702500D01*
X75261000Y-172140000D02*
X75261000Y-161276500D01*
X91691000Y-159770000D02*
X111301000Y-159770000D01*
X83051000Y-161510000D02*
X89951000Y-161510000D01*
X89951000Y-161510000D02*
X91691000Y-159770000D01*
X81180000Y-159639000D02*
X83051000Y-161510000D01*
X79438500Y-159639000D02*
X79375000Y-159702500D01*
X81180000Y-159639000D02*
X79438500Y-159639000D01*
X91241000Y-168910000D02*
X93111000Y-168910000D01*
X129861000Y-151290000D02*
X155771000Y-151290000D01*
X93111000Y-168910000D02*
X95981000Y-166040000D01*
X95981000Y-166040000D02*
X115111000Y-166040000D01*
X115111000Y-166040000D02*
X129861000Y-151290000D01*
X91241000Y-167640000D02*
X93481000Y-167640000D01*
X114861000Y-165390000D02*
X124251000Y-156000000D01*
X124251000Y-156000000D02*
X124251000Y-154320000D01*
X95731000Y-165390000D02*
X114861000Y-165390000D01*
X93481000Y-167640000D02*
X95731000Y-165390000D01*
X86231000Y-175720000D02*
X86831000Y-176320000D01*
X86231000Y-175130000D02*
X86231000Y-175720000D01*
X86831000Y-176320000D02*
X87391000Y-176320000D01*
X86231000Y-165420000D02*
X86231000Y-175130000D01*
X85551000Y-164740000D02*
X86231000Y-165420000D01*
X84961000Y-164740000D02*
X85551000Y-164740000D01*
X84231000Y-164740000D02*
X84961000Y-164740000D01*
D18*
G36*
X166898483Y-137665986D02*
G01*
X167406829Y-137819465D01*
X167875685Y-138068760D01*
X168287193Y-138404378D01*
X168625672Y-138813531D01*
X168878236Y-139280635D01*
X169035259Y-139787901D01*
X169093001Y-140337267D01*
X169093000Y-173967892D01*
X169039014Y-174518483D01*
X168885536Y-175026828D01*
X168636240Y-175495685D01*
X168300622Y-175907193D01*
X167891473Y-176245670D01*
X167424363Y-176498236D01*
X166917100Y-176655259D01*
X166367743Y-176713000D01*
X87942627Y-176713000D01*
X87990950Y-176640680D01*
X88041984Y-176517474D01*
X88068000Y-176386679D01*
X88068000Y-176253321D01*
X88041984Y-176122526D01*
X87990950Y-175999320D01*
X87916860Y-175888437D01*
X87822563Y-175794140D01*
X87711680Y-175720050D01*
X87588474Y-175669016D01*
X87457679Y-175643000D01*
X87324321Y-175643000D01*
X87193526Y-175669016D01*
X87070320Y-175720050D01*
X87056372Y-175729370D01*
X86808000Y-175480999D01*
X86808000Y-174494302D01*
X99384000Y-174494302D01*
X99384000Y-174755698D01*
X99434996Y-175012072D01*
X99535028Y-175253570D01*
X99680252Y-175470913D01*
X99865087Y-175655748D01*
X100082430Y-175800972D01*
X100323928Y-175901004D01*
X100580302Y-175952000D01*
X100841698Y-175952000D01*
X101098072Y-175901004D01*
X101339570Y-175800972D01*
X101556913Y-175655748D01*
X101713055Y-175499606D01*
X101712928Y-175525000D01*
X101725188Y-175649482D01*
X101761498Y-175769180D01*
X101820463Y-175879494D01*
X101899815Y-175976185D01*
X101996506Y-176055537D01*
X102106820Y-176114502D01*
X102226518Y-176150812D01*
X102351000Y-176163072D01*
X102965250Y-176160000D01*
X103124000Y-176001250D01*
X103124000Y-174752000D01*
X103378000Y-174752000D01*
X103378000Y-176001250D01*
X103536750Y-176160000D01*
X104151000Y-176163072D01*
X104275482Y-176150812D01*
X104395180Y-176114502D01*
X104505494Y-176055537D01*
X104602185Y-175976185D01*
X104681537Y-175879494D01*
X104740502Y-175769180D01*
X104776812Y-175649482D01*
X104789072Y-175525000D01*
X104786000Y-174910750D01*
X104627250Y-174752000D01*
X103378000Y-174752000D01*
X103124000Y-174752000D01*
X103104000Y-174752000D01*
X103104000Y-174498000D01*
X103124000Y-174498000D01*
X103124000Y-173248750D01*
X103378000Y-173248750D01*
X103378000Y-174498000D01*
X104627250Y-174498000D01*
X104786000Y-174339250D01*
X104789072Y-173725000D01*
X104776812Y-173600518D01*
X104740502Y-173480820D01*
X104681537Y-173370506D01*
X104602185Y-173273815D01*
X104505494Y-173194463D01*
X104395180Y-173135498D01*
X104275482Y-173099188D01*
X104151000Y-173086928D01*
X103536750Y-173090000D01*
X103378000Y-173248750D01*
X103124000Y-173248750D01*
X102965250Y-173090000D01*
X102351000Y-173086928D01*
X102226518Y-173099188D01*
X102106820Y-173135498D01*
X101996506Y-173194463D01*
X101899815Y-173273815D01*
X101820463Y-173370506D01*
X101761498Y-173480820D01*
X101725188Y-173600518D01*
X101712928Y-173725000D01*
X101713055Y-173750394D01*
X101556913Y-173594252D01*
X101339570Y-173449028D01*
X101098072Y-173348996D01*
X100841698Y-173298000D01*
X100580302Y-173298000D01*
X100323928Y-173348996D01*
X100082430Y-173449028D01*
X99865087Y-173594252D01*
X99680252Y-173779087D01*
X99535028Y-173996430D01*
X99434996Y-174237928D01*
X99384000Y-174494302D01*
X86808000Y-174494302D01*
X86808000Y-171319302D01*
X138119000Y-171319302D01*
X138119000Y-171580698D01*
X138169996Y-171837072D01*
X138270028Y-172078570D01*
X138415252Y-172295913D01*
X138600087Y-172480748D01*
X138817430Y-172625972D01*
X139058928Y-172726004D01*
X139315302Y-172777000D01*
X139576698Y-172777000D01*
X139833072Y-172726004D01*
X140074570Y-172625972D01*
X140291913Y-172480748D01*
X140448055Y-172324606D01*
X140447928Y-172350000D01*
X140460188Y-172474482D01*
X140496498Y-172594180D01*
X140555463Y-172704494D01*
X140634815Y-172801185D01*
X140731506Y-172880537D01*
X140841820Y-172939502D01*
X140961518Y-172975812D01*
X141086000Y-172988072D01*
X141700250Y-172985000D01*
X141859000Y-172826250D01*
X141859000Y-171577000D01*
X142113000Y-171577000D01*
X142113000Y-172826250D01*
X142271750Y-172985000D01*
X142886000Y-172988072D01*
X143010482Y-172975812D01*
X143130180Y-172939502D01*
X143240494Y-172880537D01*
X143337185Y-172801185D01*
X143416537Y-172704494D01*
X143475502Y-172594180D01*
X143511812Y-172474482D01*
X143524072Y-172350000D01*
X146162928Y-172350000D01*
X146175188Y-172474482D01*
X146211498Y-172594180D01*
X146270463Y-172704494D01*
X146349815Y-172801185D01*
X146446506Y-172880537D01*
X146556820Y-172939502D01*
X146676518Y-172975812D01*
X146801000Y-172988072D01*
X147415250Y-172985000D01*
X147574000Y-172826250D01*
X147574000Y-171577000D01*
X146324750Y-171577000D01*
X146166000Y-171735750D01*
X146162928Y-172350000D01*
X143524072Y-172350000D01*
X143521000Y-171735750D01*
X143362250Y-171577000D01*
X142113000Y-171577000D01*
X141859000Y-171577000D01*
X141839000Y-171577000D01*
X141839000Y-171323000D01*
X141859000Y-171323000D01*
X141859000Y-170073750D01*
X142113000Y-170073750D01*
X142113000Y-171323000D01*
X143362250Y-171323000D01*
X143521000Y-171164250D01*
X143524072Y-170550000D01*
X146162928Y-170550000D01*
X146166000Y-171164250D01*
X146324750Y-171323000D01*
X147574000Y-171323000D01*
X147574000Y-170073750D01*
X147828000Y-170073750D01*
X147828000Y-171323000D01*
X147848000Y-171323000D01*
X147848000Y-171577000D01*
X147828000Y-171577000D01*
X147828000Y-172826250D01*
X147986750Y-172985000D01*
X148601000Y-172988072D01*
X148725482Y-172975812D01*
X148845180Y-172939502D01*
X148955494Y-172880537D01*
X149052185Y-172801185D01*
X149131537Y-172704494D01*
X149190502Y-172594180D01*
X149226812Y-172474482D01*
X149239072Y-172350000D01*
X149238945Y-172324606D01*
X149395087Y-172480748D01*
X149612430Y-172625972D01*
X149853928Y-172726004D01*
X150110302Y-172777000D01*
X150371698Y-172777000D01*
X150628072Y-172726004D01*
X150869570Y-172625972D01*
X151086913Y-172480748D01*
X151271748Y-172295913D01*
X151416972Y-172078570D01*
X151517004Y-171837072D01*
X151568000Y-171580698D01*
X151568000Y-171319302D01*
X151517004Y-171062928D01*
X151416972Y-170821430D01*
X151271748Y-170604087D01*
X151086913Y-170419252D01*
X150869570Y-170274028D01*
X150628072Y-170173996D01*
X150371698Y-170123000D01*
X150110302Y-170123000D01*
X149853928Y-170173996D01*
X149612430Y-170274028D01*
X149395087Y-170419252D01*
X149238945Y-170575394D01*
X149239072Y-170550000D01*
X149226812Y-170425518D01*
X149190502Y-170305820D01*
X149131537Y-170195506D01*
X149052185Y-170098815D01*
X148955494Y-170019463D01*
X148845180Y-169960498D01*
X148725482Y-169924188D01*
X148601000Y-169911928D01*
X147986750Y-169915000D01*
X147828000Y-170073750D01*
X147574000Y-170073750D01*
X147415250Y-169915000D01*
X146801000Y-169911928D01*
X146676518Y-169924188D01*
X146556820Y-169960498D01*
X146446506Y-170019463D01*
X146349815Y-170098815D01*
X146270463Y-170195506D01*
X146211498Y-170305820D01*
X146175188Y-170425518D01*
X146162928Y-170550000D01*
X143524072Y-170550000D01*
X143511812Y-170425518D01*
X143475502Y-170305820D01*
X143416537Y-170195506D01*
X143337185Y-170098815D01*
X143240494Y-170019463D01*
X143130180Y-169960498D01*
X143010482Y-169924188D01*
X142886000Y-169911928D01*
X142271750Y-169915000D01*
X142113000Y-170073750D01*
X141859000Y-170073750D01*
X141700250Y-169915000D01*
X141086000Y-169911928D01*
X140961518Y-169924188D01*
X140841820Y-169960498D01*
X140731506Y-170019463D01*
X140634815Y-170098815D01*
X140555463Y-170195506D01*
X140496498Y-170305820D01*
X140460188Y-170425518D01*
X140447928Y-170550000D01*
X140448055Y-170575394D01*
X140291913Y-170419252D01*
X140074570Y-170274028D01*
X139833072Y-170173996D01*
X139576698Y-170123000D01*
X139315302Y-170123000D01*
X139058928Y-170173996D01*
X138817430Y-170274028D01*
X138600087Y-170419252D01*
X138415252Y-170604087D01*
X138270028Y-170821430D01*
X138169996Y-171062928D01*
X138119000Y-171319302D01*
X86808000Y-171319302D01*
X86808000Y-170782717D01*
X86832208Y-170792744D01*
X86861670Y-170808492D01*
X86893636Y-170818189D01*
X86924526Y-170830984D01*
X86957315Y-170837506D01*
X86989285Y-170847204D01*
X87022536Y-170850479D01*
X87055321Y-170857000D01*
X92803755Y-170857000D01*
X92837000Y-170860274D01*
X92870245Y-170857000D01*
X92870252Y-170857000D01*
X92969715Y-170847204D01*
X93097330Y-170808492D01*
X93214941Y-170745628D01*
X93318027Y-170661027D01*
X93339226Y-170635196D01*
X95657422Y-168317000D01*
X99520294Y-168317000D01*
X99434996Y-168522928D01*
X99384000Y-168779302D01*
X99384000Y-169040698D01*
X99434996Y-169297072D01*
X99535028Y-169538570D01*
X99680252Y-169755913D01*
X99865087Y-169940748D01*
X100082430Y-170085972D01*
X100323928Y-170186004D01*
X100580302Y-170237000D01*
X100841698Y-170237000D01*
X101098072Y-170186004D01*
X101339570Y-170085972D01*
X101556913Y-169940748D01*
X101713055Y-169784606D01*
X101712928Y-169810000D01*
X101725188Y-169934482D01*
X101761498Y-170054180D01*
X101820463Y-170164494D01*
X101899815Y-170261185D01*
X101996506Y-170340537D01*
X102106820Y-170399502D01*
X102226518Y-170435812D01*
X102351000Y-170448072D01*
X102965250Y-170445000D01*
X103124000Y-170286250D01*
X103124000Y-169037000D01*
X103378000Y-169037000D01*
X103378000Y-170286250D01*
X103536750Y-170445000D01*
X104151000Y-170448072D01*
X104275482Y-170435812D01*
X104395180Y-170399502D01*
X104505494Y-170340537D01*
X104602185Y-170261185D01*
X104681537Y-170164494D01*
X104740502Y-170054180D01*
X104776812Y-169934482D01*
X104789072Y-169810000D01*
X104786000Y-169195750D01*
X104627250Y-169037000D01*
X103378000Y-169037000D01*
X103124000Y-169037000D01*
X103104000Y-169037000D01*
X103104000Y-168783000D01*
X103124000Y-168783000D01*
X103124000Y-168763000D01*
X103378000Y-168763000D01*
X103378000Y-168783000D01*
X104627250Y-168783000D01*
X104786000Y-168624250D01*
X104787537Y-168317000D01*
X118013255Y-168317000D01*
X118046500Y-168320274D01*
X118079745Y-168317000D01*
X118079752Y-168317000D01*
X118179215Y-168307204D01*
X118306830Y-168268492D01*
X118424441Y-168205628D01*
X118527527Y-168121027D01*
X118548726Y-168095196D01*
X120216196Y-166427726D01*
X120242027Y-166406527D01*
X120326628Y-166303441D01*
X120389492Y-166185830D01*
X120428204Y-166058215D01*
X120438000Y-165958752D01*
X120438000Y-165958743D01*
X120441274Y-165925501D01*
X120438000Y-165892259D01*
X120438000Y-165604302D01*
X138119000Y-165604302D01*
X138119000Y-165865698D01*
X138169996Y-166122072D01*
X138270028Y-166363570D01*
X138415252Y-166580913D01*
X138600087Y-166765748D01*
X138817430Y-166910972D01*
X139058928Y-167011004D01*
X139315302Y-167062000D01*
X139576698Y-167062000D01*
X139833072Y-167011004D01*
X140074570Y-166910972D01*
X140291913Y-166765748D01*
X140448055Y-166609606D01*
X140447928Y-166635000D01*
X140460188Y-166759482D01*
X140496498Y-166879180D01*
X140555463Y-166989494D01*
X140634815Y-167086185D01*
X140731506Y-167165537D01*
X140841820Y-167224502D01*
X140961518Y-167260812D01*
X141086000Y-167273072D01*
X141700250Y-167270000D01*
X141859000Y-167111250D01*
X141859000Y-165862000D01*
X142113000Y-165862000D01*
X142113000Y-167111250D01*
X142271750Y-167270000D01*
X142886000Y-167273072D01*
X143010482Y-167260812D01*
X143130180Y-167224502D01*
X143240494Y-167165537D01*
X143337185Y-167086185D01*
X143416537Y-166989494D01*
X143475502Y-166879180D01*
X143511812Y-166759482D01*
X143524072Y-166635000D01*
X146162928Y-166635000D01*
X146175188Y-166759482D01*
X146211498Y-166879180D01*
X146270463Y-166989494D01*
X146349815Y-167086185D01*
X146446506Y-167165537D01*
X146556820Y-167224502D01*
X146676518Y-167260812D01*
X146801000Y-167273072D01*
X147415250Y-167270000D01*
X147574000Y-167111250D01*
X147574000Y-165862000D01*
X146324750Y-165862000D01*
X146166000Y-166020750D01*
X146162928Y-166635000D01*
X143524072Y-166635000D01*
X143521000Y-166020750D01*
X143362250Y-165862000D01*
X142113000Y-165862000D01*
X141859000Y-165862000D01*
X141839000Y-165862000D01*
X141839000Y-165608000D01*
X141859000Y-165608000D01*
X141859000Y-164358750D01*
X142113000Y-164358750D01*
X142113000Y-165608000D01*
X143362250Y-165608000D01*
X143521000Y-165449250D01*
X143524072Y-164835000D01*
X146162928Y-164835000D01*
X146166000Y-165449250D01*
X146324750Y-165608000D01*
X147574000Y-165608000D01*
X147574000Y-164358750D01*
X147828000Y-164358750D01*
X147828000Y-165608000D01*
X147848000Y-165608000D01*
X147848000Y-165862000D01*
X147828000Y-165862000D01*
X147828000Y-167111250D01*
X147986750Y-167270000D01*
X148601000Y-167273072D01*
X148725482Y-167260812D01*
X148845180Y-167224502D01*
X148955494Y-167165537D01*
X149052185Y-167086185D01*
X149131537Y-166989494D01*
X149190502Y-166879180D01*
X149226812Y-166759482D01*
X149239072Y-166635000D01*
X149238945Y-166609606D01*
X149395087Y-166765748D01*
X149612430Y-166910972D01*
X149853928Y-167011004D01*
X150110302Y-167062000D01*
X150371698Y-167062000D01*
X150628072Y-167011004D01*
X150869570Y-166910972D01*
X151086913Y-166765748D01*
X151271748Y-166580913D01*
X151416972Y-166363570D01*
X151517004Y-166122072D01*
X151568000Y-165865698D01*
X151568000Y-165604302D01*
X151517004Y-165347928D01*
X151416972Y-165106430D01*
X151271748Y-164889087D01*
X151086913Y-164704252D01*
X150869570Y-164559028D01*
X150628072Y-164458996D01*
X150371698Y-164408000D01*
X150110302Y-164408000D01*
X149853928Y-164458996D01*
X149612430Y-164559028D01*
X149395087Y-164704252D01*
X149238945Y-164860394D01*
X149239072Y-164835000D01*
X149226812Y-164710518D01*
X149190502Y-164590820D01*
X149131537Y-164480506D01*
X149052185Y-164383815D01*
X148955494Y-164304463D01*
X148845180Y-164245498D01*
X148725482Y-164209188D01*
X148601000Y-164196928D01*
X147986750Y-164200000D01*
X147828000Y-164358750D01*
X147574000Y-164358750D01*
X147415250Y-164200000D01*
X146801000Y-164196928D01*
X146676518Y-164209188D01*
X146556820Y-164245498D01*
X146446506Y-164304463D01*
X146349815Y-164383815D01*
X146270463Y-164480506D01*
X146211498Y-164590820D01*
X146175188Y-164710518D01*
X146162928Y-164835000D01*
X143524072Y-164835000D01*
X143511812Y-164710518D01*
X143475502Y-164590820D01*
X143416537Y-164480506D01*
X143337185Y-164383815D01*
X143240494Y-164304463D01*
X143130180Y-164245498D01*
X143010482Y-164209188D01*
X142886000Y-164196928D01*
X142271750Y-164200000D01*
X142113000Y-164358750D01*
X141859000Y-164358750D01*
X141700250Y-164200000D01*
X141086000Y-164196928D01*
X140961518Y-164209188D01*
X140841820Y-164245498D01*
X140731506Y-164304463D01*
X140634815Y-164383815D01*
X140555463Y-164480506D01*
X140496498Y-164590820D01*
X140460188Y-164710518D01*
X140447928Y-164835000D01*
X140448055Y-164860394D01*
X140291913Y-164704252D01*
X140074570Y-164559028D01*
X139833072Y-164458996D01*
X139576698Y-164408000D01*
X139315302Y-164408000D01*
X139058928Y-164458996D01*
X138817430Y-164559028D01*
X138600087Y-164704252D01*
X138415252Y-164889087D01*
X138270028Y-165106430D01*
X138169996Y-165347928D01*
X138119000Y-165604302D01*
X120438000Y-165604302D01*
X120438000Y-162776922D01*
X123325620Y-159889302D01*
X138119000Y-159889302D01*
X138119000Y-160150698D01*
X138169996Y-160407072D01*
X138270028Y-160648570D01*
X138415252Y-160865913D01*
X138600087Y-161050748D01*
X138817430Y-161195972D01*
X139058928Y-161296004D01*
X139315302Y-161347000D01*
X139576698Y-161347000D01*
X139833072Y-161296004D01*
X140074570Y-161195972D01*
X140291913Y-161050748D01*
X140448055Y-160894606D01*
X140447928Y-160920000D01*
X140460188Y-161044482D01*
X140496498Y-161164180D01*
X140555463Y-161274494D01*
X140634815Y-161371185D01*
X140731506Y-161450537D01*
X140841820Y-161509502D01*
X140961518Y-161545812D01*
X141086000Y-161558072D01*
X141700250Y-161555000D01*
X141859000Y-161396250D01*
X141859000Y-160147000D01*
X142113000Y-160147000D01*
X142113000Y-161396250D01*
X142271750Y-161555000D01*
X142886000Y-161558072D01*
X143010482Y-161545812D01*
X143130180Y-161509502D01*
X143240494Y-161450537D01*
X143337185Y-161371185D01*
X143416537Y-161274494D01*
X143475502Y-161164180D01*
X143511812Y-161044482D01*
X143524072Y-160920000D01*
X146162928Y-160920000D01*
X146175188Y-161044482D01*
X146211498Y-161164180D01*
X146270463Y-161274494D01*
X146349815Y-161371185D01*
X146446506Y-161450537D01*
X146556820Y-161509502D01*
X146676518Y-161545812D01*
X146801000Y-161558072D01*
X147415250Y-161555000D01*
X147574000Y-161396250D01*
X147574000Y-160147000D01*
X146324750Y-160147000D01*
X146166000Y-160305750D01*
X146162928Y-160920000D01*
X143524072Y-160920000D01*
X143521000Y-160305750D01*
X143362250Y-160147000D01*
X142113000Y-160147000D01*
X141859000Y-160147000D01*
X141839000Y-160147000D01*
X141839000Y-159893000D01*
X141859000Y-159893000D01*
X141859000Y-158643750D01*
X142113000Y-158643750D01*
X142113000Y-159893000D01*
X143362250Y-159893000D01*
X143521000Y-159734250D01*
X143524072Y-159120000D01*
X146162928Y-159120000D01*
X146166000Y-159734250D01*
X146324750Y-159893000D01*
X147574000Y-159893000D01*
X147574000Y-158643750D01*
X147828000Y-158643750D01*
X147828000Y-159893000D01*
X147848000Y-159893000D01*
X147848000Y-160147000D01*
X147828000Y-160147000D01*
X147828000Y-161396250D01*
X147986750Y-161555000D01*
X148601000Y-161558072D01*
X148725482Y-161545812D01*
X148845180Y-161509502D01*
X148955494Y-161450537D01*
X149052185Y-161371185D01*
X149131537Y-161274494D01*
X149190502Y-161164180D01*
X149226812Y-161044482D01*
X149239072Y-160920000D01*
X149238945Y-160894606D01*
X149395087Y-161050748D01*
X149612430Y-161195972D01*
X149853928Y-161296004D01*
X150110302Y-161347000D01*
X150371698Y-161347000D01*
X150460229Y-161329390D01*
X165563524Y-161329390D01*
X165608175Y-161476599D01*
X165733359Y-161739420D01*
X165907412Y-161972769D01*
X166123645Y-162167678D01*
X166373748Y-162316657D01*
X166648109Y-162413981D01*
X166878000Y-162293314D01*
X166878000Y-161099500D01*
X167132000Y-161099500D01*
X167132000Y-162293314D01*
X167361891Y-162413981D01*
X167636252Y-162316657D01*
X167886355Y-162167678D01*
X168102588Y-161972769D01*
X168276641Y-161739420D01*
X168401825Y-161476599D01*
X168446476Y-161329390D01*
X168325155Y-161099500D01*
X167132000Y-161099500D01*
X166878000Y-161099500D01*
X165684845Y-161099500D01*
X165563524Y-161329390D01*
X150460229Y-161329390D01*
X150628072Y-161296004D01*
X150869570Y-161195972D01*
X151086913Y-161050748D01*
X151271748Y-160865913D01*
X151416972Y-160648570D01*
X151517004Y-160407072D01*
X151568000Y-160150698D01*
X151568000Y-159889302D01*
X151517004Y-159632928D01*
X151416972Y-159391430D01*
X151271748Y-159174087D01*
X151086913Y-158989252D01*
X150869570Y-158844028D01*
X150737663Y-158789390D01*
X165563524Y-158789390D01*
X165608175Y-158936599D01*
X165733359Y-159199420D01*
X165907412Y-159432769D01*
X166123645Y-159627678D01*
X166249255Y-159702500D01*
X166123645Y-159777322D01*
X165907412Y-159972231D01*
X165733359Y-160205580D01*
X165608175Y-160468401D01*
X165563524Y-160615610D01*
X165684845Y-160845500D01*
X166878000Y-160845500D01*
X166878000Y-158559500D01*
X167132000Y-158559500D01*
X167132000Y-160845500D01*
X168325155Y-160845500D01*
X168446476Y-160615610D01*
X168401825Y-160468401D01*
X168276641Y-160205580D01*
X168102588Y-159972231D01*
X167886355Y-159777322D01*
X167760745Y-159702500D01*
X167886355Y-159627678D01*
X168102588Y-159432769D01*
X168276641Y-159199420D01*
X168401825Y-158936599D01*
X168446476Y-158789390D01*
X168325155Y-158559500D01*
X167132000Y-158559500D01*
X166878000Y-158559500D01*
X165684845Y-158559500D01*
X165563524Y-158789390D01*
X150737663Y-158789390D01*
X150628072Y-158743996D01*
X150371698Y-158693000D01*
X150110302Y-158693000D01*
X149853928Y-158743996D01*
X149612430Y-158844028D01*
X149395087Y-158989252D01*
X149238945Y-159145394D01*
X149239072Y-159120000D01*
X149226812Y-158995518D01*
X149190502Y-158875820D01*
X149131537Y-158765506D01*
X149052185Y-158668815D01*
X148955494Y-158589463D01*
X148845180Y-158530498D01*
X148725482Y-158494188D01*
X148601000Y-158481928D01*
X147986750Y-158485000D01*
X147828000Y-158643750D01*
X147574000Y-158643750D01*
X147415250Y-158485000D01*
X146801000Y-158481928D01*
X146676518Y-158494188D01*
X146556820Y-158530498D01*
X146446506Y-158589463D01*
X146349815Y-158668815D01*
X146270463Y-158765506D01*
X146211498Y-158875820D01*
X146175188Y-158995518D01*
X146162928Y-159120000D01*
X143524072Y-159120000D01*
X143511812Y-158995518D01*
X143475502Y-158875820D01*
X143416537Y-158765506D01*
X143337185Y-158668815D01*
X143240494Y-158589463D01*
X143130180Y-158530498D01*
X143010482Y-158494188D01*
X142886000Y-158481928D01*
X142271750Y-158485000D01*
X142113000Y-158643750D01*
X141859000Y-158643750D01*
X141700250Y-158485000D01*
X141086000Y-158481928D01*
X140961518Y-158494188D01*
X140841820Y-158530498D01*
X140731506Y-158589463D01*
X140634815Y-158668815D01*
X140555463Y-158765506D01*
X140496498Y-158875820D01*
X140460188Y-158995518D01*
X140447928Y-159120000D01*
X140448055Y-159145394D01*
X140291913Y-158989252D01*
X140074570Y-158844028D01*
X139833072Y-158743996D01*
X139576698Y-158693000D01*
X139315302Y-158693000D01*
X139058928Y-158743996D01*
X138817430Y-158844028D01*
X138600087Y-158989252D01*
X138415252Y-159174087D01*
X138270028Y-159391430D01*
X138169996Y-159632928D01*
X138119000Y-159889302D01*
X123325620Y-159889302D01*
X125375422Y-157839500D01*
X153509755Y-157839500D01*
X153543000Y-157842774D01*
X153576245Y-157839500D01*
X153576252Y-157839500D01*
X153675715Y-157829704D01*
X153803330Y-157790992D01*
X153920941Y-157728128D01*
X154024027Y-157643527D01*
X154045226Y-157617696D01*
X155093422Y-156569500D01*
X165918889Y-156569500D01*
X165938076Y-156605396D01*
X166097656Y-156799844D01*
X166292104Y-156959424D01*
X166469650Y-157054324D01*
X166373748Y-157088343D01*
X166123645Y-157237322D01*
X165907412Y-157432231D01*
X165733359Y-157665580D01*
X165608175Y-157928401D01*
X165563524Y-158075610D01*
X165684845Y-158305500D01*
X166878000Y-158305500D01*
X166878000Y-158285500D01*
X167132000Y-158285500D01*
X167132000Y-158305500D01*
X168325155Y-158305500D01*
X168446476Y-158075610D01*
X168401825Y-157928401D01*
X168276641Y-157665580D01*
X168102588Y-157432231D01*
X167886355Y-157237322D01*
X167636252Y-157088343D01*
X167540350Y-157054324D01*
X167717896Y-156959424D01*
X167912344Y-156799844D01*
X168071924Y-156605396D01*
X168190502Y-156383551D01*
X168263522Y-156142836D01*
X168288178Y-155892500D01*
X168263522Y-155642164D01*
X168190502Y-155401449D01*
X168071924Y-155179604D01*
X167912344Y-154985156D01*
X167717896Y-154825576D01*
X167682000Y-154806389D01*
X167682000Y-154631566D01*
X167855000Y-154631566D01*
X167938707Y-154623322D01*
X168019196Y-154598905D01*
X168093376Y-154559255D01*
X168158395Y-154505895D01*
X168211755Y-154440876D01*
X168251405Y-154366696D01*
X168275822Y-154286207D01*
X168284066Y-154202500D01*
X168284066Y-152502500D01*
X168275822Y-152418793D01*
X168251405Y-152338304D01*
X168211755Y-152264124D01*
X168158395Y-152199105D01*
X168093376Y-152145745D01*
X168019196Y-152106095D01*
X167938707Y-152081678D01*
X167855000Y-152073434D01*
X167682000Y-152073434D01*
X167682000Y-140368241D01*
X167685274Y-140334999D01*
X167682000Y-140301757D01*
X167682000Y-140301748D01*
X167672204Y-140202285D01*
X167633492Y-140074670D01*
X167570628Y-139957059D01*
X167514558Y-139888739D01*
X167507223Y-139879801D01*
X167507222Y-139879800D01*
X167486026Y-139853973D01*
X167460200Y-139832778D01*
X166237226Y-138609804D01*
X166216027Y-138583973D01*
X166112941Y-138499372D01*
X165995330Y-138436508D01*
X165867715Y-138397796D01*
X165768252Y-138388000D01*
X165768245Y-138388000D01*
X165735000Y-138384726D01*
X165701755Y-138388000D01*
X130616321Y-138388000D01*
X130583536Y-138394521D01*
X130550285Y-138397796D01*
X130518315Y-138407494D01*
X130485526Y-138414016D01*
X130454636Y-138426811D01*
X130422670Y-138436508D01*
X130393208Y-138452256D01*
X130362320Y-138465050D01*
X130334524Y-138483623D01*
X130305059Y-138499372D01*
X130279231Y-138520568D01*
X130251437Y-138539140D01*
X130227801Y-138562776D01*
X130201973Y-138583973D01*
X130180778Y-138609799D01*
X130157140Y-138633437D01*
X130138568Y-138661231D01*
X130117372Y-138687059D01*
X130101623Y-138716524D01*
X130083050Y-138744320D01*
X130070256Y-138775208D01*
X130054508Y-138804670D01*
X130044811Y-138836636D01*
X130032016Y-138867526D01*
X130025494Y-138900315D01*
X130015796Y-138932285D01*
X130012521Y-138965536D01*
X130006000Y-138998321D01*
X130006000Y-139031748D01*
X130002725Y-139065000D01*
X130006000Y-139098252D01*
X130006000Y-139131679D01*
X130012521Y-139164464D01*
X130015796Y-139197715D01*
X130025494Y-139229685D01*
X130032016Y-139262474D01*
X130044811Y-139293364D01*
X130054508Y-139325330D01*
X130070256Y-139354792D01*
X130083050Y-139385680D01*
X130101623Y-139413476D01*
X130117372Y-139442941D01*
X130138568Y-139468769D01*
X130157140Y-139496563D01*
X130180778Y-139520201D01*
X130201973Y-139546027D01*
X130227799Y-139567222D01*
X130251437Y-139590860D01*
X130279231Y-139609432D01*
X130305059Y-139630628D01*
X130334524Y-139646377D01*
X130362320Y-139664950D01*
X130393208Y-139677744D01*
X130422670Y-139693492D01*
X130454636Y-139703189D01*
X130485526Y-139715984D01*
X130518315Y-139722506D01*
X130550285Y-139732204D01*
X130583536Y-139735479D01*
X130616321Y-139742000D01*
X165454578Y-139742000D01*
X166328000Y-140615422D01*
X166328001Y-152073434D01*
X166155000Y-152073434D01*
X166071293Y-152081678D01*
X165990804Y-152106095D01*
X165916624Y-152145745D01*
X165851605Y-152199105D01*
X165798245Y-152264124D01*
X165758595Y-152338304D01*
X165734178Y-152418793D01*
X165725934Y-152502500D01*
X165725934Y-154202500D01*
X165734178Y-154286207D01*
X165758595Y-154366696D01*
X165798245Y-154440876D01*
X165851605Y-154505895D01*
X165916624Y-154559255D01*
X165990804Y-154598905D01*
X166071293Y-154623322D01*
X166155000Y-154631566D01*
X166328000Y-154631566D01*
X166328000Y-154806389D01*
X166292104Y-154825576D01*
X166097656Y-154985156D01*
X165938076Y-155179604D01*
X165918889Y-155215500D01*
X154846241Y-155215500D01*
X154812999Y-155212226D01*
X154779757Y-155215500D01*
X154779748Y-155215500D01*
X154680285Y-155225296D01*
X154552670Y-155264008D01*
X154435059Y-155326872D01*
X154331973Y-155411473D01*
X154310774Y-155437304D01*
X153262578Y-156485500D01*
X125481502Y-156485500D01*
X127792700Y-154174302D01*
X138119000Y-154174302D01*
X138119000Y-154435698D01*
X138169996Y-154692072D01*
X138270028Y-154933570D01*
X138415252Y-155150913D01*
X138600087Y-155335748D01*
X138817430Y-155480972D01*
X139058928Y-155581004D01*
X139315302Y-155632000D01*
X139576698Y-155632000D01*
X139833072Y-155581004D01*
X140074570Y-155480972D01*
X140291913Y-155335748D01*
X140448055Y-155179606D01*
X140447928Y-155205000D01*
X140460188Y-155329482D01*
X140496498Y-155449180D01*
X140555463Y-155559494D01*
X140634815Y-155656185D01*
X140731506Y-155735537D01*
X140841820Y-155794502D01*
X140961518Y-155830812D01*
X141086000Y-155843072D01*
X141700250Y-155840000D01*
X141859000Y-155681250D01*
X141859000Y-154432000D01*
X142113000Y-154432000D01*
X142113000Y-155681250D01*
X142271750Y-155840000D01*
X142886000Y-155843072D01*
X143010482Y-155830812D01*
X143130180Y-155794502D01*
X143240494Y-155735537D01*
X143337185Y-155656185D01*
X143416537Y-155559494D01*
X143475502Y-155449180D01*
X143511812Y-155329482D01*
X143524072Y-155205000D01*
X146162928Y-155205000D01*
X146175188Y-155329482D01*
X146211498Y-155449180D01*
X146270463Y-155559494D01*
X146349815Y-155656185D01*
X146446506Y-155735537D01*
X146556820Y-155794502D01*
X146676518Y-155830812D01*
X146801000Y-155843072D01*
X147415250Y-155840000D01*
X147574000Y-155681250D01*
X147574000Y-154432000D01*
X146324750Y-154432000D01*
X146166000Y-154590750D01*
X146162928Y-155205000D01*
X143524072Y-155205000D01*
X143521000Y-154590750D01*
X143362250Y-154432000D01*
X142113000Y-154432000D01*
X141859000Y-154432000D01*
X141839000Y-154432000D01*
X141839000Y-154178000D01*
X141859000Y-154178000D01*
X141859000Y-152928750D01*
X142113000Y-152928750D01*
X142113000Y-154178000D01*
X143362250Y-154178000D01*
X143521000Y-154019250D01*
X143524072Y-153405000D01*
X146162928Y-153405000D01*
X146166000Y-154019250D01*
X146324750Y-154178000D01*
X147574000Y-154178000D01*
X147574000Y-152928750D01*
X147828000Y-152928750D01*
X147828000Y-154178000D01*
X147848000Y-154178000D01*
X147848000Y-154432000D01*
X147828000Y-154432000D01*
X147828000Y-155681250D01*
X147986750Y-155840000D01*
X148601000Y-155843072D01*
X148725482Y-155830812D01*
X148845180Y-155794502D01*
X148955494Y-155735537D01*
X149052185Y-155656185D01*
X149131537Y-155559494D01*
X149190502Y-155449180D01*
X149226812Y-155329482D01*
X149239072Y-155205000D01*
X149238945Y-155179606D01*
X149395087Y-155335748D01*
X149612430Y-155480972D01*
X149853928Y-155581004D01*
X150110302Y-155632000D01*
X150371698Y-155632000D01*
X150628072Y-155581004D01*
X150869570Y-155480972D01*
X151086913Y-155335748D01*
X151271748Y-155150913D01*
X151416972Y-154933570D01*
X151517004Y-154692072D01*
X151568000Y-154435698D01*
X151568000Y-154174302D01*
X151517004Y-153917928D01*
X151416972Y-153676430D01*
X151271748Y-153459087D01*
X151086913Y-153274252D01*
X150869570Y-153129028D01*
X150628072Y-153028996D01*
X150371698Y-152978000D01*
X150110302Y-152978000D01*
X149853928Y-153028996D01*
X149612430Y-153129028D01*
X149395087Y-153274252D01*
X149238945Y-153430394D01*
X149239072Y-153405000D01*
X149226812Y-153280518D01*
X149190502Y-153160820D01*
X149131537Y-153050506D01*
X149052185Y-152953815D01*
X148955494Y-152874463D01*
X148845180Y-152815498D01*
X148725482Y-152779188D01*
X148601000Y-152766928D01*
X147986750Y-152770000D01*
X147828000Y-152928750D01*
X147574000Y-152928750D01*
X147415250Y-152770000D01*
X146801000Y-152766928D01*
X146676518Y-152779188D01*
X146556820Y-152815498D01*
X146446506Y-152874463D01*
X146349815Y-152953815D01*
X146270463Y-153050506D01*
X146211498Y-153160820D01*
X146175188Y-153280518D01*
X146162928Y-153405000D01*
X143524072Y-153405000D01*
X143511812Y-153280518D01*
X143475502Y-153160820D01*
X143416537Y-153050506D01*
X143337185Y-152953815D01*
X143240494Y-152874463D01*
X143130180Y-152815498D01*
X143010482Y-152779188D01*
X142886000Y-152766928D01*
X142271750Y-152770000D01*
X142113000Y-152928750D01*
X141859000Y-152928750D01*
X141700250Y-152770000D01*
X141086000Y-152766928D01*
X140961518Y-152779188D01*
X140841820Y-152815498D01*
X140731506Y-152874463D01*
X140634815Y-152953815D01*
X140555463Y-153050506D01*
X140496498Y-153160820D01*
X140460188Y-153280518D01*
X140447928Y-153405000D01*
X140448055Y-153430394D01*
X140291913Y-153274252D01*
X140074570Y-153129028D01*
X139833072Y-153028996D01*
X139576698Y-152978000D01*
X139315302Y-152978000D01*
X139058928Y-153028996D01*
X138817430Y-153129028D01*
X138600087Y-153274252D01*
X138415252Y-153459087D01*
X138270028Y-153676430D01*
X138169996Y-153917928D01*
X138119000Y-154174302D01*
X127792700Y-154174302D01*
X130100002Y-151867000D01*
X155415973Y-151867000D01*
X155450320Y-151889950D01*
X155573526Y-151940984D01*
X155704321Y-151967000D01*
X155837679Y-151967000D01*
X155968474Y-151940984D01*
X156091680Y-151889950D01*
X156202563Y-151815860D01*
X156296860Y-151721563D01*
X156370950Y-151610680D01*
X156421984Y-151487474D01*
X156448000Y-151356679D01*
X156448000Y-151223321D01*
X156421984Y-151092526D01*
X156370950Y-150969320D01*
X156296860Y-150858437D01*
X156202563Y-150764140D01*
X156091680Y-150690050D01*
X155968474Y-150639016D01*
X155837679Y-150613000D01*
X155704321Y-150613000D01*
X155573526Y-150639016D01*
X155450320Y-150690050D01*
X155415973Y-150713000D01*
X129889328Y-150713000D01*
X129860999Y-150710210D01*
X129832670Y-150713000D01*
X129832664Y-150713000D01*
X129747888Y-150721350D01*
X129639124Y-150754343D01*
X129538885Y-150807921D01*
X129492980Y-150845595D01*
X129473035Y-150861963D01*
X129473033Y-150861965D01*
X129451026Y-150880026D01*
X129432965Y-150902033D01*
X124828000Y-155506998D01*
X124828000Y-154675027D01*
X124850950Y-154640680D01*
X124901984Y-154517474D01*
X124928000Y-154386679D01*
X124928000Y-154253321D01*
X124901984Y-154122526D01*
X124850950Y-153999320D01*
X124776860Y-153888437D01*
X124682563Y-153794140D01*
X124571680Y-153720050D01*
X124448474Y-153669016D01*
X124317679Y-153643000D01*
X124184321Y-153643000D01*
X124053526Y-153669016D01*
X123930320Y-153720050D01*
X123819437Y-153794140D01*
X123725140Y-153888437D01*
X123651050Y-153999320D01*
X123600016Y-154122526D01*
X123574000Y-154253321D01*
X123574000Y-154386679D01*
X123600016Y-154517474D01*
X123651050Y-154640680D01*
X123674001Y-154675028D01*
X123674000Y-155760999D01*
X114621999Y-164813000D01*
X95759339Y-164813000D01*
X95731000Y-164810209D01*
X95617888Y-164821349D01*
X95509123Y-164854343D01*
X95483228Y-164868184D01*
X95408885Y-164907921D01*
X95321026Y-164980026D01*
X95302963Y-165002036D01*
X93241999Y-167063000D01*
X91596027Y-167063000D01*
X91561680Y-167040050D01*
X91438474Y-166989016D01*
X91307679Y-166963000D01*
X91174321Y-166963000D01*
X91043526Y-166989016D01*
X90920320Y-167040050D01*
X90809437Y-167114140D01*
X90715140Y-167208437D01*
X90641050Y-167319320D01*
X90590016Y-167442526D01*
X90564000Y-167573321D01*
X90564000Y-167706679D01*
X90590016Y-167837474D01*
X90641050Y-167960680D01*
X90715140Y-168071563D01*
X90809437Y-168165860D01*
X90920320Y-168239950D01*
X91004938Y-168275000D01*
X90920320Y-168310050D01*
X90809437Y-168384140D01*
X90715140Y-168478437D01*
X90641050Y-168589320D01*
X90590016Y-168712526D01*
X90564000Y-168843321D01*
X90564000Y-168976679D01*
X90590016Y-169107474D01*
X90641050Y-169230680D01*
X90715140Y-169341563D01*
X90809437Y-169435860D01*
X90909919Y-169503000D01*
X87055321Y-169503000D01*
X87022536Y-169509521D01*
X86989285Y-169512796D01*
X86957315Y-169522494D01*
X86924526Y-169529016D01*
X86893636Y-169541811D01*
X86861670Y-169551508D01*
X86832208Y-169567256D01*
X86808000Y-169577283D01*
X86808000Y-165448328D01*
X86810790Y-165419999D01*
X86808000Y-165391670D01*
X86808000Y-165391664D01*
X86799650Y-165306888D01*
X86766657Y-165198124D01*
X86713079Y-165097885D01*
X86640974Y-165010026D01*
X86618968Y-164991966D01*
X86134001Y-164507000D01*
X87188679Y-164507000D01*
X87221464Y-164500479D01*
X87254715Y-164497204D01*
X87286685Y-164487506D01*
X87319474Y-164480984D01*
X87350364Y-164468189D01*
X87382330Y-164458492D01*
X87411792Y-164442744D01*
X87442680Y-164429950D01*
X87470476Y-164411377D01*
X87499941Y-164395628D01*
X87525769Y-164374432D01*
X87553563Y-164355860D01*
X87577201Y-164332222D01*
X87603027Y-164311027D01*
X87624222Y-164285201D01*
X87647860Y-164261563D01*
X87666432Y-164233769D01*
X87687628Y-164207941D01*
X87703377Y-164178476D01*
X87721950Y-164150680D01*
X87734744Y-164119792D01*
X87750492Y-164090330D01*
X87760189Y-164058364D01*
X87772984Y-164027474D01*
X87779506Y-163994685D01*
X87789204Y-163962715D01*
X87792479Y-163929464D01*
X87799000Y-163896679D01*
X87799000Y-163863252D01*
X87802275Y-163830000D01*
X87799000Y-163796748D01*
X87799000Y-163763321D01*
X87792479Y-163730536D01*
X87789204Y-163697285D01*
X87779506Y-163665315D01*
X87772984Y-163632526D01*
X87760189Y-163601636D01*
X87750492Y-163569670D01*
X87734744Y-163540208D01*
X87721950Y-163509320D01*
X87703377Y-163481524D01*
X87687628Y-163452059D01*
X87666432Y-163426231D01*
X87647860Y-163398437D01*
X87624222Y-163374799D01*
X87603027Y-163348973D01*
X87577201Y-163327778D01*
X87553563Y-163304140D01*
X87525769Y-163285568D01*
X87499941Y-163264372D01*
X87470476Y-163248623D01*
X87442680Y-163230050D01*
X87411792Y-163217256D01*
X87382330Y-163201508D01*
X87350364Y-163191811D01*
X87319474Y-163179016D01*
X87286685Y-163172494D01*
X87254715Y-163162796D01*
X87221464Y-163159521D01*
X87188679Y-163153000D01*
X85150321Y-163153000D01*
X85117536Y-163159521D01*
X85084285Y-163162796D01*
X85052315Y-163172494D01*
X85019526Y-163179016D01*
X84988636Y-163191811D01*
X84956670Y-163201508D01*
X84927208Y-163217256D01*
X84896320Y-163230050D01*
X84868524Y-163248623D01*
X84839059Y-163264372D01*
X84813231Y-163285568D01*
X84785437Y-163304140D01*
X84761799Y-163327778D01*
X84735973Y-163348973D01*
X84714778Y-163374799D01*
X84691140Y-163398437D01*
X84672568Y-163426231D01*
X84651372Y-163452059D01*
X84635623Y-163481524D01*
X84617050Y-163509320D01*
X84604256Y-163540208D01*
X84588508Y-163569670D01*
X84578811Y-163601636D01*
X84566016Y-163632526D01*
X84559494Y-163665315D01*
X84549796Y-163697285D01*
X84546521Y-163730536D01*
X84540000Y-163763321D01*
X84540000Y-163796748D01*
X84536725Y-163830000D01*
X84540000Y-163863252D01*
X84540000Y-163896679D01*
X84546521Y-163929464D01*
X84549796Y-163962715D01*
X84559494Y-163994685D01*
X84566016Y-164027474D01*
X84578811Y-164058364D01*
X84588508Y-164090330D01*
X84604256Y-164119792D01*
X84617050Y-164150680D01*
X84625282Y-164163000D01*
X84586027Y-164163000D01*
X84551680Y-164140050D01*
X84428474Y-164089016D01*
X84297679Y-164063000D01*
X84164321Y-164063000D01*
X84033526Y-164089016D01*
X83910320Y-164140050D01*
X83799437Y-164214140D01*
X83705140Y-164308437D01*
X83631050Y-164419320D01*
X83580016Y-164542526D01*
X83554000Y-164673321D01*
X83554000Y-164806679D01*
X83580016Y-164937474D01*
X83631050Y-165060680D01*
X83705140Y-165171563D01*
X83799437Y-165265860D01*
X83910320Y-165339950D01*
X84033526Y-165390984D01*
X84164321Y-165417000D01*
X84297679Y-165417000D01*
X84428474Y-165390984D01*
X84551680Y-165339950D01*
X84586027Y-165317000D01*
X85311999Y-165317000D01*
X85654000Y-165659002D01*
X85654001Y-175101655D01*
X85654000Y-175101665D01*
X85654000Y-175691669D01*
X85651210Y-175720000D01*
X85662349Y-175833111D01*
X85675042Y-175874953D01*
X85695343Y-175941876D01*
X85748922Y-176042115D01*
X85779840Y-176079788D01*
X85802963Y-176107964D01*
X85802966Y-176107967D01*
X85821027Y-176129974D01*
X85843033Y-176148034D01*
X86402965Y-176707967D01*
X86407096Y-176713000D01*
X77492108Y-176713000D01*
X76941517Y-176659014D01*
X76433172Y-176505536D01*
X75964315Y-176256240D01*
X75552807Y-175920622D01*
X75214330Y-175511473D01*
X74961764Y-175044363D01*
X74804741Y-174537100D01*
X74747000Y-173987743D01*
X74747000Y-172402393D01*
X74778921Y-172462114D01*
X74851026Y-172549974D01*
X74873038Y-172568039D01*
X75191957Y-172886959D01*
X75200016Y-172927474D01*
X75251050Y-173050680D01*
X75325140Y-173161563D01*
X75419437Y-173255860D01*
X75530320Y-173329950D01*
X75653526Y-173380984D01*
X75784321Y-173407000D01*
X75917679Y-173407000D01*
X76048474Y-173380984D01*
X76171680Y-173329950D01*
X76282563Y-173255860D01*
X76376860Y-173161563D01*
X76450950Y-173050680D01*
X76501984Y-172927474D01*
X76528000Y-172796679D01*
X76528000Y-172663321D01*
X76501984Y-172532526D01*
X76450950Y-172409320D01*
X76376860Y-172298437D01*
X76282563Y-172204140D01*
X76171680Y-172130050D01*
X76048474Y-172079016D01*
X76007959Y-172070957D01*
X75838000Y-171900999D01*
X75838000Y-163333437D01*
X75953645Y-163437678D01*
X76203748Y-163586657D01*
X76478109Y-163683981D01*
X76708000Y-163563314D01*
X76708000Y-162369500D01*
X76688000Y-162369500D01*
X76688000Y-162115500D01*
X76708000Y-162115500D01*
X76708000Y-162095500D01*
X76962000Y-162095500D01*
X76962000Y-162115500D01*
X76982000Y-162115500D01*
X76982000Y-162369500D01*
X76962000Y-162369500D01*
X76962000Y-163563314D01*
X77191891Y-163683981D01*
X77466252Y-163586657D01*
X77716355Y-163437678D01*
X77932588Y-163242769D01*
X78106641Y-163009420D01*
X78215166Y-162781573D01*
X78308076Y-162955396D01*
X78467656Y-163149844D01*
X78662104Y-163309424D01*
X78883949Y-163428002D01*
X79124664Y-163501022D01*
X79312274Y-163519500D01*
X79437726Y-163519500D01*
X79625336Y-163501022D01*
X79866051Y-163428002D01*
X80087896Y-163309424D01*
X80282344Y-163149844D01*
X80352546Y-163064302D01*
X99384000Y-163064302D01*
X99384000Y-163325698D01*
X99434996Y-163582072D01*
X99535028Y-163823570D01*
X99680252Y-164040913D01*
X99865087Y-164225748D01*
X100082430Y-164370972D01*
X100323928Y-164471004D01*
X100580302Y-164522000D01*
X100841698Y-164522000D01*
X101098072Y-164471004D01*
X101339570Y-164370972D01*
X101556913Y-164225748D01*
X101713055Y-164069606D01*
X101712928Y-164095000D01*
X101725188Y-164219482D01*
X101761498Y-164339180D01*
X101820463Y-164449494D01*
X101899815Y-164546185D01*
X101996506Y-164625537D01*
X102106820Y-164684502D01*
X102226518Y-164720812D01*
X102351000Y-164733072D01*
X102965250Y-164730000D01*
X103124000Y-164571250D01*
X103124000Y-163322000D01*
X103378000Y-163322000D01*
X103378000Y-164571250D01*
X103536750Y-164730000D01*
X104151000Y-164733072D01*
X104275482Y-164720812D01*
X104395180Y-164684502D01*
X104505494Y-164625537D01*
X104602185Y-164546185D01*
X104681537Y-164449494D01*
X104740502Y-164339180D01*
X104776812Y-164219482D01*
X104789072Y-164095000D01*
X104786000Y-163480750D01*
X104627250Y-163322000D01*
X103378000Y-163322000D01*
X103124000Y-163322000D01*
X103104000Y-163322000D01*
X103104000Y-163068000D01*
X103124000Y-163068000D01*
X103124000Y-161818750D01*
X103378000Y-161818750D01*
X103378000Y-163068000D01*
X104627250Y-163068000D01*
X104786000Y-162909250D01*
X104789072Y-162295000D01*
X104776812Y-162170518D01*
X104740502Y-162050820D01*
X104681537Y-161940506D01*
X104602185Y-161843815D01*
X104505494Y-161764463D01*
X104395180Y-161705498D01*
X104275482Y-161669188D01*
X104151000Y-161656928D01*
X103536750Y-161660000D01*
X103378000Y-161818750D01*
X103124000Y-161818750D01*
X102965250Y-161660000D01*
X102351000Y-161656928D01*
X102226518Y-161669188D01*
X102106820Y-161705498D01*
X101996506Y-161764463D01*
X101899815Y-161843815D01*
X101820463Y-161940506D01*
X101761498Y-162050820D01*
X101725188Y-162170518D01*
X101712928Y-162295000D01*
X101713055Y-162320394D01*
X101556913Y-162164252D01*
X101339570Y-162019028D01*
X101098072Y-161918996D01*
X100841698Y-161868000D01*
X100580302Y-161868000D01*
X100323928Y-161918996D01*
X100082430Y-162019028D01*
X99865087Y-162164252D01*
X99680252Y-162349087D01*
X99535028Y-162566430D01*
X99434996Y-162807928D01*
X99384000Y-163064302D01*
X80352546Y-163064302D01*
X80441924Y-162955396D01*
X80514562Y-162819500D01*
X81357216Y-162819500D01*
X81382526Y-162829984D01*
X81513321Y-162856000D01*
X81646679Y-162856000D01*
X81777474Y-162829984D01*
X81900680Y-162778950D01*
X81935027Y-162756000D01*
X90173669Y-162756000D01*
X90202000Y-162758790D01*
X90230331Y-162756000D01*
X90230336Y-162756000D01*
X90260045Y-162753074D01*
X90315111Y-162747651D01*
X90361590Y-162733551D01*
X90423876Y-162714657D01*
X90524115Y-162661079D01*
X90611974Y-162588974D01*
X90630039Y-162566962D01*
X91860002Y-161337000D01*
X111895973Y-161337000D01*
X111930320Y-161359950D01*
X112053526Y-161410984D01*
X112184321Y-161437000D01*
X112317679Y-161437000D01*
X112448474Y-161410984D01*
X112571680Y-161359950D01*
X112682563Y-161285860D01*
X112776860Y-161191563D01*
X112850950Y-161080680D01*
X112901984Y-160957474D01*
X112928000Y-160826679D01*
X112928000Y-160693321D01*
X112901984Y-160562526D01*
X112850950Y-160439320D01*
X112776860Y-160328437D01*
X112682563Y-160234140D01*
X112571680Y-160160050D01*
X112448474Y-160109016D01*
X112317679Y-160083000D01*
X112184321Y-160083000D01*
X112053526Y-160109016D01*
X111930320Y-160160050D01*
X111895973Y-160183000D01*
X111839263Y-160183000D01*
X111900950Y-160090680D01*
X111951984Y-159967474D01*
X111978000Y-159836679D01*
X111978000Y-159703321D01*
X111951984Y-159572526D01*
X111900950Y-159449320D01*
X111826860Y-159338437D01*
X111732563Y-159244140D01*
X111621680Y-159170050D01*
X111498474Y-159119016D01*
X111367679Y-159093000D01*
X111234321Y-159093000D01*
X111103526Y-159119016D01*
X110980320Y-159170050D01*
X110945973Y-159193000D01*
X91719339Y-159193000D01*
X91691000Y-159190209D01*
X91577888Y-159201349D01*
X91469123Y-159234343D01*
X91450795Y-159244140D01*
X91368885Y-159287921D01*
X91281026Y-159360026D01*
X91262961Y-159382038D01*
X89711999Y-160933000D01*
X83290001Y-160933000D01*
X81608039Y-159251038D01*
X81589974Y-159229026D01*
X81502115Y-159156921D01*
X81401876Y-159103343D01*
X81337770Y-159083897D01*
X81293111Y-159070349D01*
X81238045Y-159064926D01*
X81208336Y-159062000D01*
X81208331Y-159062000D01*
X81180000Y-159059210D01*
X81151669Y-159062000D01*
X80480620Y-159062000D01*
X80441924Y-158989604D01*
X80282344Y-158795156D01*
X80087896Y-158635576D01*
X79866051Y-158516998D01*
X79625336Y-158443978D01*
X79508798Y-158432500D01*
X79625336Y-158421022D01*
X79866051Y-158348002D01*
X80087896Y-158229424D01*
X80282344Y-158069844D01*
X80441924Y-157875396D01*
X80560502Y-157653551D01*
X80633522Y-157412836D01*
X80639779Y-157349302D01*
X86303000Y-157349302D01*
X86303000Y-157610698D01*
X86353996Y-157867072D01*
X86454028Y-158108570D01*
X86599252Y-158325913D01*
X86784087Y-158510748D01*
X87001430Y-158655972D01*
X87242928Y-158756004D01*
X87499302Y-158807000D01*
X87760698Y-158807000D01*
X88017072Y-158756004D01*
X88258570Y-158655972D01*
X88475913Y-158510748D01*
X88632055Y-158354606D01*
X88631928Y-158380000D01*
X88644188Y-158504482D01*
X88680498Y-158624180D01*
X88739463Y-158734494D01*
X88818815Y-158831185D01*
X88915506Y-158910537D01*
X89025820Y-158969502D01*
X89145518Y-159005812D01*
X89270000Y-159018072D01*
X89884250Y-159015000D01*
X90043000Y-158856250D01*
X90043000Y-157607000D01*
X90297000Y-157607000D01*
X90297000Y-158856250D01*
X90455750Y-159015000D01*
X91070000Y-159018072D01*
X91194482Y-159005812D01*
X91314180Y-158969502D01*
X91424494Y-158910537D01*
X91521185Y-158831185D01*
X91600537Y-158734494D01*
X91659502Y-158624180D01*
X91695812Y-158504482D01*
X91708072Y-158380000D01*
X91705000Y-157765750D01*
X91546250Y-157607000D01*
X90297000Y-157607000D01*
X90043000Y-157607000D01*
X90023000Y-157607000D01*
X90023000Y-157353000D01*
X90043000Y-157353000D01*
X90043000Y-156103750D01*
X90297000Y-156103750D01*
X90297000Y-157353000D01*
X91546250Y-157353000D01*
X91549948Y-157349302D01*
X99384000Y-157349302D01*
X99384000Y-157610698D01*
X99434996Y-157867072D01*
X99535028Y-158108570D01*
X99680252Y-158325913D01*
X99865087Y-158510748D01*
X100082430Y-158655972D01*
X100323928Y-158756004D01*
X100580302Y-158807000D01*
X100841698Y-158807000D01*
X101098072Y-158756004D01*
X101339570Y-158655972D01*
X101556913Y-158510748D01*
X101713055Y-158354606D01*
X101712928Y-158380000D01*
X101725188Y-158504482D01*
X101761498Y-158624180D01*
X101820463Y-158734494D01*
X101899815Y-158831185D01*
X101996506Y-158910537D01*
X102106820Y-158969502D01*
X102226518Y-159005812D01*
X102351000Y-159018072D01*
X102965250Y-159015000D01*
X103124000Y-158856250D01*
X103124000Y-157607000D01*
X103378000Y-157607000D01*
X103378000Y-158856250D01*
X103536750Y-159015000D01*
X104151000Y-159018072D01*
X104275482Y-159005812D01*
X104395180Y-158969502D01*
X104505494Y-158910537D01*
X104602185Y-158831185D01*
X104681537Y-158734494D01*
X104740502Y-158624180D01*
X104776812Y-158504482D01*
X104789072Y-158380000D01*
X104786000Y-157765750D01*
X104627250Y-157607000D01*
X103378000Y-157607000D01*
X103124000Y-157607000D01*
X103104000Y-157607000D01*
X103104000Y-157353000D01*
X103124000Y-157353000D01*
X103124000Y-156103750D01*
X103378000Y-156103750D01*
X103378000Y-157353000D01*
X104627250Y-157353000D01*
X104786000Y-157194250D01*
X104789072Y-156580000D01*
X104776812Y-156455518D01*
X104740502Y-156335820D01*
X104681537Y-156225506D01*
X104602185Y-156128815D01*
X104505494Y-156049463D01*
X104395180Y-155990498D01*
X104275482Y-155954188D01*
X104151000Y-155941928D01*
X103536750Y-155945000D01*
X103378000Y-156103750D01*
X103124000Y-156103750D01*
X102965250Y-155945000D01*
X102351000Y-155941928D01*
X102226518Y-155954188D01*
X102106820Y-155990498D01*
X101996506Y-156049463D01*
X101899815Y-156128815D01*
X101820463Y-156225506D01*
X101761498Y-156335820D01*
X101725188Y-156455518D01*
X101712928Y-156580000D01*
X101713055Y-156605394D01*
X101556913Y-156449252D01*
X101339570Y-156304028D01*
X101098072Y-156203996D01*
X100841698Y-156153000D01*
X100580302Y-156153000D01*
X100323928Y-156203996D01*
X100082430Y-156304028D01*
X99865087Y-156449252D01*
X99680252Y-156634087D01*
X99535028Y-156851430D01*
X99434996Y-157092928D01*
X99384000Y-157349302D01*
X91549948Y-157349302D01*
X91705000Y-157194250D01*
X91708072Y-156580000D01*
X91695812Y-156455518D01*
X91659502Y-156335820D01*
X91600537Y-156225506D01*
X91521185Y-156128815D01*
X91424494Y-156049463D01*
X91314180Y-155990498D01*
X91194482Y-155954188D01*
X91070000Y-155941928D01*
X90455750Y-155945000D01*
X90297000Y-156103750D01*
X90043000Y-156103750D01*
X89884250Y-155945000D01*
X89270000Y-155941928D01*
X89145518Y-155954188D01*
X89025820Y-155990498D01*
X88915506Y-156049463D01*
X88818815Y-156128815D01*
X88739463Y-156225506D01*
X88680498Y-156335820D01*
X88644188Y-156455518D01*
X88631928Y-156580000D01*
X88632055Y-156605394D01*
X88475913Y-156449252D01*
X88258570Y-156304028D01*
X88017072Y-156203996D01*
X87760698Y-156153000D01*
X87499302Y-156153000D01*
X87242928Y-156203996D01*
X87001430Y-156304028D01*
X86784087Y-156449252D01*
X86599252Y-156634087D01*
X86454028Y-156851430D01*
X86353996Y-157092928D01*
X86303000Y-157349302D01*
X80639779Y-157349302D01*
X80658178Y-157162500D01*
X80633522Y-156912164D01*
X80560502Y-156671449D01*
X80441924Y-156449604D01*
X80282344Y-156255156D01*
X80087896Y-156095576D01*
X79866051Y-155976998D01*
X79625336Y-155903978D01*
X79508798Y-155892500D01*
X79625336Y-155881022D01*
X79866051Y-155808002D01*
X80087896Y-155689424D01*
X80282344Y-155529844D01*
X80441924Y-155335396D01*
X80560502Y-155113551D01*
X80633522Y-154872836D01*
X80658178Y-154622500D01*
X80633522Y-154372164D01*
X80560502Y-154131449D01*
X80441924Y-153909604D01*
X80282344Y-153715156D01*
X80087896Y-153555576D01*
X79866051Y-153436998D01*
X79625336Y-153363978D01*
X79600847Y-153361566D01*
X80225000Y-153361566D01*
X80308707Y-153353322D01*
X80389196Y-153328905D01*
X80463376Y-153289255D01*
X80528395Y-153235895D01*
X80581755Y-153170876D01*
X80621405Y-153096696D01*
X80645822Y-153016207D01*
X80654066Y-152932500D01*
X80654066Y-151634302D01*
X86303000Y-151634302D01*
X86303000Y-151895698D01*
X86353996Y-152152072D01*
X86454028Y-152393570D01*
X86599252Y-152610913D01*
X86784087Y-152795748D01*
X87001430Y-152940972D01*
X87242928Y-153041004D01*
X87499302Y-153092000D01*
X87760698Y-153092000D01*
X88017072Y-153041004D01*
X88258570Y-152940972D01*
X88475913Y-152795748D01*
X88632055Y-152639606D01*
X88631928Y-152665000D01*
X88644188Y-152789482D01*
X88680498Y-152909180D01*
X88739463Y-153019494D01*
X88818815Y-153116185D01*
X88915506Y-153195537D01*
X89025820Y-153254502D01*
X89145518Y-153290812D01*
X89270000Y-153303072D01*
X89884250Y-153300000D01*
X90043000Y-153141250D01*
X90043000Y-151892000D01*
X90297000Y-151892000D01*
X90297000Y-153141250D01*
X90455750Y-153300000D01*
X91070000Y-153303072D01*
X91194482Y-153290812D01*
X91314180Y-153254502D01*
X91424494Y-153195537D01*
X91521185Y-153116185D01*
X91600537Y-153019494D01*
X91659502Y-152909180D01*
X91695812Y-152789482D01*
X91708072Y-152665000D01*
X91705000Y-152050750D01*
X91546250Y-151892000D01*
X90297000Y-151892000D01*
X90043000Y-151892000D01*
X90023000Y-151892000D01*
X90023000Y-151638000D01*
X90043000Y-151638000D01*
X90043000Y-150388750D01*
X90297000Y-150388750D01*
X90297000Y-151638000D01*
X91546250Y-151638000D01*
X91549948Y-151634302D01*
X99384000Y-151634302D01*
X99384000Y-151895698D01*
X99434996Y-152152072D01*
X99535028Y-152393570D01*
X99680252Y-152610913D01*
X99865087Y-152795748D01*
X100082430Y-152940972D01*
X100323928Y-153041004D01*
X100580302Y-153092000D01*
X100841698Y-153092000D01*
X101098072Y-153041004D01*
X101339570Y-152940972D01*
X101556913Y-152795748D01*
X101713055Y-152639606D01*
X101712928Y-152665000D01*
X101725188Y-152789482D01*
X101761498Y-152909180D01*
X101820463Y-153019494D01*
X101899815Y-153116185D01*
X101996506Y-153195537D01*
X102106820Y-153254502D01*
X102226518Y-153290812D01*
X102351000Y-153303072D01*
X102965250Y-153300000D01*
X103124000Y-153141250D01*
X103124000Y-151892000D01*
X103378000Y-151892000D01*
X103378000Y-153141250D01*
X103536750Y-153300000D01*
X104151000Y-153303072D01*
X104275482Y-153290812D01*
X104395180Y-153254502D01*
X104505494Y-153195537D01*
X104602185Y-153116185D01*
X104681537Y-153019494D01*
X104740502Y-152909180D01*
X104776812Y-152789482D01*
X104789072Y-152665000D01*
X104786000Y-152050750D01*
X104627250Y-151892000D01*
X103378000Y-151892000D01*
X103124000Y-151892000D01*
X103104000Y-151892000D01*
X103104000Y-151638000D01*
X103124000Y-151638000D01*
X103124000Y-150388750D01*
X103378000Y-150388750D01*
X103378000Y-151638000D01*
X104627250Y-151638000D01*
X104786000Y-151479250D01*
X104789072Y-150865000D01*
X104776812Y-150740518D01*
X104740502Y-150620820D01*
X104681537Y-150510506D01*
X104602185Y-150413815D01*
X104505494Y-150334463D01*
X104395180Y-150275498D01*
X104275482Y-150239188D01*
X104151000Y-150226928D01*
X103536750Y-150230000D01*
X103378000Y-150388750D01*
X103124000Y-150388750D01*
X102965250Y-150230000D01*
X102351000Y-150226928D01*
X102226518Y-150239188D01*
X102106820Y-150275498D01*
X101996506Y-150334463D01*
X101899815Y-150413815D01*
X101820463Y-150510506D01*
X101761498Y-150620820D01*
X101725188Y-150740518D01*
X101712928Y-150865000D01*
X101713055Y-150890394D01*
X101556913Y-150734252D01*
X101339570Y-150589028D01*
X101098072Y-150488996D01*
X100841698Y-150438000D01*
X100580302Y-150438000D01*
X100323928Y-150488996D01*
X100082430Y-150589028D01*
X99865087Y-150734252D01*
X99680252Y-150919087D01*
X99535028Y-151136430D01*
X99434996Y-151377928D01*
X99384000Y-151634302D01*
X91549948Y-151634302D01*
X91705000Y-151479250D01*
X91708072Y-150865000D01*
X91695812Y-150740518D01*
X91659502Y-150620820D01*
X91600537Y-150510506D01*
X91521185Y-150413815D01*
X91424494Y-150334463D01*
X91314180Y-150275498D01*
X91194482Y-150239188D01*
X91070000Y-150226928D01*
X90455750Y-150230000D01*
X90297000Y-150388750D01*
X90043000Y-150388750D01*
X89884250Y-150230000D01*
X89270000Y-150226928D01*
X89145518Y-150239188D01*
X89025820Y-150275498D01*
X88915506Y-150334463D01*
X88818815Y-150413815D01*
X88739463Y-150510506D01*
X88680498Y-150620820D01*
X88644188Y-150740518D01*
X88631928Y-150865000D01*
X88632055Y-150890394D01*
X88475913Y-150734252D01*
X88258570Y-150589028D01*
X88017072Y-150488996D01*
X87760698Y-150438000D01*
X87499302Y-150438000D01*
X87242928Y-150488996D01*
X87001430Y-150589028D01*
X86784087Y-150734252D01*
X86599252Y-150919087D01*
X86454028Y-151136430D01*
X86353996Y-151377928D01*
X86303000Y-151634302D01*
X80654066Y-151634302D01*
X80654066Y-151232500D01*
X80645822Y-151148793D01*
X80621405Y-151068304D01*
X80581755Y-150994124D01*
X80528395Y-150929105D01*
X80463376Y-150875745D01*
X80389196Y-150836095D01*
X80308707Y-150811678D01*
X80225000Y-150803434D01*
X78525000Y-150803434D01*
X78441293Y-150811678D01*
X78360804Y-150836095D01*
X78286624Y-150875745D01*
X78221605Y-150929105D01*
X78168245Y-150994124D01*
X78128595Y-151068304D01*
X78104178Y-151148793D01*
X78095934Y-151232500D01*
X78095934Y-151856653D01*
X78093522Y-151832164D01*
X78020502Y-151591449D01*
X77901924Y-151369604D01*
X77742344Y-151175156D01*
X77547896Y-151015576D01*
X77326051Y-150896998D01*
X77085336Y-150823978D01*
X76897726Y-150805500D01*
X76772274Y-150805500D01*
X76584664Y-150823978D01*
X76343949Y-150896998D01*
X76122104Y-151015576D01*
X75927656Y-151175156D01*
X75768076Y-151369604D01*
X75649498Y-151591449D01*
X75576478Y-151832164D01*
X75551822Y-152082500D01*
X75576478Y-152332836D01*
X75649498Y-152573551D01*
X75768076Y-152795396D01*
X75927656Y-152989844D01*
X76122104Y-153149424D01*
X76343949Y-153268002D01*
X76584664Y-153341022D01*
X76701202Y-153352500D01*
X76584664Y-153363978D01*
X76343949Y-153436998D01*
X76122104Y-153555576D01*
X75927656Y-153715156D01*
X75768076Y-153909604D01*
X75649498Y-154131449D01*
X75576478Y-154372164D01*
X75551822Y-154622500D01*
X75576478Y-154872836D01*
X75649498Y-155113551D01*
X75768076Y-155335396D01*
X75927656Y-155529844D01*
X76122104Y-155689424D01*
X76343949Y-155808002D01*
X76584664Y-155881022D01*
X76701202Y-155892500D01*
X76584664Y-155903978D01*
X76343949Y-155976998D01*
X76122104Y-156095576D01*
X75927656Y-156255156D01*
X75768076Y-156449604D01*
X75649498Y-156671449D01*
X75576478Y-156912164D01*
X75551822Y-157162500D01*
X75576478Y-157412836D01*
X75649498Y-157653551D01*
X75768076Y-157875396D01*
X75927656Y-158069844D01*
X76122104Y-158229424D01*
X76343949Y-158348002D01*
X76584664Y-158421022D01*
X76701202Y-158432500D01*
X76584664Y-158443978D01*
X76343949Y-158516998D01*
X76122104Y-158635576D01*
X75927656Y-158795156D01*
X75768076Y-158989604D01*
X75649498Y-159211449D01*
X75576478Y-159452164D01*
X75551822Y-159702500D01*
X75576478Y-159952836D01*
X75621208Y-160100291D01*
X74873033Y-160848466D01*
X74851027Y-160866526D01*
X74832966Y-160888533D01*
X74832963Y-160888536D01*
X74824915Y-160898343D01*
X74778922Y-160954385D01*
X74747000Y-161014108D01*
X74747000Y-147875413D01*
X83245192Y-147875413D01*
X83340956Y-148139814D01*
X83630571Y-148280704D01*
X83942108Y-148362384D01*
X84263595Y-148381718D01*
X84582675Y-148337961D01*
X84887088Y-148232795D01*
X85061044Y-148139814D01*
X85156808Y-147875413D01*
X89745192Y-147875413D01*
X89840956Y-148139814D01*
X90130571Y-148280704D01*
X90442108Y-148362384D01*
X90763595Y-148381718D01*
X91082675Y-148337961D01*
X91387088Y-148232795D01*
X91561044Y-148139814D01*
X91656808Y-147875413D01*
X94040192Y-147875413D01*
X94135956Y-148139814D01*
X94425571Y-148280704D01*
X94737108Y-148362384D01*
X95058595Y-148381718D01*
X95377675Y-148337961D01*
X95682088Y-148232795D01*
X95856044Y-148139814D01*
X95951808Y-147875413D01*
X100540192Y-147875413D01*
X100635956Y-148139814D01*
X100925571Y-148280704D01*
X101237108Y-148362384D01*
X101558595Y-148381718D01*
X101877675Y-148337961D01*
X102182088Y-148232795D01*
X102356044Y-148139814D01*
X102451808Y-147875413D01*
X104835192Y-147875413D01*
X104930956Y-148139814D01*
X105220571Y-148280704D01*
X105532108Y-148362384D01*
X105853595Y-148381718D01*
X106172675Y-148337961D01*
X106477088Y-148232795D01*
X106651044Y-148139814D01*
X106746808Y-147875413D01*
X111335192Y-147875413D01*
X111430956Y-148139814D01*
X111720571Y-148280704D01*
X112032108Y-148362384D01*
X112353595Y-148381718D01*
X112672675Y-148337961D01*
X112977088Y-148232795D01*
X113151044Y-148139814D01*
X113246808Y-147875413D01*
X115630192Y-147875413D01*
X115725956Y-148139814D01*
X116015571Y-148280704D01*
X116327108Y-148362384D01*
X116648595Y-148381718D01*
X116967675Y-148337961D01*
X117272088Y-148232795D01*
X117446044Y-148139814D01*
X117541808Y-147875413D01*
X122130192Y-147875413D01*
X122225956Y-148139814D01*
X122515571Y-148280704D01*
X122827108Y-148362384D01*
X123148595Y-148381718D01*
X123467675Y-148337961D01*
X123772088Y-148232795D01*
X123946044Y-148139814D01*
X124041808Y-147875413D01*
X126425192Y-147875413D01*
X126520956Y-148139814D01*
X126810571Y-148280704D01*
X127122108Y-148362384D01*
X127443595Y-148381718D01*
X127762675Y-148337961D01*
X128067088Y-148232795D01*
X128241044Y-148139814D01*
X128336808Y-147875413D01*
X132925192Y-147875413D01*
X133020956Y-148139814D01*
X133310571Y-148280704D01*
X133622108Y-148362384D01*
X133943595Y-148381718D01*
X134262675Y-148337961D01*
X134567088Y-148232795D01*
X134741044Y-148139814D01*
X134836808Y-147875413D01*
X133881000Y-146919605D01*
X132925192Y-147875413D01*
X128336808Y-147875413D01*
X127381000Y-146919605D01*
X126425192Y-147875413D01*
X124041808Y-147875413D01*
X123086000Y-146919605D01*
X122130192Y-147875413D01*
X117541808Y-147875413D01*
X116586000Y-146919605D01*
X115630192Y-147875413D01*
X113246808Y-147875413D01*
X112291000Y-146919605D01*
X111335192Y-147875413D01*
X106746808Y-147875413D01*
X105791000Y-146919605D01*
X104835192Y-147875413D01*
X102451808Y-147875413D01*
X101496000Y-146919605D01*
X100540192Y-147875413D01*
X95951808Y-147875413D01*
X94996000Y-146919605D01*
X94040192Y-147875413D01*
X91656808Y-147875413D01*
X90701000Y-146919605D01*
X89745192Y-147875413D01*
X85156808Y-147875413D01*
X84201000Y-146919605D01*
X83245192Y-147875413D01*
X74747000Y-147875413D01*
X74747000Y-146802595D01*
X82559282Y-146802595D01*
X82603039Y-147121675D01*
X82708205Y-147426088D01*
X82801186Y-147600044D01*
X83065587Y-147695808D01*
X84021395Y-146740000D01*
X84380605Y-146740000D01*
X85336413Y-147695808D01*
X85600814Y-147600044D01*
X85741704Y-147310429D01*
X85823384Y-146998892D01*
X85835189Y-146802595D01*
X89059282Y-146802595D01*
X89103039Y-147121675D01*
X89208205Y-147426088D01*
X89301186Y-147600044D01*
X89565587Y-147695808D01*
X90521395Y-146740000D01*
X90880605Y-146740000D01*
X91836413Y-147695808D01*
X92100814Y-147600044D01*
X92241704Y-147310429D01*
X92323384Y-146998892D01*
X92335189Y-146802595D01*
X93354282Y-146802595D01*
X93398039Y-147121675D01*
X93503205Y-147426088D01*
X93596186Y-147600044D01*
X93860587Y-147695808D01*
X94816395Y-146740000D01*
X95175605Y-146740000D01*
X96131413Y-147695808D01*
X96395814Y-147600044D01*
X96536704Y-147310429D01*
X96618384Y-146998892D01*
X96630189Y-146802595D01*
X99854282Y-146802595D01*
X99898039Y-147121675D01*
X100003205Y-147426088D01*
X100096186Y-147600044D01*
X100360587Y-147695808D01*
X101316395Y-146740000D01*
X101675605Y-146740000D01*
X102631413Y-147695808D01*
X102895814Y-147600044D01*
X103036704Y-147310429D01*
X103118384Y-146998892D01*
X103130189Y-146802595D01*
X104149282Y-146802595D01*
X104193039Y-147121675D01*
X104298205Y-147426088D01*
X104391186Y-147600044D01*
X104655587Y-147695808D01*
X105611395Y-146740000D01*
X105970605Y-146740000D01*
X106926413Y-147695808D01*
X107190814Y-147600044D01*
X107331704Y-147310429D01*
X107413384Y-146998892D01*
X107425189Y-146802595D01*
X110649282Y-146802595D01*
X110693039Y-147121675D01*
X110798205Y-147426088D01*
X110891186Y-147600044D01*
X111155587Y-147695808D01*
X112111395Y-146740000D01*
X112470605Y-146740000D01*
X113426413Y-147695808D01*
X113690814Y-147600044D01*
X113831704Y-147310429D01*
X113913384Y-146998892D01*
X113925189Y-146802595D01*
X114944282Y-146802595D01*
X114988039Y-147121675D01*
X115093205Y-147426088D01*
X115186186Y-147600044D01*
X115450587Y-147695808D01*
X116406395Y-146740000D01*
X116765605Y-146740000D01*
X117721413Y-147695808D01*
X117985814Y-147600044D01*
X118126704Y-147310429D01*
X118208384Y-146998892D01*
X118220189Y-146802595D01*
X121444282Y-146802595D01*
X121488039Y-147121675D01*
X121593205Y-147426088D01*
X121686186Y-147600044D01*
X121950587Y-147695808D01*
X122906395Y-146740000D01*
X123265605Y-146740000D01*
X124221413Y-147695808D01*
X124485814Y-147600044D01*
X124626704Y-147310429D01*
X124708384Y-146998892D01*
X124720189Y-146802595D01*
X125739282Y-146802595D01*
X125783039Y-147121675D01*
X125888205Y-147426088D01*
X125981186Y-147600044D01*
X126245587Y-147695808D01*
X127201395Y-146740000D01*
X127560605Y-146740000D01*
X128516413Y-147695808D01*
X128780814Y-147600044D01*
X128921704Y-147310429D01*
X129003384Y-146998892D01*
X129015189Y-146802595D01*
X132239282Y-146802595D01*
X132283039Y-147121675D01*
X132388205Y-147426088D01*
X132481186Y-147600044D01*
X132745587Y-147695808D01*
X133701395Y-146740000D01*
X134060605Y-146740000D01*
X135016413Y-147695808D01*
X135280814Y-147600044D01*
X135421704Y-147310429D01*
X135503384Y-146998892D01*
X135522718Y-146677405D01*
X135478961Y-146358325D01*
X135373795Y-146053912D01*
X135280814Y-145879956D01*
X135016413Y-145784192D01*
X134060605Y-146740000D01*
X133701395Y-146740000D01*
X132745587Y-145784192D01*
X132481186Y-145879956D01*
X132340296Y-146169571D01*
X132258616Y-146481108D01*
X132239282Y-146802595D01*
X129015189Y-146802595D01*
X129022718Y-146677405D01*
X128978961Y-146358325D01*
X128873795Y-146053912D01*
X128780814Y-145879956D01*
X128516413Y-145784192D01*
X127560605Y-146740000D01*
X127201395Y-146740000D01*
X126245587Y-145784192D01*
X125981186Y-145879956D01*
X125840296Y-146169571D01*
X125758616Y-146481108D01*
X125739282Y-146802595D01*
X124720189Y-146802595D01*
X124727718Y-146677405D01*
X124683961Y-146358325D01*
X124578795Y-146053912D01*
X124485814Y-145879956D01*
X124221413Y-145784192D01*
X123265605Y-146740000D01*
X122906395Y-146740000D01*
X121950587Y-145784192D01*
X121686186Y-145879956D01*
X121545296Y-146169571D01*
X121463616Y-146481108D01*
X121444282Y-146802595D01*
X118220189Y-146802595D01*
X118227718Y-146677405D01*
X118183961Y-146358325D01*
X118078795Y-146053912D01*
X117985814Y-145879956D01*
X117721413Y-145784192D01*
X116765605Y-146740000D01*
X116406395Y-146740000D01*
X115450587Y-145784192D01*
X115186186Y-145879956D01*
X115045296Y-146169571D01*
X114963616Y-146481108D01*
X114944282Y-146802595D01*
X113925189Y-146802595D01*
X113932718Y-146677405D01*
X113888961Y-146358325D01*
X113783795Y-146053912D01*
X113690814Y-145879956D01*
X113426413Y-145784192D01*
X112470605Y-146740000D01*
X112111395Y-146740000D01*
X111155587Y-145784192D01*
X110891186Y-145879956D01*
X110750296Y-146169571D01*
X110668616Y-146481108D01*
X110649282Y-146802595D01*
X107425189Y-146802595D01*
X107432718Y-146677405D01*
X107388961Y-146358325D01*
X107283795Y-146053912D01*
X107190814Y-145879956D01*
X106926413Y-145784192D01*
X105970605Y-146740000D01*
X105611395Y-146740000D01*
X104655587Y-145784192D01*
X104391186Y-145879956D01*
X104250296Y-146169571D01*
X104168616Y-146481108D01*
X104149282Y-146802595D01*
X103130189Y-146802595D01*
X103137718Y-146677405D01*
X103093961Y-146358325D01*
X102988795Y-146053912D01*
X102895814Y-145879956D01*
X102631413Y-145784192D01*
X101675605Y-146740000D01*
X101316395Y-146740000D01*
X100360587Y-145784192D01*
X100096186Y-145879956D01*
X99955296Y-146169571D01*
X99873616Y-146481108D01*
X99854282Y-146802595D01*
X96630189Y-146802595D01*
X96637718Y-146677405D01*
X96593961Y-146358325D01*
X96488795Y-146053912D01*
X96395814Y-145879956D01*
X96131413Y-145784192D01*
X95175605Y-146740000D01*
X94816395Y-146740000D01*
X93860587Y-145784192D01*
X93596186Y-145879956D01*
X93455296Y-146169571D01*
X93373616Y-146481108D01*
X93354282Y-146802595D01*
X92335189Y-146802595D01*
X92342718Y-146677405D01*
X92298961Y-146358325D01*
X92193795Y-146053912D01*
X92100814Y-145879956D01*
X91836413Y-145784192D01*
X90880605Y-146740000D01*
X90521395Y-146740000D01*
X89565587Y-145784192D01*
X89301186Y-145879956D01*
X89160296Y-146169571D01*
X89078616Y-146481108D01*
X89059282Y-146802595D01*
X85835189Y-146802595D01*
X85842718Y-146677405D01*
X85798961Y-146358325D01*
X85693795Y-146053912D01*
X85600814Y-145879956D01*
X85336413Y-145784192D01*
X84380605Y-146740000D01*
X84021395Y-146740000D01*
X83065587Y-145784192D01*
X82801186Y-145879956D01*
X82660296Y-146169571D01*
X82578616Y-146481108D01*
X82559282Y-146802595D01*
X74747000Y-146802595D01*
X74747000Y-145604587D01*
X83245192Y-145604587D01*
X84201000Y-146560395D01*
X85156808Y-145604587D01*
X89745192Y-145604587D01*
X90701000Y-146560395D01*
X91656808Y-145604587D01*
X94040192Y-145604587D01*
X94996000Y-146560395D01*
X95951808Y-145604587D01*
X100540192Y-145604587D01*
X101496000Y-146560395D01*
X102451808Y-145604587D01*
X104835192Y-145604587D01*
X105791000Y-146560395D01*
X106746808Y-145604587D01*
X111335192Y-145604587D01*
X112291000Y-146560395D01*
X113246808Y-145604587D01*
X115630192Y-145604587D01*
X116586000Y-146560395D01*
X117541808Y-145604587D01*
X122130192Y-145604587D01*
X123086000Y-146560395D01*
X124041808Y-145604587D01*
X126425192Y-145604587D01*
X127381000Y-146560395D01*
X128336808Y-145604587D01*
X132925192Y-145604587D01*
X133881000Y-146560395D01*
X134836808Y-145604587D01*
X134741044Y-145340186D01*
X134451429Y-145199296D01*
X134139892Y-145117616D01*
X133818405Y-145098282D01*
X133499325Y-145142039D01*
X133194912Y-145247205D01*
X133020956Y-145340186D01*
X132925192Y-145604587D01*
X128336808Y-145604587D01*
X128241044Y-145340186D01*
X127951429Y-145199296D01*
X127639892Y-145117616D01*
X127318405Y-145098282D01*
X126999325Y-145142039D01*
X126694912Y-145247205D01*
X126520956Y-145340186D01*
X126425192Y-145604587D01*
X124041808Y-145604587D01*
X123946044Y-145340186D01*
X123656429Y-145199296D01*
X123344892Y-145117616D01*
X123023405Y-145098282D01*
X122704325Y-145142039D01*
X122399912Y-145247205D01*
X122225956Y-145340186D01*
X122130192Y-145604587D01*
X117541808Y-145604587D01*
X117446044Y-145340186D01*
X117156429Y-145199296D01*
X116844892Y-145117616D01*
X116523405Y-145098282D01*
X116204325Y-145142039D01*
X115899912Y-145247205D01*
X115725956Y-145340186D01*
X115630192Y-145604587D01*
X113246808Y-145604587D01*
X113151044Y-145340186D01*
X112861429Y-145199296D01*
X112549892Y-145117616D01*
X112228405Y-145098282D01*
X111909325Y-145142039D01*
X111604912Y-145247205D01*
X111430956Y-145340186D01*
X111335192Y-145604587D01*
X106746808Y-145604587D01*
X106651044Y-145340186D01*
X106361429Y-145199296D01*
X106049892Y-145117616D01*
X105728405Y-145098282D01*
X105409325Y-145142039D01*
X105104912Y-145247205D01*
X104930956Y-145340186D01*
X104835192Y-145604587D01*
X102451808Y-145604587D01*
X102356044Y-145340186D01*
X102066429Y-145199296D01*
X101754892Y-145117616D01*
X101433405Y-145098282D01*
X101114325Y-145142039D01*
X100809912Y-145247205D01*
X100635956Y-145340186D01*
X100540192Y-145604587D01*
X95951808Y-145604587D01*
X95856044Y-145340186D01*
X95566429Y-145199296D01*
X95254892Y-145117616D01*
X94933405Y-145098282D01*
X94614325Y-145142039D01*
X94309912Y-145247205D01*
X94135956Y-145340186D01*
X94040192Y-145604587D01*
X91656808Y-145604587D01*
X91561044Y-145340186D01*
X91271429Y-145199296D01*
X90959892Y-145117616D01*
X90638405Y-145098282D01*
X90319325Y-145142039D01*
X90014912Y-145247205D01*
X89840956Y-145340186D01*
X89745192Y-145604587D01*
X85156808Y-145604587D01*
X85061044Y-145340186D01*
X84771429Y-145199296D01*
X84459892Y-145117616D01*
X84138405Y-145098282D01*
X83819325Y-145142039D01*
X83514912Y-145247205D01*
X83340956Y-145340186D01*
X83245192Y-145604587D01*
X74747000Y-145604587D01*
X74747000Y-142099453D01*
X82774000Y-142099453D01*
X82774000Y-142380547D01*
X82828838Y-142656241D01*
X82936409Y-142915938D01*
X83092576Y-143149660D01*
X83291340Y-143348424D01*
X83525062Y-143504591D01*
X83784759Y-143612162D01*
X84060453Y-143667000D01*
X84341547Y-143667000D01*
X84617241Y-143612162D01*
X84876938Y-143504591D01*
X85110660Y-143348424D01*
X85309424Y-143149660D01*
X85465591Y-142915938D01*
X85573162Y-142656241D01*
X85628000Y-142380547D01*
X85628000Y-142099453D01*
X89274000Y-142099453D01*
X89274000Y-142380547D01*
X89328838Y-142656241D01*
X89436409Y-142915938D01*
X89592576Y-143149660D01*
X89791340Y-143348424D01*
X90025062Y-143504591D01*
X90284759Y-143612162D01*
X90560453Y-143667000D01*
X90841547Y-143667000D01*
X91117241Y-143612162D01*
X91376938Y-143504591D01*
X91610660Y-143348424D01*
X91809424Y-143149660D01*
X91965591Y-142915938D01*
X92073162Y-142656241D01*
X92128000Y-142380547D01*
X92128000Y-142099453D01*
X93569000Y-142099453D01*
X93569000Y-142380547D01*
X93623838Y-142656241D01*
X93731409Y-142915938D01*
X93887576Y-143149660D01*
X94086340Y-143348424D01*
X94320062Y-143504591D01*
X94579759Y-143612162D01*
X94855453Y-143667000D01*
X95136547Y-143667000D01*
X95412241Y-143612162D01*
X95671938Y-143504591D01*
X95905660Y-143348424D01*
X96104424Y-143149660D01*
X96260591Y-142915938D01*
X96368162Y-142656241D01*
X96423000Y-142380547D01*
X96423000Y-142099453D01*
X100069000Y-142099453D01*
X100069000Y-142380547D01*
X100123838Y-142656241D01*
X100231409Y-142915938D01*
X100387576Y-143149660D01*
X100586340Y-143348424D01*
X100820062Y-143504591D01*
X101079759Y-143612162D01*
X101355453Y-143667000D01*
X101636547Y-143667000D01*
X101912241Y-143612162D01*
X102171938Y-143504591D01*
X102405660Y-143348424D01*
X102604424Y-143149660D01*
X102760591Y-142915938D01*
X102868162Y-142656241D01*
X102923000Y-142380547D01*
X102923000Y-142099453D01*
X104364000Y-142099453D01*
X104364000Y-142380547D01*
X104418838Y-142656241D01*
X104526409Y-142915938D01*
X104682576Y-143149660D01*
X104881340Y-143348424D01*
X105115062Y-143504591D01*
X105374759Y-143612162D01*
X105650453Y-143667000D01*
X105931547Y-143667000D01*
X106207241Y-143612162D01*
X106466938Y-143504591D01*
X106700660Y-143348424D01*
X106899424Y-143149660D01*
X107055591Y-142915938D01*
X107163162Y-142656241D01*
X107218000Y-142380547D01*
X107218000Y-142099453D01*
X110864000Y-142099453D01*
X110864000Y-142380547D01*
X110918838Y-142656241D01*
X111026409Y-142915938D01*
X111182576Y-143149660D01*
X111381340Y-143348424D01*
X111615062Y-143504591D01*
X111874759Y-143612162D01*
X112150453Y-143667000D01*
X112431547Y-143667000D01*
X112707241Y-143612162D01*
X112966938Y-143504591D01*
X113200660Y-143348424D01*
X113399424Y-143149660D01*
X113555591Y-142915938D01*
X113663162Y-142656241D01*
X113718000Y-142380547D01*
X113718000Y-142099453D01*
X115159000Y-142099453D01*
X115159000Y-142380547D01*
X115213838Y-142656241D01*
X115321409Y-142915938D01*
X115477576Y-143149660D01*
X115676340Y-143348424D01*
X115910062Y-143504591D01*
X116169759Y-143612162D01*
X116445453Y-143667000D01*
X116726547Y-143667000D01*
X117002241Y-143612162D01*
X117261938Y-143504591D01*
X117495660Y-143348424D01*
X117694424Y-143149660D01*
X117850591Y-142915938D01*
X117958162Y-142656241D01*
X118013000Y-142380547D01*
X118013000Y-142099453D01*
X121659000Y-142099453D01*
X121659000Y-142380547D01*
X121713838Y-142656241D01*
X121821409Y-142915938D01*
X121977576Y-143149660D01*
X122176340Y-143348424D01*
X122410062Y-143504591D01*
X122669759Y-143612162D01*
X122945453Y-143667000D01*
X123226547Y-143667000D01*
X123502241Y-143612162D01*
X123761938Y-143504591D01*
X123995660Y-143348424D01*
X124194424Y-143149660D01*
X124350591Y-142915938D01*
X124458162Y-142656241D01*
X124513000Y-142380547D01*
X124513000Y-142099453D01*
X125954000Y-142099453D01*
X125954000Y-142380547D01*
X126008838Y-142656241D01*
X126116409Y-142915938D01*
X126272576Y-143149660D01*
X126471340Y-143348424D01*
X126705062Y-143504591D01*
X126964759Y-143612162D01*
X127240453Y-143667000D01*
X127521547Y-143667000D01*
X127797241Y-143612162D01*
X128056938Y-143504591D01*
X128290660Y-143348424D01*
X128489424Y-143149660D01*
X128645591Y-142915938D01*
X128753162Y-142656241D01*
X128808000Y-142380547D01*
X128808000Y-142099453D01*
X132454000Y-142099453D01*
X132454000Y-142380547D01*
X132508838Y-142656241D01*
X132616409Y-142915938D01*
X132772576Y-143149660D01*
X132971340Y-143348424D01*
X133205062Y-143504591D01*
X133464759Y-143612162D01*
X133740453Y-143667000D01*
X134021547Y-143667000D01*
X134297241Y-143612162D01*
X134556938Y-143504591D01*
X134790660Y-143348424D01*
X134989424Y-143149660D01*
X135145591Y-142915938D01*
X135253162Y-142656241D01*
X135308000Y-142380547D01*
X135308000Y-142099453D01*
X135253162Y-141823759D01*
X135145591Y-141564062D01*
X134989424Y-141330340D01*
X134790660Y-141131576D01*
X134556938Y-140975409D01*
X134297241Y-140867838D01*
X134021547Y-140813000D01*
X133740453Y-140813000D01*
X133464759Y-140867838D01*
X133205062Y-140975409D01*
X132971340Y-141131576D01*
X132772576Y-141330340D01*
X132616409Y-141564062D01*
X132508838Y-141823759D01*
X132454000Y-142099453D01*
X128808000Y-142099453D01*
X128753162Y-141823759D01*
X128645591Y-141564062D01*
X128489424Y-141330340D01*
X128290660Y-141131576D01*
X128056938Y-140975409D01*
X127797241Y-140867838D01*
X127521547Y-140813000D01*
X127240453Y-140813000D01*
X126964759Y-140867838D01*
X126705062Y-140975409D01*
X126471340Y-141131576D01*
X126272576Y-141330340D01*
X126116409Y-141564062D01*
X126008838Y-141823759D01*
X125954000Y-142099453D01*
X124513000Y-142099453D01*
X124458162Y-141823759D01*
X124350591Y-141564062D01*
X124194424Y-141330340D01*
X123995660Y-141131576D01*
X123761938Y-140975409D01*
X123502241Y-140867838D01*
X123226547Y-140813000D01*
X122945453Y-140813000D01*
X122669759Y-140867838D01*
X122410062Y-140975409D01*
X122176340Y-141131576D01*
X121977576Y-141330340D01*
X121821409Y-141564062D01*
X121713838Y-141823759D01*
X121659000Y-142099453D01*
X118013000Y-142099453D01*
X117958162Y-141823759D01*
X117850591Y-141564062D01*
X117694424Y-141330340D01*
X117495660Y-141131576D01*
X117261938Y-140975409D01*
X117002241Y-140867838D01*
X116726547Y-140813000D01*
X116445453Y-140813000D01*
X116169759Y-140867838D01*
X115910062Y-140975409D01*
X115676340Y-141131576D01*
X115477576Y-141330340D01*
X115321409Y-141564062D01*
X115213838Y-141823759D01*
X115159000Y-142099453D01*
X113718000Y-142099453D01*
X113663162Y-141823759D01*
X113555591Y-141564062D01*
X113399424Y-141330340D01*
X113200660Y-141131576D01*
X112966938Y-140975409D01*
X112707241Y-140867838D01*
X112431547Y-140813000D01*
X112150453Y-140813000D01*
X111874759Y-140867838D01*
X111615062Y-140975409D01*
X111381340Y-141131576D01*
X111182576Y-141330340D01*
X111026409Y-141564062D01*
X110918838Y-141823759D01*
X110864000Y-142099453D01*
X107218000Y-142099453D01*
X107163162Y-141823759D01*
X107055591Y-141564062D01*
X106899424Y-141330340D01*
X106700660Y-141131576D01*
X106466938Y-140975409D01*
X106207241Y-140867838D01*
X105931547Y-140813000D01*
X105650453Y-140813000D01*
X105374759Y-140867838D01*
X105115062Y-140975409D01*
X104881340Y-141131576D01*
X104682576Y-141330340D01*
X104526409Y-141564062D01*
X104418838Y-141823759D01*
X104364000Y-142099453D01*
X102923000Y-142099453D01*
X102868162Y-141823759D01*
X102760591Y-141564062D01*
X102604424Y-141330340D01*
X102405660Y-141131576D01*
X102171938Y-140975409D01*
X101912241Y-140867838D01*
X101636547Y-140813000D01*
X101355453Y-140813000D01*
X101079759Y-140867838D01*
X100820062Y-140975409D01*
X100586340Y-141131576D01*
X100387576Y-141330340D01*
X100231409Y-141564062D01*
X100123838Y-141823759D01*
X100069000Y-142099453D01*
X96423000Y-142099453D01*
X96368162Y-141823759D01*
X96260591Y-141564062D01*
X96104424Y-141330340D01*
X95905660Y-141131576D01*
X95671938Y-140975409D01*
X95412241Y-140867838D01*
X95136547Y-140813000D01*
X94855453Y-140813000D01*
X94579759Y-140867838D01*
X94320062Y-140975409D01*
X94086340Y-141131576D01*
X93887576Y-141330340D01*
X93731409Y-141564062D01*
X93623838Y-141823759D01*
X93569000Y-142099453D01*
X92128000Y-142099453D01*
X92073162Y-141823759D01*
X91965591Y-141564062D01*
X91809424Y-141330340D01*
X91610660Y-141131576D01*
X91376938Y-140975409D01*
X91117241Y-140867838D01*
X90841547Y-140813000D01*
X90560453Y-140813000D01*
X90284759Y-140867838D01*
X90025062Y-140975409D01*
X89791340Y-141131576D01*
X89592576Y-141330340D01*
X89436409Y-141564062D01*
X89328838Y-141823759D01*
X89274000Y-142099453D01*
X85628000Y-142099453D01*
X85573162Y-141823759D01*
X85465591Y-141564062D01*
X85309424Y-141330340D01*
X85110660Y-141131576D01*
X84876938Y-140975409D01*
X84617241Y-140867838D01*
X84341547Y-140813000D01*
X84060453Y-140813000D01*
X83784759Y-140867838D01*
X83525062Y-140975409D01*
X83291340Y-141131576D01*
X83092576Y-141330340D01*
X82936409Y-141564062D01*
X82828838Y-141823759D01*
X82774000Y-142099453D01*
X74747000Y-142099453D01*
X74747000Y-140357108D01*
X74800986Y-139806517D01*
X74954465Y-139298171D01*
X75203760Y-138829315D01*
X75539378Y-138417807D01*
X75948531Y-138079328D01*
X76415635Y-137826764D01*
X76922901Y-137669741D01*
X77472257Y-137612000D01*
X166347892Y-137612000D01*
X166898483Y-137665986D01*
X166898483Y-137665986D01*
G37*
X166898483Y-137665986D02*
X167406829Y-137819465D01*
X167875685Y-138068760D01*
X168287193Y-138404378D01*
X168625672Y-138813531D01*
X168878236Y-139280635D01*
X169035259Y-139787901D01*
X169093001Y-140337267D01*
X169093000Y-173967892D01*
X169039014Y-174518483D01*
X168885536Y-175026828D01*
X168636240Y-175495685D01*
X168300622Y-175907193D01*
X167891473Y-176245670D01*
X167424363Y-176498236D01*
X166917100Y-176655259D01*
X166367743Y-176713000D01*
X87942627Y-176713000D01*
X87990950Y-176640680D01*
X88041984Y-176517474D01*
X88068000Y-176386679D01*
X88068000Y-176253321D01*
X88041984Y-176122526D01*
X87990950Y-175999320D01*
X87916860Y-175888437D01*
X87822563Y-175794140D01*
X87711680Y-175720050D01*
X87588474Y-175669016D01*
X87457679Y-175643000D01*
X87324321Y-175643000D01*
X87193526Y-175669016D01*
X87070320Y-175720050D01*
X87056372Y-175729370D01*
X86808000Y-175480999D01*
X86808000Y-174494302D01*
X99384000Y-174494302D01*
X99384000Y-174755698D01*
X99434996Y-175012072D01*
X99535028Y-175253570D01*
X99680252Y-175470913D01*
X99865087Y-175655748D01*
X100082430Y-175800972D01*
X100323928Y-175901004D01*
X100580302Y-175952000D01*
X100841698Y-175952000D01*
X101098072Y-175901004D01*
X101339570Y-175800972D01*
X101556913Y-175655748D01*
X101713055Y-175499606D01*
X101712928Y-175525000D01*
X101725188Y-175649482D01*
X101761498Y-175769180D01*
X101820463Y-175879494D01*
X101899815Y-175976185D01*
X101996506Y-176055537D01*
X102106820Y-176114502D01*
X102226518Y-176150812D01*
X102351000Y-176163072D01*
X102965250Y-176160000D01*
X103124000Y-176001250D01*
X103124000Y-174752000D01*
X103378000Y-174752000D01*
X103378000Y-176001250D01*
X103536750Y-176160000D01*
X104151000Y-176163072D01*
X104275482Y-176150812D01*
X104395180Y-176114502D01*
X104505494Y-176055537D01*
X104602185Y-175976185D01*
X104681537Y-175879494D01*
X104740502Y-175769180D01*
X104776812Y-175649482D01*
X104789072Y-175525000D01*
X104786000Y-174910750D01*
X104627250Y-174752000D01*
X103378000Y-174752000D01*
X103124000Y-174752000D01*
X103104000Y-174752000D01*
X103104000Y-174498000D01*
X103124000Y-174498000D01*
X103124000Y-173248750D01*
X103378000Y-173248750D01*
X103378000Y-174498000D01*
X104627250Y-174498000D01*
X104786000Y-174339250D01*
X104789072Y-173725000D01*
X104776812Y-173600518D01*
X104740502Y-173480820D01*
X104681537Y-173370506D01*
X104602185Y-173273815D01*
X104505494Y-173194463D01*
X104395180Y-173135498D01*
X104275482Y-173099188D01*
X104151000Y-173086928D01*
X103536750Y-173090000D01*
X103378000Y-173248750D01*
X103124000Y-173248750D01*
X102965250Y-173090000D01*
X102351000Y-173086928D01*
X102226518Y-173099188D01*
X102106820Y-173135498D01*
X101996506Y-173194463D01*
X101899815Y-173273815D01*
X101820463Y-173370506D01*
X101761498Y-173480820D01*
X101725188Y-173600518D01*
X101712928Y-173725000D01*
X101713055Y-173750394D01*
X101556913Y-173594252D01*
X101339570Y-173449028D01*
X101098072Y-173348996D01*
X100841698Y-173298000D01*
X100580302Y-173298000D01*
X100323928Y-173348996D01*
X100082430Y-173449028D01*
X99865087Y-173594252D01*
X99680252Y-173779087D01*
X99535028Y-173996430D01*
X99434996Y-174237928D01*
X99384000Y-174494302D01*
X86808000Y-174494302D01*
X86808000Y-171319302D01*
X138119000Y-171319302D01*
X138119000Y-171580698D01*
X138169996Y-171837072D01*
X138270028Y-172078570D01*
X138415252Y-172295913D01*
X138600087Y-172480748D01*
X138817430Y-172625972D01*
X139058928Y-172726004D01*
X139315302Y-172777000D01*
X139576698Y-172777000D01*
X139833072Y-172726004D01*
X140074570Y-172625972D01*
X140291913Y-172480748D01*
X140448055Y-172324606D01*
X140447928Y-172350000D01*
X140460188Y-172474482D01*
X140496498Y-172594180D01*
X140555463Y-172704494D01*
X140634815Y-172801185D01*
X140731506Y-172880537D01*
X140841820Y-172939502D01*
X140961518Y-172975812D01*
X141086000Y-172988072D01*
X141700250Y-172985000D01*
X141859000Y-172826250D01*
X141859000Y-171577000D01*
X142113000Y-171577000D01*
X142113000Y-172826250D01*
X142271750Y-172985000D01*
X142886000Y-172988072D01*
X143010482Y-172975812D01*
X143130180Y-172939502D01*
X143240494Y-172880537D01*
X143337185Y-172801185D01*
X143416537Y-172704494D01*
X143475502Y-172594180D01*
X143511812Y-172474482D01*
X143524072Y-172350000D01*
X146162928Y-172350000D01*
X146175188Y-172474482D01*
X146211498Y-172594180D01*
X146270463Y-172704494D01*
X146349815Y-172801185D01*
X146446506Y-172880537D01*
X146556820Y-172939502D01*
X146676518Y-172975812D01*
X146801000Y-172988072D01*
X147415250Y-172985000D01*
X147574000Y-172826250D01*
X147574000Y-171577000D01*
X146324750Y-171577000D01*
X146166000Y-171735750D01*
X146162928Y-172350000D01*
X143524072Y-172350000D01*
X143521000Y-171735750D01*
X143362250Y-171577000D01*
X142113000Y-171577000D01*
X141859000Y-171577000D01*
X141839000Y-171577000D01*
X141839000Y-171323000D01*
X141859000Y-171323000D01*
X141859000Y-170073750D01*
X142113000Y-170073750D01*
X142113000Y-171323000D01*
X143362250Y-171323000D01*
X143521000Y-171164250D01*
X143524072Y-170550000D01*
X146162928Y-170550000D01*
X146166000Y-171164250D01*
X146324750Y-171323000D01*
X147574000Y-171323000D01*
X147574000Y-170073750D01*
X147828000Y-170073750D01*
X147828000Y-171323000D01*
X147848000Y-171323000D01*
X147848000Y-171577000D01*
X147828000Y-171577000D01*
X147828000Y-172826250D01*
X147986750Y-172985000D01*
X148601000Y-172988072D01*
X148725482Y-172975812D01*
X148845180Y-172939502D01*
X148955494Y-172880537D01*
X149052185Y-172801185D01*
X149131537Y-172704494D01*
X149190502Y-172594180D01*
X149226812Y-172474482D01*
X149239072Y-172350000D01*
X149238945Y-172324606D01*
X149395087Y-172480748D01*
X149612430Y-172625972D01*
X149853928Y-172726004D01*
X150110302Y-172777000D01*
X150371698Y-172777000D01*
X150628072Y-172726004D01*
X150869570Y-172625972D01*
X151086913Y-172480748D01*
X151271748Y-172295913D01*
X151416972Y-172078570D01*
X151517004Y-171837072D01*
X151568000Y-171580698D01*
X151568000Y-171319302D01*
X151517004Y-171062928D01*
X151416972Y-170821430D01*
X151271748Y-170604087D01*
X151086913Y-170419252D01*
X150869570Y-170274028D01*
X150628072Y-170173996D01*
X150371698Y-170123000D01*
X150110302Y-170123000D01*
X149853928Y-170173996D01*
X149612430Y-170274028D01*
X149395087Y-170419252D01*
X149238945Y-170575394D01*
X149239072Y-170550000D01*
X149226812Y-170425518D01*
X149190502Y-170305820D01*
X149131537Y-170195506D01*
X149052185Y-170098815D01*
X148955494Y-170019463D01*
X148845180Y-169960498D01*
X148725482Y-169924188D01*
X148601000Y-169911928D01*
X147986750Y-169915000D01*
X147828000Y-170073750D01*
X147574000Y-170073750D01*
X147415250Y-169915000D01*
X146801000Y-169911928D01*
X146676518Y-169924188D01*
X146556820Y-169960498D01*
X146446506Y-170019463D01*
X146349815Y-170098815D01*
X146270463Y-170195506D01*
X146211498Y-170305820D01*
X146175188Y-170425518D01*
X146162928Y-170550000D01*
X143524072Y-170550000D01*
X143511812Y-170425518D01*
X143475502Y-170305820D01*
X143416537Y-170195506D01*
X143337185Y-170098815D01*
X143240494Y-170019463D01*
X143130180Y-169960498D01*
X143010482Y-169924188D01*
X142886000Y-169911928D01*
X142271750Y-169915000D01*
X142113000Y-170073750D01*
X141859000Y-170073750D01*
X141700250Y-169915000D01*
X141086000Y-169911928D01*
X140961518Y-169924188D01*
X140841820Y-169960498D01*
X140731506Y-170019463D01*
X140634815Y-170098815D01*
X140555463Y-170195506D01*
X140496498Y-170305820D01*
X140460188Y-170425518D01*
X140447928Y-170550000D01*
X140448055Y-170575394D01*
X140291913Y-170419252D01*
X140074570Y-170274028D01*
X139833072Y-170173996D01*
X139576698Y-170123000D01*
X139315302Y-170123000D01*
X139058928Y-170173996D01*
X138817430Y-170274028D01*
X138600087Y-170419252D01*
X138415252Y-170604087D01*
X138270028Y-170821430D01*
X138169996Y-171062928D01*
X138119000Y-171319302D01*
X86808000Y-171319302D01*
X86808000Y-170782717D01*
X86832208Y-170792744D01*
X86861670Y-170808492D01*
X86893636Y-170818189D01*
X86924526Y-170830984D01*
X86957315Y-170837506D01*
X86989285Y-170847204D01*
X87022536Y-170850479D01*
X87055321Y-170857000D01*
X92803755Y-170857000D01*
X92837000Y-170860274D01*
X92870245Y-170857000D01*
X92870252Y-170857000D01*
X92969715Y-170847204D01*
X93097330Y-170808492D01*
X93214941Y-170745628D01*
X93318027Y-170661027D01*
X93339226Y-170635196D01*
X95657422Y-168317000D01*
X99520294Y-168317000D01*
X99434996Y-168522928D01*
X99384000Y-168779302D01*
X99384000Y-169040698D01*
X99434996Y-169297072D01*
X99535028Y-169538570D01*
X99680252Y-169755913D01*
X99865087Y-169940748D01*
X100082430Y-170085972D01*
X100323928Y-170186004D01*
X100580302Y-170237000D01*
X100841698Y-170237000D01*
X101098072Y-170186004D01*
X101339570Y-170085972D01*
X101556913Y-169940748D01*
X101713055Y-169784606D01*
X101712928Y-169810000D01*
X101725188Y-169934482D01*
X101761498Y-170054180D01*
X101820463Y-170164494D01*
X101899815Y-170261185D01*
X101996506Y-170340537D01*
X102106820Y-170399502D01*
X102226518Y-170435812D01*
X102351000Y-170448072D01*
X102965250Y-170445000D01*
X103124000Y-170286250D01*
X103124000Y-169037000D01*
X103378000Y-169037000D01*
X103378000Y-170286250D01*
X103536750Y-170445000D01*
X104151000Y-170448072D01*
X104275482Y-170435812D01*
X104395180Y-170399502D01*
X104505494Y-170340537D01*
X104602185Y-170261185D01*
X104681537Y-170164494D01*
X104740502Y-170054180D01*
X104776812Y-169934482D01*
X104789072Y-169810000D01*
X104786000Y-169195750D01*
X104627250Y-169037000D01*
X103378000Y-169037000D01*
X103124000Y-169037000D01*
X103104000Y-169037000D01*
X103104000Y-168783000D01*
X103124000Y-168783000D01*
X103124000Y-168763000D01*
X103378000Y-168763000D01*
X103378000Y-168783000D01*
X104627250Y-168783000D01*
X104786000Y-168624250D01*
X104787537Y-168317000D01*
X118013255Y-168317000D01*
X118046500Y-168320274D01*
X118079745Y-168317000D01*
X118079752Y-168317000D01*
X118179215Y-168307204D01*
X118306830Y-168268492D01*
X118424441Y-168205628D01*
X118527527Y-168121027D01*
X118548726Y-168095196D01*
X120216196Y-166427726D01*
X120242027Y-166406527D01*
X120326628Y-166303441D01*
X120389492Y-166185830D01*
X120428204Y-166058215D01*
X120438000Y-165958752D01*
X120438000Y-165958743D01*
X120441274Y-165925501D01*
X120438000Y-165892259D01*
X120438000Y-165604302D01*
X138119000Y-165604302D01*
X138119000Y-165865698D01*
X138169996Y-166122072D01*
X138270028Y-166363570D01*
X138415252Y-166580913D01*
X138600087Y-166765748D01*
X138817430Y-166910972D01*
X139058928Y-167011004D01*
X139315302Y-167062000D01*
X139576698Y-167062000D01*
X139833072Y-167011004D01*
X140074570Y-166910972D01*
X140291913Y-166765748D01*
X140448055Y-166609606D01*
X140447928Y-166635000D01*
X140460188Y-166759482D01*
X140496498Y-166879180D01*
X140555463Y-166989494D01*
X140634815Y-167086185D01*
X140731506Y-167165537D01*
X140841820Y-167224502D01*
X140961518Y-167260812D01*
X141086000Y-167273072D01*
X141700250Y-167270000D01*
X141859000Y-167111250D01*
X141859000Y-165862000D01*
X142113000Y-165862000D01*
X142113000Y-167111250D01*
X142271750Y-167270000D01*
X142886000Y-167273072D01*
X143010482Y-167260812D01*
X143130180Y-167224502D01*
X143240494Y-167165537D01*
X143337185Y-167086185D01*
X143416537Y-166989494D01*
X143475502Y-166879180D01*
X143511812Y-166759482D01*
X143524072Y-166635000D01*
X146162928Y-166635000D01*
X146175188Y-166759482D01*
X146211498Y-166879180D01*
X146270463Y-166989494D01*
X146349815Y-167086185D01*
X146446506Y-167165537D01*
X146556820Y-167224502D01*
X146676518Y-167260812D01*
X146801000Y-167273072D01*
X147415250Y-167270000D01*
X147574000Y-167111250D01*
X147574000Y-165862000D01*
X146324750Y-165862000D01*
X146166000Y-166020750D01*
X146162928Y-166635000D01*
X143524072Y-166635000D01*
X143521000Y-166020750D01*
X143362250Y-165862000D01*
X142113000Y-165862000D01*
X141859000Y-165862000D01*
X141839000Y-165862000D01*
X141839000Y-165608000D01*
X141859000Y-165608000D01*
X141859000Y-164358750D01*
X142113000Y-164358750D01*
X142113000Y-165608000D01*
X143362250Y-165608000D01*
X143521000Y-165449250D01*
X143524072Y-164835000D01*
X146162928Y-164835000D01*
X146166000Y-165449250D01*
X146324750Y-165608000D01*
X147574000Y-165608000D01*
X147574000Y-164358750D01*
X147828000Y-164358750D01*
X147828000Y-165608000D01*
X147848000Y-165608000D01*
X147848000Y-165862000D01*
X147828000Y-165862000D01*
X147828000Y-167111250D01*
X147986750Y-167270000D01*
X148601000Y-167273072D01*
X148725482Y-167260812D01*
X148845180Y-167224502D01*
X148955494Y-167165537D01*
X149052185Y-167086185D01*
X149131537Y-166989494D01*
X149190502Y-166879180D01*
X149226812Y-166759482D01*
X149239072Y-166635000D01*
X149238945Y-166609606D01*
X149395087Y-166765748D01*
X149612430Y-166910972D01*
X149853928Y-167011004D01*
X150110302Y-167062000D01*
X150371698Y-167062000D01*
X150628072Y-167011004D01*
X150869570Y-166910972D01*
X151086913Y-166765748D01*
X151271748Y-166580913D01*
X151416972Y-166363570D01*
X151517004Y-166122072D01*
X151568000Y-165865698D01*
X151568000Y-165604302D01*
X151517004Y-165347928D01*
X151416972Y-165106430D01*
X151271748Y-164889087D01*
X151086913Y-164704252D01*
X150869570Y-164559028D01*
X150628072Y-164458996D01*
X150371698Y-164408000D01*
X150110302Y-164408000D01*
X149853928Y-164458996D01*
X149612430Y-164559028D01*
X149395087Y-164704252D01*
X149238945Y-164860394D01*
X149239072Y-164835000D01*
X149226812Y-164710518D01*
X149190502Y-164590820D01*
X149131537Y-164480506D01*
X149052185Y-164383815D01*
X148955494Y-164304463D01*
X148845180Y-164245498D01*
X148725482Y-164209188D01*
X148601000Y-164196928D01*
X147986750Y-164200000D01*
X147828000Y-164358750D01*
X147574000Y-164358750D01*
X147415250Y-164200000D01*
X146801000Y-164196928D01*
X146676518Y-164209188D01*
X146556820Y-164245498D01*
X146446506Y-164304463D01*
X146349815Y-164383815D01*
X146270463Y-164480506D01*
X146211498Y-164590820D01*
X146175188Y-164710518D01*
X146162928Y-164835000D01*
X143524072Y-164835000D01*
X143511812Y-164710518D01*
X143475502Y-164590820D01*
X143416537Y-164480506D01*
X143337185Y-164383815D01*
X143240494Y-164304463D01*
X143130180Y-164245498D01*
X143010482Y-164209188D01*
X142886000Y-164196928D01*
X142271750Y-164200000D01*
X142113000Y-164358750D01*
X141859000Y-164358750D01*
X141700250Y-164200000D01*
X141086000Y-164196928D01*
X140961518Y-164209188D01*
X140841820Y-164245498D01*
X140731506Y-164304463D01*
X140634815Y-164383815D01*
X140555463Y-164480506D01*
X140496498Y-164590820D01*
X140460188Y-164710518D01*
X140447928Y-164835000D01*
X140448055Y-164860394D01*
X140291913Y-164704252D01*
X140074570Y-164559028D01*
X139833072Y-164458996D01*
X139576698Y-164408000D01*
X139315302Y-164408000D01*
X139058928Y-164458996D01*
X138817430Y-164559028D01*
X138600087Y-164704252D01*
X138415252Y-164889087D01*
X138270028Y-165106430D01*
X138169996Y-165347928D01*
X138119000Y-165604302D01*
X120438000Y-165604302D01*
X120438000Y-162776922D01*
X123325620Y-159889302D01*
X138119000Y-159889302D01*
X138119000Y-160150698D01*
X138169996Y-160407072D01*
X138270028Y-160648570D01*
X138415252Y-160865913D01*
X138600087Y-161050748D01*
X138817430Y-161195972D01*
X139058928Y-161296004D01*
X139315302Y-161347000D01*
X139576698Y-161347000D01*
X139833072Y-161296004D01*
X140074570Y-161195972D01*
X140291913Y-161050748D01*
X140448055Y-160894606D01*
X140447928Y-160920000D01*
X140460188Y-161044482D01*
X140496498Y-161164180D01*
X140555463Y-161274494D01*
X140634815Y-161371185D01*
X140731506Y-161450537D01*
X140841820Y-161509502D01*
X140961518Y-161545812D01*
X141086000Y-161558072D01*
X141700250Y-161555000D01*
X141859000Y-161396250D01*
X141859000Y-160147000D01*
X142113000Y-160147000D01*
X142113000Y-161396250D01*
X142271750Y-161555000D01*
X142886000Y-161558072D01*
X143010482Y-161545812D01*
X143130180Y-161509502D01*
X143240494Y-161450537D01*
X143337185Y-161371185D01*
X143416537Y-161274494D01*
X143475502Y-161164180D01*
X143511812Y-161044482D01*
X143524072Y-160920000D01*
X146162928Y-160920000D01*
X146175188Y-161044482D01*
X146211498Y-161164180D01*
X146270463Y-161274494D01*
X146349815Y-161371185D01*
X146446506Y-161450537D01*
X146556820Y-161509502D01*
X146676518Y-161545812D01*
X146801000Y-161558072D01*
X147415250Y-161555000D01*
X147574000Y-161396250D01*
X147574000Y-160147000D01*
X146324750Y-160147000D01*
X146166000Y-160305750D01*
X146162928Y-160920000D01*
X143524072Y-160920000D01*
X143521000Y-160305750D01*
X143362250Y-160147000D01*
X142113000Y-160147000D01*
X141859000Y-160147000D01*
X141839000Y-160147000D01*
X141839000Y-159893000D01*
X141859000Y-159893000D01*
X141859000Y-158643750D01*
X142113000Y-158643750D01*
X142113000Y-159893000D01*
X143362250Y-159893000D01*
X143521000Y-159734250D01*
X143524072Y-159120000D01*
X146162928Y-159120000D01*
X146166000Y-159734250D01*
X146324750Y-159893000D01*
X147574000Y-159893000D01*
X147574000Y-158643750D01*
X147828000Y-158643750D01*
X147828000Y-159893000D01*
X147848000Y-159893000D01*
X147848000Y-160147000D01*
X147828000Y-160147000D01*
X147828000Y-161396250D01*
X147986750Y-161555000D01*
X148601000Y-161558072D01*
X148725482Y-161545812D01*
X148845180Y-161509502D01*
X148955494Y-161450537D01*
X149052185Y-161371185D01*
X149131537Y-161274494D01*
X149190502Y-161164180D01*
X149226812Y-161044482D01*
X149239072Y-160920000D01*
X149238945Y-160894606D01*
X149395087Y-161050748D01*
X149612430Y-161195972D01*
X149853928Y-161296004D01*
X150110302Y-161347000D01*
X150371698Y-161347000D01*
X150460229Y-161329390D01*
X165563524Y-161329390D01*
X165608175Y-161476599D01*
X165733359Y-161739420D01*
X165907412Y-161972769D01*
X166123645Y-162167678D01*
X166373748Y-162316657D01*
X166648109Y-162413981D01*
X166878000Y-162293314D01*
X166878000Y-161099500D01*
X167132000Y-161099500D01*
X167132000Y-162293314D01*
X167361891Y-162413981D01*
X167636252Y-162316657D01*
X167886355Y-162167678D01*
X168102588Y-161972769D01*
X168276641Y-161739420D01*
X168401825Y-161476599D01*
X168446476Y-161329390D01*
X168325155Y-161099500D01*
X167132000Y-161099500D01*
X166878000Y-161099500D01*
X165684845Y-161099500D01*
X165563524Y-161329390D01*
X150460229Y-161329390D01*
X150628072Y-161296004D01*
X150869570Y-161195972D01*
X151086913Y-161050748D01*
X151271748Y-160865913D01*
X151416972Y-160648570D01*
X151517004Y-160407072D01*
X151568000Y-160150698D01*
X151568000Y-159889302D01*
X151517004Y-159632928D01*
X151416972Y-159391430D01*
X151271748Y-159174087D01*
X151086913Y-158989252D01*
X150869570Y-158844028D01*
X150737663Y-158789390D01*
X165563524Y-158789390D01*
X165608175Y-158936599D01*
X165733359Y-159199420D01*
X165907412Y-159432769D01*
X166123645Y-159627678D01*
X166249255Y-159702500D01*
X166123645Y-159777322D01*
X165907412Y-159972231D01*
X165733359Y-160205580D01*
X165608175Y-160468401D01*
X165563524Y-160615610D01*
X165684845Y-160845500D01*
X166878000Y-160845500D01*
X166878000Y-158559500D01*
X167132000Y-158559500D01*
X167132000Y-160845500D01*
X168325155Y-160845500D01*
X168446476Y-160615610D01*
X168401825Y-160468401D01*
X168276641Y-160205580D01*
X168102588Y-159972231D01*
X167886355Y-159777322D01*
X167760745Y-159702500D01*
X167886355Y-159627678D01*
X168102588Y-159432769D01*
X168276641Y-159199420D01*
X168401825Y-158936599D01*
X168446476Y-158789390D01*
X168325155Y-158559500D01*
X167132000Y-158559500D01*
X166878000Y-158559500D01*
X165684845Y-158559500D01*
X165563524Y-158789390D01*
X150737663Y-158789390D01*
X150628072Y-158743996D01*
X150371698Y-158693000D01*
X150110302Y-158693000D01*
X149853928Y-158743996D01*
X149612430Y-158844028D01*
X149395087Y-158989252D01*
X149238945Y-159145394D01*
X149239072Y-159120000D01*
X149226812Y-158995518D01*
X149190502Y-158875820D01*
X149131537Y-158765506D01*
X149052185Y-158668815D01*
X148955494Y-158589463D01*
X148845180Y-158530498D01*
X148725482Y-158494188D01*
X148601000Y-158481928D01*
X147986750Y-158485000D01*
X147828000Y-158643750D01*
X147574000Y-158643750D01*
X147415250Y-158485000D01*
X146801000Y-158481928D01*
X146676518Y-158494188D01*
X146556820Y-158530498D01*
X146446506Y-158589463D01*
X146349815Y-158668815D01*
X146270463Y-158765506D01*
X146211498Y-158875820D01*
X146175188Y-158995518D01*
X146162928Y-159120000D01*
X143524072Y-159120000D01*
X143511812Y-158995518D01*
X143475502Y-158875820D01*
X143416537Y-158765506D01*
X143337185Y-158668815D01*
X143240494Y-158589463D01*
X143130180Y-158530498D01*
X143010482Y-158494188D01*
X142886000Y-158481928D01*
X142271750Y-158485000D01*
X142113000Y-158643750D01*
X141859000Y-158643750D01*
X141700250Y-158485000D01*
X141086000Y-158481928D01*
X140961518Y-158494188D01*
X140841820Y-158530498D01*
X140731506Y-158589463D01*
X140634815Y-158668815D01*
X140555463Y-158765506D01*
X140496498Y-158875820D01*
X140460188Y-158995518D01*
X140447928Y-159120000D01*
X140448055Y-159145394D01*
X140291913Y-158989252D01*
X140074570Y-158844028D01*
X139833072Y-158743996D01*
X139576698Y-158693000D01*
X139315302Y-158693000D01*
X139058928Y-158743996D01*
X138817430Y-158844028D01*
X138600087Y-158989252D01*
X138415252Y-159174087D01*
X138270028Y-159391430D01*
X138169996Y-159632928D01*
X138119000Y-159889302D01*
X123325620Y-159889302D01*
X125375422Y-157839500D01*
X153509755Y-157839500D01*
X153543000Y-157842774D01*
X153576245Y-157839500D01*
X153576252Y-157839500D01*
X153675715Y-157829704D01*
X153803330Y-157790992D01*
X153920941Y-157728128D01*
X154024027Y-157643527D01*
X154045226Y-157617696D01*
X155093422Y-156569500D01*
X165918889Y-156569500D01*
X165938076Y-156605396D01*
X166097656Y-156799844D01*
X166292104Y-156959424D01*
X166469650Y-157054324D01*
X166373748Y-157088343D01*
X166123645Y-157237322D01*
X165907412Y-157432231D01*
X165733359Y-157665580D01*
X165608175Y-157928401D01*
X165563524Y-158075610D01*
X165684845Y-158305500D01*
X166878000Y-158305500D01*
X166878000Y-158285500D01*
X167132000Y-158285500D01*
X167132000Y-158305500D01*
X168325155Y-158305500D01*
X168446476Y-158075610D01*
X168401825Y-157928401D01*
X168276641Y-157665580D01*
X168102588Y-157432231D01*
X167886355Y-157237322D01*
X167636252Y-157088343D01*
X167540350Y-157054324D01*
X167717896Y-156959424D01*
X167912344Y-156799844D01*
X168071924Y-156605396D01*
X168190502Y-156383551D01*
X168263522Y-156142836D01*
X168288178Y-155892500D01*
X168263522Y-155642164D01*
X168190502Y-155401449D01*
X168071924Y-155179604D01*
X167912344Y-154985156D01*
X167717896Y-154825576D01*
X167682000Y-154806389D01*
X167682000Y-154631566D01*
X167855000Y-154631566D01*
X167938707Y-154623322D01*
X168019196Y-154598905D01*
X168093376Y-154559255D01*
X168158395Y-154505895D01*
X168211755Y-154440876D01*
X168251405Y-154366696D01*
X168275822Y-154286207D01*
X168284066Y-154202500D01*
X168284066Y-152502500D01*
X168275822Y-152418793D01*
X168251405Y-152338304D01*
X168211755Y-152264124D01*
X168158395Y-152199105D01*
X168093376Y-152145745D01*
X168019196Y-152106095D01*
X167938707Y-152081678D01*
X167855000Y-152073434D01*
X167682000Y-152073434D01*
X167682000Y-140368241D01*
X167685274Y-140334999D01*
X167682000Y-140301757D01*
X167682000Y-140301748D01*
X167672204Y-140202285D01*
X167633492Y-140074670D01*
X167570628Y-139957059D01*
X167514558Y-139888739D01*
X167507223Y-139879801D01*
X167507222Y-139879800D01*
X167486026Y-139853973D01*
X167460200Y-139832778D01*
X166237226Y-138609804D01*
X166216027Y-138583973D01*
X166112941Y-138499372D01*
X165995330Y-138436508D01*
X165867715Y-138397796D01*
X165768252Y-138388000D01*
X165768245Y-138388000D01*
X165735000Y-138384726D01*
X165701755Y-138388000D01*
X130616321Y-138388000D01*
X130583536Y-138394521D01*
X130550285Y-138397796D01*
X130518315Y-138407494D01*
X130485526Y-138414016D01*
X130454636Y-138426811D01*
X130422670Y-138436508D01*
X130393208Y-138452256D01*
X130362320Y-138465050D01*
X130334524Y-138483623D01*
X130305059Y-138499372D01*
X130279231Y-138520568D01*
X130251437Y-138539140D01*
X130227801Y-138562776D01*
X130201973Y-138583973D01*
X130180778Y-138609799D01*
X130157140Y-138633437D01*
X130138568Y-138661231D01*
X130117372Y-138687059D01*
X130101623Y-138716524D01*
X130083050Y-138744320D01*
X130070256Y-138775208D01*
X130054508Y-138804670D01*
X130044811Y-138836636D01*
X130032016Y-138867526D01*
X130025494Y-138900315D01*
X130015796Y-138932285D01*
X130012521Y-138965536D01*
X130006000Y-138998321D01*
X130006000Y-139031748D01*
X130002725Y-139065000D01*
X130006000Y-139098252D01*
X130006000Y-139131679D01*
X130012521Y-139164464D01*
X130015796Y-139197715D01*
X130025494Y-139229685D01*
X130032016Y-139262474D01*
X130044811Y-139293364D01*
X130054508Y-139325330D01*
X130070256Y-139354792D01*
X130083050Y-139385680D01*
X130101623Y-139413476D01*
X130117372Y-139442941D01*
X130138568Y-139468769D01*
X130157140Y-139496563D01*
X130180778Y-139520201D01*
X130201973Y-139546027D01*
X130227799Y-139567222D01*
X130251437Y-139590860D01*
X130279231Y-139609432D01*
X130305059Y-139630628D01*
X130334524Y-139646377D01*
X130362320Y-139664950D01*
X130393208Y-139677744D01*
X130422670Y-139693492D01*
X130454636Y-139703189D01*
X130485526Y-139715984D01*
X130518315Y-139722506D01*
X130550285Y-139732204D01*
X130583536Y-139735479D01*
X130616321Y-139742000D01*
X165454578Y-139742000D01*
X166328000Y-140615422D01*
X166328001Y-152073434D01*
X166155000Y-152073434D01*
X166071293Y-152081678D01*
X165990804Y-152106095D01*
X165916624Y-152145745D01*
X165851605Y-152199105D01*
X165798245Y-152264124D01*
X165758595Y-152338304D01*
X165734178Y-152418793D01*
X165725934Y-152502500D01*
X165725934Y-154202500D01*
X165734178Y-154286207D01*
X165758595Y-154366696D01*
X165798245Y-154440876D01*
X165851605Y-154505895D01*
X165916624Y-154559255D01*
X165990804Y-154598905D01*
X166071293Y-154623322D01*
X166155000Y-154631566D01*
X166328000Y-154631566D01*
X166328000Y-154806389D01*
X166292104Y-154825576D01*
X166097656Y-154985156D01*
X165938076Y-155179604D01*
X165918889Y-155215500D01*
X154846241Y-155215500D01*
X154812999Y-155212226D01*
X154779757Y-155215500D01*
X154779748Y-155215500D01*
X154680285Y-155225296D01*
X154552670Y-155264008D01*
X154435059Y-155326872D01*
X154331973Y-155411473D01*
X154310774Y-155437304D01*
X153262578Y-156485500D01*
X125481502Y-156485500D01*
X127792700Y-154174302D01*
X138119000Y-154174302D01*
X138119000Y-154435698D01*
X138169996Y-154692072D01*
X138270028Y-154933570D01*
X138415252Y-155150913D01*
X138600087Y-155335748D01*
X138817430Y-155480972D01*
X139058928Y-155581004D01*
X139315302Y-155632000D01*
X139576698Y-155632000D01*
X139833072Y-155581004D01*
X140074570Y-155480972D01*
X140291913Y-155335748D01*
X140448055Y-155179606D01*
X140447928Y-155205000D01*
X140460188Y-155329482D01*
X140496498Y-155449180D01*
X140555463Y-155559494D01*
X140634815Y-155656185D01*
X140731506Y-155735537D01*
X140841820Y-155794502D01*
X140961518Y-155830812D01*
X141086000Y-155843072D01*
X141700250Y-155840000D01*
X141859000Y-155681250D01*
X141859000Y-154432000D01*
X142113000Y-154432000D01*
X142113000Y-155681250D01*
X142271750Y-155840000D01*
X142886000Y-155843072D01*
X143010482Y-155830812D01*
X143130180Y-155794502D01*
X143240494Y-155735537D01*
X143337185Y-155656185D01*
X143416537Y-155559494D01*
X143475502Y-155449180D01*
X143511812Y-155329482D01*
X143524072Y-155205000D01*
X146162928Y-155205000D01*
X146175188Y-155329482D01*
X146211498Y-155449180D01*
X146270463Y-155559494D01*
X146349815Y-155656185D01*
X146446506Y-155735537D01*
X146556820Y-155794502D01*
X146676518Y-155830812D01*
X146801000Y-155843072D01*
X147415250Y-155840000D01*
X147574000Y-155681250D01*
X147574000Y-154432000D01*
X146324750Y-154432000D01*
X146166000Y-154590750D01*
X146162928Y-155205000D01*
X143524072Y-155205000D01*
X143521000Y-154590750D01*
X143362250Y-154432000D01*
X142113000Y-154432000D01*
X141859000Y-154432000D01*
X141839000Y-154432000D01*
X141839000Y-154178000D01*
X141859000Y-154178000D01*
X141859000Y-152928750D01*
X142113000Y-152928750D01*
X142113000Y-154178000D01*
X143362250Y-154178000D01*
X143521000Y-154019250D01*
X143524072Y-153405000D01*
X146162928Y-153405000D01*
X146166000Y-154019250D01*
X146324750Y-154178000D01*
X147574000Y-154178000D01*
X147574000Y-152928750D01*
X147828000Y-152928750D01*
X147828000Y-154178000D01*
X147848000Y-154178000D01*
X147848000Y-154432000D01*
X147828000Y-154432000D01*
X147828000Y-155681250D01*
X147986750Y-155840000D01*
X148601000Y-155843072D01*
X148725482Y-155830812D01*
X148845180Y-155794502D01*
X148955494Y-155735537D01*
X149052185Y-155656185D01*
X149131537Y-155559494D01*
X149190502Y-155449180D01*
X149226812Y-155329482D01*
X149239072Y-155205000D01*
X149238945Y-155179606D01*
X149395087Y-155335748D01*
X149612430Y-155480972D01*
X149853928Y-155581004D01*
X150110302Y-155632000D01*
X150371698Y-155632000D01*
X150628072Y-155581004D01*
X150869570Y-155480972D01*
X151086913Y-155335748D01*
X151271748Y-155150913D01*
X151416972Y-154933570D01*
X151517004Y-154692072D01*
X151568000Y-154435698D01*
X151568000Y-154174302D01*
X151517004Y-153917928D01*
X151416972Y-153676430D01*
X151271748Y-153459087D01*
X151086913Y-153274252D01*
X150869570Y-153129028D01*
X150628072Y-153028996D01*
X150371698Y-152978000D01*
X150110302Y-152978000D01*
X149853928Y-153028996D01*
X149612430Y-153129028D01*
X149395087Y-153274252D01*
X149238945Y-153430394D01*
X149239072Y-153405000D01*
X149226812Y-153280518D01*
X149190502Y-153160820D01*
X149131537Y-153050506D01*
X149052185Y-152953815D01*
X148955494Y-152874463D01*
X148845180Y-152815498D01*
X148725482Y-152779188D01*
X148601000Y-152766928D01*
X147986750Y-152770000D01*
X147828000Y-152928750D01*
X147574000Y-152928750D01*
X147415250Y-152770000D01*
X146801000Y-152766928D01*
X146676518Y-152779188D01*
X146556820Y-152815498D01*
X146446506Y-152874463D01*
X146349815Y-152953815D01*
X146270463Y-153050506D01*
X146211498Y-153160820D01*
X146175188Y-153280518D01*
X146162928Y-153405000D01*
X143524072Y-153405000D01*
X143511812Y-153280518D01*
X143475502Y-153160820D01*
X143416537Y-153050506D01*
X143337185Y-152953815D01*
X143240494Y-152874463D01*
X143130180Y-152815498D01*
X143010482Y-152779188D01*
X142886000Y-152766928D01*
X142271750Y-152770000D01*
X142113000Y-152928750D01*
X141859000Y-152928750D01*
X141700250Y-152770000D01*
X141086000Y-152766928D01*
X140961518Y-152779188D01*
X140841820Y-152815498D01*
X140731506Y-152874463D01*
X140634815Y-152953815D01*
X140555463Y-153050506D01*
X140496498Y-153160820D01*
X140460188Y-153280518D01*
X140447928Y-153405000D01*
X140448055Y-153430394D01*
X140291913Y-153274252D01*
X140074570Y-153129028D01*
X139833072Y-153028996D01*
X139576698Y-152978000D01*
X139315302Y-152978000D01*
X139058928Y-153028996D01*
X138817430Y-153129028D01*
X138600087Y-153274252D01*
X138415252Y-153459087D01*
X138270028Y-153676430D01*
X138169996Y-153917928D01*
X138119000Y-154174302D01*
X127792700Y-154174302D01*
X130100002Y-151867000D01*
X155415973Y-151867000D01*
X155450320Y-151889950D01*
X155573526Y-151940984D01*
X155704321Y-151967000D01*
X155837679Y-151967000D01*
X155968474Y-151940984D01*
X156091680Y-151889950D01*
X156202563Y-151815860D01*
X156296860Y-151721563D01*
X156370950Y-151610680D01*
X156421984Y-151487474D01*
X156448000Y-151356679D01*
X156448000Y-151223321D01*
X156421984Y-151092526D01*
X156370950Y-150969320D01*
X156296860Y-150858437D01*
X156202563Y-150764140D01*
X156091680Y-150690050D01*
X155968474Y-150639016D01*
X155837679Y-150613000D01*
X155704321Y-150613000D01*
X155573526Y-150639016D01*
X155450320Y-150690050D01*
X155415973Y-150713000D01*
X129889328Y-150713000D01*
X129860999Y-150710210D01*
X129832670Y-150713000D01*
X129832664Y-150713000D01*
X129747888Y-150721350D01*
X129639124Y-150754343D01*
X129538885Y-150807921D01*
X129492980Y-150845595D01*
X129473035Y-150861963D01*
X129473033Y-150861965D01*
X129451026Y-150880026D01*
X129432965Y-150902033D01*
X124828000Y-155506998D01*
X124828000Y-154675027D01*
X124850950Y-154640680D01*
X124901984Y-154517474D01*
X124928000Y-154386679D01*
X124928000Y-154253321D01*
X124901984Y-154122526D01*
X124850950Y-153999320D01*
X124776860Y-153888437D01*
X124682563Y-153794140D01*
X124571680Y-153720050D01*
X124448474Y-153669016D01*
X124317679Y-153643000D01*
X124184321Y-153643000D01*
X124053526Y-153669016D01*
X123930320Y-153720050D01*
X123819437Y-153794140D01*
X123725140Y-153888437D01*
X123651050Y-153999320D01*
X123600016Y-154122526D01*
X123574000Y-154253321D01*
X123574000Y-154386679D01*
X123600016Y-154517474D01*
X123651050Y-154640680D01*
X123674001Y-154675028D01*
X123674000Y-155760999D01*
X114621999Y-164813000D01*
X95759339Y-164813000D01*
X95731000Y-164810209D01*
X95617888Y-164821349D01*
X95509123Y-164854343D01*
X95483228Y-164868184D01*
X95408885Y-164907921D01*
X95321026Y-164980026D01*
X95302963Y-165002036D01*
X93241999Y-167063000D01*
X91596027Y-167063000D01*
X91561680Y-167040050D01*
X91438474Y-166989016D01*
X91307679Y-166963000D01*
X91174321Y-166963000D01*
X91043526Y-166989016D01*
X90920320Y-167040050D01*
X90809437Y-167114140D01*
X90715140Y-167208437D01*
X90641050Y-167319320D01*
X90590016Y-167442526D01*
X90564000Y-167573321D01*
X90564000Y-167706679D01*
X90590016Y-167837474D01*
X90641050Y-167960680D01*
X90715140Y-168071563D01*
X90809437Y-168165860D01*
X90920320Y-168239950D01*
X91004938Y-168275000D01*
X90920320Y-168310050D01*
X90809437Y-168384140D01*
X90715140Y-168478437D01*
X90641050Y-168589320D01*
X90590016Y-168712526D01*
X90564000Y-168843321D01*
X90564000Y-168976679D01*
X90590016Y-169107474D01*
X90641050Y-169230680D01*
X90715140Y-169341563D01*
X90809437Y-169435860D01*
X90909919Y-169503000D01*
X87055321Y-169503000D01*
X87022536Y-169509521D01*
X86989285Y-169512796D01*
X86957315Y-169522494D01*
X86924526Y-169529016D01*
X86893636Y-169541811D01*
X86861670Y-169551508D01*
X86832208Y-169567256D01*
X86808000Y-169577283D01*
X86808000Y-165448328D01*
X86810790Y-165419999D01*
X86808000Y-165391670D01*
X86808000Y-165391664D01*
X86799650Y-165306888D01*
X86766657Y-165198124D01*
X86713079Y-165097885D01*
X86640974Y-165010026D01*
X86618968Y-164991966D01*
X86134001Y-164507000D01*
X87188679Y-164507000D01*
X87221464Y-164500479D01*
X87254715Y-164497204D01*
X87286685Y-164487506D01*
X87319474Y-164480984D01*
X87350364Y-164468189D01*
X87382330Y-164458492D01*
X87411792Y-164442744D01*
X87442680Y-164429950D01*
X87470476Y-164411377D01*
X87499941Y-164395628D01*
X87525769Y-164374432D01*
X87553563Y-164355860D01*
X87577201Y-164332222D01*
X87603027Y-164311027D01*
X87624222Y-164285201D01*
X87647860Y-164261563D01*
X87666432Y-164233769D01*
X87687628Y-164207941D01*
X87703377Y-164178476D01*
X87721950Y-164150680D01*
X87734744Y-164119792D01*
X87750492Y-164090330D01*
X87760189Y-164058364D01*
X87772984Y-164027474D01*
X87779506Y-163994685D01*
X87789204Y-163962715D01*
X87792479Y-163929464D01*
X87799000Y-163896679D01*
X87799000Y-163863252D01*
X87802275Y-163830000D01*
X87799000Y-163796748D01*
X87799000Y-163763321D01*
X87792479Y-163730536D01*
X87789204Y-163697285D01*
X87779506Y-163665315D01*
X87772984Y-163632526D01*
X87760189Y-163601636D01*
X87750492Y-163569670D01*
X87734744Y-163540208D01*
X87721950Y-163509320D01*
X87703377Y-163481524D01*
X87687628Y-163452059D01*
X87666432Y-163426231D01*
X87647860Y-163398437D01*
X87624222Y-163374799D01*
X87603027Y-163348973D01*
X87577201Y-163327778D01*
X87553563Y-163304140D01*
X87525769Y-163285568D01*
X87499941Y-163264372D01*
X87470476Y-163248623D01*
X87442680Y-163230050D01*
X87411792Y-163217256D01*
X87382330Y-163201508D01*
X87350364Y-163191811D01*
X87319474Y-163179016D01*
X87286685Y-163172494D01*
X87254715Y-163162796D01*
X87221464Y-163159521D01*
X87188679Y-163153000D01*
X85150321Y-163153000D01*
X85117536Y-163159521D01*
X85084285Y-163162796D01*
X85052315Y-163172494D01*
X85019526Y-163179016D01*
X84988636Y-163191811D01*
X84956670Y-163201508D01*
X84927208Y-163217256D01*
X84896320Y-163230050D01*
X84868524Y-163248623D01*
X84839059Y-163264372D01*
X84813231Y-163285568D01*
X84785437Y-163304140D01*
X84761799Y-163327778D01*
X84735973Y-163348973D01*
X84714778Y-163374799D01*
X84691140Y-163398437D01*
X84672568Y-163426231D01*
X84651372Y-163452059D01*
X84635623Y-163481524D01*
X84617050Y-163509320D01*
X84604256Y-163540208D01*
X84588508Y-163569670D01*
X84578811Y-163601636D01*
X84566016Y-163632526D01*
X84559494Y-163665315D01*
X84549796Y-163697285D01*
X84546521Y-163730536D01*
X84540000Y-163763321D01*
X84540000Y-163796748D01*
X84536725Y-163830000D01*
X84540000Y-163863252D01*
X84540000Y-163896679D01*
X84546521Y-163929464D01*
X84549796Y-163962715D01*
X84559494Y-163994685D01*
X84566016Y-164027474D01*
X84578811Y-164058364D01*
X84588508Y-164090330D01*
X84604256Y-164119792D01*
X84617050Y-164150680D01*
X84625282Y-164163000D01*
X84586027Y-164163000D01*
X84551680Y-164140050D01*
X84428474Y-164089016D01*
X84297679Y-164063000D01*
X84164321Y-164063000D01*
X84033526Y-164089016D01*
X83910320Y-164140050D01*
X83799437Y-164214140D01*
X83705140Y-164308437D01*
X83631050Y-164419320D01*
X83580016Y-164542526D01*
X83554000Y-164673321D01*
X83554000Y-164806679D01*
X83580016Y-164937474D01*
X83631050Y-165060680D01*
X83705140Y-165171563D01*
X83799437Y-165265860D01*
X83910320Y-165339950D01*
X84033526Y-165390984D01*
X84164321Y-165417000D01*
X84297679Y-165417000D01*
X84428474Y-165390984D01*
X84551680Y-165339950D01*
X84586027Y-165317000D01*
X85311999Y-165317000D01*
X85654000Y-165659002D01*
X85654001Y-175101655D01*
X85654000Y-175101665D01*
X85654000Y-175691669D01*
X85651210Y-175720000D01*
X85662349Y-175833111D01*
X85675042Y-175874953D01*
X85695343Y-175941876D01*
X85748922Y-176042115D01*
X85779840Y-176079788D01*
X85802963Y-176107964D01*
X85802966Y-176107967D01*
X85821027Y-176129974D01*
X85843033Y-176148034D01*
X86402965Y-176707967D01*
X86407096Y-176713000D01*
X77492108Y-176713000D01*
X76941517Y-176659014D01*
X76433172Y-176505536D01*
X75964315Y-176256240D01*
X75552807Y-175920622D01*
X75214330Y-175511473D01*
X74961764Y-175044363D01*
X74804741Y-174537100D01*
X74747000Y-173987743D01*
X74747000Y-172402393D01*
X74778921Y-172462114D01*
X74851026Y-172549974D01*
X74873038Y-172568039D01*
X75191957Y-172886959D01*
X75200016Y-172927474D01*
X75251050Y-173050680D01*
X75325140Y-173161563D01*
X75419437Y-173255860D01*
X75530320Y-173329950D01*
X75653526Y-173380984D01*
X75784321Y-173407000D01*
X75917679Y-173407000D01*
X76048474Y-173380984D01*
X76171680Y-173329950D01*
X76282563Y-173255860D01*
X76376860Y-173161563D01*
X76450950Y-173050680D01*
X76501984Y-172927474D01*
X76528000Y-172796679D01*
X76528000Y-172663321D01*
X76501984Y-172532526D01*
X76450950Y-172409320D01*
X76376860Y-172298437D01*
X76282563Y-172204140D01*
X76171680Y-172130050D01*
X76048474Y-172079016D01*
X76007959Y-172070957D01*
X75838000Y-171900999D01*
X75838000Y-163333437D01*
X75953645Y-163437678D01*
X76203748Y-163586657D01*
X76478109Y-163683981D01*
X76708000Y-163563314D01*
X76708000Y-162369500D01*
X76688000Y-162369500D01*
X76688000Y-162115500D01*
X76708000Y-162115500D01*
X76708000Y-162095500D01*
X76962000Y-162095500D01*
X76962000Y-162115500D01*
X76982000Y-162115500D01*
X76982000Y-162369500D01*
X76962000Y-162369500D01*
X76962000Y-163563314D01*
X77191891Y-163683981D01*
X77466252Y-163586657D01*
X77716355Y-163437678D01*
X77932588Y-163242769D01*
X78106641Y-163009420D01*
X78215166Y-162781573D01*
X78308076Y-162955396D01*
X78467656Y-163149844D01*
X78662104Y-163309424D01*
X78883949Y-163428002D01*
X79124664Y-163501022D01*
X79312274Y-163519500D01*
X79437726Y-163519500D01*
X79625336Y-163501022D01*
X79866051Y-163428002D01*
X80087896Y-163309424D01*
X80282344Y-163149844D01*
X80352546Y-163064302D01*
X99384000Y-163064302D01*
X99384000Y-163325698D01*
X99434996Y-163582072D01*
X99535028Y-163823570D01*
X99680252Y-164040913D01*
X99865087Y-164225748D01*
X100082430Y-164370972D01*
X100323928Y-164471004D01*
X100580302Y-164522000D01*
X100841698Y-164522000D01*
X101098072Y-164471004D01*
X101339570Y-164370972D01*
X101556913Y-164225748D01*
X101713055Y-164069606D01*
X101712928Y-164095000D01*
X101725188Y-164219482D01*
X101761498Y-164339180D01*
X101820463Y-164449494D01*
X101899815Y-164546185D01*
X101996506Y-164625537D01*
X102106820Y-164684502D01*
X102226518Y-164720812D01*
X102351000Y-164733072D01*
X102965250Y-164730000D01*
X103124000Y-164571250D01*
X103124000Y-163322000D01*
X103378000Y-163322000D01*
X103378000Y-164571250D01*
X103536750Y-164730000D01*
X104151000Y-164733072D01*
X104275482Y-164720812D01*
X104395180Y-164684502D01*
X104505494Y-164625537D01*
X104602185Y-164546185D01*
X104681537Y-164449494D01*
X104740502Y-164339180D01*
X104776812Y-164219482D01*
X104789072Y-164095000D01*
X104786000Y-163480750D01*
X104627250Y-163322000D01*
X103378000Y-163322000D01*
X103124000Y-163322000D01*
X103104000Y-163322000D01*
X103104000Y-163068000D01*
X103124000Y-163068000D01*
X103124000Y-161818750D01*
X103378000Y-161818750D01*
X103378000Y-163068000D01*
X104627250Y-163068000D01*
X104786000Y-162909250D01*
X104789072Y-162295000D01*
X104776812Y-162170518D01*
X104740502Y-162050820D01*
X104681537Y-161940506D01*
X104602185Y-161843815D01*
X104505494Y-161764463D01*
X104395180Y-161705498D01*
X104275482Y-161669188D01*
X104151000Y-161656928D01*
X103536750Y-161660000D01*
X103378000Y-161818750D01*
X103124000Y-161818750D01*
X102965250Y-161660000D01*
X102351000Y-161656928D01*
X102226518Y-161669188D01*
X102106820Y-161705498D01*
X101996506Y-161764463D01*
X101899815Y-161843815D01*
X101820463Y-161940506D01*
X101761498Y-162050820D01*
X101725188Y-162170518D01*
X101712928Y-162295000D01*
X101713055Y-162320394D01*
X101556913Y-162164252D01*
X101339570Y-162019028D01*
X101098072Y-161918996D01*
X100841698Y-161868000D01*
X100580302Y-161868000D01*
X100323928Y-161918996D01*
X100082430Y-162019028D01*
X99865087Y-162164252D01*
X99680252Y-162349087D01*
X99535028Y-162566430D01*
X99434996Y-162807928D01*
X99384000Y-163064302D01*
X80352546Y-163064302D01*
X80441924Y-162955396D01*
X80514562Y-162819500D01*
X81357216Y-162819500D01*
X81382526Y-162829984D01*
X81513321Y-162856000D01*
X81646679Y-162856000D01*
X81777474Y-162829984D01*
X81900680Y-162778950D01*
X81935027Y-162756000D01*
X90173669Y-162756000D01*
X90202000Y-162758790D01*
X90230331Y-162756000D01*
X90230336Y-162756000D01*
X90260045Y-162753074D01*
X90315111Y-162747651D01*
X90361590Y-162733551D01*
X90423876Y-162714657D01*
X90524115Y-162661079D01*
X90611974Y-162588974D01*
X90630039Y-162566962D01*
X91860002Y-161337000D01*
X111895973Y-161337000D01*
X111930320Y-161359950D01*
X112053526Y-161410984D01*
X112184321Y-161437000D01*
X112317679Y-161437000D01*
X112448474Y-161410984D01*
X112571680Y-161359950D01*
X112682563Y-161285860D01*
X112776860Y-161191563D01*
X112850950Y-161080680D01*
X112901984Y-160957474D01*
X112928000Y-160826679D01*
X112928000Y-160693321D01*
X112901984Y-160562526D01*
X112850950Y-160439320D01*
X112776860Y-160328437D01*
X112682563Y-160234140D01*
X112571680Y-160160050D01*
X112448474Y-160109016D01*
X112317679Y-160083000D01*
X112184321Y-160083000D01*
X112053526Y-160109016D01*
X111930320Y-160160050D01*
X111895973Y-160183000D01*
X111839263Y-160183000D01*
X111900950Y-160090680D01*
X111951984Y-159967474D01*
X111978000Y-159836679D01*
X111978000Y-159703321D01*
X111951984Y-159572526D01*
X111900950Y-159449320D01*
X111826860Y-159338437D01*
X111732563Y-159244140D01*
X111621680Y-159170050D01*
X111498474Y-159119016D01*
X111367679Y-159093000D01*
X111234321Y-159093000D01*
X111103526Y-159119016D01*
X110980320Y-159170050D01*
X110945973Y-159193000D01*
X91719339Y-159193000D01*
X91691000Y-159190209D01*
X91577888Y-159201349D01*
X91469123Y-159234343D01*
X91450795Y-159244140D01*
X91368885Y-159287921D01*
X91281026Y-159360026D01*
X91262961Y-159382038D01*
X89711999Y-160933000D01*
X83290001Y-160933000D01*
X81608039Y-159251038D01*
X81589974Y-159229026D01*
X81502115Y-159156921D01*
X81401876Y-159103343D01*
X81337770Y-159083897D01*
X81293111Y-159070349D01*
X81238045Y-159064926D01*
X81208336Y-159062000D01*
X81208331Y-159062000D01*
X81180000Y-159059210D01*
X81151669Y-159062000D01*
X80480620Y-159062000D01*
X80441924Y-158989604D01*
X80282344Y-158795156D01*
X80087896Y-158635576D01*
X79866051Y-158516998D01*
X79625336Y-158443978D01*
X79508798Y-158432500D01*
X79625336Y-158421022D01*
X79866051Y-158348002D01*
X80087896Y-158229424D01*
X80282344Y-158069844D01*
X80441924Y-157875396D01*
X80560502Y-157653551D01*
X80633522Y-157412836D01*
X80639779Y-157349302D01*
X86303000Y-157349302D01*
X86303000Y-157610698D01*
X86353996Y-157867072D01*
X86454028Y-158108570D01*
X86599252Y-158325913D01*
X86784087Y-158510748D01*
X87001430Y-158655972D01*
X87242928Y-158756004D01*
X87499302Y-158807000D01*
X87760698Y-158807000D01*
X88017072Y-158756004D01*
X88258570Y-158655972D01*
X88475913Y-158510748D01*
X88632055Y-158354606D01*
X88631928Y-158380000D01*
X88644188Y-158504482D01*
X88680498Y-158624180D01*
X88739463Y-158734494D01*
X88818815Y-158831185D01*
X88915506Y-158910537D01*
X89025820Y-158969502D01*
X89145518Y-159005812D01*
X89270000Y-159018072D01*
X89884250Y-159015000D01*
X90043000Y-158856250D01*
X90043000Y-157607000D01*
X90297000Y-157607000D01*
X90297000Y-158856250D01*
X90455750Y-159015000D01*
X91070000Y-159018072D01*
X91194482Y-159005812D01*
X91314180Y-158969502D01*
X91424494Y-158910537D01*
X91521185Y-158831185D01*
X91600537Y-158734494D01*
X91659502Y-158624180D01*
X91695812Y-158504482D01*
X91708072Y-158380000D01*
X91705000Y-157765750D01*
X91546250Y-157607000D01*
X90297000Y-157607000D01*
X90043000Y-157607000D01*
X90023000Y-157607000D01*
X90023000Y-157353000D01*
X90043000Y-157353000D01*
X90043000Y-156103750D01*
X90297000Y-156103750D01*
X90297000Y-157353000D01*
X91546250Y-157353000D01*
X91549948Y-157349302D01*
X99384000Y-157349302D01*
X99384000Y-157610698D01*
X99434996Y-157867072D01*
X99535028Y-158108570D01*
X99680252Y-158325913D01*
X99865087Y-158510748D01*
X100082430Y-158655972D01*
X100323928Y-158756004D01*
X100580302Y-158807000D01*
X100841698Y-158807000D01*
X101098072Y-158756004D01*
X101339570Y-158655972D01*
X101556913Y-158510748D01*
X101713055Y-158354606D01*
X101712928Y-158380000D01*
X101725188Y-158504482D01*
X101761498Y-158624180D01*
X101820463Y-158734494D01*
X101899815Y-158831185D01*
X101996506Y-158910537D01*
X102106820Y-158969502D01*
X102226518Y-159005812D01*
X102351000Y-159018072D01*
X102965250Y-159015000D01*
X103124000Y-158856250D01*
X103124000Y-157607000D01*
X103378000Y-157607000D01*
X103378000Y-158856250D01*
X103536750Y-159015000D01*
X104151000Y-159018072D01*
X104275482Y-159005812D01*
X104395180Y-158969502D01*
X104505494Y-158910537D01*
X104602185Y-158831185D01*
X104681537Y-158734494D01*
X104740502Y-158624180D01*
X104776812Y-158504482D01*
X104789072Y-158380000D01*
X104786000Y-157765750D01*
X104627250Y-157607000D01*
X103378000Y-157607000D01*
X103124000Y-157607000D01*
X103104000Y-157607000D01*
X103104000Y-157353000D01*
X103124000Y-157353000D01*
X103124000Y-156103750D01*
X103378000Y-156103750D01*
X103378000Y-157353000D01*
X104627250Y-157353000D01*
X104786000Y-157194250D01*
X104789072Y-156580000D01*
X104776812Y-156455518D01*
X104740502Y-156335820D01*
X104681537Y-156225506D01*
X104602185Y-156128815D01*
X104505494Y-156049463D01*
X104395180Y-155990498D01*
X104275482Y-155954188D01*
X104151000Y-155941928D01*
X103536750Y-155945000D01*
X103378000Y-156103750D01*
X103124000Y-156103750D01*
X102965250Y-155945000D01*
X102351000Y-155941928D01*
X102226518Y-155954188D01*
X102106820Y-155990498D01*
X101996506Y-156049463D01*
X101899815Y-156128815D01*
X101820463Y-156225506D01*
X101761498Y-156335820D01*
X101725188Y-156455518D01*
X101712928Y-156580000D01*
X101713055Y-156605394D01*
X101556913Y-156449252D01*
X101339570Y-156304028D01*
X101098072Y-156203996D01*
X100841698Y-156153000D01*
X100580302Y-156153000D01*
X100323928Y-156203996D01*
X100082430Y-156304028D01*
X99865087Y-156449252D01*
X99680252Y-156634087D01*
X99535028Y-156851430D01*
X99434996Y-157092928D01*
X99384000Y-157349302D01*
X91549948Y-157349302D01*
X91705000Y-157194250D01*
X91708072Y-156580000D01*
X91695812Y-156455518D01*
X91659502Y-156335820D01*
X91600537Y-156225506D01*
X91521185Y-156128815D01*
X91424494Y-156049463D01*
X91314180Y-155990498D01*
X91194482Y-155954188D01*
X91070000Y-155941928D01*
X90455750Y-155945000D01*
X90297000Y-156103750D01*
X90043000Y-156103750D01*
X89884250Y-155945000D01*
X89270000Y-155941928D01*
X89145518Y-155954188D01*
X89025820Y-155990498D01*
X88915506Y-156049463D01*
X88818815Y-156128815D01*
X88739463Y-156225506D01*
X88680498Y-156335820D01*
X88644188Y-156455518D01*
X88631928Y-156580000D01*
X88632055Y-156605394D01*
X88475913Y-156449252D01*
X88258570Y-156304028D01*
X88017072Y-156203996D01*
X87760698Y-156153000D01*
X87499302Y-156153000D01*
X87242928Y-156203996D01*
X87001430Y-156304028D01*
X86784087Y-156449252D01*
X86599252Y-156634087D01*
X86454028Y-156851430D01*
X86353996Y-157092928D01*
X86303000Y-157349302D01*
X80639779Y-157349302D01*
X80658178Y-157162500D01*
X80633522Y-156912164D01*
X80560502Y-156671449D01*
X80441924Y-156449604D01*
X80282344Y-156255156D01*
X80087896Y-156095576D01*
X79866051Y-155976998D01*
X79625336Y-155903978D01*
X79508798Y-155892500D01*
X79625336Y-155881022D01*
X79866051Y-155808002D01*
X80087896Y-155689424D01*
X80282344Y-155529844D01*
X80441924Y-155335396D01*
X80560502Y-155113551D01*
X80633522Y-154872836D01*
X80658178Y-154622500D01*
X80633522Y-154372164D01*
X80560502Y-154131449D01*
X80441924Y-153909604D01*
X80282344Y-153715156D01*
X80087896Y-153555576D01*
X79866051Y-153436998D01*
X79625336Y-153363978D01*
X79600847Y-153361566D01*
X80225000Y-153361566D01*
X80308707Y-153353322D01*
X80389196Y-153328905D01*
X80463376Y-153289255D01*
X80528395Y-153235895D01*
X80581755Y-153170876D01*
X80621405Y-153096696D01*
X80645822Y-153016207D01*
X80654066Y-152932500D01*
X80654066Y-151634302D01*
X86303000Y-151634302D01*
X86303000Y-151895698D01*
X86353996Y-152152072D01*
X86454028Y-152393570D01*
X86599252Y-152610913D01*
X86784087Y-152795748D01*
X87001430Y-152940972D01*
X87242928Y-153041004D01*
X87499302Y-153092000D01*
X87760698Y-153092000D01*
X88017072Y-153041004D01*
X88258570Y-152940972D01*
X88475913Y-152795748D01*
X88632055Y-152639606D01*
X88631928Y-152665000D01*
X88644188Y-152789482D01*
X88680498Y-152909180D01*
X88739463Y-153019494D01*
X88818815Y-153116185D01*
X88915506Y-153195537D01*
X89025820Y-153254502D01*
X89145518Y-153290812D01*
X89270000Y-153303072D01*
X89884250Y-153300000D01*
X90043000Y-153141250D01*
X90043000Y-151892000D01*
X90297000Y-151892000D01*
X90297000Y-153141250D01*
X90455750Y-153300000D01*
X91070000Y-153303072D01*
X91194482Y-153290812D01*
X91314180Y-153254502D01*
X91424494Y-153195537D01*
X91521185Y-153116185D01*
X91600537Y-153019494D01*
X91659502Y-152909180D01*
X91695812Y-152789482D01*
X91708072Y-152665000D01*
X91705000Y-152050750D01*
X91546250Y-151892000D01*
X90297000Y-151892000D01*
X90043000Y-151892000D01*
X90023000Y-151892000D01*
X90023000Y-151638000D01*
X90043000Y-151638000D01*
X90043000Y-150388750D01*
X90297000Y-150388750D01*
X90297000Y-151638000D01*
X91546250Y-151638000D01*
X91549948Y-151634302D01*
X99384000Y-151634302D01*
X99384000Y-151895698D01*
X99434996Y-152152072D01*
X99535028Y-152393570D01*
X99680252Y-152610913D01*
X99865087Y-152795748D01*
X100082430Y-152940972D01*
X100323928Y-153041004D01*
X100580302Y-153092000D01*
X100841698Y-153092000D01*
X101098072Y-153041004D01*
X101339570Y-152940972D01*
X101556913Y-152795748D01*
X101713055Y-152639606D01*
X101712928Y-152665000D01*
X101725188Y-152789482D01*
X101761498Y-152909180D01*
X101820463Y-153019494D01*
X101899815Y-153116185D01*
X101996506Y-153195537D01*
X102106820Y-153254502D01*
X102226518Y-153290812D01*
X102351000Y-153303072D01*
X102965250Y-153300000D01*
X103124000Y-153141250D01*
X103124000Y-151892000D01*
X103378000Y-151892000D01*
X103378000Y-153141250D01*
X103536750Y-153300000D01*
X104151000Y-153303072D01*
X104275482Y-153290812D01*
X104395180Y-153254502D01*
X104505494Y-153195537D01*
X104602185Y-153116185D01*
X104681537Y-153019494D01*
X104740502Y-152909180D01*
X104776812Y-152789482D01*
X104789072Y-152665000D01*
X104786000Y-152050750D01*
X104627250Y-151892000D01*
X103378000Y-151892000D01*
X103124000Y-151892000D01*
X103104000Y-151892000D01*
X103104000Y-151638000D01*
X103124000Y-151638000D01*
X103124000Y-150388750D01*
X103378000Y-150388750D01*
X103378000Y-151638000D01*
X104627250Y-151638000D01*
X104786000Y-151479250D01*
X104789072Y-150865000D01*
X104776812Y-150740518D01*
X104740502Y-150620820D01*
X104681537Y-150510506D01*
X104602185Y-150413815D01*
X104505494Y-150334463D01*
X104395180Y-150275498D01*
X104275482Y-150239188D01*
X104151000Y-150226928D01*
X103536750Y-150230000D01*
X103378000Y-150388750D01*
X103124000Y-150388750D01*
X102965250Y-150230000D01*
X102351000Y-150226928D01*
X102226518Y-150239188D01*
X102106820Y-150275498D01*
X101996506Y-150334463D01*
X101899815Y-150413815D01*
X101820463Y-150510506D01*
X101761498Y-150620820D01*
X101725188Y-150740518D01*
X101712928Y-150865000D01*
X101713055Y-150890394D01*
X101556913Y-150734252D01*
X101339570Y-150589028D01*
X101098072Y-150488996D01*
X100841698Y-150438000D01*
X100580302Y-150438000D01*
X100323928Y-150488996D01*
X100082430Y-150589028D01*
X99865087Y-150734252D01*
X99680252Y-150919087D01*
X99535028Y-151136430D01*
X99434996Y-151377928D01*
X99384000Y-151634302D01*
X91549948Y-151634302D01*
X91705000Y-151479250D01*
X91708072Y-150865000D01*
X91695812Y-150740518D01*
X91659502Y-150620820D01*
X91600537Y-150510506D01*
X91521185Y-150413815D01*
X91424494Y-150334463D01*
X91314180Y-150275498D01*
X91194482Y-150239188D01*
X91070000Y-150226928D01*
X90455750Y-150230000D01*
X90297000Y-150388750D01*
X90043000Y-150388750D01*
X89884250Y-150230000D01*
X89270000Y-150226928D01*
X89145518Y-150239188D01*
X89025820Y-150275498D01*
X88915506Y-150334463D01*
X88818815Y-150413815D01*
X88739463Y-150510506D01*
X88680498Y-150620820D01*
X88644188Y-150740518D01*
X88631928Y-150865000D01*
X88632055Y-150890394D01*
X88475913Y-150734252D01*
X88258570Y-150589028D01*
X88017072Y-150488996D01*
X87760698Y-150438000D01*
X87499302Y-150438000D01*
X87242928Y-150488996D01*
X87001430Y-150589028D01*
X86784087Y-150734252D01*
X86599252Y-150919087D01*
X86454028Y-151136430D01*
X86353996Y-151377928D01*
X86303000Y-151634302D01*
X80654066Y-151634302D01*
X80654066Y-151232500D01*
X80645822Y-151148793D01*
X80621405Y-151068304D01*
X80581755Y-150994124D01*
X80528395Y-150929105D01*
X80463376Y-150875745D01*
X80389196Y-150836095D01*
X80308707Y-150811678D01*
X80225000Y-150803434D01*
X78525000Y-150803434D01*
X78441293Y-150811678D01*
X78360804Y-150836095D01*
X78286624Y-150875745D01*
X78221605Y-150929105D01*
X78168245Y-150994124D01*
X78128595Y-151068304D01*
X78104178Y-151148793D01*
X78095934Y-151232500D01*
X78095934Y-151856653D01*
X78093522Y-151832164D01*
X78020502Y-151591449D01*
X77901924Y-151369604D01*
X77742344Y-151175156D01*
X77547896Y-151015576D01*
X77326051Y-150896998D01*
X77085336Y-150823978D01*
X76897726Y-150805500D01*
X76772274Y-150805500D01*
X76584664Y-150823978D01*
X76343949Y-150896998D01*
X76122104Y-151015576D01*
X75927656Y-151175156D01*
X75768076Y-151369604D01*
X75649498Y-151591449D01*
X75576478Y-151832164D01*
X75551822Y-152082500D01*
X75576478Y-152332836D01*
X75649498Y-152573551D01*
X75768076Y-152795396D01*
X75927656Y-152989844D01*
X76122104Y-153149424D01*
X76343949Y-153268002D01*
X76584664Y-153341022D01*
X76701202Y-153352500D01*
X76584664Y-153363978D01*
X76343949Y-153436998D01*
X76122104Y-153555576D01*
X75927656Y-153715156D01*
X75768076Y-153909604D01*
X75649498Y-154131449D01*
X75576478Y-154372164D01*
X75551822Y-154622500D01*
X75576478Y-154872836D01*
X75649498Y-155113551D01*
X75768076Y-155335396D01*
X75927656Y-155529844D01*
X76122104Y-155689424D01*
X76343949Y-155808002D01*
X76584664Y-155881022D01*
X76701202Y-155892500D01*
X76584664Y-155903978D01*
X76343949Y-155976998D01*
X76122104Y-156095576D01*
X75927656Y-156255156D01*
X75768076Y-156449604D01*
X75649498Y-156671449D01*
X75576478Y-156912164D01*
X75551822Y-157162500D01*
X75576478Y-157412836D01*
X75649498Y-157653551D01*
X75768076Y-157875396D01*
X75927656Y-158069844D01*
X76122104Y-158229424D01*
X76343949Y-158348002D01*
X76584664Y-158421022D01*
X76701202Y-158432500D01*
X76584664Y-158443978D01*
X76343949Y-158516998D01*
X76122104Y-158635576D01*
X75927656Y-158795156D01*
X75768076Y-158989604D01*
X75649498Y-159211449D01*
X75576478Y-159452164D01*
X75551822Y-159702500D01*
X75576478Y-159952836D01*
X75621208Y-160100291D01*
X74873033Y-160848466D01*
X74851027Y-160866526D01*
X74832966Y-160888533D01*
X74832963Y-160888536D01*
X74824915Y-160898343D01*
X74778922Y-160954385D01*
X74747000Y-161014108D01*
X74747000Y-147875413D01*
X83245192Y-147875413D01*
X83340956Y-148139814D01*
X83630571Y-148280704D01*
X83942108Y-148362384D01*
X84263595Y-148381718D01*
X84582675Y-148337961D01*
X84887088Y-148232795D01*
X85061044Y-148139814D01*
X85156808Y-147875413D01*
X89745192Y-147875413D01*
X89840956Y-148139814D01*
X90130571Y-148280704D01*
X90442108Y-148362384D01*
X90763595Y-148381718D01*
X91082675Y-148337961D01*
X91387088Y-148232795D01*
X91561044Y-148139814D01*
X91656808Y-147875413D01*
X94040192Y-147875413D01*
X94135956Y-148139814D01*
X94425571Y-148280704D01*
X94737108Y-148362384D01*
X95058595Y-148381718D01*
X95377675Y-148337961D01*
X95682088Y-148232795D01*
X95856044Y-148139814D01*
X95951808Y-147875413D01*
X100540192Y-147875413D01*
X100635956Y-148139814D01*
X100925571Y-148280704D01*
X101237108Y-148362384D01*
X101558595Y-148381718D01*
X101877675Y-148337961D01*
X102182088Y-148232795D01*
X102356044Y-148139814D01*
X102451808Y-147875413D01*
X104835192Y-147875413D01*
X104930956Y-148139814D01*
X105220571Y-148280704D01*
X105532108Y-148362384D01*
X105853595Y-148381718D01*
X106172675Y-148337961D01*
X106477088Y-148232795D01*
X106651044Y-148139814D01*
X106746808Y-147875413D01*
X111335192Y-147875413D01*
X111430956Y-148139814D01*
X111720571Y-148280704D01*
X112032108Y-148362384D01*
X112353595Y-148381718D01*
X112672675Y-148337961D01*
X112977088Y-148232795D01*
X113151044Y-148139814D01*
X113246808Y-147875413D01*
X115630192Y-147875413D01*
X115725956Y-148139814D01*
X116015571Y-148280704D01*
X116327108Y-148362384D01*
X116648595Y-148381718D01*
X116967675Y-148337961D01*
X117272088Y-148232795D01*
X117446044Y-148139814D01*
X117541808Y-147875413D01*
X122130192Y-147875413D01*
X122225956Y-148139814D01*
X122515571Y-148280704D01*
X122827108Y-148362384D01*
X123148595Y-148381718D01*
X123467675Y-148337961D01*
X123772088Y-148232795D01*
X123946044Y-148139814D01*
X124041808Y-147875413D01*
X126425192Y-147875413D01*
X126520956Y-148139814D01*
X126810571Y-148280704D01*
X127122108Y-148362384D01*
X127443595Y-148381718D01*
X127762675Y-148337961D01*
X128067088Y-148232795D01*
X128241044Y-148139814D01*
X128336808Y-147875413D01*
X132925192Y-147875413D01*
X133020956Y-148139814D01*
X133310571Y-148280704D01*
X133622108Y-148362384D01*
X133943595Y-148381718D01*
X134262675Y-148337961D01*
X134567088Y-148232795D01*
X134741044Y-148139814D01*
X134836808Y-147875413D01*
X133881000Y-146919605D01*
X132925192Y-147875413D01*
X128336808Y-147875413D01*
X127381000Y-146919605D01*
X126425192Y-147875413D01*
X124041808Y-147875413D01*
X123086000Y-146919605D01*
X122130192Y-147875413D01*
X117541808Y-147875413D01*
X116586000Y-146919605D01*
X115630192Y-147875413D01*
X113246808Y-147875413D01*
X112291000Y-146919605D01*
X111335192Y-147875413D01*
X106746808Y-147875413D01*
X105791000Y-146919605D01*
X104835192Y-147875413D01*
X102451808Y-147875413D01*
X101496000Y-146919605D01*
X100540192Y-147875413D01*
X95951808Y-147875413D01*
X94996000Y-146919605D01*
X94040192Y-147875413D01*
X91656808Y-147875413D01*
X90701000Y-146919605D01*
X89745192Y-147875413D01*
X85156808Y-147875413D01*
X84201000Y-146919605D01*
X83245192Y-147875413D01*
X74747000Y-147875413D01*
X74747000Y-146802595D01*
X82559282Y-146802595D01*
X82603039Y-147121675D01*
X82708205Y-147426088D01*
X82801186Y-147600044D01*
X83065587Y-147695808D01*
X84021395Y-146740000D01*
X84380605Y-146740000D01*
X85336413Y-147695808D01*
X85600814Y-147600044D01*
X85741704Y-147310429D01*
X85823384Y-146998892D01*
X85835189Y-146802595D01*
X89059282Y-146802595D01*
X89103039Y-147121675D01*
X89208205Y-147426088D01*
X89301186Y-147600044D01*
X89565587Y-147695808D01*
X90521395Y-146740000D01*
X90880605Y-146740000D01*
X91836413Y-147695808D01*
X92100814Y-147600044D01*
X92241704Y-147310429D01*
X92323384Y-146998892D01*
X92335189Y-146802595D01*
X93354282Y-146802595D01*
X93398039Y-147121675D01*
X93503205Y-147426088D01*
X93596186Y-147600044D01*
X93860587Y-147695808D01*
X94816395Y-146740000D01*
X95175605Y-146740000D01*
X96131413Y-147695808D01*
X96395814Y-147600044D01*
X96536704Y-147310429D01*
X96618384Y-146998892D01*
X96630189Y-146802595D01*
X99854282Y-146802595D01*
X99898039Y-147121675D01*
X100003205Y-147426088D01*
X100096186Y-147600044D01*
X100360587Y-147695808D01*
X101316395Y-146740000D01*
X101675605Y-146740000D01*
X102631413Y-147695808D01*
X102895814Y-147600044D01*
X103036704Y-147310429D01*
X103118384Y-146998892D01*
X103130189Y-146802595D01*
X104149282Y-146802595D01*
X104193039Y-147121675D01*
X104298205Y-147426088D01*
X104391186Y-147600044D01*
X104655587Y-147695808D01*
X105611395Y-146740000D01*
X105970605Y-146740000D01*
X106926413Y-147695808D01*
X107190814Y-147600044D01*
X107331704Y-147310429D01*
X107413384Y-146998892D01*
X107425189Y-146802595D01*
X110649282Y-146802595D01*
X110693039Y-147121675D01*
X110798205Y-147426088D01*
X110891186Y-147600044D01*
X111155587Y-147695808D01*
X112111395Y-146740000D01*
X112470605Y-146740000D01*
X113426413Y-147695808D01*
X113690814Y-147600044D01*
X113831704Y-147310429D01*
X113913384Y-146998892D01*
X113925189Y-146802595D01*
X114944282Y-146802595D01*
X114988039Y-147121675D01*
X115093205Y-147426088D01*
X115186186Y-147600044D01*
X115450587Y-147695808D01*
X116406395Y-146740000D01*
X116765605Y-146740000D01*
X117721413Y-147695808D01*
X117985814Y-147600044D01*
X118126704Y-147310429D01*
X118208384Y-146998892D01*
X118220189Y-146802595D01*
X121444282Y-146802595D01*
X121488039Y-147121675D01*
X121593205Y-147426088D01*
X121686186Y-147600044D01*
X121950587Y-147695808D01*
X122906395Y-146740000D01*
X123265605Y-146740000D01*
X124221413Y-147695808D01*
X124485814Y-147600044D01*
X124626704Y-147310429D01*
X124708384Y-146998892D01*
X124720189Y-146802595D01*
X125739282Y-146802595D01*
X125783039Y-147121675D01*
X125888205Y-147426088D01*
X125981186Y-147600044D01*
X126245587Y-147695808D01*
X127201395Y-146740000D01*
X127560605Y-146740000D01*
X128516413Y-147695808D01*
X128780814Y-147600044D01*
X128921704Y-147310429D01*
X129003384Y-146998892D01*
X129015189Y-146802595D01*
X132239282Y-146802595D01*
X132283039Y-147121675D01*
X132388205Y-147426088D01*
X132481186Y-147600044D01*
X132745587Y-147695808D01*
X133701395Y-146740000D01*
X134060605Y-146740000D01*
X135016413Y-147695808D01*
X135280814Y-147600044D01*
X135421704Y-147310429D01*
X135503384Y-146998892D01*
X135522718Y-146677405D01*
X135478961Y-146358325D01*
X135373795Y-146053912D01*
X135280814Y-145879956D01*
X135016413Y-145784192D01*
X134060605Y-146740000D01*
X133701395Y-146740000D01*
X132745587Y-145784192D01*
X132481186Y-145879956D01*
X132340296Y-146169571D01*
X132258616Y-146481108D01*
X132239282Y-146802595D01*
X129015189Y-146802595D01*
X129022718Y-146677405D01*
X128978961Y-146358325D01*
X128873795Y-146053912D01*
X128780814Y-145879956D01*
X128516413Y-145784192D01*
X127560605Y-146740000D01*
X127201395Y-146740000D01*
X126245587Y-145784192D01*
X125981186Y-145879956D01*
X125840296Y-146169571D01*
X125758616Y-146481108D01*
X125739282Y-146802595D01*
X124720189Y-146802595D01*
X124727718Y-146677405D01*
X124683961Y-146358325D01*
X124578795Y-146053912D01*
X124485814Y-145879956D01*
X124221413Y-145784192D01*
X123265605Y-146740000D01*
X122906395Y-146740000D01*
X121950587Y-145784192D01*
X121686186Y-145879956D01*
X121545296Y-146169571D01*
X121463616Y-146481108D01*
X121444282Y-146802595D01*
X118220189Y-146802595D01*
X118227718Y-146677405D01*
X118183961Y-146358325D01*
X118078795Y-146053912D01*
X117985814Y-145879956D01*
X117721413Y-145784192D01*
X116765605Y-146740000D01*
X116406395Y-146740000D01*
X115450587Y-145784192D01*
X115186186Y-145879956D01*
X115045296Y-146169571D01*
X114963616Y-146481108D01*
X114944282Y-146802595D01*
X113925189Y-146802595D01*
X113932718Y-146677405D01*
X113888961Y-146358325D01*
X113783795Y-146053912D01*
X113690814Y-145879956D01*
X113426413Y-145784192D01*
X112470605Y-146740000D01*
X112111395Y-146740000D01*
X111155587Y-145784192D01*
X110891186Y-145879956D01*
X110750296Y-146169571D01*
X110668616Y-146481108D01*
X110649282Y-146802595D01*
X107425189Y-146802595D01*
X107432718Y-146677405D01*
X107388961Y-146358325D01*
X107283795Y-146053912D01*
X107190814Y-145879956D01*
X106926413Y-145784192D01*
X105970605Y-146740000D01*
X105611395Y-146740000D01*
X104655587Y-145784192D01*
X104391186Y-145879956D01*
X104250296Y-146169571D01*
X104168616Y-146481108D01*
X104149282Y-146802595D01*
X103130189Y-146802595D01*
X103137718Y-146677405D01*
X103093961Y-146358325D01*
X102988795Y-146053912D01*
X102895814Y-145879956D01*
X102631413Y-145784192D01*
X101675605Y-146740000D01*
X101316395Y-146740000D01*
X100360587Y-145784192D01*
X100096186Y-145879956D01*
X99955296Y-146169571D01*
X99873616Y-146481108D01*
X99854282Y-146802595D01*
X96630189Y-146802595D01*
X96637718Y-146677405D01*
X96593961Y-146358325D01*
X96488795Y-146053912D01*
X96395814Y-145879956D01*
X96131413Y-145784192D01*
X95175605Y-146740000D01*
X94816395Y-146740000D01*
X93860587Y-145784192D01*
X93596186Y-145879956D01*
X93455296Y-146169571D01*
X93373616Y-146481108D01*
X93354282Y-146802595D01*
X92335189Y-146802595D01*
X92342718Y-146677405D01*
X92298961Y-146358325D01*
X92193795Y-146053912D01*
X92100814Y-145879956D01*
X91836413Y-145784192D01*
X90880605Y-146740000D01*
X90521395Y-146740000D01*
X89565587Y-145784192D01*
X89301186Y-145879956D01*
X89160296Y-146169571D01*
X89078616Y-146481108D01*
X89059282Y-146802595D01*
X85835189Y-146802595D01*
X85842718Y-146677405D01*
X85798961Y-146358325D01*
X85693795Y-146053912D01*
X85600814Y-145879956D01*
X85336413Y-145784192D01*
X84380605Y-146740000D01*
X84021395Y-146740000D01*
X83065587Y-145784192D01*
X82801186Y-145879956D01*
X82660296Y-146169571D01*
X82578616Y-146481108D01*
X82559282Y-146802595D01*
X74747000Y-146802595D01*
X74747000Y-145604587D01*
X83245192Y-145604587D01*
X84201000Y-146560395D01*
X85156808Y-145604587D01*
X89745192Y-145604587D01*
X90701000Y-146560395D01*
X91656808Y-145604587D01*
X94040192Y-145604587D01*
X94996000Y-146560395D01*
X95951808Y-145604587D01*
X100540192Y-145604587D01*
X101496000Y-146560395D01*
X102451808Y-145604587D01*
X104835192Y-145604587D01*
X105791000Y-146560395D01*
X106746808Y-145604587D01*
X111335192Y-145604587D01*
X112291000Y-146560395D01*
X113246808Y-145604587D01*
X115630192Y-145604587D01*
X116586000Y-146560395D01*
X117541808Y-145604587D01*
X122130192Y-145604587D01*
X123086000Y-146560395D01*
X124041808Y-145604587D01*
X126425192Y-145604587D01*
X127381000Y-146560395D01*
X128336808Y-145604587D01*
X132925192Y-145604587D01*
X133881000Y-146560395D01*
X134836808Y-145604587D01*
X134741044Y-145340186D01*
X134451429Y-145199296D01*
X134139892Y-145117616D01*
X133818405Y-145098282D01*
X133499325Y-145142039D01*
X133194912Y-145247205D01*
X133020956Y-145340186D01*
X132925192Y-145604587D01*
X128336808Y-145604587D01*
X128241044Y-145340186D01*
X127951429Y-145199296D01*
X127639892Y-145117616D01*
X127318405Y-145098282D01*
X126999325Y-145142039D01*
X126694912Y-145247205D01*
X126520956Y-145340186D01*
X126425192Y-145604587D01*
X124041808Y-145604587D01*
X123946044Y-145340186D01*
X123656429Y-145199296D01*
X123344892Y-145117616D01*
X123023405Y-145098282D01*
X122704325Y-145142039D01*
X122399912Y-145247205D01*
X122225956Y-145340186D01*
X122130192Y-145604587D01*
X117541808Y-145604587D01*
X117446044Y-145340186D01*
X117156429Y-145199296D01*
X116844892Y-145117616D01*
X116523405Y-145098282D01*
X116204325Y-145142039D01*
X115899912Y-145247205D01*
X115725956Y-145340186D01*
X115630192Y-145604587D01*
X113246808Y-145604587D01*
X113151044Y-145340186D01*
X112861429Y-145199296D01*
X112549892Y-145117616D01*
X112228405Y-145098282D01*
X111909325Y-145142039D01*
X111604912Y-145247205D01*
X111430956Y-145340186D01*
X111335192Y-145604587D01*
X106746808Y-145604587D01*
X106651044Y-145340186D01*
X106361429Y-145199296D01*
X106049892Y-145117616D01*
X105728405Y-145098282D01*
X105409325Y-145142039D01*
X105104912Y-145247205D01*
X104930956Y-145340186D01*
X104835192Y-145604587D01*
X102451808Y-145604587D01*
X102356044Y-145340186D01*
X102066429Y-145199296D01*
X101754892Y-145117616D01*
X101433405Y-145098282D01*
X101114325Y-145142039D01*
X100809912Y-145247205D01*
X100635956Y-145340186D01*
X100540192Y-145604587D01*
X95951808Y-145604587D01*
X95856044Y-145340186D01*
X95566429Y-145199296D01*
X95254892Y-145117616D01*
X94933405Y-145098282D01*
X94614325Y-145142039D01*
X94309912Y-145247205D01*
X94135956Y-145340186D01*
X94040192Y-145604587D01*
X91656808Y-145604587D01*
X91561044Y-145340186D01*
X91271429Y-145199296D01*
X90959892Y-145117616D01*
X90638405Y-145098282D01*
X90319325Y-145142039D01*
X90014912Y-145247205D01*
X89840956Y-145340186D01*
X89745192Y-145604587D01*
X85156808Y-145604587D01*
X85061044Y-145340186D01*
X84771429Y-145199296D01*
X84459892Y-145117616D01*
X84138405Y-145098282D01*
X83819325Y-145142039D01*
X83514912Y-145247205D01*
X83340956Y-145340186D01*
X83245192Y-145604587D01*
X74747000Y-145604587D01*
X74747000Y-142099453D01*
X82774000Y-142099453D01*
X82774000Y-142380547D01*
X82828838Y-142656241D01*
X82936409Y-142915938D01*
X83092576Y-143149660D01*
X83291340Y-143348424D01*
X83525062Y-143504591D01*
X83784759Y-143612162D01*
X84060453Y-143667000D01*
X84341547Y-143667000D01*
X84617241Y-143612162D01*
X84876938Y-143504591D01*
X85110660Y-143348424D01*
X85309424Y-143149660D01*
X85465591Y-142915938D01*
X85573162Y-142656241D01*
X85628000Y-142380547D01*
X85628000Y-142099453D01*
X89274000Y-142099453D01*
X89274000Y-142380547D01*
X89328838Y-142656241D01*
X89436409Y-142915938D01*
X89592576Y-143149660D01*
X89791340Y-143348424D01*
X90025062Y-143504591D01*
X90284759Y-143612162D01*
X90560453Y-143667000D01*
X90841547Y-143667000D01*
X91117241Y-143612162D01*
X91376938Y-143504591D01*
X91610660Y-143348424D01*
X91809424Y-143149660D01*
X91965591Y-142915938D01*
X92073162Y-142656241D01*
X92128000Y-142380547D01*
X92128000Y-142099453D01*
X93569000Y-142099453D01*
X93569000Y-142380547D01*
X93623838Y-142656241D01*
X93731409Y-142915938D01*
X93887576Y-143149660D01*
X94086340Y-143348424D01*
X94320062Y-143504591D01*
X94579759Y-143612162D01*
X94855453Y-143667000D01*
X95136547Y-143667000D01*
X95412241Y-143612162D01*
X95671938Y-143504591D01*
X95905660Y-143348424D01*
X96104424Y-143149660D01*
X96260591Y-142915938D01*
X96368162Y-142656241D01*
X96423000Y-142380547D01*
X96423000Y-142099453D01*
X100069000Y-142099453D01*
X100069000Y-142380547D01*
X100123838Y-142656241D01*
X100231409Y-142915938D01*
X100387576Y-143149660D01*
X100586340Y-143348424D01*
X100820062Y-143504591D01*
X101079759Y-143612162D01*
X101355453Y-143667000D01*
X101636547Y-143667000D01*
X101912241Y-143612162D01*
X102171938Y-143504591D01*
X102405660Y-143348424D01*
X102604424Y-143149660D01*
X102760591Y-142915938D01*
X102868162Y-142656241D01*
X102923000Y-142380547D01*
X102923000Y-142099453D01*
X104364000Y-142099453D01*
X104364000Y-142380547D01*
X104418838Y-142656241D01*
X104526409Y-142915938D01*
X104682576Y-143149660D01*
X104881340Y-143348424D01*
X105115062Y-143504591D01*
X105374759Y-143612162D01*
X105650453Y-143667000D01*
X105931547Y-143667000D01*
X106207241Y-143612162D01*
X106466938Y-143504591D01*
X106700660Y-143348424D01*
X106899424Y-143149660D01*
X107055591Y-142915938D01*
X107163162Y-142656241D01*
X107218000Y-142380547D01*
X107218000Y-142099453D01*
X110864000Y-142099453D01*
X110864000Y-142380547D01*
X110918838Y-142656241D01*
X111026409Y-142915938D01*
X111182576Y-143149660D01*
X111381340Y-143348424D01*
X111615062Y-143504591D01*
X111874759Y-143612162D01*
X112150453Y-143667000D01*
X112431547Y-143667000D01*
X112707241Y-143612162D01*
X112966938Y-143504591D01*
X113200660Y-143348424D01*
X113399424Y-143149660D01*
X113555591Y-142915938D01*
X113663162Y-142656241D01*
X113718000Y-142380547D01*
X113718000Y-142099453D01*
X115159000Y-142099453D01*
X115159000Y-142380547D01*
X115213838Y-142656241D01*
X115321409Y-142915938D01*
X115477576Y-143149660D01*
X115676340Y-143348424D01*
X115910062Y-143504591D01*
X116169759Y-143612162D01*
X116445453Y-143667000D01*
X116726547Y-143667000D01*
X117002241Y-143612162D01*
X117261938Y-143504591D01*
X117495660Y-143348424D01*
X117694424Y-143149660D01*
X117850591Y-142915938D01*
X117958162Y-142656241D01*
X118013000Y-142380547D01*
X118013000Y-142099453D01*
X121659000Y-142099453D01*
X121659000Y-142380547D01*
X121713838Y-142656241D01*
X121821409Y-142915938D01*
X121977576Y-143149660D01*
X122176340Y-143348424D01*
X122410062Y-143504591D01*
X122669759Y-143612162D01*
X122945453Y-143667000D01*
X123226547Y-143667000D01*
X123502241Y-143612162D01*
X123761938Y-143504591D01*
X123995660Y-143348424D01*
X124194424Y-143149660D01*
X124350591Y-142915938D01*
X124458162Y-142656241D01*
X124513000Y-142380547D01*
X124513000Y-142099453D01*
X125954000Y-142099453D01*
X125954000Y-142380547D01*
X126008838Y-142656241D01*
X126116409Y-142915938D01*
X126272576Y-143149660D01*
X126471340Y-143348424D01*
X126705062Y-143504591D01*
X126964759Y-143612162D01*
X127240453Y-143667000D01*
X127521547Y-143667000D01*
X127797241Y-143612162D01*
X128056938Y-143504591D01*
X128290660Y-143348424D01*
X128489424Y-143149660D01*
X128645591Y-142915938D01*
X128753162Y-142656241D01*
X128808000Y-142380547D01*
X128808000Y-142099453D01*
X132454000Y-142099453D01*
X132454000Y-142380547D01*
X132508838Y-142656241D01*
X132616409Y-142915938D01*
X132772576Y-143149660D01*
X132971340Y-143348424D01*
X133205062Y-143504591D01*
X133464759Y-143612162D01*
X133740453Y-143667000D01*
X134021547Y-143667000D01*
X134297241Y-143612162D01*
X134556938Y-143504591D01*
X134790660Y-143348424D01*
X134989424Y-143149660D01*
X135145591Y-142915938D01*
X135253162Y-142656241D01*
X135308000Y-142380547D01*
X135308000Y-142099453D01*
X135253162Y-141823759D01*
X135145591Y-141564062D01*
X134989424Y-141330340D01*
X134790660Y-141131576D01*
X134556938Y-140975409D01*
X134297241Y-140867838D01*
X134021547Y-140813000D01*
X133740453Y-140813000D01*
X133464759Y-140867838D01*
X133205062Y-140975409D01*
X132971340Y-141131576D01*
X132772576Y-141330340D01*
X132616409Y-141564062D01*
X132508838Y-141823759D01*
X132454000Y-142099453D01*
X128808000Y-142099453D01*
X128753162Y-141823759D01*
X128645591Y-141564062D01*
X128489424Y-141330340D01*
X128290660Y-141131576D01*
X128056938Y-140975409D01*
X127797241Y-140867838D01*
X127521547Y-140813000D01*
X127240453Y-140813000D01*
X126964759Y-140867838D01*
X126705062Y-140975409D01*
X126471340Y-141131576D01*
X126272576Y-141330340D01*
X126116409Y-141564062D01*
X126008838Y-141823759D01*
X125954000Y-142099453D01*
X124513000Y-142099453D01*
X124458162Y-141823759D01*
X124350591Y-141564062D01*
X124194424Y-141330340D01*
X123995660Y-141131576D01*
X123761938Y-140975409D01*
X123502241Y-140867838D01*
X123226547Y-140813000D01*
X122945453Y-140813000D01*
X122669759Y-140867838D01*
X122410062Y-140975409D01*
X122176340Y-141131576D01*
X121977576Y-141330340D01*
X121821409Y-141564062D01*
X121713838Y-141823759D01*
X121659000Y-142099453D01*
X118013000Y-142099453D01*
X117958162Y-141823759D01*
X117850591Y-141564062D01*
X117694424Y-141330340D01*
X117495660Y-141131576D01*
X117261938Y-140975409D01*
X117002241Y-140867838D01*
X116726547Y-140813000D01*
X116445453Y-140813000D01*
X116169759Y-140867838D01*
X115910062Y-140975409D01*
X115676340Y-141131576D01*
X115477576Y-141330340D01*
X115321409Y-141564062D01*
X115213838Y-141823759D01*
X115159000Y-142099453D01*
X113718000Y-142099453D01*
X113663162Y-141823759D01*
X113555591Y-141564062D01*
X113399424Y-141330340D01*
X113200660Y-141131576D01*
X112966938Y-140975409D01*
X112707241Y-140867838D01*
X112431547Y-140813000D01*
X112150453Y-140813000D01*
X111874759Y-140867838D01*
X111615062Y-140975409D01*
X111381340Y-141131576D01*
X111182576Y-141330340D01*
X111026409Y-141564062D01*
X110918838Y-141823759D01*
X110864000Y-142099453D01*
X107218000Y-142099453D01*
X107163162Y-141823759D01*
X107055591Y-141564062D01*
X106899424Y-141330340D01*
X106700660Y-141131576D01*
X106466938Y-140975409D01*
X106207241Y-140867838D01*
X105931547Y-140813000D01*
X105650453Y-140813000D01*
X105374759Y-140867838D01*
X105115062Y-140975409D01*
X104881340Y-141131576D01*
X104682576Y-141330340D01*
X104526409Y-141564062D01*
X104418838Y-141823759D01*
X104364000Y-142099453D01*
X102923000Y-142099453D01*
X102868162Y-141823759D01*
X102760591Y-141564062D01*
X102604424Y-141330340D01*
X102405660Y-141131576D01*
X102171938Y-140975409D01*
X101912241Y-140867838D01*
X101636547Y-140813000D01*
X101355453Y-140813000D01*
X101079759Y-140867838D01*
X100820062Y-140975409D01*
X100586340Y-141131576D01*
X100387576Y-141330340D01*
X100231409Y-141564062D01*
X100123838Y-141823759D01*
X100069000Y-142099453D01*
X96423000Y-142099453D01*
X96368162Y-141823759D01*
X96260591Y-141564062D01*
X96104424Y-141330340D01*
X95905660Y-141131576D01*
X95671938Y-140975409D01*
X95412241Y-140867838D01*
X95136547Y-140813000D01*
X94855453Y-140813000D01*
X94579759Y-140867838D01*
X94320062Y-140975409D01*
X94086340Y-141131576D01*
X93887576Y-141330340D01*
X93731409Y-141564062D01*
X93623838Y-141823759D01*
X93569000Y-142099453D01*
X92128000Y-142099453D01*
X92073162Y-141823759D01*
X91965591Y-141564062D01*
X91809424Y-141330340D01*
X91610660Y-141131576D01*
X91376938Y-140975409D01*
X91117241Y-140867838D01*
X90841547Y-140813000D01*
X90560453Y-140813000D01*
X90284759Y-140867838D01*
X90025062Y-140975409D01*
X89791340Y-141131576D01*
X89592576Y-141330340D01*
X89436409Y-141564062D01*
X89328838Y-141823759D01*
X89274000Y-142099453D01*
X85628000Y-142099453D01*
X85573162Y-141823759D01*
X85465591Y-141564062D01*
X85309424Y-141330340D01*
X85110660Y-141131576D01*
X84876938Y-140975409D01*
X84617241Y-140867838D01*
X84341547Y-140813000D01*
X84060453Y-140813000D01*
X83784759Y-140867838D01*
X83525062Y-140975409D01*
X83291340Y-141131576D01*
X83092576Y-141330340D01*
X82936409Y-141564062D01*
X82828838Y-141823759D01*
X82774000Y-142099453D01*
X74747000Y-142099453D01*
X74747000Y-140357108D01*
X74800986Y-139806517D01*
X74954465Y-139298171D01*
X75203760Y-138829315D01*
X75539378Y-138417807D01*
X75948531Y-138079328D01*
X76415635Y-137826764D01*
X76922901Y-137669741D01*
X77472257Y-137612000D01*
X166347892Y-137612000D01*
X166898483Y-137665986D01*
M02*
