G04 #@! TF.GenerationSoftware,KiCad,Pcbnew,(5.1.4)-1*
G04 #@! TF.CreationDate,2020-09-12T21:11:29+02:00*
G04 #@! TF.ProjectId,SBIO3,5342494f-332e-46b6-9963-61645f706362,rev?*
G04 #@! TF.SameCoordinates,Original*
G04 #@! TF.FileFunction,Soldermask,Top*
G04 #@! TF.FilePolarity,Negative*
%FSLAX46Y46*%
G04 Gerber Fmt 4.6, Leading zero omitted, Abs format (unit mm)*
G04 Created by KiCad (PCBNEW (5.1.4)-1) date 2020-09-12 21:11:29*
%MOMM*%
%LPD*%
G04 APERTURE LIST*
%ADD10C,0.100000*%
G04 APERTURE END LIST*
D10*
G36*
X84367000Y-175611000D02*
G01*
X82765000Y-175611000D01*
X82765000Y-174909000D01*
X84367000Y-174909000D01*
X84367000Y-175611000D01*
X84367000Y-175611000D01*
G37*
G36*
X117862000Y-175611000D02*
G01*
X116260000Y-175611000D01*
X116260000Y-174909000D01*
X117862000Y-174909000D01*
X117862000Y-175611000D01*
X117862000Y-175611000D01*
G37*
G36*
X89767000Y-175611000D02*
G01*
X88165000Y-175611000D01*
X88165000Y-174909000D01*
X89767000Y-174909000D01*
X89767000Y-175611000D01*
X89767000Y-175611000D01*
G37*
G36*
X123262000Y-175611000D02*
G01*
X121660000Y-175611000D01*
X121660000Y-174909000D01*
X123262000Y-174909000D01*
X123262000Y-175611000D01*
X123262000Y-175611000D01*
G37*
G36*
X100988395Y-173710546D02*
G01*
X101161466Y-173782234D01*
X101161467Y-173782235D01*
X101317227Y-173886310D01*
X101449690Y-174018773D01*
X101449691Y-174018775D01*
X101553766Y-174174534D01*
X101625454Y-174347605D01*
X101662000Y-174531333D01*
X101662000Y-174718667D01*
X101625454Y-174902395D01*
X101553766Y-175075466D01*
X101553765Y-175075467D01*
X101449690Y-175231227D01*
X101317227Y-175363690D01*
X101238818Y-175416081D01*
X101161466Y-175467766D01*
X100988395Y-175539454D01*
X100804667Y-175576000D01*
X100617333Y-175576000D01*
X100433605Y-175539454D01*
X100260534Y-175467766D01*
X100183182Y-175416081D01*
X100104773Y-175363690D01*
X99972310Y-175231227D01*
X99868235Y-175075467D01*
X99868234Y-175075466D01*
X99796546Y-174902395D01*
X99760000Y-174718667D01*
X99760000Y-174531333D01*
X99796546Y-174347605D01*
X99868234Y-174174534D01*
X99972309Y-174018775D01*
X99972310Y-174018773D01*
X100104773Y-173886310D01*
X100260533Y-173782235D01*
X100260534Y-173782234D01*
X100433605Y-173710546D01*
X100617333Y-173674000D01*
X100804667Y-173674000D01*
X100988395Y-173710546D01*
X100988395Y-173710546D01*
G37*
G36*
X104202000Y-175576000D02*
G01*
X102300000Y-175576000D01*
X102300000Y-173674000D01*
X104202000Y-173674000D01*
X104202000Y-175576000D01*
X104202000Y-175576000D01*
G37*
G36*
X98652000Y-175126000D02*
G01*
X97350000Y-175126000D01*
X97350000Y-174124000D01*
X98652000Y-174124000D01*
X98652000Y-175126000D01*
X98652000Y-175126000D01*
G37*
G36*
X96452000Y-175126000D02*
G01*
X95150000Y-175126000D01*
X95150000Y-174124000D01*
X96452000Y-174124000D01*
X96452000Y-175126000D01*
X96452000Y-175126000D01*
G37*
G36*
X79307000Y-174491000D02*
G01*
X78005000Y-174491000D01*
X78005000Y-173489000D01*
X79307000Y-173489000D01*
X79307000Y-174491000D01*
X79307000Y-174491000D01*
G37*
G36*
X81507000Y-174491000D02*
G01*
X80205000Y-174491000D01*
X80205000Y-173489000D01*
X81507000Y-173489000D01*
X81507000Y-174491000D01*
X81507000Y-174491000D01*
G37*
G36*
X89767000Y-174341000D02*
G01*
X88165000Y-174341000D01*
X88165000Y-173639000D01*
X89767000Y-173639000D01*
X89767000Y-174341000D01*
X89767000Y-174341000D01*
G37*
G36*
X84367000Y-174341000D02*
G01*
X82765000Y-174341000D01*
X82765000Y-173639000D01*
X84367000Y-173639000D01*
X84367000Y-174341000D01*
X84367000Y-174341000D01*
G37*
G36*
X123262000Y-174341000D02*
G01*
X121660000Y-174341000D01*
X121660000Y-173639000D01*
X123262000Y-173639000D01*
X123262000Y-174341000D01*
X123262000Y-174341000D01*
G37*
G36*
X117862000Y-174341000D02*
G01*
X116260000Y-174341000D01*
X116260000Y-173639000D01*
X117862000Y-173639000D01*
X117862000Y-174341000D01*
X117862000Y-174341000D01*
G37*
G36*
X123262000Y-173071000D02*
G01*
X121660000Y-173071000D01*
X121660000Y-172369000D01*
X123262000Y-172369000D01*
X123262000Y-173071000D01*
X123262000Y-173071000D01*
G37*
G36*
X84367000Y-173071000D02*
G01*
X82765000Y-173071000D01*
X82765000Y-172369000D01*
X84367000Y-172369000D01*
X84367000Y-173071000D01*
X84367000Y-173071000D01*
G37*
G36*
X89767000Y-173071000D02*
G01*
X88165000Y-173071000D01*
X88165000Y-172369000D01*
X89767000Y-172369000D01*
X89767000Y-173071000D01*
X89767000Y-173071000D01*
G37*
G36*
X117862000Y-173071000D02*
G01*
X116260000Y-173071000D01*
X116260000Y-172369000D01*
X117862000Y-172369000D01*
X117862000Y-173071000D01*
X117862000Y-173071000D01*
G37*
G36*
X148652000Y-172401000D02*
G01*
X146750000Y-172401000D01*
X146750000Y-170499000D01*
X148652000Y-170499000D01*
X148652000Y-172401000D01*
X148652000Y-172401000D01*
G37*
G36*
X142937000Y-172401000D02*
G01*
X141035000Y-172401000D01*
X141035000Y-170499000D01*
X142937000Y-170499000D01*
X142937000Y-172401000D01*
X142937000Y-172401000D01*
G37*
G36*
X150518395Y-170535546D02*
G01*
X150691466Y-170607234D01*
X150691467Y-170607235D01*
X150847227Y-170711310D01*
X150979690Y-170843773D01*
X150979691Y-170843775D01*
X151083766Y-170999534D01*
X151155454Y-171172605D01*
X151192000Y-171356333D01*
X151192000Y-171543667D01*
X151155454Y-171727395D01*
X151083766Y-171900466D01*
X151083765Y-171900467D01*
X150979690Y-172056227D01*
X150847227Y-172188690D01*
X150768818Y-172241081D01*
X150691466Y-172292766D01*
X150518395Y-172364454D01*
X150334667Y-172401000D01*
X150147333Y-172401000D01*
X149963605Y-172364454D01*
X149790534Y-172292766D01*
X149713182Y-172241081D01*
X149634773Y-172188690D01*
X149502310Y-172056227D01*
X149398235Y-171900467D01*
X149398234Y-171900466D01*
X149326546Y-171727395D01*
X149290000Y-171543667D01*
X149290000Y-171356333D01*
X149326546Y-171172605D01*
X149398234Y-170999534D01*
X149502309Y-170843775D01*
X149502310Y-170843773D01*
X149634773Y-170711310D01*
X149790533Y-170607235D01*
X149790534Y-170607234D01*
X149963605Y-170535546D01*
X150147333Y-170499000D01*
X150334667Y-170499000D01*
X150518395Y-170535546D01*
X150518395Y-170535546D01*
G37*
G36*
X139723395Y-170535546D02*
G01*
X139896466Y-170607234D01*
X139896467Y-170607235D01*
X140052227Y-170711310D01*
X140184690Y-170843773D01*
X140184691Y-170843775D01*
X140288766Y-170999534D01*
X140360454Y-171172605D01*
X140397000Y-171356333D01*
X140397000Y-171543667D01*
X140360454Y-171727395D01*
X140288766Y-171900466D01*
X140288765Y-171900467D01*
X140184690Y-172056227D01*
X140052227Y-172188690D01*
X139973818Y-172241081D01*
X139896466Y-172292766D01*
X139723395Y-172364454D01*
X139539667Y-172401000D01*
X139352333Y-172401000D01*
X139168605Y-172364454D01*
X138995534Y-172292766D01*
X138918182Y-172241081D01*
X138839773Y-172188690D01*
X138707310Y-172056227D01*
X138603235Y-171900467D01*
X138603234Y-171900466D01*
X138531546Y-171727395D01*
X138495000Y-171543667D01*
X138495000Y-171356333D01*
X138531546Y-171172605D01*
X138603234Y-170999534D01*
X138707309Y-170843775D01*
X138707310Y-170843773D01*
X138839773Y-170711310D01*
X138995533Y-170607235D01*
X138995534Y-170607234D01*
X139168605Y-170535546D01*
X139352333Y-170499000D01*
X139539667Y-170499000D01*
X139723395Y-170535546D01*
X139723395Y-170535546D01*
G37*
G36*
X156437000Y-171951000D02*
G01*
X155135000Y-171951000D01*
X155135000Y-170949000D01*
X156437000Y-170949000D01*
X156437000Y-171951000D01*
X156437000Y-171951000D01*
G37*
G36*
X154237000Y-171951000D02*
G01*
X152935000Y-171951000D01*
X152935000Y-170949000D01*
X154237000Y-170949000D01*
X154237000Y-171951000D01*
X154237000Y-171951000D01*
G37*
G36*
X134552000Y-171951000D02*
G01*
X133250000Y-171951000D01*
X133250000Y-170949000D01*
X134552000Y-170949000D01*
X134552000Y-171951000D01*
X134552000Y-171951000D01*
G37*
G36*
X136752000Y-171951000D02*
G01*
X135450000Y-171951000D01*
X135450000Y-170949000D01*
X136752000Y-170949000D01*
X136752000Y-171951000D01*
X136752000Y-171951000D01*
G37*
G36*
X89767000Y-171801000D02*
G01*
X88165000Y-171801000D01*
X88165000Y-171099000D01*
X89767000Y-171099000D01*
X89767000Y-171801000D01*
X89767000Y-171801000D01*
G37*
G36*
X117862000Y-171801000D02*
G01*
X116260000Y-171801000D01*
X116260000Y-171099000D01*
X117862000Y-171099000D01*
X117862000Y-171801000D01*
X117862000Y-171801000D01*
G37*
G36*
X84367000Y-171801000D02*
G01*
X82765000Y-171801000D01*
X82765000Y-171099000D01*
X84367000Y-171099000D01*
X84367000Y-171801000D01*
X84367000Y-171801000D01*
G37*
G36*
X123262000Y-171801000D02*
G01*
X121660000Y-171801000D01*
X121660000Y-171099000D01*
X123262000Y-171099000D01*
X123262000Y-171801000D01*
X123262000Y-171801000D01*
G37*
G36*
X84367000Y-170531000D02*
G01*
X82765000Y-170531000D01*
X82765000Y-169829000D01*
X84367000Y-169829000D01*
X84367000Y-170531000D01*
X84367000Y-170531000D01*
G37*
G36*
X89767000Y-170531000D02*
G01*
X88165000Y-170531000D01*
X88165000Y-169829000D01*
X89767000Y-169829000D01*
X89767000Y-170531000D01*
X89767000Y-170531000D01*
G37*
G36*
X117862000Y-170531000D02*
G01*
X116260000Y-170531000D01*
X116260000Y-169829000D01*
X117862000Y-169829000D01*
X117862000Y-170531000D01*
X117862000Y-170531000D01*
G37*
G36*
X123262000Y-170531000D02*
G01*
X121660000Y-170531000D01*
X121660000Y-169829000D01*
X123262000Y-169829000D01*
X123262000Y-170531000D01*
X123262000Y-170531000D01*
G37*
G36*
X104202000Y-169861000D02*
G01*
X102300000Y-169861000D01*
X102300000Y-167959000D01*
X104202000Y-167959000D01*
X104202000Y-169861000D01*
X104202000Y-169861000D01*
G37*
G36*
X100988395Y-167995546D02*
G01*
X101161466Y-168067234D01*
X101161467Y-168067235D01*
X101317227Y-168171310D01*
X101449690Y-168303773D01*
X101449691Y-168303775D01*
X101553766Y-168459534D01*
X101625454Y-168632605D01*
X101662000Y-168816333D01*
X101662000Y-169003667D01*
X101625454Y-169187395D01*
X101553766Y-169360466D01*
X101553765Y-169360467D01*
X101449690Y-169516227D01*
X101317227Y-169648690D01*
X101238818Y-169701081D01*
X101161466Y-169752766D01*
X100988395Y-169824454D01*
X100804667Y-169861000D01*
X100617333Y-169861000D01*
X100433605Y-169824454D01*
X100260534Y-169752766D01*
X100183182Y-169701081D01*
X100104773Y-169648690D01*
X99972310Y-169516227D01*
X99868235Y-169360467D01*
X99868234Y-169360466D01*
X99796546Y-169187395D01*
X99760000Y-169003667D01*
X99760000Y-168816333D01*
X99796546Y-168632605D01*
X99868234Y-168459534D01*
X99972309Y-168303775D01*
X99972310Y-168303773D01*
X100104773Y-168171310D01*
X100260533Y-168067235D01*
X100260534Y-168067234D01*
X100433605Y-167995546D01*
X100617333Y-167959000D01*
X100804667Y-167959000D01*
X100988395Y-167995546D01*
X100988395Y-167995546D01*
G37*
G36*
X96452000Y-169411000D02*
G01*
X95150000Y-169411000D01*
X95150000Y-168409000D01*
X96452000Y-168409000D01*
X96452000Y-169411000D01*
X96452000Y-169411000D01*
G37*
G36*
X98652000Y-169411000D02*
G01*
X97350000Y-169411000D01*
X97350000Y-168409000D01*
X98652000Y-168409000D01*
X98652000Y-169411000D01*
X98652000Y-169411000D01*
G37*
G36*
X117862000Y-169261000D02*
G01*
X116260000Y-169261000D01*
X116260000Y-168559000D01*
X117862000Y-168559000D01*
X117862000Y-169261000D01*
X117862000Y-169261000D01*
G37*
G36*
X84367000Y-169261000D02*
G01*
X82765000Y-169261000D01*
X82765000Y-168559000D01*
X84367000Y-168559000D01*
X84367000Y-169261000D01*
X84367000Y-169261000D01*
G37*
G36*
X89767000Y-169261000D02*
G01*
X88165000Y-169261000D01*
X88165000Y-168559000D01*
X89767000Y-168559000D01*
X89767000Y-169261000D01*
X89767000Y-169261000D01*
G37*
G36*
X123262000Y-169261000D02*
G01*
X121660000Y-169261000D01*
X121660000Y-168559000D01*
X123262000Y-168559000D01*
X123262000Y-169261000D01*
X123262000Y-169261000D01*
G37*
G36*
X89767000Y-167991000D02*
G01*
X88165000Y-167991000D01*
X88165000Y-167289000D01*
X89767000Y-167289000D01*
X89767000Y-167991000D01*
X89767000Y-167991000D01*
G37*
G36*
X117862000Y-167991000D02*
G01*
X116260000Y-167991000D01*
X116260000Y-167289000D01*
X117862000Y-167289000D01*
X117862000Y-167991000D01*
X117862000Y-167991000D01*
G37*
G36*
X84367000Y-167991000D02*
G01*
X82765000Y-167991000D01*
X82765000Y-167289000D01*
X84367000Y-167289000D01*
X84367000Y-167991000D01*
X84367000Y-167991000D01*
G37*
G36*
X123262000Y-167991000D02*
G01*
X121660000Y-167991000D01*
X121660000Y-167289000D01*
X123262000Y-167289000D01*
X123262000Y-167991000D01*
X123262000Y-167991000D01*
G37*
G36*
X76447000Y-167951000D02*
G01*
X75445000Y-167951000D01*
X75445000Y-166649000D01*
X76447000Y-166649000D01*
X76447000Y-167951000D01*
X76447000Y-167951000D01*
G37*
G36*
X78352000Y-167951000D02*
G01*
X77350000Y-167951000D01*
X77350000Y-166649000D01*
X78352000Y-166649000D01*
X78352000Y-167951000D01*
X78352000Y-167951000D01*
G37*
G36*
X80257000Y-167951000D02*
G01*
X79255000Y-167951000D01*
X79255000Y-166649000D01*
X80257000Y-166649000D01*
X80257000Y-167951000D01*
X80257000Y-167951000D01*
G37*
G36*
X123262000Y-166721000D02*
G01*
X121660000Y-166721000D01*
X121660000Y-166019000D01*
X123262000Y-166019000D01*
X123262000Y-166721000D01*
X123262000Y-166721000D01*
G37*
G36*
X89767000Y-166721000D02*
G01*
X88165000Y-166721000D01*
X88165000Y-166019000D01*
X89767000Y-166019000D01*
X89767000Y-166721000D01*
X89767000Y-166721000D01*
G37*
G36*
X84367000Y-166721000D02*
G01*
X82765000Y-166721000D01*
X82765000Y-166019000D01*
X84367000Y-166019000D01*
X84367000Y-166721000D01*
X84367000Y-166721000D01*
G37*
G36*
X117862000Y-166721000D02*
G01*
X116260000Y-166721000D01*
X116260000Y-166019000D01*
X117862000Y-166019000D01*
X117862000Y-166721000D01*
X117862000Y-166721000D01*
G37*
G36*
X142937000Y-166686000D02*
G01*
X141035000Y-166686000D01*
X141035000Y-164784000D01*
X142937000Y-164784000D01*
X142937000Y-166686000D01*
X142937000Y-166686000D01*
G37*
G36*
X148652000Y-166686000D02*
G01*
X146750000Y-166686000D01*
X146750000Y-164784000D01*
X148652000Y-164784000D01*
X148652000Y-166686000D01*
X148652000Y-166686000D01*
G37*
G36*
X150518395Y-164820546D02*
G01*
X150691466Y-164892234D01*
X150691467Y-164892235D01*
X150847227Y-164996310D01*
X150979690Y-165128773D01*
X150979691Y-165128775D01*
X151083766Y-165284534D01*
X151155454Y-165457605D01*
X151192000Y-165641333D01*
X151192000Y-165828667D01*
X151155454Y-166012395D01*
X151083766Y-166185466D01*
X151083765Y-166185467D01*
X150979690Y-166341227D01*
X150847227Y-166473690D01*
X150768818Y-166526081D01*
X150691466Y-166577766D01*
X150518395Y-166649454D01*
X150334667Y-166686000D01*
X150147333Y-166686000D01*
X149963605Y-166649454D01*
X149790534Y-166577766D01*
X149713182Y-166526081D01*
X149634773Y-166473690D01*
X149502310Y-166341227D01*
X149398235Y-166185467D01*
X149398234Y-166185466D01*
X149326546Y-166012395D01*
X149290000Y-165828667D01*
X149290000Y-165641333D01*
X149326546Y-165457605D01*
X149398234Y-165284534D01*
X149502309Y-165128775D01*
X149502310Y-165128773D01*
X149634773Y-164996310D01*
X149790533Y-164892235D01*
X149790534Y-164892234D01*
X149963605Y-164820546D01*
X150147333Y-164784000D01*
X150334667Y-164784000D01*
X150518395Y-164820546D01*
X150518395Y-164820546D01*
G37*
G36*
X139723395Y-164820546D02*
G01*
X139896466Y-164892234D01*
X139896467Y-164892235D01*
X140052227Y-164996310D01*
X140184690Y-165128773D01*
X140184691Y-165128775D01*
X140288766Y-165284534D01*
X140360454Y-165457605D01*
X140397000Y-165641333D01*
X140397000Y-165828667D01*
X140360454Y-166012395D01*
X140288766Y-166185466D01*
X140288765Y-166185467D01*
X140184690Y-166341227D01*
X140052227Y-166473690D01*
X139973818Y-166526081D01*
X139896466Y-166577766D01*
X139723395Y-166649454D01*
X139539667Y-166686000D01*
X139352333Y-166686000D01*
X139168605Y-166649454D01*
X138995534Y-166577766D01*
X138918182Y-166526081D01*
X138839773Y-166473690D01*
X138707310Y-166341227D01*
X138603235Y-166185467D01*
X138603234Y-166185466D01*
X138531546Y-166012395D01*
X138495000Y-165828667D01*
X138495000Y-165641333D01*
X138531546Y-165457605D01*
X138603234Y-165284534D01*
X138707309Y-165128775D01*
X138707310Y-165128773D01*
X138839773Y-164996310D01*
X138995533Y-164892235D01*
X138995534Y-164892234D01*
X139168605Y-164820546D01*
X139352333Y-164784000D01*
X139539667Y-164784000D01*
X139723395Y-164820546D01*
X139723395Y-164820546D01*
G37*
G36*
X134552000Y-166236000D02*
G01*
X133250000Y-166236000D01*
X133250000Y-165234000D01*
X134552000Y-165234000D01*
X134552000Y-166236000D01*
X134552000Y-166236000D01*
G37*
G36*
X136752000Y-166236000D02*
G01*
X135450000Y-166236000D01*
X135450000Y-165234000D01*
X136752000Y-165234000D01*
X136752000Y-166236000D01*
X136752000Y-166236000D01*
G37*
G36*
X154237000Y-166236000D02*
G01*
X152935000Y-166236000D01*
X152935000Y-165234000D01*
X154237000Y-165234000D01*
X154237000Y-166236000D01*
X154237000Y-166236000D01*
G37*
G36*
X156437000Y-166236000D02*
G01*
X155135000Y-166236000D01*
X155135000Y-165234000D01*
X156437000Y-165234000D01*
X156437000Y-166236000D01*
X156437000Y-166236000D01*
G37*
G36*
X80257000Y-165751000D02*
G01*
X79255000Y-165751000D01*
X79255000Y-164449000D01*
X80257000Y-164449000D01*
X80257000Y-165751000D01*
X80257000Y-165751000D01*
G37*
G36*
X76447000Y-165751000D02*
G01*
X75445000Y-165751000D01*
X75445000Y-164449000D01*
X76447000Y-164449000D01*
X76447000Y-165751000D01*
X76447000Y-165751000D01*
G37*
G36*
X78352000Y-165751000D02*
G01*
X77350000Y-165751000D01*
X77350000Y-164449000D01*
X78352000Y-164449000D01*
X78352000Y-165751000D01*
X78352000Y-165751000D01*
G37*
G36*
X90824499Y-163308445D02*
G01*
X90861995Y-163319820D01*
X90896554Y-163338292D01*
X90926847Y-163363153D01*
X90951708Y-163393446D01*
X90970180Y-163428005D01*
X90981555Y-163465501D01*
X90986000Y-163510638D01*
X90986000Y-164149362D01*
X90981555Y-164194499D01*
X90970180Y-164231995D01*
X90951708Y-164266554D01*
X90926847Y-164296847D01*
X90896554Y-164321708D01*
X90861995Y-164340180D01*
X90824499Y-164351555D01*
X90779362Y-164356000D01*
X90040638Y-164356000D01*
X89995501Y-164351555D01*
X89958005Y-164340180D01*
X89923446Y-164321708D01*
X89893153Y-164296847D01*
X89868292Y-164266554D01*
X89849820Y-164231995D01*
X89838445Y-164194499D01*
X89834000Y-164149362D01*
X89834000Y-163510638D01*
X89838445Y-163465501D01*
X89849820Y-163428005D01*
X89868292Y-163393446D01*
X89893153Y-163363153D01*
X89923446Y-163338292D01*
X89958005Y-163319820D01*
X89995501Y-163308445D01*
X90040638Y-163304000D01*
X90779362Y-163304000D01*
X90824499Y-163308445D01*
X90824499Y-163308445D01*
G37*
G36*
X89074499Y-163308445D02*
G01*
X89111995Y-163319820D01*
X89146554Y-163338292D01*
X89176847Y-163363153D01*
X89201708Y-163393446D01*
X89220180Y-163428005D01*
X89231555Y-163465501D01*
X89236000Y-163510638D01*
X89236000Y-164149362D01*
X89231555Y-164194499D01*
X89220180Y-164231995D01*
X89201708Y-164266554D01*
X89176847Y-164296847D01*
X89146554Y-164321708D01*
X89111995Y-164340180D01*
X89074499Y-164351555D01*
X89029362Y-164356000D01*
X88290638Y-164356000D01*
X88245501Y-164351555D01*
X88208005Y-164340180D01*
X88173446Y-164321708D01*
X88143153Y-164296847D01*
X88118292Y-164266554D01*
X88099820Y-164231995D01*
X88088445Y-164194499D01*
X88084000Y-164149362D01*
X88084000Y-163510638D01*
X88088445Y-163465501D01*
X88099820Y-163428005D01*
X88118292Y-163393446D01*
X88143153Y-163363153D01*
X88173446Y-163338292D01*
X88208005Y-163319820D01*
X88245501Y-163308445D01*
X88290638Y-163304000D01*
X89029362Y-163304000D01*
X89074499Y-163308445D01*
X89074499Y-163308445D01*
G37*
G36*
X123844499Y-163308445D02*
G01*
X123881995Y-163319820D01*
X123916554Y-163338292D01*
X123946847Y-163363153D01*
X123971708Y-163393446D01*
X123990180Y-163428005D01*
X124001555Y-163465501D01*
X124006000Y-163510638D01*
X124006000Y-164149362D01*
X124001555Y-164194499D01*
X123990180Y-164231995D01*
X123971708Y-164266554D01*
X123946847Y-164296847D01*
X123916554Y-164321708D01*
X123881995Y-164340180D01*
X123844499Y-164351555D01*
X123799362Y-164356000D01*
X123060638Y-164356000D01*
X123015501Y-164351555D01*
X122978005Y-164340180D01*
X122943446Y-164321708D01*
X122913153Y-164296847D01*
X122888292Y-164266554D01*
X122869820Y-164231995D01*
X122858445Y-164194499D01*
X122854000Y-164149362D01*
X122854000Y-163510638D01*
X122858445Y-163465501D01*
X122869820Y-163428005D01*
X122888292Y-163393446D01*
X122913153Y-163363153D01*
X122943446Y-163338292D01*
X122978005Y-163319820D01*
X123015501Y-163308445D01*
X123060638Y-163304000D01*
X123799362Y-163304000D01*
X123844499Y-163308445D01*
X123844499Y-163308445D01*
G37*
G36*
X122094499Y-163308445D02*
G01*
X122131995Y-163319820D01*
X122166554Y-163338292D01*
X122196847Y-163363153D01*
X122221708Y-163393446D01*
X122240180Y-163428005D01*
X122251555Y-163465501D01*
X122256000Y-163510638D01*
X122256000Y-164149362D01*
X122251555Y-164194499D01*
X122240180Y-164231995D01*
X122221708Y-164266554D01*
X122196847Y-164296847D01*
X122166554Y-164321708D01*
X122131995Y-164340180D01*
X122094499Y-164351555D01*
X122049362Y-164356000D01*
X121310638Y-164356000D01*
X121265501Y-164351555D01*
X121228005Y-164340180D01*
X121193446Y-164321708D01*
X121163153Y-164296847D01*
X121138292Y-164266554D01*
X121119820Y-164231995D01*
X121108445Y-164194499D01*
X121104000Y-164149362D01*
X121104000Y-163510638D01*
X121108445Y-163465501D01*
X121119820Y-163428005D01*
X121138292Y-163393446D01*
X121163153Y-163363153D01*
X121193446Y-163338292D01*
X121228005Y-163319820D01*
X121265501Y-163308445D01*
X121310638Y-163304000D01*
X122049362Y-163304000D01*
X122094499Y-163308445D01*
X122094499Y-163308445D01*
G37*
G36*
X100988395Y-162280546D02*
G01*
X101161466Y-162352234D01*
X101161467Y-162352235D01*
X101317227Y-162456310D01*
X101449690Y-162588773D01*
X101449691Y-162588775D01*
X101553766Y-162744534D01*
X101625454Y-162917605D01*
X101662000Y-163101333D01*
X101662000Y-163288667D01*
X101625454Y-163472395D01*
X101553766Y-163645466D01*
X101553765Y-163645467D01*
X101449690Y-163801227D01*
X101317227Y-163933690D01*
X101238818Y-163986081D01*
X101161466Y-164037766D01*
X100988395Y-164109454D01*
X100804667Y-164146000D01*
X100617333Y-164146000D01*
X100433605Y-164109454D01*
X100260534Y-164037766D01*
X100183182Y-163986081D01*
X100104773Y-163933690D01*
X99972310Y-163801227D01*
X99868235Y-163645467D01*
X99868234Y-163645466D01*
X99796546Y-163472395D01*
X99760000Y-163288667D01*
X99760000Y-163101333D01*
X99796546Y-162917605D01*
X99868234Y-162744534D01*
X99972309Y-162588775D01*
X99972310Y-162588773D01*
X100104773Y-162456310D01*
X100260533Y-162352235D01*
X100260534Y-162352234D01*
X100433605Y-162280546D01*
X100617333Y-162244000D01*
X100804667Y-162244000D01*
X100988395Y-162280546D01*
X100988395Y-162280546D01*
G37*
G36*
X104202000Y-164146000D02*
G01*
X102300000Y-164146000D01*
X102300000Y-162244000D01*
X104202000Y-162244000D01*
X104202000Y-164146000D01*
X104202000Y-164146000D01*
G37*
G36*
X98652000Y-163696000D02*
G01*
X97350000Y-163696000D01*
X97350000Y-162694000D01*
X98652000Y-162694000D01*
X98652000Y-163696000D01*
X98652000Y-163696000D01*
G37*
G36*
X96452000Y-163696000D02*
G01*
X95150000Y-163696000D01*
X95150000Y-162694000D01*
X96452000Y-162694000D01*
X96452000Y-163696000D01*
X96452000Y-163696000D01*
G37*
G36*
X79485442Y-161348018D02*
G01*
X79551627Y-161354537D01*
X79721466Y-161406057D01*
X79877991Y-161489722D01*
X79913729Y-161519052D01*
X80015186Y-161602314D01*
X80098448Y-161703771D01*
X80127778Y-161739509D01*
X80211443Y-161896034D01*
X80262963Y-162065873D01*
X80280359Y-162242500D01*
X80262963Y-162419127D01*
X80211443Y-162588966D01*
X80127778Y-162745491D01*
X80098448Y-162781229D01*
X80015186Y-162882686D01*
X79913729Y-162965948D01*
X79877991Y-162995278D01*
X79721466Y-163078943D01*
X79551627Y-163130463D01*
X79485443Y-163136981D01*
X79419260Y-163143500D01*
X79330740Y-163143500D01*
X79264557Y-163136981D01*
X79198373Y-163130463D01*
X79028534Y-163078943D01*
X78872009Y-162995278D01*
X78836271Y-162965948D01*
X78734814Y-162882686D01*
X78651552Y-162781229D01*
X78622222Y-162745491D01*
X78538557Y-162588966D01*
X78487037Y-162419127D01*
X78469641Y-162242500D01*
X78487037Y-162065873D01*
X78538557Y-161896034D01*
X78622222Y-161739509D01*
X78651552Y-161703771D01*
X78734814Y-161602314D01*
X78836271Y-161519052D01*
X78872009Y-161489722D01*
X79028534Y-161406057D01*
X79198373Y-161354537D01*
X79264558Y-161348018D01*
X79330740Y-161341500D01*
X79419260Y-161341500D01*
X79485442Y-161348018D01*
X79485442Y-161348018D01*
G37*
G36*
X76945442Y-161348018D02*
G01*
X77011627Y-161354537D01*
X77181466Y-161406057D01*
X77337991Y-161489722D01*
X77373729Y-161519052D01*
X77475186Y-161602314D01*
X77558448Y-161703771D01*
X77587778Y-161739509D01*
X77671443Y-161896034D01*
X77722963Y-162065873D01*
X77740359Y-162242500D01*
X77722963Y-162419127D01*
X77671443Y-162588966D01*
X77587778Y-162745491D01*
X77558448Y-162781229D01*
X77475186Y-162882686D01*
X77373729Y-162965948D01*
X77337991Y-162995278D01*
X77181466Y-163078943D01*
X77011627Y-163130463D01*
X76945443Y-163136981D01*
X76879260Y-163143500D01*
X76790740Y-163143500D01*
X76724557Y-163136981D01*
X76658373Y-163130463D01*
X76488534Y-163078943D01*
X76332009Y-162995278D01*
X76296271Y-162965948D01*
X76194814Y-162882686D01*
X76111552Y-162781229D01*
X76082222Y-162745491D01*
X75998557Y-162588966D01*
X75947037Y-162419127D01*
X75929641Y-162242500D01*
X75947037Y-162065873D01*
X75998557Y-161896034D01*
X76082222Y-161739509D01*
X76111552Y-161703771D01*
X76194814Y-161602314D01*
X76296271Y-161519052D01*
X76332009Y-161489722D01*
X76488534Y-161406057D01*
X76658373Y-161354537D01*
X76724558Y-161348018D01*
X76790740Y-161341500D01*
X76879260Y-161341500D01*
X76945442Y-161348018D01*
X76945442Y-161348018D01*
G37*
G36*
X167115442Y-160078018D02*
G01*
X167181627Y-160084537D01*
X167351466Y-160136057D01*
X167507991Y-160219722D01*
X167543729Y-160249052D01*
X167645186Y-160332314D01*
X167728448Y-160433771D01*
X167757778Y-160469509D01*
X167841443Y-160626034D01*
X167892963Y-160795873D01*
X167910359Y-160972500D01*
X167892963Y-161149127D01*
X167841443Y-161318966D01*
X167757778Y-161475491D01*
X167728448Y-161511229D01*
X167645186Y-161612686D01*
X167543729Y-161695948D01*
X167507991Y-161725278D01*
X167351466Y-161808943D01*
X167181627Y-161860463D01*
X167115443Y-161866981D01*
X167049260Y-161873500D01*
X166960740Y-161873500D01*
X166894557Y-161866981D01*
X166828373Y-161860463D01*
X166658534Y-161808943D01*
X166502009Y-161725278D01*
X166466271Y-161695948D01*
X166364814Y-161612686D01*
X166281552Y-161511229D01*
X166252222Y-161475491D01*
X166168557Y-161318966D01*
X166117037Y-161149127D01*
X166099641Y-160972500D01*
X166117037Y-160795873D01*
X166168557Y-160626034D01*
X166252222Y-160469509D01*
X166281552Y-160433771D01*
X166364814Y-160332314D01*
X166466271Y-160249052D01*
X166502009Y-160219722D01*
X166658534Y-160136057D01*
X166828373Y-160084537D01*
X166894558Y-160078018D01*
X166960740Y-160071500D01*
X167049260Y-160071500D01*
X167115442Y-160078018D01*
X167115442Y-160078018D01*
G37*
G36*
X148652000Y-160971000D02*
G01*
X146750000Y-160971000D01*
X146750000Y-159069000D01*
X148652000Y-159069000D01*
X148652000Y-160971000D01*
X148652000Y-160971000D01*
G37*
G36*
X150518395Y-159105546D02*
G01*
X150691466Y-159177234D01*
X150703506Y-159185279D01*
X150847227Y-159281310D01*
X150979690Y-159413773D01*
X150979691Y-159413775D01*
X151083766Y-159569534D01*
X151155454Y-159742605D01*
X151192000Y-159926333D01*
X151192000Y-160113667D01*
X151155454Y-160297395D01*
X151083766Y-160470466D01*
X151083765Y-160470467D01*
X150979690Y-160626227D01*
X150847227Y-160758690D01*
X150791578Y-160795873D01*
X150691466Y-160862766D01*
X150518395Y-160934454D01*
X150334667Y-160971000D01*
X150147333Y-160971000D01*
X149963605Y-160934454D01*
X149790534Y-160862766D01*
X149690422Y-160795873D01*
X149634773Y-160758690D01*
X149502310Y-160626227D01*
X149398235Y-160470467D01*
X149398234Y-160470466D01*
X149326546Y-160297395D01*
X149290000Y-160113667D01*
X149290000Y-159926333D01*
X149326546Y-159742605D01*
X149398234Y-159569534D01*
X149502309Y-159413775D01*
X149502310Y-159413773D01*
X149634773Y-159281310D01*
X149778494Y-159185279D01*
X149790534Y-159177234D01*
X149963605Y-159105546D01*
X150147333Y-159069000D01*
X150334667Y-159069000D01*
X150518395Y-159105546D01*
X150518395Y-159105546D01*
G37*
G36*
X139723395Y-159105546D02*
G01*
X139896466Y-159177234D01*
X139908506Y-159185279D01*
X140052227Y-159281310D01*
X140184690Y-159413773D01*
X140184691Y-159413775D01*
X140288766Y-159569534D01*
X140360454Y-159742605D01*
X140397000Y-159926333D01*
X140397000Y-160113667D01*
X140360454Y-160297395D01*
X140288766Y-160470466D01*
X140288765Y-160470467D01*
X140184690Y-160626227D01*
X140052227Y-160758690D01*
X139996578Y-160795873D01*
X139896466Y-160862766D01*
X139723395Y-160934454D01*
X139539667Y-160971000D01*
X139352333Y-160971000D01*
X139168605Y-160934454D01*
X138995534Y-160862766D01*
X138895422Y-160795873D01*
X138839773Y-160758690D01*
X138707310Y-160626227D01*
X138603235Y-160470467D01*
X138603234Y-160470466D01*
X138531546Y-160297395D01*
X138495000Y-160113667D01*
X138495000Y-159926333D01*
X138531546Y-159742605D01*
X138603234Y-159569534D01*
X138707309Y-159413775D01*
X138707310Y-159413773D01*
X138839773Y-159281310D01*
X138983494Y-159185279D01*
X138995534Y-159177234D01*
X139168605Y-159105546D01*
X139352333Y-159069000D01*
X139539667Y-159069000D01*
X139723395Y-159105546D01*
X139723395Y-159105546D01*
G37*
G36*
X142937000Y-160971000D02*
G01*
X141035000Y-160971000D01*
X141035000Y-159069000D01*
X142937000Y-159069000D01*
X142937000Y-160971000D01*
X142937000Y-160971000D01*
G37*
G36*
X76945442Y-158808018D02*
G01*
X77011627Y-158814537D01*
X77181466Y-158866057D01*
X77337991Y-158949722D01*
X77373729Y-158979052D01*
X77475186Y-159062314D01*
X77558448Y-159163771D01*
X77587778Y-159199509D01*
X77671443Y-159356034D01*
X77722963Y-159525873D01*
X77740359Y-159702500D01*
X77722963Y-159879127D01*
X77671443Y-160048966D01*
X77587778Y-160205491D01*
X77558448Y-160241229D01*
X77475186Y-160342686D01*
X77373729Y-160425948D01*
X77337991Y-160455278D01*
X77181466Y-160538943D01*
X77011627Y-160590463D01*
X76945442Y-160596982D01*
X76879260Y-160603500D01*
X76790740Y-160603500D01*
X76724558Y-160596982D01*
X76658373Y-160590463D01*
X76488534Y-160538943D01*
X76332009Y-160455278D01*
X76296271Y-160425948D01*
X76194814Y-160342686D01*
X76111552Y-160241229D01*
X76082222Y-160205491D01*
X75998557Y-160048966D01*
X75947037Y-159879127D01*
X75929641Y-159702500D01*
X75947037Y-159525873D01*
X75998557Y-159356034D01*
X76082222Y-159199509D01*
X76111552Y-159163771D01*
X76194814Y-159062314D01*
X76296271Y-158979052D01*
X76332009Y-158949722D01*
X76488534Y-158866057D01*
X76658373Y-158814537D01*
X76724558Y-158808018D01*
X76790740Y-158801500D01*
X76879260Y-158801500D01*
X76945442Y-158808018D01*
X76945442Y-158808018D01*
G37*
G36*
X79485442Y-158808018D02*
G01*
X79551627Y-158814537D01*
X79721466Y-158866057D01*
X79877991Y-158949722D01*
X79913729Y-158979052D01*
X80015186Y-159062314D01*
X80098448Y-159163771D01*
X80127778Y-159199509D01*
X80211443Y-159356034D01*
X80262963Y-159525873D01*
X80280359Y-159702500D01*
X80262963Y-159879127D01*
X80211443Y-160048966D01*
X80127778Y-160205491D01*
X80098448Y-160241229D01*
X80015186Y-160342686D01*
X79913729Y-160425948D01*
X79877991Y-160455278D01*
X79721466Y-160538943D01*
X79551627Y-160590463D01*
X79485442Y-160596982D01*
X79419260Y-160603500D01*
X79330740Y-160603500D01*
X79264558Y-160596982D01*
X79198373Y-160590463D01*
X79028534Y-160538943D01*
X78872009Y-160455278D01*
X78836271Y-160425948D01*
X78734814Y-160342686D01*
X78651552Y-160241229D01*
X78622222Y-160205491D01*
X78538557Y-160048966D01*
X78487037Y-159879127D01*
X78469641Y-159702500D01*
X78487037Y-159525873D01*
X78538557Y-159356034D01*
X78622222Y-159199509D01*
X78651552Y-159163771D01*
X78734814Y-159062314D01*
X78836271Y-158979052D01*
X78872009Y-158949722D01*
X79028534Y-158866057D01*
X79198373Y-158814537D01*
X79264558Y-158808018D01*
X79330740Y-158801500D01*
X79419260Y-158801500D01*
X79485442Y-158808018D01*
X79485442Y-158808018D01*
G37*
G36*
X156437000Y-160521000D02*
G01*
X155135000Y-160521000D01*
X155135000Y-159519000D01*
X156437000Y-159519000D01*
X156437000Y-160521000D01*
X156437000Y-160521000D01*
G37*
G36*
X154237000Y-160521000D02*
G01*
X152935000Y-160521000D01*
X152935000Y-159519000D01*
X154237000Y-159519000D01*
X154237000Y-160521000D01*
X154237000Y-160521000D01*
G37*
G36*
X136752000Y-160521000D02*
G01*
X135450000Y-160521000D01*
X135450000Y-159519000D01*
X136752000Y-159519000D01*
X136752000Y-160521000D01*
X136752000Y-160521000D01*
G37*
G36*
X134552000Y-160521000D02*
G01*
X133250000Y-160521000D01*
X133250000Y-159519000D01*
X134552000Y-159519000D01*
X134552000Y-160521000D01*
X134552000Y-160521000D01*
G37*
G36*
X167115443Y-157538019D02*
G01*
X167181627Y-157544537D01*
X167351466Y-157596057D01*
X167507991Y-157679722D01*
X167543729Y-157709052D01*
X167645186Y-157792314D01*
X167728448Y-157893771D01*
X167757778Y-157929509D01*
X167841443Y-158086034D01*
X167892963Y-158255873D01*
X167910359Y-158432500D01*
X167892963Y-158609127D01*
X167841443Y-158778966D01*
X167757778Y-158935491D01*
X167728448Y-158971229D01*
X167645186Y-159072686D01*
X167543729Y-159155948D01*
X167507991Y-159185278D01*
X167351466Y-159268943D01*
X167181627Y-159320463D01*
X167115443Y-159326981D01*
X167049260Y-159333500D01*
X166960740Y-159333500D01*
X166894557Y-159326981D01*
X166828373Y-159320463D01*
X166658534Y-159268943D01*
X166502009Y-159185278D01*
X166466271Y-159155948D01*
X166364814Y-159072686D01*
X166281552Y-158971229D01*
X166252222Y-158935491D01*
X166168557Y-158778966D01*
X166117037Y-158609127D01*
X166099641Y-158432500D01*
X166117037Y-158255873D01*
X166168557Y-158086034D01*
X166252222Y-157929509D01*
X166281552Y-157893771D01*
X166364814Y-157792314D01*
X166466271Y-157709052D01*
X166502009Y-157679722D01*
X166658534Y-157596057D01*
X166828373Y-157544537D01*
X166894557Y-157538019D01*
X166960740Y-157531500D01*
X167049260Y-157531500D01*
X167115443Y-157538019D01*
X167115443Y-157538019D01*
G37*
G36*
X91121000Y-158431000D02*
G01*
X89219000Y-158431000D01*
X89219000Y-156529000D01*
X91121000Y-156529000D01*
X91121000Y-158431000D01*
X91121000Y-158431000D01*
G37*
G36*
X100988395Y-156565546D02*
G01*
X101161466Y-156637234D01*
X101173506Y-156645279D01*
X101317227Y-156741310D01*
X101449690Y-156873773D01*
X101449691Y-156873775D01*
X101553766Y-157029534D01*
X101625454Y-157202605D01*
X101662000Y-157386333D01*
X101662000Y-157573667D01*
X101625454Y-157757395D01*
X101553766Y-157930466D01*
X101553765Y-157930467D01*
X101449690Y-158086227D01*
X101317227Y-158218690D01*
X101261578Y-158255873D01*
X101161466Y-158322766D01*
X100988395Y-158394454D01*
X100804667Y-158431000D01*
X100617333Y-158431000D01*
X100433605Y-158394454D01*
X100260534Y-158322766D01*
X100160422Y-158255873D01*
X100104773Y-158218690D01*
X99972310Y-158086227D01*
X99868235Y-157930467D01*
X99868234Y-157930466D01*
X99796546Y-157757395D01*
X99760000Y-157573667D01*
X99760000Y-157386333D01*
X99796546Y-157202605D01*
X99868234Y-157029534D01*
X99972309Y-156873775D01*
X99972310Y-156873773D01*
X100104773Y-156741310D01*
X100248494Y-156645279D01*
X100260534Y-156637234D01*
X100433605Y-156565546D01*
X100617333Y-156529000D01*
X100804667Y-156529000D01*
X100988395Y-156565546D01*
X100988395Y-156565546D01*
G37*
G36*
X87907395Y-156565546D02*
G01*
X88080466Y-156637234D01*
X88092506Y-156645279D01*
X88236227Y-156741310D01*
X88368690Y-156873773D01*
X88368691Y-156873775D01*
X88472766Y-157029534D01*
X88544454Y-157202605D01*
X88581000Y-157386333D01*
X88581000Y-157573667D01*
X88544454Y-157757395D01*
X88472766Y-157930466D01*
X88472765Y-157930467D01*
X88368690Y-158086227D01*
X88236227Y-158218690D01*
X88180578Y-158255873D01*
X88080466Y-158322766D01*
X87907395Y-158394454D01*
X87723667Y-158431000D01*
X87536333Y-158431000D01*
X87352605Y-158394454D01*
X87179534Y-158322766D01*
X87079422Y-158255873D01*
X87023773Y-158218690D01*
X86891310Y-158086227D01*
X86787235Y-157930467D01*
X86787234Y-157930466D01*
X86715546Y-157757395D01*
X86679000Y-157573667D01*
X86679000Y-157386333D01*
X86715546Y-157202605D01*
X86787234Y-157029534D01*
X86891309Y-156873775D01*
X86891310Y-156873773D01*
X87023773Y-156741310D01*
X87167494Y-156645279D01*
X87179534Y-156637234D01*
X87352605Y-156565546D01*
X87536333Y-156529000D01*
X87723667Y-156529000D01*
X87907395Y-156565546D01*
X87907395Y-156565546D01*
G37*
G36*
X104202000Y-158431000D02*
G01*
X102300000Y-158431000D01*
X102300000Y-156529000D01*
X104202000Y-156529000D01*
X104202000Y-158431000D01*
X104202000Y-158431000D01*
G37*
G36*
X76945442Y-156268018D02*
G01*
X77011627Y-156274537D01*
X77181466Y-156326057D01*
X77337991Y-156409722D01*
X77373729Y-156439052D01*
X77475186Y-156522314D01*
X77558448Y-156623771D01*
X77587778Y-156659509D01*
X77671443Y-156816034D01*
X77722963Y-156985873D01*
X77740359Y-157162500D01*
X77722963Y-157339127D01*
X77671443Y-157508966D01*
X77587778Y-157665491D01*
X77558448Y-157701229D01*
X77475186Y-157802686D01*
X77373729Y-157885948D01*
X77337991Y-157915278D01*
X77181466Y-157998943D01*
X77011627Y-158050463D01*
X76945442Y-158056982D01*
X76879260Y-158063500D01*
X76790740Y-158063500D01*
X76724558Y-158056982D01*
X76658373Y-158050463D01*
X76488534Y-157998943D01*
X76332009Y-157915278D01*
X76296271Y-157885948D01*
X76194814Y-157802686D01*
X76111552Y-157701229D01*
X76082222Y-157665491D01*
X75998557Y-157508966D01*
X75947037Y-157339127D01*
X75929641Y-157162500D01*
X75947037Y-156985873D01*
X75998557Y-156816034D01*
X76082222Y-156659509D01*
X76111552Y-156623771D01*
X76194814Y-156522314D01*
X76296271Y-156439052D01*
X76332009Y-156409722D01*
X76488534Y-156326057D01*
X76658373Y-156274537D01*
X76724558Y-156268018D01*
X76790740Y-156261500D01*
X76879260Y-156261500D01*
X76945442Y-156268018D01*
X76945442Y-156268018D01*
G37*
G36*
X79485442Y-156268018D02*
G01*
X79551627Y-156274537D01*
X79721466Y-156326057D01*
X79877991Y-156409722D01*
X79913729Y-156439052D01*
X80015186Y-156522314D01*
X80098448Y-156623771D01*
X80127778Y-156659509D01*
X80211443Y-156816034D01*
X80262963Y-156985873D01*
X80280359Y-157162500D01*
X80262963Y-157339127D01*
X80211443Y-157508966D01*
X80127778Y-157665491D01*
X80098448Y-157701229D01*
X80015186Y-157802686D01*
X79913729Y-157885948D01*
X79877991Y-157915278D01*
X79721466Y-157998943D01*
X79551627Y-158050463D01*
X79485442Y-158056982D01*
X79419260Y-158063500D01*
X79330740Y-158063500D01*
X79264558Y-158056982D01*
X79198373Y-158050463D01*
X79028534Y-157998943D01*
X78872009Y-157915278D01*
X78836271Y-157885948D01*
X78734814Y-157802686D01*
X78651552Y-157701229D01*
X78622222Y-157665491D01*
X78538557Y-157508966D01*
X78487037Y-157339127D01*
X78469641Y-157162500D01*
X78487037Y-156985873D01*
X78538557Y-156816034D01*
X78622222Y-156659509D01*
X78651552Y-156623771D01*
X78734814Y-156522314D01*
X78836271Y-156439052D01*
X78872009Y-156409722D01*
X79028534Y-156326057D01*
X79198373Y-156274537D01*
X79264558Y-156268018D01*
X79330740Y-156261500D01*
X79419260Y-156261500D01*
X79485442Y-156268018D01*
X79485442Y-156268018D01*
G37*
G36*
X98652000Y-157981000D02*
G01*
X97350000Y-157981000D01*
X97350000Y-156979000D01*
X98652000Y-156979000D01*
X98652000Y-157981000D01*
X98652000Y-157981000D01*
G37*
G36*
X96452000Y-157981000D02*
G01*
X95150000Y-157981000D01*
X95150000Y-156979000D01*
X96452000Y-156979000D01*
X96452000Y-157981000D01*
X96452000Y-157981000D01*
G37*
G36*
X167115443Y-154998019D02*
G01*
X167181627Y-155004537D01*
X167351466Y-155056057D01*
X167507991Y-155139722D01*
X167543729Y-155169052D01*
X167645186Y-155252314D01*
X167728448Y-155353771D01*
X167757778Y-155389509D01*
X167841443Y-155546034D01*
X167892963Y-155715873D01*
X167910359Y-155892500D01*
X167892963Y-156069127D01*
X167841443Y-156238966D01*
X167757778Y-156395491D01*
X167728448Y-156431229D01*
X167645186Y-156532686D01*
X167543729Y-156615948D01*
X167507991Y-156645278D01*
X167351466Y-156728943D01*
X167181627Y-156780463D01*
X167115442Y-156786982D01*
X167049260Y-156793500D01*
X166960740Y-156793500D01*
X166894558Y-156786982D01*
X166828373Y-156780463D01*
X166658534Y-156728943D01*
X166502009Y-156645278D01*
X166466271Y-156615948D01*
X166364814Y-156532686D01*
X166281552Y-156431229D01*
X166252222Y-156395491D01*
X166168557Y-156238966D01*
X166117037Y-156069127D01*
X166099641Y-155892500D01*
X166117037Y-155715873D01*
X166168557Y-155546034D01*
X166252222Y-155389509D01*
X166281552Y-155353771D01*
X166364814Y-155252314D01*
X166466271Y-155169052D01*
X166502009Y-155139722D01*
X166658534Y-155056057D01*
X166828373Y-155004537D01*
X166894557Y-154998019D01*
X166960740Y-154991500D01*
X167049260Y-154991500D01*
X167115443Y-154998019D01*
X167115443Y-154998019D01*
G37*
G36*
X76945443Y-153728019D02*
G01*
X77011627Y-153734537D01*
X77181466Y-153786057D01*
X77337991Y-153869722D01*
X77373729Y-153899052D01*
X77475186Y-153982314D01*
X77558448Y-154083771D01*
X77587778Y-154119509D01*
X77671443Y-154276034D01*
X77722963Y-154445873D01*
X77740359Y-154622500D01*
X77722963Y-154799127D01*
X77671443Y-154968966D01*
X77587778Y-155125491D01*
X77569498Y-155147765D01*
X77475186Y-155262686D01*
X77373729Y-155345948D01*
X77337991Y-155375278D01*
X77181466Y-155458943D01*
X77011627Y-155510463D01*
X76945442Y-155516982D01*
X76879260Y-155523500D01*
X76790740Y-155523500D01*
X76724558Y-155516982D01*
X76658373Y-155510463D01*
X76488534Y-155458943D01*
X76332009Y-155375278D01*
X76296271Y-155345948D01*
X76194814Y-155262686D01*
X76100502Y-155147765D01*
X76082222Y-155125491D01*
X75998557Y-154968966D01*
X75947037Y-154799127D01*
X75929641Y-154622500D01*
X75947037Y-154445873D01*
X75998557Y-154276034D01*
X76082222Y-154119509D01*
X76111552Y-154083771D01*
X76194814Y-153982314D01*
X76296271Y-153899052D01*
X76332009Y-153869722D01*
X76488534Y-153786057D01*
X76658373Y-153734537D01*
X76724557Y-153728019D01*
X76790740Y-153721500D01*
X76879260Y-153721500D01*
X76945443Y-153728019D01*
X76945443Y-153728019D01*
G37*
G36*
X79485443Y-153728019D02*
G01*
X79551627Y-153734537D01*
X79721466Y-153786057D01*
X79877991Y-153869722D01*
X79913729Y-153899052D01*
X80015186Y-153982314D01*
X80098448Y-154083771D01*
X80127778Y-154119509D01*
X80211443Y-154276034D01*
X80262963Y-154445873D01*
X80280359Y-154622500D01*
X80262963Y-154799127D01*
X80211443Y-154968966D01*
X80127778Y-155125491D01*
X80109498Y-155147765D01*
X80015186Y-155262686D01*
X79913729Y-155345948D01*
X79877991Y-155375278D01*
X79721466Y-155458943D01*
X79551627Y-155510463D01*
X79485442Y-155516982D01*
X79419260Y-155523500D01*
X79330740Y-155523500D01*
X79264558Y-155516982D01*
X79198373Y-155510463D01*
X79028534Y-155458943D01*
X78872009Y-155375278D01*
X78836271Y-155345948D01*
X78734814Y-155262686D01*
X78640502Y-155147765D01*
X78622222Y-155125491D01*
X78538557Y-154968966D01*
X78487037Y-154799127D01*
X78469641Y-154622500D01*
X78487037Y-154445873D01*
X78538557Y-154276034D01*
X78622222Y-154119509D01*
X78651552Y-154083771D01*
X78734814Y-153982314D01*
X78836271Y-153899052D01*
X78872009Y-153869722D01*
X79028534Y-153786057D01*
X79198373Y-153734537D01*
X79264557Y-153728019D01*
X79330740Y-153721500D01*
X79419260Y-153721500D01*
X79485443Y-153728019D01*
X79485443Y-153728019D01*
G37*
G36*
X150518395Y-153390546D02*
G01*
X150691466Y-153462234D01*
X150691467Y-153462235D01*
X150847227Y-153566310D01*
X150979690Y-153698773D01*
X151032081Y-153777182D01*
X151083766Y-153854534D01*
X151155454Y-154027605D01*
X151192000Y-154211333D01*
X151192000Y-154398667D01*
X151155454Y-154582395D01*
X151083766Y-154755466D01*
X151050000Y-154806000D01*
X150979690Y-154911227D01*
X150847227Y-155043690D01*
X150828718Y-155056057D01*
X150691466Y-155147766D01*
X150518395Y-155219454D01*
X150334667Y-155256000D01*
X150147333Y-155256000D01*
X149963605Y-155219454D01*
X149790534Y-155147766D01*
X149653282Y-155056057D01*
X149634773Y-155043690D01*
X149502310Y-154911227D01*
X149432000Y-154806000D01*
X149398234Y-154755466D01*
X149326546Y-154582395D01*
X149290000Y-154398667D01*
X149290000Y-154211333D01*
X149326546Y-154027605D01*
X149398234Y-153854534D01*
X149449919Y-153777182D01*
X149502310Y-153698773D01*
X149634773Y-153566310D01*
X149790533Y-153462235D01*
X149790534Y-153462234D01*
X149963605Y-153390546D01*
X150147333Y-153354000D01*
X150334667Y-153354000D01*
X150518395Y-153390546D01*
X150518395Y-153390546D01*
G37*
G36*
X142937000Y-155256000D02*
G01*
X141035000Y-155256000D01*
X141035000Y-153354000D01*
X142937000Y-153354000D01*
X142937000Y-155256000D01*
X142937000Y-155256000D01*
G37*
G36*
X148652000Y-155256000D02*
G01*
X146750000Y-155256000D01*
X146750000Y-153354000D01*
X148652000Y-153354000D01*
X148652000Y-155256000D01*
X148652000Y-155256000D01*
G37*
G36*
X139723395Y-153390546D02*
G01*
X139896466Y-153462234D01*
X139896467Y-153462235D01*
X140052227Y-153566310D01*
X140184690Y-153698773D01*
X140237081Y-153777182D01*
X140288766Y-153854534D01*
X140360454Y-154027605D01*
X140397000Y-154211333D01*
X140397000Y-154398667D01*
X140360454Y-154582395D01*
X140288766Y-154755466D01*
X140255000Y-154806000D01*
X140184690Y-154911227D01*
X140052227Y-155043690D01*
X140033718Y-155056057D01*
X139896466Y-155147766D01*
X139723395Y-155219454D01*
X139539667Y-155256000D01*
X139352333Y-155256000D01*
X139168605Y-155219454D01*
X138995534Y-155147766D01*
X138858282Y-155056057D01*
X138839773Y-155043690D01*
X138707310Y-154911227D01*
X138637000Y-154806000D01*
X138603234Y-154755466D01*
X138531546Y-154582395D01*
X138495000Y-154398667D01*
X138495000Y-154211333D01*
X138531546Y-154027605D01*
X138603234Y-153854534D01*
X138654919Y-153777182D01*
X138707310Y-153698773D01*
X138839773Y-153566310D01*
X138995533Y-153462235D01*
X138995534Y-153462234D01*
X139168605Y-153390546D01*
X139352333Y-153354000D01*
X139539667Y-153354000D01*
X139723395Y-153390546D01*
X139723395Y-153390546D01*
G37*
G36*
X84702000Y-154956000D02*
G01*
X83700000Y-154956000D01*
X83700000Y-153654000D01*
X84702000Y-153654000D01*
X84702000Y-154956000D01*
X84702000Y-154956000D01*
G37*
G36*
X134552000Y-154806000D02*
G01*
X133250000Y-154806000D01*
X133250000Y-153804000D01*
X134552000Y-153804000D01*
X134552000Y-154806000D01*
X134552000Y-154806000D01*
G37*
G36*
X154237000Y-154806000D02*
G01*
X152935000Y-154806000D01*
X152935000Y-153804000D01*
X154237000Y-153804000D01*
X154237000Y-154806000D01*
X154237000Y-154806000D01*
G37*
G36*
X156437000Y-154806000D02*
G01*
X155135000Y-154806000D01*
X155135000Y-153804000D01*
X156437000Y-153804000D01*
X156437000Y-154806000D01*
X156437000Y-154806000D01*
G37*
G36*
X136752000Y-154806000D02*
G01*
X135450000Y-154806000D01*
X135450000Y-153804000D01*
X136752000Y-153804000D01*
X136752000Y-154806000D01*
X136752000Y-154806000D01*
G37*
G36*
X167906000Y-154253500D02*
G01*
X166104000Y-154253500D01*
X166104000Y-152451500D01*
X167906000Y-152451500D01*
X167906000Y-154253500D01*
X167906000Y-154253500D01*
G37*
G36*
X76945442Y-151188018D02*
G01*
X77011627Y-151194537D01*
X77181466Y-151246057D01*
X77337991Y-151329722D01*
X77373729Y-151359052D01*
X77475186Y-151442314D01*
X77558448Y-151543771D01*
X77587778Y-151579509D01*
X77671443Y-151736034D01*
X77722963Y-151905873D01*
X77740359Y-152082500D01*
X77722963Y-152259127D01*
X77671443Y-152428966D01*
X77587778Y-152585491D01*
X77569498Y-152607765D01*
X77475186Y-152722686D01*
X77373729Y-152805948D01*
X77337991Y-152835278D01*
X77181466Y-152918943D01*
X77011627Y-152970463D01*
X76945442Y-152976982D01*
X76879260Y-152983500D01*
X76790740Y-152983500D01*
X76724558Y-152976982D01*
X76658373Y-152970463D01*
X76488534Y-152918943D01*
X76332009Y-152835278D01*
X76296271Y-152805948D01*
X76194814Y-152722686D01*
X76100502Y-152607765D01*
X76082222Y-152585491D01*
X75998557Y-152428966D01*
X75947037Y-152259127D01*
X75929641Y-152082500D01*
X75947037Y-151905873D01*
X75998557Y-151736034D01*
X76082222Y-151579509D01*
X76111552Y-151543771D01*
X76194814Y-151442314D01*
X76296271Y-151359052D01*
X76332009Y-151329722D01*
X76488534Y-151246057D01*
X76658373Y-151194537D01*
X76724558Y-151188018D01*
X76790740Y-151181500D01*
X76879260Y-151181500D01*
X76945442Y-151188018D01*
X76945442Y-151188018D01*
G37*
G36*
X80276000Y-152983500D02*
G01*
X78474000Y-152983500D01*
X78474000Y-151181500D01*
X80276000Y-151181500D01*
X80276000Y-152983500D01*
X80276000Y-152983500D01*
G37*
G36*
X84702000Y-152756000D02*
G01*
X83700000Y-152756000D01*
X83700000Y-151454000D01*
X84702000Y-151454000D01*
X84702000Y-152756000D01*
X84702000Y-152756000D01*
G37*
G36*
X104202000Y-152716000D02*
G01*
X102300000Y-152716000D01*
X102300000Y-150814000D01*
X104202000Y-150814000D01*
X104202000Y-152716000D01*
X104202000Y-152716000D01*
G37*
G36*
X100988395Y-150850546D02*
G01*
X101161466Y-150922234D01*
X101161467Y-150922235D01*
X101317227Y-151026310D01*
X101449690Y-151158773D01*
X101502081Y-151237182D01*
X101553766Y-151314534D01*
X101625454Y-151487605D01*
X101662000Y-151671333D01*
X101662000Y-151858667D01*
X101625454Y-152042395D01*
X101553766Y-152215466D01*
X101520000Y-152266000D01*
X101449690Y-152371227D01*
X101317227Y-152503690D01*
X101238818Y-152556081D01*
X101161466Y-152607766D01*
X100988395Y-152679454D01*
X100804667Y-152716000D01*
X100617333Y-152716000D01*
X100433605Y-152679454D01*
X100260534Y-152607766D01*
X100183182Y-152556081D01*
X100104773Y-152503690D01*
X99972310Y-152371227D01*
X99902000Y-152266000D01*
X99868234Y-152215466D01*
X99796546Y-152042395D01*
X99760000Y-151858667D01*
X99760000Y-151671333D01*
X99796546Y-151487605D01*
X99868234Y-151314534D01*
X99919919Y-151237182D01*
X99972310Y-151158773D01*
X100104773Y-151026310D01*
X100260533Y-150922235D01*
X100260534Y-150922234D01*
X100433605Y-150850546D01*
X100617333Y-150814000D01*
X100804667Y-150814000D01*
X100988395Y-150850546D01*
X100988395Y-150850546D01*
G37*
G36*
X91121000Y-152716000D02*
G01*
X89219000Y-152716000D01*
X89219000Y-150814000D01*
X91121000Y-150814000D01*
X91121000Y-152716000D01*
X91121000Y-152716000D01*
G37*
G36*
X87907395Y-150850546D02*
G01*
X88080466Y-150922234D01*
X88080467Y-150922235D01*
X88236227Y-151026310D01*
X88368690Y-151158773D01*
X88421081Y-151237182D01*
X88472766Y-151314534D01*
X88544454Y-151487605D01*
X88581000Y-151671333D01*
X88581000Y-151858667D01*
X88544454Y-152042395D01*
X88472766Y-152215466D01*
X88439000Y-152266000D01*
X88368690Y-152371227D01*
X88236227Y-152503690D01*
X88157818Y-152556081D01*
X88080466Y-152607766D01*
X87907395Y-152679454D01*
X87723667Y-152716000D01*
X87536333Y-152716000D01*
X87352605Y-152679454D01*
X87179534Y-152607766D01*
X87102182Y-152556081D01*
X87023773Y-152503690D01*
X86891310Y-152371227D01*
X86821000Y-152266000D01*
X86787234Y-152215466D01*
X86715546Y-152042395D01*
X86679000Y-151858667D01*
X86679000Y-151671333D01*
X86715546Y-151487605D01*
X86787234Y-151314534D01*
X86838919Y-151237182D01*
X86891310Y-151158773D01*
X87023773Y-151026310D01*
X87179533Y-150922235D01*
X87179534Y-150922234D01*
X87352605Y-150850546D01*
X87536333Y-150814000D01*
X87723667Y-150814000D01*
X87907395Y-150850546D01*
X87907395Y-150850546D01*
G37*
G36*
X98652000Y-152266000D02*
G01*
X97350000Y-152266000D01*
X97350000Y-151264000D01*
X98652000Y-151264000D01*
X98652000Y-152266000D01*
X98652000Y-152266000D01*
G37*
G36*
X96452000Y-152266000D02*
G01*
X95150000Y-152266000D01*
X95150000Y-151264000D01*
X96452000Y-151264000D01*
X96452000Y-152266000D01*
X96452000Y-152266000D01*
G37*
G36*
X134187564Y-145729389D02*
G01*
X134378833Y-145808615D01*
X134378835Y-145808616D01*
X134550973Y-145923635D01*
X134697365Y-146070027D01*
X134812385Y-146242167D01*
X134891611Y-146433436D01*
X134932000Y-146636484D01*
X134932000Y-146843516D01*
X134891611Y-147046564D01*
X134812385Y-147237833D01*
X134812384Y-147237835D01*
X134697365Y-147409973D01*
X134550973Y-147556365D01*
X134378835Y-147671384D01*
X134378834Y-147671385D01*
X134378833Y-147671385D01*
X134187564Y-147750611D01*
X133984516Y-147791000D01*
X133777484Y-147791000D01*
X133574436Y-147750611D01*
X133383167Y-147671385D01*
X133383166Y-147671385D01*
X133383165Y-147671384D01*
X133211027Y-147556365D01*
X133064635Y-147409973D01*
X132949616Y-147237835D01*
X132949615Y-147237833D01*
X132870389Y-147046564D01*
X132830000Y-146843516D01*
X132830000Y-146636484D01*
X132870389Y-146433436D01*
X132949615Y-146242167D01*
X133064635Y-146070027D01*
X133211027Y-145923635D01*
X133383165Y-145808616D01*
X133383167Y-145808615D01*
X133574436Y-145729389D01*
X133777484Y-145689000D01*
X133984516Y-145689000D01*
X134187564Y-145729389D01*
X134187564Y-145729389D01*
G37*
G36*
X127687564Y-145729389D02*
G01*
X127878833Y-145808615D01*
X127878835Y-145808616D01*
X128050973Y-145923635D01*
X128197365Y-146070027D01*
X128312385Y-146242167D01*
X128391611Y-146433436D01*
X128432000Y-146636484D01*
X128432000Y-146843516D01*
X128391611Y-147046564D01*
X128312385Y-147237833D01*
X128312384Y-147237835D01*
X128197365Y-147409973D01*
X128050973Y-147556365D01*
X127878835Y-147671384D01*
X127878834Y-147671385D01*
X127878833Y-147671385D01*
X127687564Y-147750611D01*
X127484516Y-147791000D01*
X127277484Y-147791000D01*
X127074436Y-147750611D01*
X126883167Y-147671385D01*
X126883166Y-147671385D01*
X126883165Y-147671384D01*
X126711027Y-147556365D01*
X126564635Y-147409973D01*
X126449616Y-147237835D01*
X126449615Y-147237833D01*
X126370389Y-147046564D01*
X126330000Y-146843516D01*
X126330000Y-146636484D01*
X126370389Y-146433436D01*
X126449615Y-146242167D01*
X126564635Y-146070027D01*
X126711027Y-145923635D01*
X126883165Y-145808616D01*
X126883167Y-145808615D01*
X127074436Y-145729389D01*
X127277484Y-145689000D01*
X127484516Y-145689000D01*
X127687564Y-145729389D01*
X127687564Y-145729389D01*
G37*
G36*
X116892564Y-145729389D02*
G01*
X117083833Y-145808615D01*
X117083835Y-145808616D01*
X117255973Y-145923635D01*
X117402365Y-146070027D01*
X117517385Y-146242167D01*
X117596611Y-146433436D01*
X117637000Y-146636484D01*
X117637000Y-146843516D01*
X117596611Y-147046564D01*
X117517385Y-147237833D01*
X117517384Y-147237835D01*
X117402365Y-147409973D01*
X117255973Y-147556365D01*
X117083835Y-147671384D01*
X117083834Y-147671385D01*
X117083833Y-147671385D01*
X116892564Y-147750611D01*
X116689516Y-147791000D01*
X116482484Y-147791000D01*
X116279436Y-147750611D01*
X116088167Y-147671385D01*
X116088166Y-147671385D01*
X116088165Y-147671384D01*
X115916027Y-147556365D01*
X115769635Y-147409973D01*
X115654616Y-147237835D01*
X115654615Y-147237833D01*
X115575389Y-147046564D01*
X115535000Y-146843516D01*
X115535000Y-146636484D01*
X115575389Y-146433436D01*
X115654615Y-146242167D01*
X115769635Y-146070027D01*
X115916027Y-145923635D01*
X116088165Y-145808616D01*
X116088167Y-145808615D01*
X116279436Y-145729389D01*
X116482484Y-145689000D01*
X116689516Y-145689000D01*
X116892564Y-145729389D01*
X116892564Y-145729389D01*
G37*
G36*
X112597564Y-145729389D02*
G01*
X112788833Y-145808615D01*
X112788835Y-145808616D01*
X112960973Y-145923635D01*
X113107365Y-146070027D01*
X113222385Y-146242167D01*
X113301611Y-146433436D01*
X113342000Y-146636484D01*
X113342000Y-146843516D01*
X113301611Y-147046564D01*
X113222385Y-147237833D01*
X113222384Y-147237835D01*
X113107365Y-147409973D01*
X112960973Y-147556365D01*
X112788835Y-147671384D01*
X112788834Y-147671385D01*
X112788833Y-147671385D01*
X112597564Y-147750611D01*
X112394516Y-147791000D01*
X112187484Y-147791000D01*
X111984436Y-147750611D01*
X111793167Y-147671385D01*
X111793166Y-147671385D01*
X111793165Y-147671384D01*
X111621027Y-147556365D01*
X111474635Y-147409973D01*
X111359616Y-147237835D01*
X111359615Y-147237833D01*
X111280389Y-147046564D01*
X111240000Y-146843516D01*
X111240000Y-146636484D01*
X111280389Y-146433436D01*
X111359615Y-146242167D01*
X111474635Y-146070027D01*
X111621027Y-145923635D01*
X111793165Y-145808616D01*
X111793167Y-145808615D01*
X111984436Y-145729389D01*
X112187484Y-145689000D01*
X112394516Y-145689000D01*
X112597564Y-145729389D01*
X112597564Y-145729389D01*
G37*
G36*
X91007564Y-145729389D02*
G01*
X91198833Y-145808615D01*
X91198835Y-145808616D01*
X91370973Y-145923635D01*
X91517365Y-146070027D01*
X91632385Y-146242167D01*
X91711611Y-146433436D01*
X91752000Y-146636484D01*
X91752000Y-146843516D01*
X91711611Y-147046564D01*
X91632385Y-147237833D01*
X91632384Y-147237835D01*
X91517365Y-147409973D01*
X91370973Y-147556365D01*
X91198835Y-147671384D01*
X91198834Y-147671385D01*
X91198833Y-147671385D01*
X91007564Y-147750611D01*
X90804516Y-147791000D01*
X90597484Y-147791000D01*
X90394436Y-147750611D01*
X90203167Y-147671385D01*
X90203166Y-147671385D01*
X90203165Y-147671384D01*
X90031027Y-147556365D01*
X89884635Y-147409973D01*
X89769616Y-147237835D01*
X89769615Y-147237833D01*
X89690389Y-147046564D01*
X89650000Y-146843516D01*
X89650000Y-146636484D01*
X89690389Y-146433436D01*
X89769615Y-146242167D01*
X89884635Y-146070027D01*
X90031027Y-145923635D01*
X90203165Y-145808616D01*
X90203167Y-145808615D01*
X90394436Y-145729389D01*
X90597484Y-145689000D01*
X90804516Y-145689000D01*
X91007564Y-145729389D01*
X91007564Y-145729389D01*
G37*
G36*
X106097564Y-145729389D02*
G01*
X106288833Y-145808615D01*
X106288835Y-145808616D01*
X106460973Y-145923635D01*
X106607365Y-146070027D01*
X106722385Y-146242167D01*
X106801611Y-146433436D01*
X106842000Y-146636484D01*
X106842000Y-146843516D01*
X106801611Y-147046564D01*
X106722385Y-147237833D01*
X106722384Y-147237835D01*
X106607365Y-147409973D01*
X106460973Y-147556365D01*
X106288835Y-147671384D01*
X106288834Y-147671385D01*
X106288833Y-147671385D01*
X106097564Y-147750611D01*
X105894516Y-147791000D01*
X105687484Y-147791000D01*
X105484436Y-147750611D01*
X105293167Y-147671385D01*
X105293166Y-147671385D01*
X105293165Y-147671384D01*
X105121027Y-147556365D01*
X104974635Y-147409973D01*
X104859616Y-147237835D01*
X104859615Y-147237833D01*
X104780389Y-147046564D01*
X104740000Y-146843516D01*
X104740000Y-146636484D01*
X104780389Y-146433436D01*
X104859615Y-146242167D01*
X104974635Y-146070027D01*
X105121027Y-145923635D01*
X105293165Y-145808616D01*
X105293167Y-145808615D01*
X105484436Y-145729389D01*
X105687484Y-145689000D01*
X105894516Y-145689000D01*
X106097564Y-145729389D01*
X106097564Y-145729389D01*
G37*
G36*
X123392564Y-145729389D02*
G01*
X123583833Y-145808615D01*
X123583835Y-145808616D01*
X123755973Y-145923635D01*
X123902365Y-146070027D01*
X124017385Y-146242167D01*
X124096611Y-146433436D01*
X124137000Y-146636484D01*
X124137000Y-146843516D01*
X124096611Y-147046564D01*
X124017385Y-147237833D01*
X124017384Y-147237835D01*
X123902365Y-147409973D01*
X123755973Y-147556365D01*
X123583835Y-147671384D01*
X123583834Y-147671385D01*
X123583833Y-147671385D01*
X123392564Y-147750611D01*
X123189516Y-147791000D01*
X122982484Y-147791000D01*
X122779436Y-147750611D01*
X122588167Y-147671385D01*
X122588166Y-147671385D01*
X122588165Y-147671384D01*
X122416027Y-147556365D01*
X122269635Y-147409973D01*
X122154616Y-147237835D01*
X122154615Y-147237833D01*
X122075389Y-147046564D01*
X122035000Y-146843516D01*
X122035000Y-146636484D01*
X122075389Y-146433436D01*
X122154615Y-146242167D01*
X122269635Y-146070027D01*
X122416027Y-145923635D01*
X122588165Y-145808616D01*
X122588167Y-145808615D01*
X122779436Y-145729389D01*
X122982484Y-145689000D01*
X123189516Y-145689000D01*
X123392564Y-145729389D01*
X123392564Y-145729389D01*
G37*
G36*
X95302564Y-145729389D02*
G01*
X95493833Y-145808615D01*
X95493835Y-145808616D01*
X95665973Y-145923635D01*
X95812365Y-146070027D01*
X95927385Y-146242167D01*
X96006611Y-146433436D01*
X96047000Y-146636484D01*
X96047000Y-146843516D01*
X96006611Y-147046564D01*
X95927385Y-147237833D01*
X95927384Y-147237835D01*
X95812365Y-147409973D01*
X95665973Y-147556365D01*
X95493835Y-147671384D01*
X95493834Y-147671385D01*
X95493833Y-147671385D01*
X95302564Y-147750611D01*
X95099516Y-147791000D01*
X94892484Y-147791000D01*
X94689436Y-147750611D01*
X94498167Y-147671385D01*
X94498166Y-147671385D01*
X94498165Y-147671384D01*
X94326027Y-147556365D01*
X94179635Y-147409973D01*
X94064616Y-147237835D01*
X94064615Y-147237833D01*
X93985389Y-147046564D01*
X93945000Y-146843516D01*
X93945000Y-146636484D01*
X93985389Y-146433436D01*
X94064615Y-146242167D01*
X94179635Y-146070027D01*
X94326027Y-145923635D01*
X94498165Y-145808616D01*
X94498167Y-145808615D01*
X94689436Y-145729389D01*
X94892484Y-145689000D01*
X95099516Y-145689000D01*
X95302564Y-145729389D01*
X95302564Y-145729389D01*
G37*
G36*
X101802564Y-145729389D02*
G01*
X101993833Y-145808615D01*
X101993835Y-145808616D01*
X102165973Y-145923635D01*
X102312365Y-146070027D01*
X102427385Y-146242167D01*
X102506611Y-146433436D01*
X102547000Y-146636484D01*
X102547000Y-146843516D01*
X102506611Y-147046564D01*
X102427385Y-147237833D01*
X102427384Y-147237835D01*
X102312365Y-147409973D01*
X102165973Y-147556365D01*
X101993835Y-147671384D01*
X101993834Y-147671385D01*
X101993833Y-147671385D01*
X101802564Y-147750611D01*
X101599516Y-147791000D01*
X101392484Y-147791000D01*
X101189436Y-147750611D01*
X100998167Y-147671385D01*
X100998166Y-147671385D01*
X100998165Y-147671384D01*
X100826027Y-147556365D01*
X100679635Y-147409973D01*
X100564616Y-147237835D01*
X100564615Y-147237833D01*
X100485389Y-147046564D01*
X100445000Y-146843516D01*
X100445000Y-146636484D01*
X100485389Y-146433436D01*
X100564615Y-146242167D01*
X100679635Y-146070027D01*
X100826027Y-145923635D01*
X100998165Y-145808616D01*
X100998167Y-145808615D01*
X101189436Y-145729389D01*
X101392484Y-145689000D01*
X101599516Y-145689000D01*
X101802564Y-145729389D01*
X101802564Y-145729389D01*
G37*
G36*
X84507564Y-145729389D02*
G01*
X84698833Y-145808615D01*
X84698835Y-145808616D01*
X84870973Y-145923635D01*
X85017365Y-146070027D01*
X85132385Y-146242167D01*
X85211611Y-146433436D01*
X85252000Y-146636484D01*
X85252000Y-146843516D01*
X85211611Y-147046564D01*
X85132385Y-147237833D01*
X85132384Y-147237835D01*
X85017365Y-147409973D01*
X84870973Y-147556365D01*
X84698835Y-147671384D01*
X84698834Y-147671385D01*
X84698833Y-147671385D01*
X84507564Y-147750611D01*
X84304516Y-147791000D01*
X84097484Y-147791000D01*
X83894436Y-147750611D01*
X83703167Y-147671385D01*
X83703166Y-147671385D01*
X83703165Y-147671384D01*
X83531027Y-147556365D01*
X83384635Y-147409973D01*
X83269616Y-147237835D01*
X83269615Y-147237833D01*
X83190389Y-147046564D01*
X83150000Y-146843516D01*
X83150000Y-146636484D01*
X83190389Y-146433436D01*
X83269615Y-146242167D01*
X83384635Y-146070027D01*
X83531027Y-145923635D01*
X83703165Y-145808616D01*
X83703167Y-145808615D01*
X83894436Y-145729389D01*
X84097484Y-145689000D01*
X84304516Y-145689000D01*
X84507564Y-145729389D01*
X84507564Y-145729389D01*
G37*
G36*
X84507564Y-141229389D02*
G01*
X84698833Y-141308615D01*
X84698835Y-141308616D01*
X84870973Y-141423635D01*
X85017365Y-141570027D01*
X85132385Y-141742167D01*
X85211611Y-141933436D01*
X85252000Y-142136484D01*
X85252000Y-142343516D01*
X85211611Y-142546564D01*
X85132385Y-142737833D01*
X85132384Y-142737835D01*
X85017365Y-142909973D01*
X84870973Y-143056365D01*
X84698835Y-143171384D01*
X84698834Y-143171385D01*
X84698833Y-143171385D01*
X84507564Y-143250611D01*
X84304516Y-143291000D01*
X84097484Y-143291000D01*
X83894436Y-143250611D01*
X83703167Y-143171385D01*
X83703166Y-143171385D01*
X83703165Y-143171384D01*
X83531027Y-143056365D01*
X83384635Y-142909973D01*
X83269616Y-142737835D01*
X83269615Y-142737833D01*
X83190389Y-142546564D01*
X83150000Y-142343516D01*
X83150000Y-142136484D01*
X83190389Y-141933436D01*
X83269615Y-141742167D01*
X83384635Y-141570027D01*
X83531027Y-141423635D01*
X83703165Y-141308616D01*
X83703167Y-141308615D01*
X83894436Y-141229389D01*
X84097484Y-141189000D01*
X84304516Y-141189000D01*
X84507564Y-141229389D01*
X84507564Y-141229389D01*
G37*
G36*
X123392564Y-141229389D02*
G01*
X123583833Y-141308615D01*
X123583835Y-141308616D01*
X123755973Y-141423635D01*
X123902365Y-141570027D01*
X124017385Y-141742167D01*
X124096611Y-141933436D01*
X124137000Y-142136484D01*
X124137000Y-142343516D01*
X124096611Y-142546564D01*
X124017385Y-142737833D01*
X124017384Y-142737835D01*
X123902365Y-142909973D01*
X123755973Y-143056365D01*
X123583835Y-143171384D01*
X123583834Y-143171385D01*
X123583833Y-143171385D01*
X123392564Y-143250611D01*
X123189516Y-143291000D01*
X122982484Y-143291000D01*
X122779436Y-143250611D01*
X122588167Y-143171385D01*
X122588166Y-143171385D01*
X122588165Y-143171384D01*
X122416027Y-143056365D01*
X122269635Y-142909973D01*
X122154616Y-142737835D01*
X122154615Y-142737833D01*
X122075389Y-142546564D01*
X122035000Y-142343516D01*
X122035000Y-142136484D01*
X122075389Y-141933436D01*
X122154615Y-141742167D01*
X122269635Y-141570027D01*
X122416027Y-141423635D01*
X122588165Y-141308616D01*
X122588167Y-141308615D01*
X122779436Y-141229389D01*
X122982484Y-141189000D01*
X123189516Y-141189000D01*
X123392564Y-141229389D01*
X123392564Y-141229389D01*
G37*
G36*
X116892564Y-141229389D02*
G01*
X117083833Y-141308615D01*
X117083835Y-141308616D01*
X117255973Y-141423635D01*
X117402365Y-141570027D01*
X117517385Y-141742167D01*
X117596611Y-141933436D01*
X117637000Y-142136484D01*
X117637000Y-142343516D01*
X117596611Y-142546564D01*
X117517385Y-142737833D01*
X117517384Y-142737835D01*
X117402365Y-142909973D01*
X117255973Y-143056365D01*
X117083835Y-143171384D01*
X117083834Y-143171385D01*
X117083833Y-143171385D01*
X116892564Y-143250611D01*
X116689516Y-143291000D01*
X116482484Y-143291000D01*
X116279436Y-143250611D01*
X116088167Y-143171385D01*
X116088166Y-143171385D01*
X116088165Y-143171384D01*
X115916027Y-143056365D01*
X115769635Y-142909973D01*
X115654616Y-142737835D01*
X115654615Y-142737833D01*
X115575389Y-142546564D01*
X115535000Y-142343516D01*
X115535000Y-142136484D01*
X115575389Y-141933436D01*
X115654615Y-141742167D01*
X115769635Y-141570027D01*
X115916027Y-141423635D01*
X116088165Y-141308616D01*
X116088167Y-141308615D01*
X116279436Y-141229389D01*
X116482484Y-141189000D01*
X116689516Y-141189000D01*
X116892564Y-141229389D01*
X116892564Y-141229389D01*
G37*
G36*
X112597564Y-141229389D02*
G01*
X112788833Y-141308615D01*
X112788835Y-141308616D01*
X112960973Y-141423635D01*
X113107365Y-141570027D01*
X113222385Y-141742167D01*
X113301611Y-141933436D01*
X113342000Y-142136484D01*
X113342000Y-142343516D01*
X113301611Y-142546564D01*
X113222385Y-142737833D01*
X113222384Y-142737835D01*
X113107365Y-142909973D01*
X112960973Y-143056365D01*
X112788835Y-143171384D01*
X112788834Y-143171385D01*
X112788833Y-143171385D01*
X112597564Y-143250611D01*
X112394516Y-143291000D01*
X112187484Y-143291000D01*
X111984436Y-143250611D01*
X111793167Y-143171385D01*
X111793166Y-143171385D01*
X111793165Y-143171384D01*
X111621027Y-143056365D01*
X111474635Y-142909973D01*
X111359616Y-142737835D01*
X111359615Y-142737833D01*
X111280389Y-142546564D01*
X111240000Y-142343516D01*
X111240000Y-142136484D01*
X111280389Y-141933436D01*
X111359615Y-141742167D01*
X111474635Y-141570027D01*
X111621027Y-141423635D01*
X111793165Y-141308616D01*
X111793167Y-141308615D01*
X111984436Y-141229389D01*
X112187484Y-141189000D01*
X112394516Y-141189000D01*
X112597564Y-141229389D01*
X112597564Y-141229389D01*
G37*
G36*
X106097564Y-141229389D02*
G01*
X106288833Y-141308615D01*
X106288835Y-141308616D01*
X106460973Y-141423635D01*
X106607365Y-141570027D01*
X106722385Y-141742167D01*
X106801611Y-141933436D01*
X106842000Y-142136484D01*
X106842000Y-142343516D01*
X106801611Y-142546564D01*
X106722385Y-142737833D01*
X106722384Y-142737835D01*
X106607365Y-142909973D01*
X106460973Y-143056365D01*
X106288835Y-143171384D01*
X106288834Y-143171385D01*
X106288833Y-143171385D01*
X106097564Y-143250611D01*
X105894516Y-143291000D01*
X105687484Y-143291000D01*
X105484436Y-143250611D01*
X105293167Y-143171385D01*
X105293166Y-143171385D01*
X105293165Y-143171384D01*
X105121027Y-143056365D01*
X104974635Y-142909973D01*
X104859616Y-142737835D01*
X104859615Y-142737833D01*
X104780389Y-142546564D01*
X104740000Y-142343516D01*
X104740000Y-142136484D01*
X104780389Y-141933436D01*
X104859615Y-141742167D01*
X104974635Y-141570027D01*
X105121027Y-141423635D01*
X105293165Y-141308616D01*
X105293167Y-141308615D01*
X105484436Y-141229389D01*
X105687484Y-141189000D01*
X105894516Y-141189000D01*
X106097564Y-141229389D01*
X106097564Y-141229389D01*
G37*
G36*
X134187564Y-141229389D02*
G01*
X134378833Y-141308615D01*
X134378835Y-141308616D01*
X134550973Y-141423635D01*
X134697365Y-141570027D01*
X134812385Y-141742167D01*
X134891611Y-141933436D01*
X134932000Y-142136484D01*
X134932000Y-142343516D01*
X134891611Y-142546564D01*
X134812385Y-142737833D01*
X134812384Y-142737835D01*
X134697365Y-142909973D01*
X134550973Y-143056365D01*
X134378835Y-143171384D01*
X134378834Y-143171385D01*
X134378833Y-143171385D01*
X134187564Y-143250611D01*
X133984516Y-143291000D01*
X133777484Y-143291000D01*
X133574436Y-143250611D01*
X133383167Y-143171385D01*
X133383166Y-143171385D01*
X133383165Y-143171384D01*
X133211027Y-143056365D01*
X133064635Y-142909973D01*
X132949616Y-142737835D01*
X132949615Y-142737833D01*
X132870389Y-142546564D01*
X132830000Y-142343516D01*
X132830000Y-142136484D01*
X132870389Y-141933436D01*
X132949615Y-141742167D01*
X133064635Y-141570027D01*
X133211027Y-141423635D01*
X133383165Y-141308616D01*
X133383167Y-141308615D01*
X133574436Y-141229389D01*
X133777484Y-141189000D01*
X133984516Y-141189000D01*
X134187564Y-141229389D01*
X134187564Y-141229389D01*
G37*
G36*
X127687564Y-141229389D02*
G01*
X127878833Y-141308615D01*
X127878835Y-141308616D01*
X128050973Y-141423635D01*
X128197365Y-141570027D01*
X128312385Y-141742167D01*
X128391611Y-141933436D01*
X128432000Y-142136484D01*
X128432000Y-142343516D01*
X128391611Y-142546564D01*
X128312385Y-142737833D01*
X128312384Y-142737835D01*
X128197365Y-142909973D01*
X128050973Y-143056365D01*
X127878835Y-143171384D01*
X127878834Y-143171385D01*
X127878833Y-143171385D01*
X127687564Y-143250611D01*
X127484516Y-143291000D01*
X127277484Y-143291000D01*
X127074436Y-143250611D01*
X126883167Y-143171385D01*
X126883166Y-143171385D01*
X126883165Y-143171384D01*
X126711027Y-143056365D01*
X126564635Y-142909973D01*
X126449616Y-142737835D01*
X126449615Y-142737833D01*
X126370389Y-142546564D01*
X126330000Y-142343516D01*
X126330000Y-142136484D01*
X126370389Y-141933436D01*
X126449615Y-141742167D01*
X126564635Y-141570027D01*
X126711027Y-141423635D01*
X126883165Y-141308616D01*
X126883167Y-141308615D01*
X127074436Y-141229389D01*
X127277484Y-141189000D01*
X127484516Y-141189000D01*
X127687564Y-141229389D01*
X127687564Y-141229389D01*
G37*
G36*
X91007564Y-141229389D02*
G01*
X91198833Y-141308615D01*
X91198835Y-141308616D01*
X91370973Y-141423635D01*
X91517365Y-141570027D01*
X91632385Y-141742167D01*
X91711611Y-141933436D01*
X91752000Y-142136484D01*
X91752000Y-142343516D01*
X91711611Y-142546564D01*
X91632385Y-142737833D01*
X91632384Y-142737835D01*
X91517365Y-142909973D01*
X91370973Y-143056365D01*
X91198835Y-143171384D01*
X91198834Y-143171385D01*
X91198833Y-143171385D01*
X91007564Y-143250611D01*
X90804516Y-143291000D01*
X90597484Y-143291000D01*
X90394436Y-143250611D01*
X90203167Y-143171385D01*
X90203166Y-143171385D01*
X90203165Y-143171384D01*
X90031027Y-143056365D01*
X89884635Y-142909973D01*
X89769616Y-142737835D01*
X89769615Y-142737833D01*
X89690389Y-142546564D01*
X89650000Y-142343516D01*
X89650000Y-142136484D01*
X89690389Y-141933436D01*
X89769615Y-141742167D01*
X89884635Y-141570027D01*
X90031027Y-141423635D01*
X90203165Y-141308616D01*
X90203167Y-141308615D01*
X90394436Y-141229389D01*
X90597484Y-141189000D01*
X90804516Y-141189000D01*
X91007564Y-141229389D01*
X91007564Y-141229389D01*
G37*
G36*
X101802564Y-141229389D02*
G01*
X101993833Y-141308615D01*
X101993835Y-141308616D01*
X102165973Y-141423635D01*
X102312365Y-141570027D01*
X102427385Y-141742167D01*
X102506611Y-141933436D01*
X102547000Y-142136484D01*
X102547000Y-142343516D01*
X102506611Y-142546564D01*
X102427385Y-142737833D01*
X102427384Y-142737835D01*
X102312365Y-142909973D01*
X102165973Y-143056365D01*
X101993835Y-143171384D01*
X101993834Y-143171385D01*
X101993833Y-143171385D01*
X101802564Y-143250611D01*
X101599516Y-143291000D01*
X101392484Y-143291000D01*
X101189436Y-143250611D01*
X100998167Y-143171385D01*
X100998166Y-143171385D01*
X100998165Y-143171384D01*
X100826027Y-143056365D01*
X100679635Y-142909973D01*
X100564616Y-142737835D01*
X100564615Y-142737833D01*
X100485389Y-142546564D01*
X100445000Y-142343516D01*
X100445000Y-142136484D01*
X100485389Y-141933436D01*
X100564615Y-141742167D01*
X100679635Y-141570027D01*
X100826027Y-141423635D01*
X100998165Y-141308616D01*
X100998167Y-141308615D01*
X101189436Y-141229389D01*
X101392484Y-141189000D01*
X101599516Y-141189000D01*
X101802564Y-141229389D01*
X101802564Y-141229389D01*
G37*
G36*
X95302564Y-141229389D02*
G01*
X95493833Y-141308615D01*
X95493835Y-141308616D01*
X95665973Y-141423635D01*
X95812365Y-141570027D01*
X95927385Y-141742167D01*
X96006611Y-141933436D01*
X96047000Y-142136484D01*
X96047000Y-142343516D01*
X96006611Y-142546564D01*
X95927385Y-142737833D01*
X95927384Y-142737835D01*
X95812365Y-142909973D01*
X95665973Y-143056365D01*
X95493835Y-143171384D01*
X95493834Y-143171385D01*
X95493833Y-143171385D01*
X95302564Y-143250611D01*
X95099516Y-143291000D01*
X94892484Y-143291000D01*
X94689436Y-143250611D01*
X94498167Y-143171385D01*
X94498166Y-143171385D01*
X94498165Y-143171384D01*
X94326027Y-143056365D01*
X94179635Y-142909973D01*
X94064616Y-142737835D01*
X94064615Y-142737833D01*
X93985389Y-142546564D01*
X93945000Y-142343516D01*
X93945000Y-142136484D01*
X93985389Y-141933436D01*
X94064615Y-141742167D01*
X94179635Y-141570027D01*
X94326027Y-141423635D01*
X94498165Y-141308616D01*
X94498167Y-141308615D01*
X94689436Y-141229389D01*
X94892484Y-141189000D01*
X95099516Y-141189000D01*
X95302564Y-141229389D01*
X95302564Y-141229389D01*
G37*
G36*
X126127000Y-139566000D02*
G01*
X124825000Y-139566000D01*
X124825000Y-138564000D01*
X126127000Y-138564000D01*
X126127000Y-139566000D01*
X126127000Y-139566000D01*
G37*
G36*
X128327000Y-139566000D02*
G01*
X127025000Y-139566000D01*
X127025000Y-138564000D01*
X128327000Y-138564000D01*
X128327000Y-139566000D01*
X128327000Y-139566000D01*
G37*
M02*
