M48
; DRILL file {KiCad (5.1.5)-3} date 08.07.2020 08:02:55
; FORMAT={-:-/ absolute / inch / decimal}
; #@! TF.CreationDate,2020-07-08T08:02:55+02:00
; #@! TF.GenerationSoftware,Kicad,Pcbnew,(5.1.5)-3
; #@! TF.FileFunction,Plated,1,2,PTH
FMAT,2
INCH
T1C0.0118
T2C0.0157
T3C0.0315
T4C0.0354
T5C0.0390
T6C0.0394
T7C0.0433
T8C0.0512
T9C0.0551
%
G90
G05
T1
X3.0213Y-6.6004
X3.024Y-2.1579
X3.024Y-2.3299
X3.12Y-6.5
X3.1571Y-2.1445
X3.1589Y-2.425
X3.1589Y-2.4994
X3.1736Y-2.6
X3.1736Y-2.9276
X3.2468Y-6.185
X3.3Y-4.225
X3.3512Y-6.2858
X3.39Y-6.25
X3.4Y-4.225
X3.4106Y-2.3055
X3.4354Y-2.1492
X3.465Y-6.25
X3.465Y-6.5
X3.4711Y-2.4624
X3.4756Y-6.7417
X3.5Y-2.7
X3.525Y-4.225
X3.5264Y-2.1488
X3.625Y-4.225
X3.6272Y-6.4
X3.6272Y-6.45
X3.775Y-4.225
X3.875Y-4.225
X3.9Y-2.6118
X4.0Y-2.575
X4.0Y-4.225
X4.1Y-4.225
X4.1236Y-2.85
X4.1362Y-3.2004
X4.137Y-2.9661
X4.1374Y-3.1622
X4.1382Y-3.0067
X4.1382Y-3.0445
X4.1382Y-3.1248
X4.1394Y-2.0626
X4.1398Y-2.0327
X4.2173Y-2.9661
X4.2173Y-3.0067
X4.2173Y-3.0445
X4.2193Y-3.1248
X4.3303Y-2.85
X4.4169Y-6.0902
X4.4508Y-3.4138
X4.4512Y-3.3803
X4.4516Y-3.3441
X4.452Y-3.3087
X4.4524Y-3.2319
X4.4524Y-3.2705
X4.4543Y-6.1291
X4.5331Y-2.15
X4.75Y-6.275
X4.7535Y-2.8138
X4.8Y-2.7362
X4.848Y-2.9051
X4.926Y-2.4539
X4.926Y-2.4945
X4.926Y-2.5327
X4.9264Y-2.3756
X4.9264Y-2.4146
X4.9268Y-2.611
X4.9268Y-5.8756
X4.9272Y-2.5728
X4.9272Y-2.6512
X5.0996Y-2.2492
X5.1Y-2.2161
X5.18Y-5.275
X5.2925Y-2.6518
X5.3098Y-2.3594
X5.4157Y-2.3594
X5.5406Y-2.2492
X5.57Y-5.4525
X5.5748Y-2.2165
X5.5957Y-2.9677
X5.6185Y-3.1886
X5.6185Y-3.3181
X5.6272Y-2.8528
X5.6276Y-2.8992
X5.6354Y-2.9992
X5.6744Y-3.2201
X5.6744Y-3.3594
X5.711Y-3.7535
X5.725Y-2.6
X5.7547Y-3.7528
X5.7917Y-3.163
X5.7925Y-3.0311
X5.7925Y-3.0839
X5.7925Y-3.1228
X5.7925Y-3.2516
X5.7925Y-3.3594
X5.8823Y-3.7937
X5.9102Y-3.0311
X5.9106Y-3.0839
X5.9106Y-3.163
X5.911Y-3.1228
X5.95Y-2.825
X6.0Y-3.75
X6.0209Y-3.6449
X6.05Y-2.9055
X6.15Y-3.875
X6.1677Y-5.7563
X6.17Y-5.52
X6.2232Y-2.9
X6.2504Y-2.6083
X6.45Y-3.6071
X6.45Y-6.515
X6.47Y-6.1125
X6.5Y-2.2
X6.6768Y-2.6906
T2
X3.2Y-3.95
X3.2Y-4.075
X3.3Y-3.95
X3.3Y-4.075
X3.425Y-3.95
X3.425Y-4.075
X3.525Y-3.95
X3.525Y-4.075
X3.675Y-3.95
X3.675Y-4.075
X3.775Y-3.95
X3.775Y-4.075
X3.9Y-3.95
X3.9Y-4.075
X4.0Y-3.95
X4.0Y-4.075
X4.375Y-3.95
X4.375Y-4.075
X4.475Y-3.95
X4.475Y-4.075
X4.675Y-3.95
X4.675Y-4.075
X4.775Y-3.95
X4.775Y-4.075
X4.975Y-3.95
X4.975Y-4.075
X5.075Y-3.95
X5.075Y-4.075
X5.25Y-3.95
X5.25Y-4.075
X5.35Y-3.95
X5.35Y-4.075
X5.3978Y-4.9734
X5.525Y-3.95
X5.525Y-4.075
X5.625Y-3.95
X5.625Y-4.075
X5.7854Y-4.4059
X6.175Y-4.025
T3
X4.275Y-4.275
T4
X5.525Y-6.325
X5.625Y-6.325
X3.475Y-5.75
X3.575Y-5.75
X4.0Y-6.45
X4.1Y-6.45
X5.85Y-6.325
X5.95Y-6.325
X5.85Y-6.55
X5.95Y-6.55
X3.325Y-4.65
X3.325Y-4.75
X3.425Y-4.65
X3.425Y-4.75
X3.525Y-4.65
X3.525Y-4.75
X3.625Y-4.65
X3.625Y-4.75
X3.725Y-4.65
X3.725Y-4.75
X3.825Y-4.65
X3.825Y-4.75
X3.925Y-4.65
X3.925Y-4.75
X4.025Y-4.65
X4.025Y-4.75
X4.475Y-4.65
X4.475Y-4.75
X4.575Y-4.65
X4.575Y-4.75
X4.675Y-4.65
X4.675Y-4.75
X5.525Y-5.875
X5.625Y-5.875
X5.85Y-5.875
X5.95Y-5.875
X3.75Y-2.3
X3.75Y-2.4
X3.85Y-2.3
X3.85Y-2.4
X3.95Y-2.3
X3.95Y-2.4
X4.925Y-4.65
X4.925Y-4.75
X5.025Y-4.65
X5.025Y-4.75
X5.125Y-4.65
X5.125Y-4.75
X5.525Y-6.55
X5.625Y-6.55
X5.525Y-6.1
X5.625Y-6.1
X5.75Y-2.3
X5.75Y-2.4
X5.85Y-2.3
X5.85Y-2.4
X5.95Y-2.3
X5.95Y-2.4
X5.475Y-4.65
X5.475Y-4.75
X5.575Y-4.65
X5.575Y-4.75
X5.675Y-4.65
X5.675Y-4.75
X5.775Y-4.65
X5.775Y-4.75
X5.875Y-4.65
X5.875Y-4.75
X5.975Y-4.65
X5.975Y-4.75
X6.075Y-4.65
X6.075Y-4.75
X4.0Y-5.775
X4.1Y-5.775
X4.175Y-2.3
X4.175Y-2.4
X4.275Y-2.3
X4.275Y-2.4
X4.375Y-2.3
X4.375Y-2.4
X4.475Y-2.3
X4.477Y-2.4
X4.0Y-6.675
X4.1Y-6.675
X4.0Y-6.0
X4.1Y-6.0
X5.85Y-6.1
X5.95Y-6.1
X3.475Y-6.0
X3.575Y-6.0
X6.2Y-2.3
X6.2Y-2.4
X6.3Y-2.3
X6.3Y-2.4
X6.4Y-2.3
X6.4Y-2.4
X6.5Y-2.3
X6.5Y-2.4
X6.6Y-2.3
X6.6Y-2.4
X4.0Y-6.225
X4.1Y-6.225
T5
X5.325Y-2.0
X5.5022Y-2.0
T6
X3.05Y-5.785
X3.05Y-5.885
X3.05Y-5.985
X3.05Y-6.085
X3.05Y-6.185
X3.15Y-5.785
X3.15Y-5.885
X3.15Y-5.985
X3.15Y-6.085
X3.15Y-6.185
X6.6975Y-5.8325
X6.6975Y-5.9325
X6.6975Y-6.0325
X6.6975Y-6.1325
X3.05Y-3.325
X3.05Y-3.425
X3.05Y-3.525
X3.05Y-3.625
X3.05Y-3.725
X3.15Y-3.325
X3.15Y-3.425
X3.15Y-3.525
X3.15Y-3.625
X3.15Y-3.725
X6.7Y-3.375
X6.7Y-3.475
X6.7Y-3.575
X6.7Y-3.675
T7
X4.2Y-5.4
X4.2Y-5.5772
X4.4559Y-5.4
X4.4559Y-5.5772
X3.35Y-5.4
X3.35Y-5.5772
X3.6059Y-5.4
X3.6059Y-5.5772
X5.05Y-5.4
X5.05Y-5.5772
X5.3059Y-5.4
X5.3059Y-5.5772
X3.775Y-5.4
X3.775Y-5.5772
X4.0309Y-5.4
X4.0309Y-5.5772
X4.625Y-5.4
X4.625Y-5.5772
X4.8809Y-5.4
X4.8809Y-5.5772
T8
X5.2758Y-2.098
X5.5518Y-2.098
T9
X6.3531Y-4.75
X6.55Y-4.75
T0
M30
