G04 #@! TF.GenerationSoftware,KiCad,Pcbnew,(5.1.5)-3*
G04 #@! TF.CreationDate,2020-07-08T08:03:09+02:00*
G04 #@! TF.ProjectId,SBIO3,5342494f-332e-46b6-9963-61645f706362,rev?*
G04 #@! TF.SameCoordinates,Original*
G04 #@! TF.FileFunction,Soldermask,Bot*
G04 #@! TF.FilePolarity,Negative*
%FSLAX46Y46*%
G04 Gerber Fmt 4.6, Leading zero omitted, Abs format (unit mm)*
G04 Created by KiCad (PCBNEW (5.1.5)-3) date 2020-07-08 08:03:09*
%MOMM*%
%LPD*%
G04 APERTURE LIST*
%ADD10C,0.100000*%
G04 APERTURE END LIST*
D10*
G36*
X105091000Y-170496000D02*
G01*
X103189000Y-170496000D01*
X103189000Y-168594000D01*
X105091000Y-168594000D01*
X105091000Y-170496000D01*
G37*
G36*
X101877395Y-168630546D02*
G01*
X102050466Y-168702234D01*
X102050467Y-168702235D01*
X102206227Y-168806310D01*
X102338690Y-168938773D01*
X102338691Y-168938775D01*
X102442766Y-169094534D01*
X102514454Y-169267605D01*
X102551000Y-169451333D01*
X102551000Y-169638667D01*
X102514454Y-169822395D01*
X102442766Y-169995466D01*
X102442765Y-169995467D01*
X102338690Y-170151227D01*
X102206227Y-170283690D01*
X102127818Y-170336081D01*
X102050466Y-170387766D01*
X101877395Y-170459454D01*
X101693667Y-170496000D01*
X101506333Y-170496000D01*
X101322605Y-170459454D01*
X101149534Y-170387766D01*
X101072182Y-170336081D01*
X100993773Y-170283690D01*
X100861310Y-170151227D01*
X100757235Y-169995467D01*
X100757234Y-169995466D01*
X100685546Y-169822395D01*
X100649000Y-169638667D01*
X100649000Y-169451333D01*
X100685546Y-169267605D01*
X100757234Y-169094534D01*
X100861309Y-168938775D01*
X100861310Y-168938773D01*
X100993773Y-168806310D01*
X101149533Y-168702235D01*
X101149534Y-168702234D01*
X101322605Y-168630546D01*
X101506333Y-168594000D01*
X101693667Y-168594000D01*
X101877395Y-168630546D01*
G37*
G36*
X143826000Y-167321000D02*
G01*
X141924000Y-167321000D01*
X141924000Y-165419000D01*
X143826000Y-165419000D01*
X143826000Y-167321000D01*
G37*
G36*
X151407395Y-165455546D02*
G01*
X151580466Y-165527234D01*
X151580467Y-165527235D01*
X151736227Y-165631310D01*
X151868690Y-165763773D01*
X151868691Y-165763775D01*
X151972766Y-165919534D01*
X152044454Y-166092605D01*
X152081000Y-166276333D01*
X152081000Y-166463667D01*
X152044454Y-166647395D01*
X151972766Y-166820466D01*
X151972765Y-166820467D01*
X151868690Y-166976227D01*
X151736227Y-167108690D01*
X151657818Y-167161081D01*
X151580466Y-167212766D01*
X151407395Y-167284454D01*
X151223667Y-167321000D01*
X151036333Y-167321000D01*
X150852605Y-167284454D01*
X150679534Y-167212766D01*
X150602182Y-167161081D01*
X150523773Y-167108690D01*
X150391310Y-166976227D01*
X150287235Y-166820467D01*
X150287234Y-166820466D01*
X150215546Y-166647395D01*
X150179000Y-166463667D01*
X150179000Y-166276333D01*
X150215546Y-166092605D01*
X150287234Y-165919534D01*
X150391309Y-165763775D01*
X150391310Y-165763773D01*
X150523773Y-165631310D01*
X150679533Y-165527235D01*
X150679534Y-165527234D01*
X150852605Y-165455546D01*
X151036333Y-165419000D01*
X151223667Y-165419000D01*
X151407395Y-165455546D01*
G37*
G36*
X149541000Y-167321000D02*
G01*
X147639000Y-167321000D01*
X147639000Y-165419000D01*
X149541000Y-165419000D01*
X149541000Y-167321000D01*
G37*
G36*
X140612395Y-165455546D02*
G01*
X140785466Y-165527234D01*
X140785467Y-165527235D01*
X140941227Y-165631310D01*
X141073690Y-165763773D01*
X141073691Y-165763775D01*
X141177766Y-165919534D01*
X141249454Y-166092605D01*
X141286000Y-166276333D01*
X141286000Y-166463667D01*
X141249454Y-166647395D01*
X141177766Y-166820466D01*
X141177765Y-166820467D01*
X141073690Y-166976227D01*
X140941227Y-167108690D01*
X140862818Y-167161081D01*
X140785466Y-167212766D01*
X140612395Y-167284454D01*
X140428667Y-167321000D01*
X140241333Y-167321000D01*
X140057605Y-167284454D01*
X139884534Y-167212766D01*
X139807182Y-167161081D01*
X139728773Y-167108690D01*
X139596310Y-166976227D01*
X139492235Y-166820467D01*
X139492234Y-166820466D01*
X139420546Y-166647395D01*
X139384000Y-166463667D01*
X139384000Y-166276333D01*
X139420546Y-166092605D01*
X139492234Y-165919534D01*
X139596309Y-165763775D01*
X139596310Y-165763773D01*
X139728773Y-165631310D01*
X139884533Y-165527235D01*
X139884534Y-165527234D01*
X140057605Y-165455546D01*
X140241333Y-165419000D01*
X140428667Y-165419000D01*
X140612395Y-165455546D01*
G37*
G36*
X105091000Y-164781000D02*
G01*
X103189000Y-164781000D01*
X103189000Y-162879000D01*
X105091000Y-162879000D01*
X105091000Y-164781000D01*
G37*
G36*
X101877395Y-162915546D02*
G01*
X102050466Y-162987234D01*
X102050467Y-162987235D01*
X102206227Y-163091310D01*
X102338690Y-163223773D01*
X102338691Y-163223775D01*
X102442766Y-163379534D01*
X102514454Y-163552605D01*
X102551000Y-163736333D01*
X102551000Y-163923667D01*
X102514454Y-164107395D01*
X102442766Y-164280466D01*
X102442765Y-164280467D01*
X102338690Y-164436227D01*
X102206227Y-164568690D01*
X102127818Y-164621081D01*
X102050466Y-164672766D01*
X101877395Y-164744454D01*
X101693667Y-164781000D01*
X101506333Y-164781000D01*
X101322605Y-164744454D01*
X101149534Y-164672766D01*
X101072182Y-164621081D01*
X100993773Y-164568690D01*
X100861310Y-164436227D01*
X100757235Y-164280467D01*
X100757234Y-164280466D01*
X100685546Y-164107395D01*
X100649000Y-163923667D01*
X100649000Y-163736333D01*
X100685546Y-163552605D01*
X100757234Y-163379534D01*
X100861309Y-163223775D01*
X100861310Y-163223773D01*
X100993773Y-163091310D01*
X101149533Y-162987235D01*
X101149534Y-162987234D01*
X101322605Y-162915546D01*
X101506333Y-162879000D01*
X101693667Y-162879000D01*
X101877395Y-162915546D01*
G37*
G36*
X140612395Y-159740546D02*
G01*
X140785466Y-159812234D01*
X140785467Y-159812235D01*
X140941227Y-159916310D01*
X141073690Y-160048773D01*
X141073691Y-160048775D01*
X141177766Y-160204534D01*
X141249454Y-160377605D01*
X141286000Y-160561333D01*
X141286000Y-160748667D01*
X141249454Y-160932395D01*
X141177766Y-161105466D01*
X141177765Y-161105467D01*
X141073690Y-161261227D01*
X140941227Y-161393690D01*
X140862818Y-161446081D01*
X140785466Y-161497766D01*
X140612395Y-161569454D01*
X140428667Y-161606000D01*
X140241333Y-161606000D01*
X140057605Y-161569454D01*
X139884534Y-161497766D01*
X139807182Y-161446081D01*
X139728773Y-161393690D01*
X139596310Y-161261227D01*
X139492235Y-161105467D01*
X139492234Y-161105466D01*
X139420546Y-160932395D01*
X139384000Y-160748667D01*
X139384000Y-160561333D01*
X139420546Y-160377605D01*
X139492234Y-160204534D01*
X139596309Y-160048775D01*
X139596310Y-160048773D01*
X139728773Y-159916310D01*
X139884533Y-159812235D01*
X139884534Y-159812234D01*
X140057605Y-159740546D01*
X140241333Y-159704000D01*
X140428667Y-159704000D01*
X140612395Y-159740546D01*
G37*
G36*
X151407395Y-159740546D02*
G01*
X151580466Y-159812234D01*
X151580467Y-159812235D01*
X151736227Y-159916310D01*
X151868690Y-160048773D01*
X151868691Y-160048775D01*
X151972766Y-160204534D01*
X152044454Y-160377605D01*
X152081000Y-160561333D01*
X152081000Y-160748667D01*
X152044454Y-160932395D01*
X151972766Y-161105466D01*
X151972765Y-161105467D01*
X151868690Y-161261227D01*
X151736227Y-161393690D01*
X151657818Y-161446081D01*
X151580466Y-161497766D01*
X151407395Y-161569454D01*
X151223667Y-161606000D01*
X151036333Y-161606000D01*
X150852605Y-161569454D01*
X150679534Y-161497766D01*
X150602182Y-161446081D01*
X150523773Y-161393690D01*
X150391310Y-161261227D01*
X150287235Y-161105467D01*
X150287234Y-161105466D01*
X150215546Y-160932395D01*
X150179000Y-160748667D01*
X150179000Y-160561333D01*
X150215546Y-160377605D01*
X150287234Y-160204534D01*
X150391309Y-160048775D01*
X150391310Y-160048773D01*
X150523773Y-159916310D01*
X150679533Y-159812235D01*
X150679534Y-159812234D01*
X150852605Y-159740546D01*
X151036333Y-159704000D01*
X151223667Y-159704000D01*
X151407395Y-159740546D01*
G37*
G36*
X143826000Y-161606000D02*
G01*
X141924000Y-161606000D01*
X141924000Y-159704000D01*
X143826000Y-159704000D01*
X143826000Y-161606000D01*
G37*
G36*
X149541000Y-161606000D02*
G01*
X147639000Y-161606000D01*
X147639000Y-159704000D01*
X149541000Y-159704000D01*
X149541000Y-161606000D01*
G37*
G36*
X101877395Y-157200546D02*
G01*
X102050466Y-157272234D01*
X102050467Y-157272235D01*
X102206227Y-157376310D01*
X102338690Y-157508773D01*
X102338691Y-157508775D01*
X102442766Y-157664534D01*
X102514454Y-157837605D01*
X102551000Y-158021333D01*
X102551000Y-158208667D01*
X102514454Y-158392395D01*
X102442766Y-158565466D01*
X102442765Y-158565467D01*
X102338690Y-158721227D01*
X102206227Y-158853690D01*
X102127818Y-158906081D01*
X102050466Y-158957766D01*
X101877395Y-159029454D01*
X101693667Y-159066000D01*
X101506333Y-159066000D01*
X101322605Y-159029454D01*
X101149534Y-158957766D01*
X101072182Y-158906081D01*
X100993773Y-158853690D01*
X100861310Y-158721227D01*
X100757235Y-158565467D01*
X100757234Y-158565466D01*
X100685546Y-158392395D01*
X100649000Y-158208667D01*
X100649000Y-158021333D01*
X100685546Y-157837605D01*
X100757234Y-157664534D01*
X100861309Y-157508775D01*
X100861310Y-157508773D01*
X100993773Y-157376310D01*
X101149533Y-157272235D01*
X101149534Y-157272234D01*
X101322605Y-157200546D01*
X101506333Y-157164000D01*
X101693667Y-157164000D01*
X101877395Y-157200546D01*
G37*
G36*
X105091000Y-159066000D02*
G01*
X103189000Y-159066000D01*
X103189000Y-157164000D01*
X105091000Y-157164000D01*
X105091000Y-159066000D01*
G37*
G36*
X80123512Y-156202927D02*
G01*
X80272812Y-156232624D01*
X80436784Y-156300544D01*
X80584354Y-156399147D01*
X80709853Y-156524646D01*
X80808456Y-156672216D01*
X80876376Y-156836188D01*
X80911000Y-157010259D01*
X80911000Y-157187741D01*
X80876376Y-157361812D01*
X80808456Y-157525784D01*
X80709853Y-157673354D01*
X80584354Y-157798853D01*
X80436784Y-157897456D01*
X80272812Y-157965376D01*
X80123512Y-157995073D01*
X80098742Y-158000000D01*
X79921258Y-158000000D01*
X79896488Y-157995073D01*
X79747188Y-157965376D01*
X79583216Y-157897456D01*
X79435646Y-157798853D01*
X79310147Y-157673354D01*
X79211544Y-157525784D01*
X79143624Y-157361812D01*
X79109000Y-157187741D01*
X79109000Y-157010259D01*
X79143624Y-156836188D01*
X79211544Y-156672216D01*
X79310147Y-156524646D01*
X79435646Y-156399147D01*
X79583216Y-156300544D01*
X79747188Y-156232624D01*
X79896488Y-156202927D01*
X79921258Y-156198000D01*
X80098742Y-156198000D01*
X80123512Y-156202927D01*
G37*
G36*
X77583512Y-156202927D02*
G01*
X77732812Y-156232624D01*
X77896784Y-156300544D01*
X78044354Y-156399147D01*
X78169853Y-156524646D01*
X78268456Y-156672216D01*
X78336376Y-156836188D01*
X78371000Y-157010259D01*
X78371000Y-157187741D01*
X78336376Y-157361812D01*
X78268456Y-157525784D01*
X78169853Y-157673354D01*
X78044354Y-157798853D01*
X77896784Y-157897456D01*
X77732812Y-157965376D01*
X77583512Y-157995073D01*
X77558742Y-158000000D01*
X77381258Y-158000000D01*
X77356488Y-157995073D01*
X77207188Y-157965376D01*
X77043216Y-157897456D01*
X76895646Y-157798853D01*
X76770147Y-157673354D01*
X76671544Y-157525784D01*
X76603624Y-157361812D01*
X76569000Y-157187741D01*
X76569000Y-157010259D01*
X76603624Y-156836188D01*
X76671544Y-156672216D01*
X76770147Y-156524646D01*
X76895646Y-156399147D01*
X77043216Y-156300544D01*
X77207188Y-156232624D01*
X77356488Y-156202927D01*
X77381258Y-156198000D01*
X77558742Y-156198000D01*
X77583512Y-156202927D01*
G37*
G36*
X170230012Y-154869427D02*
G01*
X170379312Y-154899124D01*
X170543284Y-154967044D01*
X170690854Y-155065647D01*
X170816353Y-155191146D01*
X170914956Y-155338716D01*
X170982876Y-155502688D01*
X171017500Y-155676759D01*
X171017500Y-155854241D01*
X170982876Y-156028312D01*
X170914956Y-156192284D01*
X170816353Y-156339854D01*
X170690854Y-156465353D01*
X170543284Y-156563956D01*
X170379312Y-156631876D01*
X170230012Y-156661573D01*
X170205242Y-156666500D01*
X170027758Y-156666500D01*
X170002988Y-156661573D01*
X169853688Y-156631876D01*
X169689716Y-156563956D01*
X169542146Y-156465353D01*
X169416647Y-156339854D01*
X169318044Y-156192284D01*
X169250124Y-156028312D01*
X169215500Y-155854241D01*
X169215500Y-155676759D01*
X169250124Y-155502688D01*
X169318044Y-155338716D01*
X169416647Y-155191146D01*
X169542146Y-155065647D01*
X169689716Y-154967044D01*
X169853688Y-154899124D01*
X170002988Y-154869427D01*
X170027758Y-154864500D01*
X170205242Y-154864500D01*
X170230012Y-154869427D01*
G37*
G36*
X149541000Y-155891000D02*
G01*
X147639000Y-155891000D01*
X147639000Y-153989000D01*
X149541000Y-153989000D01*
X149541000Y-155891000D01*
G37*
G36*
X140612395Y-154025546D02*
G01*
X140785466Y-154097234D01*
X140837820Y-154132216D01*
X140941227Y-154201310D01*
X141073690Y-154333773D01*
X141073691Y-154333775D01*
X141177766Y-154489534D01*
X141249454Y-154662605D01*
X141286000Y-154846333D01*
X141286000Y-155033667D01*
X141249454Y-155217395D01*
X141177766Y-155390466D01*
X141154440Y-155425376D01*
X141073690Y-155546227D01*
X140941227Y-155678690D01*
X140862818Y-155731081D01*
X140785466Y-155782766D01*
X140612395Y-155854454D01*
X140428667Y-155891000D01*
X140241333Y-155891000D01*
X140057605Y-155854454D01*
X139884534Y-155782766D01*
X139807182Y-155731081D01*
X139728773Y-155678690D01*
X139596310Y-155546227D01*
X139515560Y-155425376D01*
X139492234Y-155390466D01*
X139420546Y-155217395D01*
X139384000Y-155033667D01*
X139384000Y-154846333D01*
X139420546Y-154662605D01*
X139492234Y-154489534D01*
X139596309Y-154333775D01*
X139596310Y-154333773D01*
X139728773Y-154201310D01*
X139832180Y-154132216D01*
X139884534Y-154097234D01*
X140057605Y-154025546D01*
X140241333Y-153989000D01*
X140428667Y-153989000D01*
X140612395Y-154025546D01*
G37*
G36*
X151407395Y-154025546D02*
G01*
X151580466Y-154097234D01*
X151632820Y-154132216D01*
X151736227Y-154201310D01*
X151868690Y-154333773D01*
X151868691Y-154333775D01*
X151972766Y-154489534D01*
X152044454Y-154662605D01*
X152081000Y-154846333D01*
X152081000Y-155033667D01*
X152044454Y-155217395D01*
X151972766Y-155390466D01*
X151949440Y-155425376D01*
X151868690Y-155546227D01*
X151736227Y-155678690D01*
X151657818Y-155731081D01*
X151580466Y-155782766D01*
X151407395Y-155854454D01*
X151223667Y-155891000D01*
X151036333Y-155891000D01*
X150852605Y-155854454D01*
X150679534Y-155782766D01*
X150602182Y-155731081D01*
X150523773Y-155678690D01*
X150391310Y-155546227D01*
X150310560Y-155425376D01*
X150287234Y-155390466D01*
X150215546Y-155217395D01*
X150179000Y-155033667D01*
X150179000Y-154846333D01*
X150215546Y-154662605D01*
X150287234Y-154489534D01*
X150391309Y-154333775D01*
X150391310Y-154333773D01*
X150523773Y-154201310D01*
X150627180Y-154132216D01*
X150679534Y-154097234D01*
X150852605Y-154025546D01*
X151036333Y-153989000D01*
X151223667Y-153989000D01*
X151407395Y-154025546D01*
G37*
G36*
X143826000Y-155891000D02*
G01*
X141924000Y-155891000D01*
X141924000Y-153989000D01*
X143826000Y-153989000D01*
X143826000Y-155891000D01*
G37*
G36*
X80123512Y-153662927D02*
G01*
X80272812Y-153692624D01*
X80436784Y-153760544D01*
X80584354Y-153859147D01*
X80709853Y-153984646D01*
X80808456Y-154132216D01*
X80876376Y-154296188D01*
X80906073Y-154445488D01*
X80911000Y-154470258D01*
X80911000Y-154647742D01*
X80906073Y-154672512D01*
X80876376Y-154821812D01*
X80808456Y-154985784D01*
X80709853Y-155133354D01*
X80584354Y-155258853D01*
X80436784Y-155357456D01*
X80272812Y-155425376D01*
X80123512Y-155455073D01*
X80098742Y-155460000D01*
X79921258Y-155460000D01*
X79896488Y-155455073D01*
X79747188Y-155425376D01*
X79583216Y-155357456D01*
X79435646Y-155258853D01*
X79310147Y-155133354D01*
X79211544Y-154985784D01*
X79143624Y-154821812D01*
X79113927Y-154672512D01*
X79109000Y-154647742D01*
X79109000Y-154470258D01*
X79113927Y-154445488D01*
X79143624Y-154296188D01*
X79211544Y-154132216D01*
X79310147Y-153984646D01*
X79435646Y-153859147D01*
X79583216Y-153760544D01*
X79747188Y-153692624D01*
X79896488Y-153662927D01*
X79921258Y-153658000D01*
X80098742Y-153658000D01*
X80123512Y-153662927D01*
G37*
G36*
X77583512Y-153662927D02*
G01*
X77732812Y-153692624D01*
X77896784Y-153760544D01*
X78044354Y-153859147D01*
X78169853Y-153984646D01*
X78268456Y-154132216D01*
X78336376Y-154296188D01*
X78366073Y-154445488D01*
X78371000Y-154470258D01*
X78371000Y-154647742D01*
X78366073Y-154672512D01*
X78336376Y-154821812D01*
X78268456Y-154985784D01*
X78169853Y-155133354D01*
X78044354Y-155258853D01*
X77896784Y-155357456D01*
X77732812Y-155425376D01*
X77583512Y-155455073D01*
X77558742Y-155460000D01*
X77381258Y-155460000D01*
X77356488Y-155455073D01*
X77207188Y-155425376D01*
X77043216Y-155357456D01*
X76895646Y-155258853D01*
X76770147Y-155133354D01*
X76671544Y-154985784D01*
X76603624Y-154821812D01*
X76573927Y-154672512D01*
X76569000Y-154647742D01*
X76569000Y-154470258D01*
X76573927Y-154445488D01*
X76603624Y-154296188D01*
X76671544Y-154132216D01*
X76770147Y-153984646D01*
X76895646Y-153859147D01*
X77043216Y-153760544D01*
X77207188Y-153692624D01*
X77356488Y-153662927D01*
X77381258Y-153658000D01*
X77558742Y-153658000D01*
X77583512Y-153662927D01*
G37*
G36*
X170230012Y-152329427D02*
G01*
X170379312Y-152359124D01*
X170543284Y-152427044D01*
X170690854Y-152525647D01*
X170816353Y-152651146D01*
X170914956Y-152798716D01*
X170982876Y-152962688D01*
X171017500Y-153136759D01*
X171017500Y-153314241D01*
X170982876Y-153488312D01*
X170914956Y-153652284D01*
X170816353Y-153799854D01*
X170690854Y-153925353D01*
X170543284Y-154023956D01*
X170379312Y-154091876D01*
X170230012Y-154121573D01*
X170205242Y-154126500D01*
X170027758Y-154126500D01*
X170002988Y-154121573D01*
X169853688Y-154091876D01*
X169689716Y-154023956D01*
X169542146Y-153925353D01*
X169416647Y-153799854D01*
X169318044Y-153652284D01*
X169250124Y-153488312D01*
X169215500Y-153314241D01*
X169215500Y-153136759D01*
X169250124Y-152962688D01*
X169318044Y-152798716D01*
X169416647Y-152651146D01*
X169542146Y-152525647D01*
X169689716Y-152427044D01*
X169853688Y-152359124D01*
X170002988Y-152329427D01*
X170027758Y-152324500D01*
X170205242Y-152324500D01*
X170230012Y-152329427D01*
G37*
G36*
X105091000Y-153351000D02*
G01*
X103189000Y-153351000D01*
X103189000Y-151449000D01*
X105091000Y-151449000D01*
X105091000Y-153351000D01*
G37*
G36*
X88542395Y-151485546D02*
G01*
X88715466Y-151557234D01*
X88767820Y-151592216D01*
X88871227Y-151661310D01*
X89003690Y-151793773D01*
X89003691Y-151793775D01*
X89107766Y-151949534D01*
X89179454Y-152122605D01*
X89216000Y-152306333D01*
X89216000Y-152493667D01*
X89179454Y-152677395D01*
X89107766Y-152850466D01*
X89084440Y-152885376D01*
X89003690Y-153006227D01*
X88871227Y-153138690D01*
X88792818Y-153191081D01*
X88715466Y-153242766D01*
X88542395Y-153314454D01*
X88358667Y-153351000D01*
X88171333Y-153351000D01*
X87987605Y-153314454D01*
X87814534Y-153242766D01*
X87737182Y-153191081D01*
X87658773Y-153138690D01*
X87526310Y-153006227D01*
X87445560Y-152885376D01*
X87422234Y-152850466D01*
X87350546Y-152677395D01*
X87314000Y-152493667D01*
X87314000Y-152306333D01*
X87350546Y-152122605D01*
X87422234Y-151949534D01*
X87526309Y-151793775D01*
X87526310Y-151793773D01*
X87658773Y-151661310D01*
X87762180Y-151592216D01*
X87814534Y-151557234D01*
X87987605Y-151485546D01*
X88171333Y-151449000D01*
X88358667Y-151449000D01*
X88542395Y-151485546D01*
G37*
G36*
X101877395Y-151485546D02*
G01*
X102050466Y-151557234D01*
X102102820Y-151592216D01*
X102206227Y-151661310D01*
X102338690Y-151793773D01*
X102338691Y-151793775D01*
X102442766Y-151949534D01*
X102514454Y-152122605D01*
X102551000Y-152306333D01*
X102551000Y-152493667D01*
X102514454Y-152677395D01*
X102442766Y-152850466D01*
X102419440Y-152885376D01*
X102338690Y-153006227D01*
X102206227Y-153138690D01*
X102127818Y-153191081D01*
X102050466Y-153242766D01*
X101877395Y-153314454D01*
X101693667Y-153351000D01*
X101506333Y-153351000D01*
X101322605Y-153314454D01*
X101149534Y-153242766D01*
X101072182Y-153191081D01*
X100993773Y-153138690D01*
X100861310Y-153006227D01*
X100780560Y-152885376D01*
X100757234Y-152850466D01*
X100685546Y-152677395D01*
X100649000Y-152493667D01*
X100649000Y-152306333D01*
X100685546Y-152122605D01*
X100757234Y-151949534D01*
X100861309Y-151793775D01*
X100861310Y-151793773D01*
X100993773Y-151661310D01*
X101097180Y-151592216D01*
X101149534Y-151557234D01*
X101322605Y-151485546D01*
X101506333Y-151449000D01*
X101693667Y-151449000D01*
X101877395Y-151485546D01*
G37*
G36*
X91756000Y-153351000D02*
G01*
X89854000Y-153351000D01*
X89854000Y-151449000D01*
X91756000Y-151449000D01*
X91756000Y-153351000D01*
G37*
G36*
X80123512Y-151122927D02*
G01*
X80272812Y-151152624D01*
X80436784Y-151220544D01*
X80584354Y-151319147D01*
X80709853Y-151444646D01*
X80808456Y-151592216D01*
X80876376Y-151756188D01*
X80906073Y-151905488D01*
X80911000Y-151930258D01*
X80911000Y-152107742D01*
X80906073Y-152132512D01*
X80876376Y-152281812D01*
X80808456Y-152445784D01*
X80709853Y-152593354D01*
X80584354Y-152718853D01*
X80436784Y-152817456D01*
X80272812Y-152885376D01*
X80123512Y-152915073D01*
X80098742Y-152920000D01*
X79921258Y-152920000D01*
X79896488Y-152915073D01*
X79747188Y-152885376D01*
X79583216Y-152817456D01*
X79435646Y-152718853D01*
X79310147Y-152593354D01*
X79211544Y-152445784D01*
X79143624Y-152281812D01*
X79113927Y-152132512D01*
X79109000Y-152107742D01*
X79109000Y-151930258D01*
X79113927Y-151905488D01*
X79143624Y-151756188D01*
X79211544Y-151592216D01*
X79310147Y-151444646D01*
X79435646Y-151319147D01*
X79583216Y-151220544D01*
X79747188Y-151152624D01*
X79896488Y-151122927D01*
X79921258Y-151118000D01*
X80098742Y-151118000D01*
X80123512Y-151122927D01*
G37*
G36*
X77583512Y-151122927D02*
G01*
X77732812Y-151152624D01*
X77896784Y-151220544D01*
X78044354Y-151319147D01*
X78169853Y-151444646D01*
X78268456Y-151592216D01*
X78336376Y-151756188D01*
X78366073Y-151905488D01*
X78371000Y-151930258D01*
X78371000Y-152107742D01*
X78366073Y-152132512D01*
X78336376Y-152281812D01*
X78268456Y-152445784D01*
X78169853Y-152593354D01*
X78044354Y-152718853D01*
X77896784Y-152817456D01*
X77732812Y-152885376D01*
X77583512Y-152915073D01*
X77558742Y-152920000D01*
X77381258Y-152920000D01*
X77356488Y-152915073D01*
X77207188Y-152885376D01*
X77043216Y-152817456D01*
X76895646Y-152718853D01*
X76770147Y-152593354D01*
X76671544Y-152445784D01*
X76603624Y-152281812D01*
X76573927Y-152132512D01*
X76569000Y-152107742D01*
X76569000Y-151930258D01*
X76573927Y-151905488D01*
X76603624Y-151756188D01*
X76671544Y-151592216D01*
X76770147Y-151444646D01*
X76895646Y-151319147D01*
X77043216Y-151220544D01*
X77207188Y-151152624D01*
X77356488Y-151122927D01*
X77381258Y-151118000D01*
X77558742Y-151118000D01*
X77583512Y-151122927D01*
G37*
G36*
X170230012Y-149789427D02*
G01*
X170379312Y-149819124D01*
X170543284Y-149887044D01*
X170690854Y-149985647D01*
X170816353Y-150111146D01*
X170914956Y-150258716D01*
X170982876Y-150422688D01*
X171017500Y-150596759D01*
X171017500Y-150774241D01*
X170982876Y-150948312D01*
X170914956Y-151112284D01*
X170816353Y-151259854D01*
X170690854Y-151385353D01*
X170543284Y-151483956D01*
X170379312Y-151551876D01*
X170230012Y-151581573D01*
X170205242Y-151586500D01*
X170027758Y-151586500D01*
X170002988Y-151581573D01*
X169853688Y-151551876D01*
X169689716Y-151483956D01*
X169542146Y-151385353D01*
X169416647Y-151259854D01*
X169318044Y-151112284D01*
X169250124Y-150948312D01*
X169215500Y-150774241D01*
X169215500Y-150596759D01*
X169250124Y-150422688D01*
X169318044Y-150258716D01*
X169416647Y-150111146D01*
X169542146Y-149985647D01*
X169689716Y-149887044D01*
X169853688Y-149819124D01*
X170002988Y-149789427D01*
X170027758Y-149784500D01*
X170205242Y-149784500D01*
X170230012Y-149789427D01*
G37*
G36*
X77583512Y-148582927D02*
G01*
X77732812Y-148612624D01*
X77896784Y-148680544D01*
X78044354Y-148779147D01*
X78169853Y-148904646D01*
X78268456Y-149052216D01*
X78336376Y-149216188D01*
X78371000Y-149390259D01*
X78371000Y-149567741D01*
X78336376Y-149741812D01*
X78268456Y-149905784D01*
X78169853Y-150053354D01*
X78044354Y-150178853D01*
X77896784Y-150277456D01*
X77732812Y-150345376D01*
X77583512Y-150375073D01*
X77558742Y-150380000D01*
X77381258Y-150380000D01*
X77356488Y-150375073D01*
X77207188Y-150345376D01*
X77043216Y-150277456D01*
X76895646Y-150178853D01*
X76770147Y-150053354D01*
X76671544Y-149905784D01*
X76603624Y-149741812D01*
X76569000Y-149567741D01*
X76569000Y-149390259D01*
X76603624Y-149216188D01*
X76671544Y-149052216D01*
X76770147Y-148904646D01*
X76895646Y-148779147D01*
X77043216Y-148680544D01*
X77207188Y-148612624D01*
X77356488Y-148582927D01*
X77381258Y-148578000D01*
X77558742Y-148578000D01*
X77583512Y-148582927D01*
G37*
G36*
X80123512Y-148582927D02*
G01*
X80272812Y-148612624D01*
X80436784Y-148680544D01*
X80584354Y-148779147D01*
X80709853Y-148904646D01*
X80808456Y-149052216D01*
X80876376Y-149216188D01*
X80911000Y-149390259D01*
X80911000Y-149567741D01*
X80876376Y-149741812D01*
X80808456Y-149905784D01*
X80709853Y-150053354D01*
X80584354Y-150178853D01*
X80436784Y-150277456D01*
X80272812Y-150345376D01*
X80123512Y-150375073D01*
X80098742Y-150380000D01*
X79921258Y-150380000D01*
X79896488Y-150375073D01*
X79747188Y-150345376D01*
X79583216Y-150277456D01*
X79435646Y-150178853D01*
X79310147Y-150053354D01*
X79211544Y-149905784D01*
X79143624Y-149741812D01*
X79109000Y-149567741D01*
X79109000Y-149390259D01*
X79143624Y-149216188D01*
X79211544Y-149052216D01*
X79310147Y-148904646D01*
X79435646Y-148779147D01*
X79583216Y-148680544D01*
X79747188Y-148612624D01*
X79896488Y-148582927D01*
X79921258Y-148578000D01*
X80098742Y-148578000D01*
X80123512Y-148582927D01*
G37*
G36*
X149541000Y-150176000D02*
G01*
X147639000Y-150176000D01*
X147639000Y-148274000D01*
X149541000Y-148274000D01*
X149541000Y-150176000D01*
G37*
G36*
X151407395Y-148310546D02*
G01*
X151580466Y-148382234D01*
X151580467Y-148382235D01*
X151736227Y-148486310D01*
X151868690Y-148618773D01*
X151868691Y-148618775D01*
X151972766Y-148774534D01*
X152044454Y-148947605D01*
X152081000Y-149131333D01*
X152081000Y-149318667D01*
X152044454Y-149502395D01*
X151972766Y-149675466D01*
X151972765Y-149675467D01*
X151868690Y-149831227D01*
X151736227Y-149963690D01*
X151703366Y-149985647D01*
X151580466Y-150067766D01*
X151407395Y-150139454D01*
X151223667Y-150176000D01*
X151036333Y-150176000D01*
X150852605Y-150139454D01*
X150679534Y-150067766D01*
X150556634Y-149985647D01*
X150523773Y-149963690D01*
X150391310Y-149831227D01*
X150287235Y-149675467D01*
X150287234Y-149675466D01*
X150215546Y-149502395D01*
X150179000Y-149318667D01*
X150179000Y-149131333D01*
X150215546Y-148947605D01*
X150287234Y-148774534D01*
X150391309Y-148618775D01*
X150391310Y-148618773D01*
X150523773Y-148486310D01*
X150679533Y-148382235D01*
X150679534Y-148382234D01*
X150852605Y-148310546D01*
X151036333Y-148274000D01*
X151223667Y-148274000D01*
X151407395Y-148310546D01*
G37*
G36*
X143826000Y-150176000D02*
G01*
X141924000Y-150176000D01*
X141924000Y-148274000D01*
X143826000Y-148274000D01*
X143826000Y-150176000D01*
G37*
G36*
X140612395Y-148310546D02*
G01*
X140785466Y-148382234D01*
X140785467Y-148382235D01*
X140941227Y-148486310D01*
X141073690Y-148618773D01*
X141073691Y-148618775D01*
X141177766Y-148774534D01*
X141249454Y-148947605D01*
X141286000Y-149131333D01*
X141286000Y-149318667D01*
X141249454Y-149502395D01*
X141177766Y-149675466D01*
X141177765Y-149675467D01*
X141073690Y-149831227D01*
X140941227Y-149963690D01*
X140908366Y-149985647D01*
X140785466Y-150067766D01*
X140612395Y-150139454D01*
X140428667Y-150176000D01*
X140241333Y-150176000D01*
X140057605Y-150139454D01*
X139884534Y-150067766D01*
X139761634Y-149985647D01*
X139728773Y-149963690D01*
X139596310Y-149831227D01*
X139492235Y-149675467D01*
X139492234Y-149675466D01*
X139420546Y-149502395D01*
X139384000Y-149318667D01*
X139384000Y-149131333D01*
X139420546Y-148947605D01*
X139492234Y-148774534D01*
X139596309Y-148618775D01*
X139596310Y-148618773D01*
X139728773Y-148486310D01*
X139884533Y-148382235D01*
X139884534Y-148382234D01*
X140057605Y-148310546D01*
X140241333Y-148274000D01*
X140428667Y-148274000D01*
X140612395Y-148310546D01*
G37*
G36*
X171017500Y-149046500D02*
G01*
X169215500Y-149046500D01*
X169215500Y-147244500D01*
X171017500Y-147244500D01*
X171017500Y-149046500D01*
G37*
G36*
X80911000Y-147840000D02*
G01*
X79109000Y-147840000D01*
X79109000Y-146038000D01*
X80911000Y-146038000D01*
X80911000Y-147840000D01*
G37*
G36*
X77583512Y-146042927D02*
G01*
X77732812Y-146072624D01*
X77896784Y-146140544D01*
X78044354Y-146239147D01*
X78169853Y-146364646D01*
X78268456Y-146512216D01*
X78336376Y-146676188D01*
X78371000Y-146850259D01*
X78371000Y-147027741D01*
X78336376Y-147201812D01*
X78268456Y-147365784D01*
X78169853Y-147513354D01*
X78044354Y-147638853D01*
X77896784Y-147737456D01*
X77732812Y-147805376D01*
X77583512Y-147835073D01*
X77558742Y-147840000D01*
X77381258Y-147840000D01*
X77356488Y-147835073D01*
X77207188Y-147805376D01*
X77043216Y-147737456D01*
X76895646Y-147638853D01*
X76770147Y-147513354D01*
X76671544Y-147365784D01*
X76603624Y-147201812D01*
X76569000Y-147027741D01*
X76569000Y-146850259D01*
X76603624Y-146676188D01*
X76671544Y-146512216D01*
X76770147Y-146364646D01*
X76895646Y-146239147D01*
X77043216Y-146140544D01*
X77207188Y-146072624D01*
X77356488Y-146042927D01*
X77381258Y-146038000D01*
X77558742Y-146038000D01*
X77583512Y-146042927D01*
G37*
G36*
X105091000Y-147636000D02*
G01*
X103189000Y-147636000D01*
X103189000Y-145734000D01*
X105091000Y-145734000D01*
X105091000Y-147636000D01*
G37*
G36*
X101877395Y-145770546D02*
G01*
X102050466Y-145842234D01*
X102050467Y-145842235D01*
X102206227Y-145946310D01*
X102338690Y-146078773D01*
X102338691Y-146078775D01*
X102442766Y-146234534D01*
X102514454Y-146407605D01*
X102551000Y-146591333D01*
X102551000Y-146778667D01*
X102514454Y-146962395D01*
X102442766Y-147135466D01*
X102442765Y-147135467D01*
X102338690Y-147291227D01*
X102206227Y-147423690D01*
X102127818Y-147476081D01*
X102050466Y-147527766D01*
X101877395Y-147599454D01*
X101693667Y-147636000D01*
X101506333Y-147636000D01*
X101322605Y-147599454D01*
X101149534Y-147527766D01*
X101072182Y-147476081D01*
X100993773Y-147423690D01*
X100861310Y-147291227D01*
X100757235Y-147135467D01*
X100757234Y-147135466D01*
X100685546Y-146962395D01*
X100649000Y-146778667D01*
X100649000Y-146591333D01*
X100685546Y-146407605D01*
X100757234Y-146234534D01*
X100861309Y-146078775D01*
X100861310Y-146078773D01*
X100993773Y-145946310D01*
X101149533Y-145842235D01*
X101149534Y-145842234D01*
X101322605Y-145770546D01*
X101506333Y-145734000D01*
X101693667Y-145734000D01*
X101877395Y-145770546D01*
G37*
G36*
X91756000Y-147001000D02*
G01*
X89854000Y-147001000D01*
X89854000Y-145099000D01*
X91756000Y-145099000D01*
X91756000Y-147001000D01*
G37*
G36*
X88542395Y-145135546D02*
G01*
X88715466Y-145207234D01*
X88715467Y-145207235D01*
X88871227Y-145311310D01*
X89003690Y-145443773D01*
X89003691Y-145443775D01*
X89107766Y-145599534D01*
X89179454Y-145772605D01*
X89216000Y-145956333D01*
X89216000Y-146143667D01*
X89179454Y-146327395D01*
X89107766Y-146500466D01*
X89056081Y-146577818D01*
X89003690Y-146656227D01*
X88871227Y-146788690D01*
X88792818Y-146841081D01*
X88715466Y-146892766D01*
X88542395Y-146964454D01*
X88358667Y-147001000D01*
X88171333Y-147001000D01*
X87987605Y-146964454D01*
X87814534Y-146892766D01*
X87737182Y-146841081D01*
X87658773Y-146788690D01*
X87526310Y-146656227D01*
X87473919Y-146577818D01*
X87422234Y-146500466D01*
X87350546Y-146327395D01*
X87314000Y-146143667D01*
X87314000Y-145956333D01*
X87350546Y-145772605D01*
X87422234Y-145599534D01*
X87526309Y-145443775D01*
X87526310Y-145443773D01*
X87658773Y-145311310D01*
X87814533Y-145207235D01*
X87814534Y-145207234D01*
X87987605Y-145135546D01*
X88171333Y-145099000D01*
X88358667Y-145099000D01*
X88542395Y-145135546D01*
G37*
G36*
X106986564Y-140649389D02*
G01*
X107177833Y-140728615D01*
X107177835Y-140728616D01*
X107349973Y-140843635D01*
X107496365Y-140990027D01*
X107611385Y-141162167D01*
X107690611Y-141353436D01*
X107731000Y-141556484D01*
X107731000Y-141763516D01*
X107690611Y-141966564D01*
X107611385Y-142157833D01*
X107611384Y-142157835D01*
X107496365Y-142329973D01*
X107349973Y-142476365D01*
X107177835Y-142591384D01*
X107177834Y-142591385D01*
X107177833Y-142591385D01*
X106986564Y-142670611D01*
X106783516Y-142711000D01*
X106576484Y-142711000D01*
X106373436Y-142670611D01*
X106182167Y-142591385D01*
X106182166Y-142591385D01*
X106182165Y-142591384D01*
X106010027Y-142476365D01*
X105863635Y-142329973D01*
X105748616Y-142157835D01*
X105748615Y-142157833D01*
X105669389Y-141966564D01*
X105629000Y-141763516D01*
X105629000Y-141556484D01*
X105669389Y-141353436D01*
X105748615Y-141162167D01*
X105863635Y-140990027D01*
X106010027Y-140843635D01*
X106182165Y-140728616D01*
X106182167Y-140728615D01*
X106373436Y-140649389D01*
X106576484Y-140609000D01*
X106783516Y-140609000D01*
X106986564Y-140649389D01*
G37*
G36*
X128576564Y-140649389D02*
G01*
X128767833Y-140728615D01*
X128767835Y-140728616D01*
X128939973Y-140843635D01*
X129086365Y-140990027D01*
X129201385Y-141162167D01*
X129280611Y-141353436D01*
X129321000Y-141556484D01*
X129321000Y-141763516D01*
X129280611Y-141966564D01*
X129201385Y-142157833D01*
X129201384Y-142157835D01*
X129086365Y-142329973D01*
X128939973Y-142476365D01*
X128767835Y-142591384D01*
X128767834Y-142591385D01*
X128767833Y-142591385D01*
X128576564Y-142670611D01*
X128373516Y-142711000D01*
X128166484Y-142711000D01*
X127963436Y-142670611D01*
X127772167Y-142591385D01*
X127772166Y-142591385D01*
X127772165Y-142591384D01*
X127600027Y-142476365D01*
X127453635Y-142329973D01*
X127338616Y-142157835D01*
X127338615Y-142157833D01*
X127259389Y-141966564D01*
X127219000Y-141763516D01*
X127219000Y-141556484D01*
X127259389Y-141353436D01*
X127338615Y-141162167D01*
X127453635Y-140990027D01*
X127600027Y-140843635D01*
X127772165Y-140728616D01*
X127772167Y-140728615D01*
X127963436Y-140649389D01*
X128166484Y-140609000D01*
X128373516Y-140609000D01*
X128576564Y-140649389D01*
G37*
G36*
X135076564Y-140649389D02*
G01*
X135267833Y-140728615D01*
X135267835Y-140728616D01*
X135439973Y-140843635D01*
X135586365Y-140990027D01*
X135701385Y-141162167D01*
X135780611Y-141353436D01*
X135821000Y-141556484D01*
X135821000Y-141763516D01*
X135780611Y-141966564D01*
X135701385Y-142157833D01*
X135701384Y-142157835D01*
X135586365Y-142329973D01*
X135439973Y-142476365D01*
X135267835Y-142591384D01*
X135267834Y-142591385D01*
X135267833Y-142591385D01*
X135076564Y-142670611D01*
X134873516Y-142711000D01*
X134666484Y-142711000D01*
X134463436Y-142670611D01*
X134272167Y-142591385D01*
X134272166Y-142591385D01*
X134272165Y-142591384D01*
X134100027Y-142476365D01*
X133953635Y-142329973D01*
X133838616Y-142157835D01*
X133838615Y-142157833D01*
X133759389Y-141966564D01*
X133719000Y-141763516D01*
X133719000Y-141556484D01*
X133759389Y-141353436D01*
X133838615Y-141162167D01*
X133953635Y-140990027D01*
X134100027Y-140843635D01*
X134272165Y-140728616D01*
X134272167Y-140728615D01*
X134463436Y-140649389D01*
X134666484Y-140609000D01*
X134873516Y-140609000D01*
X135076564Y-140649389D01*
G37*
G36*
X102691564Y-140649389D02*
G01*
X102882833Y-140728615D01*
X102882835Y-140728616D01*
X103054973Y-140843635D01*
X103201365Y-140990027D01*
X103316385Y-141162167D01*
X103395611Y-141353436D01*
X103436000Y-141556484D01*
X103436000Y-141763516D01*
X103395611Y-141966564D01*
X103316385Y-142157833D01*
X103316384Y-142157835D01*
X103201365Y-142329973D01*
X103054973Y-142476365D01*
X102882835Y-142591384D01*
X102882834Y-142591385D01*
X102882833Y-142591385D01*
X102691564Y-142670611D01*
X102488516Y-142711000D01*
X102281484Y-142711000D01*
X102078436Y-142670611D01*
X101887167Y-142591385D01*
X101887166Y-142591385D01*
X101887165Y-142591384D01*
X101715027Y-142476365D01*
X101568635Y-142329973D01*
X101453616Y-142157835D01*
X101453615Y-142157833D01*
X101374389Y-141966564D01*
X101334000Y-141763516D01*
X101334000Y-141556484D01*
X101374389Y-141353436D01*
X101453615Y-141162167D01*
X101568635Y-140990027D01*
X101715027Y-140843635D01*
X101887165Y-140728616D01*
X101887167Y-140728615D01*
X102078436Y-140649389D01*
X102281484Y-140609000D01*
X102488516Y-140609000D01*
X102691564Y-140649389D01*
G37*
G36*
X96191564Y-140649389D02*
G01*
X96382833Y-140728615D01*
X96382835Y-140728616D01*
X96554973Y-140843635D01*
X96701365Y-140990027D01*
X96816385Y-141162167D01*
X96895611Y-141353436D01*
X96936000Y-141556484D01*
X96936000Y-141763516D01*
X96895611Y-141966564D01*
X96816385Y-142157833D01*
X96816384Y-142157835D01*
X96701365Y-142329973D01*
X96554973Y-142476365D01*
X96382835Y-142591384D01*
X96382834Y-142591385D01*
X96382833Y-142591385D01*
X96191564Y-142670611D01*
X95988516Y-142711000D01*
X95781484Y-142711000D01*
X95578436Y-142670611D01*
X95387167Y-142591385D01*
X95387166Y-142591385D01*
X95387165Y-142591384D01*
X95215027Y-142476365D01*
X95068635Y-142329973D01*
X94953616Y-142157835D01*
X94953615Y-142157833D01*
X94874389Y-141966564D01*
X94834000Y-141763516D01*
X94834000Y-141556484D01*
X94874389Y-141353436D01*
X94953615Y-141162167D01*
X95068635Y-140990027D01*
X95215027Y-140843635D01*
X95387165Y-140728616D01*
X95387167Y-140728615D01*
X95578436Y-140649389D01*
X95781484Y-140609000D01*
X95988516Y-140609000D01*
X96191564Y-140649389D01*
G37*
G36*
X113486564Y-140649389D02*
G01*
X113677833Y-140728615D01*
X113677835Y-140728616D01*
X113849973Y-140843635D01*
X113996365Y-140990027D01*
X114111385Y-141162167D01*
X114190611Y-141353436D01*
X114231000Y-141556484D01*
X114231000Y-141763516D01*
X114190611Y-141966564D01*
X114111385Y-142157833D01*
X114111384Y-142157835D01*
X113996365Y-142329973D01*
X113849973Y-142476365D01*
X113677835Y-142591384D01*
X113677834Y-142591385D01*
X113677833Y-142591385D01*
X113486564Y-142670611D01*
X113283516Y-142711000D01*
X113076484Y-142711000D01*
X112873436Y-142670611D01*
X112682167Y-142591385D01*
X112682166Y-142591385D01*
X112682165Y-142591384D01*
X112510027Y-142476365D01*
X112363635Y-142329973D01*
X112248616Y-142157835D01*
X112248615Y-142157833D01*
X112169389Y-141966564D01*
X112129000Y-141763516D01*
X112129000Y-141556484D01*
X112169389Y-141353436D01*
X112248615Y-141162167D01*
X112363635Y-140990027D01*
X112510027Y-140843635D01*
X112682165Y-140728616D01*
X112682167Y-140728615D01*
X112873436Y-140649389D01*
X113076484Y-140609000D01*
X113283516Y-140609000D01*
X113486564Y-140649389D01*
G37*
G36*
X91896564Y-140649389D02*
G01*
X92087833Y-140728615D01*
X92087835Y-140728616D01*
X92259973Y-140843635D01*
X92406365Y-140990027D01*
X92521385Y-141162167D01*
X92600611Y-141353436D01*
X92641000Y-141556484D01*
X92641000Y-141763516D01*
X92600611Y-141966564D01*
X92521385Y-142157833D01*
X92521384Y-142157835D01*
X92406365Y-142329973D01*
X92259973Y-142476365D01*
X92087835Y-142591384D01*
X92087834Y-142591385D01*
X92087833Y-142591385D01*
X91896564Y-142670611D01*
X91693516Y-142711000D01*
X91486484Y-142711000D01*
X91283436Y-142670611D01*
X91092167Y-142591385D01*
X91092166Y-142591385D01*
X91092165Y-142591384D01*
X90920027Y-142476365D01*
X90773635Y-142329973D01*
X90658616Y-142157835D01*
X90658615Y-142157833D01*
X90579389Y-141966564D01*
X90539000Y-141763516D01*
X90539000Y-141556484D01*
X90579389Y-141353436D01*
X90658615Y-141162167D01*
X90773635Y-140990027D01*
X90920027Y-140843635D01*
X91092165Y-140728616D01*
X91092167Y-140728615D01*
X91283436Y-140649389D01*
X91486484Y-140609000D01*
X91693516Y-140609000D01*
X91896564Y-140649389D01*
G37*
G36*
X85396564Y-140649389D02*
G01*
X85587833Y-140728615D01*
X85587835Y-140728616D01*
X85759973Y-140843635D01*
X85906365Y-140990027D01*
X86021385Y-141162167D01*
X86100611Y-141353436D01*
X86141000Y-141556484D01*
X86141000Y-141763516D01*
X86100611Y-141966564D01*
X86021385Y-142157833D01*
X86021384Y-142157835D01*
X85906365Y-142329973D01*
X85759973Y-142476365D01*
X85587835Y-142591384D01*
X85587834Y-142591385D01*
X85587833Y-142591385D01*
X85396564Y-142670611D01*
X85193516Y-142711000D01*
X84986484Y-142711000D01*
X84783436Y-142670611D01*
X84592167Y-142591385D01*
X84592166Y-142591385D01*
X84592165Y-142591384D01*
X84420027Y-142476365D01*
X84273635Y-142329973D01*
X84158616Y-142157835D01*
X84158615Y-142157833D01*
X84079389Y-141966564D01*
X84039000Y-141763516D01*
X84039000Y-141556484D01*
X84079389Y-141353436D01*
X84158615Y-141162167D01*
X84273635Y-140990027D01*
X84420027Y-140843635D01*
X84592165Y-140728616D01*
X84592167Y-140728615D01*
X84783436Y-140649389D01*
X84986484Y-140609000D01*
X85193516Y-140609000D01*
X85396564Y-140649389D01*
G37*
G36*
X117781564Y-140649389D02*
G01*
X117972833Y-140728615D01*
X117972835Y-140728616D01*
X118144973Y-140843635D01*
X118291365Y-140990027D01*
X118406385Y-141162167D01*
X118485611Y-141353436D01*
X118526000Y-141556484D01*
X118526000Y-141763516D01*
X118485611Y-141966564D01*
X118406385Y-142157833D01*
X118406384Y-142157835D01*
X118291365Y-142329973D01*
X118144973Y-142476365D01*
X117972835Y-142591384D01*
X117972834Y-142591385D01*
X117972833Y-142591385D01*
X117781564Y-142670611D01*
X117578516Y-142711000D01*
X117371484Y-142711000D01*
X117168436Y-142670611D01*
X116977167Y-142591385D01*
X116977166Y-142591385D01*
X116977165Y-142591384D01*
X116805027Y-142476365D01*
X116658635Y-142329973D01*
X116543616Y-142157835D01*
X116543615Y-142157833D01*
X116464389Y-141966564D01*
X116424000Y-141763516D01*
X116424000Y-141556484D01*
X116464389Y-141353436D01*
X116543615Y-141162167D01*
X116658635Y-140990027D01*
X116805027Y-140843635D01*
X116977165Y-140728616D01*
X116977167Y-140728615D01*
X117168436Y-140649389D01*
X117371484Y-140609000D01*
X117578516Y-140609000D01*
X117781564Y-140649389D01*
G37*
G36*
X124281564Y-140649389D02*
G01*
X124472833Y-140728615D01*
X124472835Y-140728616D01*
X124644973Y-140843635D01*
X124791365Y-140990027D01*
X124906385Y-141162167D01*
X124985611Y-141353436D01*
X125026000Y-141556484D01*
X125026000Y-141763516D01*
X124985611Y-141966564D01*
X124906385Y-142157833D01*
X124906384Y-142157835D01*
X124791365Y-142329973D01*
X124644973Y-142476365D01*
X124472835Y-142591384D01*
X124472834Y-142591385D01*
X124472833Y-142591385D01*
X124281564Y-142670611D01*
X124078516Y-142711000D01*
X123871484Y-142711000D01*
X123668436Y-142670611D01*
X123477167Y-142591385D01*
X123477166Y-142591385D01*
X123477165Y-142591384D01*
X123305027Y-142476365D01*
X123158635Y-142329973D01*
X123043616Y-142157835D01*
X123043615Y-142157833D01*
X122964389Y-141966564D01*
X122924000Y-141763516D01*
X122924000Y-141556484D01*
X122964389Y-141353436D01*
X123043615Y-141162167D01*
X123158635Y-140990027D01*
X123305027Y-140843635D01*
X123477165Y-140728616D01*
X123477167Y-140728615D01*
X123668436Y-140649389D01*
X123871484Y-140609000D01*
X124078516Y-140609000D01*
X124281564Y-140649389D01*
G37*
G36*
X117781564Y-136149389D02*
G01*
X117972833Y-136228615D01*
X117972835Y-136228616D01*
X118144973Y-136343635D01*
X118291365Y-136490027D01*
X118406385Y-136662167D01*
X118485611Y-136853436D01*
X118526000Y-137056484D01*
X118526000Y-137263516D01*
X118485611Y-137466564D01*
X118406385Y-137657833D01*
X118406384Y-137657835D01*
X118291365Y-137829973D01*
X118144973Y-137976365D01*
X117972835Y-138091384D01*
X117972834Y-138091385D01*
X117972833Y-138091385D01*
X117781564Y-138170611D01*
X117578516Y-138211000D01*
X117371484Y-138211000D01*
X117168436Y-138170611D01*
X116977167Y-138091385D01*
X116977166Y-138091385D01*
X116977165Y-138091384D01*
X116805027Y-137976365D01*
X116658635Y-137829973D01*
X116543616Y-137657835D01*
X116543615Y-137657833D01*
X116464389Y-137466564D01*
X116424000Y-137263516D01*
X116424000Y-137056484D01*
X116464389Y-136853436D01*
X116543615Y-136662167D01*
X116658635Y-136490027D01*
X116805027Y-136343635D01*
X116977165Y-136228616D01*
X116977167Y-136228615D01*
X117168436Y-136149389D01*
X117371484Y-136109000D01*
X117578516Y-136109000D01*
X117781564Y-136149389D01*
G37*
G36*
X85396564Y-136149389D02*
G01*
X85587833Y-136228615D01*
X85587835Y-136228616D01*
X85759973Y-136343635D01*
X85906365Y-136490027D01*
X86021385Y-136662167D01*
X86100611Y-136853436D01*
X86141000Y-137056484D01*
X86141000Y-137263516D01*
X86100611Y-137466564D01*
X86021385Y-137657833D01*
X86021384Y-137657835D01*
X85906365Y-137829973D01*
X85759973Y-137976365D01*
X85587835Y-138091384D01*
X85587834Y-138091385D01*
X85587833Y-138091385D01*
X85396564Y-138170611D01*
X85193516Y-138211000D01*
X84986484Y-138211000D01*
X84783436Y-138170611D01*
X84592167Y-138091385D01*
X84592166Y-138091385D01*
X84592165Y-138091384D01*
X84420027Y-137976365D01*
X84273635Y-137829973D01*
X84158616Y-137657835D01*
X84158615Y-137657833D01*
X84079389Y-137466564D01*
X84039000Y-137263516D01*
X84039000Y-137056484D01*
X84079389Y-136853436D01*
X84158615Y-136662167D01*
X84273635Y-136490027D01*
X84420027Y-136343635D01*
X84592165Y-136228616D01*
X84592167Y-136228615D01*
X84783436Y-136149389D01*
X84986484Y-136109000D01*
X85193516Y-136109000D01*
X85396564Y-136149389D01*
G37*
G36*
X135076564Y-136149389D02*
G01*
X135267833Y-136228615D01*
X135267835Y-136228616D01*
X135439973Y-136343635D01*
X135586365Y-136490027D01*
X135701385Y-136662167D01*
X135780611Y-136853436D01*
X135821000Y-137056484D01*
X135821000Y-137263516D01*
X135780611Y-137466564D01*
X135701385Y-137657833D01*
X135701384Y-137657835D01*
X135586365Y-137829973D01*
X135439973Y-137976365D01*
X135267835Y-138091384D01*
X135267834Y-138091385D01*
X135267833Y-138091385D01*
X135076564Y-138170611D01*
X134873516Y-138211000D01*
X134666484Y-138211000D01*
X134463436Y-138170611D01*
X134272167Y-138091385D01*
X134272166Y-138091385D01*
X134272165Y-138091384D01*
X134100027Y-137976365D01*
X133953635Y-137829973D01*
X133838616Y-137657835D01*
X133838615Y-137657833D01*
X133759389Y-137466564D01*
X133719000Y-137263516D01*
X133719000Y-137056484D01*
X133759389Y-136853436D01*
X133838615Y-136662167D01*
X133953635Y-136490027D01*
X134100027Y-136343635D01*
X134272165Y-136228616D01*
X134272167Y-136228615D01*
X134463436Y-136149389D01*
X134666484Y-136109000D01*
X134873516Y-136109000D01*
X135076564Y-136149389D01*
G37*
G36*
X91896564Y-136149389D02*
G01*
X92087833Y-136228615D01*
X92087835Y-136228616D01*
X92259973Y-136343635D01*
X92406365Y-136490027D01*
X92521385Y-136662167D01*
X92600611Y-136853436D01*
X92641000Y-137056484D01*
X92641000Y-137263516D01*
X92600611Y-137466564D01*
X92521385Y-137657833D01*
X92521384Y-137657835D01*
X92406365Y-137829973D01*
X92259973Y-137976365D01*
X92087835Y-138091384D01*
X92087834Y-138091385D01*
X92087833Y-138091385D01*
X91896564Y-138170611D01*
X91693516Y-138211000D01*
X91486484Y-138211000D01*
X91283436Y-138170611D01*
X91092167Y-138091385D01*
X91092166Y-138091385D01*
X91092165Y-138091384D01*
X90920027Y-137976365D01*
X90773635Y-137829973D01*
X90658616Y-137657835D01*
X90658615Y-137657833D01*
X90579389Y-137466564D01*
X90539000Y-137263516D01*
X90539000Y-137056484D01*
X90579389Y-136853436D01*
X90658615Y-136662167D01*
X90773635Y-136490027D01*
X90920027Y-136343635D01*
X91092165Y-136228616D01*
X91092167Y-136228615D01*
X91283436Y-136149389D01*
X91486484Y-136109000D01*
X91693516Y-136109000D01*
X91896564Y-136149389D01*
G37*
G36*
X128576564Y-136149389D02*
G01*
X128767833Y-136228615D01*
X128767835Y-136228616D01*
X128939973Y-136343635D01*
X129086365Y-136490027D01*
X129201385Y-136662167D01*
X129280611Y-136853436D01*
X129321000Y-137056484D01*
X129321000Y-137263516D01*
X129280611Y-137466564D01*
X129201385Y-137657833D01*
X129201384Y-137657835D01*
X129086365Y-137829973D01*
X128939973Y-137976365D01*
X128767835Y-138091384D01*
X128767834Y-138091385D01*
X128767833Y-138091385D01*
X128576564Y-138170611D01*
X128373516Y-138211000D01*
X128166484Y-138211000D01*
X127963436Y-138170611D01*
X127772167Y-138091385D01*
X127772166Y-138091385D01*
X127772165Y-138091384D01*
X127600027Y-137976365D01*
X127453635Y-137829973D01*
X127338616Y-137657835D01*
X127338615Y-137657833D01*
X127259389Y-137466564D01*
X127219000Y-137263516D01*
X127219000Y-137056484D01*
X127259389Y-136853436D01*
X127338615Y-136662167D01*
X127453635Y-136490027D01*
X127600027Y-136343635D01*
X127772165Y-136228616D01*
X127772167Y-136228615D01*
X127963436Y-136149389D01*
X128166484Y-136109000D01*
X128373516Y-136109000D01*
X128576564Y-136149389D01*
G37*
G36*
X124281564Y-136149389D02*
G01*
X124472833Y-136228615D01*
X124472835Y-136228616D01*
X124644973Y-136343635D01*
X124791365Y-136490027D01*
X124906385Y-136662167D01*
X124985611Y-136853436D01*
X125026000Y-137056484D01*
X125026000Y-137263516D01*
X124985611Y-137466564D01*
X124906385Y-137657833D01*
X124906384Y-137657835D01*
X124791365Y-137829973D01*
X124644973Y-137976365D01*
X124472835Y-138091384D01*
X124472834Y-138091385D01*
X124472833Y-138091385D01*
X124281564Y-138170611D01*
X124078516Y-138211000D01*
X123871484Y-138211000D01*
X123668436Y-138170611D01*
X123477167Y-138091385D01*
X123477166Y-138091385D01*
X123477165Y-138091384D01*
X123305027Y-137976365D01*
X123158635Y-137829973D01*
X123043616Y-137657835D01*
X123043615Y-137657833D01*
X122964389Y-137466564D01*
X122924000Y-137263516D01*
X122924000Y-137056484D01*
X122964389Y-136853436D01*
X123043615Y-136662167D01*
X123158635Y-136490027D01*
X123305027Y-136343635D01*
X123477165Y-136228616D01*
X123477167Y-136228615D01*
X123668436Y-136149389D01*
X123871484Y-136109000D01*
X124078516Y-136109000D01*
X124281564Y-136149389D01*
G37*
G36*
X102691564Y-136149389D02*
G01*
X102882833Y-136228615D01*
X102882835Y-136228616D01*
X103054973Y-136343635D01*
X103201365Y-136490027D01*
X103316385Y-136662167D01*
X103395611Y-136853436D01*
X103436000Y-137056484D01*
X103436000Y-137263516D01*
X103395611Y-137466564D01*
X103316385Y-137657833D01*
X103316384Y-137657835D01*
X103201365Y-137829973D01*
X103054973Y-137976365D01*
X102882835Y-138091384D01*
X102882834Y-138091385D01*
X102882833Y-138091385D01*
X102691564Y-138170611D01*
X102488516Y-138211000D01*
X102281484Y-138211000D01*
X102078436Y-138170611D01*
X101887167Y-138091385D01*
X101887166Y-138091385D01*
X101887165Y-138091384D01*
X101715027Y-137976365D01*
X101568635Y-137829973D01*
X101453616Y-137657835D01*
X101453615Y-137657833D01*
X101374389Y-137466564D01*
X101334000Y-137263516D01*
X101334000Y-137056484D01*
X101374389Y-136853436D01*
X101453615Y-136662167D01*
X101568635Y-136490027D01*
X101715027Y-136343635D01*
X101887165Y-136228616D01*
X101887167Y-136228615D01*
X102078436Y-136149389D01*
X102281484Y-136109000D01*
X102488516Y-136109000D01*
X102691564Y-136149389D01*
G37*
G36*
X113486564Y-136149389D02*
G01*
X113677833Y-136228615D01*
X113677835Y-136228616D01*
X113849973Y-136343635D01*
X113996365Y-136490027D01*
X114111385Y-136662167D01*
X114190611Y-136853436D01*
X114231000Y-137056484D01*
X114231000Y-137263516D01*
X114190611Y-137466564D01*
X114111385Y-137657833D01*
X114111384Y-137657835D01*
X113996365Y-137829973D01*
X113849973Y-137976365D01*
X113677835Y-138091384D01*
X113677834Y-138091385D01*
X113677833Y-138091385D01*
X113486564Y-138170611D01*
X113283516Y-138211000D01*
X113076484Y-138211000D01*
X112873436Y-138170611D01*
X112682167Y-138091385D01*
X112682166Y-138091385D01*
X112682165Y-138091384D01*
X112510027Y-137976365D01*
X112363635Y-137829973D01*
X112248616Y-137657835D01*
X112248615Y-137657833D01*
X112169389Y-137466564D01*
X112129000Y-137263516D01*
X112129000Y-137056484D01*
X112169389Y-136853436D01*
X112248615Y-136662167D01*
X112363635Y-136490027D01*
X112510027Y-136343635D01*
X112682165Y-136228616D01*
X112682167Y-136228615D01*
X112873436Y-136149389D01*
X113076484Y-136109000D01*
X113283516Y-136109000D01*
X113486564Y-136149389D01*
G37*
G36*
X106986564Y-136149389D02*
G01*
X107177833Y-136228615D01*
X107177835Y-136228616D01*
X107349973Y-136343635D01*
X107496365Y-136490027D01*
X107611385Y-136662167D01*
X107690611Y-136853436D01*
X107731000Y-137056484D01*
X107731000Y-137263516D01*
X107690611Y-137466564D01*
X107611385Y-137657833D01*
X107611384Y-137657835D01*
X107496365Y-137829973D01*
X107349973Y-137976365D01*
X107177835Y-138091384D01*
X107177834Y-138091385D01*
X107177833Y-138091385D01*
X106986564Y-138170611D01*
X106783516Y-138211000D01*
X106576484Y-138211000D01*
X106373436Y-138170611D01*
X106182167Y-138091385D01*
X106182166Y-138091385D01*
X106182165Y-138091384D01*
X106010027Y-137976365D01*
X105863635Y-137829973D01*
X105748616Y-137657835D01*
X105748615Y-137657833D01*
X105669389Y-137466564D01*
X105629000Y-137263516D01*
X105629000Y-137056484D01*
X105669389Y-136853436D01*
X105748615Y-136662167D01*
X105863635Y-136490027D01*
X106010027Y-136343635D01*
X106182165Y-136228616D01*
X106182167Y-136228615D01*
X106373436Y-136149389D01*
X106576484Y-136109000D01*
X106783516Y-136109000D01*
X106986564Y-136149389D01*
G37*
G36*
X96191564Y-136149389D02*
G01*
X96382833Y-136228615D01*
X96382835Y-136228616D01*
X96554973Y-136343635D01*
X96701365Y-136490027D01*
X96816385Y-136662167D01*
X96895611Y-136853436D01*
X96936000Y-137056484D01*
X96936000Y-137263516D01*
X96895611Y-137466564D01*
X96816385Y-137657833D01*
X96816384Y-137657835D01*
X96701365Y-137829973D01*
X96554973Y-137976365D01*
X96382835Y-138091384D01*
X96382834Y-138091385D01*
X96382833Y-138091385D01*
X96191564Y-138170611D01*
X95988516Y-138211000D01*
X95781484Y-138211000D01*
X95578436Y-138170611D01*
X95387167Y-138091385D01*
X95387166Y-138091385D01*
X95387165Y-138091384D01*
X95215027Y-137976365D01*
X95068635Y-137829973D01*
X94953616Y-137657835D01*
X94953615Y-137657833D01*
X94874389Y-137466564D01*
X94834000Y-137263516D01*
X94834000Y-137056484D01*
X94874389Y-136853436D01*
X94953615Y-136662167D01*
X95068635Y-136490027D01*
X95215027Y-136343635D01*
X95387165Y-136228616D01*
X95387167Y-136228615D01*
X95578436Y-136149389D01*
X95781484Y-136109000D01*
X95988516Y-136109000D01*
X96191564Y-136149389D01*
G37*
G36*
X166576031Y-118814207D02*
G01*
X166774145Y-118874305D01*
X166774148Y-118874306D01*
X166828872Y-118903557D01*
X166956729Y-118971897D01*
X167116765Y-119103235D01*
X167248103Y-119263271D01*
X167248104Y-119263273D01*
X167345694Y-119445851D01*
X167345694Y-119445852D01*
X167345695Y-119445854D01*
X167405793Y-119643968D01*
X167421000Y-119798370D01*
X167421000Y-121501630D01*
X167405793Y-121656032D01*
X167345695Y-121854146D01*
X167345694Y-121854149D01*
X167293939Y-121950975D01*
X167248103Y-122036729D01*
X167116765Y-122196765D01*
X166956729Y-122328103D01*
X166887976Y-122364852D01*
X166774149Y-122425694D01*
X166774146Y-122425695D01*
X166576032Y-122485793D01*
X166370000Y-122506085D01*
X166163969Y-122485793D01*
X165965855Y-122425695D01*
X165965852Y-122425694D01*
X165852025Y-122364852D01*
X165783272Y-122328103D01*
X165623236Y-122196765D01*
X165491898Y-122036729D01*
X165457904Y-121973130D01*
X165394305Y-121854146D01*
X165334207Y-121656033D01*
X165319000Y-121501631D01*
X165319000Y-119798370D01*
X165334207Y-119643971D01*
X165334207Y-119643969D01*
X165394305Y-119445855D01*
X165394306Y-119445852D01*
X165429521Y-119379970D01*
X165491897Y-119263271D01*
X165623235Y-119103235D01*
X165783271Y-118971897D01*
X165888270Y-118915774D01*
X165965851Y-118874306D01*
X165965854Y-118874305D01*
X166163968Y-118814207D01*
X166370000Y-118793915D01*
X166576031Y-118814207D01*
G37*
G36*
X162284852Y-118802840D02*
G01*
X162316443Y-118812423D01*
X162345557Y-118827985D01*
X162371074Y-118848926D01*
X162392015Y-118874443D01*
X162407577Y-118903557D01*
X162417160Y-118935148D01*
X162421000Y-118974140D01*
X162421000Y-122325860D01*
X162417160Y-122364852D01*
X162407577Y-122396443D01*
X162392015Y-122425557D01*
X162371074Y-122451074D01*
X162345557Y-122472015D01*
X162316443Y-122487577D01*
X162284852Y-122497160D01*
X162245860Y-122501000D01*
X160494140Y-122501000D01*
X160455148Y-122497160D01*
X160423557Y-122487577D01*
X160394443Y-122472015D01*
X160368926Y-122451074D01*
X160347985Y-122425557D01*
X160332423Y-122396443D01*
X160322840Y-122364852D01*
X160319000Y-122325860D01*
X160319000Y-118974140D01*
X160322840Y-118935148D01*
X160332423Y-118903557D01*
X160347985Y-118874443D01*
X160368926Y-118848926D01*
X160394443Y-118827985D01*
X160423557Y-118812423D01*
X160455148Y-118802840D01*
X160494140Y-118799000D01*
X162245860Y-118799000D01*
X162284852Y-118802840D01*
G37*
G36*
X144258512Y-119753927D02*
G01*
X144407812Y-119783624D01*
X144571784Y-119851544D01*
X144719354Y-119950147D01*
X144844853Y-120075646D01*
X144943456Y-120223216D01*
X145011376Y-120387188D01*
X145046000Y-120561259D01*
X145046000Y-120738741D01*
X145011376Y-120912812D01*
X144943456Y-121076784D01*
X144844853Y-121224354D01*
X144719354Y-121349853D01*
X144571784Y-121448456D01*
X144407812Y-121516376D01*
X144258512Y-121546073D01*
X144233742Y-121551000D01*
X144056258Y-121551000D01*
X144031488Y-121546073D01*
X143882188Y-121516376D01*
X143718216Y-121448456D01*
X143570646Y-121349853D01*
X143445147Y-121224354D01*
X143346544Y-121076784D01*
X143278624Y-120912812D01*
X143244000Y-120738741D01*
X143244000Y-120561259D01*
X143278624Y-120387188D01*
X143346544Y-120223216D01*
X143445147Y-120075646D01*
X143570646Y-119950147D01*
X143718216Y-119851544D01*
X143882188Y-119783624D01*
X144031488Y-119753927D01*
X144056258Y-119749000D01*
X144233742Y-119749000D01*
X144258512Y-119753927D01*
G37*
G36*
X146798512Y-119753927D02*
G01*
X146947812Y-119783624D01*
X147111784Y-119851544D01*
X147259354Y-119950147D01*
X147384853Y-120075646D01*
X147483456Y-120223216D01*
X147551376Y-120387188D01*
X147586000Y-120561259D01*
X147586000Y-120738741D01*
X147551376Y-120912812D01*
X147483456Y-121076784D01*
X147384853Y-121224354D01*
X147259354Y-121349853D01*
X147111784Y-121448456D01*
X146947812Y-121516376D01*
X146798512Y-121546073D01*
X146773742Y-121551000D01*
X146596258Y-121551000D01*
X146571488Y-121546073D01*
X146422188Y-121516376D01*
X146258216Y-121448456D01*
X146110646Y-121349853D01*
X145985147Y-121224354D01*
X145886544Y-121076784D01*
X145818624Y-120912812D01*
X145784000Y-120738741D01*
X145784000Y-120561259D01*
X145818624Y-120387188D01*
X145886544Y-120223216D01*
X145985147Y-120075646D01*
X146110646Y-119950147D01*
X146258216Y-119851544D01*
X146422188Y-119783624D01*
X146571488Y-119753927D01*
X146596258Y-119749000D01*
X146773742Y-119749000D01*
X146798512Y-119753927D01*
G37*
G36*
X149338512Y-119753927D02*
G01*
X149487812Y-119783624D01*
X149651784Y-119851544D01*
X149799354Y-119950147D01*
X149924853Y-120075646D01*
X150023456Y-120223216D01*
X150091376Y-120387188D01*
X150126000Y-120561259D01*
X150126000Y-120738741D01*
X150091376Y-120912812D01*
X150023456Y-121076784D01*
X149924853Y-121224354D01*
X149799354Y-121349853D01*
X149651784Y-121448456D01*
X149487812Y-121516376D01*
X149338512Y-121546073D01*
X149313742Y-121551000D01*
X149136258Y-121551000D01*
X149111488Y-121546073D01*
X148962188Y-121516376D01*
X148798216Y-121448456D01*
X148650646Y-121349853D01*
X148525147Y-121224354D01*
X148426544Y-121076784D01*
X148358624Y-120912812D01*
X148324000Y-120738741D01*
X148324000Y-120561259D01*
X148358624Y-120387188D01*
X148426544Y-120223216D01*
X148525147Y-120075646D01*
X148650646Y-119950147D01*
X148798216Y-119851544D01*
X148962188Y-119783624D01*
X149111488Y-119753927D01*
X149136258Y-119749000D01*
X149313742Y-119749000D01*
X149338512Y-119753927D01*
G37*
G36*
X125208512Y-119753927D02*
G01*
X125357812Y-119783624D01*
X125521784Y-119851544D01*
X125669354Y-119950147D01*
X125794853Y-120075646D01*
X125893456Y-120223216D01*
X125961376Y-120387188D01*
X125996000Y-120561259D01*
X125996000Y-120738741D01*
X125961376Y-120912812D01*
X125893456Y-121076784D01*
X125794853Y-121224354D01*
X125669354Y-121349853D01*
X125521784Y-121448456D01*
X125357812Y-121516376D01*
X125208512Y-121546073D01*
X125183742Y-121551000D01*
X125006258Y-121551000D01*
X124981488Y-121546073D01*
X124832188Y-121516376D01*
X124668216Y-121448456D01*
X124520646Y-121349853D01*
X124395147Y-121224354D01*
X124296544Y-121076784D01*
X124228624Y-120912812D01*
X124194000Y-120738741D01*
X124194000Y-120561259D01*
X124228624Y-120387188D01*
X124296544Y-120223216D01*
X124395147Y-120075646D01*
X124520646Y-119950147D01*
X124668216Y-119851544D01*
X124832188Y-119783624D01*
X124981488Y-119753927D01*
X125006258Y-119749000D01*
X125183742Y-119749000D01*
X125208512Y-119753927D01*
G37*
G36*
X127748512Y-119753927D02*
G01*
X127897812Y-119783624D01*
X128061784Y-119851544D01*
X128209354Y-119950147D01*
X128334853Y-120075646D01*
X128433456Y-120223216D01*
X128501376Y-120387188D01*
X128536000Y-120561259D01*
X128536000Y-120738741D01*
X128501376Y-120912812D01*
X128433456Y-121076784D01*
X128334853Y-121224354D01*
X128209354Y-121349853D01*
X128061784Y-121448456D01*
X127897812Y-121516376D01*
X127748512Y-121546073D01*
X127723742Y-121551000D01*
X127546258Y-121551000D01*
X127521488Y-121546073D01*
X127372188Y-121516376D01*
X127208216Y-121448456D01*
X127060646Y-121349853D01*
X126935147Y-121224354D01*
X126836544Y-121076784D01*
X126768624Y-120912812D01*
X126734000Y-120738741D01*
X126734000Y-120561259D01*
X126768624Y-120387188D01*
X126836544Y-120223216D01*
X126935147Y-120075646D01*
X127060646Y-119950147D01*
X127208216Y-119851544D01*
X127372188Y-119783624D01*
X127521488Y-119753927D01*
X127546258Y-119749000D01*
X127723742Y-119749000D01*
X127748512Y-119753927D01*
G37*
G36*
X130288512Y-119753927D02*
G01*
X130437812Y-119783624D01*
X130601784Y-119851544D01*
X130749354Y-119950147D01*
X130874853Y-120075646D01*
X130973456Y-120223216D01*
X131041376Y-120387188D01*
X131076000Y-120561259D01*
X131076000Y-120738741D01*
X131041376Y-120912812D01*
X130973456Y-121076784D01*
X130874853Y-121224354D01*
X130749354Y-121349853D01*
X130601784Y-121448456D01*
X130437812Y-121516376D01*
X130288512Y-121546073D01*
X130263742Y-121551000D01*
X130086258Y-121551000D01*
X130061488Y-121546073D01*
X129912188Y-121516376D01*
X129748216Y-121448456D01*
X129600646Y-121349853D01*
X129475147Y-121224354D01*
X129376544Y-121076784D01*
X129308624Y-120912812D01*
X129274000Y-120738741D01*
X129274000Y-120561259D01*
X129308624Y-120387188D01*
X129376544Y-120223216D01*
X129475147Y-120075646D01*
X129600646Y-119950147D01*
X129748216Y-119851544D01*
X129912188Y-119783624D01*
X130061488Y-119753927D01*
X130086258Y-119749000D01*
X130263742Y-119749000D01*
X130288512Y-119753927D01*
G37*
G36*
X151878512Y-119753927D02*
G01*
X152027812Y-119783624D01*
X152191784Y-119851544D01*
X152339354Y-119950147D01*
X152464853Y-120075646D01*
X152563456Y-120223216D01*
X152631376Y-120387188D01*
X152666000Y-120561259D01*
X152666000Y-120738741D01*
X152631376Y-120912812D01*
X152563456Y-121076784D01*
X152464853Y-121224354D01*
X152339354Y-121349853D01*
X152191784Y-121448456D01*
X152027812Y-121516376D01*
X151878512Y-121546073D01*
X151853742Y-121551000D01*
X151676258Y-121551000D01*
X151651488Y-121546073D01*
X151502188Y-121516376D01*
X151338216Y-121448456D01*
X151190646Y-121349853D01*
X151065147Y-121224354D01*
X150966544Y-121076784D01*
X150898624Y-120912812D01*
X150864000Y-120738741D01*
X150864000Y-120561259D01*
X150898624Y-120387188D01*
X150966544Y-120223216D01*
X151065147Y-120075646D01*
X151190646Y-119950147D01*
X151338216Y-119851544D01*
X151502188Y-119783624D01*
X151651488Y-119753927D01*
X151676258Y-119749000D01*
X151853742Y-119749000D01*
X151878512Y-119753927D01*
G37*
G36*
X154418512Y-119753927D02*
G01*
X154567812Y-119783624D01*
X154731784Y-119851544D01*
X154879354Y-119950147D01*
X155004853Y-120075646D01*
X155103456Y-120223216D01*
X155171376Y-120387188D01*
X155206000Y-120561259D01*
X155206000Y-120738741D01*
X155171376Y-120912812D01*
X155103456Y-121076784D01*
X155004853Y-121224354D01*
X154879354Y-121349853D01*
X154731784Y-121448456D01*
X154567812Y-121516376D01*
X154418512Y-121546073D01*
X154393742Y-121551000D01*
X154216258Y-121551000D01*
X154191488Y-121546073D01*
X154042188Y-121516376D01*
X153878216Y-121448456D01*
X153730646Y-121349853D01*
X153605147Y-121224354D01*
X153506544Y-121076784D01*
X153438624Y-120912812D01*
X153404000Y-120738741D01*
X153404000Y-120561259D01*
X153438624Y-120387188D01*
X153506544Y-120223216D01*
X153605147Y-120075646D01*
X153730646Y-119950147D01*
X153878216Y-119851544D01*
X154042188Y-119783624D01*
X154191488Y-119753927D01*
X154216258Y-119749000D01*
X154393742Y-119749000D01*
X154418512Y-119753927D01*
G37*
G36*
X141718512Y-119753927D02*
G01*
X141867812Y-119783624D01*
X142031784Y-119851544D01*
X142179354Y-119950147D01*
X142304853Y-120075646D01*
X142403456Y-120223216D01*
X142471376Y-120387188D01*
X142506000Y-120561259D01*
X142506000Y-120738741D01*
X142471376Y-120912812D01*
X142403456Y-121076784D01*
X142304853Y-121224354D01*
X142179354Y-121349853D01*
X142031784Y-121448456D01*
X141867812Y-121516376D01*
X141718512Y-121546073D01*
X141693742Y-121551000D01*
X141516258Y-121551000D01*
X141491488Y-121546073D01*
X141342188Y-121516376D01*
X141178216Y-121448456D01*
X141030646Y-121349853D01*
X140905147Y-121224354D01*
X140806544Y-121076784D01*
X140738624Y-120912812D01*
X140704000Y-120738741D01*
X140704000Y-120561259D01*
X140738624Y-120387188D01*
X140806544Y-120223216D01*
X140905147Y-120075646D01*
X141030646Y-119950147D01*
X141178216Y-119851544D01*
X141342188Y-119783624D01*
X141491488Y-119753927D01*
X141516258Y-119749000D01*
X141693742Y-119749000D01*
X141718512Y-119753927D01*
G37*
G36*
X139178512Y-119753927D02*
G01*
X139327812Y-119783624D01*
X139491784Y-119851544D01*
X139639354Y-119950147D01*
X139764853Y-120075646D01*
X139863456Y-120223216D01*
X139931376Y-120387188D01*
X139966000Y-120561259D01*
X139966000Y-120738741D01*
X139931376Y-120912812D01*
X139863456Y-121076784D01*
X139764853Y-121224354D01*
X139639354Y-121349853D01*
X139491784Y-121448456D01*
X139327812Y-121516376D01*
X139178512Y-121546073D01*
X139153742Y-121551000D01*
X138976258Y-121551000D01*
X138951488Y-121546073D01*
X138802188Y-121516376D01*
X138638216Y-121448456D01*
X138490646Y-121349853D01*
X138365147Y-121224354D01*
X138266544Y-121076784D01*
X138198624Y-120912812D01*
X138164000Y-120738741D01*
X138164000Y-120561259D01*
X138198624Y-120387188D01*
X138266544Y-120223216D01*
X138365147Y-120075646D01*
X138490646Y-119950147D01*
X138638216Y-119851544D01*
X138802188Y-119783624D01*
X138951488Y-119753927D01*
X138976258Y-119749000D01*
X139153742Y-119749000D01*
X139178512Y-119753927D01*
G37*
G36*
X116318512Y-119753927D02*
G01*
X116467812Y-119783624D01*
X116631784Y-119851544D01*
X116779354Y-119950147D01*
X116904853Y-120075646D01*
X117003456Y-120223216D01*
X117071376Y-120387188D01*
X117106000Y-120561259D01*
X117106000Y-120738741D01*
X117071376Y-120912812D01*
X117003456Y-121076784D01*
X116904853Y-121224354D01*
X116779354Y-121349853D01*
X116631784Y-121448456D01*
X116467812Y-121516376D01*
X116318512Y-121546073D01*
X116293742Y-121551000D01*
X116116258Y-121551000D01*
X116091488Y-121546073D01*
X115942188Y-121516376D01*
X115778216Y-121448456D01*
X115630646Y-121349853D01*
X115505147Y-121224354D01*
X115406544Y-121076784D01*
X115338624Y-120912812D01*
X115304000Y-120738741D01*
X115304000Y-120561259D01*
X115338624Y-120387188D01*
X115406544Y-120223216D01*
X115505147Y-120075646D01*
X115630646Y-119950147D01*
X115778216Y-119851544D01*
X115942188Y-119783624D01*
X116091488Y-119753927D01*
X116116258Y-119749000D01*
X116293742Y-119749000D01*
X116318512Y-119753927D01*
G37*
G36*
X118858512Y-119753927D02*
G01*
X119007812Y-119783624D01*
X119171784Y-119851544D01*
X119319354Y-119950147D01*
X119444853Y-120075646D01*
X119543456Y-120223216D01*
X119611376Y-120387188D01*
X119646000Y-120561259D01*
X119646000Y-120738741D01*
X119611376Y-120912812D01*
X119543456Y-121076784D01*
X119444853Y-121224354D01*
X119319354Y-121349853D01*
X119171784Y-121448456D01*
X119007812Y-121516376D01*
X118858512Y-121546073D01*
X118833742Y-121551000D01*
X118656258Y-121551000D01*
X118631488Y-121546073D01*
X118482188Y-121516376D01*
X118318216Y-121448456D01*
X118170646Y-121349853D01*
X118045147Y-121224354D01*
X117946544Y-121076784D01*
X117878624Y-120912812D01*
X117844000Y-120738741D01*
X117844000Y-120561259D01*
X117878624Y-120387188D01*
X117946544Y-120223216D01*
X118045147Y-120075646D01*
X118170646Y-119950147D01*
X118318216Y-119851544D01*
X118482188Y-119783624D01*
X118631488Y-119753927D01*
X118656258Y-119749000D01*
X118833742Y-119749000D01*
X118858512Y-119753927D01*
G37*
G36*
X87108512Y-119753927D02*
G01*
X87257812Y-119783624D01*
X87421784Y-119851544D01*
X87569354Y-119950147D01*
X87694853Y-120075646D01*
X87793456Y-120223216D01*
X87861376Y-120387188D01*
X87896000Y-120561259D01*
X87896000Y-120738741D01*
X87861376Y-120912812D01*
X87793456Y-121076784D01*
X87694853Y-121224354D01*
X87569354Y-121349853D01*
X87421784Y-121448456D01*
X87257812Y-121516376D01*
X87108512Y-121546073D01*
X87083742Y-121551000D01*
X86906258Y-121551000D01*
X86881488Y-121546073D01*
X86732188Y-121516376D01*
X86568216Y-121448456D01*
X86420646Y-121349853D01*
X86295147Y-121224354D01*
X86196544Y-121076784D01*
X86128624Y-120912812D01*
X86094000Y-120738741D01*
X86094000Y-120561259D01*
X86128624Y-120387188D01*
X86196544Y-120223216D01*
X86295147Y-120075646D01*
X86420646Y-119950147D01*
X86568216Y-119851544D01*
X86732188Y-119783624D01*
X86881488Y-119753927D01*
X86906258Y-119749000D01*
X87083742Y-119749000D01*
X87108512Y-119753927D01*
G37*
G36*
X84568512Y-119753927D02*
G01*
X84717812Y-119783624D01*
X84881784Y-119851544D01*
X85029354Y-119950147D01*
X85154853Y-120075646D01*
X85253456Y-120223216D01*
X85321376Y-120387188D01*
X85356000Y-120561259D01*
X85356000Y-120738741D01*
X85321376Y-120912812D01*
X85253456Y-121076784D01*
X85154853Y-121224354D01*
X85029354Y-121349853D01*
X84881784Y-121448456D01*
X84717812Y-121516376D01*
X84568512Y-121546073D01*
X84543742Y-121551000D01*
X84366258Y-121551000D01*
X84341488Y-121546073D01*
X84192188Y-121516376D01*
X84028216Y-121448456D01*
X83880646Y-121349853D01*
X83755147Y-121224354D01*
X83656544Y-121076784D01*
X83588624Y-120912812D01*
X83554000Y-120738741D01*
X83554000Y-120561259D01*
X83588624Y-120387188D01*
X83656544Y-120223216D01*
X83755147Y-120075646D01*
X83880646Y-119950147D01*
X84028216Y-119851544D01*
X84192188Y-119783624D01*
X84341488Y-119753927D01*
X84366258Y-119749000D01*
X84543742Y-119749000D01*
X84568512Y-119753927D01*
G37*
G36*
X89648512Y-119753927D02*
G01*
X89797812Y-119783624D01*
X89961784Y-119851544D01*
X90109354Y-119950147D01*
X90234853Y-120075646D01*
X90333456Y-120223216D01*
X90401376Y-120387188D01*
X90436000Y-120561259D01*
X90436000Y-120738741D01*
X90401376Y-120912812D01*
X90333456Y-121076784D01*
X90234853Y-121224354D01*
X90109354Y-121349853D01*
X89961784Y-121448456D01*
X89797812Y-121516376D01*
X89648512Y-121546073D01*
X89623742Y-121551000D01*
X89446258Y-121551000D01*
X89421488Y-121546073D01*
X89272188Y-121516376D01*
X89108216Y-121448456D01*
X88960646Y-121349853D01*
X88835147Y-121224354D01*
X88736544Y-121076784D01*
X88668624Y-120912812D01*
X88634000Y-120738741D01*
X88634000Y-120561259D01*
X88668624Y-120387188D01*
X88736544Y-120223216D01*
X88835147Y-120075646D01*
X88960646Y-119950147D01*
X89108216Y-119851544D01*
X89272188Y-119783624D01*
X89421488Y-119753927D01*
X89446258Y-119749000D01*
X89623742Y-119749000D01*
X89648512Y-119753927D01*
G37*
G36*
X92188512Y-119753927D02*
G01*
X92337812Y-119783624D01*
X92501784Y-119851544D01*
X92649354Y-119950147D01*
X92774853Y-120075646D01*
X92873456Y-120223216D01*
X92941376Y-120387188D01*
X92976000Y-120561259D01*
X92976000Y-120738741D01*
X92941376Y-120912812D01*
X92873456Y-121076784D01*
X92774853Y-121224354D01*
X92649354Y-121349853D01*
X92501784Y-121448456D01*
X92337812Y-121516376D01*
X92188512Y-121546073D01*
X92163742Y-121551000D01*
X91986258Y-121551000D01*
X91961488Y-121546073D01*
X91812188Y-121516376D01*
X91648216Y-121448456D01*
X91500646Y-121349853D01*
X91375147Y-121224354D01*
X91276544Y-121076784D01*
X91208624Y-120912812D01*
X91174000Y-120738741D01*
X91174000Y-120561259D01*
X91208624Y-120387188D01*
X91276544Y-120223216D01*
X91375147Y-120075646D01*
X91500646Y-119950147D01*
X91648216Y-119851544D01*
X91812188Y-119783624D01*
X91961488Y-119753927D01*
X91986258Y-119749000D01*
X92163742Y-119749000D01*
X92188512Y-119753927D01*
G37*
G36*
X97268512Y-119753927D02*
G01*
X97417812Y-119783624D01*
X97581784Y-119851544D01*
X97729354Y-119950147D01*
X97854853Y-120075646D01*
X97953456Y-120223216D01*
X98021376Y-120387188D01*
X98056000Y-120561259D01*
X98056000Y-120738741D01*
X98021376Y-120912812D01*
X97953456Y-121076784D01*
X97854853Y-121224354D01*
X97729354Y-121349853D01*
X97581784Y-121448456D01*
X97417812Y-121516376D01*
X97268512Y-121546073D01*
X97243742Y-121551000D01*
X97066258Y-121551000D01*
X97041488Y-121546073D01*
X96892188Y-121516376D01*
X96728216Y-121448456D01*
X96580646Y-121349853D01*
X96455147Y-121224354D01*
X96356544Y-121076784D01*
X96288624Y-120912812D01*
X96254000Y-120738741D01*
X96254000Y-120561259D01*
X96288624Y-120387188D01*
X96356544Y-120223216D01*
X96455147Y-120075646D01*
X96580646Y-119950147D01*
X96728216Y-119851544D01*
X96892188Y-119783624D01*
X97041488Y-119753927D01*
X97066258Y-119749000D01*
X97243742Y-119749000D01*
X97268512Y-119753927D01*
G37*
G36*
X99808512Y-119753927D02*
G01*
X99957812Y-119783624D01*
X100121784Y-119851544D01*
X100269354Y-119950147D01*
X100394853Y-120075646D01*
X100493456Y-120223216D01*
X100561376Y-120387188D01*
X100596000Y-120561259D01*
X100596000Y-120738741D01*
X100561376Y-120912812D01*
X100493456Y-121076784D01*
X100394853Y-121224354D01*
X100269354Y-121349853D01*
X100121784Y-121448456D01*
X99957812Y-121516376D01*
X99808512Y-121546073D01*
X99783742Y-121551000D01*
X99606258Y-121551000D01*
X99581488Y-121546073D01*
X99432188Y-121516376D01*
X99268216Y-121448456D01*
X99120646Y-121349853D01*
X98995147Y-121224354D01*
X98896544Y-121076784D01*
X98828624Y-120912812D01*
X98794000Y-120738741D01*
X98794000Y-120561259D01*
X98828624Y-120387188D01*
X98896544Y-120223216D01*
X98995147Y-120075646D01*
X99120646Y-119950147D01*
X99268216Y-119851544D01*
X99432188Y-119783624D01*
X99581488Y-119753927D01*
X99606258Y-119749000D01*
X99783742Y-119749000D01*
X99808512Y-119753927D01*
G37*
G36*
X102348512Y-119753927D02*
G01*
X102497812Y-119783624D01*
X102661784Y-119851544D01*
X102809354Y-119950147D01*
X102934853Y-120075646D01*
X103033456Y-120223216D01*
X103101376Y-120387188D01*
X103136000Y-120561259D01*
X103136000Y-120738741D01*
X103101376Y-120912812D01*
X103033456Y-121076784D01*
X102934853Y-121224354D01*
X102809354Y-121349853D01*
X102661784Y-121448456D01*
X102497812Y-121516376D01*
X102348512Y-121546073D01*
X102323742Y-121551000D01*
X102146258Y-121551000D01*
X102121488Y-121546073D01*
X101972188Y-121516376D01*
X101808216Y-121448456D01*
X101660646Y-121349853D01*
X101535147Y-121224354D01*
X101436544Y-121076784D01*
X101368624Y-120912812D01*
X101334000Y-120738741D01*
X101334000Y-120561259D01*
X101368624Y-120387188D01*
X101436544Y-120223216D01*
X101535147Y-120075646D01*
X101660646Y-119950147D01*
X101808216Y-119851544D01*
X101972188Y-119783624D01*
X102121488Y-119753927D01*
X102146258Y-119749000D01*
X102323742Y-119749000D01*
X102348512Y-119753927D01*
G37*
G36*
X113778512Y-119753927D02*
G01*
X113927812Y-119783624D01*
X114091784Y-119851544D01*
X114239354Y-119950147D01*
X114364853Y-120075646D01*
X114463456Y-120223216D01*
X114531376Y-120387188D01*
X114566000Y-120561259D01*
X114566000Y-120738741D01*
X114531376Y-120912812D01*
X114463456Y-121076784D01*
X114364853Y-121224354D01*
X114239354Y-121349853D01*
X114091784Y-121448456D01*
X113927812Y-121516376D01*
X113778512Y-121546073D01*
X113753742Y-121551000D01*
X113576258Y-121551000D01*
X113551488Y-121546073D01*
X113402188Y-121516376D01*
X113238216Y-121448456D01*
X113090646Y-121349853D01*
X112965147Y-121224354D01*
X112866544Y-121076784D01*
X112798624Y-120912812D01*
X112764000Y-120738741D01*
X112764000Y-120561259D01*
X112798624Y-120387188D01*
X112866544Y-120223216D01*
X112965147Y-120075646D01*
X113090646Y-119950147D01*
X113238216Y-119851544D01*
X113402188Y-119783624D01*
X113551488Y-119753927D01*
X113576258Y-119749000D01*
X113753742Y-119749000D01*
X113778512Y-119753927D01*
G37*
G36*
X94728512Y-119753927D02*
G01*
X94877812Y-119783624D01*
X95041784Y-119851544D01*
X95189354Y-119950147D01*
X95314853Y-120075646D01*
X95413456Y-120223216D01*
X95481376Y-120387188D01*
X95516000Y-120561259D01*
X95516000Y-120738741D01*
X95481376Y-120912812D01*
X95413456Y-121076784D01*
X95314853Y-121224354D01*
X95189354Y-121349853D01*
X95041784Y-121448456D01*
X94877812Y-121516376D01*
X94728512Y-121546073D01*
X94703742Y-121551000D01*
X94526258Y-121551000D01*
X94501488Y-121546073D01*
X94352188Y-121516376D01*
X94188216Y-121448456D01*
X94040646Y-121349853D01*
X93915147Y-121224354D01*
X93816544Y-121076784D01*
X93748624Y-120912812D01*
X93714000Y-120738741D01*
X93714000Y-120561259D01*
X93748624Y-120387188D01*
X93816544Y-120223216D01*
X93915147Y-120075646D01*
X94040646Y-119950147D01*
X94188216Y-119851544D01*
X94352188Y-119783624D01*
X94501488Y-119753927D01*
X94526258Y-119749000D01*
X94703742Y-119749000D01*
X94728512Y-119753927D01*
G37*
G36*
X118858512Y-117213927D02*
G01*
X119007812Y-117243624D01*
X119171784Y-117311544D01*
X119319354Y-117410147D01*
X119444853Y-117535646D01*
X119543456Y-117683216D01*
X119611376Y-117847188D01*
X119646000Y-118021259D01*
X119646000Y-118198741D01*
X119611376Y-118372812D01*
X119543456Y-118536784D01*
X119444853Y-118684354D01*
X119319354Y-118809853D01*
X119171784Y-118908456D01*
X119007812Y-118976376D01*
X118858512Y-119006073D01*
X118833742Y-119011000D01*
X118656258Y-119011000D01*
X118631488Y-119006073D01*
X118482188Y-118976376D01*
X118318216Y-118908456D01*
X118170646Y-118809853D01*
X118045147Y-118684354D01*
X117946544Y-118536784D01*
X117878624Y-118372812D01*
X117844000Y-118198741D01*
X117844000Y-118021259D01*
X117878624Y-117847188D01*
X117946544Y-117683216D01*
X118045147Y-117535646D01*
X118170646Y-117410147D01*
X118318216Y-117311544D01*
X118482188Y-117243624D01*
X118631488Y-117213927D01*
X118656258Y-117209000D01*
X118833742Y-117209000D01*
X118858512Y-117213927D01*
G37*
G36*
X146798512Y-117213927D02*
G01*
X146947812Y-117243624D01*
X147111784Y-117311544D01*
X147259354Y-117410147D01*
X147384853Y-117535646D01*
X147483456Y-117683216D01*
X147551376Y-117847188D01*
X147586000Y-118021259D01*
X147586000Y-118198741D01*
X147551376Y-118372812D01*
X147483456Y-118536784D01*
X147384853Y-118684354D01*
X147259354Y-118809853D01*
X147111784Y-118908456D01*
X146947812Y-118976376D01*
X146798512Y-119006073D01*
X146773742Y-119011000D01*
X146596258Y-119011000D01*
X146571488Y-119006073D01*
X146422188Y-118976376D01*
X146258216Y-118908456D01*
X146110646Y-118809853D01*
X145985147Y-118684354D01*
X145886544Y-118536784D01*
X145818624Y-118372812D01*
X145784000Y-118198741D01*
X145784000Y-118021259D01*
X145818624Y-117847188D01*
X145886544Y-117683216D01*
X145985147Y-117535646D01*
X146110646Y-117410147D01*
X146258216Y-117311544D01*
X146422188Y-117243624D01*
X146571488Y-117213927D01*
X146596258Y-117209000D01*
X146773742Y-117209000D01*
X146798512Y-117213927D01*
G37*
G36*
X144258512Y-117213927D02*
G01*
X144407812Y-117243624D01*
X144571784Y-117311544D01*
X144719354Y-117410147D01*
X144844853Y-117535646D01*
X144943456Y-117683216D01*
X145011376Y-117847188D01*
X145046000Y-118021259D01*
X145046000Y-118198741D01*
X145011376Y-118372812D01*
X144943456Y-118536784D01*
X144844853Y-118684354D01*
X144719354Y-118809853D01*
X144571784Y-118908456D01*
X144407812Y-118976376D01*
X144258512Y-119006073D01*
X144233742Y-119011000D01*
X144056258Y-119011000D01*
X144031488Y-119006073D01*
X143882188Y-118976376D01*
X143718216Y-118908456D01*
X143570646Y-118809853D01*
X143445147Y-118684354D01*
X143346544Y-118536784D01*
X143278624Y-118372812D01*
X143244000Y-118198741D01*
X143244000Y-118021259D01*
X143278624Y-117847188D01*
X143346544Y-117683216D01*
X143445147Y-117535646D01*
X143570646Y-117410147D01*
X143718216Y-117311544D01*
X143882188Y-117243624D01*
X144031488Y-117213927D01*
X144056258Y-117209000D01*
X144233742Y-117209000D01*
X144258512Y-117213927D01*
G37*
G36*
X141718512Y-117213927D02*
G01*
X141867812Y-117243624D01*
X142031784Y-117311544D01*
X142179354Y-117410147D01*
X142304853Y-117535646D01*
X142403456Y-117683216D01*
X142471376Y-117847188D01*
X142506000Y-118021259D01*
X142506000Y-118198741D01*
X142471376Y-118372812D01*
X142403456Y-118536784D01*
X142304853Y-118684354D01*
X142179354Y-118809853D01*
X142031784Y-118908456D01*
X141867812Y-118976376D01*
X141718512Y-119006073D01*
X141693742Y-119011000D01*
X141516258Y-119011000D01*
X141491488Y-119006073D01*
X141342188Y-118976376D01*
X141178216Y-118908456D01*
X141030646Y-118809853D01*
X140905147Y-118684354D01*
X140806544Y-118536784D01*
X140738624Y-118372812D01*
X140704000Y-118198741D01*
X140704000Y-118021259D01*
X140738624Y-117847188D01*
X140806544Y-117683216D01*
X140905147Y-117535646D01*
X141030646Y-117410147D01*
X141178216Y-117311544D01*
X141342188Y-117243624D01*
X141491488Y-117213927D01*
X141516258Y-117209000D01*
X141693742Y-117209000D01*
X141718512Y-117213927D01*
G37*
G36*
X139178512Y-117213927D02*
G01*
X139327812Y-117243624D01*
X139491784Y-117311544D01*
X139639354Y-117410147D01*
X139764853Y-117535646D01*
X139863456Y-117683216D01*
X139931376Y-117847188D01*
X139966000Y-118021259D01*
X139966000Y-118198741D01*
X139931376Y-118372812D01*
X139863456Y-118536784D01*
X139764853Y-118684354D01*
X139639354Y-118809853D01*
X139491784Y-118908456D01*
X139327812Y-118976376D01*
X139178512Y-119006073D01*
X139153742Y-119011000D01*
X138976258Y-119011000D01*
X138951488Y-119006073D01*
X138802188Y-118976376D01*
X138638216Y-118908456D01*
X138490646Y-118809853D01*
X138365147Y-118684354D01*
X138266544Y-118536784D01*
X138198624Y-118372812D01*
X138164000Y-118198741D01*
X138164000Y-118021259D01*
X138198624Y-117847188D01*
X138266544Y-117683216D01*
X138365147Y-117535646D01*
X138490646Y-117410147D01*
X138638216Y-117311544D01*
X138802188Y-117243624D01*
X138951488Y-117213927D01*
X138976258Y-117209000D01*
X139153742Y-117209000D01*
X139178512Y-117213927D01*
G37*
G36*
X130288512Y-117213927D02*
G01*
X130437812Y-117243624D01*
X130601784Y-117311544D01*
X130749354Y-117410147D01*
X130874853Y-117535646D01*
X130973456Y-117683216D01*
X131041376Y-117847188D01*
X131076000Y-118021259D01*
X131076000Y-118198741D01*
X131041376Y-118372812D01*
X130973456Y-118536784D01*
X130874853Y-118684354D01*
X130749354Y-118809853D01*
X130601784Y-118908456D01*
X130437812Y-118976376D01*
X130288512Y-119006073D01*
X130263742Y-119011000D01*
X130086258Y-119011000D01*
X130061488Y-119006073D01*
X129912188Y-118976376D01*
X129748216Y-118908456D01*
X129600646Y-118809853D01*
X129475147Y-118684354D01*
X129376544Y-118536784D01*
X129308624Y-118372812D01*
X129274000Y-118198741D01*
X129274000Y-118021259D01*
X129308624Y-117847188D01*
X129376544Y-117683216D01*
X129475147Y-117535646D01*
X129600646Y-117410147D01*
X129748216Y-117311544D01*
X129912188Y-117243624D01*
X130061488Y-117213927D01*
X130086258Y-117209000D01*
X130263742Y-117209000D01*
X130288512Y-117213927D01*
G37*
G36*
X127748512Y-117213927D02*
G01*
X127897812Y-117243624D01*
X128061784Y-117311544D01*
X128209354Y-117410147D01*
X128334853Y-117535646D01*
X128433456Y-117683216D01*
X128501376Y-117847188D01*
X128536000Y-118021259D01*
X128536000Y-118198741D01*
X128501376Y-118372812D01*
X128433456Y-118536784D01*
X128334853Y-118684354D01*
X128209354Y-118809853D01*
X128061784Y-118908456D01*
X127897812Y-118976376D01*
X127748512Y-119006073D01*
X127723742Y-119011000D01*
X127546258Y-119011000D01*
X127521488Y-119006073D01*
X127372188Y-118976376D01*
X127208216Y-118908456D01*
X127060646Y-118809853D01*
X126935147Y-118684354D01*
X126836544Y-118536784D01*
X126768624Y-118372812D01*
X126734000Y-118198741D01*
X126734000Y-118021259D01*
X126768624Y-117847188D01*
X126836544Y-117683216D01*
X126935147Y-117535646D01*
X127060646Y-117410147D01*
X127208216Y-117311544D01*
X127372188Y-117243624D01*
X127521488Y-117213927D01*
X127546258Y-117209000D01*
X127723742Y-117209000D01*
X127748512Y-117213927D01*
G37*
G36*
X125208512Y-117213927D02*
G01*
X125357812Y-117243624D01*
X125521784Y-117311544D01*
X125669354Y-117410147D01*
X125794853Y-117535646D01*
X125893456Y-117683216D01*
X125961376Y-117847188D01*
X125996000Y-118021259D01*
X125996000Y-118198741D01*
X125961376Y-118372812D01*
X125893456Y-118536784D01*
X125794853Y-118684354D01*
X125669354Y-118809853D01*
X125521784Y-118908456D01*
X125357812Y-118976376D01*
X125208512Y-119006073D01*
X125183742Y-119011000D01*
X125006258Y-119011000D01*
X124981488Y-119006073D01*
X124832188Y-118976376D01*
X124668216Y-118908456D01*
X124520646Y-118809853D01*
X124395147Y-118684354D01*
X124296544Y-118536784D01*
X124228624Y-118372812D01*
X124194000Y-118198741D01*
X124194000Y-118021259D01*
X124228624Y-117847188D01*
X124296544Y-117683216D01*
X124395147Y-117535646D01*
X124520646Y-117410147D01*
X124668216Y-117311544D01*
X124832188Y-117243624D01*
X124981488Y-117213927D01*
X125006258Y-117209000D01*
X125183742Y-117209000D01*
X125208512Y-117213927D01*
G37*
G36*
X149338512Y-117213927D02*
G01*
X149487812Y-117243624D01*
X149651784Y-117311544D01*
X149799354Y-117410147D01*
X149924853Y-117535646D01*
X150023456Y-117683216D01*
X150091376Y-117847188D01*
X150126000Y-118021259D01*
X150126000Y-118198741D01*
X150091376Y-118372812D01*
X150023456Y-118536784D01*
X149924853Y-118684354D01*
X149799354Y-118809853D01*
X149651784Y-118908456D01*
X149487812Y-118976376D01*
X149338512Y-119006073D01*
X149313742Y-119011000D01*
X149136258Y-119011000D01*
X149111488Y-119006073D01*
X148962188Y-118976376D01*
X148798216Y-118908456D01*
X148650646Y-118809853D01*
X148525147Y-118684354D01*
X148426544Y-118536784D01*
X148358624Y-118372812D01*
X148324000Y-118198741D01*
X148324000Y-118021259D01*
X148358624Y-117847188D01*
X148426544Y-117683216D01*
X148525147Y-117535646D01*
X148650646Y-117410147D01*
X148798216Y-117311544D01*
X148962188Y-117243624D01*
X149111488Y-117213927D01*
X149136258Y-117209000D01*
X149313742Y-117209000D01*
X149338512Y-117213927D01*
G37*
G36*
X102348512Y-117213927D02*
G01*
X102497812Y-117243624D01*
X102661784Y-117311544D01*
X102809354Y-117410147D01*
X102934853Y-117535646D01*
X103033456Y-117683216D01*
X103101376Y-117847188D01*
X103136000Y-118021259D01*
X103136000Y-118198741D01*
X103101376Y-118372812D01*
X103033456Y-118536784D01*
X102934853Y-118684354D01*
X102809354Y-118809853D01*
X102661784Y-118908456D01*
X102497812Y-118976376D01*
X102348512Y-119006073D01*
X102323742Y-119011000D01*
X102146258Y-119011000D01*
X102121488Y-119006073D01*
X101972188Y-118976376D01*
X101808216Y-118908456D01*
X101660646Y-118809853D01*
X101535147Y-118684354D01*
X101436544Y-118536784D01*
X101368624Y-118372812D01*
X101334000Y-118198741D01*
X101334000Y-118021259D01*
X101368624Y-117847188D01*
X101436544Y-117683216D01*
X101535147Y-117535646D01*
X101660646Y-117410147D01*
X101808216Y-117311544D01*
X101972188Y-117243624D01*
X102121488Y-117213927D01*
X102146258Y-117209000D01*
X102323742Y-117209000D01*
X102348512Y-117213927D01*
G37*
G36*
X97268512Y-117213927D02*
G01*
X97417812Y-117243624D01*
X97581784Y-117311544D01*
X97729354Y-117410147D01*
X97854853Y-117535646D01*
X97953456Y-117683216D01*
X98021376Y-117847188D01*
X98056000Y-118021259D01*
X98056000Y-118198741D01*
X98021376Y-118372812D01*
X97953456Y-118536784D01*
X97854853Y-118684354D01*
X97729354Y-118809853D01*
X97581784Y-118908456D01*
X97417812Y-118976376D01*
X97268512Y-119006073D01*
X97243742Y-119011000D01*
X97066258Y-119011000D01*
X97041488Y-119006073D01*
X96892188Y-118976376D01*
X96728216Y-118908456D01*
X96580646Y-118809853D01*
X96455147Y-118684354D01*
X96356544Y-118536784D01*
X96288624Y-118372812D01*
X96254000Y-118198741D01*
X96254000Y-118021259D01*
X96288624Y-117847188D01*
X96356544Y-117683216D01*
X96455147Y-117535646D01*
X96580646Y-117410147D01*
X96728216Y-117311544D01*
X96892188Y-117243624D01*
X97041488Y-117213927D01*
X97066258Y-117209000D01*
X97243742Y-117209000D01*
X97268512Y-117213927D01*
G37*
G36*
X113778512Y-117213927D02*
G01*
X113927812Y-117243624D01*
X114091784Y-117311544D01*
X114239354Y-117410147D01*
X114364853Y-117535646D01*
X114463456Y-117683216D01*
X114531376Y-117847188D01*
X114566000Y-118021259D01*
X114566000Y-118198741D01*
X114531376Y-118372812D01*
X114463456Y-118536784D01*
X114364853Y-118684354D01*
X114239354Y-118809853D01*
X114091784Y-118908456D01*
X113927812Y-118976376D01*
X113778512Y-119006073D01*
X113753742Y-119011000D01*
X113576258Y-119011000D01*
X113551488Y-119006073D01*
X113402188Y-118976376D01*
X113238216Y-118908456D01*
X113090646Y-118809853D01*
X112965147Y-118684354D01*
X112866544Y-118536784D01*
X112798624Y-118372812D01*
X112764000Y-118198741D01*
X112764000Y-118021259D01*
X112798624Y-117847188D01*
X112866544Y-117683216D01*
X112965147Y-117535646D01*
X113090646Y-117410147D01*
X113238216Y-117311544D01*
X113402188Y-117243624D01*
X113551488Y-117213927D01*
X113576258Y-117209000D01*
X113753742Y-117209000D01*
X113778512Y-117213927D01*
G37*
G36*
X154418512Y-117213927D02*
G01*
X154567812Y-117243624D01*
X154731784Y-117311544D01*
X154879354Y-117410147D01*
X155004853Y-117535646D01*
X155103456Y-117683216D01*
X155171376Y-117847188D01*
X155206000Y-118021259D01*
X155206000Y-118198741D01*
X155171376Y-118372812D01*
X155103456Y-118536784D01*
X155004853Y-118684354D01*
X154879354Y-118809853D01*
X154731784Y-118908456D01*
X154567812Y-118976376D01*
X154418512Y-119006073D01*
X154393742Y-119011000D01*
X154216258Y-119011000D01*
X154191488Y-119006073D01*
X154042188Y-118976376D01*
X153878216Y-118908456D01*
X153730646Y-118809853D01*
X153605147Y-118684354D01*
X153506544Y-118536784D01*
X153438624Y-118372812D01*
X153404000Y-118198741D01*
X153404000Y-118021259D01*
X153438624Y-117847188D01*
X153506544Y-117683216D01*
X153605147Y-117535646D01*
X153730646Y-117410147D01*
X153878216Y-117311544D01*
X154042188Y-117243624D01*
X154191488Y-117213927D01*
X154216258Y-117209000D01*
X154393742Y-117209000D01*
X154418512Y-117213927D01*
G37*
G36*
X151878512Y-117213927D02*
G01*
X152027812Y-117243624D01*
X152191784Y-117311544D01*
X152339354Y-117410147D01*
X152464853Y-117535646D01*
X152563456Y-117683216D01*
X152631376Y-117847188D01*
X152666000Y-118021259D01*
X152666000Y-118198741D01*
X152631376Y-118372812D01*
X152563456Y-118536784D01*
X152464853Y-118684354D01*
X152339354Y-118809853D01*
X152191784Y-118908456D01*
X152027812Y-118976376D01*
X151878512Y-119006073D01*
X151853742Y-119011000D01*
X151676258Y-119011000D01*
X151651488Y-119006073D01*
X151502188Y-118976376D01*
X151338216Y-118908456D01*
X151190646Y-118809853D01*
X151065147Y-118684354D01*
X150966544Y-118536784D01*
X150898624Y-118372812D01*
X150864000Y-118198741D01*
X150864000Y-118021259D01*
X150898624Y-117847188D01*
X150966544Y-117683216D01*
X151065147Y-117535646D01*
X151190646Y-117410147D01*
X151338216Y-117311544D01*
X151502188Y-117243624D01*
X151651488Y-117213927D01*
X151676258Y-117209000D01*
X151853742Y-117209000D01*
X151878512Y-117213927D01*
G37*
G36*
X116318512Y-117213927D02*
G01*
X116467812Y-117243624D01*
X116631784Y-117311544D01*
X116779354Y-117410147D01*
X116904853Y-117535646D01*
X117003456Y-117683216D01*
X117071376Y-117847188D01*
X117106000Y-118021259D01*
X117106000Y-118198741D01*
X117071376Y-118372812D01*
X117003456Y-118536784D01*
X116904853Y-118684354D01*
X116779354Y-118809853D01*
X116631784Y-118908456D01*
X116467812Y-118976376D01*
X116318512Y-119006073D01*
X116293742Y-119011000D01*
X116116258Y-119011000D01*
X116091488Y-119006073D01*
X115942188Y-118976376D01*
X115778216Y-118908456D01*
X115630646Y-118809853D01*
X115505147Y-118684354D01*
X115406544Y-118536784D01*
X115338624Y-118372812D01*
X115304000Y-118198741D01*
X115304000Y-118021259D01*
X115338624Y-117847188D01*
X115406544Y-117683216D01*
X115505147Y-117535646D01*
X115630646Y-117410147D01*
X115778216Y-117311544D01*
X115942188Y-117243624D01*
X116091488Y-117213927D01*
X116116258Y-117209000D01*
X116293742Y-117209000D01*
X116318512Y-117213927D01*
G37*
G36*
X84568512Y-117213927D02*
G01*
X84717812Y-117243624D01*
X84881784Y-117311544D01*
X85029354Y-117410147D01*
X85154853Y-117535646D01*
X85253456Y-117683216D01*
X85321376Y-117847188D01*
X85356000Y-118021259D01*
X85356000Y-118198741D01*
X85321376Y-118372812D01*
X85253456Y-118536784D01*
X85154853Y-118684354D01*
X85029354Y-118809853D01*
X84881784Y-118908456D01*
X84717812Y-118976376D01*
X84568512Y-119006073D01*
X84543742Y-119011000D01*
X84366258Y-119011000D01*
X84341488Y-119006073D01*
X84192188Y-118976376D01*
X84028216Y-118908456D01*
X83880646Y-118809853D01*
X83755147Y-118684354D01*
X83656544Y-118536784D01*
X83588624Y-118372812D01*
X83554000Y-118198741D01*
X83554000Y-118021259D01*
X83588624Y-117847188D01*
X83656544Y-117683216D01*
X83755147Y-117535646D01*
X83880646Y-117410147D01*
X84028216Y-117311544D01*
X84192188Y-117243624D01*
X84341488Y-117213927D01*
X84366258Y-117209000D01*
X84543742Y-117209000D01*
X84568512Y-117213927D01*
G37*
G36*
X87108512Y-117213927D02*
G01*
X87257812Y-117243624D01*
X87421784Y-117311544D01*
X87569354Y-117410147D01*
X87694853Y-117535646D01*
X87793456Y-117683216D01*
X87861376Y-117847188D01*
X87896000Y-118021259D01*
X87896000Y-118198741D01*
X87861376Y-118372812D01*
X87793456Y-118536784D01*
X87694853Y-118684354D01*
X87569354Y-118809853D01*
X87421784Y-118908456D01*
X87257812Y-118976376D01*
X87108512Y-119006073D01*
X87083742Y-119011000D01*
X86906258Y-119011000D01*
X86881488Y-119006073D01*
X86732188Y-118976376D01*
X86568216Y-118908456D01*
X86420646Y-118809853D01*
X86295147Y-118684354D01*
X86196544Y-118536784D01*
X86128624Y-118372812D01*
X86094000Y-118198741D01*
X86094000Y-118021259D01*
X86128624Y-117847188D01*
X86196544Y-117683216D01*
X86295147Y-117535646D01*
X86420646Y-117410147D01*
X86568216Y-117311544D01*
X86732188Y-117243624D01*
X86881488Y-117213927D01*
X86906258Y-117209000D01*
X87083742Y-117209000D01*
X87108512Y-117213927D01*
G37*
G36*
X89648512Y-117213927D02*
G01*
X89797812Y-117243624D01*
X89961784Y-117311544D01*
X90109354Y-117410147D01*
X90234853Y-117535646D01*
X90333456Y-117683216D01*
X90401376Y-117847188D01*
X90436000Y-118021259D01*
X90436000Y-118198741D01*
X90401376Y-118372812D01*
X90333456Y-118536784D01*
X90234853Y-118684354D01*
X90109354Y-118809853D01*
X89961784Y-118908456D01*
X89797812Y-118976376D01*
X89648512Y-119006073D01*
X89623742Y-119011000D01*
X89446258Y-119011000D01*
X89421488Y-119006073D01*
X89272188Y-118976376D01*
X89108216Y-118908456D01*
X88960646Y-118809853D01*
X88835147Y-118684354D01*
X88736544Y-118536784D01*
X88668624Y-118372812D01*
X88634000Y-118198741D01*
X88634000Y-118021259D01*
X88668624Y-117847188D01*
X88736544Y-117683216D01*
X88835147Y-117535646D01*
X88960646Y-117410147D01*
X89108216Y-117311544D01*
X89272188Y-117243624D01*
X89421488Y-117213927D01*
X89446258Y-117209000D01*
X89623742Y-117209000D01*
X89648512Y-117213927D01*
G37*
G36*
X92188512Y-117213927D02*
G01*
X92337812Y-117243624D01*
X92501784Y-117311544D01*
X92649354Y-117410147D01*
X92774853Y-117535646D01*
X92873456Y-117683216D01*
X92941376Y-117847188D01*
X92976000Y-118021259D01*
X92976000Y-118198741D01*
X92941376Y-118372812D01*
X92873456Y-118536784D01*
X92774853Y-118684354D01*
X92649354Y-118809853D01*
X92501784Y-118908456D01*
X92337812Y-118976376D01*
X92188512Y-119006073D01*
X92163742Y-119011000D01*
X91986258Y-119011000D01*
X91961488Y-119006073D01*
X91812188Y-118976376D01*
X91648216Y-118908456D01*
X91500646Y-118809853D01*
X91375147Y-118684354D01*
X91276544Y-118536784D01*
X91208624Y-118372812D01*
X91174000Y-118198741D01*
X91174000Y-118021259D01*
X91208624Y-117847188D01*
X91276544Y-117683216D01*
X91375147Y-117535646D01*
X91500646Y-117410147D01*
X91648216Y-117311544D01*
X91812188Y-117243624D01*
X91961488Y-117213927D01*
X91986258Y-117209000D01*
X92163742Y-117209000D01*
X92188512Y-117213927D01*
G37*
G36*
X94728512Y-117213927D02*
G01*
X94877812Y-117243624D01*
X95041784Y-117311544D01*
X95189354Y-117410147D01*
X95314853Y-117535646D01*
X95413456Y-117683216D01*
X95481376Y-117847188D01*
X95516000Y-118021259D01*
X95516000Y-118198741D01*
X95481376Y-118372812D01*
X95413456Y-118536784D01*
X95314853Y-118684354D01*
X95189354Y-118809853D01*
X95041784Y-118908456D01*
X94877812Y-118976376D01*
X94728512Y-119006073D01*
X94703742Y-119011000D01*
X94526258Y-119011000D01*
X94501488Y-119006073D01*
X94352188Y-118976376D01*
X94188216Y-118908456D01*
X94040646Y-118809853D01*
X93915147Y-118684354D01*
X93816544Y-118536784D01*
X93748624Y-118372812D01*
X93714000Y-118198741D01*
X93714000Y-118021259D01*
X93748624Y-117847188D01*
X93816544Y-117683216D01*
X93915147Y-117535646D01*
X94040646Y-117410147D01*
X94188216Y-117311544D01*
X94352188Y-117243624D01*
X94501488Y-117213927D01*
X94526258Y-117209000D01*
X94703742Y-117209000D01*
X94728512Y-117213927D01*
G37*
G36*
X99808512Y-117213927D02*
G01*
X99957812Y-117243624D01*
X100121784Y-117311544D01*
X100269354Y-117410147D01*
X100394853Y-117535646D01*
X100493456Y-117683216D01*
X100561376Y-117847188D01*
X100596000Y-118021259D01*
X100596000Y-118198741D01*
X100561376Y-118372812D01*
X100493456Y-118536784D01*
X100394853Y-118684354D01*
X100269354Y-118809853D01*
X100121784Y-118908456D01*
X99957812Y-118976376D01*
X99808512Y-119006073D01*
X99783742Y-119011000D01*
X99606258Y-119011000D01*
X99581488Y-119006073D01*
X99432188Y-118976376D01*
X99268216Y-118908456D01*
X99120646Y-118809853D01*
X98995147Y-118684354D01*
X98896544Y-118536784D01*
X98828624Y-118372812D01*
X98794000Y-118198741D01*
X98794000Y-118021259D01*
X98828624Y-117847188D01*
X98896544Y-117683216D01*
X98995147Y-117535646D01*
X99120646Y-117410147D01*
X99268216Y-117311544D01*
X99432188Y-117243624D01*
X99581488Y-117213927D01*
X99606258Y-117209000D01*
X99783742Y-117209000D01*
X99808512Y-117213927D01*
G37*
G36*
X77583512Y-93718927D02*
G01*
X77732812Y-93748624D01*
X77896784Y-93816544D01*
X78044354Y-93915147D01*
X78169853Y-94040646D01*
X78268456Y-94188216D01*
X78336376Y-94352188D01*
X78371000Y-94526259D01*
X78371000Y-94703741D01*
X78336376Y-94877812D01*
X78268456Y-95041784D01*
X78169853Y-95189354D01*
X78044354Y-95314853D01*
X77896784Y-95413456D01*
X77732812Y-95481376D01*
X77583512Y-95511073D01*
X77558742Y-95516000D01*
X77381258Y-95516000D01*
X77356488Y-95511073D01*
X77207188Y-95481376D01*
X77043216Y-95413456D01*
X76895646Y-95314853D01*
X76770147Y-95189354D01*
X76671544Y-95041784D01*
X76603624Y-94877812D01*
X76569000Y-94703741D01*
X76569000Y-94526259D01*
X76603624Y-94352188D01*
X76671544Y-94188216D01*
X76770147Y-94040646D01*
X76895646Y-93915147D01*
X77043216Y-93816544D01*
X77207188Y-93748624D01*
X77356488Y-93718927D01*
X77381258Y-93714000D01*
X77558742Y-93714000D01*
X77583512Y-93718927D01*
G37*
G36*
X80123512Y-93718927D02*
G01*
X80272812Y-93748624D01*
X80436784Y-93816544D01*
X80584354Y-93915147D01*
X80709853Y-94040646D01*
X80808456Y-94188216D01*
X80876376Y-94352188D01*
X80911000Y-94526259D01*
X80911000Y-94703741D01*
X80876376Y-94877812D01*
X80808456Y-95041784D01*
X80709853Y-95189354D01*
X80584354Y-95314853D01*
X80436784Y-95413456D01*
X80272812Y-95481376D01*
X80123512Y-95511073D01*
X80098742Y-95516000D01*
X79921258Y-95516000D01*
X79896488Y-95511073D01*
X79747188Y-95481376D01*
X79583216Y-95413456D01*
X79435646Y-95314853D01*
X79310147Y-95189354D01*
X79211544Y-95041784D01*
X79143624Y-94877812D01*
X79109000Y-94703741D01*
X79109000Y-94526259D01*
X79143624Y-94352188D01*
X79211544Y-94188216D01*
X79310147Y-94040646D01*
X79435646Y-93915147D01*
X79583216Y-93816544D01*
X79747188Y-93748624D01*
X79896488Y-93718927D01*
X79921258Y-93714000D01*
X80098742Y-93714000D01*
X80123512Y-93718927D01*
G37*
G36*
X170293512Y-92448927D02*
G01*
X170442812Y-92478624D01*
X170606784Y-92546544D01*
X170754354Y-92645147D01*
X170879853Y-92770646D01*
X170978456Y-92918216D01*
X171046376Y-93082188D01*
X171081000Y-93256259D01*
X171081000Y-93433741D01*
X171046376Y-93607812D01*
X170978456Y-93771784D01*
X170879853Y-93919354D01*
X170754354Y-94044853D01*
X170606784Y-94143456D01*
X170442812Y-94211376D01*
X170293512Y-94241073D01*
X170268742Y-94246000D01*
X170091258Y-94246000D01*
X170066488Y-94241073D01*
X169917188Y-94211376D01*
X169753216Y-94143456D01*
X169605646Y-94044853D01*
X169480147Y-93919354D01*
X169381544Y-93771784D01*
X169313624Y-93607812D01*
X169279000Y-93433741D01*
X169279000Y-93256259D01*
X169313624Y-93082188D01*
X169381544Y-92918216D01*
X169480147Y-92770646D01*
X169605646Y-92645147D01*
X169753216Y-92546544D01*
X169917188Y-92478624D01*
X170066488Y-92448927D01*
X170091258Y-92444000D01*
X170268742Y-92444000D01*
X170293512Y-92448927D01*
G37*
G36*
X80123512Y-91178927D02*
G01*
X80272812Y-91208624D01*
X80436784Y-91276544D01*
X80584354Y-91375147D01*
X80709853Y-91500646D01*
X80808456Y-91648216D01*
X80876376Y-91812188D01*
X80911000Y-91986259D01*
X80911000Y-92163741D01*
X80876376Y-92337812D01*
X80808456Y-92501784D01*
X80709853Y-92649354D01*
X80584354Y-92774853D01*
X80436784Y-92873456D01*
X80272812Y-92941376D01*
X80123512Y-92971073D01*
X80098742Y-92976000D01*
X79921258Y-92976000D01*
X79896488Y-92971073D01*
X79747188Y-92941376D01*
X79583216Y-92873456D01*
X79435646Y-92774853D01*
X79310147Y-92649354D01*
X79211544Y-92501784D01*
X79143624Y-92337812D01*
X79109000Y-92163741D01*
X79109000Y-91986259D01*
X79143624Y-91812188D01*
X79211544Y-91648216D01*
X79310147Y-91500646D01*
X79435646Y-91375147D01*
X79583216Y-91276544D01*
X79747188Y-91208624D01*
X79896488Y-91178927D01*
X79921258Y-91174000D01*
X80098742Y-91174000D01*
X80123512Y-91178927D01*
G37*
G36*
X77583512Y-91178927D02*
G01*
X77732812Y-91208624D01*
X77896784Y-91276544D01*
X78044354Y-91375147D01*
X78169853Y-91500646D01*
X78268456Y-91648216D01*
X78336376Y-91812188D01*
X78371000Y-91986259D01*
X78371000Y-92163741D01*
X78336376Y-92337812D01*
X78268456Y-92501784D01*
X78169853Y-92649354D01*
X78044354Y-92774853D01*
X77896784Y-92873456D01*
X77732812Y-92941376D01*
X77583512Y-92971073D01*
X77558742Y-92976000D01*
X77381258Y-92976000D01*
X77356488Y-92971073D01*
X77207188Y-92941376D01*
X77043216Y-92873456D01*
X76895646Y-92774853D01*
X76770147Y-92649354D01*
X76671544Y-92501784D01*
X76603624Y-92337812D01*
X76569000Y-92163741D01*
X76569000Y-91986259D01*
X76603624Y-91812188D01*
X76671544Y-91648216D01*
X76770147Y-91500646D01*
X76895646Y-91375147D01*
X77043216Y-91276544D01*
X77207188Y-91208624D01*
X77356488Y-91178927D01*
X77381258Y-91174000D01*
X77558742Y-91174000D01*
X77583512Y-91178927D01*
G37*
G36*
X170293512Y-89908927D02*
G01*
X170442812Y-89938624D01*
X170606784Y-90006544D01*
X170754354Y-90105147D01*
X170879853Y-90230646D01*
X170978456Y-90378216D01*
X171046376Y-90542188D01*
X171081000Y-90716259D01*
X171081000Y-90893741D01*
X171046376Y-91067812D01*
X170978456Y-91231784D01*
X170879853Y-91379354D01*
X170754354Y-91504853D01*
X170606784Y-91603456D01*
X170442812Y-91671376D01*
X170293512Y-91701073D01*
X170268742Y-91706000D01*
X170091258Y-91706000D01*
X170066488Y-91701073D01*
X169917188Y-91671376D01*
X169753216Y-91603456D01*
X169605646Y-91504853D01*
X169480147Y-91379354D01*
X169381544Y-91231784D01*
X169313624Y-91067812D01*
X169279000Y-90893741D01*
X169279000Y-90716259D01*
X169313624Y-90542188D01*
X169381544Y-90378216D01*
X169480147Y-90230646D01*
X169605646Y-90105147D01*
X169753216Y-90006544D01*
X169917188Y-89938624D01*
X170066488Y-89908927D01*
X170091258Y-89904000D01*
X170268742Y-89904000D01*
X170293512Y-89908927D01*
G37*
G36*
X77583512Y-88638927D02*
G01*
X77732812Y-88668624D01*
X77896784Y-88736544D01*
X78044354Y-88835147D01*
X78169853Y-88960646D01*
X78268456Y-89108216D01*
X78336376Y-89272188D01*
X78371000Y-89446259D01*
X78371000Y-89623741D01*
X78336376Y-89797812D01*
X78268456Y-89961784D01*
X78169853Y-90109354D01*
X78044354Y-90234853D01*
X77896784Y-90333456D01*
X77732812Y-90401376D01*
X77583512Y-90431073D01*
X77558742Y-90436000D01*
X77381258Y-90436000D01*
X77356488Y-90431073D01*
X77207188Y-90401376D01*
X77043216Y-90333456D01*
X76895646Y-90234853D01*
X76770147Y-90109354D01*
X76671544Y-89961784D01*
X76603624Y-89797812D01*
X76569000Y-89623741D01*
X76569000Y-89446259D01*
X76603624Y-89272188D01*
X76671544Y-89108216D01*
X76770147Y-88960646D01*
X76895646Y-88835147D01*
X77043216Y-88736544D01*
X77207188Y-88668624D01*
X77356488Y-88638927D01*
X77381258Y-88634000D01*
X77558742Y-88634000D01*
X77583512Y-88638927D01*
G37*
G36*
X80123512Y-88638927D02*
G01*
X80272812Y-88668624D01*
X80436784Y-88736544D01*
X80584354Y-88835147D01*
X80709853Y-88960646D01*
X80808456Y-89108216D01*
X80876376Y-89272188D01*
X80911000Y-89446259D01*
X80911000Y-89623741D01*
X80876376Y-89797812D01*
X80808456Y-89961784D01*
X80709853Y-90109354D01*
X80584354Y-90234853D01*
X80436784Y-90333456D01*
X80272812Y-90401376D01*
X80123512Y-90431073D01*
X80098742Y-90436000D01*
X79921258Y-90436000D01*
X79896488Y-90431073D01*
X79747188Y-90401376D01*
X79583216Y-90333456D01*
X79435646Y-90234853D01*
X79310147Y-90109354D01*
X79211544Y-89961784D01*
X79143624Y-89797812D01*
X79109000Y-89623741D01*
X79109000Y-89446259D01*
X79143624Y-89272188D01*
X79211544Y-89108216D01*
X79310147Y-88960646D01*
X79435646Y-88835147D01*
X79583216Y-88736544D01*
X79747188Y-88668624D01*
X79896488Y-88638927D01*
X79921258Y-88634000D01*
X80098742Y-88634000D01*
X80123512Y-88638927D01*
G37*
G36*
X170293512Y-87368927D02*
G01*
X170442812Y-87398624D01*
X170606784Y-87466544D01*
X170754354Y-87565147D01*
X170879853Y-87690646D01*
X170978456Y-87838216D01*
X171046376Y-88002188D01*
X171081000Y-88176259D01*
X171081000Y-88353741D01*
X171046376Y-88527812D01*
X170978456Y-88691784D01*
X170879853Y-88839354D01*
X170754354Y-88964853D01*
X170606784Y-89063456D01*
X170442812Y-89131376D01*
X170293512Y-89161073D01*
X170268742Y-89166000D01*
X170091258Y-89166000D01*
X170066488Y-89161073D01*
X169917188Y-89131376D01*
X169753216Y-89063456D01*
X169605646Y-88964853D01*
X169480147Y-88839354D01*
X169381544Y-88691784D01*
X169313624Y-88527812D01*
X169279000Y-88353741D01*
X169279000Y-88176259D01*
X169313624Y-88002188D01*
X169381544Y-87838216D01*
X169480147Y-87690646D01*
X169605646Y-87565147D01*
X169753216Y-87466544D01*
X169917188Y-87398624D01*
X170066488Y-87368927D01*
X170091258Y-87364000D01*
X170268742Y-87364000D01*
X170293512Y-87368927D01*
G37*
G36*
X80123512Y-86098927D02*
G01*
X80272812Y-86128624D01*
X80436784Y-86196544D01*
X80584354Y-86295147D01*
X80709853Y-86420646D01*
X80808456Y-86568216D01*
X80876376Y-86732188D01*
X80911000Y-86906259D01*
X80911000Y-87083741D01*
X80876376Y-87257812D01*
X80808456Y-87421784D01*
X80709853Y-87569354D01*
X80584354Y-87694853D01*
X80436784Y-87793456D01*
X80272812Y-87861376D01*
X80123512Y-87891073D01*
X80098742Y-87896000D01*
X79921258Y-87896000D01*
X79896488Y-87891073D01*
X79747188Y-87861376D01*
X79583216Y-87793456D01*
X79435646Y-87694853D01*
X79310147Y-87569354D01*
X79211544Y-87421784D01*
X79143624Y-87257812D01*
X79109000Y-87083741D01*
X79109000Y-86906259D01*
X79143624Y-86732188D01*
X79211544Y-86568216D01*
X79310147Y-86420646D01*
X79435646Y-86295147D01*
X79583216Y-86196544D01*
X79747188Y-86128624D01*
X79896488Y-86098927D01*
X79921258Y-86094000D01*
X80098742Y-86094000D01*
X80123512Y-86098927D01*
G37*
G36*
X77583512Y-86098927D02*
G01*
X77732812Y-86128624D01*
X77896784Y-86196544D01*
X78044354Y-86295147D01*
X78169853Y-86420646D01*
X78268456Y-86568216D01*
X78336376Y-86732188D01*
X78371000Y-86906259D01*
X78371000Y-87083741D01*
X78336376Y-87257812D01*
X78268456Y-87421784D01*
X78169853Y-87569354D01*
X78044354Y-87694853D01*
X77896784Y-87793456D01*
X77732812Y-87861376D01*
X77583512Y-87891073D01*
X77558742Y-87896000D01*
X77381258Y-87896000D01*
X77356488Y-87891073D01*
X77207188Y-87861376D01*
X77043216Y-87793456D01*
X76895646Y-87694853D01*
X76770147Y-87569354D01*
X76671544Y-87421784D01*
X76603624Y-87257812D01*
X76569000Y-87083741D01*
X76569000Y-86906259D01*
X76603624Y-86732188D01*
X76671544Y-86568216D01*
X76770147Y-86420646D01*
X76895646Y-86295147D01*
X77043216Y-86196544D01*
X77207188Y-86128624D01*
X77356488Y-86098927D01*
X77381258Y-86094000D01*
X77558742Y-86094000D01*
X77583512Y-86098927D01*
G37*
G36*
X171081000Y-86626000D02*
G01*
X169279000Y-86626000D01*
X169279000Y-84824000D01*
X171081000Y-84824000D01*
X171081000Y-86626000D01*
G37*
G36*
X77583512Y-83558927D02*
G01*
X77732812Y-83588624D01*
X77896784Y-83656544D01*
X78044354Y-83755147D01*
X78169853Y-83880646D01*
X78268456Y-84028216D01*
X78336376Y-84192188D01*
X78371000Y-84366259D01*
X78371000Y-84543741D01*
X78336376Y-84717812D01*
X78268456Y-84881784D01*
X78169853Y-85029354D01*
X78044354Y-85154853D01*
X77896784Y-85253456D01*
X77732812Y-85321376D01*
X77583512Y-85351073D01*
X77558742Y-85356000D01*
X77381258Y-85356000D01*
X77356488Y-85351073D01*
X77207188Y-85321376D01*
X77043216Y-85253456D01*
X76895646Y-85154853D01*
X76770147Y-85029354D01*
X76671544Y-84881784D01*
X76603624Y-84717812D01*
X76569000Y-84543741D01*
X76569000Y-84366259D01*
X76603624Y-84192188D01*
X76671544Y-84028216D01*
X76770147Y-83880646D01*
X76895646Y-83755147D01*
X77043216Y-83656544D01*
X77207188Y-83588624D01*
X77356488Y-83558927D01*
X77381258Y-83554000D01*
X77558742Y-83554000D01*
X77583512Y-83558927D01*
G37*
G36*
X80911000Y-85356000D02*
G01*
X79109000Y-85356000D01*
X79109000Y-83554000D01*
X80911000Y-83554000D01*
X80911000Y-85356000D01*
G37*
G36*
X97903512Y-60063927D02*
G01*
X98052812Y-60093624D01*
X98216784Y-60161544D01*
X98364354Y-60260147D01*
X98489853Y-60385646D01*
X98588456Y-60533216D01*
X98656376Y-60697188D01*
X98691000Y-60871259D01*
X98691000Y-61048741D01*
X98656376Y-61222812D01*
X98588456Y-61386784D01*
X98489853Y-61534354D01*
X98364354Y-61659853D01*
X98216784Y-61758456D01*
X98052812Y-61826376D01*
X97903512Y-61856073D01*
X97878742Y-61861000D01*
X97701258Y-61861000D01*
X97676488Y-61856073D01*
X97527188Y-61826376D01*
X97363216Y-61758456D01*
X97215646Y-61659853D01*
X97090147Y-61534354D01*
X96991544Y-61386784D01*
X96923624Y-61222812D01*
X96889000Y-61048741D01*
X96889000Y-60871259D01*
X96923624Y-60697188D01*
X96991544Y-60533216D01*
X97090147Y-60385646D01*
X97215646Y-60260147D01*
X97363216Y-60161544D01*
X97527188Y-60093624D01*
X97676488Y-60063927D01*
X97701258Y-60059000D01*
X97878742Y-60059000D01*
X97903512Y-60063927D01*
G37*
G36*
X167753512Y-60063927D02*
G01*
X167902812Y-60093624D01*
X168066784Y-60161544D01*
X168214354Y-60260147D01*
X168339853Y-60385646D01*
X168438456Y-60533216D01*
X168506376Y-60697188D01*
X168541000Y-60871259D01*
X168541000Y-61048741D01*
X168506376Y-61222812D01*
X168438456Y-61386784D01*
X168339853Y-61534354D01*
X168214354Y-61659853D01*
X168066784Y-61758456D01*
X167902812Y-61826376D01*
X167753512Y-61856073D01*
X167728742Y-61861000D01*
X167551258Y-61861000D01*
X167526488Y-61856073D01*
X167377188Y-61826376D01*
X167213216Y-61758456D01*
X167065646Y-61659853D01*
X166940147Y-61534354D01*
X166841544Y-61386784D01*
X166773624Y-61222812D01*
X166739000Y-61048741D01*
X166739000Y-60871259D01*
X166773624Y-60697188D01*
X166841544Y-60533216D01*
X166940147Y-60385646D01*
X167065646Y-60260147D01*
X167213216Y-60161544D01*
X167377188Y-60093624D01*
X167526488Y-60063927D01*
X167551258Y-60059000D01*
X167728742Y-60059000D01*
X167753512Y-60063927D01*
G37*
G36*
X165213512Y-60063927D02*
G01*
X165362812Y-60093624D01*
X165526784Y-60161544D01*
X165674354Y-60260147D01*
X165799853Y-60385646D01*
X165898456Y-60533216D01*
X165966376Y-60697188D01*
X166001000Y-60871259D01*
X166001000Y-61048741D01*
X165966376Y-61222812D01*
X165898456Y-61386784D01*
X165799853Y-61534354D01*
X165674354Y-61659853D01*
X165526784Y-61758456D01*
X165362812Y-61826376D01*
X165213512Y-61856073D01*
X165188742Y-61861000D01*
X165011258Y-61861000D01*
X164986488Y-61856073D01*
X164837188Y-61826376D01*
X164673216Y-61758456D01*
X164525646Y-61659853D01*
X164400147Y-61534354D01*
X164301544Y-61386784D01*
X164233624Y-61222812D01*
X164199000Y-61048741D01*
X164199000Y-60871259D01*
X164233624Y-60697188D01*
X164301544Y-60533216D01*
X164400147Y-60385646D01*
X164525646Y-60260147D01*
X164673216Y-60161544D01*
X164837188Y-60093624D01*
X164986488Y-60063927D01*
X165011258Y-60059000D01*
X165188742Y-60059000D01*
X165213512Y-60063927D01*
G37*
G36*
X162673512Y-60063927D02*
G01*
X162822812Y-60093624D01*
X162986784Y-60161544D01*
X163134354Y-60260147D01*
X163259853Y-60385646D01*
X163358456Y-60533216D01*
X163426376Y-60697188D01*
X163461000Y-60871259D01*
X163461000Y-61048741D01*
X163426376Y-61222812D01*
X163358456Y-61386784D01*
X163259853Y-61534354D01*
X163134354Y-61659853D01*
X162986784Y-61758456D01*
X162822812Y-61826376D01*
X162673512Y-61856073D01*
X162648742Y-61861000D01*
X162471258Y-61861000D01*
X162446488Y-61856073D01*
X162297188Y-61826376D01*
X162133216Y-61758456D01*
X161985646Y-61659853D01*
X161860147Y-61534354D01*
X161761544Y-61386784D01*
X161693624Y-61222812D01*
X161659000Y-61048741D01*
X161659000Y-60871259D01*
X161693624Y-60697188D01*
X161761544Y-60533216D01*
X161860147Y-60385646D01*
X161985646Y-60260147D01*
X162133216Y-60161544D01*
X162297188Y-60093624D01*
X162446488Y-60063927D01*
X162471258Y-60059000D01*
X162648742Y-60059000D01*
X162673512Y-60063927D01*
G37*
G36*
X160133512Y-60063927D02*
G01*
X160282812Y-60093624D01*
X160446784Y-60161544D01*
X160594354Y-60260147D01*
X160719853Y-60385646D01*
X160818456Y-60533216D01*
X160886376Y-60697188D01*
X160921000Y-60871259D01*
X160921000Y-61048741D01*
X160886376Y-61222812D01*
X160818456Y-61386784D01*
X160719853Y-61534354D01*
X160594354Y-61659853D01*
X160446784Y-61758456D01*
X160282812Y-61826376D01*
X160133512Y-61856073D01*
X160108742Y-61861000D01*
X159931258Y-61861000D01*
X159906488Y-61856073D01*
X159757188Y-61826376D01*
X159593216Y-61758456D01*
X159445646Y-61659853D01*
X159320147Y-61534354D01*
X159221544Y-61386784D01*
X159153624Y-61222812D01*
X159119000Y-61048741D01*
X159119000Y-60871259D01*
X159153624Y-60697188D01*
X159221544Y-60533216D01*
X159320147Y-60385646D01*
X159445646Y-60260147D01*
X159593216Y-60161544D01*
X159757188Y-60093624D01*
X159906488Y-60063927D01*
X159931258Y-60059000D01*
X160108742Y-60059000D01*
X160133512Y-60063927D01*
G37*
G36*
X100443512Y-60063927D02*
G01*
X100592812Y-60093624D01*
X100756784Y-60161544D01*
X100904354Y-60260147D01*
X101029853Y-60385646D01*
X101128456Y-60533216D01*
X101196376Y-60697188D01*
X101231000Y-60871259D01*
X101231000Y-61048741D01*
X101196376Y-61222812D01*
X101128456Y-61386784D01*
X101029853Y-61534354D01*
X100904354Y-61659853D01*
X100756784Y-61758456D01*
X100592812Y-61826376D01*
X100443512Y-61856073D01*
X100418742Y-61861000D01*
X100241258Y-61861000D01*
X100216488Y-61856073D01*
X100067188Y-61826376D01*
X99903216Y-61758456D01*
X99755646Y-61659853D01*
X99630147Y-61534354D01*
X99531544Y-61386784D01*
X99463624Y-61222812D01*
X99429000Y-61048741D01*
X99429000Y-60871259D01*
X99463624Y-60697188D01*
X99531544Y-60533216D01*
X99630147Y-60385646D01*
X99755646Y-60260147D01*
X99903216Y-60161544D01*
X100067188Y-60093624D01*
X100216488Y-60063927D01*
X100241258Y-60059000D01*
X100418742Y-60059000D01*
X100443512Y-60063927D01*
G37*
G36*
X95363512Y-60063927D02*
G01*
X95512812Y-60093624D01*
X95676784Y-60161544D01*
X95824354Y-60260147D01*
X95949853Y-60385646D01*
X96048456Y-60533216D01*
X96116376Y-60697188D01*
X96151000Y-60871259D01*
X96151000Y-61048741D01*
X96116376Y-61222812D01*
X96048456Y-61386784D01*
X95949853Y-61534354D01*
X95824354Y-61659853D01*
X95676784Y-61758456D01*
X95512812Y-61826376D01*
X95363512Y-61856073D01*
X95338742Y-61861000D01*
X95161258Y-61861000D01*
X95136488Y-61856073D01*
X94987188Y-61826376D01*
X94823216Y-61758456D01*
X94675646Y-61659853D01*
X94550147Y-61534354D01*
X94451544Y-61386784D01*
X94383624Y-61222812D01*
X94349000Y-61048741D01*
X94349000Y-60871259D01*
X94383624Y-60697188D01*
X94451544Y-60533216D01*
X94550147Y-60385646D01*
X94675646Y-60260147D01*
X94823216Y-60161544D01*
X94987188Y-60093624D01*
X95136488Y-60063927D01*
X95161258Y-60059000D01*
X95338742Y-60059000D01*
X95363512Y-60063927D01*
G37*
G36*
X148703512Y-60063927D02*
G01*
X148852812Y-60093624D01*
X149016784Y-60161544D01*
X149164354Y-60260147D01*
X149289853Y-60385646D01*
X149388456Y-60533216D01*
X149456376Y-60697188D01*
X149491000Y-60871259D01*
X149491000Y-61048741D01*
X149456376Y-61222812D01*
X149388456Y-61386784D01*
X149289853Y-61534354D01*
X149164354Y-61659853D01*
X149016784Y-61758456D01*
X148852812Y-61826376D01*
X148703512Y-61856073D01*
X148678742Y-61861000D01*
X148501258Y-61861000D01*
X148476488Y-61856073D01*
X148327188Y-61826376D01*
X148163216Y-61758456D01*
X148015646Y-61659853D01*
X147890147Y-61534354D01*
X147791544Y-61386784D01*
X147723624Y-61222812D01*
X147689000Y-61048741D01*
X147689000Y-60871259D01*
X147723624Y-60697188D01*
X147791544Y-60533216D01*
X147890147Y-60385646D01*
X148015646Y-60260147D01*
X148163216Y-60161544D01*
X148327188Y-60093624D01*
X148476488Y-60063927D01*
X148501258Y-60059000D01*
X148678742Y-60059000D01*
X148703512Y-60063927D01*
G37*
G36*
X106158512Y-60063927D02*
G01*
X106307812Y-60093624D01*
X106471784Y-60161544D01*
X106619354Y-60260147D01*
X106744853Y-60385646D01*
X106843456Y-60533216D01*
X106911376Y-60697188D01*
X106946000Y-60871259D01*
X106946000Y-61048741D01*
X106911376Y-61222812D01*
X106843456Y-61386784D01*
X106744853Y-61534354D01*
X106619354Y-61659853D01*
X106471784Y-61758456D01*
X106307812Y-61826376D01*
X106158512Y-61856073D01*
X106133742Y-61861000D01*
X105956258Y-61861000D01*
X105931488Y-61856073D01*
X105782188Y-61826376D01*
X105618216Y-61758456D01*
X105470646Y-61659853D01*
X105345147Y-61534354D01*
X105246544Y-61386784D01*
X105178624Y-61222812D01*
X105144000Y-61048741D01*
X105144000Y-60871259D01*
X105178624Y-60697188D01*
X105246544Y-60533216D01*
X105345147Y-60385646D01*
X105470646Y-60260147D01*
X105618216Y-60161544D01*
X105782188Y-60093624D01*
X105931488Y-60063927D01*
X105956258Y-60059000D01*
X106133742Y-60059000D01*
X106158512Y-60063927D01*
G37*
G36*
X108698512Y-60063927D02*
G01*
X108847812Y-60093624D01*
X109011784Y-60161544D01*
X109159354Y-60260147D01*
X109284853Y-60385646D01*
X109383456Y-60533216D01*
X109451376Y-60697188D01*
X109486000Y-60871259D01*
X109486000Y-61048741D01*
X109451376Y-61222812D01*
X109383456Y-61386784D01*
X109284853Y-61534354D01*
X109159354Y-61659853D01*
X109011784Y-61758456D01*
X108847812Y-61826376D01*
X108698512Y-61856073D01*
X108673742Y-61861000D01*
X108496258Y-61861000D01*
X108471488Y-61856073D01*
X108322188Y-61826376D01*
X108158216Y-61758456D01*
X108010646Y-61659853D01*
X107885147Y-61534354D01*
X107786544Y-61386784D01*
X107718624Y-61222812D01*
X107684000Y-61048741D01*
X107684000Y-60871259D01*
X107718624Y-60697188D01*
X107786544Y-60533216D01*
X107885147Y-60385646D01*
X108010646Y-60260147D01*
X108158216Y-60161544D01*
X108322188Y-60093624D01*
X108471488Y-60063927D01*
X108496258Y-60059000D01*
X108673742Y-60059000D01*
X108698512Y-60063927D01*
G37*
G36*
X111238512Y-60063927D02*
G01*
X111387812Y-60093624D01*
X111551784Y-60161544D01*
X111699354Y-60260147D01*
X111824853Y-60385646D01*
X111923456Y-60533216D01*
X111991376Y-60697188D01*
X112026000Y-60871259D01*
X112026000Y-61048741D01*
X111991376Y-61222812D01*
X111923456Y-61386784D01*
X111824853Y-61534354D01*
X111699354Y-61659853D01*
X111551784Y-61758456D01*
X111387812Y-61826376D01*
X111238512Y-61856073D01*
X111213742Y-61861000D01*
X111036258Y-61861000D01*
X111011488Y-61856073D01*
X110862188Y-61826376D01*
X110698216Y-61758456D01*
X110550646Y-61659853D01*
X110425147Y-61534354D01*
X110326544Y-61386784D01*
X110258624Y-61222812D01*
X110224000Y-61048741D01*
X110224000Y-60871259D01*
X110258624Y-60697188D01*
X110326544Y-60533216D01*
X110425147Y-60385646D01*
X110550646Y-60260147D01*
X110698216Y-60161544D01*
X110862188Y-60093624D01*
X111011488Y-60063927D01*
X111036258Y-60059000D01*
X111213742Y-60059000D01*
X111238512Y-60063927D01*
G37*
G36*
X113829312Y-60063927D02*
G01*
X113978612Y-60093624D01*
X114142584Y-60161544D01*
X114290154Y-60260147D01*
X114415653Y-60385646D01*
X114514256Y-60533216D01*
X114582176Y-60697188D01*
X114616800Y-60871259D01*
X114616800Y-61048741D01*
X114582176Y-61222812D01*
X114514256Y-61386784D01*
X114415653Y-61534354D01*
X114290154Y-61659853D01*
X114142584Y-61758456D01*
X113978612Y-61826376D01*
X113829312Y-61856073D01*
X113804542Y-61861000D01*
X113627058Y-61861000D01*
X113602288Y-61856073D01*
X113452988Y-61826376D01*
X113289016Y-61758456D01*
X113141446Y-61659853D01*
X113015947Y-61534354D01*
X112917344Y-61386784D01*
X112849424Y-61222812D01*
X112814800Y-61048741D01*
X112814800Y-60871259D01*
X112849424Y-60697188D01*
X112917344Y-60533216D01*
X113015947Y-60385646D01*
X113141446Y-60260147D01*
X113289016Y-60161544D01*
X113452988Y-60093624D01*
X113602288Y-60063927D01*
X113627058Y-60059000D01*
X113804542Y-60059000D01*
X113829312Y-60063927D01*
G37*
G36*
X151243512Y-60063927D02*
G01*
X151392812Y-60093624D01*
X151556784Y-60161544D01*
X151704354Y-60260147D01*
X151829853Y-60385646D01*
X151928456Y-60533216D01*
X151996376Y-60697188D01*
X152031000Y-60871259D01*
X152031000Y-61048741D01*
X151996376Y-61222812D01*
X151928456Y-61386784D01*
X151829853Y-61534354D01*
X151704354Y-61659853D01*
X151556784Y-61758456D01*
X151392812Y-61826376D01*
X151243512Y-61856073D01*
X151218742Y-61861000D01*
X151041258Y-61861000D01*
X151016488Y-61856073D01*
X150867188Y-61826376D01*
X150703216Y-61758456D01*
X150555646Y-61659853D01*
X150430147Y-61534354D01*
X150331544Y-61386784D01*
X150263624Y-61222812D01*
X150229000Y-61048741D01*
X150229000Y-60871259D01*
X150263624Y-60697188D01*
X150331544Y-60533216D01*
X150430147Y-60385646D01*
X150555646Y-60260147D01*
X150703216Y-60161544D01*
X150867188Y-60093624D01*
X151016488Y-60063927D01*
X151041258Y-60059000D01*
X151218742Y-60059000D01*
X151243512Y-60063927D01*
G37*
G36*
X157593512Y-60063927D02*
G01*
X157742812Y-60093624D01*
X157906784Y-60161544D01*
X158054354Y-60260147D01*
X158179853Y-60385646D01*
X158278456Y-60533216D01*
X158346376Y-60697188D01*
X158381000Y-60871259D01*
X158381000Y-61048741D01*
X158346376Y-61222812D01*
X158278456Y-61386784D01*
X158179853Y-61534354D01*
X158054354Y-61659853D01*
X157906784Y-61758456D01*
X157742812Y-61826376D01*
X157593512Y-61856073D01*
X157568742Y-61861000D01*
X157391258Y-61861000D01*
X157366488Y-61856073D01*
X157217188Y-61826376D01*
X157053216Y-61758456D01*
X156905646Y-61659853D01*
X156780147Y-61534354D01*
X156681544Y-61386784D01*
X156613624Y-61222812D01*
X156579000Y-61048741D01*
X156579000Y-60871259D01*
X156613624Y-60697188D01*
X156681544Y-60533216D01*
X156780147Y-60385646D01*
X156905646Y-60260147D01*
X157053216Y-60161544D01*
X157217188Y-60093624D01*
X157366488Y-60063927D01*
X157391258Y-60059000D01*
X157568742Y-60059000D01*
X157593512Y-60063927D01*
G37*
G36*
X146163512Y-60063927D02*
G01*
X146312812Y-60093624D01*
X146476784Y-60161544D01*
X146624354Y-60260147D01*
X146749853Y-60385646D01*
X146848456Y-60533216D01*
X146916376Y-60697188D01*
X146951000Y-60871259D01*
X146951000Y-61048741D01*
X146916376Y-61222812D01*
X146848456Y-61386784D01*
X146749853Y-61534354D01*
X146624354Y-61659853D01*
X146476784Y-61758456D01*
X146312812Y-61826376D01*
X146163512Y-61856073D01*
X146138742Y-61861000D01*
X145961258Y-61861000D01*
X145936488Y-61856073D01*
X145787188Y-61826376D01*
X145623216Y-61758456D01*
X145475646Y-61659853D01*
X145350147Y-61534354D01*
X145251544Y-61386784D01*
X145183624Y-61222812D01*
X145149000Y-61048741D01*
X145149000Y-60871259D01*
X145183624Y-60697188D01*
X145251544Y-60533216D01*
X145350147Y-60385646D01*
X145475646Y-60260147D01*
X145623216Y-60161544D01*
X145787188Y-60093624D01*
X145936488Y-60063927D01*
X145961258Y-60059000D01*
X146138742Y-60059000D01*
X146163512Y-60063927D01*
G37*
G36*
X167753512Y-57523927D02*
G01*
X167902812Y-57553624D01*
X168066784Y-57621544D01*
X168214354Y-57720147D01*
X168339853Y-57845646D01*
X168438456Y-57993216D01*
X168506376Y-58157188D01*
X168541000Y-58331259D01*
X168541000Y-58508741D01*
X168506376Y-58682812D01*
X168438456Y-58846784D01*
X168339853Y-58994354D01*
X168214354Y-59119853D01*
X168066784Y-59218456D01*
X167902812Y-59286376D01*
X167753512Y-59316073D01*
X167728742Y-59321000D01*
X167551258Y-59321000D01*
X167526488Y-59316073D01*
X167377188Y-59286376D01*
X167213216Y-59218456D01*
X167065646Y-59119853D01*
X166940147Y-58994354D01*
X166841544Y-58846784D01*
X166773624Y-58682812D01*
X166739000Y-58508741D01*
X166739000Y-58331259D01*
X166773624Y-58157188D01*
X166841544Y-57993216D01*
X166940147Y-57845646D01*
X167065646Y-57720147D01*
X167213216Y-57621544D01*
X167377188Y-57553624D01*
X167526488Y-57523927D01*
X167551258Y-57519000D01*
X167728742Y-57519000D01*
X167753512Y-57523927D01*
G37*
G36*
X160133512Y-57523927D02*
G01*
X160282812Y-57553624D01*
X160446784Y-57621544D01*
X160594354Y-57720147D01*
X160719853Y-57845646D01*
X160818456Y-57993216D01*
X160886376Y-58157188D01*
X160921000Y-58331259D01*
X160921000Y-58508741D01*
X160886376Y-58682812D01*
X160818456Y-58846784D01*
X160719853Y-58994354D01*
X160594354Y-59119853D01*
X160446784Y-59218456D01*
X160282812Y-59286376D01*
X160133512Y-59316073D01*
X160108742Y-59321000D01*
X159931258Y-59321000D01*
X159906488Y-59316073D01*
X159757188Y-59286376D01*
X159593216Y-59218456D01*
X159445646Y-59119853D01*
X159320147Y-58994354D01*
X159221544Y-58846784D01*
X159153624Y-58682812D01*
X159119000Y-58508741D01*
X159119000Y-58331259D01*
X159153624Y-58157188D01*
X159221544Y-57993216D01*
X159320147Y-57845646D01*
X159445646Y-57720147D01*
X159593216Y-57621544D01*
X159757188Y-57553624D01*
X159906488Y-57523927D01*
X159931258Y-57519000D01*
X160108742Y-57519000D01*
X160133512Y-57523927D01*
G37*
G36*
X157593512Y-57523927D02*
G01*
X157742812Y-57553624D01*
X157906784Y-57621544D01*
X158054354Y-57720147D01*
X158179853Y-57845646D01*
X158278456Y-57993216D01*
X158346376Y-58157188D01*
X158381000Y-58331259D01*
X158381000Y-58508741D01*
X158346376Y-58682812D01*
X158278456Y-58846784D01*
X158179853Y-58994354D01*
X158054354Y-59119853D01*
X157906784Y-59218456D01*
X157742812Y-59286376D01*
X157593512Y-59316073D01*
X157568742Y-59321000D01*
X157391258Y-59321000D01*
X157366488Y-59316073D01*
X157217188Y-59286376D01*
X157053216Y-59218456D01*
X156905646Y-59119853D01*
X156780147Y-58994354D01*
X156681544Y-58846784D01*
X156613624Y-58682812D01*
X156579000Y-58508741D01*
X156579000Y-58331259D01*
X156613624Y-58157188D01*
X156681544Y-57993216D01*
X156780147Y-57845646D01*
X156905646Y-57720147D01*
X157053216Y-57621544D01*
X157217188Y-57553624D01*
X157366488Y-57523927D01*
X157391258Y-57519000D01*
X157568742Y-57519000D01*
X157593512Y-57523927D01*
G37*
G36*
X165213512Y-57523927D02*
G01*
X165362812Y-57553624D01*
X165526784Y-57621544D01*
X165674354Y-57720147D01*
X165799853Y-57845646D01*
X165898456Y-57993216D01*
X165966376Y-58157188D01*
X166001000Y-58331259D01*
X166001000Y-58508741D01*
X165966376Y-58682812D01*
X165898456Y-58846784D01*
X165799853Y-58994354D01*
X165674354Y-59119853D01*
X165526784Y-59218456D01*
X165362812Y-59286376D01*
X165213512Y-59316073D01*
X165188742Y-59321000D01*
X165011258Y-59321000D01*
X164986488Y-59316073D01*
X164837188Y-59286376D01*
X164673216Y-59218456D01*
X164525646Y-59119853D01*
X164400147Y-58994354D01*
X164301544Y-58846784D01*
X164233624Y-58682812D01*
X164199000Y-58508741D01*
X164199000Y-58331259D01*
X164233624Y-58157188D01*
X164301544Y-57993216D01*
X164400147Y-57845646D01*
X164525646Y-57720147D01*
X164673216Y-57621544D01*
X164837188Y-57553624D01*
X164986488Y-57523927D01*
X165011258Y-57519000D01*
X165188742Y-57519000D01*
X165213512Y-57523927D01*
G37*
G36*
X113778512Y-57523927D02*
G01*
X113927812Y-57553624D01*
X114091784Y-57621544D01*
X114239354Y-57720147D01*
X114364853Y-57845646D01*
X114463456Y-57993216D01*
X114531376Y-58157188D01*
X114566000Y-58331259D01*
X114566000Y-58508741D01*
X114531376Y-58682812D01*
X114463456Y-58846784D01*
X114364853Y-58994354D01*
X114239354Y-59119853D01*
X114091784Y-59218456D01*
X113927812Y-59286376D01*
X113778512Y-59316073D01*
X113753742Y-59321000D01*
X113576258Y-59321000D01*
X113551488Y-59316073D01*
X113402188Y-59286376D01*
X113238216Y-59218456D01*
X113090646Y-59119853D01*
X112965147Y-58994354D01*
X112866544Y-58846784D01*
X112798624Y-58682812D01*
X112764000Y-58508741D01*
X112764000Y-58331259D01*
X112798624Y-58157188D01*
X112866544Y-57993216D01*
X112965147Y-57845646D01*
X113090646Y-57720147D01*
X113238216Y-57621544D01*
X113402188Y-57553624D01*
X113551488Y-57523927D01*
X113576258Y-57519000D01*
X113753742Y-57519000D01*
X113778512Y-57523927D01*
G37*
G36*
X108698512Y-57523927D02*
G01*
X108847812Y-57553624D01*
X109011784Y-57621544D01*
X109159354Y-57720147D01*
X109284853Y-57845646D01*
X109383456Y-57993216D01*
X109451376Y-58157188D01*
X109486000Y-58331259D01*
X109486000Y-58508741D01*
X109451376Y-58682812D01*
X109383456Y-58846784D01*
X109284853Y-58994354D01*
X109159354Y-59119853D01*
X109011784Y-59218456D01*
X108847812Y-59286376D01*
X108698512Y-59316073D01*
X108673742Y-59321000D01*
X108496258Y-59321000D01*
X108471488Y-59316073D01*
X108322188Y-59286376D01*
X108158216Y-59218456D01*
X108010646Y-59119853D01*
X107885147Y-58994354D01*
X107786544Y-58846784D01*
X107718624Y-58682812D01*
X107684000Y-58508741D01*
X107684000Y-58331259D01*
X107718624Y-58157188D01*
X107786544Y-57993216D01*
X107885147Y-57845646D01*
X108010646Y-57720147D01*
X108158216Y-57621544D01*
X108322188Y-57553624D01*
X108471488Y-57523927D01*
X108496258Y-57519000D01*
X108673742Y-57519000D01*
X108698512Y-57523927D01*
G37*
G36*
X106158512Y-57523927D02*
G01*
X106307812Y-57553624D01*
X106471784Y-57621544D01*
X106619354Y-57720147D01*
X106744853Y-57845646D01*
X106843456Y-57993216D01*
X106911376Y-58157188D01*
X106946000Y-58331259D01*
X106946000Y-58508741D01*
X106911376Y-58682812D01*
X106843456Y-58846784D01*
X106744853Y-58994354D01*
X106619354Y-59119853D01*
X106471784Y-59218456D01*
X106307812Y-59286376D01*
X106158512Y-59316073D01*
X106133742Y-59321000D01*
X105956258Y-59321000D01*
X105931488Y-59316073D01*
X105782188Y-59286376D01*
X105618216Y-59218456D01*
X105470646Y-59119853D01*
X105345147Y-58994354D01*
X105246544Y-58846784D01*
X105178624Y-58682812D01*
X105144000Y-58508741D01*
X105144000Y-58331259D01*
X105178624Y-58157188D01*
X105246544Y-57993216D01*
X105345147Y-57845646D01*
X105470646Y-57720147D01*
X105618216Y-57621544D01*
X105782188Y-57553624D01*
X105931488Y-57523927D01*
X105956258Y-57519000D01*
X106133742Y-57519000D01*
X106158512Y-57523927D01*
G37*
G36*
X146163512Y-57523927D02*
G01*
X146312812Y-57553624D01*
X146476784Y-57621544D01*
X146624354Y-57720147D01*
X146749853Y-57845646D01*
X146848456Y-57993216D01*
X146916376Y-58157188D01*
X146951000Y-58331259D01*
X146951000Y-58508741D01*
X146916376Y-58682812D01*
X146848456Y-58846784D01*
X146749853Y-58994354D01*
X146624354Y-59119853D01*
X146476784Y-59218456D01*
X146312812Y-59286376D01*
X146163512Y-59316073D01*
X146138742Y-59321000D01*
X145961258Y-59321000D01*
X145936488Y-59316073D01*
X145787188Y-59286376D01*
X145623216Y-59218456D01*
X145475646Y-59119853D01*
X145350147Y-58994354D01*
X145251544Y-58846784D01*
X145183624Y-58682812D01*
X145149000Y-58508741D01*
X145149000Y-58331259D01*
X145183624Y-58157188D01*
X145251544Y-57993216D01*
X145350147Y-57845646D01*
X145475646Y-57720147D01*
X145623216Y-57621544D01*
X145787188Y-57553624D01*
X145936488Y-57523927D01*
X145961258Y-57519000D01*
X146138742Y-57519000D01*
X146163512Y-57523927D01*
G37*
G36*
X148703512Y-57523927D02*
G01*
X148852812Y-57553624D01*
X149016784Y-57621544D01*
X149164354Y-57720147D01*
X149289853Y-57845646D01*
X149388456Y-57993216D01*
X149456376Y-58157188D01*
X149491000Y-58331259D01*
X149491000Y-58508741D01*
X149456376Y-58682812D01*
X149388456Y-58846784D01*
X149289853Y-58994354D01*
X149164354Y-59119853D01*
X149016784Y-59218456D01*
X148852812Y-59286376D01*
X148703512Y-59316073D01*
X148678742Y-59321000D01*
X148501258Y-59321000D01*
X148476488Y-59316073D01*
X148327188Y-59286376D01*
X148163216Y-59218456D01*
X148015646Y-59119853D01*
X147890147Y-58994354D01*
X147791544Y-58846784D01*
X147723624Y-58682812D01*
X147689000Y-58508741D01*
X147689000Y-58331259D01*
X147723624Y-58157188D01*
X147791544Y-57993216D01*
X147890147Y-57845646D01*
X148015646Y-57720147D01*
X148163216Y-57621544D01*
X148327188Y-57553624D01*
X148476488Y-57523927D01*
X148501258Y-57519000D01*
X148678742Y-57519000D01*
X148703512Y-57523927D01*
G37*
G36*
X151243512Y-57523927D02*
G01*
X151392812Y-57553624D01*
X151556784Y-57621544D01*
X151704354Y-57720147D01*
X151829853Y-57845646D01*
X151928456Y-57993216D01*
X151996376Y-58157188D01*
X152031000Y-58331259D01*
X152031000Y-58508741D01*
X151996376Y-58682812D01*
X151928456Y-58846784D01*
X151829853Y-58994354D01*
X151704354Y-59119853D01*
X151556784Y-59218456D01*
X151392812Y-59286376D01*
X151243512Y-59316073D01*
X151218742Y-59321000D01*
X151041258Y-59321000D01*
X151016488Y-59316073D01*
X150867188Y-59286376D01*
X150703216Y-59218456D01*
X150555646Y-59119853D01*
X150430147Y-58994354D01*
X150331544Y-58846784D01*
X150263624Y-58682812D01*
X150229000Y-58508741D01*
X150229000Y-58331259D01*
X150263624Y-58157188D01*
X150331544Y-57993216D01*
X150430147Y-57845646D01*
X150555646Y-57720147D01*
X150703216Y-57621544D01*
X150867188Y-57553624D01*
X151016488Y-57523927D01*
X151041258Y-57519000D01*
X151218742Y-57519000D01*
X151243512Y-57523927D01*
G37*
G36*
X100443512Y-57523927D02*
G01*
X100592812Y-57553624D01*
X100756784Y-57621544D01*
X100904354Y-57720147D01*
X101029853Y-57845646D01*
X101128456Y-57993216D01*
X101196376Y-58157188D01*
X101231000Y-58331259D01*
X101231000Y-58508741D01*
X101196376Y-58682812D01*
X101128456Y-58846784D01*
X101029853Y-58994354D01*
X100904354Y-59119853D01*
X100756784Y-59218456D01*
X100592812Y-59286376D01*
X100443512Y-59316073D01*
X100418742Y-59321000D01*
X100241258Y-59321000D01*
X100216488Y-59316073D01*
X100067188Y-59286376D01*
X99903216Y-59218456D01*
X99755646Y-59119853D01*
X99630147Y-58994354D01*
X99531544Y-58846784D01*
X99463624Y-58682812D01*
X99429000Y-58508741D01*
X99429000Y-58331259D01*
X99463624Y-58157188D01*
X99531544Y-57993216D01*
X99630147Y-57845646D01*
X99755646Y-57720147D01*
X99903216Y-57621544D01*
X100067188Y-57553624D01*
X100216488Y-57523927D01*
X100241258Y-57519000D01*
X100418742Y-57519000D01*
X100443512Y-57523927D01*
G37*
G36*
X97903512Y-57523927D02*
G01*
X98052812Y-57553624D01*
X98216784Y-57621544D01*
X98364354Y-57720147D01*
X98489853Y-57845646D01*
X98588456Y-57993216D01*
X98656376Y-58157188D01*
X98691000Y-58331259D01*
X98691000Y-58508741D01*
X98656376Y-58682812D01*
X98588456Y-58846784D01*
X98489853Y-58994354D01*
X98364354Y-59119853D01*
X98216784Y-59218456D01*
X98052812Y-59286376D01*
X97903512Y-59316073D01*
X97878742Y-59321000D01*
X97701258Y-59321000D01*
X97676488Y-59316073D01*
X97527188Y-59286376D01*
X97363216Y-59218456D01*
X97215646Y-59119853D01*
X97090147Y-58994354D01*
X96991544Y-58846784D01*
X96923624Y-58682812D01*
X96889000Y-58508741D01*
X96889000Y-58331259D01*
X96923624Y-58157188D01*
X96991544Y-57993216D01*
X97090147Y-57845646D01*
X97215646Y-57720147D01*
X97363216Y-57621544D01*
X97527188Y-57553624D01*
X97676488Y-57523927D01*
X97701258Y-57519000D01*
X97878742Y-57519000D01*
X97903512Y-57523927D01*
G37*
G36*
X95363512Y-57523927D02*
G01*
X95512812Y-57553624D01*
X95676784Y-57621544D01*
X95824354Y-57720147D01*
X95949853Y-57845646D01*
X96048456Y-57993216D01*
X96116376Y-58157188D01*
X96151000Y-58331259D01*
X96151000Y-58508741D01*
X96116376Y-58682812D01*
X96048456Y-58846784D01*
X95949853Y-58994354D01*
X95824354Y-59119853D01*
X95676784Y-59218456D01*
X95512812Y-59286376D01*
X95363512Y-59316073D01*
X95338742Y-59321000D01*
X95161258Y-59321000D01*
X95136488Y-59316073D01*
X94987188Y-59286376D01*
X94823216Y-59218456D01*
X94675646Y-59119853D01*
X94550147Y-58994354D01*
X94451544Y-58846784D01*
X94383624Y-58682812D01*
X94349000Y-58508741D01*
X94349000Y-58331259D01*
X94383624Y-58157188D01*
X94451544Y-57993216D01*
X94550147Y-57845646D01*
X94675646Y-57720147D01*
X94823216Y-57621544D01*
X94987188Y-57553624D01*
X95136488Y-57523927D01*
X95161258Y-57519000D01*
X95338742Y-57519000D01*
X95363512Y-57523927D01*
G37*
G36*
X162673512Y-57523927D02*
G01*
X162822812Y-57553624D01*
X162986784Y-57621544D01*
X163134354Y-57720147D01*
X163259853Y-57845646D01*
X163358456Y-57993216D01*
X163426376Y-58157188D01*
X163461000Y-58331259D01*
X163461000Y-58508741D01*
X163426376Y-58682812D01*
X163358456Y-58846784D01*
X163259853Y-58994354D01*
X163134354Y-59119853D01*
X162986784Y-59218456D01*
X162822812Y-59286376D01*
X162673512Y-59316073D01*
X162648742Y-59321000D01*
X162471258Y-59321000D01*
X162446488Y-59316073D01*
X162297188Y-59286376D01*
X162133216Y-59218456D01*
X161985646Y-59119853D01*
X161860147Y-58994354D01*
X161761544Y-58846784D01*
X161693624Y-58682812D01*
X161659000Y-58508741D01*
X161659000Y-58331259D01*
X161693624Y-58157188D01*
X161761544Y-57993216D01*
X161860147Y-57845646D01*
X161985646Y-57720147D01*
X162133216Y-57621544D01*
X162297188Y-57553624D01*
X162446488Y-57523927D01*
X162471258Y-57519000D01*
X162648742Y-57519000D01*
X162673512Y-57523927D01*
G37*
G36*
X111238512Y-57523927D02*
G01*
X111387812Y-57553624D01*
X111551784Y-57621544D01*
X111699354Y-57720147D01*
X111824853Y-57845646D01*
X111923456Y-57993216D01*
X111991376Y-58157188D01*
X112026000Y-58331259D01*
X112026000Y-58508741D01*
X111991376Y-58682812D01*
X111923456Y-58846784D01*
X111824853Y-58994354D01*
X111699354Y-59119853D01*
X111551784Y-59218456D01*
X111387812Y-59286376D01*
X111238512Y-59316073D01*
X111213742Y-59321000D01*
X111036258Y-59321000D01*
X111011488Y-59316073D01*
X110862188Y-59286376D01*
X110698216Y-59218456D01*
X110550646Y-59119853D01*
X110425147Y-58994354D01*
X110326544Y-58846784D01*
X110258624Y-58682812D01*
X110224000Y-58508741D01*
X110224000Y-58331259D01*
X110258624Y-58157188D01*
X110326544Y-57993216D01*
X110425147Y-57845646D01*
X110550646Y-57720147D01*
X110698216Y-57621544D01*
X110862188Y-57553624D01*
X111011488Y-57523927D01*
X111036258Y-57519000D01*
X111213742Y-57519000D01*
X111238512Y-57523927D01*
G37*
G36*
X86255721Y-53435174D02*
G01*
X86355995Y-53476709D01*
X86355996Y-53476710D01*
X86446242Y-53537010D01*
X86522990Y-53613758D01*
X86522991Y-53613760D01*
X86583291Y-53704005D01*
X86624826Y-53804279D01*
X86646000Y-53910730D01*
X86646000Y-54019270D01*
X86624826Y-54125721D01*
X86583291Y-54225995D01*
X86583290Y-54225996D01*
X86522990Y-54316242D01*
X86446242Y-54392990D01*
X86400812Y-54423345D01*
X86355995Y-54453291D01*
X86255721Y-54494826D01*
X86149270Y-54516000D01*
X86040730Y-54516000D01*
X85934279Y-54494826D01*
X85834005Y-54453291D01*
X85789188Y-54423345D01*
X85743758Y-54392990D01*
X85667010Y-54316242D01*
X85606710Y-54225996D01*
X85606709Y-54225995D01*
X85565174Y-54125721D01*
X85544000Y-54019270D01*
X85544000Y-53910730D01*
X85565174Y-53804279D01*
X85606709Y-53704005D01*
X85667009Y-53613760D01*
X85667010Y-53613758D01*
X85743758Y-53537010D01*
X85834004Y-53476710D01*
X85834005Y-53476709D01*
X85934279Y-53435174D01*
X86040730Y-53414000D01*
X86149270Y-53414000D01*
X86255721Y-53435174D01*
G37*
G36*
X81855721Y-53435174D02*
G01*
X81955995Y-53476709D01*
X81955996Y-53476710D01*
X82046242Y-53537010D01*
X82122990Y-53613758D01*
X82122991Y-53613760D01*
X82183291Y-53704005D01*
X82224826Y-53804279D01*
X82246000Y-53910730D01*
X82246000Y-54019270D01*
X82224826Y-54125721D01*
X82183291Y-54225995D01*
X82183290Y-54225996D01*
X82122990Y-54316242D01*
X82046242Y-54392990D01*
X82000812Y-54423345D01*
X81955995Y-54453291D01*
X81855721Y-54494826D01*
X81749270Y-54516000D01*
X81640730Y-54516000D01*
X81534279Y-54494826D01*
X81434005Y-54453291D01*
X81389188Y-54423345D01*
X81343758Y-54392990D01*
X81267010Y-54316242D01*
X81206710Y-54225996D01*
X81206709Y-54225995D01*
X81165174Y-54125721D01*
X81144000Y-54019270D01*
X81144000Y-53910730D01*
X81165174Y-53804279D01*
X81206709Y-53704005D01*
X81267009Y-53613760D01*
X81267010Y-53613758D01*
X81343758Y-53537010D01*
X81434004Y-53476710D01*
X81434005Y-53476709D01*
X81534279Y-53435174D01*
X81640730Y-53414000D01*
X81749270Y-53414000D01*
X81855721Y-53435174D01*
G37*
G36*
X141229794Y-52210155D02*
G01*
X141336150Y-52231311D01*
X141436334Y-52272809D01*
X141536520Y-52314307D01*
X141716844Y-52434795D01*
X141870205Y-52588156D01*
X141990693Y-52768480D01*
X141990693Y-52768481D01*
X142073689Y-52968850D01*
X142116000Y-53181561D01*
X142116000Y-53398439D01*
X142073689Y-53611150D01*
X142035227Y-53704004D01*
X141990693Y-53811520D01*
X141870205Y-53991844D01*
X141716844Y-54145205D01*
X141536520Y-54265693D01*
X141336150Y-54348689D01*
X141229794Y-54369845D01*
X141123440Y-54391000D01*
X140906560Y-54391000D01*
X140800206Y-54369845D01*
X140693850Y-54348689D01*
X140493480Y-54265693D01*
X140313156Y-54145205D01*
X140159795Y-53991844D01*
X140039307Y-53811520D01*
X139994773Y-53704004D01*
X139956311Y-53611150D01*
X139914000Y-53398439D01*
X139914000Y-53181561D01*
X139956311Y-52968850D01*
X140039307Y-52768481D01*
X140039307Y-52768480D01*
X140159795Y-52588156D01*
X140313156Y-52434795D01*
X140493480Y-52314307D01*
X140593666Y-52272809D01*
X140693850Y-52231311D01*
X140800206Y-52210155D01*
X140906560Y-52189000D01*
X141123440Y-52189000D01*
X141229794Y-52210155D01*
G37*
G36*
X134219794Y-52210155D02*
G01*
X134326150Y-52231311D01*
X134426334Y-52272809D01*
X134526520Y-52314307D01*
X134706844Y-52434795D01*
X134860205Y-52588156D01*
X134980693Y-52768480D01*
X134980693Y-52768481D01*
X135063689Y-52968850D01*
X135106000Y-53181561D01*
X135106000Y-53398439D01*
X135063689Y-53611150D01*
X135025227Y-53704004D01*
X134980693Y-53811520D01*
X134860205Y-53991844D01*
X134706844Y-54145205D01*
X134526520Y-54265693D01*
X134326150Y-54348689D01*
X134219794Y-54369845D01*
X134113440Y-54391000D01*
X133896560Y-54391000D01*
X133790206Y-54369845D01*
X133683850Y-54348689D01*
X133483480Y-54265693D01*
X133303156Y-54145205D01*
X133149795Y-53991844D01*
X133029307Y-53811520D01*
X132984773Y-53704004D01*
X132946311Y-53611150D01*
X132904000Y-53398439D01*
X132904000Y-53181561D01*
X132946311Y-52968850D01*
X133029307Y-52768481D01*
X133029307Y-52768480D01*
X133149795Y-52588156D01*
X133303156Y-52434795D01*
X133483480Y-52314307D01*
X133583666Y-52272809D01*
X133683850Y-52231311D01*
X133790206Y-52210155D01*
X133896560Y-52189000D01*
X134113440Y-52189000D01*
X134219794Y-52210155D01*
G37*
G36*
X140025104Y-49909585D02*
G01*
X140193626Y-49979389D01*
X140345291Y-50080728D01*
X140474272Y-50209709D01*
X140575611Y-50361374D01*
X140645415Y-50529896D01*
X140681000Y-50708797D01*
X140681000Y-50891203D01*
X140645415Y-51070104D01*
X140575611Y-51238626D01*
X140474272Y-51390291D01*
X140345291Y-51519272D01*
X140193626Y-51620611D01*
X140025104Y-51690415D01*
X139846203Y-51726000D01*
X139663797Y-51726000D01*
X139484896Y-51690415D01*
X139316374Y-51620611D01*
X139164709Y-51519272D01*
X139035728Y-51390291D01*
X138934389Y-51238626D01*
X138864585Y-51070104D01*
X138829000Y-50891203D01*
X138829000Y-50708797D01*
X138864585Y-50529896D01*
X138934389Y-50361374D01*
X139035728Y-50209709D01*
X139164709Y-50080728D01*
X139316374Y-49979389D01*
X139484896Y-49909585D01*
X139663797Y-49874000D01*
X139846203Y-49874000D01*
X140025104Y-49909585D01*
G37*
G36*
X135525104Y-49909585D02*
G01*
X135693626Y-49979389D01*
X135845291Y-50080728D01*
X135974272Y-50209709D01*
X136075611Y-50361374D01*
X136145415Y-50529896D01*
X136181000Y-50708797D01*
X136181000Y-50891203D01*
X136145415Y-51070104D01*
X136075611Y-51238626D01*
X135974272Y-51390291D01*
X135845291Y-51519272D01*
X135693626Y-51620611D01*
X135525104Y-51690415D01*
X135346203Y-51726000D01*
X135163797Y-51726000D01*
X134984896Y-51690415D01*
X134816374Y-51620611D01*
X134664709Y-51519272D01*
X134535728Y-51390291D01*
X134434389Y-51238626D01*
X134364585Y-51070104D01*
X134329000Y-50891203D01*
X134329000Y-50708797D01*
X134364585Y-50529896D01*
X134434389Y-50361374D01*
X134535728Y-50209709D01*
X134664709Y-50080728D01*
X134816374Y-49979389D01*
X134984896Y-49909585D01*
X135163797Y-49874000D01*
X135346203Y-49874000D01*
X135525104Y-49909585D01*
G37*
M02*
