G04 #@! TF.GenerationSoftware,KiCad,Pcbnew,(5.1.4)-1*
G04 #@! TF.CreationDate,2020-11-15T15:43:23+01:00*
G04 #@! TF.ProjectId,Sensorplatine,53656e73-6f72-4706-9c61-74696e652e6b,rev?*
G04 #@! TF.SameCoordinates,Original*
G04 #@! TF.FileFunction,Legend,Top*
G04 #@! TF.FilePolarity,Positive*
%FSLAX46Y46*%
G04 Gerber Fmt 4.6, Leading zero omitted, Abs format (unit mm)*
G04 Created by KiCad (PCBNEW (5.1.4)-1) date 2020-11-15 15:43:23*
%MOMM*%
%LPD*%
G04 APERTURE LIST*
%ADD10C,0.120000*%
%ADD11C,0.150000*%
G04 APERTURE END LIST*
D10*
X182880000Y-92015000D02*
X184210000Y-92015000D01*
X184210000Y-92015000D02*
X184210000Y-93345000D01*
X181610000Y-92015000D02*
X181610000Y-94615000D01*
X181610000Y-94615000D02*
X184210000Y-94615000D01*
X184210000Y-94615000D02*
X184210000Y-99755000D01*
X179010000Y-99755000D02*
X184210000Y-99755000D01*
X179010000Y-92015000D02*
X179010000Y-99755000D01*
X179010000Y-92015000D02*
X181610000Y-92015000D01*
X177040000Y-88041267D02*
X177040000Y-87698733D01*
X176020000Y-88041267D02*
X176020000Y-87698733D01*
X164790000Y-89880000D02*
X164790000Y-87020000D01*
X162870000Y-89880000D02*
X164790000Y-89880000D01*
X162870000Y-87020000D02*
X162870000Y-89880000D01*
X169081267Y-87755000D02*
X168738733Y-87755000D01*
X169081267Y-88775000D02*
X168738733Y-88775000D01*
X175036267Y-99820000D02*
X174693733Y-99820000D01*
X175036267Y-100840000D02*
X174693733Y-100840000D01*
X169476267Y-98935000D02*
X169133733Y-98935000D01*
X169476267Y-97915000D02*
X169133733Y-97915000D01*
X163320000Y-92246267D02*
X163320000Y-91903733D01*
X164340000Y-92246267D02*
X164340000Y-91903733D01*
X166100000Y-100380000D02*
G75*
G02X165400000Y-101080000I-700000J0D01*
G01*
X164800000Y-101080000D02*
G75*
G02X164100000Y-100380000I0J700000D01*
G01*
X164100000Y-98980000D02*
G75*
G02X164800000Y-98280000I700000J0D01*
G01*
X165400000Y-98280000D02*
G75*
G02X166100000Y-98980000I0J-700000D01*
G01*
X164800000Y-98280000D02*
X165400000Y-98280000D01*
X164100000Y-100380000D02*
X164100000Y-98980000D01*
X165400000Y-101080000D02*
X164800000Y-101080000D01*
X166100000Y-98980000D02*
X166100000Y-100380000D01*
X169476267Y-99820000D02*
X169133733Y-99820000D01*
X169476267Y-100840000D02*
X169133733Y-100840000D01*
X174693733Y-97915000D02*
X175036267Y-97915000D01*
X174693733Y-98935000D02*
X175036267Y-98935000D01*
X173480000Y-91663733D02*
X173480000Y-92006267D01*
X174500000Y-91663733D02*
X174500000Y-92006267D01*
X176405000Y-95473733D02*
X176405000Y-95816267D01*
X175385000Y-95473733D02*
X175385000Y-95816267D01*
X173480000Y-95473733D02*
X173480000Y-95816267D01*
X174500000Y-95473733D02*
X174500000Y-95816267D01*
X176405000Y-91663733D02*
X176405000Y-92006267D01*
X175385000Y-91663733D02*
X175385000Y-92006267D01*
D11*
X167386000Y-96901000D02*
X167386000Y-94869000D01*
X167386000Y-94869000D02*
X170942000Y-94869000D01*
X170942000Y-94869000D02*
X170942000Y-96901000D01*
X170942000Y-96901000D02*
X167386000Y-96901000D01*
D10*
X168910000Y-89830000D02*
X170410000Y-89830000D01*
X167410000Y-93050000D02*
X170410000Y-93050000D01*
X158690000Y-97850000D02*
X161350000Y-97850000D01*
X158690000Y-90170000D02*
X158690000Y-97850000D01*
X161350000Y-90170000D02*
X161350000Y-97850000D01*
X158690000Y-90170000D02*
X161350000Y-90170000D01*
X158690000Y-88900000D02*
X158690000Y-87570000D01*
X158690000Y-87570000D02*
X160020000Y-87570000D01*
D11*
X180641666Y-89622380D02*
X180641666Y-90336666D01*
X180594047Y-90479523D01*
X180498809Y-90574761D01*
X180355952Y-90622380D01*
X180260714Y-90622380D01*
X181641666Y-90622380D02*
X181070238Y-90622380D01*
X181355952Y-90622380D02*
X181355952Y-89622380D01*
X181260714Y-89765238D01*
X181165476Y-89860476D01*
X181070238Y-89908095D01*
X162632380Y-88758095D02*
X161632380Y-88758095D01*
X161632380Y-88520000D01*
X161680000Y-88377142D01*
X161775238Y-88281904D01*
X161870476Y-88234285D01*
X162060952Y-88186666D01*
X162203809Y-88186666D01*
X162394285Y-88234285D01*
X162489523Y-88281904D01*
X162584761Y-88377142D01*
X162632380Y-88520000D01*
X162632380Y-88758095D01*
X162632380Y-87234285D02*
X162632380Y-87805714D01*
X162632380Y-87520000D02*
X161632380Y-87520000D01*
X161775238Y-87615238D01*
X161870476Y-87710476D01*
X161918095Y-87805714D01*
X168743333Y-90052142D02*
X168695714Y-90099761D01*
X168552857Y-90147380D01*
X168457619Y-90147380D01*
X168314761Y-90099761D01*
X168219523Y-90004523D01*
X168171904Y-89909285D01*
X168124285Y-89718809D01*
X168124285Y-89575952D01*
X168171904Y-89385476D01*
X168219523Y-89290238D01*
X168314761Y-89195000D01*
X168457619Y-89147380D01*
X168552857Y-89147380D01*
X168695714Y-89195000D01*
X168743333Y-89242619D01*
X169695714Y-90147380D02*
X169124285Y-90147380D01*
X169410000Y-90147380D02*
X169410000Y-89147380D01*
X169314761Y-89290238D01*
X169219523Y-89385476D01*
X169124285Y-89433095D01*
X174698333Y-102117142D02*
X174650714Y-102164761D01*
X174507857Y-102212380D01*
X174412619Y-102212380D01*
X174269761Y-102164761D01*
X174174523Y-102069523D01*
X174126904Y-101974285D01*
X174079285Y-101783809D01*
X174079285Y-101640952D01*
X174126904Y-101450476D01*
X174174523Y-101355238D01*
X174269761Y-101260000D01*
X174412619Y-101212380D01*
X174507857Y-101212380D01*
X174650714Y-101260000D01*
X174698333Y-101307619D01*
X175079285Y-101307619D02*
X175126904Y-101260000D01*
X175222142Y-101212380D01*
X175460238Y-101212380D01*
X175555476Y-101260000D01*
X175603095Y-101307619D01*
X175650714Y-101402857D01*
X175650714Y-101498095D01*
X175603095Y-101640952D01*
X175031666Y-102212380D01*
X175650714Y-102212380D01*
X169138333Y-100212142D02*
X169090714Y-100259761D01*
X168947857Y-100307380D01*
X168852619Y-100307380D01*
X168709761Y-100259761D01*
X168614523Y-100164523D01*
X168566904Y-100069285D01*
X168519285Y-99878809D01*
X168519285Y-99735952D01*
X168566904Y-99545476D01*
X168614523Y-99450238D01*
X168709761Y-99355000D01*
X168852619Y-99307380D01*
X168947857Y-99307380D01*
X169090714Y-99355000D01*
X169138333Y-99402619D01*
X169471666Y-99307380D02*
X170090714Y-99307380D01*
X169757380Y-99688333D01*
X169900238Y-99688333D01*
X169995476Y-99735952D01*
X170043095Y-99783571D01*
X170090714Y-99878809D01*
X170090714Y-100116904D01*
X170043095Y-100212142D01*
X169995476Y-100259761D01*
X169900238Y-100307380D01*
X169614523Y-100307380D01*
X169519285Y-100259761D01*
X169471666Y-100212142D01*
X162757142Y-92241666D02*
X162804761Y-92289285D01*
X162852380Y-92432142D01*
X162852380Y-92527380D01*
X162804761Y-92670238D01*
X162709523Y-92765476D01*
X162614285Y-92813095D01*
X162423809Y-92860714D01*
X162280952Y-92860714D01*
X162090476Y-92813095D01*
X161995238Y-92765476D01*
X161900000Y-92670238D01*
X161852380Y-92527380D01*
X161852380Y-92432142D01*
X161900000Y-92289285D01*
X161947619Y-92241666D01*
X162185714Y-91384523D02*
X162852380Y-91384523D01*
X161804761Y-91622619D02*
X162519047Y-91860714D01*
X162519047Y-91241666D01*
X166352380Y-100513333D02*
X167066666Y-100513333D01*
X167209523Y-100560952D01*
X167304761Y-100656190D01*
X167352380Y-100799047D01*
X167352380Y-100894285D01*
X167352380Y-100037142D02*
X166352380Y-100037142D01*
X166352380Y-99656190D01*
X166400000Y-99560952D01*
X166447619Y-99513333D01*
X166542857Y-99465714D01*
X166685714Y-99465714D01*
X166780952Y-99513333D01*
X166828571Y-99560952D01*
X166876190Y-99656190D01*
X166876190Y-100037142D01*
X167352380Y-98513333D02*
X167352380Y-99084761D01*
X167352380Y-98799047D02*
X166352380Y-98799047D01*
X166495238Y-98894285D01*
X166590476Y-98989523D01*
X166638095Y-99084761D01*
X169138333Y-102212380D02*
X168805000Y-101736190D01*
X168566904Y-102212380D02*
X168566904Y-101212380D01*
X168947857Y-101212380D01*
X169043095Y-101260000D01*
X169090714Y-101307619D01*
X169138333Y-101402857D01*
X169138333Y-101545714D01*
X169090714Y-101640952D01*
X169043095Y-101688571D01*
X168947857Y-101736190D01*
X168566904Y-101736190D01*
X170090714Y-102212380D02*
X169519285Y-102212380D01*
X169805000Y-102212380D02*
X169805000Y-101212380D01*
X169709761Y-101355238D01*
X169614523Y-101450476D01*
X169519285Y-101498095D01*
X174698333Y-97353380D02*
X174365000Y-96877190D01*
X174126904Y-97353380D02*
X174126904Y-96353380D01*
X174507857Y-96353380D01*
X174603095Y-96401000D01*
X174650714Y-96448619D01*
X174698333Y-96543857D01*
X174698333Y-96686714D01*
X174650714Y-96781952D01*
X174603095Y-96829571D01*
X174507857Y-96877190D01*
X174126904Y-96877190D01*
X175079285Y-96448619D02*
X175126904Y-96401000D01*
X175222142Y-96353380D01*
X175460238Y-96353380D01*
X175555476Y-96401000D01*
X175603095Y-96448619D01*
X175650714Y-96543857D01*
X175650714Y-96639095D01*
X175603095Y-96781952D01*
X175031666Y-97353380D01*
X175650714Y-97353380D01*
X175872380Y-92001666D02*
X175396190Y-92335000D01*
X175872380Y-92573095D02*
X174872380Y-92573095D01*
X174872380Y-92192142D01*
X174920000Y-92096904D01*
X174967619Y-92049285D01*
X175062857Y-92001666D01*
X175205714Y-92001666D01*
X175300952Y-92049285D01*
X175348571Y-92096904D01*
X175396190Y-92192142D01*
X175396190Y-92573095D01*
X174872380Y-91668333D02*
X174872380Y-91049285D01*
X175253333Y-91382619D01*
X175253333Y-91239761D01*
X175300952Y-91144523D01*
X175348571Y-91096904D01*
X175443809Y-91049285D01*
X175681904Y-91049285D01*
X175777142Y-91096904D01*
X175824761Y-91144523D01*
X175872380Y-91239761D01*
X175872380Y-91525476D01*
X175824761Y-91620714D01*
X175777142Y-91668333D01*
X177777380Y-95811666D02*
X177301190Y-96145000D01*
X177777380Y-96383095D02*
X176777380Y-96383095D01*
X176777380Y-96002142D01*
X176825000Y-95906904D01*
X176872619Y-95859285D01*
X176967857Y-95811666D01*
X177110714Y-95811666D01*
X177205952Y-95859285D01*
X177253571Y-95906904D01*
X177301190Y-96002142D01*
X177301190Y-96383095D01*
X177110714Y-94954523D02*
X177777380Y-94954523D01*
X176729761Y-95192619D02*
X177444047Y-95430714D01*
X177444047Y-94811666D01*
X175872380Y-95811666D02*
X175396190Y-96145000D01*
X175872380Y-96383095D02*
X174872380Y-96383095D01*
X174872380Y-96002142D01*
X174920000Y-95906904D01*
X174967619Y-95859285D01*
X175062857Y-95811666D01*
X175205714Y-95811666D01*
X175300952Y-95859285D01*
X175348571Y-95906904D01*
X175396190Y-96002142D01*
X175396190Y-96383095D01*
X174872380Y-94906904D02*
X174872380Y-95383095D01*
X175348571Y-95430714D01*
X175300952Y-95383095D01*
X175253333Y-95287857D01*
X175253333Y-95049761D01*
X175300952Y-94954523D01*
X175348571Y-94906904D01*
X175443809Y-94859285D01*
X175681904Y-94859285D01*
X175777142Y-94906904D01*
X175824761Y-94954523D01*
X175872380Y-95049761D01*
X175872380Y-95287857D01*
X175824761Y-95383095D01*
X175777142Y-95430714D01*
X177777380Y-92001666D02*
X177301190Y-92335000D01*
X177777380Y-92573095D02*
X176777380Y-92573095D01*
X176777380Y-92192142D01*
X176825000Y-92096904D01*
X176872619Y-92049285D01*
X176967857Y-92001666D01*
X177110714Y-92001666D01*
X177205952Y-92049285D01*
X177253571Y-92096904D01*
X177301190Y-92192142D01*
X177301190Y-92573095D01*
X176777380Y-91144523D02*
X176777380Y-91335000D01*
X176825000Y-91430238D01*
X176872619Y-91477857D01*
X177015476Y-91573095D01*
X177205952Y-91620714D01*
X177586904Y-91620714D01*
X177682142Y-91573095D01*
X177729761Y-91525476D01*
X177777380Y-91430238D01*
X177777380Y-91239761D01*
X177729761Y-91144523D01*
X177682142Y-91096904D01*
X177586904Y-91049285D01*
X177348809Y-91049285D01*
X177253571Y-91096904D01*
X177205952Y-91144523D01*
X177158333Y-91239761D01*
X177158333Y-91430238D01*
X177205952Y-91525476D01*
X177253571Y-91573095D01*
X177348809Y-91620714D01*
X165314380Y-96646904D02*
X166123904Y-96646904D01*
X166219142Y-96599285D01*
X166266761Y-96551666D01*
X166314380Y-96456428D01*
X166314380Y-96265952D01*
X166266761Y-96170714D01*
X166219142Y-96123095D01*
X166123904Y-96075476D01*
X165314380Y-96075476D01*
X166314380Y-95075476D02*
X166314380Y-95646904D01*
X166314380Y-95361190D02*
X165314380Y-95361190D01*
X165457238Y-95456428D01*
X165552476Y-95551666D01*
X165600095Y-95646904D01*
X168148095Y-88442380D02*
X168148095Y-89251904D01*
X168195714Y-89347142D01*
X168243333Y-89394761D01*
X168338571Y-89442380D01*
X168529047Y-89442380D01*
X168624285Y-89394761D01*
X168671904Y-89347142D01*
X168719523Y-89251904D01*
X168719523Y-88442380D01*
X169148095Y-88537619D02*
X169195714Y-88490000D01*
X169290952Y-88442380D01*
X169529047Y-88442380D01*
X169624285Y-88490000D01*
X169671904Y-88537619D01*
X169719523Y-88632857D01*
X169719523Y-88728095D01*
X169671904Y-88870952D01*
X169100476Y-89442380D01*
X169719523Y-89442380D01*
X159686666Y-86022380D02*
X159686666Y-86736666D01*
X159639047Y-86879523D01*
X159543809Y-86974761D01*
X159400952Y-87022380D01*
X159305714Y-87022380D01*
X160115238Y-86117619D02*
X160162857Y-86070000D01*
X160258095Y-86022380D01*
X160496190Y-86022380D01*
X160591428Y-86070000D01*
X160639047Y-86117619D01*
X160686666Y-86212857D01*
X160686666Y-86308095D01*
X160639047Y-86450952D01*
X160067619Y-87022380D01*
X160686666Y-87022380D01*
M02*
