M48
; DRILL file {KiCad (5.1.4)-1} date 15.11.2020 15:43:25
; FORMAT={-:-/ absolute / inch / decimal}
; #@! TF.CreationDate,2020-11-15T15:43:25+01:00
; #@! TF.GenerationSoftware,Kicad,Pcbnew,(5.1.4)-1
; #@! TF.FileFunction,Plated,1,2,PTH
FMAT,2
INCH
T1C0.0118
T2C0.0157
T3C0.0394
T4C0.0787
%
G90
G05
T1
X6.5693Y-3.9126
X6.6303Y-3.7
X6.7669Y-3.7547
T2
X6.5358Y-3.8205
X6.5361Y-3.755
X6.5362Y-3.5606
X6.7618Y-3.4754
X6.7618Y-3.6004
X6.7717Y-3.8331
X6.9764Y-3.95
X6.9874Y-3.7311
X6.9878Y-3.5811
T3
X6.3Y-3.5
X6.3Y-3.6
X6.3Y-3.7
X6.3Y-3.8
X7.1Y-3.675
X7.1Y-3.775
X7.1Y-3.875
X7.2Y-3.675
X7.2Y-3.775
X7.2Y-3.875
T4
X6.3Y-3.95
X7.2Y-3.45
T0
M30
