G04 #@! TF.GenerationSoftware,KiCad,Pcbnew,(5.1.4)-1*
G04 #@! TF.CreationDate,2020-07-08T20:51:49+02:00*
G04 #@! TF.ProjectId,SBIO3,5342494f-332e-46b6-9963-61645f706362,rev?*
G04 #@! TF.SameCoordinates,Original*
G04 #@! TF.FileFunction,Paste,Top*
G04 #@! TF.FilePolarity,Positive*
%FSLAX46Y46*%
G04 Gerber Fmt 4.6, Leading zero omitted, Abs format (unit mm)*
G04 Created by KiCad (PCBNEW (5.1.4)-1) date 2020-07-08 20:51:49*
%MOMM*%
%LPD*%
G04 APERTURE LIST*
%ADD10R,1.500000X0.600000*%
%ADD11R,0.900000X1.200000*%
%ADD12R,1.200000X0.900000*%
G04 APERTURE END LIST*
D10*
X117061000Y-175260000D03*
X117061000Y-173990000D03*
X117061000Y-172720000D03*
X117061000Y-171450000D03*
X117061000Y-170180000D03*
X117061000Y-168910000D03*
X117061000Y-167640000D03*
X117061000Y-166370000D03*
X122461000Y-166370000D03*
X122461000Y-167640000D03*
X122461000Y-168910000D03*
X122461000Y-170180000D03*
X122461000Y-171450000D03*
X122461000Y-172720000D03*
X122461000Y-173990000D03*
X122461000Y-175260000D03*
X88966000Y-175260000D03*
X88966000Y-173990000D03*
X88966000Y-172720000D03*
X88966000Y-171450000D03*
X88966000Y-170180000D03*
X88966000Y-168910000D03*
X88966000Y-167640000D03*
X88966000Y-166370000D03*
X83566000Y-166370000D03*
X83566000Y-167640000D03*
X83566000Y-168910000D03*
X83566000Y-170180000D03*
X83566000Y-171450000D03*
X83566000Y-172720000D03*
X83566000Y-173990000D03*
X83566000Y-175260000D03*
D11*
X77851000Y-167300000D03*
X77851000Y-165100000D03*
D12*
X136101000Y-160020000D03*
X133901000Y-160020000D03*
X80856000Y-173990000D03*
X78656000Y-173990000D03*
X98001000Y-163195000D03*
X95801000Y-163195000D03*
D11*
X75946000Y-165100000D03*
X75946000Y-167300000D03*
X79756000Y-167300000D03*
X79756000Y-165100000D03*
D12*
X95801000Y-174625000D03*
X98001000Y-174625000D03*
X153586000Y-160020000D03*
X155786000Y-160020000D03*
X155786000Y-171450000D03*
X153586000Y-171450000D03*
X155786000Y-154305000D03*
X153586000Y-154305000D03*
D11*
X84201000Y-151130000D03*
X84201000Y-153330000D03*
D12*
X98001000Y-151765000D03*
X95801000Y-151765000D03*
X136101000Y-154305000D03*
X133901000Y-154305000D03*
X95801000Y-168910000D03*
X98001000Y-168910000D03*
X127676000Y-139065000D03*
X125476000Y-139065000D03*
X155786000Y-165735000D03*
X153586000Y-165735000D03*
X133901000Y-165735000D03*
X136101000Y-165735000D03*
X136101000Y-171450000D03*
X133901000Y-171450000D03*
X95801000Y-157480000D03*
X98001000Y-157480000D03*
M02*
