G04 #@! TF.GenerationSoftware,KiCad,Pcbnew,(5.1.4)-1*
G04 #@! TF.CreationDate,2020-07-10T21:56:12+02:00*
G04 #@! TF.ProjectId,SBIO3,5342494f-332e-46b6-9963-61645f706362,rev?*
G04 #@! TF.SameCoordinates,Original*
G04 #@! TF.FileFunction,Copper,L2,Bot*
G04 #@! TF.FilePolarity,Positive*
%FSLAX46Y46*%
G04 Gerber Fmt 4.6, Leading zero omitted, Abs format (unit mm)*
G04 Created by KiCad (PCBNEW (5.1.4)-1) date 2020-07-10 21:56:12*
%MOMM*%
%LPD*%
G04 APERTURE LIST*
%ADD10C,1.800000*%
%ADD11R,1.800000X1.800000*%
%ADD12C,2.000000*%
%ADD13O,1.700000X1.700000*%
%ADD14R,1.700000X1.700000*%
%ADD15C,0.500000*%
%ADD16C,0.300000*%
%ADD17C,0.500000*%
%ADD18C,0.254000*%
G04 APERTURE END LIST*
D10*
X139446000Y-154305000D03*
D11*
X141986000Y-154305000D03*
D10*
X100711000Y-168910000D03*
D11*
X103251000Y-168910000D03*
D12*
X112291000Y-142240000D03*
X112291000Y-146740000D03*
X105791000Y-142240000D03*
X105791000Y-146740000D03*
D10*
X100711000Y-163195000D03*
D11*
X103251000Y-163195000D03*
D10*
X100711000Y-151765000D03*
D11*
X103251000Y-151765000D03*
D12*
X84201000Y-146740000D03*
X84201000Y-142240000D03*
X90701000Y-146740000D03*
X90701000Y-142240000D03*
X94996000Y-146740000D03*
X94996000Y-142240000D03*
X101496000Y-146740000D03*
X101496000Y-142240000D03*
D10*
X150241000Y-154305000D03*
D11*
X147701000Y-154305000D03*
D12*
X123086000Y-142240000D03*
X123086000Y-146740000D03*
X116586000Y-142240000D03*
X116586000Y-146740000D03*
D11*
X147701000Y-160020000D03*
D10*
X150241000Y-160020000D03*
D11*
X147701000Y-165735000D03*
D10*
X150241000Y-165735000D03*
D11*
X147701000Y-171450000D03*
D10*
X150241000Y-171450000D03*
D11*
X141986000Y-171450000D03*
D10*
X139446000Y-171450000D03*
X139446000Y-160020000D03*
D11*
X141986000Y-160020000D03*
D10*
X100711000Y-157480000D03*
D11*
X103251000Y-157480000D03*
X141986000Y-165735000D03*
D10*
X139446000Y-165735000D03*
D13*
X169227500Y-160845500D03*
X169227500Y-158305500D03*
X169227500Y-155765500D03*
D14*
X169227500Y-153225500D03*
D11*
X103251000Y-174625000D03*
D10*
X100711000Y-174625000D03*
X87376000Y-157480000D03*
D11*
X89916000Y-157480000D03*
D13*
X76581000Y-162179000D03*
X79121000Y-162179000D03*
X76581000Y-159639000D03*
X79121000Y-159639000D03*
X76581000Y-157099000D03*
X79121000Y-157099000D03*
X76581000Y-154559000D03*
X79121000Y-154559000D03*
X76581000Y-152019000D03*
D14*
X79121000Y-152019000D03*
D10*
X87376000Y-151130000D03*
D11*
X89916000Y-151130000D03*
D12*
X133881000Y-142240000D03*
X133881000Y-146740000D03*
X127381000Y-142240000D03*
X127381000Y-146740000D03*
D15*
X162941000Y-170561000D03*
X155829000Y-145288000D03*
X78359000Y-170180000D03*
X140589000Y-143573500D03*
X163449000Y-160337500D03*
X87122000Y-163830000D03*
X87122000Y-170180000D03*
X85217000Y-163830000D03*
X130683000Y-139065000D03*
X119761000Y-164465000D03*
X81580000Y-162179000D03*
X112251000Y-160760000D03*
X75851000Y-172730000D03*
X111301000Y-159770000D03*
X155771000Y-151290000D03*
X91241000Y-168910000D03*
X124251000Y-154320000D03*
X91241000Y-167640000D03*
X84231000Y-164740000D03*
X87391000Y-176320000D03*
D16*
X147701000Y-160020000D02*
X147701000Y-165735000D01*
D17*
X169227500Y-158305500D02*
X169227500Y-160845500D01*
D16*
X147701000Y-165735000D02*
X147701000Y-171450000D01*
X141986000Y-160020000D02*
X141986000Y-165735000D01*
X141986000Y-165735000D02*
X141986000Y-171450000D01*
D17*
X153543000Y-157162500D02*
X125095000Y-157162500D01*
X168338500Y-139065000D02*
X130683000Y-139065000D01*
X87122000Y-163830000D02*
X85217000Y-163830000D01*
X119761000Y-164465000D02*
X119761000Y-165925500D01*
X119761000Y-162496500D02*
X119761000Y-164465000D01*
X169227500Y-153225500D02*
X169227500Y-155765500D01*
X125095000Y-157162500D02*
X119761000Y-162496500D01*
X169227500Y-153225500D02*
X169227500Y-139954000D01*
X95377000Y-167640000D02*
X92837000Y-170180000D01*
X169227500Y-139954000D02*
X168338500Y-139065000D01*
X169227500Y-155765500D02*
X154940000Y-155765500D01*
X119761000Y-165925500D02*
X118046500Y-167640000D01*
X154940000Y-155765500D02*
X153543000Y-157162500D01*
X118046500Y-167640000D02*
X95377000Y-167640000D01*
X92837000Y-170180000D02*
X87122000Y-170180000D01*
D16*
X91621000Y-160760000D02*
X112251000Y-160760000D01*
X90202000Y-162179000D02*
X91621000Y-160760000D01*
X79121000Y-162179000D02*
X81580000Y-162179000D01*
X81580000Y-162179000D02*
X90202000Y-162179000D01*
X75261000Y-160970000D02*
X75261000Y-172140000D01*
X75261000Y-172140000D02*
X75851000Y-172730000D01*
X76581000Y-159639000D02*
X76581000Y-159650000D01*
X76581000Y-159650000D02*
X75261000Y-160970000D01*
X89951000Y-161510000D02*
X91691000Y-159770000D01*
X79121000Y-159639000D02*
X81180000Y-159639000D01*
X83051000Y-161510000D02*
X89951000Y-161510000D01*
X81180000Y-159639000D02*
X83051000Y-161510000D01*
X91691000Y-159770000D02*
X111301000Y-159770000D01*
X115111000Y-166040000D02*
X129861000Y-151290000D01*
X129861000Y-151290000D02*
X155771000Y-151290000D01*
X91241000Y-168910000D02*
X93111000Y-168910000D01*
X93111000Y-168910000D02*
X95981000Y-166040000D01*
X95981000Y-166040000D02*
X115111000Y-166040000D01*
X114861000Y-165390000D02*
X124251000Y-156000000D01*
X95731000Y-165390000D02*
X114861000Y-165390000D01*
X124251000Y-156000000D02*
X124251000Y-154320000D01*
X93481000Y-167640000D02*
X95731000Y-165390000D01*
X91241000Y-167640000D02*
X93481000Y-167640000D01*
X86831000Y-176320000D02*
X87391000Y-176320000D01*
X86231000Y-175130000D02*
X86231000Y-175720000D01*
X86231000Y-175720000D02*
X86831000Y-176320000D01*
X86231000Y-165420000D02*
X86231000Y-175130000D01*
X84231000Y-164740000D02*
X84961000Y-164740000D01*
X84961000Y-164740000D02*
X85551000Y-164740000D01*
X85551000Y-164740000D02*
X86231000Y-165420000D01*
D18*
G36*
X172593000Y-177038000D02*
G01*
X74422000Y-177038000D01*
X74422000Y-160970000D01*
X74681210Y-160970000D01*
X74684000Y-160998331D01*
X74684001Y-172111659D01*
X74681210Y-172140000D01*
X74692349Y-172253111D01*
X74719325Y-172342035D01*
X74725344Y-172361876D01*
X74778922Y-172462115D01*
X74794214Y-172480748D01*
X74832963Y-172527964D01*
X74832966Y-172527967D01*
X74851027Y-172549974D01*
X74873033Y-172568034D01*
X75191957Y-172886959D01*
X75200016Y-172927474D01*
X75251050Y-173050680D01*
X75325140Y-173161563D01*
X75419437Y-173255860D01*
X75530320Y-173329950D01*
X75653526Y-173380984D01*
X75784321Y-173407000D01*
X75917679Y-173407000D01*
X76048474Y-173380984D01*
X76171680Y-173329950D01*
X76282563Y-173255860D01*
X76376860Y-173161563D01*
X76450950Y-173050680D01*
X76501984Y-172927474D01*
X76528000Y-172796679D01*
X76528000Y-172663321D01*
X76501984Y-172532526D01*
X76450950Y-172409320D01*
X76376860Y-172298437D01*
X76282563Y-172204140D01*
X76171680Y-172130050D01*
X76048474Y-172079016D01*
X76007959Y-172070957D01*
X75838000Y-171900999D01*
X75838000Y-164673321D01*
X83554000Y-164673321D01*
X83554000Y-164806679D01*
X83580016Y-164937474D01*
X83631050Y-165060680D01*
X83705140Y-165171563D01*
X83799437Y-165265860D01*
X83910320Y-165339950D01*
X84033526Y-165390984D01*
X84164321Y-165417000D01*
X84297679Y-165417000D01*
X84428474Y-165390984D01*
X84551680Y-165339950D01*
X84586027Y-165317000D01*
X85311999Y-165317000D01*
X85654000Y-165659002D01*
X85654001Y-175101655D01*
X85654000Y-175101665D01*
X85654000Y-175691669D01*
X85651210Y-175720000D01*
X85662349Y-175833111D01*
X85675897Y-175877770D01*
X85695343Y-175941876D01*
X85748922Y-176042115D01*
X85779840Y-176079788D01*
X85802963Y-176107964D01*
X85802966Y-176107967D01*
X85821027Y-176129974D01*
X85843033Y-176148034D01*
X86402965Y-176707967D01*
X86421026Y-176729974D01*
X86443033Y-176748035D01*
X86443035Y-176748037D01*
X86462980Y-176764405D01*
X86508885Y-176802079D01*
X86609124Y-176855657D01*
X86717888Y-176888650D01*
X86802664Y-176897000D01*
X86802670Y-176897000D01*
X86830999Y-176899790D01*
X86859328Y-176897000D01*
X87035973Y-176897000D01*
X87070320Y-176919950D01*
X87193526Y-176970984D01*
X87324321Y-176997000D01*
X87457679Y-176997000D01*
X87588474Y-176970984D01*
X87711680Y-176919950D01*
X87822563Y-176845860D01*
X87916860Y-176751563D01*
X87990950Y-176640680D01*
X88041984Y-176517474D01*
X88068000Y-176386679D01*
X88068000Y-176253321D01*
X88041984Y-176122526D01*
X87990950Y-175999320D01*
X87916860Y-175888437D01*
X87822563Y-175794140D01*
X87711680Y-175720050D01*
X87588474Y-175669016D01*
X87457679Y-175643000D01*
X87324321Y-175643000D01*
X87193526Y-175669016D01*
X87070320Y-175720050D01*
X87056372Y-175729370D01*
X86808000Y-175480999D01*
X86808000Y-174494302D01*
X99384000Y-174494302D01*
X99384000Y-174755698D01*
X99434996Y-175012072D01*
X99535028Y-175253570D01*
X99680252Y-175470913D01*
X99865087Y-175655748D01*
X100082430Y-175800972D01*
X100323928Y-175901004D01*
X100580302Y-175952000D01*
X100841698Y-175952000D01*
X101098072Y-175901004D01*
X101339570Y-175800972D01*
X101556913Y-175655748D01*
X101713055Y-175499606D01*
X101712928Y-175525000D01*
X101725188Y-175649482D01*
X101761498Y-175769180D01*
X101820463Y-175879494D01*
X101899815Y-175976185D01*
X101996506Y-176055537D01*
X102106820Y-176114502D01*
X102226518Y-176150812D01*
X102351000Y-176163072D01*
X102965250Y-176160000D01*
X103124000Y-176001250D01*
X103124000Y-174752000D01*
X103378000Y-174752000D01*
X103378000Y-176001250D01*
X103536750Y-176160000D01*
X104151000Y-176163072D01*
X104275482Y-176150812D01*
X104395180Y-176114502D01*
X104505494Y-176055537D01*
X104602185Y-175976185D01*
X104681537Y-175879494D01*
X104740502Y-175769180D01*
X104776812Y-175649482D01*
X104789072Y-175525000D01*
X104786000Y-174910750D01*
X104627250Y-174752000D01*
X103378000Y-174752000D01*
X103124000Y-174752000D01*
X103104000Y-174752000D01*
X103104000Y-174498000D01*
X103124000Y-174498000D01*
X103124000Y-173248750D01*
X103378000Y-173248750D01*
X103378000Y-174498000D01*
X104627250Y-174498000D01*
X104786000Y-174339250D01*
X104789072Y-173725000D01*
X104776812Y-173600518D01*
X104740502Y-173480820D01*
X104681537Y-173370506D01*
X104602185Y-173273815D01*
X104505494Y-173194463D01*
X104395180Y-173135498D01*
X104275482Y-173099188D01*
X104151000Y-173086928D01*
X103536750Y-173090000D01*
X103378000Y-173248750D01*
X103124000Y-173248750D01*
X102965250Y-173090000D01*
X102351000Y-173086928D01*
X102226518Y-173099188D01*
X102106820Y-173135498D01*
X101996506Y-173194463D01*
X101899815Y-173273815D01*
X101820463Y-173370506D01*
X101761498Y-173480820D01*
X101725188Y-173600518D01*
X101712928Y-173725000D01*
X101713055Y-173750394D01*
X101556913Y-173594252D01*
X101339570Y-173449028D01*
X101098072Y-173348996D01*
X100841698Y-173298000D01*
X100580302Y-173298000D01*
X100323928Y-173348996D01*
X100082430Y-173449028D01*
X99865087Y-173594252D01*
X99680252Y-173779087D01*
X99535028Y-173996430D01*
X99434996Y-174237928D01*
X99384000Y-174494302D01*
X86808000Y-174494302D01*
X86808000Y-171319302D01*
X138119000Y-171319302D01*
X138119000Y-171580698D01*
X138169996Y-171837072D01*
X138270028Y-172078570D01*
X138415252Y-172295913D01*
X138600087Y-172480748D01*
X138817430Y-172625972D01*
X139058928Y-172726004D01*
X139315302Y-172777000D01*
X139576698Y-172777000D01*
X139833072Y-172726004D01*
X140074570Y-172625972D01*
X140291913Y-172480748D01*
X140448055Y-172324606D01*
X140447928Y-172350000D01*
X140460188Y-172474482D01*
X140496498Y-172594180D01*
X140555463Y-172704494D01*
X140634815Y-172801185D01*
X140731506Y-172880537D01*
X140841820Y-172939502D01*
X140961518Y-172975812D01*
X141086000Y-172988072D01*
X141700250Y-172985000D01*
X141859000Y-172826250D01*
X141859000Y-171577000D01*
X142113000Y-171577000D01*
X142113000Y-172826250D01*
X142271750Y-172985000D01*
X142886000Y-172988072D01*
X143010482Y-172975812D01*
X143130180Y-172939502D01*
X143240494Y-172880537D01*
X143337185Y-172801185D01*
X143416537Y-172704494D01*
X143475502Y-172594180D01*
X143511812Y-172474482D01*
X143524072Y-172350000D01*
X146162928Y-172350000D01*
X146175188Y-172474482D01*
X146211498Y-172594180D01*
X146270463Y-172704494D01*
X146349815Y-172801185D01*
X146446506Y-172880537D01*
X146556820Y-172939502D01*
X146676518Y-172975812D01*
X146801000Y-172988072D01*
X147415250Y-172985000D01*
X147574000Y-172826250D01*
X147574000Y-171577000D01*
X146324750Y-171577000D01*
X146166000Y-171735750D01*
X146162928Y-172350000D01*
X143524072Y-172350000D01*
X143521000Y-171735750D01*
X143362250Y-171577000D01*
X142113000Y-171577000D01*
X141859000Y-171577000D01*
X141839000Y-171577000D01*
X141839000Y-171323000D01*
X141859000Y-171323000D01*
X141859000Y-170073750D01*
X142113000Y-170073750D01*
X142113000Y-171323000D01*
X143362250Y-171323000D01*
X143521000Y-171164250D01*
X143524072Y-170550000D01*
X146162928Y-170550000D01*
X146166000Y-171164250D01*
X146324750Y-171323000D01*
X147574000Y-171323000D01*
X147574000Y-170073750D01*
X147828000Y-170073750D01*
X147828000Y-171323000D01*
X147848000Y-171323000D01*
X147848000Y-171577000D01*
X147828000Y-171577000D01*
X147828000Y-172826250D01*
X147986750Y-172985000D01*
X148601000Y-172988072D01*
X148725482Y-172975812D01*
X148845180Y-172939502D01*
X148955494Y-172880537D01*
X149052185Y-172801185D01*
X149131537Y-172704494D01*
X149190502Y-172594180D01*
X149226812Y-172474482D01*
X149239072Y-172350000D01*
X149238945Y-172324606D01*
X149395087Y-172480748D01*
X149612430Y-172625972D01*
X149853928Y-172726004D01*
X150110302Y-172777000D01*
X150371698Y-172777000D01*
X150628072Y-172726004D01*
X150869570Y-172625972D01*
X151086913Y-172480748D01*
X151271748Y-172295913D01*
X151416972Y-172078570D01*
X151517004Y-171837072D01*
X151568000Y-171580698D01*
X151568000Y-171319302D01*
X151517004Y-171062928D01*
X151416972Y-170821430D01*
X151271748Y-170604087D01*
X151086913Y-170419252D01*
X150869570Y-170274028D01*
X150628072Y-170173996D01*
X150371698Y-170123000D01*
X150110302Y-170123000D01*
X149853928Y-170173996D01*
X149612430Y-170274028D01*
X149395087Y-170419252D01*
X149238945Y-170575394D01*
X149239072Y-170550000D01*
X149226812Y-170425518D01*
X149190502Y-170305820D01*
X149131537Y-170195506D01*
X149052185Y-170098815D01*
X148955494Y-170019463D01*
X148845180Y-169960498D01*
X148725482Y-169924188D01*
X148601000Y-169911928D01*
X147986750Y-169915000D01*
X147828000Y-170073750D01*
X147574000Y-170073750D01*
X147415250Y-169915000D01*
X146801000Y-169911928D01*
X146676518Y-169924188D01*
X146556820Y-169960498D01*
X146446506Y-170019463D01*
X146349815Y-170098815D01*
X146270463Y-170195506D01*
X146211498Y-170305820D01*
X146175188Y-170425518D01*
X146162928Y-170550000D01*
X143524072Y-170550000D01*
X143511812Y-170425518D01*
X143475502Y-170305820D01*
X143416537Y-170195506D01*
X143337185Y-170098815D01*
X143240494Y-170019463D01*
X143130180Y-169960498D01*
X143010482Y-169924188D01*
X142886000Y-169911928D01*
X142271750Y-169915000D01*
X142113000Y-170073750D01*
X141859000Y-170073750D01*
X141700250Y-169915000D01*
X141086000Y-169911928D01*
X140961518Y-169924188D01*
X140841820Y-169960498D01*
X140731506Y-170019463D01*
X140634815Y-170098815D01*
X140555463Y-170195506D01*
X140496498Y-170305820D01*
X140460188Y-170425518D01*
X140447928Y-170550000D01*
X140448055Y-170575394D01*
X140291913Y-170419252D01*
X140074570Y-170274028D01*
X139833072Y-170173996D01*
X139576698Y-170123000D01*
X139315302Y-170123000D01*
X139058928Y-170173996D01*
X138817430Y-170274028D01*
X138600087Y-170419252D01*
X138415252Y-170604087D01*
X138270028Y-170821430D01*
X138169996Y-171062928D01*
X138119000Y-171319302D01*
X86808000Y-171319302D01*
X86808000Y-170782717D01*
X86832208Y-170792744D01*
X86861670Y-170808492D01*
X86893636Y-170818189D01*
X86924526Y-170830984D01*
X86957315Y-170837506D01*
X86989285Y-170847204D01*
X87022536Y-170850479D01*
X87055321Y-170857000D01*
X92803755Y-170857000D01*
X92837000Y-170860274D01*
X92870245Y-170857000D01*
X92870252Y-170857000D01*
X92969715Y-170847204D01*
X93097330Y-170808492D01*
X93214941Y-170745628D01*
X93318027Y-170661027D01*
X93339226Y-170635196D01*
X95657422Y-168317000D01*
X99520294Y-168317000D01*
X99434996Y-168522928D01*
X99384000Y-168779302D01*
X99384000Y-169040698D01*
X99434996Y-169297072D01*
X99535028Y-169538570D01*
X99680252Y-169755913D01*
X99865087Y-169940748D01*
X100082430Y-170085972D01*
X100323928Y-170186004D01*
X100580302Y-170237000D01*
X100841698Y-170237000D01*
X101098072Y-170186004D01*
X101339570Y-170085972D01*
X101556913Y-169940748D01*
X101713055Y-169784606D01*
X101712928Y-169810000D01*
X101725188Y-169934482D01*
X101761498Y-170054180D01*
X101820463Y-170164494D01*
X101899815Y-170261185D01*
X101996506Y-170340537D01*
X102106820Y-170399502D01*
X102226518Y-170435812D01*
X102351000Y-170448072D01*
X102965250Y-170445000D01*
X103124000Y-170286250D01*
X103124000Y-169037000D01*
X103378000Y-169037000D01*
X103378000Y-170286250D01*
X103536750Y-170445000D01*
X104151000Y-170448072D01*
X104275482Y-170435812D01*
X104395180Y-170399502D01*
X104505494Y-170340537D01*
X104602185Y-170261185D01*
X104681537Y-170164494D01*
X104740502Y-170054180D01*
X104776812Y-169934482D01*
X104789072Y-169810000D01*
X104786000Y-169195750D01*
X104627250Y-169037000D01*
X103378000Y-169037000D01*
X103124000Y-169037000D01*
X103104000Y-169037000D01*
X103104000Y-168783000D01*
X103124000Y-168783000D01*
X103124000Y-168763000D01*
X103378000Y-168763000D01*
X103378000Y-168783000D01*
X104627250Y-168783000D01*
X104786000Y-168624250D01*
X104787537Y-168317000D01*
X118013255Y-168317000D01*
X118046500Y-168320274D01*
X118079745Y-168317000D01*
X118079752Y-168317000D01*
X118179215Y-168307204D01*
X118306830Y-168268492D01*
X118424441Y-168205628D01*
X118527527Y-168121027D01*
X118548726Y-168095196D01*
X120216196Y-166427726D01*
X120242027Y-166406527D01*
X120326628Y-166303441D01*
X120389492Y-166185830D01*
X120428204Y-166058215D01*
X120438000Y-165958752D01*
X120438000Y-165958743D01*
X120441274Y-165925501D01*
X120438000Y-165892259D01*
X120438000Y-165604302D01*
X138119000Y-165604302D01*
X138119000Y-165865698D01*
X138169996Y-166122072D01*
X138270028Y-166363570D01*
X138415252Y-166580913D01*
X138600087Y-166765748D01*
X138817430Y-166910972D01*
X139058928Y-167011004D01*
X139315302Y-167062000D01*
X139576698Y-167062000D01*
X139833072Y-167011004D01*
X140074570Y-166910972D01*
X140291913Y-166765748D01*
X140448055Y-166609606D01*
X140447928Y-166635000D01*
X140460188Y-166759482D01*
X140496498Y-166879180D01*
X140555463Y-166989494D01*
X140634815Y-167086185D01*
X140731506Y-167165537D01*
X140841820Y-167224502D01*
X140961518Y-167260812D01*
X141086000Y-167273072D01*
X141700250Y-167270000D01*
X141859000Y-167111250D01*
X141859000Y-165862000D01*
X142113000Y-165862000D01*
X142113000Y-167111250D01*
X142271750Y-167270000D01*
X142886000Y-167273072D01*
X143010482Y-167260812D01*
X143130180Y-167224502D01*
X143240494Y-167165537D01*
X143337185Y-167086185D01*
X143416537Y-166989494D01*
X143475502Y-166879180D01*
X143511812Y-166759482D01*
X143524072Y-166635000D01*
X146162928Y-166635000D01*
X146175188Y-166759482D01*
X146211498Y-166879180D01*
X146270463Y-166989494D01*
X146349815Y-167086185D01*
X146446506Y-167165537D01*
X146556820Y-167224502D01*
X146676518Y-167260812D01*
X146801000Y-167273072D01*
X147415250Y-167270000D01*
X147574000Y-167111250D01*
X147574000Y-165862000D01*
X146324750Y-165862000D01*
X146166000Y-166020750D01*
X146162928Y-166635000D01*
X143524072Y-166635000D01*
X143521000Y-166020750D01*
X143362250Y-165862000D01*
X142113000Y-165862000D01*
X141859000Y-165862000D01*
X141839000Y-165862000D01*
X141839000Y-165608000D01*
X141859000Y-165608000D01*
X141859000Y-164358750D01*
X142113000Y-164358750D01*
X142113000Y-165608000D01*
X143362250Y-165608000D01*
X143521000Y-165449250D01*
X143524072Y-164835000D01*
X146162928Y-164835000D01*
X146166000Y-165449250D01*
X146324750Y-165608000D01*
X147574000Y-165608000D01*
X147574000Y-164358750D01*
X147828000Y-164358750D01*
X147828000Y-165608000D01*
X147848000Y-165608000D01*
X147848000Y-165862000D01*
X147828000Y-165862000D01*
X147828000Y-167111250D01*
X147986750Y-167270000D01*
X148601000Y-167273072D01*
X148725482Y-167260812D01*
X148845180Y-167224502D01*
X148955494Y-167165537D01*
X149052185Y-167086185D01*
X149131537Y-166989494D01*
X149190502Y-166879180D01*
X149226812Y-166759482D01*
X149239072Y-166635000D01*
X149238945Y-166609606D01*
X149395087Y-166765748D01*
X149612430Y-166910972D01*
X149853928Y-167011004D01*
X150110302Y-167062000D01*
X150371698Y-167062000D01*
X150628072Y-167011004D01*
X150869570Y-166910972D01*
X151086913Y-166765748D01*
X151271748Y-166580913D01*
X151416972Y-166363570D01*
X151517004Y-166122072D01*
X151568000Y-165865698D01*
X151568000Y-165604302D01*
X151517004Y-165347928D01*
X151416972Y-165106430D01*
X151271748Y-164889087D01*
X151086913Y-164704252D01*
X150869570Y-164559028D01*
X150628072Y-164458996D01*
X150371698Y-164408000D01*
X150110302Y-164408000D01*
X149853928Y-164458996D01*
X149612430Y-164559028D01*
X149395087Y-164704252D01*
X149238945Y-164860394D01*
X149239072Y-164835000D01*
X149226812Y-164710518D01*
X149190502Y-164590820D01*
X149131537Y-164480506D01*
X149052185Y-164383815D01*
X148955494Y-164304463D01*
X148845180Y-164245498D01*
X148725482Y-164209188D01*
X148601000Y-164196928D01*
X147986750Y-164200000D01*
X147828000Y-164358750D01*
X147574000Y-164358750D01*
X147415250Y-164200000D01*
X146801000Y-164196928D01*
X146676518Y-164209188D01*
X146556820Y-164245498D01*
X146446506Y-164304463D01*
X146349815Y-164383815D01*
X146270463Y-164480506D01*
X146211498Y-164590820D01*
X146175188Y-164710518D01*
X146162928Y-164835000D01*
X143524072Y-164835000D01*
X143511812Y-164710518D01*
X143475502Y-164590820D01*
X143416537Y-164480506D01*
X143337185Y-164383815D01*
X143240494Y-164304463D01*
X143130180Y-164245498D01*
X143010482Y-164209188D01*
X142886000Y-164196928D01*
X142271750Y-164200000D01*
X142113000Y-164358750D01*
X141859000Y-164358750D01*
X141700250Y-164200000D01*
X141086000Y-164196928D01*
X140961518Y-164209188D01*
X140841820Y-164245498D01*
X140731506Y-164304463D01*
X140634815Y-164383815D01*
X140555463Y-164480506D01*
X140496498Y-164590820D01*
X140460188Y-164710518D01*
X140447928Y-164835000D01*
X140448055Y-164860394D01*
X140291913Y-164704252D01*
X140074570Y-164559028D01*
X139833072Y-164458996D01*
X139576698Y-164408000D01*
X139315302Y-164408000D01*
X139058928Y-164458996D01*
X138817430Y-164559028D01*
X138600087Y-164704252D01*
X138415252Y-164889087D01*
X138270028Y-165106430D01*
X138169996Y-165347928D01*
X138119000Y-165604302D01*
X120438000Y-165604302D01*
X120438000Y-162776922D01*
X123325620Y-159889302D01*
X138119000Y-159889302D01*
X138119000Y-160150698D01*
X138169996Y-160407072D01*
X138270028Y-160648570D01*
X138415252Y-160865913D01*
X138600087Y-161050748D01*
X138817430Y-161195972D01*
X139058928Y-161296004D01*
X139315302Y-161347000D01*
X139576698Y-161347000D01*
X139833072Y-161296004D01*
X140074570Y-161195972D01*
X140291913Y-161050748D01*
X140448055Y-160894606D01*
X140447928Y-160920000D01*
X140460188Y-161044482D01*
X140496498Y-161164180D01*
X140555463Y-161274494D01*
X140634815Y-161371185D01*
X140731506Y-161450537D01*
X140841820Y-161509502D01*
X140961518Y-161545812D01*
X141086000Y-161558072D01*
X141700250Y-161555000D01*
X141859000Y-161396250D01*
X141859000Y-160147000D01*
X142113000Y-160147000D01*
X142113000Y-161396250D01*
X142271750Y-161555000D01*
X142886000Y-161558072D01*
X143010482Y-161545812D01*
X143130180Y-161509502D01*
X143240494Y-161450537D01*
X143337185Y-161371185D01*
X143416537Y-161274494D01*
X143475502Y-161164180D01*
X143511812Y-161044482D01*
X143524072Y-160920000D01*
X146162928Y-160920000D01*
X146175188Y-161044482D01*
X146211498Y-161164180D01*
X146270463Y-161274494D01*
X146349815Y-161371185D01*
X146446506Y-161450537D01*
X146556820Y-161509502D01*
X146676518Y-161545812D01*
X146801000Y-161558072D01*
X147415250Y-161555000D01*
X147574000Y-161396250D01*
X147574000Y-160147000D01*
X146324750Y-160147000D01*
X146166000Y-160305750D01*
X146162928Y-160920000D01*
X143524072Y-160920000D01*
X143521000Y-160305750D01*
X143362250Y-160147000D01*
X142113000Y-160147000D01*
X141859000Y-160147000D01*
X141839000Y-160147000D01*
X141839000Y-159893000D01*
X141859000Y-159893000D01*
X141859000Y-158643750D01*
X142113000Y-158643750D01*
X142113000Y-159893000D01*
X143362250Y-159893000D01*
X143521000Y-159734250D01*
X143524072Y-159120000D01*
X146162928Y-159120000D01*
X146166000Y-159734250D01*
X146324750Y-159893000D01*
X147574000Y-159893000D01*
X147574000Y-158643750D01*
X147828000Y-158643750D01*
X147828000Y-159893000D01*
X147848000Y-159893000D01*
X147848000Y-160147000D01*
X147828000Y-160147000D01*
X147828000Y-161396250D01*
X147986750Y-161555000D01*
X148601000Y-161558072D01*
X148725482Y-161545812D01*
X148845180Y-161509502D01*
X148955494Y-161450537D01*
X149052185Y-161371185D01*
X149131537Y-161274494D01*
X149190502Y-161164180D01*
X149226812Y-161044482D01*
X149239072Y-160920000D01*
X149238945Y-160894606D01*
X149395087Y-161050748D01*
X149612430Y-161195972D01*
X149853928Y-161296004D01*
X150110302Y-161347000D01*
X150371698Y-161347000D01*
X150628072Y-161296004D01*
X150854075Y-161202390D01*
X167786024Y-161202390D01*
X167830675Y-161349599D01*
X167955859Y-161612420D01*
X168129912Y-161845769D01*
X168346145Y-162040678D01*
X168596248Y-162189657D01*
X168870609Y-162286981D01*
X169100500Y-162166314D01*
X169100500Y-160972500D01*
X169354500Y-160972500D01*
X169354500Y-162166314D01*
X169584391Y-162286981D01*
X169858752Y-162189657D01*
X170108855Y-162040678D01*
X170325088Y-161845769D01*
X170499141Y-161612420D01*
X170624325Y-161349599D01*
X170668976Y-161202390D01*
X170547655Y-160972500D01*
X169354500Y-160972500D01*
X169100500Y-160972500D01*
X167907345Y-160972500D01*
X167786024Y-161202390D01*
X150854075Y-161202390D01*
X150869570Y-161195972D01*
X151086913Y-161050748D01*
X151271748Y-160865913D01*
X151416972Y-160648570D01*
X151517004Y-160407072D01*
X151568000Y-160150698D01*
X151568000Y-159889302D01*
X151517004Y-159632928D01*
X151416972Y-159391430D01*
X151271748Y-159174087D01*
X151086913Y-158989252D01*
X150869570Y-158844028D01*
X150628072Y-158743996D01*
X150371698Y-158693000D01*
X150110302Y-158693000D01*
X149853928Y-158743996D01*
X149612430Y-158844028D01*
X149395087Y-158989252D01*
X149238945Y-159145394D01*
X149239072Y-159120000D01*
X149226812Y-158995518D01*
X149190502Y-158875820D01*
X149131537Y-158765506D01*
X149052185Y-158668815D01*
X149044357Y-158662390D01*
X167786024Y-158662390D01*
X167830675Y-158809599D01*
X167955859Y-159072420D01*
X168129912Y-159305769D01*
X168346145Y-159500678D01*
X168471755Y-159575500D01*
X168346145Y-159650322D01*
X168129912Y-159845231D01*
X167955859Y-160078580D01*
X167830675Y-160341401D01*
X167786024Y-160488610D01*
X167907345Y-160718500D01*
X169100500Y-160718500D01*
X169100500Y-158432500D01*
X169354500Y-158432500D01*
X169354500Y-160718500D01*
X170547655Y-160718500D01*
X170668976Y-160488610D01*
X170624325Y-160341401D01*
X170499141Y-160078580D01*
X170325088Y-159845231D01*
X170108855Y-159650322D01*
X169983245Y-159575500D01*
X170108855Y-159500678D01*
X170325088Y-159305769D01*
X170499141Y-159072420D01*
X170624325Y-158809599D01*
X170668976Y-158662390D01*
X170547655Y-158432500D01*
X169354500Y-158432500D01*
X169100500Y-158432500D01*
X167907345Y-158432500D01*
X167786024Y-158662390D01*
X149044357Y-158662390D01*
X148955494Y-158589463D01*
X148845180Y-158530498D01*
X148725482Y-158494188D01*
X148601000Y-158481928D01*
X147986750Y-158485000D01*
X147828000Y-158643750D01*
X147574000Y-158643750D01*
X147415250Y-158485000D01*
X146801000Y-158481928D01*
X146676518Y-158494188D01*
X146556820Y-158530498D01*
X146446506Y-158589463D01*
X146349815Y-158668815D01*
X146270463Y-158765506D01*
X146211498Y-158875820D01*
X146175188Y-158995518D01*
X146162928Y-159120000D01*
X143524072Y-159120000D01*
X143511812Y-158995518D01*
X143475502Y-158875820D01*
X143416537Y-158765506D01*
X143337185Y-158668815D01*
X143240494Y-158589463D01*
X143130180Y-158530498D01*
X143010482Y-158494188D01*
X142886000Y-158481928D01*
X142271750Y-158485000D01*
X142113000Y-158643750D01*
X141859000Y-158643750D01*
X141700250Y-158485000D01*
X141086000Y-158481928D01*
X140961518Y-158494188D01*
X140841820Y-158530498D01*
X140731506Y-158589463D01*
X140634815Y-158668815D01*
X140555463Y-158765506D01*
X140496498Y-158875820D01*
X140460188Y-158995518D01*
X140447928Y-159120000D01*
X140448055Y-159145394D01*
X140291913Y-158989252D01*
X140074570Y-158844028D01*
X139833072Y-158743996D01*
X139576698Y-158693000D01*
X139315302Y-158693000D01*
X139058928Y-158743996D01*
X138817430Y-158844028D01*
X138600087Y-158989252D01*
X138415252Y-159174087D01*
X138270028Y-159391430D01*
X138169996Y-159632928D01*
X138119000Y-159889302D01*
X123325620Y-159889302D01*
X125375422Y-157839500D01*
X153509755Y-157839500D01*
X153543000Y-157842774D01*
X153576245Y-157839500D01*
X153576252Y-157839500D01*
X153675715Y-157829704D01*
X153803330Y-157790992D01*
X153920941Y-157728128D01*
X154024027Y-157643527D01*
X154045226Y-157617696D01*
X155220422Y-156442500D01*
X168141389Y-156442500D01*
X168160576Y-156478396D01*
X168320156Y-156672844D01*
X168514604Y-156832424D01*
X168692150Y-156927324D01*
X168596248Y-156961343D01*
X168346145Y-157110322D01*
X168129912Y-157305231D01*
X167955859Y-157538580D01*
X167830675Y-157801401D01*
X167786024Y-157948610D01*
X167907345Y-158178500D01*
X169100500Y-158178500D01*
X169100500Y-158158500D01*
X169354500Y-158158500D01*
X169354500Y-158178500D01*
X170547655Y-158178500D01*
X170668976Y-157948610D01*
X170624325Y-157801401D01*
X170499141Y-157538580D01*
X170325088Y-157305231D01*
X170108855Y-157110322D01*
X169858752Y-156961343D01*
X169762850Y-156927324D01*
X169940396Y-156832424D01*
X170134844Y-156672844D01*
X170294424Y-156478396D01*
X170413002Y-156256551D01*
X170486022Y-156015836D01*
X170510678Y-155765500D01*
X170486022Y-155515164D01*
X170413002Y-155274449D01*
X170294424Y-155052604D01*
X170134844Y-154858156D01*
X169940396Y-154698576D01*
X169904500Y-154679389D01*
X169904500Y-154504566D01*
X170077500Y-154504566D01*
X170161207Y-154496322D01*
X170241696Y-154471905D01*
X170315876Y-154432255D01*
X170380895Y-154378895D01*
X170434255Y-154313876D01*
X170473905Y-154239696D01*
X170498322Y-154159207D01*
X170506566Y-154075500D01*
X170506566Y-152375500D01*
X170498322Y-152291793D01*
X170473905Y-152211304D01*
X170434255Y-152137124D01*
X170380895Y-152072105D01*
X170315876Y-152018745D01*
X170241696Y-151979095D01*
X170161207Y-151954678D01*
X170077500Y-151946434D01*
X169904500Y-151946434D01*
X169904500Y-139987252D01*
X169907775Y-139954000D01*
X169894704Y-139821285D01*
X169855992Y-139693670D01*
X169793128Y-139576059D01*
X169729724Y-139498801D01*
X169729722Y-139498799D01*
X169708527Y-139472973D01*
X169682701Y-139451778D01*
X168840726Y-138609804D01*
X168819527Y-138583973D01*
X168716441Y-138499372D01*
X168598830Y-138436508D01*
X168471215Y-138397796D01*
X168371752Y-138388000D01*
X168371745Y-138388000D01*
X168338500Y-138384726D01*
X168305255Y-138388000D01*
X130616321Y-138388000D01*
X130583536Y-138394521D01*
X130550285Y-138397796D01*
X130518315Y-138407494D01*
X130485526Y-138414016D01*
X130454636Y-138426811D01*
X130422670Y-138436508D01*
X130393208Y-138452256D01*
X130362320Y-138465050D01*
X130334524Y-138483623D01*
X130305059Y-138499372D01*
X130279231Y-138520568D01*
X130251437Y-138539140D01*
X130227801Y-138562776D01*
X130201973Y-138583973D01*
X130180778Y-138609799D01*
X130157140Y-138633437D01*
X130138568Y-138661231D01*
X130117372Y-138687059D01*
X130101623Y-138716524D01*
X130083050Y-138744320D01*
X130070256Y-138775208D01*
X130054508Y-138804670D01*
X130044811Y-138836636D01*
X130032016Y-138867526D01*
X130025494Y-138900315D01*
X130015796Y-138932285D01*
X130012521Y-138965536D01*
X130006000Y-138998321D01*
X130006000Y-139031748D01*
X130002725Y-139065000D01*
X130006000Y-139098252D01*
X130006000Y-139131679D01*
X130012521Y-139164464D01*
X130015796Y-139197715D01*
X130025494Y-139229685D01*
X130032016Y-139262474D01*
X130044811Y-139293364D01*
X130054508Y-139325330D01*
X130070256Y-139354792D01*
X130083050Y-139385680D01*
X130101623Y-139413476D01*
X130117372Y-139442941D01*
X130138568Y-139468769D01*
X130157140Y-139496563D01*
X130180778Y-139520201D01*
X130201973Y-139546027D01*
X130227799Y-139567222D01*
X130251437Y-139590860D01*
X130279231Y-139609432D01*
X130305059Y-139630628D01*
X130334524Y-139646377D01*
X130362320Y-139664950D01*
X130393208Y-139677744D01*
X130422670Y-139693492D01*
X130454636Y-139703189D01*
X130485526Y-139715984D01*
X130518315Y-139722506D01*
X130550285Y-139732204D01*
X130583536Y-139735479D01*
X130616321Y-139742000D01*
X168058078Y-139742000D01*
X168550501Y-140234424D01*
X168550500Y-151946434D01*
X168377500Y-151946434D01*
X168293793Y-151954678D01*
X168213304Y-151979095D01*
X168139124Y-152018745D01*
X168074105Y-152072105D01*
X168020745Y-152137124D01*
X167981095Y-152211304D01*
X167956678Y-152291793D01*
X167948434Y-152375500D01*
X167948434Y-154075500D01*
X167956678Y-154159207D01*
X167981095Y-154239696D01*
X168020745Y-154313876D01*
X168074105Y-154378895D01*
X168139124Y-154432255D01*
X168213304Y-154471905D01*
X168293793Y-154496322D01*
X168377500Y-154504566D01*
X168550501Y-154504566D01*
X168550501Y-154679389D01*
X168514604Y-154698576D01*
X168320156Y-154858156D01*
X168160576Y-155052604D01*
X168141389Y-155088500D01*
X154973241Y-155088500D01*
X154939999Y-155085226D01*
X154906757Y-155088500D01*
X154906748Y-155088500D01*
X154807285Y-155098296D01*
X154679670Y-155137008D01*
X154562059Y-155199872D01*
X154458973Y-155284473D01*
X154437774Y-155310304D01*
X153262578Y-156485500D01*
X125481502Y-156485500D01*
X127792700Y-154174302D01*
X138119000Y-154174302D01*
X138119000Y-154435698D01*
X138169996Y-154692072D01*
X138270028Y-154933570D01*
X138415252Y-155150913D01*
X138600087Y-155335748D01*
X138817430Y-155480972D01*
X139058928Y-155581004D01*
X139315302Y-155632000D01*
X139576698Y-155632000D01*
X139833072Y-155581004D01*
X140074570Y-155480972D01*
X140291913Y-155335748D01*
X140448055Y-155179606D01*
X140447928Y-155205000D01*
X140460188Y-155329482D01*
X140496498Y-155449180D01*
X140555463Y-155559494D01*
X140634815Y-155656185D01*
X140731506Y-155735537D01*
X140841820Y-155794502D01*
X140961518Y-155830812D01*
X141086000Y-155843072D01*
X141700250Y-155840000D01*
X141859000Y-155681250D01*
X141859000Y-154432000D01*
X142113000Y-154432000D01*
X142113000Y-155681250D01*
X142271750Y-155840000D01*
X142886000Y-155843072D01*
X143010482Y-155830812D01*
X143130180Y-155794502D01*
X143240494Y-155735537D01*
X143337185Y-155656185D01*
X143416537Y-155559494D01*
X143475502Y-155449180D01*
X143511812Y-155329482D01*
X143524072Y-155205000D01*
X146162928Y-155205000D01*
X146175188Y-155329482D01*
X146211498Y-155449180D01*
X146270463Y-155559494D01*
X146349815Y-155656185D01*
X146446506Y-155735537D01*
X146556820Y-155794502D01*
X146676518Y-155830812D01*
X146801000Y-155843072D01*
X147415250Y-155840000D01*
X147574000Y-155681250D01*
X147574000Y-154432000D01*
X146324750Y-154432000D01*
X146166000Y-154590750D01*
X146162928Y-155205000D01*
X143524072Y-155205000D01*
X143521000Y-154590750D01*
X143362250Y-154432000D01*
X142113000Y-154432000D01*
X141859000Y-154432000D01*
X141839000Y-154432000D01*
X141839000Y-154178000D01*
X141859000Y-154178000D01*
X141859000Y-152928750D01*
X142113000Y-152928750D01*
X142113000Y-154178000D01*
X143362250Y-154178000D01*
X143521000Y-154019250D01*
X143524072Y-153405000D01*
X146162928Y-153405000D01*
X146166000Y-154019250D01*
X146324750Y-154178000D01*
X147574000Y-154178000D01*
X147574000Y-152928750D01*
X147828000Y-152928750D01*
X147828000Y-154178000D01*
X147848000Y-154178000D01*
X147848000Y-154432000D01*
X147828000Y-154432000D01*
X147828000Y-155681250D01*
X147986750Y-155840000D01*
X148601000Y-155843072D01*
X148725482Y-155830812D01*
X148845180Y-155794502D01*
X148955494Y-155735537D01*
X149052185Y-155656185D01*
X149131537Y-155559494D01*
X149190502Y-155449180D01*
X149226812Y-155329482D01*
X149239072Y-155205000D01*
X149238945Y-155179606D01*
X149395087Y-155335748D01*
X149612430Y-155480972D01*
X149853928Y-155581004D01*
X150110302Y-155632000D01*
X150371698Y-155632000D01*
X150628072Y-155581004D01*
X150869570Y-155480972D01*
X151086913Y-155335748D01*
X151271748Y-155150913D01*
X151416972Y-154933570D01*
X151517004Y-154692072D01*
X151568000Y-154435698D01*
X151568000Y-154174302D01*
X151517004Y-153917928D01*
X151416972Y-153676430D01*
X151271748Y-153459087D01*
X151086913Y-153274252D01*
X150869570Y-153129028D01*
X150628072Y-153028996D01*
X150371698Y-152978000D01*
X150110302Y-152978000D01*
X149853928Y-153028996D01*
X149612430Y-153129028D01*
X149395087Y-153274252D01*
X149238945Y-153430394D01*
X149239072Y-153405000D01*
X149226812Y-153280518D01*
X149190502Y-153160820D01*
X149131537Y-153050506D01*
X149052185Y-152953815D01*
X148955494Y-152874463D01*
X148845180Y-152815498D01*
X148725482Y-152779188D01*
X148601000Y-152766928D01*
X147986750Y-152770000D01*
X147828000Y-152928750D01*
X147574000Y-152928750D01*
X147415250Y-152770000D01*
X146801000Y-152766928D01*
X146676518Y-152779188D01*
X146556820Y-152815498D01*
X146446506Y-152874463D01*
X146349815Y-152953815D01*
X146270463Y-153050506D01*
X146211498Y-153160820D01*
X146175188Y-153280518D01*
X146162928Y-153405000D01*
X143524072Y-153405000D01*
X143511812Y-153280518D01*
X143475502Y-153160820D01*
X143416537Y-153050506D01*
X143337185Y-152953815D01*
X143240494Y-152874463D01*
X143130180Y-152815498D01*
X143010482Y-152779188D01*
X142886000Y-152766928D01*
X142271750Y-152770000D01*
X142113000Y-152928750D01*
X141859000Y-152928750D01*
X141700250Y-152770000D01*
X141086000Y-152766928D01*
X140961518Y-152779188D01*
X140841820Y-152815498D01*
X140731506Y-152874463D01*
X140634815Y-152953815D01*
X140555463Y-153050506D01*
X140496498Y-153160820D01*
X140460188Y-153280518D01*
X140447928Y-153405000D01*
X140448055Y-153430394D01*
X140291913Y-153274252D01*
X140074570Y-153129028D01*
X139833072Y-153028996D01*
X139576698Y-152978000D01*
X139315302Y-152978000D01*
X139058928Y-153028996D01*
X138817430Y-153129028D01*
X138600087Y-153274252D01*
X138415252Y-153459087D01*
X138270028Y-153676430D01*
X138169996Y-153917928D01*
X138119000Y-154174302D01*
X127792700Y-154174302D01*
X130100002Y-151867000D01*
X155415973Y-151867000D01*
X155450320Y-151889950D01*
X155573526Y-151940984D01*
X155704321Y-151967000D01*
X155837679Y-151967000D01*
X155968474Y-151940984D01*
X156091680Y-151889950D01*
X156202563Y-151815860D01*
X156296860Y-151721563D01*
X156370950Y-151610680D01*
X156421984Y-151487474D01*
X156448000Y-151356679D01*
X156448000Y-151223321D01*
X156421984Y-151092526D01*
X156370950Y-150969320D01*
X156296860Y-150858437D01*
X156202563Y-150764140D01*
X156091680Y-150690050D01*
X155968474Y-150639016D01*
X155837679Y-150613000D01*
X155704321Y-150613000D01*
X155573526Y-150639016D01*
X155450320Y-150690050D01*
X155415973Y-150713000D01*
X129889328Y-150713000D01*
X129860999Y-150710210D01*
X129832670Y-150713000D01*
X129832664Y-150713000D01*
X129747888Y-150721350D01*
X129639124Y-150754343D01*
X129538885Y-150807921D01*
X129507720Y-150833498D01*
X129473035Y-150861963D01*
X129473033Y-150861965D01*
X129451026Y-150880026D01*
X129432965Y-150902033D01*
X124828000Y-155506998D01*
X124828000Y-154675027D01*
X124850950Y-154640680D01*
X124901984Y-154517474D01*
X124928000Y-154386679D01*
X124928000Y-154253321D01*
X124901984Y-154122526D01*
X124850950Y-153999320D01*
X124776860Y-153888437D01*
X124682563Y-153794140D01*
X124571680Y-153720050D01*
X124448474Y-153669016D01*
X124317679Y-153643000D01*
X124184321Y-153643000D01*
X124053526Y-153669016D01*
X123930320Y-153720050D01*
X123819437Y-153794140D01*
X123725140Y-153888437D01*
X123651050Y-153999320D01*
X123600016Y-154122526D01*
X123574000Y-154253321D01*
X123574000Y-154386679D01*
X123600016Y-154517474D01*
X123651050Y-154640680D01*
X123674001Y-154675028D01*
X123674000Y-155760999D01*
X114621999Y-164813000D01*
X95759339Y-164813000D01*
X95731000Y-164810209D01*
X95617888Y-164821349D01*
X95509123Y-164854343D01*
X95483228Y-164868184D01*
X95408885Y-164907921D01*
X95321026Y-164980026D01*
X95302963Y-165002036D01*
X93241999Y-167063000D01*
X91596027Y-167063000D01*
X91561680Y-167040050D01*
X91438474Y-166989016D01*
X91307679Y-166963000D01*
X91174321Y-166963000D01*
X91043526Y-166989016D01*
X90920320Y-167040050D01*
X90809437Y-167114140D01*
X90715140Y-167208437D01*
X90641050Y-167319320D01*
X90590016Y-167442526D01*
X90564000Y-167573321D01*
X90564000Y-167706679D01*
X90590016Y-167837474D01*
X90641050Y-167960680D01*
X90715140Y-168071563D01*
X90809437Y-168165860D01*
X90920320Y-168239950D01*
X91004938Y-168275000D01*
X90920320Y-168310050D01*
X90809437Y-168384140D01*
X90715140Y-168478437D01*
X90641050Y-168589320D01*
X90590016Y-168712526D01*
X90564000Y-168843321D01*
X90564000Y-168976679D01*
X90590016Y-169107474D01*
X90641050Y-169230680D01*
X90715140Y-169341563D01*
X90809437Y-169435860D01*
X90909919Y-169503000D01*
X87055321Y-169503000D01*
X87022536Y-169509521D01*
X86989285Y-169512796D01*
X86957315Y-169522494D01*
X86924526Y-169529016D01*
X86893636Y-169541811D01*
X86861670Y-169551508D01*
X86832208Y-169567256D01*
X86808000Y-169577283D01*
X86808000Y-165448328D01*
X86810790Y-165419999D01*
X86808000Y-165391670D01*
X86808000Y-165391664D01*
X86799650Y-165306888D01*
X86766657Y-165198124D01*
X86713079Y-165097885D01*
X86640974Y-165010026D01*
X86618968Y-164991966D01*
X86134001Y-164507000D01*
X87188679Y-164507000D01*
X87221464Y-164500479D01*
X87254715Y-164497204D01*
X87286685Y-164487506D01*
X87319474Y-164480984D01*
X87350364Y-164468189D01*
X87382330Y-164458492D01*
X87411792Y-164442744D01*
X87442680Y-164429950D01*
X87470476Y-164411377D01*
X87499941Y-164395628D01*
X87525769Y-164374432D01*
X87553563Y-164355860D01*
X87577201Y-164332222D01*
X87603027Y-164311027D01*
X87624222Y-164285201D01*
X87647860Y-164261563D01*
X87666432Y-164233769D01*
X87687628Y-164207941D01*
X87703377Y-164178476D01*
X87721950Y-164150680D01*
X87734744Y-164119792D01*
X87750492Y-164090330D01*
X87760189Y-164058364D01*
X87772984Y-164027474D01*
X87779506Y-163994685D01*
X87789204Y-163962715D01*
X87792479Y-163929464D01*
X87799000Y-163896679D01*
X87799000Y-163863252D01*
X87802275Y-163830000D01*
X87799000Y-163796748D01*
X87799000Y-163763321D01*
X87792479Y-163730536D01*
X87789204Y-163697285D01*
X87779506Y-163665315D01*
X87772984Y-163632526D01*
X87760189Y-163601636D01*
X87750492Y-163569670D01*
X87734744Y-163540208D01*
X87721950Y-163509320D01*
X87703377Y-163481524D01*
X87687628Y-163452059D01*
X87666432Y-163426231D01*
X87647860Y-163398437D01*
X87624222Y-163374799D01*
X87603027Y-163348973D01*
X87577201Y-163327778D01*
X87553563Y-163304140D01*
X87525769Y-163285568D01*
X87499941Y-163264372D01*
X87470476Y-163248623D01*
X87442680Y-163230050D01*
X87411792Y-163217256D01*
X87382330Y-163201508D01*
X87350364Y-163191811D01*
X87319474Y-163179016D01*
X87286685Y-163172494D01*
X87254715Y-163162796D01*
X87221464Y-163159521D01*
X87188679Y-163153000D01*
X85150321Y-163153000D01*
X85117536Y-163159521D01*
X85084285Y-163162796D01*
X85052315Y-163172494D01*
X85019526Y-163179016D01*
X84988636Y-163191811D01*
X84956670Y-163201508D01*
X84927208Y-163217256D01*
X84896320Y-163230050D01*
X84868524Y-163248623D01*
X84839059Y-163264372D01*
X84813231Y-163285568D01*
X84785437Y-163304140D01*
X84761799Y-163327778D01*
X84735973Y-163348973D01*
X84714778Y-163374799D01*
X84691140Y-163398437D01*
X84672568Y-163426231D01*
X84651372Y-163452059D01*
X84635623Y-163481524D01*
X84617050Y-163509320D01*
X84604256Y-163540208D01*
X84588508Y-163569670D01*
X84578811Y-163601636D01*
X84566016Y-163632526D01*
X84559494Y-163665315D01*
X84549796Y-163697285D01*
X84546521Y-163730536D01*
X84540000Y-163763321D01*
X84540000Y-163796748D01*
X84536725Y-163830000D01*
X84540000Y-163863252D01*
X84540000Y-163896679D01*
X84546521Y-163929464D01*
X84549796Y-163962715D01*
X84559494Y-163994685D01*
X84566016Y-164027474D01*
X84578811Y-164058364D01*
X84588508Y-164090330D01*
X84604256Y-164119792D01*
X84617050Y-164150680D01*
X84625282Y-164163000D01*
X84586027Y-164163000D01*
X84551680Y-164140050D01*
X84428474Y-164089016D01*
X84297679Y-164063000D01*
X84164321Y-164063000D01*
X84033526Y-164089016D01*
X83910320Y-164140050D01*
X83799437Y-164214140D01*
X83705140Y-164308437D01*
X83631050Y-164419320D01*
X83580016Y-164542526D01*
X83554000Y-164673321D01*
X75838000Y-164673321D01*
X75838000Y-163456592D01*
X75949748Y-163523157D01*
X76224109Y-163620481D01*
X76454000Y-163499814D01*
X76454000Y-162306000D01*
X76434000Y-162306000D01*
X76434000Y-162052000D01*
X76454000Y-162052000D01*
X76454000Y-162032000D01*
X76708000Y-162032000D01*
X76708000Y-162052000D01*
X76728000Y-162052000D01*
X76728000Y-162306000D01*
X76708000Y-162306000D01*
X76708000Y-163499814D01*
X76937891Y-163620481D01*
X77212252Y-163523157D01*
X77462355Y-163374178D01*
X77678588Y-163179269D01*
X77852641Y-162945920D01*
X77961166Y-162718073D01*
X78054076Y-162891896D01*
X78213656Y-163086344D01*
X78408104Y-163245924D01*
X78629949Y-163364502D01*
X78870664Y-163437522D01*
X79058274Y-163456000D01*
X79183726Y-163456000D01*
X79371336Y-163437522D01*
X79612051Y-163364502D01*
X79833896Y-163245924D01*
X80028344Y-163086344D01*
X80046433Y-163064302D01*
X99384000Y-163064302D01*
X99384000Y-163325698D01*
X99434996Y-163582072D01*
X99535028Y-163823570D01*
X99680252Y-164040913D01*
X99865087Y-164225748D01*
X100082430Y-164370972D01*
X100323928Y-164471004D01*
X100580302Y-164522000D01*
X100841698Y-164522000D01*
X101098072Y-164471004D01*
X101339570Y-164370972D01*
X101556913Y-164225748D01*
X101713055Y-164069606D01*
X101712928Y-164095000D01*
X101725188Y-164219482D01*
X101761498Y-164339180D01*
X101820463Y-164449494D01*
X101899815Y-164546185D01*
X101996506Y-164625537D01*
X102106820Y-164684502D01*
X102226518Y-164720812D01*
X102351000Y-164733072D01*
X102965250Y-164730000D01*
X103124000Y-164571250D01*
X103124000Y-163322000D01*
X103378000Y-163322000D01*
X103378000Y-164571250D01*
X103536750Y-164730000D01*
X104151000Y-164733072D01*
X104275482Y-164720812D01*
X104395180Y-164684502D01*
X104505494Y-164625537D01*
X104602185Y-164546185D01*
X104681537Y-164449494D01*
X104740502Y-164339180D01*
X104776812Y-164219482D01*
X104789072Y-164095000D01*
X104786000Y-163480750D01*
X104627250Y-163322000D01*
X103378000Y-163322000D01*
X103124000Y-163322000D01*
X103104000Y-163322000D01*
X103104000Y-163068000D01*
X103124000Y-163068000D01*
X103124000Y-161818750D01*
X103378000Y-161818750D01*
X103378000Y-163068000D01*
X104627250Y-163068000D01*
X104786000Y-162909250D01*
X104789072Y-162295000D01*
X104776812Y-162170518D01*
X104740502Y-162050820D01*
X104681537Y-161940506D01*
X104602185Y-161843815D01*
X104505494Y-161764463D01*
X104395180Y-161705498D01*
X104275482Y-161669188D01*
X104151000Y-161656928D01*
X103536750Y-161660000D01*
X103378000Y-161818750D01*
X103124000Y-161818750D01*
X102965250Y-161660000D01*
X102351000Y-161656928D01*
X102226518Y-161669188D01*
X102106820Y-161705498D01*
X101996506Y-161764463D01*
X101899815Y-161843815D01*
X101820463Y-161940506D01*
X101761498Y-162050820D01*
X101725188Y-162170518D01*
X101712928Y-162295000D01*
X101713055Y-162320394D01*
X101556913Y-162164252D01*
X101339570Y-162019028D01*
X101098072Y-161918996D01*
X100841698Y-161868000D01*
X100580302Y-161868000D01*
X100323928Y-161918996D01*
X100082430Y-162019028D01*
X99865087Y-162164252D01*
X99680252Y-162349087D01*
X99535028Y-162566430D01*
X99434996Y-162807928D01*
X99384000Y-163064302D01*
X80046433Y-163064302D01*
X80187924Y-162891896D01*
X80260562Y-162756000D01*
X81224973Y-162756000D01*
X81259320Y-162778950D01*
X81382526Y-162829984D01*
X81513321Y-162856000D01*
X81646679Y-162856000D01*
X81777474Y-162829984D01*
X81900680Y-162778950D01*
X81935027Y-162756000D01*
X90173669Y-162756000D01*
X90202000Y-162758790D01*
X90230331Y-162756000D01*
X90230336Y-162756000D01*
X90260045Y-162753074D01*
X90315111Y-162747651D01*
X90359770Y-162734103D01*
X90423876Y-162714657D01*
X90524115Y-162661079D01*
X90611974Y-162588974D01*
X90630039Y-162566962D01*
X91860002Y-161337000D01*
X111895973Y-161337000D01*
X111930320Y-161359950D01*
X112053526Y-161410984D01*
X112184321Y-161437000D01*
X112317679Y-161437000D01*
X112448474Y-161410984D01*
X112571680Y-161359950D01*
X112682563Y-161285860D01*
X112776860Y-161191563D01*
X112850950Y-161080680D01*
X112901984Y-160957474D01*
X112928000Y-160826679D01*
X112928000Y-160693321D01*
X112901984Y-160562526D01*
X112850950Y-160439320D01*
X112776860Y-160328437D01*
X112682563Y-160234140D01*
X112571680Y-160160050D01*
X112448474Y-160109016D01*
X112317679Y-160083000D01*
X112184321Y-160083000D01*
X112053526Y-160109016D01*
X111930320Y-160160050D01*
X111895973Y-160183000D01*
X111839263Y-160183000D01*
X111900950Y-160090680D01*
X111951984Y-159967474D01*
X111978000Y-159836679D01*
X111978000Y-159703321D01*
X111951984Y-159572526D01*
X111900950Y-159449320D01*
X111826860Y-159338437D01*
X111732563Y-159244140D01*
X111621680Y-159170050D01*
X111498474Y-159119016D01*
X111367679Y-159093000D01*
X111234321Y-159093000D01*
X111103526Y-159119016D01*
X110980320Y-159170050D01*
X110945973Y-159193000D01*
X91719339Y-159193000D01*
X91691000Y-159190209D01*
X91577888Y-159201349D01*
X91469123Y-159234343D01*
X91450795Y-159244140D01*
X91368885Y-159287921D01*
X91281026Y-159360026D01*
X91262961Y-159382038D01*
X89711999Y-160933000D01*
X83290001Y-160933000D01*
X81608039Y-159251038D01*
X81589974Y-159229026D01*
X81502115Y-159156921D01*
X81401876Y-159103343D01*
X81329371Y-159081349D01*
X81293111Y-159070349D01*
X81238045Y-159064926D01*
X81208336Y-159062000D01*
X81208331Y-159062000D01*
X81180000Y-159059210D01*
X81151669Y-159062000D01*
X80260562Y-159062000D01*
X80187924Y-158926104D01*
X80028344Y-158731656D01*
X79833896Y-158572076D01*
X79612051Y-158453498D01*
X79371336Y-158380478D01*
X79254798Y-158369000D01*
X79371336Y-158357522D01*
X79612051Y-158284502D01*
X79833896Y-158165924D01*
X80028344Y-158006344D01*
X80187924Y-157811896D01*
X80306502Y-157590051D01*
X80379522Y-157349336D01*
X80379525Y-157349302D01*
X86049000Y-157349302D01*
X86049000Y-157610698D01*
X86099996Y-157867072D01*
X86200028Y-158108570D01*
X86345252Y-158325913D01*
X86530087Y-158510748D01*
X86747430Y-158655972D01*
X86988928Y-158756004D01*
X87245302Y-158807000D01*
X87506698Y-158807000D01*
X87763072Y-158756004D01*
X88004570Y-158655972D01*
X88221913Y-158510748D01*
X88378055Y-158354606D01*
X88377928Y-158380000D01*
X88390188Y-158504482D01*
X88426498Y-158624180D01*
X88485463Y-158734494D01*
X88564815Y-158831185D01*
X88661506Y-158910537D01*
X88771820Y-158969502D01*
X88891518Y-159005812D01*
X89016000Y-159018072D01*
X89630250Y-159015000D01*
X89789000Y-158856250D01*
X89789000Y-157607000D01*
X90043000Y-157607000D01*
X90043000Y-158856250D01*
X90201750Y-159015000D01*
X90816000Y-159018072D01*
X90940482Y-159005812D01*
X91060180Y-158969502D01*
X91170494Y-158910537D01*
X91267185Y-158831185D01*
X91346537Y-158734494D01*
X91405502Y-158624180D01*
X91441812Y-158504482D01*
X91454072Y-158380000D01*
X91451000Y-157765750D01*
X91292250Y-157607000D01*
X90043000Y-157607000D01*
X89789000Y-157607000D01*
X89769000Y-157607000D01*
X89769000Y-157353000D01*
X89789000Y-157353000D01*
X89789000Y-156103750D01*
X90043000Y-156103750D01*
X90043000Y-157353000D01*
X91292250Y-157353000D01*
X91295948Y-157349302D01*
X99384000Y-157349302D01*
X99384000Y-157610698D01*
X99434996Y-157867072D01*
X99535028Y-158108570D01*
X99680252Y-158325913D01*
X99865087Y-158510748D01*
X100082430Y-158655972D01*
X100323928Y-158756004D01*
X100580302Y-158807000D01*
X100841698Y-158807000D01*
X101098072Y-158756004D01*
X101339570Y-158655972D01*
X101556913Y-158510748D01*
X101713055Y-158354606D01*
X101712928Y-158380000D01*
X101725188Y-158504482D01*
X101761498Y-158624180D01*
X101820463Y-158734494D01*
X101899815Y-158831185D01*
X101996506Y-158910537D01*
X102106820Y-158969502D01*
X102226518Y-159005812D01*
X102351000Y-159018072D01*
X102965250Y-159015000D01*
X103124000Y-158856250D01*
X103124000Y-157607000D01*
X103378000Y-157607000D01*
X103378000Y-158856250D01*
X103536750Y-159015000D01*
X104151000Y-159018072D01*
X104275482Y-159005812D01*
X104395180Y-158969502D01*
X104505494Y-158910537D01*
X104602185Y-158831185D01*
X104681537Y-158734494D01*
X104740502Y-158624180D01*
X104776812Y-158504482D01*
X104789072Y-158380000D01*
X104786000Y-157765750D01*
X104627250Y-157607000D01*
X103378000Y-157607000D01*
X103124000Y-157607000D01*
X103104000Y-157607000D01*
X103104000Y-157353000D01*
X103124000Y-157353000D01*
X103124000Y-156103750D01*
X103378000Y-156103750D01*
X103378000Y-157353000D01*
X104627250Y-157353000D01*
X104786000Y-157194250D01*
X104789072Y-156580000D01*
X104776812Y-156455518D01*
X104740502Y-156335820D01*
X104681537Y-156225506D01*
X104602185Y-156128815D01*
X104505494Y-156049463D01*
X104395180Y-155990498D01*
X104275482Y-155954188D01*
X104151000Y-155941928D01*
X103536750Y-155945000D01*
X103378000Y-156103750D01*
X103124000Y-156103750D01*
X102965250Y-155945000D01*
X102351000Y-155941928D01*
X102226518Y-155954188D01*
X102106820Y-155990498D01*
X101996506Y-156049463D01*
X101899815Y-156128815D01*
X101820463Y-156225506D01*
X101761498Y-156335820D01*
X101725188Y-156455518D01*
X101712928Y-156580000D01*
X101713055Y-156605394D01*
X101556913Y-156449252D01*
X101339570Y-156304028D01*
X101098072Y-156203996D01*
X100841698Y-156153000D01*
X100580302Y-156153000D01*
X100323928Y-156203996D01*
X100082430Y-156304028D01*
X99865087Y-156449252D01*
X99680252Y-156634087D01*
X99535028Y-156851430D01*
X99434996Y-157092928D01*
X99384000Y-157349302D01*
X91295948Y-157349302D01*
X91451000Y-157194250D01*
X91454072Y-156580000D01*
X91441812Y-156455518D01*
X91405502Y-156335820D01*
X91346537Y-156225506D01*
X91267185Y-156128815D01*
X91170494Y-156049463D01*
X91060180Y-155990498D01*
X90940482Y-155954188D01*
X90816000Y-155941928D01*
X90201750Y-155945000D01*
X90043000Y-156103750D01*
X89789000Y-156103750D01*
X89630250Y-155945000D01*
X89016000Y-155941928D01*
X88891518Y-155954188D01*
X88771820Y-155990498D01*
X88661506Y-156049463D01*
X88564815Y-156128815D01*
X88485463Y-156225506D01*
X88426498Y-156335820D01*
X88390188Y-156455518D01*
X88377928Y-156580000D01*
X88378055Y-156605394D01*
X88221913Y-156449252D01*
X88004570Y-156304028D01*
X87763072Y-156203996D01*
X87506698Y-156153000D01*
X87245302Y-156153000D01*
X86988928Y-156203996D01*
X86747430Y-156304028D01*
X86530087Y-156449252D01*
X86345252Y-156634087D01*
X86200028Y-156851430D01*
X86099996Y-157092928D01*
X86049000Y-157349302D01*
X80379525Y-157349302D01*
X80404178Y-157099000D01*
X80379522Y-156848664D01*
X80306502Y-156607949D01*
X80187924Y-156386104D01*
X80028344Y-156191656D01*
X79833896Y-156032076D01*
X79612051Y-155913498D01*
X79371336Y-155840478D01*
X79254798Y-155829000D01*
X79371336Y-155817522D01*
X79612051Y-155744502D01*
X79833896Y-155625924D01*
X80028344Y-155466344D01*
X80187924Y-155271896D01*
X80306502Y-155050051D01*
X80379522Y-154809336D01*
X80404178Y-154559000D01*
X80379522Y-154308664D01*
X80306502Y-154067949D01*
X80187924Y-153846104D01*
X80028344Y-153651656D01*
X79833896Y-153492076D01*
X79612051Y-153373498D01*
X79371336Y-153300478D01*
X79346847Y-153298066D01*
X79971000Y-153298066D01*
X80054707Y-153289822D01*
X80135196Y-153265405D01*
X80209376Y-153225755D01*
X80274395Y-153172395D01*
X80327755Y-153107376D01*
X80367405Y-153033196D01*
X80391822Y-152952707D01*
X80400066Y-152869000D01*
X80400066Y-151169000D01*
X80391822Y-151085293D01*
X80367405Y-151004804D01*
X80364465Y-150999302D01*
X86049000Y-150999302D01*
X86049000Y-151260698D01*
X86099996Y-151517072D01*
X86200028Y-151758570D01*
X86345252Y-151975913D01*
X86530087Y-152160748D01*
X86747430Y-152305972D01*
X86988928Y-152406004D01*
X87245302Y-152457000D01*
X87506698Y-152457000D01*
X87763072Y-152406004D01*
X88004570Y-152305972D01*
X88221913Y-152160748D01*
X88378055Y-152004606D01*
X88377928Y-152030000D01*
X88390188Y-152154482D01*
X88426498Y-152274180D01*
X88485463Y-152384494D01*
X88564815Y-152481185D01*
X88661506Y-152560537D01*
X88771820Y-152619502D01*
X88891518Y-152655812D01*
X89016000Y-152668072D01*
X89630250Y-152665000D01*
X89789000Y-152506250D01*
X89789000Y-151257000D01*
X90043000Y-151257000D01*
X90043000Y-152506250D01*
X90201750Y-152665000D01*
X90816000Y-152668072D01*
X90940482Y-152655812D01*
X91060180Y-152619502D01*
X91170494Y-152560537D01*
X91267185Y-152481185D01*
X91346537Y-152384494D01*
X91405502Y-152274180D01*
X91441812Y-152154482D01*
X91454072Y-152030000D01*
X91452094Y-151634302D01*
X99384000Y-151634302D01*
X99384000Y-151895698D01*
X99434996Y-152152072D01*
X99535028Y-152393570D01*
X99680252Y-152610913D01*
X99865087Y-152795748D01*
X100082430Y-152940972D01*
X100323928Y-153041004D01*
X100580302Y-153092000D01*
X100841698Y-153092000D01*
X101098072Y-153041004D01*
X101339570Y-152940972D01*
X101556913Y-152795748D01*
X101713055Y-152639606D01*
X101712928Y-152665000D01*
X101725188Y-152789482D01*
X101761498Y-152909180D01*
X101820463Y-153019494D01*
X101899815Y-153116185D01*
X101996506Y-153195537D01*
X102106820Y-153254502D01*
X102226518Y-153290812D01*
X102351000Y-153303072D01*
X102965250Y-153300000D01*
X103124000Y-153141250D01*
X103124000Y-151892000D01*
X103378000Y-151892000D01*
X103378000Y-153141250D01*
X103536750Y-153300000D01*
X104151000Y-153303072D01*
X104275482Y-153290812D01*
X104395180Y-153254502D01*
X104505494Y-153195537D01*
X104602185Y-153116185D01*
X104681537Y-153019494D01*
X104740502Y-152909180D01*
X104776812Y-152789482D01*
X104789072Y-152665000D01*
X104786000Y-152050750D01*
X104627250Y-151892000D01*
X103378000Y-151892000D01*
X103124000Y-151892000D01*
X103104000Y-151892000D01*
X103104000Y-151638000D01*
X103124000Y-151638000D01*
X103124000Y-150388750D01*
X103378000Y-150388750D01*
X103378000Y-151638000D01*
X104627250Y-151638000D01*
X104786000Y-151479250D01*
X104789072Y-150865000D01*
X104776812Y-150740518D01*
X104740502Y-150620820D01*
X104681537Y-150510506D01*
X104602185Y-150413815D01*
X104505494Y-150334463D01*
X104395180Y-150275498D01*
X104275482Y-150239188D01*
X104151000Y-150226928D01*
X103536750Y-150230000D01*
X103378000Y-150388750D01*
X103124000Y-150388750D01*
X102965250Y-150230000D01*
X102351000Y-150226928D01*
X102226518Y-150239188D01*
X102106820Y-150275498D01*
X101996506Y-150334463D01*
X101899815Y-150413815D01*
X101820463Y-150510506D01*
X101761498Y-150620820D01*
X101725188Y-150740518D01*
X101712928Y-150865000D01*
X101713055Y-150890394D01*
X101556913Y-150734252D01*
X101339570Y-150589028D01*
X101098072Y-150488996D01*
X100841698Y-150438000D01*
X100580302Y-150438000D01*
X100323928Y-150488996D01*
X100082430Y-150589028D01*
X99865087Y-150734252D01*
X99680252Y-150919087D01*
X99535028Y-151136430D01*
X99434996Y-151377928D01*
X99384000Y-151634302D01*
X91452094Y-151634302D01*
X91451000Y-151415750D01*
X91292250Y-151257000D01*
X90043000Y-151257000D01*
X89789000Y-151257000D01*
X89769000Y-151257000D01*
X89769000Y-151003000D01*
X89789000Y-151003000D01*
X89789000Y-149753750D01*
X90043000Y-149753750D01*
X90043000Y-151003000D01*
X91292250Y-151003000D01*
X91451000Y-150844250D01*
X91454072Y-150230000D01*
X91441812Y-150105518D01*
X91405502Y-149985820D01*
X91346537Y-149875506D01*
X91267185Y-149778815D01*
X91170494Y-149699463D01*
X91060180Y-149640498D01*
X90940482Y-149604188D01*
X90816000Y-149591928D01*
X90201750Y-149595000D01*
X90043000Y-149753750D01*
X89789000Y-149753750D01*
X89630250Y-149595000D01*
X89016000Y-149591928D01*
X88891518Y-149604188D01*
X88771820Y-149640498D01*
X88661506Y-149699463D01*
X88564815Y-149778815D01*
X88485463Y-149875506D01*
X88426498Y-149985820D01*
X88390188Y-150105518D01*
X88377928Y-150230000D01*
X88378055Y-150255394D01*
X88221913Y-150099252D01*
X88004570Y-149954028D01*
X87763072Y-149853996D01*
X87506698Y-149803000D01*
X87245302Y-149803000D01*
X86988928Y-149853996D01*
X86747430Y-149954028D01*
X86530087Y-150099252D01*
X86345252Y-150284087D01*
X86200028Y-150501430D01*
X86099996Y-150742928D01*
X86049000Y-150999302D01*
X80364465Y-150999302D01*
X80327755Y-150930624D01*
X80274395Y-150865605D01*
X80209376Y-150812245D01*
X80135196Y-150772595D01*
X80054707Y-150748178D01*
X79971000Y-150739934D01*
X78271000Y-150739934D01*
X78187293Y-150748178D01*
X78106804Y-150772595D01*
X78032624Y-150812245D01*
X77967605Y-150865605D01*
X77914245Y-150930624D01*
X77874595Y-151004804D01*
X77850178Y-151085293D01*
X77841934Y-151169000D01*
X77841934Y-151793153D01*
X77839522Y-151768664D01*
X77766502Y-151527949D01*
X77647924Y-151306104D01*
X77488344Y-151111656D01*
X77293896Y-150952076D01*
X77072051Y-150833498D01*
X76831336Y-150760478D01*
X76643726Y-150742000D01*
X76518274Y-150742000D01*
X76330664Y-150760478D01*
X76089949Y-150833498D01*
X75868104Y-150952076D01*
X75673656Y-151111656D01*
X75514076Y-151306104D01*
X75395498Y-151527949D01*
X75322478Y-151768664D01*
X75297822Y-152019000D01*
X75322478Y-152269336D01*
X75395498Y-152510051D01*
X75514076Y-152731896D01*
X75673656Y-152926344D01*
X75868104Y-153085924D01*
X76089949Y-153204502D01*
X76330664Y-153277522D01*
X76447202Y-153289000D01*
X76330664Y-153300478D01*
X76089949Y-153373498D01*
X75868104Y-153492076D01*
X75673656Y-153651656D01*
X75514076Y-153846104D01*
X75395498Y-154067949D01*
X75322478Y-154308664D01*
X75297822Y-154559000D01*
X75322478Y-154809336D01*
X75395498Y-155050051D01*
X75514076Y-155271896D01*
X75673656Y-155466344D01*
X75868104Y-155625924D01*
X76089949Y-155744502D01*
X76330664Y-155817522D01*
X76447202Y-155829000D01*
X76330664Y-155840478D01*
X76089949Y-155913498D01*
X75868104Y-156032076D01*
X75673656Y-156191656D01*
X75514076Y-156386104D01*
X75395498Y-156607949D01*
X75322478Y-156848664D01*
X75297822Y-157099000D01*
X75322478Y-157349336D01*
X75395498Y-157590051D01*
X75514076Y-157811896D01*
X75673656Y-158006344D01*
X75868104Y-158165924D01*
X76089949Y-158284502D01*
X76330664Y-158357522D01*
X76447202Y-158369000D01*
X76330664Y-158380478D01*
X76089949Y-158453498D01*
X75868104Y-158572076D01*
X75673656Y-158731656D01*
X75514076Y-158926104D01*
X75395498Y-159147949D01*
X75322478Y-159388664D01*
X75297822Y-159639000D01*
X75322478Y-159889336D01*
X75369768Y-160045231D01*
X74873038Y-160541961D01*
X74851026Y-160560026D01*
X74778921Y-160647886D01*
X74725343Y-160748125D01*
X74711796Y-160792783D01*
X74692349Y-160856889D01*
X74688348Y-160897522D01*
X74684854Y-160933000D01*
X74681210Y-160970000D01*
X74422000Y-160970000D01*
X74422000Y-147875413D01*
X83245192Y-147875413D01*
X83340956Y-148139814D01*
X83630571Y-148280704D01*
X83942108Y-148362384D01*
X84263595Y-148381718D01*
X84582675Y-148337961D01*
X84887088Y-148232795D01*
X85061044Y-148139814D01*
X85156808Y-147875413D01*
X89745192Y-147875413D01*
X89840956Y-148139814D01*
X90130571Y-148280704D01*
X90442108Y-148362384D01*
X90763595Y-148381718D01*
X91082675Y-148337961D01*
X91387088Y-148232795D01*
X91561044Y-148139814D01*
X91656808Y-147875413D01*
X94040192Y-147875413D01*
X94135956Y-148139814D01*
X94425571Y-148280704D01*
X94737108Y-148362384D01*
X95058595Y-148381718D01*
X95377675Y-148337961D01*
X95682088Y-148232795D01*
X95856044Y-148139814D01*
X95951808Y-147875413D01*
X100540192Y-147875413D01*
X100635956Y-148139814D01*
X100925571Y-148280704D01*
X101237108Y-148362384D01*
X101558595Y-148381718D01*
X101877675Y-148337961D01*
X102182088Y-148232795D01*
X102356044Y-148139814D01*
X102451808Y-147875413D01*
X104835192Y-147875413D01*
X104930956Y-148139814D01*
X105220571Y-148280704D01*
X105532108Y-148362384D01*
X105853595Y-148381718D01*
X106172675Y-148337961D01*
X106477088Y-148232795D01*
X106651044Y-148139814D01*
X106746808Y-147875413D01*
X111335192Y-147875413D01*
X111430956Y-148139814D01*
X111720571Y-148280704D01*
X112032108Y-148362384D01*
X112353595Y-148381718D01*
X112672675Y-148337961D01*
X112977088Y-148232795D01*
X113151044Y-148139814D01*
X113246808Y-147875413D01*
X115630192Y-147875413D01*
X115725956Y-148139814D01*
X116015571Y-148280704D01*
X116327108Y-148362384D01*
X116648595Y-148381718D01*
X116967675Y-148337961D01*
X117272088Y-148232795D01*
X117446044Y-148139814D01*
X117541808Y-147875413D01*
X122130192Y-147875413D01*
X122225956Y-148139814D01*
X122515571Y-148280704D01*
X122827108Y-148362384D01*
X123148595Y-148381718D01*
X123467675Y-148337961D01*
X123772088Y-148232795D01*
X123946044Y-148139814D01*
X124041808Y-147875413D01*
X126425192Y-147875413D01*
X126520956Y-148139814D01*
X126810571Y-148280704D01*
X127122108Y-148362384D01*
X127443595Y-148381718D01*
X127762675Y-148337961D01*
X128067088Y-148232795D01*
X128241044Y-148139814D01*
X128336808Y-147875413D01*
X132925192Y-147875413D01*
X133020956Y-148139814D01*
X133310571Y-148280704D01*
X133622108Y-148362384D01*
X133943595Y-148381718D01*
X134262675Y-148337961D01*
X134567088Y-148232795D01*
X134741044Y-148139814D01*
X134836808Y-147875413D01*
X133881000Y-146919605D01*
X132925192Y-147875413D01*
X128336808Y-147875413D01*
X127381000Y-146919605D01*
X126425192Y-147875413D01*
X124041808Y-147875413D01*
X123086000Y-146919605D01*
X122130192Y-147875413D01*
X117541808Y-147875413D01*
X116586000Y-146919605D01*
X115630192Y-147875413D01*
X113246808Y-147875413D01*
X112291000Y-146919605D01*
X111335192Y-147875413D01*
X106746808Y-147875413D01*
X105791000Y-146919605D01*
X104835192Y-147875413D01*
X102451808Y-147875413D01*
X101496000Y-146919605D01*
X100540192Y-147875413D01*
X95951808Y-147875413D01*
X94996000Y-146919605D01*
X94040192Y-147875413D01*
X91656808Y-147875413D01*
X90701000Y-146919605D01*
X89745192Y-147875413D01*
X85156808Y-147875413D01*
X84201000Y-146919605D01*
X83245192Y-147875413D01*
X74422000Y-147875413D01*
X74422000Y-146802595D01*
X82559282Y-146802595D01*
X82603039Y-147121675D01*
X82708205Y-147426088D01*
X82801186Y-147600044D01*
X83065587Y-147695808D01*
X84021395Y-146740000D01*
X84380605Y-146740000D01*
X85336413Y-147695808D01*
X85600814Y-147600044D01*
X85741704Y-147310429D01*
X85823384Y-146998892D01*
X85835189Y-146802595D01*
X89059282Y-146802595D01*
X89103039Y-147121675D01*
X89208205Y-147426088D01*
X89301186Y-147600044D01*
X89565587Y-147695808D01*
X90521395Y-146740000D01*
X90880605Y-146740000D01*
X91836413Y-147695808D01*
X92100814Y-147600044D01*
X92241704Y-147310429D01*
X92323384Y-146998892D01*
X92335189Y-146802595D01*
X93354282Y-146802595D01*
X93398039Y-147121675D01*
X93503205Y-147426088D01*
X93596186Y-147600044D01*
X93860587Y-147695808D01*
X94816395Y-146740000D01*
X95175605Y-146740000D01*
X96131413Y-147695808D01*
X96395814Y-147600044D01*
X96536704Y-147310429D01*
X96618384Y-146998892D01*
X96630189Y-146802595D01*
X99854282Y-146802595D01*
X99898039Y-147121675D01*
X100003205Y-147426088D01*
X100096186Y-147600044D01*
X100360587Y-147695808D01*
X101316395Y-146740000D01*
X101675605Y-146740000D01*
X102631413Y-147695808D01*
X102895814Y-147600044D01*
X103036704Y-147310429D01*
X103118384Y-146998892D01*
X103130189Y-146802595D01*
X104149282Y-146802595D01*
X104193039Y-147121675D01*
X104298205Y-147426088D01*
X104391186Y-147600044D01*
X104655587Y-147695808D01*
X105611395Y-146740000D01*
X105970605Y-146740000D01*
X106926413Y-147695808D01*
X107190814Y-147600044D01*
X107331704Y-147310429D01*
X107413384Y-146998892D01*
X107425189Y-146802595D01*
X110649282Y-146802595D01*
X110693039Y-147121675D01*
X110798205Y-147426088D01*
X110891186Y-147600044D01*
X111155587Y-147695808D01*
X112111395Y-146740000D01*
X112470605Y-146740000D01*
X113426413Y-147695808D01*
X113690814Y-147600044D01*
X113831704Y-147310429D01*
X113913384Y-146998892D01*
X113925189Y-146802595D01*
X114944282Y-146802595D01*
X114988039Y-147121675D01*
X115093205Y-147426088D01*
X115186186Y-147600044D01*
X115450587Y-147695808D01*
X116406395Y-146740000D01*
X116765605Y-146740000D01*
X117721413Y-147695808D01*
X117985814Y-147600044D01*
X118126704Y-147310429D01*
X118208384Y-146998892D01*
X118220189Y-146802595D01*
X121444282Y-146802595D01*
X121488039Y-147121675D01*
X121593205Y-147426088D01*
X121686186Y-147600044D01*
X121950587Y-147695808D01*
X122906395Y-146740000D01*
X123265605Y-146740000D01*
X124221413Y-147695808D01*
X124485814Y-147600044D01*
X124626704Y-147310429D01*
X124708384Y-146998892D01*
X124720189Y-146802595D01*
X125739282Y-146802595D01*
X125783039Y-147121675D01*
X125888205Y-147426088D01*
X125981186Y-147600044D01*
X126245587Y-147695808D01*
X127201395Y-146740000D01*
X127560605Y-146740000D01*
X128516413Y-147695808D01*
X128780814Y-147600044D01*
X128921704Y-147310429D01*
X129003384Y-146998892D01*
X129015189Y-146802595D01*
X132239282Y-146802595D01*
X132283039Y-147121675D01*
X132388205Y-147426088D01*
X132481186Y-147600044D01*
X132745587Y-147695808D01*
X133701395Y-146740000D01*
X134060605Y-146740000D01*
X135016413Y-147695808D01*
X135280814Y-147600044D01*
X135421704Y-147310429D01*
X135503384Y-146998892D01*
X135522718Y-146677405D01*
X135478961Y-146358325D01*
X135373795Y-146053912D01*
X135280814Y-145879956D01*
X135016413Y-145784192D01*
X134060605Y-146740000D01*
X133701395Y-146740000D01*
X132745587Y-145784192D01*
X132481186Y-145879956D01*
X132340296Y-146169571D01*
X132258616Y-146481108D01*
X132239282Y-146802595D01*
X129015189Y-146802595D01*
X129022718Y-146677405D01*
X128978961Y-146358325D01*
X128873795Y-146053912D01*
X128780814Y-145879956D01*
X128516413Y-145784192D01*
X127560605Y-146740000D01*
X127201395Y-146740000D01*
X126245587Y-145784192D01*
X125981186Y-145879956D01*
X125840296Y-146169571D01*
X125758616Y-146481108D01*
X125739282Y-146802595D01*
X124720189Y-146802595D01*
X124727718Y-146677405D01*
X124683961Y-146358325D01*
X124578795Y-146053912D01*
X124485814Y-145879956D01*
X124221413Y-145784192D01*
X123265605Y-146740000D01*
X122906395Y-146740000D01*
X121950587Y-145784192D01*
X121686186Y-145879956D01*
X121545296Y-146169571D01*
X121463616Y-146481108D01*
X121444282Y-146802595D01*
X118220189Y-146802595D01*
X118227718Y-146677405D01*
X118183961Y-146358325D01*
X118078795Y-146053912D01*
X117985814Y-145879956D01*
X117721413Y-145784192D01*
X116765605Y-146740000D01*
X116406395Y-146740000D01*
X115450587Y-145784192D01*
X115186186Y-145879956D01*
X115045296Y-146169571D01*
X114963616Y-146481108D01*
X114944282Y-146802595D01*
X113925189Y-146802595D01*
X113932718Y-146677405D01*
X113888961Y-146358325D01*
X113783795Y-146053912D01*
X113690814Y-145879956D01*
X113426413Y-145784192D01*
X112470605Y-146740000D01*
X112111395Y-146740000D01*
X111155587Y-145784192D01*
X110891186Y-145879956D01*
X110750296Y-146169571D01*
X110668616Y-146481108D01*
X110649282Y-146802595D01*
X107425189Y-146802595D01*
X107432718Y-146677405D01*
X107388961Y-146358325D01*
X107283795Y-146053912D01*
X107190814Y-145879956D01*
X106926413Y-145784192D01*
X105970605Y-146740000D01*
X105611395Y-146740000D01*
X104655587Y-145784192D01*
X104391186Y-145879956D01*
X104250296Y-146169571D01*
X104168616Y-146481108D01*
X104149282Y-146802595D01*
X103130189Y-146802595D01*
X103137718Y-146677405D01*
X103093961Y-146358325D01*
X102988795Y-146053912D01*
X102895814Y-145879956D01*
X102631413Y-145784192D01*
X101675605Y-146740000D01*
X101316395Y-146740000D01*
X100360587Y-145784192D01*
X100096186Y-145879956D01*
X99955296Y-146169571D01*
X99873616Y-146481108D01*
X99854282Y-146802595D01*
X96630189Y-146802595D01*
X96637718Y-146677405D01*
X96593961Y-146358325D01*
X96488795Y-146053912D01*
X96395814Y-145879956D01*
X96131413Y-145784192D01*
X95175605Y-146740000D01*
X94816395Y-146740000D01*
X93860587Y-145784192D01*
X93596186Y-145879956D01*
X93455296Y-146169571D01*
X93373616Y-146481108D01*
X93354282Y-146802595D01*
X92335189Y-146802595D01*
X92342718Y-146677405D01*
X92298961Y-146358325D01*
X92193795Y-146053912D01*
X92100814Y-145879956D01*
X91836413Y-145784192D01*
X90880605Y-146740000D01*
X90521395Y-146740000D01*
X89565587Y-145784192D01*
X89301186Y-145879956D01*
X89160296Y-146169571D01*
X89078616Y-146481108D01*
X89059282Y-146802595D01*
X85835189Y-146802595D01*
X85842718Y-146677405D01*
X85798961Y-146358325D01*
X85693795Y-146053912D01*
X85600814Y-145879956D01*
X85336413Y-145784192D01*
X84380605Y-146740000D01*
X84021395Y-146740000D01*
X83065587Y-145784192D01*
X82801186Y-145879956D01*
X82660296Y-146169571D01*
X82578616Y-146481108D01*
X82559282Y-146802595D01*
X74422000Y-146802595D01*
X74422000Y-145604587D01*
X83245192Y-145604587D01*
X84201000Y-146560395D01*
X85156808Y-145604587D01*
X89745192Y-145604587D01*
X90701000Y-146560395D01*
X91656808Y-145604587D01*
X94040192Y-145604587D01*
X94996000Y-146560395D01*
X95951808Y-145604587D01*
X100540192Y-145604587D01*
X101496000Y-146560395D01*
X102451808Y-145604587D01*
X104835192Y-145604587D01*
X105791000Y-146560395D01*
X106746808Y-145604587D01*
X111335192Y-145604587D01*
X112291000Y-146560395D01*
X113246808Y-145604587D01*
X115630192Y-145604587D01*
X116586000Y-146560395D01*
X117541808Y-145604587D01*
X122130192Y-145604587D01*
X123086000Y-146560395D01*
X124041808Y-145604587D01*
X126425192Y-145604587D01*
X127381000Y-146560395D01*
X128336808Y-145604587D01*
X132925192Y-145604587D01*
X133881000Y-146560395D01*
X134836808Y-145604587D01*
X134741044Y-145340186D01*
X134451429Y-145199296D01*
X134139892Y-145117616D01*
X133818405Y-145098282D01*
X133499325Y-145142039D01*
X133194912Y-145247205D01*
X133020956Y-145340186D01*
X132925192Y-145604587D01*
X128336808Y-145604587D01*
X128241044Y-145340186D01*
X127951429Y-145199296D01*
X127639892Y-145117616D01*
X127318405Y-145098282D01*
X126999325Y-145142039D01*
X126694912Y-145247205D01*
X126520956Y-145340186D01*
X126425192Y-145604587D01*
X124041808Y-145604587D01*
X123946044Y-145340186D01*
X123656429Y-145199296D01*
X123344892Y-145117616D01*
X123023405Y-145098282D01*
X122704325Y-145142039D01*
X122399912Y-145247205D01*
X122225956Y-145340186D01*
X122130192Y-145604587D01*
X117541808Y-145604587D01*
X117446044Y-145340186D01*
X117156429Y-145199296D01*
X116844892Y-145117616D01*
X116523405Y-145098282D01*
X116204325Y-145142039D01*
X115899912Y-145247205D01*
X115725956Y-145340186D01*
X115630192Y-145604587D01*
X113246808Y-145604587D01*
X113151044Y-145340186D01*
X112861429Y-145199296D01*
X112549892Y-145117616D01*
X112228405Y-145098282D01*
X111909325Y-145142039D01*
X111604912Y-145247205D01*
X111430956Y-145340186D01*
X111335192Y-145604587D01*
X106746808Y-145604587D01*
X106651044Y-145340186D01*
X106361429Y-145199296D01*
X106049892Y-145117616D01*
X105728405Y-145098282D01*
X105409325Y-145142039D01*
X105104912Y-145247205D01*
X104930956Y-145340186D01*
X104835192Y-145604587D01*
X102451808Y-145604587D01*
X102356044Y-145340186D01*
X102066429Y-145199296D01*
X101754892Y-145117616D01*
X101433405Y-145098282D01*
X101114325Y-145142039D01*
X100809912Y-145247205D01*
X100635956Y-145340186D01*
X100540192Y-145604587D01*
X95951808Y-145604587D01*
X95856044Y-145340186D01*
X95566429Y-145199296D01*
X95254892Y-145117616D01*
X94933405Y-145098282D01*
X94614325Y-145142039D01*
X94309912Y-145247205D01*
X94135956Y-145340186D01*
X94040192Y-145604587D01*
X91656808Y-145604587D01*
X91561044Y-145340186D01*
X91271429Y-145199296D01*
X90959892Y-145117616D01*
X90638405Y-145098282D01*
X90319325Y-145142039D01*
X90014912Y-145247205D01*
X89840956Y-145340186D01*
X89745192Y-145604587D01*
X85156808Y-145604587D01*
X85061044Y-145340186D01*
X84771429Y-145199296D01*
X84459892Y-145117616D01*
X84138405Y-145098282D01*
X83819325Y-145142039D01*
X83514912Y-145247205D01*
X83340956Y-145340186D01*
X83245192Y-145604587D01*
X74422000Y-145604587D01*
X74422000Y-142099453D01*
X82774000Y-142099453D01*
X82774000Y-142380547D01*
X82828838Y-142656241D01*
X82936409Y-142915938D01*
X83092576Y-143149660D01*
X83291340Y-143348424D01*
X83525062Y-143504591D01*
X83784759Y-143612162D01*
X84060453Y-143667000D01*
X84341547Y-143667000D01*
X84617241Y-143612162D01*
X84876938Y-143504591D01*
X85110660Y-143348424D01*
X85309424Y-143149660D01*
X85465591Y-142915938D01*
X85573162Y-142656241D01*
X85628000Y-142380547D01*
X85628000Y-142099453D01*
X89274000Y-142099453D01*
X89274000Y-142380547D01*
X89328838Y-142656241D01*
X89436409Y-142915938D01*
X89592576Y-143149660D01*
X89791340Y-143348424D01*
X90025062Y-143504591D01*
X90284759Y-143612162D01*
X90560453Y-143667000D01*
X90841547Y-143667000D01*
X91117241Y-143612162D01*
X91376938Y-143504591D01*
X91610660Y-143348424D01*
X91809424Y-143149660D01*
X91965591Y-142915938D01*
X92073162Y-142656241D01*
X92128000Y-142380547D01*
X92128000Y-142099453D01*
X93569000Y-142099453D01*
X93569000Y-142380547D01*
X93623838Y-142656241D01*
X93731409Y-142915938D01*
X93887576Y-143149660D01*
X94086340Y-143348424D01*
X94320062Y-143504591D01*
X94579759Y-143612162D01*
X94855453Y-143667000D01*
X95136547Y-143667000D01*
X95412241Y-143612162D01*
X95671938Y-143504591D01*
X95905660Y-143348424D01*
X96104424Y-143149660D01*
X96260591Y-142915938D01*
X96368162Y-142656241D01*
X96423000Y-142380547D01*
X96423000Y-142099453D01*
X100069000Y-142099453D01*
X100069000Y-142380547D01*
X100123838Y-142656241D01*
X100231409Y-142915938D01*
X100387576Y-143149660D01*
X100586340Y-143348424D01*
X100820062Y-143504591D01*
X101079759Y-143612162D01*
X101355453Y-143667000D01*
X101636547Y-143667000D01*
X101912241Y-143612162D01*
X102171938Y-143504591D01*
X102405660Y-143348424D01*
X102604424Y-143149660D01*
X102760591Y-142915938D01*
X102868162Y-142656241D01*
X102923000Y-142380547D01*
X102923000Y-142099453D01*
X104364000Y-142099453D01*
X104364000Y-142380547D01*
X104418838Y-142656241D01*
X104526409Y-142915938D01*
X104682576Y-143149660D01*
X104881340Y-143348424D01*
X105115062Y-143504591D01*
X105374759Y-143612162D01*
X105650453Y-143667000D01*
X105931547Y-143667000D01*
X106207241Y-143612162D01*
X106466938Y-143504591D01*
X106700660Y-143348424D01*
X106899424Y-143149660D01*
X107055591Y-142915938D01*
X107163162Y-142656241D01*
X107218000Y-142380547D01*
X107218000Y-142099453D01*
X110864000Y-142099453D01*
X110864000Y-142380547D01*
X110918838Y-142656241D01*
X111026409Y-142915938D01*
X111182576Y-143149660D01*
X111381340Y-143348424D01*
X111615062Y-143504591D01*
X111874759Y-143612162D01*
X112150453Y-143667000D01*
X112431547Y-143667000D01*
X112707241Y-143612162D01*
X112966938Y-143504591D01*
X113200660Y-143348424D01*
X113399424Y-143149660D01*
X113555591Y-142915938D01*
X113663162Y-142656241D01*
X113718000Y-142380547D01*
X113718000Y-142099453D01*
X115159000Y-142099453D01*
X115159000Y-142380547D01*
X115213838Y-142656241D01*
X115321409Y-142915938D01*
X115477576Y-143149660D01*
X115676340Y-143348424D01*
X115910062Y-143504591D01*
X116169759Y-143612162D01*
X116445453Y-143667000D01*
X116726547Y-143667000D01*
X117002241Y-143612162D01*
X117261938Y-143504591D01*
X117495660Y-143348424D01*
X117694424Y-143149660D01*
X117850591Y-142915938D01*
X117958162Y-142656241D01*
X118013000Y-142380547D01*
X118013000Y-142099453D01*
X121659000Y-142099453D01*
X121659000Y-142380547D01*
X121713838Y-142656241D01*
X121821409Y-142915938D01*
X121977576Y-143149660D01*
X122176340Y-143348424D01*
X122410062Y-143504591D01*
X122669759Y-143612162D01*
X122945453Y-143667000D01*
X123226547Y-143667000D01*
X123502241Y-143612162D01*
X123761938Y-143504591D01*
X123995660Y-143348424D01*
X124194424Y-143149660D01*
X124350591Y-142915938D01*
X124458162Y-142656241D01*
X124513000Y-142380547D01*
X124513000Y-142099453D01*
X125954000Y-142099453D01*
X125954000Y-142380547D01*
X126008838Y-142656241D01*
X126116409Y-142915938D01*
X126272576Y-143149660D01*
X126471340Y-143348424D01*
X126705062Y-143504591D01*
X126964759Y-143612162D01*
X127240453Y-143667000D01*
X127521547Y-143667000D01*
X127797241Y-143612162D01*
X128056938Y-143504591D01*
X128290660Y-143348424D01*
X128489424Y-143149660D01*
X128645591Y-142915938D01*
X128753162Y-142656241D01*
X128808000Y-142380547D01*
X128808000Y-142099453D01*
X132454000Y-142099453D01*
X132454000Y-142380547D01*
X132508838Y-142656241D01*
X132616409Y-142915938D01*
X132772576Y-143149660D01*
X132971340Y-143348424D01*
X133205062Y-143504591D01*
X133464759Y-143612162D01*
X133740453Y-143667000D01*
X134021547Y-143667000D01*
X134297241Y-143612162D01*
X134556938Y-143504591D01*
X134790660Y-143348424D01*
X134989424Y-143149660D01*
X135145591Y-142915938D01*
X135253162Y-142656241D01*
X135308000Y-142380547D01*
X135308000Y-142099453D01*
X135253162Y-141823759D01*
X135145591Y-141564062D01*
X134989424Y-141330340D01*
X134790660Y-141131576D01*
X134556938Y-140975409D01*
X134297241Y-140867838D01*
X134021547Y-140813000D01*
X133740453Y-140813000D01*
X133464759Y-140867838D01*
X133205062Y-140975409D01*
X132971340Y-141131576D01*
X132772576Y-141330340D01*
X132616409Y-141564062D01*
X132508838Y-141823759D01*
X132454000Y-142099453D01*
X128808000Y-142099453D01*
X128753162Y-141823759D01*
X128645591Y-141564062D01*
X128489424Y-141330340D01*
X128290660Y-141131576D01*
X128056938Y-140975409D01*
X127797241Y-140867838D01*
X127521547Y-140813000D01*
X127240453Y-140813000D01*
X126964759Y-140867838D01*
X126705062Y-140975409D01*
X126471340Y-141131576D01*
X126272576Y-141330340D01*
X126116409Y-141564062D01*
X126008838Y-141823759D01*
X125954000Y-142099453D01*
X124513000Y-142099453D01*
X124458162Y-141823759D01*
X124350591Y-141564062D01*
X124194424Y-141330340D01*
X123995660Y-141131576D01*
X123761938Y-140975409D01*
X123502241Y-140867838D01*
X123226547Y-140813000D01*
X122945453Y-140813000D01*
X122669759Y-140867838D01*
X122410062Y-140975409D01*
X122176340Y-141131576D01*
X121977576Y-141330340D01*
X121821409Y-141564062D01*
X121713838Y-141823759D01*
X121659000Y-142099453D01*
X118013000Y-142099453D01*
X117958162Y-141823759D01*
X117850591Y-141564062D01*
X117694424Y-141330340D01*
X117495660Y-141131576D01*
X117261938Y-140975409D01*
X117002241Y-140867838D01*
X116726547Y-140813000D01*
X116445453Y-140813000D01*
X116169759Y-140867838D01*
X115910062Y-140975409D01*
X115676340Y-141131576D01*
X115477576Y-141330340D01*
X115321409Y-141564062D01*
X115213838Y-141823759D01*
X115159000Y-142099453D01*
X113718000Y-142099453D01*
X113663162Y-141823759D01*
X113555591Y-141564062D01*
X113399424Y-141330340D01*
X113200660Y-141131576D01*
X112966938Y-140975409D01*
X112707241Y-140867838D01*
X112431547Y-140813000D01*
X112150453Y-140813000D01*
X111874759Y-140867838D01*
X111615062Y-140975409D01*
X111381340Y-141131576D01*
X111182576Y-141330340D01*
X111026409Y-141564062D01*
X110918838Y-141823759D01*
X110864000Y-142099453D01*
X107218000Y-142099453D01*
X107163162Y-141823759D01*
X107055591Y-141564062D01*
X106899424Y-141330340D01*
X106700660Y-141131576D01*
X106466938Y-140975409D01*
X106207241Y-140867838D01*
X105931547Y-140813000D01*
X105650453Y-140813000D01*
X105374759Y-140867838D01*
X105115062Y-140975409D01*
X104881340Y-141131576D01*
X104682576Y-141330340D01*
X104526409Y-141564062D01*
X104418838Y-141823759D01*
X104364000Y-142099453D01*
X102923000Y-142099453D01*
X102868162Y-141823759D01*
X102760591Y-141564062D01*
X102604424Y-141330340D01*
X102405660Y-141131576D01*
X102171938Y-140975409D01*
X101912241Y-140867838D01*
X101636547Y-140813000D01*
X101355453Y-140813000D01*
X101079759Y-140867838D01*
X100820062Y-140975409D01*
X100586340Y-141131576D01*
X100387576Y-141330340D01*
X100231409Y-141564062D01*
X100123838Y-141823759D01*
X100069000Y-142099453D01*
X96423000Y-142099453D01*
X96368162Y-141823759D01*
X96260591Y-141564062D01*
X96104424Y-141330340D01*
X95905660Y-141131576D01*
X95671938Y-140975409D01*
X95412241Y-140867838D01*
X95136547Y-140813000D01*
X94855453Y-140813000D01*
X94579759Y-140867838D01*
X94320062Y-140975409D01*
X94086340Y-141131576D01*
X93887576Y-141330340D01*
X93731409Y-141564062D01*
X93623838Y-141823759D01*
X93569000Y-142099453D01*
X92128000Y-142099453D01*
X92073162Y-141823759D01*
X91965591Y-141564062D01*
X91809424Y-141330340D01*
X91610660Y-141131576D01*
X91376938Y-140975409D01*
X91117241Y-140867838D01*
X90841547Y-140813000D01*
X90560453Y-140813000D01*
X90284759Y-140867838D01*
X90025062Y-140975409D01*
X89791340Y-141131576D01*
X89592576Y-141330340D01*
X89436409Y-141564062D01*
X89328838Y-141823759D01*
X89274000Y-142099453D01*
X85628000Y-142099453D01*
X85573162Y-141823759D01*
X85465591Y-141564062D01*
X85309424Y-141330340D01*
X85110660Y-141131576D01*
X84876938Y-140975409D01*
X84617241Y-140867838D01*
X84341547Y-140813000D01*
X84060453Y-140813000D01*
X83784759Y-140867838D01*
X83525062Y-140975409D01*
X83291340Y-141131576D01*
X83092576Y-141330340D01*
X82936409Y-141564062D01*
X82828838Y-141823759D01*
X82774000Y-142099453D01*
X74422000Y-142099453D01*
X74422000Y-137287000D01*
X172593000Y-137287000D01*
X172593000Y-177038000D01*
X172593000Y-177038000D01*
G37*
X172593000Y-177038000D02*
X74422000Y-177038000D01*
X74422000Y-160970000D01*
X74681210Y-160970000D01*
X74684000Y-160998331D01*
X74684001Y-172111659D01*
X74681210Y-172140000D01*
X74692349Y-172253111D01*
X74719325Y-172342035D01*
X74725344Y-172361876D01*
X74778922Y-172462115D01*
X74794214Y-172480748D01*
X74832963Y-172527964D01*
X74832966Y-172527967D01*
X74851027Y-172549974D01*
X74873033Y-172568034D01*
X75191957Y-172886959D01*
X75200016Y-172927474D01*
X75251050Y-173050680D01*
X75325140Y-173161563D01*
X75419437Y-173255860D01*
X75530320Y-173329950D01*
X75653526Y-173380984D01*
X75784321Y-173407000D01*
X75917679Y-173407000D01*
X76048474Y-173380984D01*
X76171680Y-173329950D01*
X76282563Y-173255860D01*
X76376860Y-173161563D01*
X76450950Y-173050680D01*
X76501984Y-172927474D01*
X76528000Y-172796679D01*
X76528000Y-172663321D01*
X76501984Y-172532526D01*
X76450950Y-172409320D01*
X76376860Y-172298437D01*
X76282563Y-172204140D01*
X76171680Y-172130050D01*
X76048474Y-172079016D01*
X76007959Y-172070957D01*
X75838000Y-171900999D01*
X75838000Y-164673321D01*
X83554000Y-164673321D01*
X83554000Y-164806679D01*
X83580016Y-164937474D01*
X83631050Y-165060680D01*
X83705140Y-165171563D01*
X83799437Y-165265860D01*
X83910320Y-165339950D01*
X84033526Y-165390984D01*
X84164321Y-165417000D01*
X84297679Y-165417000D01*
X84428474Y-165390984D01*
X84551680Y-165339950D01*
X84586027Y-165317000D01*
X85311999Y-165317000D01*
X85654000Y-165659002D01*
X85654001Y-175101655D01*
X85654000Y-175101665D01*
X85654000Y-175691669D01*
X85651210Y-175720000D01*
X85662349Y-175833111D01*
X85675897Y-175877770D01*
X85695343Y-175941876D01*
X85748922Y-176042115D01*
X85779840Y-176079788D01*
X85802963Y-176107964D01*
X85802966Y-176107967D01*
X85821027Y-176129974D01*
X85843033Y-176148034D01*
X86402965Y-176707967D01*
X86421026Y-176729974D01*
X86443033Y-176748035D01*
X86443035Y-176748037D01*
X86462980Y-176764405D01*
X86508885Y-176802079D01*
X86609124Y-176855657D01*
X86717888Y-176888650D01*
X86802664Y-176897000D01*
X86802670Y-176897000D01*
X86830999Y-176899790D01*
X86859328Y-176897000D01*
X87035973Y-176897000D01*
X87070320Y-176919950D01*
X87193526Y-176970984D01*
X87324321Y-176997000D01*
X87457679Y-176997000D01*
X87588474Y-176970984D01*
X87711680Y-176919950D01*
X87822563Y-176845860D01*
X87916860Y-176751563D01*
X87990950Y-176640680D01*
X88041984Y-176517474D01*
X88068000Y-176386679D01*
X88068000Y-176253321D01*
X88041984Y-176122526D01*
X87990950Y-175999320D01*
X87916860Y-175888437D01*
X87822563Y-175794140D01*
X87711680Y-175720050D01*
X87588474Y-175669016D01*
X87457679Y-175643000D01*
X87324321Y-175643000D01*
X87193526Y-175669016D01*
X87070320Y-175720050D01*
X87056372Y-175729370D01*
X86808000Y-175480999D01*
X86808000Y-174494302D01*
X99384000Y-174494302D01*
X99384000Y-174755698D01*
X99434996Y-175012072D01*
X99535028Y-175253570D01*
X99680252Y-175470913D01*
X99865087Y-175655748D01*
X100082430Y-175800972D01*
X100323928Y-175901004D01*
X100580302Y-175952000D01*
X100841698Y-175952000D01*
X101098072Y-175901004D01*
X101339570Y-175800972D01*
X101556913Y-175655748D01*
X101713055Y-175499606D01*
X101712928Y-175525000D01*
X101725188Y-175649482D01*
X101761498Y-175769180D01*
X101820463Y-175879494D01*
X101899815Y-175976185D01*
X101996506Y-176055537D01*
X102106820Y-176114502D01*
X102226518Y-176150812D01*
X102351000Y-176163072D01*
X102965250Y-176160000D01*
X103124000Y-176001250D01*
X103124000Y-174752000D01*
X103378000Y-174752000D01*
X103378000Y-176001250D01*
X103536750Y-176160000D01*
X104151000Y-176163072D01*
X104275482Y-176150812D01*
X104395180Y-176114502D01*
X104505494Y-176055537D01*
X104602185Y-175976185D01*
X104681537Y-175879494D01*
X104740502Y-175769180D01*
X104776812Y-175649482D01*
X104789072Y-175525000D01*
X104786000Y-174910750D01*
X104627250Y-174752000D01*
X103378000Y-174752000D01*
X103124000Y-174752000D01*
X103104000Y-174752000D01*
X103104000Y-174498000D01*
X103124000Y-174498000D01*
X103124000Y-173248750D01*
X103378000Y-173248750D01*
X103378000Y-174498000D01*
X104627250Y-174498000D01*
X104786000Y-174339250D01*
X104789072Y-173725000D01*
X104776812Y-173600518D01*
X104740502Y-173480820D01*
X104681537Y-173370506D01*
X104602185Y-173273815D01*
X104505494Y-173194463D01*
X104395180Y-173135498D01*
X104275482Y-173099188D01*
X104151000Y-173086928D01*
X103536750Y-173090000D01*
X103378000Y-173248750D01*
X103124000Y-173248750D01*
X102965250Y-173090000D01*
X102351000Y-173086928D01*
X102226518Y-173099188D01*
X102106820Y-173135498D01*
X101996506Y-173194463D01*
X101899815Y-173273815D01*
X101820463Y-173370506D01*
X101761498Y-173480820D01*
X101725188Y-173600518D01*
X101712928Y-173725000D01*
X101713055Y-173750394D01*
X101556913Y-173594252D01*
X101339570Y-173449028D01*
X101098072Y-173348996D01*
X100841698Y-173298000D01*
X100580302Y-173298000D01*
X100323928Y-173348996D01*
X100082430Y-173449028D01*
X99865087Y-173594252D01*
X99680252Y-173779087D01*
X99535028Y-173996430D01*
X99434996Y-174237928D01*
X99384000Y-174494302D01*
X86808000Y-174494302D01*
X86808000Y-171319302D01*
X138119000Y-171319302D01*
X138119000Y-171580698D01*
X138169996Y-171837072D01*
X138270028Y-172078570D01*
X138415252Y-172295913D01*
X138600087Y-172480748D01*
X138817430Y-172625972D01*
X139058928Y-172726004D01*
X139315302Y-172777000D01*
X139576698Y-172777000D01*
X139833072Y-172726004D01*
X140074570Y-172625972D01*
X140291913Y-172480748D01*
X140448055Y-172324606D01*
X140447928Y-172350000D01*
X140460188Y-172474482D01*
X140496498Y-172594180D01*
X140555463Y-172704494D01*
X140634815Y-172801185D01*
X140731506Y-172880537D01*
X140841820Y-172939502D01*
X140961518Y-172975812D01*
X141086000Y-172988072D01*
X141700250Y-172985000D01*
X141859000Y-172826250D01*
X141859000Y-171577000D01*
X142113000Y-171577000D01*
X142113000Y-172826250D01*
X142271750Y-172985000D01*
X142886000Y-172988072D01*
X143010482Y-172975812D01*
X143130180Y-172939502D01*
X143240494Y-172880537D01*
X143337185Y-172801185D01*
X143416537Y-172704494D01*
X143475502Y-172594180D01*
X143511812Y-172474482D01*
X143524072Y-172350000D01*
X146162928Y-172350000D01*
X146175188Y-172474482D01*
X146211498Y-172594180D01*
X146270463Y-172704494D01*
X146349815Y-172801185D01*
X146446506Y-172880537D01*
X146556820Y-172939502D01*
X146676518Y-172975812D01*
X146801000Y-172988072D01*
X147415250Y-172985000D01*
X147574000Y-172826250D01*
X147574000Y-171577000D01*
X146324750Y-171577000D01*
X146166000Y-171735750D01*
X146162928Y-172350000D01*
X143524072Y-172350000D01*
X143521000Y-171735750D01*
X143362250Y-171577000D01*
X142113000Y-171577000D01*
X141859000Y-171577000D01*
X141839000Y-171577000D01*
X141839000Y-171323000D01*
X141859000Y-171323000D01*
X141859000Y-170073750D01*
X142113000Y-170073750D01*
X142113000Y-171323000D01*
X143362250Y-171323000D01*
X143521000Y-171164250D01*
X143524072Y-170550000D01*
X146162928Y-170550000D01*
X146166000Y-171164250D01*
X146324750Y-171323000D01*
X147574000Y-171323000D01*
X147574000Y-170073750D01*
X147828000Y-170073750D01*
X147828000Y-171323000D01*
X147848000Y-171323000D01*
X147848000Y-171577000D01*
X147828000Y-171577000D01*
X147828000Y-172826250D01*
X147986750Y-172985000D01*
X148601000Y-172988072D01*
X148725482Y-172975812D01*
X148845180Y-172939502D01*
X148955494Y-172880537D01*
X149052185Y-172801185D01*
X149131537Y-172704494D01*
X149190502Y-172594180D01*
X149226812Y-172474482D01*
X149239072Y-172350000D01*
X149238945Y-172324606D01*
X149395087Y-172480748D01*
X149612430Y-172625972D01*
X149853928Y-172726004D01*
X150110302Y-172777000D01*
X150371698Y-172777000D01*
X150628072Y-172726004D01*
X150869570Y-172625972D01*
X151086913Y-172480748D01*
X151271748Y-172295913D01*
X151416972Y-172078570D01*
X151517004Y-171837072D01*
X151568000Y-171580698D01*
X151568000Y-171319302D01*
X151517004Y-171062928D01*
X151416972Y-170821430D01*
X151271748Y-170604087D01*
X151086913Y-170419252D01*
X150869570Y-170274028D01*
X150628072Y-170173996D01*
X150371698Y-170123000D01*
X150110302Y-170123000D01*
X149853928Y-170173996D01*
X149612430Y-170274028D01*
X149395087Y-170419252D01*
X149238945Y-170575394D01*
X149239072Y-170550000D01*
X149226812Y-170425518D01*
X149190502Y-170305820D01*
X149131537Y-170195506D01*
X149052185Y-170098815D01*
X148955494Y-170019463D01*
X148845180Y-169960498D01*
X148725482Y-169924188D01*
X148601000Y-169911928D01*
X147986750Y-169915000D01*
X147828000Y-170073750D01*
X147574000Y-170073750D01*
X147415250Y-169915000D01*
X146801000Y-169911928D01*
X146676518Y-169924188D01*
X146556820Y-169960498D01*
X146446506Y-170019463D01*
X146349815Y-170098815D01*
X146270463Y-170195506D01*
X146211498Y-170305820D01*
X146175188Y-170425518D01*
X146162928Y-170550000D01*
X143524072Y-170550000D01*
X143511812Y-170425518D01*
X143475502Y-170305820D01*
X143416537Y-170195506D01*
X143337185Y-170098815D01*
X143240494Y-170019463D01*
X143130180Y-169960498D01*
X143010482Y-169924188D01*
X142886000Y-169911928D01*
X142271750Y-169915000D01*
X142113000Y-170073750D01*
X141859000Y-170073750D01*
X141700250Y-169915000D01*
X141086000Y-169911928D01*
X140961518Y-169924188D01*
X140841820Y-169960498D01*
X140731506Y-170019463D01*
X140634815Y-170098815D01*
X140555463Y-170195506D01*
X140496498Y-170305820D01*
X140460188Y-170425518D01*
X140447928Y-170550000D01*
X140448055Y-170575394D01*
X140291913Y-170419252D01*
X140074570Y-170274028D01*
X139833072Y-170173996D01*
X139576698Y-170123000D01*
X139315302Y-170123000D01*
X139058928Y-170173996D01*
X138817430Y-170274028D01*
X138600087Y-170419252D01*
X138415252Y-170604087D01*
X138270028Y-170821430D01*
X138169996Y-171062928D01*
X138119000Y-171319302D01*
X86808000Y-171319302D01*
X86808000Y-170782717D01*
X86832208Y-170792744D01*
X86861670Y-170808492D01*
X86893636Y-170818189D01*
X86924526Y-170830984D01*
X86957315Y-170837506D01*
X86989285Y-170847204D01*
X87022536Y-170850479D01*
X87055321Y-170857000D01*
X92803755Y-170857000D01*
X92837000Y-170860274D01*
X92870245Y-170857000D01*
X92870252Y-170857000D01*
X92969715Y-170847204D01*
X93097330Y-170808492D01*
X93214941Y-170745628D01*
X93318027Y-170661027D01*
X93339226Y-170635196D01*
X95657422Y-168317000D01*
X99520294Y-168317000D01*
X99434996Y-168522928D01*
X99384000Y-168779302D01*
X99384000Y-169040698D01*
X99434996Y-169297072D01*
X99535028Y-169538570D01*
X99680252Y-169755913D01*
X99865087Y-169940748D01*
X100082430Y-170085972D01*
X100323928Y-170186004D01*
X100580302Y-170237000D01*
X100841698Y-170237000D01*
X101098072Y-170186004D01*
X101339570Y-170085972D01*
X101556913Y-169940748D01*
X101713055Y-169784606D01*
X101712928Y-169810000D01*
X101725188Y-169934482D01*
X101761498Y-170054180D01*
X101820463Y-170164494D01*
X101899815Y-170261185D01*
X101996506Y-170340537D01*
X102106820Y-170399502D01*
X102226518Y-170435812D01*
X102351000Y-170448072D01*
X102965250Y-170445000D01*
X103124000Y-170286250D01*
X103124000Y-169037000D01*
X103378000Y-169037000D01*
X103378000Y-170286250D01*
X103536750Y-170445000D01*
X104151000Y-170448072D01*
X104275482Y-170435812D01*
X104395180Y-170399502D01*
X104505494Y-170340537D01*
X104602185Y-170261185D01*
X104681537Y-170164494D01*
X104740502Y-170054180D01*
X104776812Y-169934482D01*
X104789072Y-169810000D01*
X104786000Y-169195750D01*
X104627250Y-169037000D01*
X103378000Y-169037000D01*
X103124000Y-169037000D01*
X103104000Y-169037000D01*
X103104000Y-168783000D01*
X103124000Y-168783000D01*
X103124000Y-168763000D01*
X103378000Y-168763000D01*
X103378000Y-168783000D01*
X104627250Y-168783000D01*
X104786000Y-168624250D01*
X104787537Y-168317000D01*
X118013255Y-168317000D01*
X118046500Y-168320274D01*
X118079745Y-168317000D01*
X118079752Y-168317000D01*
X118179215Y-168307204D01*
X118306830Y-168268492D01*
X118424441Y-168205628D01*
X118527527Y-168121027D01*
X118548726Y-168095196D01*
X120216196Y-166427726D01*
X120242027Y-166406527D01*
X120326628Y-166303441D01*
X120389492Y-166185830D01*
X120428204Y-166058215D01*
X120438000Y-165958752D01*
X120438000Y-165958743D01*
X120441274Y-165925501D01*
X120438000Y-165892259D01*
X120438000Y-165604302D01*
X138119000Y-165604302D01*
X138119000Y-165865698D01*
X138169996Y-166122072D01*
X138270028Y-166363570D01*
X138415252Y-166580913D01*
X138600087Y-166765748D01*
X138817430Y-166910972D01*
X139058928Y-167011004D01*
X139315302Y-167062000D01*
X139576698Y-167062000D01*
X139833072Y-167011004D01*
X140074570Y-166910972D01*
X140291913Y-166765748D01*
X140448055Y-166609606D01*
X140447928Y-166635000D01*
X140460188Y-166759482D01*
X140496498Y-166879180D01*
X140555463Y-166989494D01*
X140634815Y-167086185D01*
X140731506Y-167165537D01*
X140841820Y-167224502D01*
X140961518Y-167260812D01*
X141086000Y-167273072D01*
X141700250Y-167270000D01*
X141859000Y-167111250D01*
X141859000Y-165862000D01*
X142113000Y-165862000D01*
X142113000Y-167111250D01*
X142271750Y-167270000D01*
X142886000Y-167273072D01*
X143010482Y-167260812D01*
X143130180Y-167224502D01*
X143240494Y-167165537D01*
X143337185Y-167086185D01*
X143416537Y-166989494D01*
X143475502Y-166879180D01*
X143511812Y-166759482D01*
X143524072Y-166635000D01*
X146162928Y-166635000D01*
X146175188Y-166759482D01*
X146211498Y-166879180D01*
X146270463Y-166989494D01*
X146349815Y-167086185D01*
X146446506Y-167165537D01*
X146556820Y-167224502D01*
X146676518Y-167260812D01*
X146801000Y-167273072D01*
X147415250Y-167270000D01*
X147574000Y-167111250D01*
X147574000Y-165862000D01*
X146324750Y-165862000D01*
X146166000Y-166020750D01*
X146162928Y-166635000D01*
X143524072Y-166635000D01*
X143521000Y-166020750D01*
X143362250Y-165862000D01*
X142113000Y-165862000D01*
X141859000Y-165862000D01*
X141839000Y-165862000D01*
X141839000Y-165608000D01*
X141859000Y-165608000D01*
X141859000Y-164358750D01*
X142113000Y-164358750D01*
X142113000Y-165608000D01*
X143362250Y-165608000D01*
X143521000Y-165449250D01*
X143524072Y-164835000D01*
X146162928Y-164835000D01*
X146166000Y-165449250D01*
X146324750Y-165608000D01*
X147574000Y-165608000D01*
X147574000Y-164358750D01*
X147828000Y-164358750D01*
X147828000Y-165608000D01*
X147848000Y-165608000D01*
X147848000Y-165862000D01*
X147828000Y-165862000D01*
X147828000Y-167111250D01*
X147986750Y-167270000D01*
X148601000Y-167273072D01*
X148725482Y-167260812D01*
X148845180Y-167224502D01*
X148955494Y-167165537D01*
X149052185Y-167086185D01*
X149131537Y-166989494D01*
X149190502Y-166879180D01*
X149226812Y-166759482D01*
X149239072Y-166635000D01*
X149238945Y-166609606D01*
X149395087Y-166765748D01*
X149612430Y-166910972D01*
X149853928Y-167011004D01*
X150110302Y-167062000D01*
X150371698Y-167062000D01*
X150628072Y-167011004D01*
X150869570Y-166910972D01*
X151086913Y-166765748D01*
X151271748Y-166580913D01*
X151416972Y-166363570D01*
X151517004Y-166122072D01*
X151568000Y-165865698D01*
X151568000Y-165604302D01*
X151517004Y-165347928D01*
X151416972Y-165106430D01*
X151271748Y-164889087D01*
X151086913Y-164704252D01*
X150869570Y-164559028D01*
X150628072Y-164458996D01*
X150371698Y-164408000D01*
X150110302Y-164408000D01*
X149853928Y-164458996D01*
X149612430Y-164559028D01*
X149395087Y-164704252D01*
X149238945Y-164860394D01*
X149239072Y-164835000D01*
X149226812Y-164710518D01*
X149190502Y-164590820D01*
X149131537Y-164480506D01*
X149052185Y-164383815D01*
X148955494Y-164304463D01*
X148845180Y-164245498D01*
X148725482Y-164209188D01*
X148601000Y-164196928D01*
X147986750Y-164200000D01*
X147828000Y-164358750D01*
X147574000Y-164358750D01*
X147415250Y-164200000D01*
X146801000Y-164196928D01*
X146676518Y-164209188D01*
X146556820Y-164245498D01*
X146446506Y-164304463D01*
X146349815Y-164383815D01*
X146270463Y-164480506D01*
X146211498Y-164590820D01*
X146175188Y-164710518D01*
X146162928Y-164835000D01*
X143524072Y-164835000D01*
X143511812Y-164710518D01*
X143475502Y-164590820D01*
X143416537Y-164480506D01*
X143337185Y-164383815D01*
X143240494Y-164304463D01*
X143130180Y-164245498D01*
X143010482Y-164209188D01*
X142886000Y-164196928D01*
X142271750Y-164200000D01*
X142113000Y-164358750D01*
X141859000Y-164358750D01*
X141700250Y-164200000D01*
X141086000Y-164196928D01*
X140961518Y-164209188D01*
X140841820Y-164245498D01*
X140731506Y-164304463D01*
X140634815Y-164383815D01*
X140555463Y-164480506D01*
X140496498Y-164590820D01*
X140460188Y-164710518D01*
X140447928Y-164835000D01*
X140448055Y-164860394D01*
X140291913Y-164704252D01*
X140074570Y-164559028D01*
X139833072Y-164458996D01*
X139576698Y-164408000D01*
X139315302Y-164408000D01*
X139058928Y-164458996D01*
X138817430Y-164559028D01*
X138600087Y-164704252D01*
X138415252Y-164889087D01*
X138270028Y-165106430D01*
X138169996Y-165347928D01*
X138119000Y-165604302D01*
X120438000Y-165604302D01*
X120438000Y-162776922D01*
X123325620Y-159889302D01*
X138119000Y-159889302D01*
X138119000Y-160150698D01*
X138169996Y-160407072D01*
X138270028Y-160648570D01*
X138415252Y-160865913D01*
X138600087Y-161050748D01*
X138817430Y-161195972D01*
X139058928Y-161296004D01*
X139315302Y-161347000D01*
X139576698Y-161347000D01*
X139833072Y-161296004D01*
X140074570Y-161195972D01*
X140291913Y-161050748D01*
X140448055Y-160894606D01*
X140447928Y-160920000D01*
X140460188Y-161044482D01*
X140496498Y-161164180D01*
X140555463Y-161274494D01*
X140634815Y-161371185D01*
X140731506Y-161450537D01*
X140841820Y-161509502D01*
X140961518Y-161545812D01*
X141086000Y-161558072D01*
X141700250Y-161555000D01*
X141859000Y-161396250D01*
X141859000Y-160147000D01*
X142113000Y-160147000D01*
X142113000Y-161396250D01*
X142271750Y-161555000D01*
X142886000Y-161558072D01*
X143010482Y-161545812D01*
X143130180Y-161509502D01*
X143240494Y-161450537D01*
X143337185Y-161371185D01*
X143416537Y-161274494D01*
X143475502Y-161164180D01*
X143511812Y-161044482D01*
X143524072Y-160920000D01*
X146162928Y-160920000D01*
X146175188Y-161044482D01*
X146211498Y-161164180D01*
X146270463Y-161274494D01*
X146349815Y-161371185D01*
X146446506Y-161450537D01*
X146556820Y-161509502D01*
X146676518Y-161545812D01*
X146801000Y-161558072D01*
X147415250Y-161555000D01*
X147574000Y-161396250D01*
X147574000Y-160147000D01*
X146324750Y-160147000D01*
X146166000Y-160305750D01*
X146162928Y-160920000D01*
X143524072Y-160920000D01*
X143521000Y-160305750D01*
X143362250Y-160147000D01*
X142113000Y-160147000D01*
X141859000Y-160147000D01*
X141839000Y-160147000D01*
X141839000Y-159893000D01*
X141859000Y-159893000D01*
X141859000Y-158643750D01*
X142113000Y-158643750D01*
X142113000Y-159893000D01*
X143362250Y-159893000D01*
X143521000Y-159734250D01*
X143524072Y-159120000D01*
X146162928Y-159120000D01*
X146166000Y-159734250D01*
X146324750Y-159893000D01*
X147574000Y-159893000D01*
X147574000Y-158643750D01*
X147828000Y-158643750D01*
X147828000Y-159893000D01*
X147848000Y-159893000D01*
X147848000Y-160147000D01*
X147828000Y-160147000D01*
X147828000Y-161396250D01*
X147986750Y-161555000D01*
X148601000Y-161558072D01*
X148725482Y-161545812D01*
X148845180Y-161509502D01*
X148955494Y-161450537D01*
X149052185Y-161371185D01*
X149131537Y-161274494D01*
X149190502Y-161164180D01*
X149226812Y-161044482D01*
X149239072Y-160920000D01*
X149238945Y-160894606D01*
X149395087Y-161050748D01*
X149612430Y-161195972D01*
X149853928Y-161296004D01*
X150110302Y-161347000D01*
X150371698Y-161347000D01*
X150628072Y-161296004D01*
X150854075Y-161202390D01*
X167786024Y-161202390D01*
X167830675Y-161349599D01*
X167955859Y-161612420D01*
X168129912Y-161845769D01*
X168346145Y-162040678D01*
X168596248Y-162189657D01*
X168870609Y-162286981D01*
X169100500Y-162166314D01*
X169100500Y-160972500D01*
X169354500Y-160972500D01*
X169354500Y-162166314D01*
X169584391Y-162286981D01*
X169858752Y-162189657D01*
X170108855Y-162040678D01*
X170325088Y-161845769D01*
X170499141Y-161612420D01*
X170624325Y-161349599D01*
X170668976Y-161202390D01*
X170547655Y-160972500D01*
X169354500Y-160972500D01*
X169100500Y-160972500D01*
X167907345Y-160972500D01*
X167786024Y-161202390D01*
X150854075Y-161202390D01*
X150869570Y-161195972D01*
X151086913Y-161050748D01*
X151271748Y-160865913D01*
X151416972Y-160648570D01*
X151517004Y-160407072D01*
X151568000Y-160150698D01*
X151568000Y-159889302D01*
X151517004Y-159632928D01*
X151416972Y-159391430D01*
X151271748Y-159174087D01*
X151086913Y-158989252D01*
X150869570Y-158844028D01*
X150628072Y-158743996D01*
X150371698Y-158693000D01*
X150110302Y-158693000D01*
X149853928Y-158743996D01*
X149612430Y-158844028D01*
X149395087Y-158989252D01*
X149238945Y-159145394D01*
X149239072Y-159120000D01*
X149226812Y-158995518D01*
X149190502Y-158875820D01*
X149131537Y-158765506D01*
X149052185Y-158668815D01*
X149044357Y-158662390D01*
X167786024Y-158662390D01*
X167830675Y-158809599D01*
X167955859Y-159072420D01*
X168129912Y-159305769D01*
X168346145Y-159500678D01*
X168471755Y-159575500D01*
X168346145Y-159650322D01*
X168129912Y-159845231D01*
X167955859Y-160078580D01*
X167830675Y-160341401D01*
X167786024Y-160488610D01*
X167907345Y-160718500D01*
X169100500Y-160718500D01*
X169100500Y-158432500D01*
X169354500Y-158432500D01*
X169354500Y-160718500D01*
X170547655Y-160718500D01*
X170668976Y-160488610D01*
X170624325Y-160341401D01*
X170499141Y-160078580D01*
X170325088Y-159845231D01*
X170108855Y-159650322D01*
X169983245Y-159575500D01*
X170108855Y-159500678D01*
X170325088Y-159305769D01*
X170499141Y-159072420D01*
X170624325Y-158809599D01*
X170668976Y-158662390D01*
X170547655Y-158432500D01*
X169354500Y-158432500D01*
X169100500Y-158432500D01*
X167907345Y-158432500D01*
X167786024Y-158662390D01*
X149044357Y-158662390D01*
X148955494Y-158589463D01*
X148845180Y-158530498D01*
X148725482Y-158494188D01*
X148601000Y-158481928D01*
X147986750Y-158485000D01*
X147828000Y-158643750D01*
X147574000Y-158643750D01*
X147415250Y-158485000D01*
X146801000Y-158481928D01*
X146676518Y-158494188D01*
X146556820Y-158530498D01*
X146446506Y-158589463D01*
X146349815Y-158668815D01*
X146270463Y-158765506D01*
X146211498Y-158875820D01*
X146175188Y-158995518D01*
X146162928Y-159120000D01*
X143524072Y-159120000D01*
X143511812Y-158995518D01*
X143475502Y-158875820D01*
X143416537Y-158765506D01*
X143337185Y-158668815D01*
X143240494Y-158589463D01*
X143130180Y-158530498D01*
X143010482Y-158494188D01*
X142886000Y-158481928D01*
X142271750Y-158485000D01*
X142113000Y-158643750D01*
X141859000Y-158643750D01*
X141700250Y-158485000D01*
X141086000Y-158481928D01*
X140961518Y-158494188D01*
X140841820Y-158530498D01*
X140731506Y-158589463D01*
X140634815Y-158668815D01*
X140555463Y-158765506D01*
X140496498Y-158875820D01*
X140460188Y-158995518D01*
X140447928Y-159120000D01*
X140448055Y-159145394D01*
X140291913Y-158989252D01*
X140074570Y-158844028D01*
X139833072Y-158743996D01*
X139576698Y-158693000D01*
X139315302Y-158693000D01*
X139058928Y-158743996D01*
X138817430Y-158844028D01*
X138600087Y-158989252D01*
X138415252Y-159174087D01*
X138270028Y-159391430D01*
X138169996Y-159632928D01*
X138119000Y-159889302D01*
X123325620Y-159889302D01*
X125375422Y-157839500D01*
X153509755Y-157839500D01*
X153543000Y-157842774D01*
X153576245Y-157839500D01*
X153576252Y-157839500D01*
X153675715Y-157829704D01*
X153803330Y-157790992D01*
X153920941Y-157728128D01*
X154024027Y-157643527D01*
X154045226Y-157617696D01*
X155220422Y-156442500D01*
X168141389Y-156442500D01*
X168160576Y-156478396D01*
X168320156Y-156672844D01*
X168514604Y-156832424D01*
X168692150Y-156927324D01*
X168596248Y-156961343D01*
X168346145Y-157110322D01*
X168129912Y-157305231D01*
X167955859Y-157538580D01*
X167830675Y-157801401D01*
X167786024Y-157948610D01*
X167907345Y-158178500D01*
X169100500Y-158178500D01*
X169100500Y-158158500D01*
X169354500Y-158158500D01*
X169354500Y-158178500D01*
X170547655Y-158178500D01*
X170668976Y-157948610D01*
X170624325Y-157801401D01*
X170499141Y-157538580D01*
X170325088Y-157305231D01*
X170108855Y-157110322D01*
X169858752Y-156961343D01*
X169762850Y-156927324D01*
X169940396Y-156832424D01*
X170134844Y-156672844D01*
X170294424Y-156478396D01*
X170413002Y-156256551D01*
X170486022Y-156015836D01*
X170510678Y-155765500D01*
X170486022Y-155515164D01*
X170413002Y-155274449D01*
X170294424Y-155052604D01*
X170134844Y-154858156D01*
X169940396Y-154698576D01*
X169904500Y-154679389D01*
X169904500Y-154504566D01*
X170077500Y-154504566D01*
X170161207Y-154496322D01*
X170241696Y-154471905D01*
X170315876Y-154432255D01*
X170380895Y-154378895D01*
X170434255Y-154313876D01*
X170473905Y-154239696D01*
X170498322Y-154159207D01*
X170506566Y-154075500D01*
X170506566Y-152375500D01*
X170498322Y-152291793D01*
X170473905Y-152211304D01*
X170434255Y-152137124D01*
X170380895Y-152072105D01*
X170315876Y-152018745D01*
X170241696Y-151979095D01*
X170161207Y-151954678D01*
X170077500Y-151946434D01*
X169904500Y-151946434D01*
X169904500Y-139987252D01*
X169907775Y-139954000D01*
X169894704Y-139821285D01*
X169855992Y-139693670D01*
X169793128Y-139576059D01*
X169729724Y-139498801D01*
X169729722Y-139498799D01*
X169708527Y-139472973D01*
X169682701Y-139451778D01*
X168840726Y-138609804D01*
X168819527Y-138583973D01*
X168716441Y-138499372D01*
X168598830Y-138436508D01*
X168471215Y-138397796D01*
X168371752Y-138388000D01*
X168371745Y-138388000D01*
X168338500Y-138384726D01*
X168305255Y-138388000D01*
X130616321Y-138388000D01*
X130583536Y-138394521D01*
X130550285Y-138397796D01*
X130518315Y-138407494D01*
X130485526Y-138414016D01*
X130454636Y-138426811D01*
X130422670Y-138436508D01*
X130393208Y-138452256D01*
X130362320Y-138465050D01*
X130334524Y-138483623D01*
X130305059Y-138499372D01*
X130279231Y-138520568D01*
X130251437Y-138539140D01*
X130227801Y-138562776D01*
X130201973Y-138583973D01*
X130180778Y-138609799D01*
X130157140Y-138633437D01*
X130138568Y-138661231D01*
X130117372Y-138687059D01*
X130101623Y-138716524D01*
X130083050Y-138744320D01*
X130070256Y-138775208D01*
X130054508Y-138804670D01*
X130044811Y-138836636D01*
X130032016Y-138867526D01*
X130025494Y-138900315D01*
X130015796Y-138932285D01*
X130012521Y-138965536D01*
X130006000Y-138998321D01*
X130006000Y-139031748D01*
X130002725Y-139065000D01*
X130006000Y-139098252D01*
X130006000Y-139131679D01*
X130012521Y-139164464D01*
X130015796Y-139197715D01*
X130025494Y-139229685D01*
X130032016Y-139262474D01*
X130044811Y-139293364D01*
X130054508Y-139325330D01*
X130070256Y-139354792D01*
X130083050Y-139385680D01*
X130101623Y-139413476D01*
X130117372Y-139442941D01*
X130138568Y-139468769D01*
X130157140Y-139496563D01*
X130180778Y-139520201D01*
X130201973Y-139546027D01*
X130227799Y-139567222D01*
X130251437Y-139590860D01*
X130279231Y-139609432D01*
X130305059Y-139630628D01*
X130334524Y-139646377D01*
X130362320Y-139664950D01*
X130393208Y-139677744D01*
X130422670Y-139693492D01*
X130454636Y-139703189D01*
X130485526Y-139715984D01*
X130518315Y-139722506D01*
X130550285Y-139732204D01*
X130583536Y-139735479D01*
X130616321Y-139742000D01*
X168058078Y-139742000D01*
X168550501Y-140234424D01*
X168550500Y-151946434D01*
X168377500Y-151946434D01*
X168293793Y-151954678D01*
X168213304Y-151979095D01*
X168139124Y-152018745D01*
X168074105Y-152072105D01*
X168020745Y-152137124D01*
X167981095Y-152211304D01*
X167956678Y-152291793D01*
X167948434Y-152375500D01*
X167948434Y-154075500D01*
X167956678Y-154159207D01*
X167981095Y-154239696D01*
X168020745Y-154313876D01*
X168074105Y-154378895D01*
X168139124Y-154432255D01*
X168213304Y-154471905D01*
X168293793Y-154496322D01*
X168377500Y-154504566D01*
X168550501Y-154504566D01*
X168550501Y-154679389D01*
X168514604Y-154698576D01*
X168320156Y-154858156D01*
X168160576Y-155052604D01*
X168141389Y-155088500D01*
X154973241Y-155088500D01*
X154939999Y-155085226D01*
X154906757Y-155088500D01*
X154906748Y-155088500D01*
X154807285Y-155098296D01*
X154679670Y-155137008D01*
X154562059Y-155199872D01*
X154458973Y-155284473D01*
X154437774Y-155310304D01*
X153262578Y-156485500D01*
X125481502Y-156485500D01*
X127792700Y-154174302D01*
X138119000Y-154174302D01*
X138119000Y-154435698D01*
X138169996Y-154692072D01*
X138270028Y-154933570D01*
X138415252Y-155150913D01*
X138600087Y-155335748D01*
X138817430Y-155480972D01*
X139058928Y-155581004D01*
X139315302Y-155632000D01*
X139576698Y-155632000D01*
X139833072Y-155581004D01*
X140074570Y-155480972D01*
X140291913Y-155335748D01*
X140448055Y-155179606D01*
X140447928Y-155205000D01*
X140460188Y-155329482D01*
X140496498Y-155449180D01*
X140555463Y-155559494D01*
X140634815Y-155656185D01*
X140731506Y-155735537D01*
X140841820Y-155794502D01*
X140961518Y-155830812D01*
X141086000Y-155843072D01*
X141700250Y-155840000D01*
X141859000Y-155681250D01*
X141859000Y-154432000D01*
X142113000Y-154432000D01*
X142113000Y-155681250D01*
X142271750Y-155840000D01*
X142886000Y-155843072D01*
X143010482Y-155830812D01*
X143130180Y-155794502D01*
X143240494Y-155735537D01*
X143337185Y-155656185D01*
X143416537Y-155559494D01*
X143475502Y-155449180D01*
X143511812Y-155329482D01*
X143524072Y-155205000D01*
X146162928Y-155205000D01*
X146175188Y-155329482D01*
X146211498Y-155449180D01*
X146270463Y-155559494D01*
X146349815Y-155656185D01*
X146446506Y-155735537D01*
X146556820Y-155794502D01*
X146676518Y-155830812D01*
X146801000Y-155843072D01*
X147415250Y-155840000D01*
X147574000Y-155681250D01*
X147574000Y-154432000D01*
X146324750Y-154432000D01*
X146166000Y-154590750D01*
X146162928Y-155205000D01*
X143524072Y-155205000D01*
X143521000Y-154590750D01*
X143362250Y-154432000D01*
X142113000Y-154432000D01*
X141859000Y-154432000D01*
X141839000Y-154432000D01*
X141839000Y-154178000D01*
X141859000Y-154178000D01*
X141859000Y-152928750D01*
X142113000Y-152928750D01*
X142113000Y-154178000D01*
X143362250Y-154178000D01*
X143521000Y-154019250D01*
X143524072Y-153405000D01*
X146162928Y-153405000D01*
X146166000Y-154019250D01*
X146324750Y-154178000D01*
X147574000Y-154178000D01*
X147574000Y-152928750D01*
X147828000Y-152928750D01*
X147828000Y-154178000D01*
X147848000Y-154178000D01*
X147848000Y-154432000D01*
X147828000Y-154432000D01*
X147828000Y-155681250D01*
X147986750Y-155840000D01*
X148601000Y-155843072D01*
X148725482Y-155830812D01*
X148845180Y-155794502D01*
X148955494Y-155735537D01*
X149052185Y-155656185D01*
X149131537Y-155559494D01*
X149190502Y-155449180D01*
X149226812Y-155329482D01*
X149239072Y-155205000D01*
X149238945Y-155179606D01*
X149395087Y-155335748D01*
X149612430Y-155480972D01*
X149853928Y-155581004D01*
X150110302Y-155632000D01*
X150371698Y-155632000D01*
X150628072Y-155581004D01*
X150869570Y-155480972D01*
X151086913Y-155335748D01*
X151271748Y-155150913D01*
X151416972Y-154933570D01*
X151517004Y-154692072D01*
X151568000Y-154435698D01*
X151568000Y-154174302D01*
X151517004Y-153917928D01*
X151416972Y-153676430D01*
X151271748Y-153459087D01*
X151086913Y-153274252D01*
X150869570Y-153129028D01*
X150628072Y-153028996D01*
X150371698Y-152978000D01*
X150110302Y-152978000D01*
X149853928Y-153028996D01*
X149612430Y-153129028D01*
X149395087Y-153274252D01*
X149238945Y-153430394D01*
X149239072Y-153405000D01*
X149226812Y-153280518D01*
X149190502Y-153160820D01*
X149131537Y-153050506D01*
X149052185Y-152953815D01*
X148955494Y-152874463D01*
X148845180Y-152815498D01*
X148725482Y-152779188D01*
X148601000Y-152766928D01*
X147986750Y-152770000D01*
X147828000Y-152928750D01*
X147574000Y-152928750D01*
X147415250Y-152770000D01*
X146801000Y-152766928D01*
X146676518Y-152779188D01*
X146556820Y-152815498D01*
X146446506Y-152874463D01*
X146349815Y-152953815D01*
X146270463Y-153050506D01*
X146211498Y-153160820D01*
X146175188Y-153280518D01*
X146162928Y-153405000D01*
X143524072Y-153405000D01*
X143511812Y-153280518D01*
X143475502Y-153160820D01*
X143416537Y-153050506D01*
X143337185Y-152953815D01*
X143240494Y-152874463D01*
X143130180Y-152815498D01*
X143010482Y-152779188D01*
X142886000Y-152766928D01*
X142271750Y-152770000D01*
X142113000Y-152928750D01*
X141859000Y-152928750D01*
X141700250Y-152770000D01*
X141086000Y-152766928D01*
X140961518Y-152779188D01*
X140841820Y-152815498D01*
X140731506Y-152874463D01*
X140634815Y-152953815D01*
X140555463Y-153050506D01*
X140496498Y-153160820D01*
X140460188Y-153280518D01*
X140447928Y-153405000D01*
X140448055Y-153430394D01*
X140291913Y-153274252D01*
X140074570Y-153129028D01*
X139833072Y-153028996D01*
X139576698Y-152978000D01*
X139315302Y-152978000D01*
X139058928Y-153028996D01*
X138817430Y-153129028D01*
X138600087Y-153274252D01*
X138415252Y-153459087D01*
X138270028Y-153676430D01*
X138169996Y-153917928D01*
X138119000Y-154174302D01*
X127792700Y-154174302D01*
X130100002Y-151867000D01*
X155415973Y-151867000D01*
X155450320Y-151889950D01*
X155573526Y-151940984D01*
X155704321Y-151967000D01*
X155837679Y-151967000D01*
X155968474Y-151940984D01*
X156091680Y-151889950D01*
X156202563Y-151815860D01*
X156296860Y-151721563D01*
X156370950Y-151610680D01*
X156421984Y-151487474D01*
X156448000Y-151356679D01*
X156448000Y-151223321D01*
X156421984Y-151092526D01*
X156370950Y-150969320D01*
X156296860Y-150858437D01*
X156202563Y-150764140D01*
X156091680Y-150690050D01*
X155968474Y-150639016D01*
X155837679Y-150613000D01*
X155704321Y-150613000D01*
X155573526Y-150639016D01*
X155450320Y-150690050D01*
X155415973Y-150713000D01*
X129889328Y-150713000D01*
X129860999Y-150710210D01*
X129832670Y-150713000D01*
X129832664Y-150713000D01*
X129747888Y-150721350D01*
X129639124Y-150754343D01*
X129538885Y-150807921D01*
X129507720Y-150833498D01*
X129473035Y-150861963D01*
X129473033Y-150861965D01*
X129451026Y-150880026D01*
X129432965Y-150902033D01*
X124828000Y-155506998D01*
X124828000Y-154675027D01*
X124850950Y-154640680D01*
X124901984Y-154517474D01*
X124928000Y-154386679D01*
X124928000Y-154253321D01*
X124901984Y-154122526D01*
X124850950Y-153999320D01*
X124776860Y-153888437D01*
X124682563Y-153794140D01*
X124571680Y-153720050D01*
X124448474Y-153669016D01*
X124317679Y-153643000D01*
X124184321Y-153643000D01*
X124053526Y-153669016D01*
X123930320Y-153720050D01*
X123819437Y-153794140D01*
X123725140Y-153888437D01*
X123651050Y-153999320D01*
X123600016Y-154122526D01*
X123574000Y-154253321D01*
X123574000Y-154386679D01*
X123600016Y-154517474D01*
X123651050Y-154640680D01*
X123674001Y-154675028D01*
X123674000Y-155760999D01*
X114621999Y-164813000D01*
X95759339Y-164813000D01*
X95731000Y-164810209D01*
X95617888Y-164821349D01*
X95509123Y-164854343D01*
X95483228Y-164868184D01*
X95408885Y-164907921D01*
X95321026Y-164980026D01*
X95302963Y-165002036D01*
X93241999Y-167063000D01*
X91596027Y-167063000D01*
X91561680Y-167040050D01*
X91438474Y-166989016D01*
X91307679Y-166963000D01*
X91174321Y-166963000D01*
X91043526Y-166989016D01*
X90920320Y-167040050D01*
X90809437Y-167114140D01*
X90715140Y-167208437D01*
X90641050Y-167319320D01*
X90590016Y-167442526D01*
X90564000Y-167573321D01*
X90564000Y-167706679D01*
X90590016Y-167837474D01*
X90641050Y-167960680D01*
X90715140Y-168071563D01*
X90809437Y-168165860D01*
X90920320Y-168239950D01*
X91004938Y-168275000D01*
X90920320Y-168310050D01*
X90809437Y-168384140D01*
X90715140Y-168478437D01*
X90641050Y-168589320D01*
X90590016Y-168712526D01*
X90564000Y-168843321D01*
X90564000Y-168976679D01*
X90590016Y-169107474D01*
X90641050Y-169230680D01*
X90715140Y-169341563D01*
X90809437Y-169435860D01*
X90909919Y-169503000D01*
X87055321Y-169503000D01*
X87022536Y-169509521D01*
X86989285Y-169512796D01*
X86957315Y-169522494D01*
X86924526Y-169529016D01*
X86893636Y-169541811D01*
X86861670Y-169551508D01*
X86832208Y-169567256D01*
X86808000Y-169577283D01*
X86808000Y-165448328D01*
X86810790Y-165419999D01*
X86808000Y-165391670D01*
X86808000Y-165391664D01*
X86799650Y-165306888D01*
X86766657Y-165198124D01*
X86713079Y-165097885D01*
X86640974Y-165010026D01*
X86618968Y-164991966D01*
X86134001Y-164507000D01*
X87188679Y-164507000D01*
X87221464Y-164500479D01*
X87254715Y-164497204D01*
X87286685Y-164487506D01*
X87319474Y-164480984D01*
X87350364Y-164468189D01*
X87382330Y-164458492D01*
X87411792Y-164442744D01*
X87442680Y-164429950D01*
X87470476Y-164411377D01*
X87499941Y-164395628D01*
X87525769Y-164374432D01*
X87553563Y-164355860D01*
X87577201Y-164332222D01*
X87603027Y-164311027D01*
X87624222Y-164285201D01*
X87647860Y-164261563D01*
X87666432Y-164233769D01*
X87687628Y-164207941D01*
X87703377Y-164178476D01*
X87721950Y-164150680D01*
X87734744Y-164119792D01*
X87750492Y-164090330D01*
X87760189Y-164058364D01*
X87772984Y-164027474D01*
X87779506Y-163994685D01*
X87789204Y-163962715D01*
X87792479Y-163929464D01*
X87799000Y-163896679D01*
X87799000Y-163863252D01*
X87802275Y-163830000D01*
X87799000Y-163796748D01*
X87799000Y-163763321D01*
X87792479Y-163730536D01*
X87789204Y-163697285D01*
X87779506Y-163665315D01*
X87772984Y-163632526D01*
X87760189Y-163601636D01*
X87750492Y-163569670D01*
X87734744Y-163540208D01*
X87721950Y-163509320D01*
X87703377Y-163481524D01*
X87687628Y-163452059D01*
X87666432Y-163426231D01*
X87647860Y-163398437D01*
X87624222Y-163374799D01*
X87603027Y-163348973D01*
X87577201Y-163327778D01*
X87553563Y-163304140D01*
X87525769Y-163285568D01*
X87499941Y-163264372D01*
X87470476Y-163248623D01*
X87442680Y-163230050D01*
X87411792Y-163217256D01*
X87382330Y-163201508D01*
X87350364Y-163191811D01*
X87319474Y-163179016D01*
X87286685Y-163172494D01*
X87254715Y-163162796D01*
X87221464Y-163159521D01*
X87188679Y-163153000D01*
X85150321Y-163153000D01*
X85117536Y-163159521D01*
X85084285Y-163162796D01*
X85052315Y-163172494D01*
X85019526Y-163179016D01*
X84988636Y-163191811D01*
X84956670Y-163201508D01*
X84927208Y-163217256D01*
X84896320Y-163230050D01*
X84868524Y-163248623D01*
X84839059Y-163264372D01*
X84813231Y-163285568D01*
X84785437Y-163304140D01*
X84761799Y-163327778D01*
X84735973Y-163348973D01*
X84714778Y-163374799D01*
X84691140Y-163398437D01*
X84672568Y-163426231D01*
X84651372Y-163452059D01*
X84635623Y-163481524D01*
X84617050Y-163509320D01*
X84604256Y-163540208D01*
X84588508Y-163569670D01*
X84578811Y-163601636D01*
X84566016Y-163632526D01*
X84559494Y-163665315D01*
X84549796Y-163697285D01*
X84546521Y-163730536D01*
X84540000Y-163763321D01*
X84540000Y-163796748D01*
X84536725Y-163830000D01*
X84540000Y-163863252D01*
X84540000Y-163896679D01*
X84546521Y-163929464D01*
X84549796Y-163962715D01*
X84559494Y-163994685D01*
X84566016Y-164027474D01*
X84578811Y-164058364D01*
X84588508Y-164090330D01*
X84604256Y-164119792D01*
X84617050Y-164150680D01*
X84625282Y-164163000D01*
X84586027Y-164163000D01*
X84551680Y-164140050D01*
X84428474Y-164089016D01*
X84297679Y-164063000D01*
X84164321Y-164063000D01*
X84033526Y-164089016D01*
X83910320Y-164140050D01*
X83799437Y-164214140D01*
X83705140Y-164308437D01*
X83631050Y-164419320D01*
X83580016Y-164542526D01*
X83554000Y-164673321D01*
X75838000Y-164673321D01*
X75838000Y-163456592D01*
X75949748Y-163523157D01*
X76224109Y-163620481D01*
X76454000Y-163499814D01*
X76454000Y-162306000D01*
X76434000Y-162306000D01*
X76434000Y-162052000D01*
X76454000Y-162052000D01*
X76454000Y-162032000D01*
X76708000Y-162032000D01*
X76708000Y-162052000D01*
X76728000Y-162052000D01*
X76728000Y-162306000D01*
X76708000Y-162306000D01*
X76708000Y-163499814D01*
X76937891Y-163620481D01*
X77212252Y-163523157D01*
X77462355Y-163374178D01*
X77678588Y-163179269D01*
X77852641Y-162945920D01*
X77961166Y-162718073D01*
X78054076Y-162891896D01*
X78213656Y-163086344D01*
X78408104Y-163245924D01*
X78629949Y-163364502D01*
X78870664Y-163437522D01*
X79058274Y-163456000D01*
X79183726Y-163456000D01*
X79371336Y-163437522D01*
X79612051Y-163364502D01*
X79833896Y-163245924D01*
X80028344Y-163086344D01*
X80046433Y-163064302D01*
X99384000Y-163064302D01*
X99384000Y-163325698D01*
X99434996Y-163582072D01*
X99535028Y-163823570D01*
X99680252Y-164040913D01*
X99865087Y-164225748D01*
X100082430Y-164370972D01*
X100323928Y-164471004D01*
X100580302Y-164522000D01*
X100841698Y-164522000D01*
X101098072Y-164471004D01*
X101339570Y-164370972D01*
X101556913Y-164225748D01*
X101713055Y-164069606D01*
X101712928Y-164095000D01*
X101725188Y-164219482D01*
X101761498Y-164339180D01*
X101820463Y-164449494D01*
X101899815Y-164546185D01*
X101996506Y-164625537D01*
X102106820Y-164684502D01*
X102226518Y-164720812D01*
X102351000Y-164733072D01*
X102965250Y-164730000D01*
X103124000Y-164571250D01*
X103124000Y-163322000D01*
X103378000Y-163322000D01*
X103378000Y-164571250D01*
X103536750Y-164730000D01*
X104151000Y-164733072D01*
X104275482Y-164720812D01*
X104395180Y-164684502D01*
X104505494Y-164625537D01*
X104602185Y-164546185D01*
X104681537Y-164449494D01*
X104740502Y-164339180D01*
X104776812Y-164219482D01*
X104789072Y-164095000D01*
X104786000Y-163480750D01*
X104627250Y-163322000D01*
X103378000Y-163322000D01*
X103124000Y-163322000D01*
X103104000Y-163322000D01*
X103104000Y-163068000D01*
X103124000Y-163068000D01*
X103124000Y-161818750D01*
X103378000Y-161818750D01*
X103378000Y-163068000D01*
X104627250Y-163068000D01*
X104786000Y-162909250D01*
X104789072Y-162295000D01*
X104776812Y-162170518D01*
X104740502Y-162050820D01*
X104681537Y-161940506D01*
X104602185Y-161843815D01*
X104505494Y-161764463D01*
X104395180Y-161705498D01*
X104275482Y-161669188D01*
X104151000Y-161656928D01*
X103536750Y-161660000D01*
X103378000Y-161818750D01*
X103124000Y-161818750D01*
X102965250Y-161660000D01*
X102351000Y-161656928D01*
X102226518Y-161669188D01*
X102106820Y-161705498D01*
X101996506Y-161764463D01*
X101899815Y-161843815D01*
X101820463Y-161940506D01*
X101761498Y-162050820D01*
X101725188Y-162170518D01*
X101712928Y-162295000D01*
X101713055Y-162320394D01*
X101556913Y-162164252D01*
X101339570Y-162019028D01*
X101098072Y-161918996D01*
X100841698Y-161868000D01*
X100580302Y-161868000D01*
X100323928Y-161918996D01*
X100082430Y-162019028D01*
X99865087Y-162164252D01*
X99680252Y-162349087D01*
X99535028Y-162566430D01*
X99434996Y-162807928D01*
X99384000Y-163064302D01*
X80046433Y-163064302D01*
X80187924Y-162891896D01*
X80260562Y-162756000D01*
X81224973Y-162756000D01*
X81259320Y-162778950D01*
X81382526Y-162829984D01*
X81513321Y-162856000D01*
X81646679Y-162856000D01*
X81777474Y-162829984D01*
X81900680Y-162778950D01*
X81935027Y-162756000D01*
X90173669Y-162756000D01*
X90202000Y-162758790D01*
X90230331Y-162756000D01*
X90230336Y-162756000D01*
X90260045Y-162753074D01*
X90315111Y-162747651D01*
X90359770Y-162734103D01*
X90423876Y-162714657D01*
X90524115Y-162661079D01*
X90611974Y-162588974D01*
X90630039Y-162566962D01*
X91860002Y-161337000D01*
X111895973Y-161337000D01*
X111930320Y-161359950D01*
X112053526Y-161410984D01*
X112184321Y-161437000D01*
X112317679Y-161437000D01*
X112448474Y-161410984D01*
X112571680Y-161359950D01*
X112682563Y-161285860D01*
X112776860Y-161191563D01*
X112850950Y-161080680D01*
X112901984Y-160957474D01*
X112928000Y-160826679D01*
X112928000Y-160693321D01*
X112901984Y-160562526D01*
X112850950Y-160439320D01*
X112776860Y-160328437D01*
X112682563Y-160234140D01*
X112571680Y-160160050D01*
X112448474Y-160109016D01*
X112317679Y-160083000D01*
X112184321Y-160083000D01*
X112053526Y-160109016D01*
X111930320Y-160160050D01*
X111895973Y-160183000D01*
X111839263Y-160183000D01*
X111900950Y-160090680D01*
X111951984Y-159967474D01*
X111978000Y-159836679D01*
X111978000Y-159703321D01*
X111951984Y-159572526D01*
X111900950Y-159449320D01*
X111826860Y-159338437D01*
X111732563Y-159244140D01*
X111621680Y-159170050D01*
X111498474Y-159119016D01*
X111367679Y-159093000D01*
X111234321Y-159093000D01*
X111103526Y-159119016D01*
X110980320Y-159170050D01*
X110945973Y-159193000D01*
X91719339Y-159193000D01*
X91691000Y-159190209D01*
X91577888Y-159201349D01*
X91469123Y-159234343D01*
X91450795Y-159244140D01*
X91368885Y-159287921D01*
X91281026Y-159360026D01*
X91262961Y-159382038D01*
X89711999Y-160933000D01*
X83290001Y-160933000D01*
X81608039Y-159251038D01*
X81589974Y-159229026D01*
X81502115Y-159156921D01*
X81401876Y-159103343D01*
X81329371Y-159081349D01*
X81293111Y-159070349D01*
X81238045Y-159064926D01*
X81208336Y-159062000D01*
X81208331Y-159062000D01*
X81180000Y-159059210D01*
X81151669Y-159062000D01*
X80260562Y-159062000D01*
X80187924Y-158926104D01*
X80028344Y-158731656D01*
X79833896Y-158572076D01*
X79612051Y-158453498D01*
X79371336Y-158380478D01*
X79254798Y-158369000D01*
X79371336Y-158357522D01*
X79612051Y-158284502D01*
X79833896Y-158165924D01*
X80028344Y-158006344D01*
X80187924Y-157811896D01*
X80306502Y-157590051D01*
X80379522Y-157349336D01*
X80379525Y-157349302D01*
X86049000Y-157349302D01*
X86049000Y-157610698D01*
X86099996Y-157867072D01*
X86200028Y-158108570D01*
X86345252Y-158325913D01*
X86530087Y-158510748D01*
X86747430Y-158655972D01*
X86988928Y-158756004D01*
X87245302Y-158807000D01*
X87506698Y-158807000D01*
X87763072Y-158756004D01*
X88004570Y-158655972D01*
X88221913Y-158510748D01*
X88378055Y-158354606D01*
X88377928Y-158380000D01*
X88390188Y-158504482D01*
X88426498Y-158624180D01*
X88485463Y-158734494D01*
X88564815Y-158831185D01*
X88661506Y-158910537D01*
X88771820Y-158969502D01*
X88891518Y-159005812D01*
X89016000Y-159018072D01*
X89630250Y-159015000D01*
X89789000Y-158856250D01*
X89789000Y-157607000D01*
X90043000Y-157607000D01*
X90043000Y-158856250D01*
X90201750Y-159015000D01*
X90816000Y-159018072D01*
X90940482Y-159005812D01*
X91060180Y-158969502D01*
X91170494Y-158910537D01*
X91267185Y-158831185D01*
X91346537Y-158734494D01*
X91405502Y-158624180D01*
X91441812Y-158504482D01*
X91454072Y-158380000D01*
X91451000Y-157765750D01*
X91292250Y-157607000D01*
X90043000Y-157607000D01*
X89789000Y-157607000D01*
X89769000Y-157607000D01*
X89769000Y-157353000D01*
X89789000Y-157353000D01*
X89789000Y-156103750D01*
X90043000Y-156103750D01*
X90043000Y-157353000D01*
X91292250Y-157353000D01*
X91295948Y-157349302D01*
X99384000Y-157349302D01*
X99384000Y-157610698D01*
X99434996Y-157867072D01*
X99535028Y-158108570D01*
X99680252Y-158325913D01*
X99865087Y-158510748D01*
X100082430Y-158655972D01*
X100323928Y-158756004D01*
X100580302Y-158807000D01*
X100841698Y-158807000D01*
X101098072Y-158756004D01*
X101339570Y-158655972D01*
X101556913Y-158510748D01*
X101713055Y-158354606D01*
X101712928Y-158380000D01*
X101725188Y-158504482D01*
X101761498Y-158624180D01*
X101820463Y-158734494D01*
X101899815Y-158831185D01*
X101996506Y-158910537D01*
X102106820Y-158969502D01*
X102226518Y-159005812D01*
X102351000Y-159018072D01*
X102965250Y-159015000D01*
X103124000Y-158856250D01*
X103124000Y-157607000D01*
X103378000Y-157607000D01*
X103378000Y-158856250D01*
X103536750Y-159015000D01*
X104151000Y-159018072D01*
X104275482Y-159005812D01*
X104395180Y-158969502D01*
X104505494Y-158910537D01*
X104602185Y-158831185D01*
X104681537Y-158734494D01*
X104740502Y-158624180D01*
X104776812Y-158504482D01*
X104789072Y-158380000D01*
X104786000Y-157765750D01*
X104627250Y-157607000D01*
X103378000Y-157607000D01*
X103124000Y-157607000D01*
X103104000Y-157607000D01*
X103104000Y-157353000D01*
X103124000Y-157353000D01*
X103124000Y-156103750D01*
X103378000Y-156103750D01*
X103378000Y-157353000D01*
X104627250Y-157353000D01*
X104786000Y-157194250D01*
X104789072Y-156580000D01*
X104776812Y-156455518D01*
X104740502Y-156335820D01*
X104681537Y-156225506D01*
X104602185Y-156128815D01*
X104505494Y-156049463D01*
X104395180Y-155990498D01*
X104275482Y-155954188D01*
X104151000Y-155941928D01*
X103536750Y-155945000D01*
X103378000Y-156103750D01*
X103124000Y-156103750D01*
X102965250Y-155945000D01*
X102351000Y-155941928D01*
X102226518Y-155954188D01*
X102106820Y-155990498D01*
X101996506Y-156049463D01*
X101899815Y-156128815D01*
X101820463Y-156225506D01*
X101761498Y-156335820D01*
X101725188Y-156455518D01*
X101712928Y-156580000D01*
X101713055Y-156605394D01*
X101556913Y-156449252D01*
X101339570Y-156304028D01*
X101098072Y-156203996D01*
X100841698Y-156153000D01*
X100580302Y-156153000D01*
X100323928Y-156203996D01*
X100082430Y-156304028D01*
X99865087Y-156449252D01*
X99680252Y-156634087D01*
X99535028Y-156851430D01*
X99434996Y-157092928D01*
X99384000Y-157349302D01*
X91295948Y-157349302D01*
X91451000Y-157194250D01*
X91454072Y-156580000D01*
X91441812Y-156455518D01*
X91405502Y-156335820D01*
X91346537Y-156225506D01*
X91267185Y-156128815D01*
X91170494Y-156049463D01*
X91060180Y-155990498D01*
X90940482Y-155954188D01*
X90816000Y-155941928D01*
X90201750Y-155945000D01*
X90043000Y-156103750D01*
X89789000Y-156103750D01*
X89630250Y-155945000D01*
X89016000Y-155941928D01*
X88891518Y-155954188D01*
X88771820Y-155990498D01*
X88661506Y-156049463D01*
X88564815Y-156128815D01*
X88485463Y-156225506D01*
X88426498Y-156335820D01*
X88390188Y-156455518D01*
X88377928Y-156580000D01*
X88378055Y-156605394D01*
X88221913Y-156449252D01*
X88004570Y-156304028D01*
X87763072Y-156203996D01*
X87506698Y-156153000D01*
X87245302Y-156153000D01*
X86988928Y-156203996D01*
X86747430Y-156304028D01*
X86530087Y-156449252D01*
X86345252Y-156634087D01*
X86200028Y-156851430D01*
X86099996Y-157092928D01*
X86049000Y-157349302D01*
X80379525Y-157349302D01*
X80404178Y-157099000D01*
X80379522Y-156848664D01*
X80306502Y-156607949D01*
X80187924Y-156386104D01*
X80028344Y-156191656D01*
X79833896Y-156032076D01*
X79612051Y-155913498D01*
X79371336Y-155840478D01*
X79254798Y-155829000D01*
X79371336Y-155817522D01*
X79612051Y-155744502D01*
X79833896Y-155625924D01*
X80028344Y-155466344D01*
X80187924Y-155271896D01*
X80306502Y-155050051D01*
X80379522Y-154809336D01*
X80404178Y-154559000D01*
X80379522Y-154308664D01*
X80306502Y-154067949D01*
X80187924Y-153846104D01*
X80028344Y-153651656D01*
X79833896Y-153492076D01*
X79612051Y-153373498D01*
X79371336Y-153300478D01*
X79346847Y-153298066D01*
X79971000Y-153298066D01*
X80054707Y-153289822D01*
X80135196Y-153265405D01*
X80209376Y-153225755D01*
X80274395Y-153172395D01*
X80327755Y-153107376D01*
X80367405Y-153033196D01*
X80391822Y-152952707D01*
X80400066Y-152869000D01*
X80400066Y-151169000D01*
X80391822Y-151085293D01*
X80367405Y-151004804D01*
X80364465Y-150999302D01*
X86049000Y-150999302D01*
X86049000Y-151260698D01*
X86099996Y-151517072D01*
X86200028Y-151758570D01*
X86345252Y-151975913D01*
X86530087Y-152160748D01*
X86747430Y-152305972D01*
X86988928Y-152406004D01*
X87245302Y-152457000D01*
X87506698Y-152457000D01*
X87763072Y-152406004D01*
X88004570Y-152305972D01*
X88221913Y-152160748D01*
X88378055Y-152004606D01*
X88377928Y-152030000D01*
X88390188Y-152154482D01*
X88426498Y-152274180D01*
X88485463Y-152384494D01*
X88564815Y-152481185D01*
X88661506Y-152560537D01*
X88771820Y-152619502D01*
X88891518Y-152655812D01*
X89016000Y-152668072D01*
X89630250Y-152665000D01*
X89789000Y-152506250D01*
X89789000Y-151257000D01*
X90043000Y-151257000D01*
X90043000Y-152506250D01*
X90201750Y-152665000D01*
X90816000Y-152668072D01*
X90940482Y-152655812D01*
X91060180Y-152619502D01*
X91170494Y-152560537D01*
X91267185Y-152481185D01*
X91346537Y-152384494D01*
X91405502Y-152274180D01*
X91441812Y-152154482D01*
X91454072Y-152030000D01*
X91452094Y-151634302D01*
X99384000Y-151634302D01*
X99384000Y-151895698D01*
X99434996Y-152152072D01*
X99535028Y-152393570D01*
X99680252Y-152610913D01*
X99865087Y-152795748D01*
X100082430Y-152940972D01*
X100323928Y-153041004D01*
X100580302Y-153092000D01*
X100841698Y-153092000D01*
X101098072Y-153041004D01*
X101339570Y-152940972D01*
X101556913Y-152795748D01*
X101713055Y-152639606D01*
X101712928Y-152665000D01*
X101725188Y-152789482D01*
X101761498Y-152909180D01*
X101820463Y-153019494D01*
X101899815Y-153116185D01*
X101996506Y-153195537D01*
X102106820Y-153254502D01*
X102226518Y-153290812D01*
X102351000Y-153303072D01*
X102965250Y-153300000D01*
X103124000Y-153141250D01*
X103124000Y-151892000D01*
X103378000Y-151892000D01*
X103378000Y-153141250D01*
X103536750Y-153300000D01*
X104151000Y-153303072D01*
X104275482Y-153290812D01*
X104395180Y-153254502D01*
X104505494Y-153195537D01*
X104602185Y-153116185D01*
X104681537Y-153019494D01*
X104740502Y-152909180D01*
X104776812Y-152789482D01*
X104789072Y-152665000D01*
X104786000Y-152050750D01*
X104627250Y-151892000D01*
X103378000Y-151892000D01*
X103124000Y-151892000D01*
X103104000Y-151892000D01*
X103104000Y-151638000D01*
X103124000Y-151638000D01*
X103124000Y-150388750D01*
X103378000Y-150388750D01*
X103378000Y-151638000D01*
X104627250Y-151638000D01*
X104786000Y-151479250D01*
X104789072Y-150865000D01*
X104776812Y-150740518D01*
X104740502Y-150620820D01*
X104681537Y-150510506D01*
X104602185Y-150413815D01*
X104505494Y-150334463D01*
X104395180Y-150275498D01*
X104275482Y-150239188D01*
X104151000Y-150226928D01*
X103536750Y-150230000D01*
X103378000Y-150388750D01*
X103124000Y-150388750D01*
X102965250Y-150230000D01*
X102351000Y-150226928D01*
X102226518Y-150239188D01*
X102106820Y-150275498D01*
X101996506Y-150334463D01*
X101899815Y-150413815D01*
X101820463Y-150510506D01*
X101761498Y-150620820D01*
X101725188Y-150740518D01*
X101712928Y-150865000D01*
X101713055Y-150890394D01*
X101556913Y-150734252D01*
X101339570Y-150589028D01*
X101098072Y-150488996D01*
X100841698Y-150438000D01*
X100580302Y-150438000D01*
X100323928Y-150488996D01*
X100082430Y-150589028D01*
X99865087Y-150734252D01*
X99680252Y-150919087D01*
X99535028Y-151136430D01*
X99434996Y-151377928D01*
X99384000Y-151634302D01*
X91452094Y-151634302D01*
X91451000Y-151415750D01*
X91292250Y-151257000D01*
X90043000Y-151257000D01*
X89789000Y-151257000D01*
X89769000Y-151257000D01*
X89769000Y-151003000D01*
X89789000Y-151003000D01*
X89789000Y-149753750D01*
X90043000Y-149753750D01*
X90043000Y-151003000D01*
X91292250Y-151003000D01*
X91451000Y-150844250D01*
X91454072Y-150230000D01*
X91441812Y-150105518D01*
X91405502Y-149985820D01*
X91346537Y-149875506D01*
X91267185Y-149778815D01*
X91170494Y-149699463D01*
X91060180Y-149640498D01*
X90940482Y-149604188D01*
X90816000Y-149591928D01*
X90201750Y-149595000D01*
X90043000Y-149753750D01*
X89789000Y-149753750D01*
X89630250Y-149595000D01*
X89016000Y-149591928D01*
X88891518Y-149604188D01*
X88771820Y-149640498D01*
X88661506Y-149699463D01*
X88564815Y-149778815D01*
X88485463Y-149875506D01*
X88426498Y-149985820D01*
X88390188Y-150105518D01*
X88377928Y-150230000D01*
X88378055Y-150255394D01*
X88221913Y-150099252D01*
X88004570Y-149954028D01*
X87763072Y-149853996D01*
X87506698Y-149803000D01*
X87245302Y-149803000D01*
X86988928Y-149853996D01*
X86747430Y-149954028D01*
X86530087Y-150099252D01*
X86345252Y-150284087D01*
X86200028Y-150501430D01*
X86099996Y-150742928D01*
X86049000Y-150999302D01*
X80364465Y-150999302D01*
X80327755Y-150930624D01*
X80274395Y-150865605D01*
X80209376Y-150812245D01*
X80135196Y-150772595D01*
X80054707Y-150748178D01*
X79971000Y-150739934D01*
X78271000Y-150739934D01*
X78187293Y-150748178D01*
X78106804Y-150772595D01*
X78032624Y-150812245D01*
X77967605Y-150865605D01*
X77914245Y-150930624D01*
X77874595Y-151004804D01*
X77850178Y-151085293D01*
X77841934Y-151169000D01*
X77841934Y-151793153D01*
X77839522Y-151768664D01*
X77766502Y-151527949D01*
X77647924Y-151306104D01*
X77488344Y-151111656D01*
X77293896Y-150952076D01*
X77072051Y-150833498D01*
X76831336Y-150760478D01*
X76643726Y-150742000D01*
X76518274Y-150742000D01*
X76330664Y-150760478D01*
X76089949Y-150833498D01*
X75868104Y-150952076D01*
X75673656Y-151111656D01*
X75514076Y-151306104D01*
X75395498Y-151527949D01*
X75322478Y-151768664D01*
X75297822Y-152019000D01*
X75322478Y-152269336D01*
X75395498Y-152510051D01*
X75514076Y-152731896D01*
X75673656Y-152926344D01*
X75868104Y-153085924D01*
X76089949Y-153204502D01*
X76330664Y-153277522D01*
X76447202Y-153289000D01*
X76330664Y-153300478D01*
X76089949Y-153373498D01*
X75868104Y-153492076D01*
X75673656Y-153651656D01*
X75514076Y-153846104D01*
X75395498Y-154067949D01*
X75322478Y-154308664D01*
X75297822Y-154559000D01*
X75322478Y-154809336D01*
X75395498Y-155050051D01*
X75514076Y-155271896D01*
X75673656Y-155466344D01*
X75868104Y-155625924D01*
X76089949Y-155744502D01*
X76330664Y-155817522D01*
X76447202Y-155829000D01*
X76330664Y-155840478D01*
X76089949Y-155913498D01*
X75868104Y-156032076D01*
X75673656Y-156191656D01*
X75514076Y-156386104D01*
X75395498Y-156607949D01*
X75322478Y-156848664D01*
X75297822Y-157099000D01*
X75322478Y-157349336D01*
X75395498Y-157590051D01*
X75514076Y-157811896D01*
X75673656Y-158006344D01*
X75868104Y-158165924D01*
X76089949Y-158284502D01*
X76330664Y-158357522D01*
X76447202Y-158369000D01*
X76330664Y-158380478D01*
X76089949Y-158453498D01*
X75868104Y-158572076D01*
X75673656Y-158731656D01*
X75514076Y-158926104D01*
X75395498Y-159147949D01*
X75322478Y-159388664D01*
X75297822Y-159639000D01*
X75322478Y-159889336D01*
X75369768Y-160045231D01*
X74873038Y-160541961D01*
X74851026Y-160560026D01*
X74778921Y-160647886D01*
X74725343Y-160748125D01*
X74711796Y-160792783D01*
X74692349Y-160856889D01*
X74688348Y-160897522D01*
X74684854Y-160933000D01*
X74681210Y-160970000D01*
X74422000Y-160970000D01*
X74422000Y-147875413D01*
X83245192Y-147875413D01*
X83340956Y-148139814D01*
X83630571Y-148280704D01*
X83942108Y-148362384D01*
X84263595Y-148381718D01*
X84582675Y-148337961D01*
X84887088Y-148232795D01*
X85061044Y-148139814D01*
X85156808Y-147875413D01*
X89745192Y-147875413D01*
X89840956Y-148139814D01*
X90130571Y-148280704D01*
X90442108Y-148362384D01*
X90763595Y-148381718D01*
X91082675Y-148337961D01*
X91387088Y-148232795D01*
X91561044Y-148139814D01*
X91656808Y-147875413D01*
X94040192Y-147875413D01*
X94135956Y-148139814D01*
X94425571Y-148280704D01*
X94737108Y-148362384D01*
X95058595Y-148381718D01*
X95377675Y-148337961D01*
X95682088Y-148232795D01*
X95856044Y-148139814D01*
X95951808Y-147875413D01*
X100540192Y-147875413D01*
X100635956Y-148139814D01*
X100925571Y-148280704D01*
X101237108Y-148362384D01*
X101558595Y-148381718D01*
X101877675Y-148337961D01*
X102182088Y-148232795D01*
X102356044Y-148139814D01*
X102451808Y-147875413D01*
X104835192Y-147875413D01*
X104930956Y-148139814D01*
X105220571Y-148280704D01*
X105532108Y-148362384D01*
X105853595Y-148381718D01*
X106172675Y-148337961D01*
X106477088Y-148232795D01*
X106651044Y-148139814D01*
X106746808Y-147875413D01*
X111335192Y-147875413D01*
X111430956Y-148139814D01*
X111720571Y-148280704D01*
X112032108Y-148362384D01*
X112353595Y-148381718D01*
X112672675Y-148337961D01*
X112977088Y-148232795D01*
X113151044Y-148139814D01*
X113246808Y-147875413D01*
X115630192Y-147875413D01*
X115725956Y-148139814D01*
X116015571Y-148280704D01*
X116327108Y-148362384D01*
X116648595Y-148381718D01*
X116967675Y-148337961D01*
X117272088Y-148232795D01*
X117446044Y-148139814D01*
X117541808Y-147875413D01*
X122130192Y-147875413D01*
X122225956Y-148139814D01*
X122515571Y-148280704D01*
X122827108Y-148362384D01*
X123148595Y-148381718D01*
X123467675Y-148337961D01*
X123772088Y-148232795D01*
X123946044Y-148139814D01*
X124041808Y-147875413D01*
X126425192Y-147875413D01*
X126520956Y-148139814D01*
X126810571Y-148280704D01*
X127122108Y-148362384D01*
X127443595Y-148381718D01*
X127762675Y-148337961D01*
X128067088Y-148232795D01*
X128241044Y-148139814D01*
X128336808Y-147875413D01*
X132925192Y-147875413D01*
X133020956Y-148139814D01*
X133310571Y-148280704D01*
X133622108Y-148362384D01*
X133943595Y-148381718D01*
X134262675Y-148337961D01*
X134567088Y-148232795D01*
X134741044Y-148139814D01*
X134836808Y-147875413D01*
X133881000Y-146919605D01*
X132925192Y-147875413D01*
X128336808Y-147875413D01*
X127381000Y-146919605D01*
X126425192Y-147875413D01*
X124041808Y-147875413D01*
X123086000Y-146919605D01*
X122130192Y-147875413D01*
X117541808Y-147875413D01*
X116586000Y-146919605D01*
X115630192Y-147875413D01*
X113246808Y-147875413D01*
X112291000Y-146919605D01*
X111335192Y-147875413D01*
X106746808Y-147875413D01*
X105791000Y-146919605D01*
X104835192Y-147875413D01*
X102451808Y-147875413D01*
X101496000Y-146919605D01*
X100540192Y-147875413D01*
X95951808Y-147875413D01*
X94996000Y-146919605D01*
X94040192Y-147875413D01*
X91656808Y-147875413D01*
X90701000Y-146919605D01*
X89745192Y-147875413D01*
X85156808Y-147875413D01*
X84201000Y-146919605D01*
X83245192Y-147875413D01*
X74422000Y-147875413D01*
X74422000Y-146802595D01*
X82559282Y-146802595D01*
X82603039Y-147121675D01*
X82708205Y-147426088D01*
X82801186Y-147600044D01*
X83065587Y-147695808D01*
X84021395Y-146740000D01*
X84380605Y-146740000D01*
X85336413Y-147695808D01*
X85600814Y-147600044D01*
X85741704Y-147310429D01*
X85823384Y-146998892D01*
X85835189Y-146802595D01*
X89059282Y-146802595D01*
X89103039Y-147121675D01*
X89208205Y-147426088D01*
X89301186Y-147600044D01*
X89565587Y-147695808D01*
X90521395Y-146740000D01*
X90880605Y-146740000D01*
X91836413Y-147695808D01*
X92100814Y-147600044D01*
X92241704Y-147310429D01*
X92323384Y-146998892D01*
X92335189Y-146802595D01*
X93354282Y-146802595D01*
X93398039Y-147121675D01*
X93503205Y-147426088D01*
X93596186Y-147600044D01*
X93860587Y-147695808D01*
X94816395Y-146740000D01*
X95175605Y-146740000D01*
X96131413Y-147695808D01*
X96395814Y-147600044D01*
X96536704Y-147310429D01*
X96618384Y-146998892D01*
X96630189Y-146802595D01*
X99854282Y-146802595D01*
X99898039Y-147121675D01*
X100003205Y-147426088D01*
X100096186Y-147600044D01*
X100360587Y-147695808D01*
X101316395Y-146740000D01*
X101675605Y-146740000D01*
X102631413Y-147695808D01*
X102895814Y-147600044D01*
X103036704Y-147310429D01*
X103118384Y-146998892D01*
X103130189Y-146802595D01*
X104149282Y-146802595D01*
X104193039Y-147121675D01*
X104298205Y-147426088D01*
X104391186Y-147600044D01*
X104655587Y-147695808D01*
X105611395Y-146740000D01*
X105970605Y-146740000D01*
X106926413Y-147695808D01*
X107190814Y-147600044D01*
X107331704Y-147310429D01*
X107413384Y-146998892D01*
X107425189Y-146802595D01*
X110649282Y-146802595D01*
X110693039Y-147121675D01*
X110798205Y-147426088D01*
X110891186Y-147600044D01*
X111155587Y-147695808D01*
X112111395Y-146740000D01*
X112470605Y-146740000D01*
X113426413Y-147695808D01*
X113690814Y-147600044D01*
X113831704Y-147310429D01*
X113913384Y-146998892D01*
X113925189Y-146802595D01*
X114944282Y-146802595D01*
X114988039Y-147121675D01*
X115093205Y-147426088D01*
X115186186Y-147600044D01*
X115450587Y-147695808D01*
X116406395Y-146740000D01*
X116765605Y-146740000D01*
X117721413Y-147695808D01*
X117985814Y-147600044D01*
X118126704Y-147310429D01*
X118208384Y-146998892D01*
X118220189Y-146802595D01*
X121444282Y-146802595D01*
X121488039Y-147121675D01*
X121593205Y-147426088D01*
X121686186Y-147600044D01*
X121950587Y-147695808D01*
X122906395Y-146740000D01*
X123265605Y-146740000D01*
X124221413Y-147695808D01*
X124485814Y-147600044D01*
X124626704Y-147310429D01*
X124708384Y-146998892D01*
X124720189Y-146802595D01*
X125739282Y-146802595D01*
X125783039Y-147121675D01*
X125888205Y-147426088D01*
X125981186Y-147600044D01*
X126245587Y-147695808D01*
X127201395Y-146740000D01*
X127560605Y-146740000D01*
X128516413Y-147695808D01*
X128780814Y-147600044D01*
X128921704Y-147310429D01*
X129003384Y-146998892D01*
X129015189Y-146802595D01*
X132239282Y-146802595D01*
X132283039Y-147121675D01*
X132388205Y-147426088D01*
X132481186Y-147600044D01*
X132745587Y-147695808D01*
X133701395Y-146740000D01*
X134060605Y-146740000D01*
X135016413Y-147695808D01*
X135280814Y-147600044D01*
X135421704Y-147310429D01*
X135503384Y-146998892D01*
X135522718Y-146677405D01*
X135478961Y-146358325D01*
X135373795Y-146053912D01*
X135280814Y-145879956D01*
X135016413Y-145784192D01*
X134060605Y-146740000D01*
X133701395Y-146740000D01*
X132745587Y-145784192D01*
X132481186Y-145879956D01*
X132340296Y-146169571D01*
X132258616Y-146481108D01*
X132239282Y-146802595D01*
X129015189Y-146802595D01*
X129022718Y-146677405D01*
X128978961Y-146358325D01*
X128873795Y-146053912D01*
X128780814Y-145879956D01*
X128516413Y-145784192D01*
X127560605Y-146740000D01*
X127201395Y-146740000D01*
X126245587Y-145784192D01*
X125981186Y-145879956D01*
X125840296Y-146169571D01*
X125758616Y-146481108D01*
X125739282Y-146802595D01*
X124720189Y-146802595D01*
X124727718Y-146677405D01*
X124683961Y-146358325D01*
X124578795Y-146053912D01*
X124485814Y-145879956D01*
X124221413Y-145784192D01*
X123265605Y-146740000D01*
X122906395Y-146740000D01*
X121950587Y-145784192D01*
X121686186Y-145879956D01*
X121545296Y-146169571D01*
X121463616Y-146481108D01*
X121444282Y-146802595D01*
X118220189Y-146802595D01*
X118227718Y-146677405D01*
X118183961Y-146358325D01*
X118078795Y-146053912D01*
X117985814Y-145879956D01*
X117721413Y-145784192D01*
X116765605Y-146740000D01*
X116406395Y-146740000D01*
X115450587Y-145784192D01*
X115186186Y-145879956D01*
X115045296Y-146169571D01*
X114963616Y-146481108D01*
X114944282Y-146802595D01*
X113925189Y-146802595D01*
X113932718Y-146677405D01*
X113888961Y-146358325D01*
X113783795Y-146053912D01*
X113690814Y-145879956D01*
X113426413Y-145784192D01*
X112470605Y-146740000D01*
X112111395Y-146740000D01*
X111155587Y-145784192D01*
X110891186Y-145879956D01*
X110750296Y-146169571D01*
X110668616Y-146481108D01*
X110649282Y-146802595D01*
X107425189Y-146802595D01*
X107432718Y-146677405D01*
X107388961Y-146358325D01*
X107283795Y-146053912D01*
X107190814Y-145879956D01*
X106926413Y-145784192D01*
X105970605Y-146740000D01*
X105611395Y-146740000D01*
X104655587Y-145784192D01*
X104391186Y-145879956D01*
X104250296Y-146169571D01*
X104168616Y-146481108D01*
X104149282Y-146802595D01*
X103130189Y-146802595D01*
X103137718Y-146677405D01*
X103093961Y-146358325D01*
X102988795Y-146053912D01*
X102895814Y-145879956D01*
X102631413Y-145784192D01*
X101675605Y-146740000D01*
X101316395Y-146740000D01*
X100360587Y-145784192D01*
X100096186Y-145879956D01*
X99955296Y-146169571D01*
X99873616Y-146481108D01*
X99854282Y-146802595D01*
X96630189Y-146802595D01*
X96637718Y-146677405D01*
X96593961Y-146358325D01*
X96488795Y-146053912D01*
X96395814Y-145879956D01*
X96131413Y-145784192D01*
X95175605Y-146740000D01*
X94816395Y-146740000D01*
X93860587Y-145784192D01*
X93596186Y-145879956D01*
X93455296Y-146169571D01*
X93373616Y-146481108D01*
X93354282Y-146802595D01*
X92335189Y-146802595D01*
X92342718Y-146677405D01*
X92298961Y-146358325D01*
X92193795Y-146053912D01*
X92100814Y-145879956D01*
X91836413Y-145784192D01*
X90880605Y-146740000D01*
X90521395Y-146740000D01*
X89565587Y-145784192D01*
X89301186Y-145879956D01*
X89160296Y-146169571D01*
X89078616Y-146481108D01*
X89059282Y-146802595D01*
X85835189Y-146802595D01*
X85842718Y-146677405D01*
X85798961Y-146358325D01*
X85693795Y-146053912D01*
X85600814Y-145879956D01*
X85336413Y-145784192D01*
X84380605Y-146740000D01*
X84021395Y-146740000D01*
X83065587Y-145784192D01*
X82801186Y-145879956D01*
X82660296Y-146169571D01*
X82578616Y-146481108D01*
X82559282Y-146802595D01*
X74422000Y-146802595D01*
X74422000Y-145604587D01*
X83245192Y-145604587D01*
X84201000Y-146560395D01*
X85156808Y-145604587D01*
X89745192Y-145604587D01*
X90701000Y-146560395D01*
X91656808Y-145604587D01*
X94040192Y-145604587D01*
X94996000Y-146560395D01*
X95951808Y-145604587D01*
X100540192Y-145604587D01*
X101496000Y-146560395D01*
X102451808Y-145604587D01*
X104835192Y-145604587D01*
X105791000Y-146560395D01*
X106746808Y-145604587D01*
X111335192Y-145604587D01*
X112291000Y-146560395D01*
X113246808Y-145604587D01*
X115630192Y-145604587D01*
X116586000Y-146560395D01*
X117541808Y-145604587D01*
X122130192Y-145604587D01*
X123086000Y-146560395D01*
X124041808Y-145604587D01*
X126425192Y-145604587D01*
X127381000Y-146560395D01*
X128336808Y-145604587D01*
X132925192Y-145604587D01*
X133881000Y-146560395D01*
X134836808Y-145604587D01*
X134741044Y-145340186D01*
X134451429Y-145199296D01*
X134139892Y-145117616D01*
X133818405Y-145098282D01*
X133499325Y-145142039D01*
X133194912Y-145247205D01*
X133020956Y-145340186D01*
X132925192Y-145604587D01*
X128336808Y-145604587D01*
X128241044Y-145340186D01*
X127951429Y-145199296D01*
X127639892Y-145117616D01*
X127318405Y-145098282D01*
X126999325Y-145142039D01*
X126694912Y-145247205D01*
X126520956Y-145340186D01*
X126425192Y-145604587D01*
X124041808Y-145604587D01*
X123946044Y-145340186D01*
X123656429Y-145199296D01*
X123344892Y-145117616D01*
X123023405Y-145098282D01*
X122704325Y-145142039D01*
X122399912Y-145247205D01*
X122225956Y-145340186D01*
X122130192Y-145604587D01*
X117541808Y-145604587D01*
X117446044Y-145340186D01*
X117156429Y-145199296D01*
X116844892Y-145117616D01*
X116523405Y-145098282D01*
X116204325Y-145142039D01*
X115899912Y-145247205D01*
X115725956Y-145340186D01*
X115630192Y-145604587D01*
X113246808Y-145604587D01*
X113151044Y-145340186D01*
X112861429Y-145199296D01*
X112549892Y-145117616D01*
X112228405Y-145098282D01*
X111909325Y-145142039D01*
X111604912Y-145247205D01*
X111430956Y-145340186D01*
X111335192Y-145604587D01*
X106746808Y-145604587D01*
X106651044Y-145340186D01*
X106361429Y-145199296D01*
X106049892Y-145117616D01*
X105728405Y-145098282D01*
X105409325Y-145142039D01*
X105104912Y-145247205D01*
X104930956Y-145340186D01*
X104835192Y-145604587D01*
X102451808Y-145604587D01*
X102356044Y-145340186D01*
X102066429Y-145199296D01*
X101754892Y-145117616D01*
X101433405Y-145098282D01*
X101114325Y-145142039D01*
X100809912Y-145247205D01*
X100635956Y-145340186D01*
X100540192Y-145604587D01*
X95951808Y-145604587D01*
X95856044Y-145340186D01*
X95566429Y-145199296D01*
X95254892Y-145117616D01*
X94933405Y-145098282D01*
X94614325Y-145142039D01*
X94309912Y-145247205D01*
X94135956Y-145340186D01*
X94040192Y-145604587D01*
X91656808Y-145604587D01*
X91561044Y-145340186D01*
X91271429Y-145199296D01*
X90959892Y-145117616D01*
X90638405Y-145098282D01*
X90319325Y-145142039D01*
X90014912Y-145247205D01*
X89840956Y-145340186D01*
X89745192Y-145604587D01*
X85156808Y-145604587D01*
X85061044Y-145340186D01*
X84771429Y-145199296D01*
X84459892Y-145117616D01*
X84138405Y-145098282D01*
X83819325Y-145142039D01*
X83514912Y-145247205D01*
X83340956Y-145340186D01*
X83245192Y-145604587D01*
X74422000Y-145604587D01*
X74422000Y-142099453D01*
X82774000Y-142099453D01*
X82774000Y-142380547D01*
X82828838Y-142656241D01*
X82936409Y-142915938D01*
X83092576Y-143149660D01*
X83291340Y-143348424D01*
X83525062Y-143504591D01*
X83784759Y-143612162D01*
X84060453Y-143667000D01*
X84341547Y-143667000D01*
X84617241Y-143612162D01*
X84876938Y-143504591D01*
X85110660Y-143348424D01*
X85309424Y-143149660D01*
X85465591Y-142915938D01*
X85573162Y-142656241D01*
X85628000Y-142380547D01*
X85628000Y-142099453D01*
X89274000Y-142099453D01*
X89274000Y-142380547D01*
X89328838Y-142656241D01*
X89436409Y-142915938D01*
X89592576Y-143149660D01*
X89791340Y-143348424D01*
X90025062Y-143504591D01*
X90284759Y-143612162D01*
X90560453Y-143667000D01*
X90841547Y-143667000D01*
X91117241Y-143612162D01*
X91376938Y-143504591D01*
X91610660Y-143348424D01*
X91809424Y-143149660D01*
X91965591Y-142915938D01*
X92073162Y-142656241D01*
X92128000Y-142380547D01*
X92128000Y-142099453D01*
X93569000Y-142099453D01*
X93569000Y-142380547D01*
X93623838Y-142656241D01*
X93731409Y-142915938D01*
X93887576Y-143149660D01*
X94086340Y-143348424D01*
X94320062Y-143504591D01*
X94579759Y-143612162D01*
X94855453Y-143667000D01*
X95136547Y-143667000D01*
X95412241Y-143612162D01*
X95671938Y-143504591D01*
X95905660Y-143348424D01*
X96104424Y-143149660D01*
X96260591Y-142915938D01*
X96368162Y-142656241D01*
X96423000Y-142380547D01*
X96423000Y-142099453D01*
X100069000Y-142099453D01*
X100069000Y-142380547D01*
X100123838Y-142656241D01*
X100231409Y-142915938D01*
X100387576Y-143149660D01*
X100586340Y-143348424D01*
X100820062Y-143504591D01*
X101079759Y-143612162D01*
X101355453Y-143667000D01*
X101636547Y-143667000D01*
X101912241Y-143612162D01*
X102171938Y-143504591D01*
X102405660Y-143348424D01*
X102604424Y-143149660D01*
X102760591Y-142915938D01*
X102868162Y-142656241D01*
X102923000Y-142380547D01*
X102923000Y-142099453D01*
X104364000Y-142099453D01*
X104364000Y-142380547D01*
X104418838Y-142656241D01*
X104526409Y-142915938D01*
X104682576Y-143149660D01*
X104881340Y-143348424D01*
X105115062Y-143504591D01*
X105374759Y-143612162D01*
X105650453Y-143667000D01*
X105931547Y-143667000D01*
X106207241Y-143612162D01*
X106466938Y-143504591D01*
X106700660Y-143348424D01*
X106899424Y-143149660D01*
X107055591Y-142915938D01*
X107163162Y-142656241D01*
X107218000Y-142380547D01*
X107218000Y-142099453D01*
X110864000Y-142099453D01*
X110864000Y-142380547D01*
X110918838Y-142656241D01*
X111026409Y-142915938D01*
X111182576Y-143149660D01*
X111381340Y-143348424D01*
X111615062Y-143504591D01*
X111874759Y-143612162D01*
X112150453Y-143667000D01*
X112431547Y-143667000D01*
X112707241Y-143612162D01*
X112966938Y-143504591D01*
X113200660Y-143348424D01*
X113399424Y-143149660D01*
X113555591Y-142915938D01*
X113663162Y-142656241D01*
X113718000Y-142380547D01*
X113718000Y-142099453D01*
X115159000Y-142099453D01*
X115159000Y-142380547D01*
X115213838Y-142656241D01*
X115321409Y-142915938D01*
X115477576Y-143149660D01*
X115676340Y-143348424D01*
X115910062Y-143504591D01*
X116169759Y-143612162D01*
X116445453Y-143667000D01*
X116726547Y-143667000D01*
X117002241Y-143612162D01*
X117261938Y-143504591D01*
X117495660Y-143348424D01*
X117694424Y-143149660D01*
X117850591Y-142915938D01*
X117958162Y-142656241D01*
X118013000Y-142380547D01*
X118013000Y-142099453D01*
X121659000Y-142099453D01*
X121659000Y-142380547D01*
X121713838Y-142656241D01*
X121821409Y-142915938D01*
X121977576Y-143149660D01*
X122176340Y-143348424D01*
X122410062Y-143504591D01*
X122669759Y-143612162D01*
X122945453Y-143667000D01*
X123226547Y-143667000D01*
X123502241Y-143612162D01*
X123761938Y-143504591D01*
X123995660Y-143348424D01*
X124194424Y-143149660D01*
X124350591Y-142915938D01*
X124458162Y-142656241D01*
X124513000Y-142380547D01*
X124513000Y-142099453D01*
X125954000Y-142099453D01*
X125954000Y-142380547D01*
X126008838Y-142656241D01*
X126116409Y-142915938D01*
X126272576Y-143149660D01*
X126471340Y-143348424D01*
X126705062Y-143504591D01*
X126964759Y-143612162D01*
X127240453Y-143667000D01*
X127521547Y-143667000D01*
X127797241Y-143612162D01*
X128056938Y-143504591D01*
X128290660Y-143348424D01*
X128489424Y-143149660D01*
X128645591Y-142915938D01*
X128753162Y-142656241D01*
X128808000Y-142380547D01*
X128808000Y-142099453D01*
X132454000Y-142099453D01*
X132454000Y-142380547D01*
X132508838Y-142656241D01*
X132616409Y-142915938D01*
X132772576Y-143149660D01*
X132971340Y-143348424D01*
X133205062Y-143504591D01*
X133464759Y-143612162D01*
X133740453Y-143667000D01*
X134021547Y-143667000D01*
X134297241Y-143612162D01*
X134556938Y-143504591D01*
X134790660Y-143348424D01*
X134989424Y-143149660D01*
X135145591Y-142915938D01*
X135253162Y-142656241D01*
X135308000Y-142380547D01*
X135308000Y-142099453D01*
X135253162Y-141823759D01*
X135145591Y-141564062D01*
X134989424Y-141330340D01*
X134790660Y-141131576D01*
X134556938Y-140975409D01*
X134297241Y-140867838D01*
X134021547Y-140813000D01*
X133740453Y-140813000D01*
X133464759Y-140867838D01*
X133205062Y-140975409D01*
X132971340Y-141131576D01*
X132772576Y-141330340D01*
X132616409Y-141564062D01*
X132508838Y-141823759D01*
X132454000Y-142099453D01*
X128808000Y-142099453D01*
X128753162Y-141823759D01*
X128645591Y-141564062D01*
X128489424Y-141330340D01*
X128290660Y-141131576D01*
X128056938Y-140975409D01*
X127797241Y-140867838D01*
X127521547Y-140813000D01*
X127240453Y-140813000D01*
X126964759Y-140867838D01*
X126705062Y-140975409D01*
X126471340Y-141131576D01*
X126272576Y-141330340D01*
X126116409Y-141564062D01*
X126008838Y-141823759D01*
X125954000Y-142099453D01*
X124513000Y-142099453D01*
X124458162Y-141823759D01*
X124350591Y-141564062D01*
X124194424Y-141330340D01*
X123995660Y-141131576D01*
X123761938Y-140975409D01*
X123502241Y-140867838D01*
X123226547Y-140813000D01*
X122945453Y-140813000D01*
X122669759Y-140867838D01*
X122410062Y-140975409D01*
X122176340Y-141131576D01*
X121977576Y-141330340D01*
X121821409Y-141564062D01*
X121713838Y-141823759D01*
X121659000Y-142099453D01*
X118013000Y-142099453D01*
X117958162Y-141823759D01*
X117850591Y-141564062D01*
X117694424Y-141330340D01*
X117495660Y-141131576D01*
X117261938Y-140975409D01*
X117002241Y-140867838D01*
X116726547Y-140813000D01*
X116445453Y-140813000D01*
X116169759Y-140867838D01*
X115910062Y-140975409D01*
X115676340Y-141131576D01*
X115477576Y-141330340D01*
X115321409Y-141564062D01*
X115213838Y-141823759D01*
X115159000Y-142099453D01*
X113718000Y-142099453D01*
X113663162Y-141823759D01*
X113555591Y-141564062D01*
X113399424Y-141330340D01*
X113200660Y-141131576D01*
X112966938Y-140975409D01*
X112707241Y-140867838D01*
X112431547Y-140813000D01*
X112150453Y-140813000D01*
X111874759Y-140867838D01*
X111615062Y-140975409D01*
X111381340Y-141131576D01*
X111182576Y-141330340D01*
X111026409Y-141564062D01*
X110918838Y-141823759D01*
X110864000Y-142099453D01*
X107218000Y-142099453D01*
X107163162Y-141823759D01*
X107055591Y-141564062D01*
X106899424Y-141330340D01*
X106700660Y-141131576D01*
X106466938Y-140975409D01*
X106207241Y-140867838D01*
X105931547Y-140813000D01*
X105650453Y-140813000D01*
X105374759Y-140867838D01*
X105115062Y-140975409D01*
X104881340Y-141131576D01*
X104682576Y-141330340D01*
X104526409Y-141564062D01*
X104418838Y-141823759D01*
X104364000Y-142099453D01*
X102923000Y-142099453D01*
X102868162Y-141823759D01*
X102760591Y-141564062D01*
X102604424Y-141330340D01*
X102405660Y-141131576D01*
X102171938Y-140975409D01*
X101912241Y-140867838D01*
X101636547Y-140813000D01*
X101355453Y-140813000D01*
X101079759Y-140867838D01*
X100820062Y-140975409D01*
X100586340Y-141131576D01*
X100387576Y-141330340D01*
X100231409Y-141564062D01*
X100123838Y-141823759D01*
X100069000Y-142099453D01*
X96423000Y-142099453D01*
X96368162Y-141823759D01*
X96260591Y-141564062D01*
X96104424Y-141330340D01*
X95905660Y-141131576D01*
X95671938Y-140975409D01*
X95412241Y-140867838D01*
X95136547Y-140813000D01*
X94855453Y-140813000D01*
X94579759Y-140867838D01*
X94320062Y-140975409D01*
X94086340Y-141131576D01*
X93887576Y-141330340D01*
X93731409Y-141564062D01*
X93623838Y-141823759D01*
X93569000Y-142099453D01*
X92128000Y-142099453D01*
X92073162Y-141823759D01*
X91965591Y-141564062D01*
X91809424Y-141330340D01*
X91610660Y-141131576D01*
X91376938Y-140975409D01*
X91117241Y-140867838D01*
X90841547Y-140813000D01*
X90560453Y-140813000D01*
X90284759Y-140867838D01*
X90025062Y-140975409D01*
X89791340Y-141131576D01*
X89592576Y-141330340D01*
X89436409Y-141564062D01*
X89328838Y-141823759D01*
X89274000Y-142099453D01*
X85628000Y-142099453D01*
X85573162Y-141823759D01*
X85465591Y-141564062D01*
X85309424Y-141330340D01*
X85110660Y-141131576D01*
X84876938Y-140975409D01*
X84617241Y-140867838D01*
X84341547Y-140813000D01*
X84060453Y-140813000D01*
X83784759Y-140867838D01*
X83525062Y-140975409D01*
X83291340Y-141131576D01*
X83092576Y-141330340D01*
X82936409Y-141564062D01*
X82828838Y-141823759D01*
X82774000Y-142099453D01*
X74422000Y-142099453D01*
X74422000Y-137287000D01*
X172593000Y-137287000D01*
X172593000Y-177038000D01*
M02*
