G04 #@! TF.GenerationSoftware,KiCad,Pcbnew,(5.1.4)-1*
G04 #@! TF.CreationDate,2020-07-10T21:56:12+02:00*
G04 #@! TF.ProjectId,SBIO3,5342494f-332e-46b6-9963-61645f706362,rev?*
G04 #@! TF.SameCoordinates,Original*
G04 #@! TF.FileFunction,Paste,Top*
G04 #@! TF.FilePolarity,Positive*
%FSLAX46Y46*%
G04 Gerber Fmt 4.6, Leading zero omitted, Abs format (unit mm)*
G04 Created by KiCad (PCBNEW (5.1.4)-1) date 2020-07-10 21:56:12*
%MOMM*%
%LPD*%
G04 APERTURE LIST*
%ADD10C,0.100000*%
%ADD11C,0.950000*%
%ADD12R,1.200000X0.900000*%
%ADD13R,0.900000X1.200000*%
%ADD14R,1.500000X0.600000*%
G04 APERTURE END LIST*
D10*
G36*
X90720779Y-163356144D02*
G01*
X90743834Y-163359563D01*
X90766443Y-163365227D01*
X90788387Y-163373079D01*
X90809457Y-163383044D01*
X90829448Y-163395026D01*
X90848168Y-163408910D01*
X90865438Y-163424562D01*
X90881090Y-163441832D01*
X90894974Y-163460552D01*
X90906956Y-163480543D01*
X90916921Y-163501613D01*
X90924773Y-163523557D01*
X90930437Y-163546166D01*
X90933856Y-163569221D01*
X90935000Y-163592500D01*
X90935000Y-164067500D01*
X90933856Y-164090779D01*
X90930437Y-164113834D01*
X90924773Y-164136443D01*
X90916921Y-164158387D01*
X90906956Y-164179457D01*
X90894974Y-164199448D01*
X90881090Y-164218168D01*
X90865438Y-164235438D01*
X90848168Y-164251090D01*
X90829448Y-164264974D01*
X90809457Y-164276956D01*
X90788387Y-164286921D01*
X90766443Y-164294773D01*
X90743834Y-164300437D01*
X90720779Y-164303856D01*
X90697500Y-164305000D01*
X90122500Y-164305000D01*
X90099221Y-164303856D01*
X90076166Y-164300437D01*
X90053557Y-164294773D01*
X90031613Y-164286921D01*
X90010543Y-164276956D01*
X89990552Y-164264974D01*
X89971832Y-164251090D01*
X89954562Y-164235438D01*
X89938910Y-164218168D01*
X89925026Y-164199448D01*
X89913044Y-164179457D01*
X89903079Y-164158387D01*
X89895227Y-164136443D01*
X89889563Y-164113834D01*
X89886144Y-164090779D01*
X89885000Y-164067500D01*
X89885000Y-163592500D01*
X89886144Y-163569221D01*
X89889563Y-163546166D01*
X89895227Y-163523557D01*
X89903079Y-163501613D01*
X89913044Y-163480543D01*
X89925026Y-163460552D01*
X89938910Y-163441832D01*
X89954562Y-163424562D01*
X89971832Y-163408910D01*
X89990552Y-163395026D01*
X90010543Y-163383044D01*
X90031613Y-163373079D01*
X90053557Y-163365227D01*
X90076166Y-163359563D01*
X90099221Y-163356144D01*
X90122500Y-163355000D01*
X90697500Y-163355000D01*
X90720779Y-163356144D01*
X90720779Y-163356144D01*
G37*
D11*
X90410000Y-163830000D03*
D10*
G36*
X88970779Y-163356144D02*
G01*
X88993834Y-163359563D01*
X89016443Y-163365227D01*
X89038387Y-163373079D01*
X89059457Y-163383044D01*
X89079448Y-163395026D01*
X89098168Y-163408910D01*
X89115438Y-163424562D01*
X89131090Y-163441832D01*
X89144974Y-163460552D01*
X89156956Y-163480543D01*
X89166921Y-163501613D01*
X89174773Y-163523557D01*
X89180437Y-163546166D01*
X89183856Y-163569221D01*
X89185000Y-163592500D01*
X89185000Y-164067500D01*
X89183856Y-164090779D01*
X89180437Y-164113834D01*
X89174773Y-164136443D01*
X89166921Y-164158387D01*
X89156956Y-164179457D01*
X89144974Y-164199448D01*
X89131090Y-164218168D01*
X89115438Y-164235438D01*
X89098168Y-164251090D01*
X89079448Y-164264974D01*
X89059457Y-164276956D01*
X89038387Y-164286921D01*
X89016443Y-164294773D01*
X88993834Y-164300437D01*
X88970779Y-164303856D01*
X88947500Y-164305000D01*
X88372500Y-164305000D01*
X88349221Y-164303856D01*
X88326166Y-164300437D01*
X88303557Y-164294773D01*
X88281613Y-164286921D01*
X88260543Y-164276956D01*
X88240552Y-164264974D01*
X88221832Y-164251090D01*
X88204562Y-164235438D01*
X88188910Y-164218168D01*
X88175026Y-164199448D01*
X88163044Y-164179457D01*
X88153079Y-164158387D01*
X88145227Y-164136443D01*
X88139563Y-164113834D01*
X88136144Y-164090779D01*
X88135000Y-164067500D01*
X88135000Y-163592500D01*
X88136144Y-163569221D01*
X88139563Y-163546166D01*
X88145227Y-163523557D01*
X88153079Y-163501613D01*
X88163044Y-163480543D01*
X88175026Y-163460552D01*
X88188910Y-163441832D01*
X88204562Y-163424562D01*
X88221832Y-163408910D01*
X88240552Y-163395026D01*
X88260543Y-163383044D01*
X88281613Y-163373079D01*
X88303557Y-163365227D01*
X88326166Y-163359563D01*
X88349221Y-163356144D01*
X88372500Y-163355000D01*
X88947500Y-163355000D01*
X88970779Y-163356144D01*
X88970779Y-163356144D01*
G37*
D11*
X88660000Y-163830000D03*
D10*
G36*
X123740779Y-163356144D02*
G01*
X123763834Y-163359563D01*
X123786443Y-163365227D01*
X123808387Y-163373079D01*
X123829457Y-163383044D01*
X123849448Y-163395026D01*
X123868168Y-163408910D01*
X123885438Y-163424562D01*
X123901090Y-163441832D01*
X123914974Y-163460552D01*
X123926956Y-163480543D01*
X123936921Y-163501613D01*
X123944773Y-163523557D01*
X123950437Y-163546166D01*
X123953856Y-163569221D01*
X123955000Y-163592500D01*
X123955000Y-164067500D01*
X123953856Y-164090779D01*
X123950437Y-164113834D01*
X123944773Y-164136443D01*
X123936921Y-164158387D01*
X123926956Y-164179457D01*
X123914974Y-164199448D01*
X123901090Y-164218168D01*
X123885438Y-164235438D01*
X123868168Y-164251090D01*
X123849448Y-164264974D01*
X123829457Y-164276956D01*
X123808387Y-164286921D01*
X123786443Y-164294773D01*
X123763834Y-164300437D01*
X123740779Y-164303856D01*
X123717500Y-164305000D01*
X123142500Y-164305000D01*
X123119221Y-164303856D01*
X123096166Y-164300437D01*
X123073557Y-164294773D01*
X123051613Y-164286921D01*
X123030543Y-164276956D01*
X123010552Y-164264974D01*
X122991832Y-164251090D01*
X122974562Y-164235438D01*
X122958910Y-164218168D01*
X122945026Y-164199448D01*
X122933044Y-164179457D01*
X122923079Y-164158387D01*
X122915227Y-164136443D01*
X122909563Y-164113834D01*
X122906144Y-164090779D01*
X122905000Y-164067500D01*
X122905000Y-163592500D01*
X122906144Y-163569221D01*
X122909563Y-163546166D01*
X122915227Y-163523557D01*
X122923079Y-163501613D01*
X122933044Y-163480543D01*
X122945026Y-163460552D01*
X122958910Y-163441832D01*
X122974562Y-163424562D01*
X122991832Y-163408910D01*
X123010552Y-163395026D01*
X123030543Y-163383044D01*
X123051613Y-163373079D01*
X123073557Y-163365227D01*
X123096166Y-163359563D01*
X123119221Y-163356144D01*
X123142500Y-163355000D01*
X123717500Y-163355000D01*
X123740779Y-163356144D01*
X123740779Y-163356144D01*
G37*
D11*
X123430000Y-163830000D03*
D10*
G36*
X121990779Y-163356144D02*
G01*
X122013834Y-163359563D01*
X122036443Y-163365227D01*
X122058387Y-163373079D01*
X122079457Y-163383044D01*
X122099448Y-163395026D01*
X122118168Y-163408910D01*
X122135438Y-163424562D01*
X122151090Y-163441832D01*
X122164974Y-163460552D01*
X122176956Y-163480543D01*
X122186921Y-163501613D01*
X122194773Y-163523557D01*
X122200437Y-163546166D01*
X122203856Y-163569221D01*
X122205000Y-163592500D01*
X122205000Y-164067500D01*
X122203856Y-164090779D01*
X122200437Y-164113834D01*
X122194773Y-164136443D01*
X122186921Y-164158387D01*
X122176956Y-164179457D01*
X122164974Y-164199448D01*
X122151090Y-164218168D01*
X122135438Y-164235438D01*
X122118168Y-164251090D01*
X122099448Y-164264974D01*
X122079457Y-164276956D01*
X122058387Y-164286921D01*
X122036443Y-164294773D01*
X122013834Y-164300437D01*
X121990779Y-164303856D01*
X121967500Y-164305000D01*
X121392500Y-164305000D01*
X121369221Y-164303856D01*
X121346166Y-164300437D01*
X121323557Y-164294773D01*
X121301613Y-164286921D01*
X121280543Y-164276956D01*
X121260552Y-164264974D01*
X121241832Y-164251090D01*
X121224562Y-164235438D01*
X121208910Y-164218168D01*
X121195026Y-164199448D01*
X121183044Y-164179457D01*
X121173079Y-164158387D01*
X121165227Y-164136443D01*
X121159563Y-164113834D01*
X121156144Y-164090779D01*
X121155000Y-164067500D01*
X121155000Y-163592500D01*
X121156144Y-163569221D01*
X121159563Y-163546166D01*
X121165227Y-163523557D01*
X121173079Y-163501613D01*
X121183044Y-163480543D01*
X121195026Y-163460552D01*
X121208910Y-163441832D01*
X121224562Y-163424562D01*
X121241832Y-163408910D01*
X121260552Y-163395026D01*
X121280543Y-163383044D01*
X121301613Y-163373079D01*
X121323557Y-163365227D01*
X121346166Y-163359563D01*
X121369221Y-163356144D01*
X121392500Y-163355000D01*
X121967500Y-163355000D01*
X121990779Y-163356144D01*
X121990779Y-163356144D01*
G37*
D11*
X121680000Y-163830000D03*
D12*
X127676000Y-139065000D03*
X125476000Y-139065000D03*
X136101000Y-154305000D03*
X133901000Y-154305000D03*
X136101000Y-171450000D03*
X133901000Y-171450000D03*
X95801000Y-157480000D03*
X98001000Y-157480000D03*
D13*
X75946000Y-165100000D03*
X75946000Y-167300000D03*
D12*
X153586000Y-160020000D03*
X155786000Y-160020000D03*
X155786000Y-171450000D03*
X153586000Y-171450000D03*
D13*
X79756000Y-167300000D03*
X79756000Y-165100000D03*
X84201000Y-151130000D03*
X84201000Y-153330000D03*
D12*
X155786000Y-154305000D03*
X153586000Y-154305000D03*
X155786000Y-165735000D03*
X153586000Y-165735000D03*
X133901000Y-165735000D03*
X136101000Y-165735000D03*
X95801000Y-168910000D03*
X98001000Y-168910000D03*
X98001000Y-151765000D03*
X95801000Y-151765000D03*
X95801000Y-174625000D03*
X98001000Y-174625000D03*
D14*
X117061000Y-175260000D03*
X117061000Y-173990000D03*
X117061000Y-172720000D03*
X117061000Y-171450000D03*
X117061000Y-170180000D03*
X117061000Y-168910000D03*
X117061000Y-167640000D03*
X117061000Y-166370000D03*
X122461000Y-166370000D03*
X122461000Y-167640000D03*
X122461000Y-168910000D03*
X122461000Y-170180000D03*
X122461000Y-171450000D03*
X122461000Y-172720000D03*
X122461000Y-173990000D03*
X122461000Y-175260000D03*
D13*
X77851000Y-167300000D03*
X77851000Y-165100000D03*
D12*
X80856000Y-173990000D03*
X78656000Y-173990000D03*
X98001000Y-163195000D03*
X95801000Y-163195000D03*
D14*
X88966000Y-175260000D03*
X88966000Y-173990000D03*
X88966000Y-172720000D03*
X88966000Y-171450000D03*
X88966000Y-170180000D03*
X88966000Y-168910000D03*
X88966000Y-167640000D03*
X88966000Y-166370000D03*
X83566000Y-166370000D03*
X83566000Y-167640000D03*
X83566000Y-168910000D03*
X83566000Y-170180000D03*
X83566000Y-171450000D03*
X83566000Y-172720000D03*
X83566000Y-173990000D03*
X83566000Y-175260000D03*
D12*
X136101000Y-160020000D03*
X133901000Y-160020000D03*
M02*
