M48
; DRILL file {KiCad (5.1.4)-1} date 10.07.2020 21:56:11
; FORMAT={-:-/ absolute / metric / decimal}
; #@! TF.CreationDate,2020-07-10T21:56:11+02:00
; #@! TF.GenerationSoftware,Kicad,Pcbnew,(5.1.4)-1
; #@! TF.FileFunction,Plated,1,2,PTH
FMAT,2
METRIC
T1C0.300
T2C0.900
T3C1.000
T4C1.100
%
G90
G05
T1
X75.851Y-172.73
X78.359Y-170.18
X81.58Y-162.179
X84.231Y-164.74
X85.217Y-163.83
X87.122Y-163.83
X87.122Y-170.18
X87.391Y-176.32
X91.241Y-167.64
X91.241Y-168.91
X111.301Y-159.77
X112.251Y-160.76
X119.761Y-164.465
X124.251Y-154.32
X130.683Y-139.065
X140.589Y-143.573
X155.771Y-151.29
X155.829Y-145.288
X162.941Y-170.561
X163.449Y-160.338
T2
X147.701Y-160.02
X150.241Y-160.02
X147.701Y-165.735
X150.241Y-165.735
X100.711Y-168.91
X103.251Y-168.91
X139.446Y-171.45
X141.986Y-171.45
X100.711Y-163.195
X103.251Y-163.195
X100.711Y-157.48
X103.251Y-157.48
X87.376Y-157.48
X89.916Y-157.48
X147.701Y-154.305
X150.241Y-154.305
X139.446Y-160.02
X141.986Y-160.02
X100.711Y-151.765
X103.251Y-151.765
X139.446Y-165.735
X141.986Y-165.735
X139.446Y-154.305
X141.986Y-154.305
X147.701Y-171.45
X150.241Y-171.45
X100.711Y-174.625
X103.251Y-174.625
X87.376Y-151.13
X89.916Y-151.13
T3
X169.227Y-153.225
X169.227Y-155.766
X169.227Y-158.305
X169.227Y-160.845
X76.581Y-152.019
X76.581Y-154.559
X76.581Y-157.099
X76.581Y-159.639
X76.581Y-162.179
X79.121Y-152.019
X79.121Y-154.559
X79.121Y-157.099
X79.121Y-159.639
X79.121Y-162.179
T4
X84.201Y-142.24
X84.201Y-146.74
X90.701Y-142.24
X90.701Y-146.74
X105.791Y-142.24
X105.791Y-146.74
X112.291Y-142.24
X112.291Y-146.74
X94.996Y-142.24
X94.996Y-146.74
X101.496Y-142.24
X101.496Y-146.74
X127.381Y-142.24
X127.381Y-146.74
X133.881Y-142.24
X133.881Y-146.74
X116.586Y-142.24
X116.586Y-146.74
X123.086Y-142.24
X123.086Y-146.74
T0
M30
