G04 #@! TF.GenerationSoftware,KiCad,Pcbnew,(5.1.4)-1*
G04 #@! TF.CreationDate,2020-07-08T20:51:49+02:00*
G04 #@! TF.ProjectId,SBIO3,5342494f-332e-46b6-9963-61645f706362,rev?*
G04 #@! TF.SameCoordinates,Original*
G04 #@! TF.FileFunction,Legend,Top*
G04 #@! TF.FilePolarity,Positive*
%FSLAX46Y46*%
G04 Gerber Fmt 4.6, Leading zero omitted, Abs format (unit mm)*
G04 Created by KiCad (PCBNEW (5.1.4)-1) date 2020-07-08 20:51:49*
%MOMM*%
%LPD*%
G04 APERTURE LIST*
%ADD10C,0.120000*%
%ADD11C,0.150000*%
G04 APERTURE END LIST*
D10*
X87604870Y-150050163D02*
G75*
G02X89686961Y-150050000I1041130J-1079837D01*
G01*
X87604870Y-152209837D02*
G75*
G03X89686961Y-152210000I1041130J1079837D01*
G01*
X86973665Y-150051392D02*
G75*
G02X90206000Y-149894484I1672335J-1078608D01*
G01*
X86973665Y-152208608D02*
G75*
G03X90206000Y-152365516I1672335J1078608D01*
G01*
X90206000Y-150050000D02*
X90206000Y-149894000D01*
X90206000Y-152366000D02*
X90206000Y-152210000D01*
X87604870Y-156400163D02*
G75*
G02X89686961Y-156400000I1041130J-1079837D01*
G01*
X87604870Y-158559837D02*
G75*
G03X89686961Y-158560000I1041130J1079837D01*
G01*
X86973665Y-156401392D02*
G75*
G02X90206000Y-156244484I1672335J-1078608D01*
G01*
X86973665Y-158558608D02*
G75*
G03X90206000Y-158715516I1672335J1078608D01*
G01*
X90206000Y-156400000D02*
X90206000Y-156244000D01*
X90206000Y-158716000D02*
X90206000Y-158560000D01*
X169227500Y-151895500D02*
X170557500Y-151895500D01*
X170557500Y-151895500D02*
X170557500Y-153225500D01*
X170557500Y-154495500D02*
X170557500Y-162175500D01*
X167897500Y-162175500D02*
X170557500Y-162175500D01*
X167897500Y-154495500D02*
X167897500Y-162175500D01*
X167897500Y-154495500D02*
X170557500Y-154495500D01*
X79121000Y-150689000D02*
X80451000Y-150689000D01*
X80451000Y-150689000D02*
X80451000Y-152019000D01*
X77851000Y-150689000D02*
X77851000Y-153289000D01*
X77851000Y-153289000D02*
X80451000Y-153289000D01*
X80451000Y-153289000D02*
X80451000Y-163509000D01*
X75251000Y-163509000D02*
X80451000Y-163509000D01*
X75251000Y-150689000D02*
X75251000Y-163509000D01*
X75251000Y-150689000D02*
X77851000Y-150689000D01*
D11*
X121836000Y-175865000D02*
X123211000Y-175865000D01*
X121836000Y-165740000D02*
X117686000Y-165740000D01*
X121836000Y-175890000D02*
X117686000Y-175890000D01*
X121836000Y-165740000D02*
X121836000Y-165845000D01*
X117686000Y-165740000D02*
X117686000Y-165845000D01*
X117686000Y-175890000D02*
X117686000Y-175785000D01*
X121836000Y-175890000D02*
X121836000Y-175865000D01*
D10*
X134131000Y-145240000D02*
X134131000Y-143740000D01*
X132881000Y-141240000D02*
X128381000Y-141240000D01*
X127131000Y-143740000D02*
X127131000Y-145240000D01*
X128381000Y-147740000D02*
X132881000Y-147740000D01*
D11*
X88341000Y-175890000D02*
X88341000Y-175865000D01*
X84191000Y-175890000D02*
X84191000Y-175785000D01*
X84191000Y-165740000D02*
X84191000Y-165845000D01*
X88341000Y-165740000D02*
X88341000Y-165845000D01*
X88341000Y-175890000D02*
X84191000Y-175890000D01*
X88341000Y-165740000D02*
X84191000Y-165740000D01*
X88341000Y-175865000D02*
X89716000Y-175865000D01*
D10*
X100308665Y-175703608D02*
G75*
G03X103541000Y-175860516I1672335J1078608D01*
G01*
X100308665Y-173546392D02*
G75*
G02X103541000Y-173389484I1672335J-1078608D01*
G01*
X100939870Y-175704837D02*
G75*
G03X103021961Y-175705000I1041130J1079837D01*
G01*
X100939870Y-173545163D02*
G75*
G02X103021961Y-173545000I1041130J-1079837D01*
G01*
X103541000Y-175861000D02*
X103541000Y-175705000D01*
X103541000Y-173545000D02*
X103541000Y-173389000D01*
X78531000Y-165700000D02*
X78531000Y-166700000D01*
X77171000Y-166700000D02*
X77171000Y-165700000D01*
X134501000Y-159340000D02*
X135501000Y-159340000D01*
X135501000Y-160700000D02*
X134501000Y-160700000D01*
X79256000Y-173310000D02*
X80256000Y-173310000D01*
X80256000Y-174670000D02*
X79256000Y-174670000D01*
X96401000Y-162515000D02*
X97401000Y-162515000D01*
X97401000Y-163875000D02*
X96401000Y-163875000D01*
X75266000Y-166700000D02*
X75266000Y-165700000D01*
X76626000Y-165700000D02*
X76626000Y-166700000D01*
X103541000Y-167830000D02*
X103541000Y-167674000D01*
X103541000Y-170146000D02*
X103541000Y-169990000D01*
X100939870Y-167830163D02*
G75*
G02X103021961Y-167830000I1041130J-1079837D01*
G01*
X100939870Y-169989837D02*
G75*
G03X103021961Y-169990000I1041130J1079837D01*
G01*
X100308665Y-167831392D02*
G75*
G02X103541000Y-167674484I1672335J-1078608D01*
G01*
X100308665Y-169988608D02*
G75*
G03X103541000Y-170145516I1672335J1078608D01*
G01*
X103541000Y-156400000D02*
X103541000Y-156244000D01*
X103541000Y-158716000D02*
X103541000Y-158560000D01*
X100939870Y-156400163D02*
G75*
G02X103021961Y-156400000I1041130J-1079837D01*
G01*
X100939870Y-158559837D02*
G75*
G03X103021961Y-158560000I1041130J1079837D01*
G01*
X100308665Y-156401392D02*
G75*
G02X103541000Y-156244484I1672335J-1078608D01*
G01*
X100308665Y-158558608D02*
G75*
G03X103541000Y-158715516I1672335J1078608D01*
G01*
X142276000Y-153225000D02*
X142276000Y-153069000D01*
X142276000Y-155541000D02*
X142276000Y-155385000D01*
X139674870Y-153225163D02*
G75*
G02X141756961Y-153225000I1041130J-1079837D01*
G01*
X139674870Y-155384837D02*
G75*
G03X141756961Y-155385000I1041130J1079837D01*
G01*
X139043665Y-153226392D02*
G75*
G02X142276000Y-153069484I1672335J-1078608D01*
G01*
X139043665Y-155383608D02*
G75*
G03X142276000Y-155540516I1672335J1078608D01*
G01*
X150643335Y-164656392D02*
G75*
G03X147411000Y-164499484I-1672335J-1078608D01*
G01*
X150643335Y-166813608D02*
G75*
G02X147411000Y-166970516I-1672335J1078608D01*
G01*
X150012130Y-164655163D02*
G75*
G03X147930039Y-164655000I-1041130J-1079837D01*
G01*
X150012130Y-166814837D02*
G75*
G02X147930039Y-166815000I-1041130J1079837D01*
G01*
X147411000Y-164499000D02*
X147411000Y-164655000D01*
X147411000Y-166815000D02*
X147411000Y-166971000D01*
X80436000Y-165700000D02*
X80436000Y-166700000D01*
X79076000Y-166700000D02*
X79076000Y-165700000D01*
X97401000Y-175305000D02*
X96401000Y-175305000D01*
X96401000Y-173945000D02*
X97401000Y-173945000D01*
X155186000Y-160700000D02*
X154186000Y-160700000D01*
X154186000Y-159340000D02*
X155186000Y-159340000D01*
X154186000Y-170770000D02*
X155186000Y-170770000D01*
X155186000Y-172130000D02*
X154186000Y-172130000D01*
X123336000Y-145240000D02*
X123336000Y-143740000D01*
X122086000Y-141240000D02*
X117586000Y-141240000D01*
X116336000Y-143740000D02*
X116336000Y-145240000D01*
X117586000Y-147740000D02*
X122086000Y-147740000D01*
X85201000Y-147740000D02*
X89701000Y-147740000D01*
X83951000Y-143740000D02*
X83951000Y-145240000D01*
X89701000Y-141240000D02*
X85201000Y-141240000D01*
X90951000Y-145240000D02*
X90951000Y-143740000D01*
X112541000Y-145240000D02*
X112541000Y-143740000D01*
X111291000Y-141240000D02*
X106791000Y-141240000D01*
X105541000Y-143740000D02*
X105541000Y-145240000D01*
X106791000Y-147740000D02*
X111291000Y-147740000D01*
X154186000Y-153625000D02*
X155186000Y-153625000D01*
X155186000Y-154985000D02*
X154186000Y-154985000D01*
X95996000Y-147740000D02*
X100496000Y-147740000D01*
X94746000Y-143740000D02*
X94746000Y-145240000D01*
X100496000Y-141240000D02*
X95996000Y-141240000D01*
X101746000Y-145240000D02*
X101746000Y-143740000D01*
X83521000Y-152730000D02*
X83521000Y-151730000D01*
X84881000Y-151730000D02*
X84881000Y-152730000D01*
X96401000Y-151085000D02*
X97401000Y-151085000D01*
X97401000Y-152445000D02*
X96401000Y-152445000D01*
X134501000Y-153625000D02*
X135501000Y-153625000D01*
X135501000Y-154985000D02*
X134501000Y-154985000D01*
X103541000Y-162115000D02*
X103541000Y-161959000D01*
X103541000Y-164431000D02*
X103541000Y-164275000D01*
X100939870Y-162115163D02*
G75*
G02X103021961Y-162115000I1041130J-1079837D01*
G01*
X100939870Y-164274837D02*
G75*
G03X103021961Y-164275000I1041130J1079837D01*
G01*
X100308665Y-162116392D02*
G75*
G02X103541000Y-161959484I1672335J-1078608D01*
G01*
X100308665Y-164273608D02*
G75*
G03X103541000Y-164430516I1672335J1078608D01*
G01*
X147411000Y-155385000D02*
X147411000Y-155541000D01*
X147411000Y-153069000D02*
X147411000Y-153225000D01*
X150012130Y-155384837D02*
G75*
G02X147930039Y-155385000I-1041130J1079837D01*
G01*
X150012130Y-153225163D02*
G75*
G03X147930039Y-153225000I-1041130J-1079837D01*
G01*
X150643335Y-155383608D02*
G75*
G02X147411000Y-155540516I-1672335J1078608D01*
G01*
X150643335Y-153226392D02*
G75*
G03X147411000Y-153069484I-1672335J-1078608D01*
G01*
X139043665Y-166813608D02*
G75*
G03X142276000Y-166970516I1672335J1078608D01*
G01*
X139043665Y-164656392D02*
G75*
G02X142276000Y-164499484I1672335J-1078608D01*
G01*
X139674870Y-166814837D02*
G75*
G03X141756961Y-166815000I1041130J1079837D01*
G01*
X139674870Y-164655163D02*
G75*
G02X141756961Y-164655000I1041130J-1079837D01*
G01*
X142276000Y-166971000D02*
X142276000Y-166815000D01*
X142276000Y-164655000D02*
X142276000Y-164499000D01*
X97401000Y-169590000D02*
X96401000Y-169590000D01*
X96401000Y-168230000D02*
X97401000Y-168230000D01*
X150643335Y-170371392D02*
G75*
G03X147411000Y-170214484I-1672335J-1078608D01*
G01*
X150643335Y-172528608D02*
G75*
G02X147411000Y-172685516I-1672335J1078608D01*
G01*
X150012130Y-170370163D02*
G75*
G03X147930039Y-170370000I-1041130J-1079837D01*
G01*
X150012130Y-172529837D02*
G75*
G02X147930039Y-172530000I-1041130J1079837D01*
G01*
X147411000Y-170214000D02*
X147411000Y-170370000D01*
X147411000Y-172530000D02*
X147411000Y-172686000D01*
X139043665Y-172528608D02*
G75*
G03X142276000Y-172685516I1672335J1078608D01*
G01*
X139043665Y-170371392D02*
G75*
G02X142276000Y-170214484I1672335J-1078608D01*
G01*
X139674870Y-172529837D02*
G75*
G03X141756961Y-172530000I1041130J1079837D01*
G01*
X139674870Y-170370163D02*
G75*
G02X141756961Y-170370000I1041130J-1079837D01*
G01*
X142276000Y-172686000D02*
X142276000Y-172530000D01*
X142276000Y-170370000D02*
X142276000Y-170214000D01*
X126076000Y-138385000D02*
X127076000Y-138385000D01*
X127076000Y-139745000D02*
X126076000Y-139745000D01*
X150643335Y-158941392D02*
G75*
G03X147411000Y-158784484I-1672335J-1078608D01*
G01*
X150643335Y-161098608D02*
G75*
G02X147411000Y-161255516I-1672335J1078608D01*
G01*
X150012130Y-158940163D02*
G75*
G03X147930039Y-158940000I-1041130J-1079837D01*
G01*
X150012130Y-161099837D02*
G75*
G02X147930039Y-161100000I-1041130J1079837D01*
G01*
X147411000Y-158784000D02*
X147411000Y-158940000D01*
X147411000Y-161100000D02*
X147411000Y-161256000D01*
X142276000Y-158940000D02*
X142276000Y-158784000D01*
X142276000Y-161256000D02*
X142276000Y-161100000D01*
X139674870Y-158940163D02*
G75*
G02X141756961Y-158940000I1041130J-1079837D01*
G01*
X139674870Y-161099837D02*
G75*
G03X141756961Y-161100000I1041130J1079837D01*
G01*
X139043665Y-158941392D02*
G75*
G02X142276000Y-158784484I1672335J-1078608D01*
G01*
X139043665Y-161098608D02*
G75*
G03X142276000Y-161255516I1672335J1078608D01*
G01*
X154186000Y-165055000D02*
X155186000Y-165055000D01*
X155186000Y-166415000D02*
X154186000Y-166415000D01*
X135501000Y-166415000D02*
X134501000Y-166415000D01*
X134501000Y-165055000D02*
X135501000Y-165055000D01*
X103541000Y-150685000D02*
X103541000Y-150529000D01*
X103541000Y-153001000D02*
X103541000Y-152845000D01*
X100939870Y-150685163D02*
G75*
G02X103021961Y-150685000I1041130J-1079837D01*
G01*
X100939870Y-152844837D02*
G75*
G03X103021961Y-152845000I1041130J1079837D01*
G01*
X100308665Y-150686392D02*
G75*
G02X103541000Y-150529484I1672335J-1078608D01*
G01*
X100308665Y-152843608D02*
G75*
G03X103541000Y-153000516I1672335J1078608D01*
G01*
X134501000Y-170770000D02*
X135501000Y-170770000D01*
X135501000Y-172130000D02*
X134501000Y-172130000D01*
X97401000Y-158160000D02*
X96401000Y-158160000D01*
X96401000Y-156800000D02*
X97401000Y-156800000D01*
D11*
X88676314Y-153969980D02*
X88676314Y-152969980D01*
X88914409Y-152969980D01*
X89057266Y-153017600D01*
X89152504Y-153112838D01*
X89200123Y-153208076D01*
X89247742Y-153398552D01*
X89247742Y-153541409D01*
X89200123Y-153731885D01*
X89152504Y-153827123D01*
X89057266Y-153922361D01*
X88914409Y-153969980D01*
X88676314Y-153969980D01*
X90200123Y-153969980D02*
X89628695Y-153969980D01*
X89914409Y-153969980D02*
X89914409Y-152969980D01*
X89819171Y-153112838D01*
X89723933Y-153208076D01*
X89628695Y-153255695D01*
X91057266Y-153303314D02*
X91057266Y-153969980D01*
X90819171Y-152922361D02*
X90581076Y-153636647D01*
X91200123Y-153636647D01*
X88676314Y-160319980D02*
X88676314Y-159319980D01*
X88914409Y-159319980D01*
X89057266Y-159367600D01*
X89152504Y-159462838D01*
X89200123Y-159558076D01*
X89247742Y-159748552D01*
X89247742Y-159891409D01*
X89200123Y-160081885D01*
X89152504Y-160177123D01*
X89057266Y-160272361D01*
X88914409Y-160319980D01*
X88676314Y-160319980D01*
X90200123Y-160319980D02*
X89628695Y-160319980D01*
X89914409Y-160319980D02*
X89914409Y-159319980D01*
X89819171Y-159462838D01*
X89723933Y-159558076D01*
X89628695Y-159605695D01*
X91104885Y-159319980D02*
X90628695Y-159319980D01*
X90581076Y-159796171D01*
X90628695Y-159748552D01*
X90723933Y-159700933D01*
X90962028Y-159700933D01*
X91057266Y-159748552D01*
X91104885Y-159796171D01*
X91152504Y-159891409D01*
X91152504Y-160129504D01*
X91104885Y-160224742D01*
X91057266Y-160272361D01*
X90962028Y-160319980D01*
X90723933Y-160319980D01*
X90628695Y-160272361D01*
X90581076Y-160224742D01*
X168417976Y-149907880D02*
X168417976Y-150622166D01*
X168370357Y-150765023D01*
X168275119Y-150860261D01*
X168132261Y-150907880D01*
X168037023Y-150907880D01*
X169417976Y-150907880D02*
X168846547Y-150907880D01*
X169132261Y-150907880D02*
X169132261Y-149907880D01*
X169037023Y-150050738D01*
X168941785Y-150145976D01*
X168846547Y-150193595D01*
X170275119Y-150241214D02*
X170275119Y-150907880D01*
X170037023Y-149860261D02*
X169798928Y-150574547D01*
X170417976Y-150574547D01*
X77041476Y-148701380D02*
X77041476Y-149415666D01*
X76993857Y-149558523D01*
X76898619Y-149653761D01*
X76755761Y-149701380D01*
X76660523Y-149701380D01*
X78041476Y-149701380D02*
X77470047Y-149701380D01*
X77755761Y-149701380D02*
X77755761Y-148701380D01*
X77660523Y-148844238D01*
X77565285Y-148939476D01*
X77470047Y-148987095D01*
X78374809Y-148701380D02*
X78993857Y-148701380D01*
X78660523Y-149082333D01*
X78803380Y-149082333D01*
X78898619Y-149129952D01*
X78946238Y-149177571D01*
X78993857Y-149272809D01*
X78993857Y-149510904D01*
X78946238Y-149606142D01*
X78898619Y-149653761D01*
X78803380Y-149701380D01*
X78517666Y-149701380D01*
X78422428Y-149653761D01*
X78374809Y-149606142D01*
X118522904Y-176267380D02*
X118522904Y-177076904D01*
X118570523Y-177172142D01*
X118618142Y-177219761D01*
X118713380Y-177267380D01*
X118903857Y-177267380D01*
X118999095Y-177219761D01*
X119046714Y-177172142D01*
X119094333Y-177076904D01*
X119094333Y-176267380D01*
X119522904Y-176362619D02*
X119570523Y-176315000D01*
X119665761Y-176267380D01*
X119903857Y-176267380D01*
X119999095Y-176315000D01*
X120046714Y-176362619D01*
X120094333Y-176457857D01*
X120094333Y-176553095D01*
X120046714Y-176695952D01*
X119475285Y-177267380D01*
X120094333Y-177267380D01*
X120713380Y-176267380D02*
X120808619Y-176267380D01*
X120903857Y-176315000D01*
X120951476Y-176362619D01*
X120999095Y-176457857D01*
X121046714Y-176648333D01*
X121046714Y-176886428D01*
X120999095Y-177076904D01*
X120951476Y-177172142D01*
X120903857Y-177219761D01*
X120808619Y-177267380D01*
X120713380Y-177267380D01*
X120618142Y-177219761D01*
X120570523Y-177172142D01*
X120522904Y-177076904D01*
X120475285Y-176886428D01*
X120475285Y-176648333D01*
X120522904Y-176457857D01*
X120570523Y-176362619D01*
X120618142Y-176315000D01*
X120713380Y-176267380D01*
X129297666Y-140644761D02*
X129440523Y-140692380D01*
X129678619Y-140692380D01*
X129773857Y-140644761D01*
X129821476Y-140597142D01*
X129869095Y-140501904D01*
X129869095Y-140406666D01*
X129821476Y-140311428D01*
X129773857Y-140263809D01*
X129678619Y-140216190D01*
X129488142Y-140168571D01*
X129392904Y-140120952D01*
X129345285Y-140073333D01*
X129297666Y-139978095D01*
X129297666Y-139882857D01*
X129345285Y-139787619D01*
X129392904Y-139740000D01*
X129488142Y-139692380D01*
X129726238Y-139692380D01*
X129869095Y-139740000D01*
X130202428Y-139692380D02*
X130440523Y-140692380D01*
X130631000Y-139978095D01*
X130821476Y-140692380D01*
X131059571Y-139692380D01*
X131916714Y-139692380D02*
X131440523Y-139692380D01*
X131392904Y-140168571D01*
X131440523Y-140120952D01*
X131535761Y-140073333D01*
X131773857Y-140073333D01*
X131869095Y-140120952D01*
X131916714Y-140168571D01*
X131964333Y-140263809D01*
X131964333Y-140501904D01*
X131916714Y-140597142D01*
X131869095Y-140644761D01*
X131773857Y-140692380D01*
X131535761Y-140692380D01*
X131440523Y-140644761D01*
X131392904Y-140597142D01*
X85027904Y-176267380D02*
X85027904Y-177076904D01*
X85075523Y-177172142D01*
X85123142Y-177219761D01*
X85218380Y-177267380D01*
X85408857Y-177267380D01*
X85504095Y-177219761D01*
X85551714Y-177172142D01*
X85599333Y-177076904D01*
X85599333Y-176267380D01*
X86599333Y-177267380D02*
X86027904Y-177267380D01*
X86313619Y-177267380D02*
X86313619Y-176267380D01*
X86218380Y-176410238D01*
X86123142Y-176505476D01*
X86027904Y-176553095D01*
X87075523Y-177267380D02*
X87266000Y-177267380D01*
X87361238Y-177219761D01*
X87408857Y-177172142D01*
X87504095Y-177029285D01*
X87551714Y-176838809D01*
X87551714Y-176457857D01*
X87504095Y-176362619D01*
X87456476Y-176315000D01*
X87361238Y-176267380D01*
X87170761Y-176267380D01*
X87075523Y-176315000D01*
X87027904Y-176362619D01*
X86980285Y-176457857D01*
X86980285Y-176695952D01*
X87027904Y-176791190D01*
X87075523Y-176838809D01*
X87170761Y-176886428D01*
X87361238Y-176886428D01*
X87456476Y-176838809D01*
X87504095Y-176791190D01*
X87551714Y-176695952D01*
X100766714Y-178037380D02*
X100766714Y-177037380D01*
X101004809Y-177037380D01*
X101147666Y-177085000D01*
X101242904Y-177180238D01*
X101290523Y-177275476D01*
X101338142Y-177465952D01*
X101338142Y-177608809D01*
X101290523Y-177799285D01*
X101242904Y-177894523D01*
X101147666Y-177989761D01*
X101004809Y-178037380D01*
X100766714Y-178037380D01*
X101719095Y-177132619D02*
X101766714Y-177085000D01*
X101861952Y-177037380D01*
X102100047Y-177037380D01*
X102195285Y-177085000D01*
X102242904Y-177132619D01*
X102290523Y-177227857D01*
X102290523Y-177323095D01*
X102242904Y-177465952D01*
X101671476Y-178037380D01*
X102290523Y-178037380D01*
X102623857Y-177037380D02*
X103242904Y-177037380D01*
X102909571Y-177418333D01*
X103052428Y-177418333D01*
X103147666Y-177465952D01*
X103195285Y-177513571D01*
X103242904Y-177608809D01*
X103242904Y-177846904D01*
X103195285Y-177942142D01*
X103147666Y-177989761D01*
X103052428Y-178037380D01*
X102766714Y-178037380D01*
X102671476Y-177989761D01*
X102623857Y-177942142D01*
X79753380Y-166842857D02*
X79277190Y-167176190D01*
X79753380Y-167414285D02*
X78753380Y-167414285D01*
X78753380Y-167033333D01*
X78801000Y-166938095D01*
X78848619Y-166890476D01*
X78943857Y-166842857D01*
X79086714Y-166842857D01*
X79181952Y-166890476D01*
X79229571Y-166938095D01*
X79277190Y-167033333D01*
X79277190Y-167414285D01*
X78753380Y-165938095D02*
X78753380Y-166414285D01*
X79229571Y-166461904D01*
X79181952Y-166414285D01*
X79134333Y-166319047D01*
X79134333Y-166080952D01*
X79181952Y-165985714D01*
X79229571Y-165938095D01*
X79324809Y-165890476D01*
X79562904Y-165890476D01*
X79658142Y-165938095D01*
X79705761Y-165985714D01*
X79753380Y-166080952D01*
X79753380Y-166319047D01*
X79705761Y-166414285D01*
X79658142Y-166461904D01*
X79086714Y-165033333D02*
X79753380Y-165033333D01*
X78705761Y-165271428D02*
X79420047Y-165509523D01*
X79420047Y-164890476D01*
X134358142Y-161922380D02*
X134024809Y-161446190D01*
X133786714Y-161922380D02*
X133786714Y-160922380D01*
X134167666Y-160922380D01*
X134262904Y-160970000D01*
X134310523Y-161017619D01*
X134358142Y-161112857D01*
X134358142Y-161255714D01*
X134310523Y-161350952D01*
X134262904Y-161398571D01*
X134167666Y-161446190D01*
X133786714Y-161446190D01*
X135215285Y-160922380D02*
X135024809Y-160922380D01*
X134929571Y-160970000D01*
X134881952Y-161017619D01*
X134786714Y-161160476D01*
X134739095Y-161350952D01*
X134739095Y-161731904D01*
X134786714Y-161827142D01*
X134834333Y-161874761D01*
X134929571Y-161922380D01*
X135120047Y-161922380D01*
X135215285Y-161874761D01*
X135262904Y-161827142D01*
X135310523Y-161731904D01*
X135310523Y-161493809D01*
X135262904Y-161398571D01*
X135215285Y-161350952D01*
X135120047Y-161303333D01*
X134929571Y-161303333D01*
X134834333Y-161350952D01*
X134786714Y-161398571D01*
X134739095Y-161493809D01*
X135643857Y-160922380D02*
X136262904Y-160922380D01*
X135929571Y-161303333D01*
X136072428Y-161303333D01*
X136167666Y-161350952D01*
X136215285Y-161398571D01*
X136262904Y-161493809D01*
X136262904Y-161731904D01*
X136215285Y-161827142D01*
X136167666Y-161874761D01*
X136072428Y-161922380D01*
X135786714Y-161922380D01*
X135691476Y-161874761D01*
X135643857Y-161827142D01*
X79113142Y-172992380D02*
X78779809Y-172516190D01*
X78541714Y-172992380D02*
X78541714Y-171992380D01*
X78922666Y-171992380D01*
X79017904Y-172040000D01*
X79065523Y-172087619D01*
X79113142Y-172182857D01*
X79113142Y-172325714D01*
X79065523Y-172420952D01*
X79017904Y-172468571D01*
X78922666Y-172516190D01*
X78541714Y-172516190D01*
X80017904Y-171992380D02*
X79541714Y-171992380D01*
X79494095Y-172468571D01*
X79541714Y-172420952D01*
X79636952Y-172373333D01*
X79875047Y-172373333D01*
X79970285Y-172420952D01*
X80017904Y-172468571D01*
X80065523Y-172563809D01*
X80065523Y-172801904D01*
X80017904Y-172897142D01*
X79970285Y-172944761D01*
X79875047Y-172992380D01*
X79636952Y-172992380D01*
X79541714Y-172944761D01*
X79494095Y-172897142D01*
X80922666Y-171992380D02*
X80732190Y-171992380D01*
X80636952Y-172040000D01*
X80589333Y-172087619D01*
X80494095Y-172230476D01*
X80446476Y-172420952D01*
X80446476Y-172801904D01*
X80494095Y-172897142D01*
X80541714Y-172944761D01*
X80636952Y-172992380D01*
X80827428Y-172992380D01*
X80922666Y-172944761D01*
X80970285Y-172897142D01*
X81017904Y-172801904D01*
X81017904Y-172563809D01*
X80970285Y-172468571D01*
X80922666Y-172420952D01*
X80827428Y-172373333D01*
X80636952Y-172373333D01*
X80541714Y-172420952D01*
X80494095Y-172468571D01*
X80446476Y-172563809D01*
X96305761Y-165097380D02*
X95734333Y-165097380D01*
X96020047Y-165097380D02*
X96020047Y-164097380D01*
X95924809Y-164240238D01*
X95829571Y-164335476D01*
X95734333Y-164383095D01*
X96734333Y-165097380D02*
X96734333Y-164097380D01*
X96829571Y-164716428D02*
X97115285Y-165097380D01*
X97115285Y-164430714D02*
X96734333Y-164811666D01*
X97448619Y-164097380D02*
X98067666Y-164097380D01*
X97734333Y-164478333D01*
X97877190Y-164478333D01*
X97972428Y-164525952D01*
X98020047Y-164573571D01*
X98067666Y-164668809D01*
X98067666Y-164906904D01*
X98020047Y-165002142D01*
X97972428Y-165049761D01*
X97877190Y-165097380D01*
X97591476Y-165097380D01*
X97496238Y-165049761D01*
X97448619Y-165002142D01*
X77848380Y-166842857D02*
X77372190Y-167176190D01*
X77848380Y-167414285D02*
X76848380Y-167414285D01*
X76848380Y-167033333D01*
X76896000Y-166938095D01*
X76943619Y-166890476D01*
X77038857Y-166842857D01*
X77181714Y-166842857D01*
X77276952Y-166890476D01*
X77324571Y-166938095D01*
X77372190Y-167033333D01*
X77372190Y-167414285D01*
X76848380Y-165938095D02*
X76848380Y-166414285D01*
X77324571Y-166461904D01*
X77276952Y-166414285D01*
X77229333Y-166319047D01*
X77229333Y-166080952D01*
X77276952Y-165985714D01*
X77324571Y-165938095D01*
X77419809Y-165890476D01*
X77657904Y-165890476D01*
X77753142Y-165938095D01*
X77800761Y-165985714D01*
X77848380Y-166080952D01*
X77848380Y-166319047D01*
X77800761Y-166414285D01*
X77753142Y-166461904D01*
X76943619Y-165509523D02*
X76896000Y-165461904D01*
X76848380Y-165366666D01*
X76848380Y-165128571D01*
X76896000Y-165033333D01*
X76943619Y-164985714D01*
X77038857Y-164938095D01*
X77134095Y-164938095D01*
X77276952Y-164985714D01*
X77848380Y-165557142D01*
X77848380Y-164938095D01*
X100766714Y-172322380D02*
X100766714Y-171322380D01*
X101004809Y-171322380D01*
X101147666Y-171370000D01*
X101242904Y-171465238D01*
X101290523Y-171560476D01*
X101338142Y-171750952D01*
X101338142Y-171893809D01*
X101290523Y-172084285D01*
X101242904Y-172179523D01*
X101147666Y-172274761D01*
X101004809Y-172322380D01*
X100766714Y-172322380D01*
X101719095Y-171417619D02*
X101766714Y-171370000D01*
X101861952Y-171322380D01*
X102100047Y-171322380D01*
X102195285Y-171370000D01*
X102242904Y-171417619D01*
X102290523Y-171512857D01*
X102290523Y-171608095D01*
X102242904Y-171750952D01*
X101671476Y-172322380D01*
X102290523Y-172322380D01*
X103147666Y-171655714D02*
X103147666Y-172322380D01*
X102909571Y-171274761D02*
X102671476Y-171989047D01*
X103290523Y-171989047D01*
X100766714Y-160892380D02*
X100766714Y-159892380D01*
X101004809Y-159892380D01*
X101147666Y-159940000D01*
X101242904Y-160035238D01*
X101290523Y-160130476D01*
X101338142Y-160320952D01*
X101338142Y-160463809D01*
X101290523Y-160654285D01*
X101242904Y-160749523D01*
X101147666Y-160844761D01*
X101004809Y-160892380D01*
X100766714Y-160892380D01*
X101719095Y-159987619D02*
X101766714Y-159940000D01*
X101861952Y-159892380D01*
X102100047Y-159892380D01*
X102195285Y-159940000D01*
X102242904Y-159987619D01*
X102290523Y-160082857D01*
X102290523Y-160178095D01*
X102242904Y-160320952D01*
X101671476Y-160892380D01*
X102290523Y-160892380D01*
X103147666Y-159892380D02*
X102957190Y-159892380D01*
X102861952Y-159940000D01*
X102814333Y-159987619D01*
X102719095Y-160130476D01*
X102671476Y-160320952D01*
X102671476Y-160701904D01*
X102719095Y-160797142D01*
X102766714Y-160844761D01*
X102861952Y-160892380D01*
X103052428Y-160892380D01*
X103147666Y-160844761D01*
X103195285Y-160797142D01*
X103242904Y-160701904D01*
X103242904Y-160463809D01*
X103195285Y-160368571D01*
X103147666Y-160320952D01*
X103052428Y-160273333D01*
X102861952Y-160273333D01*
X102766714Y-160320952D01*
X102719095Y-160368571D01*
X102671476Y-160463809D01*
X139501714Y-157717380D02*
X139501714Y-156717380D01*
X139739809Y-156717380D01*
X139882666Y-156765000D01*
X139977904Y-156860238D01*
X140025523Y-156955476D01*
X140073142Y-157145952D01*
X140073142Y-157288809D01*
X140025523Y-157479285D01*
X139977904Y-157574523D01*
X139882666Y-157669761D01*
X139739809Y-157717380D01*
X139501714Y-157717380D01*
X140454095Y-156812619D02*
X140501714Y-156765000D01*
X140596952Y-156717380D01*
X140835047Y-156717380D01*
X140930285Y-156765000D01*
X140977904Y-156812619D01*
X141025523Y-156907857D01*
X141025523Y-157003095D01*
X140977904Y-157145952D01*
X140406476Y-157717380D01*
X141025523Y-157717380D01*
X141501714Y-157717380D02*
X141692190Y-157717380D01*
X141787428Y-157669761D01*
X141835047Y-157622142D01*
X141930285Y-157479285D01*
X141977904Y-157288809D01*
X141977904Y-156907857D01*
X141930285Y-156812619D01*
X141882666Y-156765000D01*
X141787428Y-156717380D01*
X141596952Y-156717380D01*
X141501714Y-156765000D01*
X141454095Y-156812619D01*
X141406476Y-156907857D01*
X141406476Y-157145952D01*
X141454095Y-157241190D01*
X141501714Y-157288809D01*
X141596952Y-157336428D01*
X141787428Y-157336428D01*
X141882666Y-157288809D01*
X141930285Y-157241190D01*
X141977904Y-157145952D01*
X147756714Y-163227380D02*
X147756714Y-162227380D01*
X147994809Y-162227380D01*
X148137666Y-162275000D01*
X148232904Y-162370238D01*
X148280523Y-162465476D01*
X148328142Y-162655952D01*
X148328142Y-162798809D01*
X148280523Y-162989285D01*
X148232904Y-163084523D01*
X148137666Y-163179761D01*
X147994809Y-163227380D01*
X147756714Y-163227380D01*
X148661476Y-162227380D02*
X149280523Y-162227380D01*
X148947190Y-162608333D01*
X149090047Y-162608333D01*
X149185285Y-162655952D01*
X149232904Y-162703571D01*
X149280523Y-162798809D01*
X149280523Y-163036904D01*
X149232904Y-163132142D01*
X149185285Y-163179761D01*
X149090047Y-163227380D01*
X148804333Y-163227380D01*
X148709095Y-163179761D01*
X148661476Y-163132142D01*
X149661476Y-162322619D02*
X149709095Y-162275000D01*
X149804333Y-162227380D01*
X150042428Y-162227380D01*
X150137666Y-162275000D01*
X150185285Y-162322619D01*
X150232904Y-162417857D01*
X150232904Y-162513095D01*
X150185285Y-162655952D01*
X149613857Y-163227380D01*
X150232904Y-163227380D01*
X81658380Y-166842857D02*
X81182190Y-167176190D01*
X81658380Y-167414285D02*
X80658380Y-167414285D01*
X80658380Y-167033333D01*
X80706000Y-166938095D01*
X80753619Y-166890476D01*
X80848857Y-166842857D01*
X80991714Y-166842857D01*
X81086952Y-166890476D01*
X81134571Y-166938095D01*
X81182190Y-167033333D01*
X81182190Y-167414285D01*
X80658380Y-165938095D02*
X80658380Y-166414285D01*
X81134571Y-166461904D01*
X81086952Y-166414285D01*
X81039333Y-166319047D01*
X81039333Y-166080952D01*
X81086952Y-165985714D01*
X81134571Y-165938095D01*
X81229809Y-165890476D01*
X81467904Y-165890476D01*
X81563142Y-165938095D01*
X81610761Y-165985714D01*
X81658380Y-166080952D01*
X81658380Y-166319047D01*
X81610761Y-166414285D01*
X81563142Y-166461904D01*
X80658380Y-164985714D02*
X80658380Y-165461904D01*
X81134571Y-165509523D01*
X81086952Y-165461904D01*
X81039333Y-165366666D01*
X81039333Y-165128571D01*
X81086952Y-165033333D01*
X81134571Y-164985714D01*
X81229809Y-164938095D01*
X81467904Y-164938095D01*
X81563142Y-164985714D01*
X81610761Y-165033333D01*
X81658380Y-165128571D01*
X81658380Y-165366666D01*
X81610761Y-165461904D01*
X81563142Y-165509523D01*
X96258142Y-176527380D02*
X95924809Y-176051190D01*
X95686714Y-176527380D02*
X95686714Y-175527380D01*
X96067666Y-175527380D01*
X96162904Y-175575000D01*
X96210523Y-175622619D01*
X96258142Y-175717857D01*
X96258142Y-175860714D01*
X96210523Y-175955952D01*
X96162904Y-176003571D01*
X96067666Y-176051190D01*
X95686714Y-176051190D01*
X97162904Y-175527380D02*
X96686714Y-175527380D01*
X96639095Y-176003571D01*
X96686714Y-175955952D01*
X96781952Y-175908333D01*
X97020047Y-175908333D01*
X97115285Y-175955952D01*
X97162904Y-176003571D01*
X97210523Y-176098809D01*
X97210523Y-176336904D01*
X97162904Y-176432142D01*
X97115285Y-176479761D01*
X97020047Y-176527380D01*
X96781952Y-176527380D01*
X96686714Y-176479761D01*
X96639095Y-176432142D01*
X97543857Y-175527380D02*
X98210523Y-175527380D01*
X97781952Y-176527380D01*
X154043142Y-159022380D02*
X153709809Y-158546190D01*
X153471714Y-159022380D02*
X153471714Y-158022380D01*
X153852666Y-158022380D01*
X153947904Y-158070000D01*
X153995523Y-158117619D01*
X154043142Y-158212857D01*
X154043142Y-158355714D01*
X153995523Y-158450952D01*
X153947904Y-158498571D01*
X153852666Y-158546190D01*
X153471714Y-158546190D01*
X154900285Y-158022380D02*
X154709809Y-158022380D01*
X154614571Y-158070000D01*
X154566952Y-158117619D01*
X154471714Y-158260476D01*
X154424095Y-158450952D01*
X154424095Y-158831904D01*
X154471714Y-158927142D01*
X154519333Y-158974761D01*
X154614571Y-159022380D01*
X154805047Y-159022380D01*
X154900285Y-158974761D01*
X154947904Y-158927142D01*
X154995523Y-158831904D01*
X154995523Y-158593809D01*
X154947904Y-158498571D01*
X154900285Y-158450952D01*
X154805047Y-158403333D01*
X154614571Y-158403333D01*
X154519333Y-158450952D01*
X154471714Y-158498571D01*
X154424095Y-158593809D01*
X155376476Y-158117619D02*
X155424095Y-158070000D01*
X155519333Y-158022380D01*
X155757428Y-158022380D01*
X155852666Y-158070000D01*
X155900285Y-158117619D01*
X155947904Y-158212857D01*
X155947904Y-158308095D01*
X155900285Y-158450952D01*
X155328857Y-159022380D01*
X155947904Y-159022380D01*
X154043142Y-170452380D02*
X153709809Y-169976190D01*
X153471714Y-170452380D02*
X153471714Y-169452380D01*
X153852666Y-169452380D01*
X153947904Y-169500000D01*
X153995523Y-169547619D01*
X154043142Y-169642857D01*
X154043142Y-169785714D01*
X153995523Y-169880952D01*
X153947904Y-169928571D01*
X153852666Y-169976190D01*
X153471714Y-169976190D01*
X154947904Y-169452380D02*
X154471714Y-169452380D01*
X154424095Y-169928571D01*
X154471714Y-169880952D01*
X154566952Y-169833333D01*
X154805047Y-169833333D01*
X154900285Y-169880952D01*
X154947904Y-169928571D01*
X154995523Y-170023809D01*
X154995523Y-170261904D01*
X154947904Y-170357142D01*
X154900285Y-170404761D01*
X154805047Y-170452380D01*
X154566952Y-170452380D01*
X154471714Y-170404761D01*
X154424095Y-170357142D01*
X155566952Y-169880952D02*
X155471714Y-169833333D01*
X155424095Y-169785714D01*
X155376476Y-169690476D01*
X155376476Y-169642857D01*
X155424095Y-169547619D01*
X155471714Y-169500000D01*
X155566952Y-169452380D01*
X155757428Y-169452380D01*
X155852666Y-169500000D01*
X155900285Y-169547619D01*
X155947904Y-169642857D01*
X155947904Y-169690476D01*
X155900285Y-169785714D01*
X155852666Y-169833333D01*
X155757428Y-169880952D01*
X155566952Y-169880952D01*
X155471714Y-169928571D01*
X155424095Y-169976190D01*
X155376476Y-170071428D01*
X155376476Y-170261904D01*
X155424095Y-170357142D01*
X155471714Y-170404761D01*
X155566952Y-170452380D01*
X155757428Y-170452380D01*
X155852666Y-170404761D01*
X155900285Y-170357142D01*
X155947904Y-170261904D01*
X155947904Y-170071428D01*
X155900285Y-169976190D01*
X155852666Y-169928571D01*
X155757428Y-169880952D01*
X118502666Y-140644761D02*
X118645523Y-140692380D01*
X118883619Y-140692380D01*
X118978857Y-140644761D01*
X119026476Y-140597142D01*
X119074095Y-140501904D01*
X119074095Y-140406666D01*
X119026476Y-140311428D01*
X118978857Y-140263809D01*
X118883619Y-140216190D01*
X118693142Y-140168571D01*
X118597904Y-140120952D01*
X118550285Y-140073333D01*
X118502666Y-139978095D01*
X118502666Y-139882857D01*
X118550285Y-139787619D01*
X118597904Y-139740000D01*
X118693142Y-139692380D01*
X118931238Y-139692380D01*
X119074095Y-139740000D01*
X119407428Y-139692380D02*
X119645523Y-140692380D01*
X119836000Y-139978095D01*
X120026476Y-140692380D01*
X120264571Y-139692380D01*
X121169333Y-140692380D02*
X120597904Y-140692380D01*
X120883619Y-140692380D02*
X120883619Y-139692380D01*
X120788380Y-139835238D01*
X120693142Y-139930476D01*
X120597904Y-139978095D01*
X86117666Y-140644761D02*
X86260523Y-140692380D01*
X86498619Y-140692380D01*
X86593857Y-140644761D01*
X86641476Y-140597142D01*
X86689095Y-140501904D01*
X86689095Y-140406666D01*
X86641476Y-140311428D01*
X86593857Y-140263809D01*
X86498619Y-140216190D01*
X86308142Y-140168571D01*
X86212904Y-140120952D01*
X86165285Y-140073333D01*
X86117666Y-139978095D01*
X86117666Y-139882857D01*
X86165285Y-139787619D01*
X86212904Y-139740000D01*
X86308142Y-139692380D01*
X86546238Y-139692380D01*
X86689095Y-139740000D01*
X87022428Y-139692380D02*
X87260523Y-140692380D01*
X87451000Y-139978095D01*
X87641476Y-140692380D01*
X87879571Y-139692380D01*
X88212904Y-139787619D02*
X88260523Y-139740000D01*
X88355761Y-139692380D01*
X88593857Y-139692380D01*
X88689095Y-139740000D01*
X88736714Y-139787619D01*
X88784333Y-139882857D01*
X88784333Y-139978095D01*
X88736714Y-140120952D01*
X88165285Y-140692380D01*
X88784333Y-140692380D01*
X107699665Y-140328760D02*
X107842522Y-140376379D01*
X108080618Y-140376379D01*
X108175856Y-140328760D01*
X108223475Y-140281141D01*
X108271094Y-140185903D01*
X108271094Y-140090665D01*
X108223475Y-139995427D01*
X108175856Y-139947808D01*
X108080618Y-139900189D01*
X107890141Y-139852570D01*
X107794903Y-139804951D01*
X107747284Y-139757332D01*
X107699665Y-139662094D01*
X107699665Y-139566856D01*
X107747284Y-139471618D01*
X107794903Y-139423999D01*
X107890141Y-139376379D01*
X108128237Y-139376379D01*
X108271094Y-139423999D01*
X108604427Y-139376379D02*
X108842522Y-140376379D01*
X109032999Y-139662094D01*
X109223475Y-140376379D01*
X109461570Y-139376379D01*
X109747284Y-139376379D02*
X110366332Y-139376379D01*
X110032999Y-139757332D01*
X110175856Y-139757332D01*
X110271094Y-139804951D01*
X110318713Y-139852570D01*
X110366332Y-139947808D01*
X110366332Y-140185903D01*
X110318713Y-140281141D01*
X110271094Y-140328760D01*
X110175856Y-140376379D01*
X109890141Y-140376379D01*
X109794903Y-140328760D01*
X109747284Y-140281141D01*
X154090761Y-153307380D02*
X153519333Y-153307380D01*
X153805047Y-153307380D02*
X153805047Y-152307380D01*
X153709809Y-152450238D01*
X153614571Y-152545476D01*
X153519333Y-152593095D01*
X154519333Y-153307380D02*
X154519333Y-152307380D01*
X154614571Y-152926428D02*
X154900285Y-153307380D01*
X154900285Y-152640714D02*
X154519333Y-153021666D01*
X155757428Y-152307380D02*
X155566952Y-152307380D01*
X155471714Y-152355000D01*
X155424095Y-152402619D01*
X155328857Y-152545476D01*
X155281238Y-152735952D01*
X155281238Y-153116904D01*
X155328857Y-153212142D01*
X155376476Y-153259761D01*
X155471714Y-153307380D01*
X155662190Y-153307380D01*
X155757428Y-153259761D01*
X155805047Y-153212142D01*
X155852666Y-153116904D01*
X155852666Y-152878809D01*
X155805047Y-152783571D01*
X155757428Y-152735952D01*
X155662190Y-152688333D01*
X155471714Y-152688333D01*
X155376476Y-152735952D01*
X155328857Y-152783571D01*
X155281238Y-152878809D01*
X96912666Y-140644761D02*
X97055523Y-140692380D01*
X97293619Y-140692380D01*
X97388857Y-140644761D01*
X97436476Y-140597142D01*
X97484095Y-140501904D01*
X97484095Y-140406666D01*
X97436476Y-140311428D01*
X97388857Y-140263809D01*
X97293619Y-140216190D01*
X97103142Y-140168571D01*
X97007904Y-140120952D01*
X96960285Y-140073333D01*
X96912666Y-139978095D01*
X96912666Y-139882857D01*
X96960285Y-139787619D01*
X97007904Y-139740000D01*
X97103142Y-139692380D01*
X97341238Y-139692380D01*
X97484095Y-139740000D01*
X97817428Y-139692380D02*
X98055523Y-140692380D01*
X98246000Y-139978095D01*
X98436476Y-140692380D01*
X98674571Y-139692380D01*
X99484095Y-140025714D02*
X99484095Y-140692380D01*
X99246000Y-139644761D02*
X99007904Y-140359047D01*
X99626952Y-140359047D01*
X86103380Y-152825238D02*
X86103380Y-153396666D01*
X86103380Y-153110952D02*
X85103380Y-153110952D01*
X85246238Y-153206190D01*
X85341476Y-153301428D01*
X85389095Y-153396666D01*
X86103380Y-152396666D02*
X85103380Y-152396666D01*
X85722428Y-152301428D02*
X86103380Y-152015714D01*
X85436714Y-152015714D02*
X85817666Y-152396666D01*
X86103380Y-151063333D02*
X86103380Y-151634761D01*
X86103380Y-151349047D02*
X85103380Y-151349047D01*
X85246238Y-151444285D01*
X85341476Y-151539523D01*
X85389095Y-151634761D01*
X96305761Y-153667380D02*
X95734333Y-153667380D01*
X96020047Y-153667380D02*
X96020047Y-152667380D01*
X95924809Y-152810238D01*
X95829571Y-152905476D01*
X95734333Y-152953095D01*
X96734333Y-153667380D02*
X96734333Y-152667380D01*
X96829571Y-153286428D02*
X97115285Y-153667380D01*
X97115285Y-153000714D02*
X96734333Y-153381666D01*
X98020047Y-152667380D02*
X97543857Y-152667380D01*
X97496238Y-153143571D01*
X97543857Y-153095952D01*
X97639095Y-153048333D01*
X97877190Y-153048333D01*
X97972428Y-153095952D01*
X98020047Y-153143571D01*
X98067666Y-153238809D01*
X98067666Y-153476904D01*
X98020047Y-153572142D01*
X97972428Y-153619761D01*
X97877190Y-153667380D01*
X97639095Y-153667380D01*
X97543857Y-153619761D01*
X97496238Y-153572142D01*
X134405761Y-156207380D02*
X133834333Y-156207380D01*
X134120047Y-156207380D02*
X134120047Y-155207380D01*
X134024809Y-155350238D01*
X133929571Y-155445476D01*
X133834333Y-155493095D01*
X134834333Y-156207380D02*
X134834333Y-155207380D01*
X134929571Y-155826428D02*
X135215285Y-156207380D01*
X135215285Y-155540714D02*
X134834333Y-155921666D01*
X135548619Y-155207380D02*
X136215285Y-155207380D01*
X135786714Y-156207380D01*
X100766714Y-166607380D02*
X100766714Y-165607380D01*
X101004809Y-165607380D01*
X101147666Y-165655000D01*
X101242904Y-165750238D01*
X101290523Y-165845476D01*
X101338142Y-166035952D01*
X101338142Y-166178809D01*
X101290523Y-166369285D01*
X101242904Y-166464523D01*
X101147666Y-166559761D01*
X101004809Y-166607380D01*
X100766714Y-166607380D01*
X101719095Y-165702619D02*
X101766714Y-165655000D01*
X101861952Y-165607380D01*
X102100047Y-165607380D01*
X102195285Y-165655000D01*
X102242904Y-165702619D01*
X102290523Y-165797857D01*
X102290523Y-165893095D01*
X102242904Y-166035952D01*
X101671476Y-166607380D01*
X102290523Y-166607380D01*
X103195285Y-165607380D02*
X102719095Y-165607380D01*
X102671476Y-166083571D01*
X102719095Y-166035952D01*
X102814333Y-165988333D01*
X103052428Y-165988333D01*
X103147666Y-166035952D01*
X103195285Y-166083571D01*
X103242904Y-166178809D01*
X103242904Y-166416904D01*
X103195285Y-166512142D01*
X103147666Y-166559761D01*
X103052428Y-166607380D01*
X102814333Y-166607380D01*
X102719095Y-166559761D01*
X102671476Y-166512142D01*
X147756714Y-151797380D02*
X147756714Y-150797380D01*
X147994809Y-150797380D01*
X148137666Y-150845000D01*
X148232904Y-150940238D01*
X148280523Y-151035476D01*
X148328142Y-151225952D01*
X148328142Y-151368809D01*
X148280523Y-151559285D01*
X148232904Y-151654523D01*
X148137666Y-151749761D01*
X147994809Y-151797380D01*
X147756714Y-151797380D01*
X148709095Y-150892619D02*
X148756714Y-150845000D01*
X148851952Y-150797380D01*
X149090047Y-150797380D01*
X149185285Y-150845000D01*
X149232904Y-150892619D01*
X149280523Y-150987857D01*
X149280523Y-151083095D01*
X149232904Y-151225952D01*
X148661476Y-151797380D01*
X149280523Y-151797380D01*
X149851952Y-151225952D02*
X149756714Y-151178333D01*
X149709095Y-151130714D01*
X149661476Y-151035476D01*
X149661476Y-150987857D01*
X149709095Y-150892619D01*
X149756714Y-150845000D01*
X149851952Y-150797380D01*
X150042428Y-150797380D01*
X150137666Y-150845000D01*
X150185285Y-150892619D01*
X150232904Y-150987857D01*
X150232904Y-151035476D01*
X150185285Y-151130714D01*
X150137666Y-151178333D01*
X150042428Y-151225952D01*
X149851952Y-151225952D01*
X149756714Y-151273571D01*
X149709095Y-151321190D01*
X149661476Y-151416428D01*
X149661476Y-151606904D01*
X149709095Y-151702142D01*
X149756714Y-151749761D01*
X149851952Y-151797380D01*
X150042428Y-151797380D01*
X150137666Y-151749761D01*
X150185285Y-151702142D01*
X150232904Y-151606904D01*
X150232904Y-151416428D01*
X150185285Y-151321190D01*
X150137666Y-151273571D01*
X150042428Y-151225952D01*
X139501714Y-169147380D02*
X139501714Y-168147380D01*
X139739809Y-168147380D01*
X139882666Y-168195000D01*
X139977904Y-168290238D01*
X140025523Y-168385476D01*
X140073142Y-168575952D01*
X140073142Y-168718809D01*
X140025523Y-168909285D01*
X139977904Y-169004523D01*
X139882666Y-169099761D01*
X139739809Y-169147380D01*
X139501714Y-169147380D01*
X140406476Y-168147380D02*
X141025523Y-168147380D01*
X140692190Y-168528333D01*
X140835047Y-168528333D01*
X140930285Y-168575952D01*
X140977904Y-168623571D01*
X141025523Y-168718809D01*
X141025523Y-168956904D01*
X140977904Y-169052142D01*
X140930285Y-169099761D01*
X140835047Y-169147380D01*
X140549333Y-169147380D01*
X140454095Y-169099761D01*
X140406476Y-169052142D01*
X141358857Y-168147380D02*
X141977904Y-168147380D01*
X141644571Y-168528333D01*
X141787428Y-168528333D01*
X141882666Y-168575952D01*
X141930285Y-168623571D01*
X141977904Y-168718809D01*
X141977904Y-168956904D01*
X141930285Y-169052142D01*
X141882666Y-169099761D01*
X141787428Y-169147380D01*
X141501714Y-169147380D01*
X141406476Y-169099761D01*
X141358857Y-169052142D01*
X96305761Y-170812380D02*
X95734333Y-170812380D01*
X96020047Y-170812380D02*
X96020047Y-169812380D01*
X95924809Y-169955238D01*
X95829571Y-170050476D01*
X95734333Y-170098095D01*
X96734333Y-170812380D02*
X96734333Y-169812380D01*
X96829571Y-170431428D02*
X97115285Y-170812380D01*
X97115285Y-170145714D02*
X96734333Y-170526666D01*
X97496238Y-169907619D02*
X97543857Y-169860000D01*
X97639095Y-169812380D01*
X97877190Y-169812380D01*
X97972428Y-169860000D01*
X98020047Y-169907619D01*
X98067666Y-170002857D01*
X98067666Y-170098095D01*
X98020047Y-170240952D01*
X97448619Y-170812380D01*
X98067666Y-170812380D01*
X147756714Y-168942380D02*
X147756714Y-167942380D01*
X147994809Y-167942380D01*
X148137666Y-167990000D01*
X148232904Y-168085238D01*
X148280523Y-168180476D01*
X148328142Y-168370952D01*
X148328142Y-168513809D01*
X148280523Y-168704285D01*
X148232904Y-168799523D01*
X148137666Y-168894761D01*
X147994809Y-168942380D01*
X147756714Y-168942380D01*
X148661476Y-167942380D02*
X149280523Y-167942380D01*
X148947190Y-168323333D01*
X149090047Y-168323333D01*
X149185285Y-168370952D01*
X149232904Y-168418571D01*
X149280523Y-168513809D01*
X149280523Y-168751904D01*
X149232904Y-168847142D01*
X149185285Y-168894761D01*
X149090047Y-168942380D01*
X148804333Y-168942380D01*
X148709095Y-168894761D01*
X148661476Y-168847142D01*
X149899571Y-167942380D02*
X149994809Y-167942380D01*
X150090047Y-167990000D01*
X150137666Y-168037619D01*
X150185285Y-168132857D01*
X150232904Y-168323333D01*
X150232904Y-168561428D01*
X150185285Y-168751904D01*
X150137666Y-168847142D01*
X150090047Y-168894761D01*
X149994809Y-168942380D01*
X149899571Y-168942380D01*
X149804333Y-168894761D01*
X149756714Y-168847142D01*
X149709095Y-168751904D01*
X149661476Y-168561428D01*
X149661476Y-168323333D01*
X149709095Y-168132857D01*
X149756714Y-168037619D01*
X149804333Y-167990000D01*
X149899571Y-167942380D01*
X139501714Y-174862380D02*
X139501714Y-173862380D01*
X139739809Y-173862380D01*
X139882666Y-173910000D01*
X139977904Y-174005238D01*
X140025523Y-174100476D01*
X140073142Y-174290952D01*
X140073142Y-174433809D01*
X140025523Y-174624285D01*
X139977904Y-174719523D01*
X139882666Y-174814761D01*
X139739809Y-174862380D01*
X139501714Y-174862380D01*
X140406476Y-173862380D02*
X141025523Y-173862380D01*
X140692190Y-174243333D01*
X140835047Y-174243333D01*
X140930285Y-174290952D01*
X140977904Y-174338571D01*
X141025523Y-174433809D01*
X141025523Y-174671904D01*
X140977904Y-174767142D01*
X140930285Y-174814761D01*
X140835047Y-174862380D01*
X140549333Y-174862380D01*
X140454095Y-174814761D01*
X140406476Y-174767142D01*
X141977904Y-174862380D02*
X141406476Y-174862380D01*
X141692190Y-174862380D02*
X141692190Y-173862380D01*
X141596952Y-174005238D01*
X141501714Y-174100476D01*
X141406476Y-174148095D01*
X125933142Y-140967380D02*
X125599809Y-140491190D01*
X125361714Y-140967380D02*
X125361714Y-139967380D01*
X125742666Y-139967380D01*
X125837904Y-140015000D01*
X125885523Y-140062619D01*
X125933142Y-140157857D01*
X125933142Y-140300714D01*
X125885523Y-140395952D01*
X125837904Y-140443571D01*
X125742666Y-140491190D01*
X125361714Y-140491190D01*
X126837904Y-139967380D02*
X126361714Y-139967380D01*
X126314095Y-140443571D01*
X126361714Y-140395952D01*
X126456952Y-140348333D01*
X126695047Y-140348333D01*
X126790285Y-140395952D01*
X126837904Y-140443571D01*
X126885523Y-140538809D01*
X126885523Y-140776904D01*
X126837904Y-140872142D01*
X126790285Y-140919761D01*
X126695047Y-140967380D01*
X126456952Y-140967380D01*
X126361714Y-140919761D01*
X126314095Y-140872142D01*
X127218857Y-139967380D02*
X127837904Y-139967380D01*
X127504571Y-140348333D01*
X127647428Y-140348333D01*
X127742666Y-140395952D01*
X127790285Y-140443571D01*
X127837904Y-140538809D01*
X127837904Y-140776904D01*
X127790285Y-140872142D01*
X127742666Y-140919761D01*
X127647428Y-140967380D01*
X127361714Y-140967380D01*
X127266476Y-140919761D01*
X127218857Y-140872142D01*
X147756714Y-157512380D02*
X147756714Y-156512380D01*
X147994809Y-156512380D01*
X148137666Y-156560000D01*
X148232904Y-156655238D01*
X148280523Y-156750476D01*
X148328142Y-156940952D01*
X148328142Y-157083809D01*
X148280523Y-157274285D01*
X148232904Y-157369523D01*
X148137666Y-157464761D01*
X147994809Y-157512380D01*
X147756714Y-157512380D01*
X148661476Y-156512380D02*
X149280523Y-156512380D01*
X148947190Y-156893333D01*
X149090047Y-156893333D01*
X149185285Y-156940952D01*
X149232904Y-156988571D01*
X149280523Y-157083809D01*
X149280523Y-157321904D01*
X149232904Y-157417142D01*
X149185285Y-157464761D01*
X149090047Y-157512380D01*
X148804333Y-157512380D01*
X148709095Y-157464761D01*
X148661476Y-157417142D01*
X150137666Y-156845714D02*
X150137666Y-157512380D01*
X149899571Y-156464761D02*
X149661476Y-157179047D01*
X150280523Y-157179047D01*
X139501714Y-163432380D02*
X139501714Y-162432380D01*
X139739809Y-162432380D01*
X139882666Y-162480000D01*
X139977904Y-162575238D01*
X140025523Y-162670476D01*
X140073142Y-162860952D01*
X140073142Y-163003809D01*
X140025523Y-163194285D01*
X139977904Y-163289523D01*
X139882666Y-163384761D01*
X139739809Y-163432380D01*
X139501714Y-163432380D01*
X140406476Y-162432380D02*
X141025523Y-162432380D01*
X140692190Y-162813333D01*
X140835047Y-162813333D01*
X140930285Y-162860952D01*
X140977904Y-162908571D01*
X141025523Y-163003809D01*
X141025523Y-163241904D01*
X140977904Y-163337142D01*
X140930285Y-163384761D01*
X140835047Y-163432380D01*
X140549333Y-163432380D01*
X140454095Y-163384761D01*
X140406476Y-163337142D01*
X141930285Y-162432380D02*
X141454095Y-162432380D01*
X141406476Y-162908571D01*
X141454095Y-162860952D01*
X141549333Y-162813333D01*
X141787428Y-162813333D01*
X141882666Y-162860952D01*
X141930285Y-162908571D01*
X141977904Y-163003809D01*
X141977904Y-163241904D01*
X141930285Y-163337142D01*
X141882666Y-163384761D01*
X141787428Y-163432380D01*
X141549333Y-163432380D01*
X141454095Y-163384761D01*
X141406476Y-163337142D01*
X154043142Y-164737380D02*
X153709809Y-164261190D01*
X153471714Y-164737380D02*
X153471714Y-163737380D01*
X153852666Y-163737380D01*
X153947904Y-163785000D01*
X153995523Y-163832619D01*
X154043142Y-163927857D01*
X154043142Y-164070714D01*
X153995523Y-164165952D01*
X153947904Y-164213571D01*
X153852666Y-164261190D01*
X153471714Y-164261190D01*
X154900285Y-163737380D02*
X154709809Y-163737380D01*
X154614571Y-163785000D01*
X154566952Y-163832619D01*
X154471714Y-163975476D01*
X154424095Y-164165952D01*
X154424095Y-164546904D01*
X154471714Y-164642142D01*
X154519333Y-164689761D01*
X154614571Y-164737380D01*
X154805047Y-164737380D01*
X154900285Y-164689761D01*
X154947904Y-164642142D01*
X154995523Y-164546904D01*
X154995523Y-164308809D01*
X154947904Y-164213571D01*
X154900285Y-164165952D01*
X154805047Y-164118333D01*
X154614571Y-164118333D01*
X154519333Y-164165952D01*
X154471714Y-164213571D01*
X154424095Y-164308809D01*
X155614571Y-163737380D02*
X155709809Y-163737380D01*
X155805047Y-163785000D01*
X155852666Y-163832619D01*
X155900285Y-163927857D01*
X155947904Y-164118333D01*
X155947904Y-164356428D01*
X155900285Y-164546904D01*
X155852666Y-164642142D01*
X155805047Y-164689761D01*
X155709809Y-164737380D01*
X155614571Y-164737380D01*
X155519333Y-164689761D01*
X155471714Y-164642142D01*
X155424095Y-164546904D01*
X155376476Y-164356428D01*
X155376476Y-164118333D01*
X155424095Y-163927857D01*
X155471714Y-163832619D01*
X155519333Y-163785000D01*
X155614571Y-163737380D01*
X134358142Y-167637380D02*
X134024809Y-167161190D01*
X133786714Y-167637380D02*
X133786714Y-166637380D01*
X134167666Y-166637380D01*
X134262904Y-166685000D01*
X134310523Y-166732619D01*
X134358142Y-166827857D01*
X134358142Y-166970714D01*
X134310523Y-167065952D01*
X134262904Y-167113571D01*
X134167666Y-167161190D01*
X133786714Y-167161190D01*
X135215285Y-166637380D02*
X135024809Y-166637380D01*
X134929571Y-166685000D01*
X134881952Y-166732619D01*
X134786714Y-166875476D01*
X134739095Y-167065952D01*
X134739095Y-167446904D01*
X134786714Y-167542142D01*
X134834333Y-167589761D01*
X134929571Y-167637380D01*
X135120047Y-167637380D01*
X135215285Y-167589761D01*
X135262904Y-167542142D01*
X135310523Y-167446904D01*
X135310523Y-167208809D01*
X135262904Y-167113571D01*
X135215285Y-167065952D01*
X135120047Y-167018333D01*
X134929571Y-167018333D01*
X134834333Y-167065952D01*
X134786714Y-167113571D01*
X134739095Y-167208809D01*
X136262904Y-167637380D02*
X135691476Y-167637380D01*
X135977190Y-167637380D02*
X135977190Y-166637380D01*
X135881952Y-166780238D01*
X135786714Y-166875476D01*
X135691476Y-166923095D01*
X100766714Y-155177380D02*
X100766714Y-154177380D01*
X101004809Y-154177380D01*
X101147666Y-154225000D01*
X101242904Y-154320238D01*
X101290523Y-154415476D01*
X101338142Y-154605952D01*
X101338142Y-154748809D01*
X101290523Y-154939285D01*
X101242904Y-155034523D01*
X101147666Y-155129761D01*
X101004809Y-155177380D01*
X100766714Y-155177380D01*
X101719095Y-154272619D02*
X101766714Y-154225000D01*
X101861952Y-154177380D01*
X102100047Y-154177380D01*
X102195285Y-154225000D01*
X102242904Y-154272619D01*
X102290523Y-154367857D01*
X102290523Y-154463095D01*
X102242904Y-154605952D01*
X101671476Y-155177380D01*
X102290523Y-155177380D01*
X102623857Y-154177380D02*
X103290523Y-154177380D01*
X102861952Y-155177380D01*
X134358142Y-173352380D02*
X134024809Y-172876190D01*
X133786714Y-173352380D02*
X133786714Y-172352380D01*
X134167666Y-172352380D01*
X134262904Y-172400000D01*
X134310523Y-172447619D01*
X134358142Y-172542857D01*
X134358142Y-172685714D01*
X134310523Y-172780952D01*
X134262904Y-172828571D01*
X134167666Y-172876190D01*
X133786714Y-172876190D01*
X135262904Y-172352380D02*
X134786714Y-172352380D01*
X134739095Y-172828571D01*
X134786714Y-172780952D01*
X134881952Y-172733333D01*
X135120047Y-172733333D01*
X135215285Y-172780952D01*
X135262904Y-172828571D01*
X135310523Y-172923809D01*
X135310523Y-173161904D01*
X135262904Y-173257142D01*
X135215285Y-173304761D01*
X135120047Y-173352380D01*
X134881952Y-173352380D01*
X134786714Y-173304761D01*
X134739095Y-173257142D01*
X135786714Y-173352380D02*
X135977190Y-173352380D01*
X136072428Y-173304761D01*
X136120047Y-173257142D01*
X136215285Y-173114285D01*
X136262904Y-172923809D01*
X136262904Y-172542857D01*
X136215285Y-172447619D01*
X136167666Y-172400000D01*
X136072428Y-172352380D01*
X135881952Y-172352380D01*
X135786714Y-172400000D01*
X135739095Y-172447619D01*
X135691476Y-172542857D01*
X135691476Y-172780952D01*
X135739095Y-172876190D01*
X135786714Y-172923809D01*
X135881952Y-172971428D01*
X136072428Y-172971428D01*
X136167666Y-172923809D01*
X136215285Y-172876190D01*
X136262904Y-172780952D01*
X96305761Y-159382380D02*
X95734333Y-159382380D01*
X96020047Y-159382380D02*
X96020047Y-158382380D01*
X95924809Y-158525238D01*
X95829571Y-158620476D01*
X95734333Y-158668095D01*
X96734333Y-159382380D02*
X96734333Y-158382380D01*
X96829571Y-159001428D02*
X97115285Y-159382380D01*
X97115285Y-158715714D02*
X96734333Y-159096666D01*
X97972428Y-158715714D02*
X97972428Y-159382380D01*
X97734333Y-158334761D02*
X97496238Y-159049047D01*
X98115285Y-159049047D01*
M02*
