G04 #@! TF.GenerationSoftware,KiCad,Pcbnew,(5.1.4)-1*
G04 #@! TF.CreationDate,2020-07-08T19:25:42+02:00*
G04 #@! TF.ProjectId,SBIO3,5342494f-332e-46b6-9963-61645f706362,rev?*
G04 #@! TF.SameCoordinates,Original*
G04 #@! TF.FileFunction,Paste,Top*
G04 #@! TF.FilePolarity,Positive*
%FSLAX46Y46*%
G04 Gerber Fmt 4.6, Leading zero omitted, Abs format (unit mm)*
G04 Created by KiCad (PCBNEW (5.1.4)-1) date 2020-07-08 19:25:42*
%MOMM*%
%LPD*%
G04 APERTURE LIST*
%ADD10R,1.500000X0.600000*%
%ADD11R,0.900000X1.200000*%
%ADD12R,1.200000X0.900000*%
G04 APERTURE END LIST*
D10*
X117950000Y-170180000D03*
X117950000Y-168910000D03*
X117950000Y-167640000D03*
X117950000Y-166370000D03*
X117950000Y-165100000D03*
X117950000Y-163830000D03*
X117950000Y-162560000D03*
X117950000Y-161290000D03*
X123350000Y-161290000D03*
X123350000Y-162560000D03*
X123350000Y-163830000D03*
X123350000Y-165100000D03*
X123350000Y-166370000D03*
X123350000Y-167640000D03*
X123350000Y-168910000D03*
X123350000Y-170180000D03*
X89855000Y-170180000D03*
X89855000Y-168910000D03*
X89855000Y-167640000D03*
X89855000Y-166370000D03*
X89855000Y-165100000D03*
X89855000Y-163830000D03*
X89855000Y-162560000D03*
X89855000Y-161290000D03*
X84455000Y-161290000D03*
X84455000Y-162560000D03*
X84455000Y-163830000D03*
X84455000Y-165100000D03*
X84455000Y-166370000D03*
X84455000Y-167640000D03*
X84455000Y-168910000D03*
X84455000Y-170180000D03*
D11*
X78740000Y-162220000D03*
X78740000Y-160020000D03*
D12*
X136990000Y-154940000D03*
X134790000Y-154940000D03*
X81745000Y-168910000D03*
X79545000Y-168910000D03*
X98890000Y-158115000D03*
X96690000Y-158115000D03*
D11*
X76835000Y-160020000D03*
X76835000Y-162220000D03*
X80645000Y-162220000D03*
X80645000Y-160020000D03*
D12*
X96690000Y-169545000D03*
X98890000Y-169545000D03*
X154475000Y-154940000D03*
X156675000Y-154940000D03*
X156675000Y-166370000D03*
X154475000Y-166370000D03*
X156675000Y-149225000D03*
X154475000Y-149225000D03*
D11*
X85090000Y-146050000D03*
X85090000Y-148250000D03*
D12*
X98890000Y-146685000D03*
X96690000Y-146685000D03*
X136990000Y-149225000D03*
X134790000Y-149225000D03*
X96690000Y-163830000D03*
X98890000Y-163830000D03*
X128565000Y-133985000D03*
X126365000Y-133985000D03*
X156675000Y-160655000D03*
X154475000Y-160655000D03*
X134790000Y-160655000D03*
X136990000Y-160655000D03*
X136990000Y-166370000D03*
X134790000Y-166370000D03*
X96690000Y-152400000D03*
X98890000Y-152400000D03*
M02*
