G04 #@! TF.GenerationSoftware,KiCad,Pcbnew,(5.1.4)-1*
G04 #@! TF.CreationDate,2020-09-12T21:09:54+02:00*
G04 #@! TF.ProjectId,Sensorplatine,53656e73-6f72-4706-9c61-74696e652e6b,rev?*
G04 #@! TF.SameCoordinates,Original*
G04 #@! TF.FileFunction,Copper,L1,Top*
G04 #@! TF.FilePolarity,Positive*
%FSLAX46Y46*%
G04 Gerber Fmt 4.6, Leading zero omitted, Abs format (unit mm)*
G04 Created by KiCad (PCBNEW (5.1.4)-1) date 2020-09-12 21:09:54*
%MOMM*%
%LPD*%
G04 APERTURE LIST*
%ADD10O,1.700000X1.700000*%
%ADD11R,1.700000X1.700000*%
%ADD12C,0.100000*%
%ADD13C,0.950000*%
%ADD14C,1.150000*%
%ADD15C,0.500000*%
%ADD16C,0.300000*%
%ADD17C,1.500000*%
%ADD18C,0.400000*%
%ADD19C,3.000000*%
%ADD20C,0.800000*%
%ADD21C,0.250000*%
%ADD22C,0.254000*%
G04 APERTURE END LIST*
D10*
X180340000Y-98425000D03*
X182880000Y-98425000D03*
X180340000Y-95885000D03*
X182880000Y-95885000D03*
X180340000Y-93345000D03*
D11*
X182880000Y-93345000D03*
D12*
G36*
X176790779Y-86471144D02*
G01*
X176813834Y-86474563D01*
X176836443Y-86480227D01*
X176858387Y-86488079D01*
X176879457Y-86498044D01*
X176899448Y-86510026D01*
X176918168Y-86523910D01*
X176935438Y-86539562D01*
X176951090Y-86556832D01*
X176964974Y-86575552D01*
X176976956Y-86595543D01*
X176986921Y-86616613D01*
X176994773Y-86638557D01*
X177000437Y-86661166D01*
X177003856Y-86684221D01*
X177005000Y-86707500D01*
X177005000Y-87282500D01*
X177003856Y-87305779D01*
X177000437Y-87328834D01*
X176994773Y-87351443D01*
X176986921Y-87373387D01*
X176976956Y-87394457D01*
X176964974Y-87414448D01*
X176951090Y-87433168D01*
X176935438Y-87450438D01*
X176918168Y-87466090D01*
X176899448Y-87479974D01*
X176879457Y-87491956D01*
X176858387Y-87501921D01*
X176836443Y-87509773D01*
X176813834Y-87515437D01*
X176790779Y-87518856D01*
X176767500Y-87520000D01*
X176292500Y-87520000D01*
X176269221Y-87518856D01*
X176246166Y-87515437D01*
X176223557Y-87509773D01*
X176201613Y-87501921D01*
X176180543Y-87491956D01*
X176160552Y-87479974D01*
X176141832Y-87466090D01*
X176124562Y-87450438D01*
X176108910Y-87433168D01*
X176095026Y-87414448D01*
X176083044Y-87394457D01*
X176073079Y-87373387D01*
X176065227Y-87351443D01*
X176059563Y-87328834D01*
X176056144Y-87305779D01*
X176055000Y-87282500D01*
X176055000Y-86707500D01*
X176056144Y-86684221D01*
X176059563Y-86661166D01*
X176065227Y-86638557D01*
X176073079Y-86616613D01*
X176083044Y-86595543D01*
X176095026Y-86575552D01*
X176108910Y-86556832D01*
X176124562Y-86539562D01*
X176141832Y-86523910D01*
X176160552Y-86510026D01*
X176180543Y-86498044D01*
X176201613Y-86488079D01*
X176223557Y-86480227D01*
X176246166Y-86474563D01*
X176269221Y-86471144D01*
X176292500Y-86470000D01*
X176767500Y-86470000D01*
X176790779Y-86471144D01*
X176790779Y-86471144D01*
G37*
D13*
X176530000Y-86995000D03*
D12*
G36*
X176790779Y-88221144D02*
G01*
X176813834Y-88224563D01*
X176836443Y-88230227D01*
X176858387Y-88238079D01*
X176879457Y-88248044D01*
X176899448Y-88260026D01*
X176918168Y-88273910D01*
X176935438Y-88289562D01*
X176951090Y-88306832D01*
X176964974Y-88325552D01*
X176976956Y-88345543D01*
X176986921Y-88366613D01*
X176994773Y-88388557D01*
X177000437Y-88411166D01*
X177003856Y-88434221D01*
X177005000Y-88457500D01*
X177005000Y-89032500D01*
X177003856Y-89055779D01*
X177000437Y-89078834D01*
X176994773Y-89101443D01*
X176986921Y-89123387D01*
X176976956Y-89144457D01*
X176964974Y-89164448D01*
X176951090Y-89183168D01*
X176935438Y-89200438D01*
X176918168Y-89216090D01*
X176899448Y-89229974D01*
X176879457Y-89241956D01*
X176858387Y-89251921D01*
X176836443Y-89259773D01*
X176813834Y-89265437D01*
X176790779Y-89268856D01*
X176767500Y-89270000D01*
X176292500Y-89270000D01*
X176269221Y-89268856D01*
X176246166Y-89265437D01*
X176223557Y-89259773D01*
X176201613Y-89251921D01*
X176180543Y-89241956D01*
X176160552Y-89229974D01*
X176141832Y-89216090D01*
X176124562Y-89200438D01*
X176108910Y-89183168D01*
X176095026Y-89164448D01*
X176083044Y-89144457D01*
X176073079Y-89123387D01*
X176065227Y-89101443D01*
X176059563Y-89078834D01*
X176056144Y-89055779D01*
X176055000Y-89032500D01*
X176055000Y-88457500D01*
X176056144Y-88434221D01*
X176059563Y-88411166D01*
X176065227Y-88388557D01*
X176073079Y-88366613D01*
X176083044Y-88345543D01*
X176095026Y-88325552D01*
X176108910Y-88306832D01*
X176124562Y-88289562D01*
X176141832Y-88273910D01*
X176160552Y-88260026D01*
X176180543Y-88248044D01*
X176201613Y-88238079D01*
X176223557Y-88230227D01*
X176246166Y-88224563D01*
X176269221Y-88221144D01*
X176292500Y-88220000D01*
X176767500Y-88220000D01*
X176790779Y-88221144D01*
X176790779Y-88221144D01*
G37*
D13*
X176530000Y-88745000D03*
D12*
G36*
X164304505Y-86421204D02*
G01*
X164328773Y-86424804D01*
X164352572Y-86430765D01*
X164375671Y-86439030D01*
X164397850Y-86449520D01*
X164418893Y-86462132D01*
X164438599Y-86476747D01*
X164456777Y-86493223D01*
X164473253Y-86511401D01*
X164487868Y-86531107D01*
X164500480Y-86552150D01*
X164510970Y-86574329D01*
X164519235Y-86597428D01*
X164525196Y-86621227D01*
X164528796Y-86645495D01*
X164530000Y-86669999D01*
X164530000Y-87320001D01*
X164528796Y-87344505D01*
X164525196Y-87368773D01*
X164519235Y-87392572D01*
X164510970Y-87415671D01*
X164500480Y-87437850D01*
X164487868Y-87458893D01*
X164473253Y-87478599D01*
X164456777Y-87496777D01*
X164438599Y-87513253D01*
X164418893Y-87527868D01*
X164397850Y-87540480D01*
X164375671Y-87550970D01*
X164352572Y-87559235D01*
X164328773Y-87565196D01*
X164304505Y-87568796D01*
X164280001Y-87570000D01*
X163379999Y-87570000D01*
X163355495Y-87568796D01*
X163331227Y-87565196D01*
X163307428Y-87559235D01*
X163284329Y-87550970D01*
X163262150Y-87540480D01*
X163241107Y-87527868D01*
X163221401Y-87513253D01*
X163203223Y-87496777D01*
X163186747Y-87478599D01*
X163172132Y-87458893D01*
X163159520Y-87437850D01*
X163149030Y-87415671D01*
X163140765Y-87392572D01*
X163134804Y-87368773D01*
X163131204Y-87344505D01*
X163130000Y-87320001D01*
X163130000Y-86669999D01*
X163131204Y-86645495D01*
X163134804Y-86621227D01*
X163140765Y-86597428D01*
X163149030Y-86574329D01*
X163159520Y-86552150D01*
X163172132Y-86531107D01*
X163186747Y-86511401D01*
X163203223Y-86493223D01*
X163221401Y-86476747D01*
X163241107Y-86462132D01*
X163262150Y-86449520D01*
X163284329Y-86439030D01*
X163307428Y-86430765D01*
X163331227Y-86424804D01*
X163355495Y-86421204D01*
X163379999Y-86420000D01*
X164280001Y-86420000D01*
X164304505Y-86421204D01*
X164304505Y-86421204D01*
G37*
D14*
X163830000Y-86995000D03*
D12*
G36*
X164304505Y-88471204D02*
G01*
X164328773Y-88474804D01*
X164352572Y-88480765D01*
X164375671Y-88489030D01*
X164397850Y-88499520D01*
X164418893Y-88512132D01*
X164438599Y-88526747D01*
X164456777Y-88543223D01*
X164473253Y-88561401D01*
X164487868Y-88581107D01*
X164500480Y-88602150D01*
X164510970Y-88624329D01*
X164519235Y-88647428D01*
X164525196Y-88671227D01*
X164528796Y-88695495D01*
X164530000Y-88719999D01*
X164530000Y-89370001D01*
X164528796Y-89394505D01*
X164525196Y-89418773D01*
X164519235Y-89442572D01*
X164510970Y-89465671D01*
X164500480Y-89487850D01*
X164487868Y-89508893D01*
X164473253Y-89528599D01*
X164456777Y-89546777D01*
X164438599Y-89563253D01*
X164418893Y-89577868D01*
X164397850Y-89590480D01*
X164375671Y-89600970D01*
X164352572Y-89609235D01*
X164328773Y-89615196D01*
X164304505Y-89618796D01*
X164280001Y-89620000D01*
X163379999Y-89620000D01*
X163355495Y-89618796D01*
X163331227Y-89615196D01*
X163307428Y-89609235D01*
X163284329Y-89600970D01*
X163262150Y-89590480D01*
X163241107Y-89577868D01*
X163221401Y-89563253D01*
X163203223Y-89546777D01*
X163186747Y-89528599D01*
X163172132Y-89508893D01*
X163159520Y-89487850D01*
X163149030Y-89465671D01*
X163140765Y-89442572D01*
X163134804Y-89418773D01*
X163131204Y-89394505D01*
X163130000Y-89370001D01*
X163130000Y-88719999D01*
X163131204Y-88695495D01*
X163134804Y-88671227D01*
X163140765Y-88647428D01*
X163149030Y-88624329D01*
X163159520Y-88602150D01*
X163172132Y-88581107D01*
X163186747Y-88561401D01*
X163203223Y-88543223D01*
X163221401Y-88526747D01*
X163241107Y-88512132D01*
X163262150Y-88499520D01*
X163284329Y-88489030D01*
X163307428Y-88480765D01*
X163331227Y-88474804D01*
X163355495Y-88471204D01*
X163379999Y-88470000D01*
X164280001Y-88470000D01*
X164304505Y-88471204D01*
X164304505Y-88471204D01*
G37*
D14*
X163830000Y-89045000D03*
D12*
G36*
X168345779Y-87791144D02*
G01*
X168368834Y-87794563D01*
X168391443Y-87800227D01*
X168413387Y-87808079D01*
X168434457Y-87818044D01*
X168454448Y-87830026D01*
X168473168Y-87843910D01*
X168490438Y-87859562D01*
X168506090Y-87876832D01*
X168519974Y-87895552D01*
X168531956Y-87915543D01*
X168541921Y-87936613D01*
X168549773Y-87958557D01*
X168555437Y-87981166D01*
X168558856Y-88004221D01*
X168560000Y-88027500D01*
X168560000Y-88502500D01*
X168558856Y-88525779D01*
X168555437Y-88548834D01*
X168549773Y-88571443D01*
X168541921Y-88593387D01*
X168531956Y-88614457D01*
X168519974Y-88634448D01*
X168506090Y-88653168D01*
X168490438Y-88670438D01*
X168473168Y-88686090D01*
X168454448Y-88699974D01*
X168434457Y-88711956D01*
X168413387Y-88721921D01*
X168391443Y-88729773D01*
X168368834Y-88735437D01*
X168345779Y-88738856D01*
X168322500Y-88740000D01*
X167747500Y-88740000D01*
X167724221Y-88738856D01*
X167701166Y-88735437D01*
X167678557Y-88729773D01*
X167656613Y-88721921D01*
X167635543Y-88711956D01*
X167615552Y-88699974D01*
X167596832Y-88686090D01*
X167579562Y-88670438D01*
X167563910Y-88653168D01*
X167550026Y-88634448D01*
X167538044Y-88614457D01*
X167528079Y-88593387D01*
X167520227Y-88571443D01*
X167514563Y-88548834D01*
X167511144Y-88525779D01*
X167510000Y-88502500D01*
X167510000Y-88027500D01*
X167511144Y-88004221D01*
X167514563Y-87981166D01*
X167520227Y-87958557D01*
X167528079Y-87936613D01*
X167538044Y-87915543D01*
X167550026Y-87895552D01*
X167563910Y-87876832D01*
X167579562Y-87859562D01*
X167596832Y-87843910D01*
X167615552Y-87830026D01*
X167635543Y-87818044D01*
X167656613Y-87808079D01*
X167678557Y-87800227D01*
X167701166Y-87794563D01*
X167724221Y-87791144D01*
X167747500Y-87790000D01*
X168322500Y-87790000D01*
X168345779Y-87791144D01*
X168345779Y-87791144D01*
G37*
D13*
X168035000Y-88265000D03*
D12*
G36*
X170095779Y-87791144D02*
G01*
X170118834Y-87794563D01*
X170141443Y-87800227D01*
X170163387Y-87808079D01*
X170184457Y-87818044D01*
X170204448Y-87830026D01*
X170223168Y-87843910D01*
X170240438Y-87859562D01*
X170256090Y-87876832D01*
X170269974Y-87895552D01*
X170281956Y-87915543D01*
X170291921Y-87936613D01*
X170299773Y-87958557D01*
X170305437Y-87981166D01*
X170308856Y-88004221D01*
X170310000Y-88027500D01*
X170310000Y-88502500D01*
X170308856Y-88525779D01*
X170305437Y-88548834D01*
X170299773Y-88571443D01*
X170291921Y-88593387D01*
X170281956Y-88614457D01*
X170269974Y-88634448D01*
X170256090Y-88653168D01*
X170240438Y-88670438D01*
X170223168Y-88686090D01*
X170204448Y-88699974D01*
X170184457Y-88711956D01*
X170163387Y-88721921D01*
X170141443Y-88729773D01*
X170118834Y-88735437D01*
X170095779Y-88738856D01*
X170072500Y-88740000D01*
X169497500Y-88740000D01*
X169474221Y-88738856D01*
X169451166Y-88735437D01*
X169428557Y-88729773D01*
X169406613Y-88721921D01*
X169385543Y-88711956D01*
X169365552Y-88699974D01*
X169346832Y-88686090D01*
X169329562Y-88670438D01*
X169313910Y-88653168D01*
X169300026Y-88634448D01*
X169288044Y-88614457D01*
X169278079Y-88593387D01*
X169270227Y-88571443D01*
X169264563Y-88548834D01*
X169261144Y-88525779D01*
X169260000Y-88502500D01*
X169260000Y-88027500D01*
X169261144Y-88004221D01*
X169264563Y-87981166D01*
X169270227Y-87958557D01*
X169278079Y-87936613D01*
X169288044Y-87915543D01*
X169300026Y-87895552D01*
X169313910Y-87876832D01*
X169329562Y-87859562D01*
X169346832Y-87843910D01*
X169365552Y-87830026D01*
X169385543Y-87818044D01*
X169406613Y-87808079D01*
X169428557Y-87800227D01*
X169451166Y-87794563D01*
X169474221Y-87791144D01*
X169497500Y-87790000D01*
X170072500Y-87790000D01*
X170095779Y-87791144D01*
X170095779Y-87791144D01*
G37*
D13*
X169785000Y-88265000D03*
D12*
G36*
X174300779Y-99856144D02*
G01*
X174323834Y-99859563D01*
X174346443Y-99865227D01*
X174368387Y-99873079D01*
X174389457Y-99883044D01*
X174409448Y-99895026D01*
X174428168Y-99908910D01*
X174445438Y-99924562D01*
X174461090Y-99941832D01*
X174474974Y-99960552D01*
X174486956Y-99980543D01*
X174496921Y-100001613D01*
X174504773Y-100023557D01*
X174510437Y-100046166D01*
X174513856Y-100069221D01*
X174515000Y-100092500D01*
X174515000Y-100567500D01*
X174513856Y-100590779D01*
X174510437Y-100613834D01*
X174504773Y-100636443D01*
X174496921Y-100658387D01*
X174486956Y-100679457D01*
X174474974Y-100699448D01*
X174461090Y-100718168D01*
X174445438Y-100735438D01*
X174428168Y-100751090D01*
X174409448Y-100764974D01*
X174389457Y-100776956D01*
X174368387Y-100786921D01*
X174346443Y-100794773D01*
X174323834Y-100800437D01*
X174300779Y-100803856D01*
X174277500Y-100805000D01*
X173702500Y-100805000D01*
X173679221Y-100803856D01*
X173656166Y-100800437D01*
X173633557Y-100794773D01*
X173611613Y-100786921D01*
X173590543Y-100776956D01*
X173570552Y-100764974D01*
X173551832Y-100751090D01*
X173534562Y-100735438D01*
X173518910Y-100718168D01*
X173505026Y-100699448D01*
X173493044Y-100679457D01*
X173483079Y-100658387D01*
X173475227Y-100636443D01*
X173469563Y-100613834D01*
X173466144Y-100590779D01*
X173465000Y-100567500D01*
X173465000Y-100092500D01*
X173466144Y-100069221D01*
X173469563Y-100046166D01*
X173475227Y-100023557D01*
X173483079Y-100001613D01*
X173493044Y-99980543D01*
X173505026Y-99960552D01*
X173518910Y-99941832D01*
X173534562Y-99924562D01*
X173551832Y-99908910D01*
X173570552Y-99895026D01*
X173590543Y-99883044D01*
X173611613Y-99873079D01*
X173633557Y-99865227D01*
X173656166Y-99859563D01*
X173679221Y-99856144D01*
X173702500Y-99855000D01*
X174277500Y-99855000D01*
X174300779Y-99856144D01*
X174300779Y-99856144D01*
G37*
D13*
X173990000Y-100330000D03*
D12*
G36*
X176050779Y-99856144D02*
G01*
X176073834Y-99859563D01*
X176096443Y-99865227D01*
X176118387Y-99873079D01*
X176139457Y-99883044D01*
X176159448Y-99895026D01*
X176178168Y-99908910D01*
X176195438Y-99924562D01*
X176211090Y-99941832D01*
X176224974Y-99960552D01*
X176236956Y-99980543D01*
X176246921Y-100001613D01*
X176254773Y-100023557D01*
X176260437Y-100046166D01*
X176263856Y-100069221D01*
X176265000Y-100092500D01*
X176265000Y-100567500D01*
X176263856Y-100590779D01*
X176260437Y-100613834D01*
X176254773Y-100636443D01*
X176246921Y-100658387D01*
X176236956Y-100679457D01*
X176224974Y-100699448D01*
X176211090Y-100718168D01*
X176195438Y-100735438D01*
X176178168Y-100751090D01*
X176159448Y-100764974D01*
X176139457Y-100776956D01*
X176118387Y-100786921D01*
X176096443Y-100794773D01*
X176073834Y-100800437D01*
X176050779Y-100803856D01*
X176027500Y-100805000D01*
X175452500Y-100805000D01*
X175429221Y-100803856D01*
X175406166Y-100800437D01*
X175383557Y-100794773D01*
X175361613Y-100786921D01*
X175340543Y-100776956D01*
X175320552Y-100764974D01*
X175301832Y-100751090D01*
X175284562Y-100735438D01*
X175268910Y-100718168D01*
X175255026Y-100699448D01*
X175243044Y-100679457D01*
X175233079Y-100658387D01*
X175225227Y-100636443D01*
X175219563Y-100613834D01*
X175216144Y-100590779D01*
X175215000Y-100567500D01*
X175215000Y-100092500D01*
X175216144Y-100069221D01*
X175219563Y-100046166D01*
X175225227Y-100023557D01*
X175233079Y-100001613D01*
X175243044Y-99980543D01*
X175255026Y-99960552D01*
X175268910Y-99941832D01*
X175284562Y-99924562D01*
X175301832Y-99908910D01*
X175320552Y-99895026D01*
X175340543Y-99883044D01*
X175361613Y-99873079D01*
X175383557Y-99865227D01*
X175406166Y-99859563D01*
X175429221Y-99856144D01*
X175452500Y-99855000D01*
X176027500Y-99855000D01*
X176050779Y-99856144D01*
X176050779Y-99856144D01*
G37*
D13*
X175740000Y-100330000D03*
D12*
G36*
X170490779Y-97951144D02*
G01*
X170513834Y-97954563D01*
X170536443Y-97960227D01*
X170558387Y-97968079D01*
X170579457Y-97978044D01*
X170599448Y-97990026D01*
X170618168Y-98003910D01*
X170635438Y-98019562D01*
X170651090Y-98036832D01*
X170664974Y-98055552D01*
X170676956Y-98075543D01*
X170686921Y-98096613D01*
X170694773Y-98118557D01*
X170700437Y-98141166D01*
X170703856Y-98164221D01*
X170705000Y-98187500D01*
X170705000Y-98662500D01*
X170703856Y-98685779D01*
X170700437Y-98708834D01*
X170694773Y-98731443D01*
X170686921Y-98753387D01*
X170676956Y-98774457D01*
X170664974Y-98794448D01*
X170651090Y-98813168D01*
X170635438Y-98830438D01*
X170618168Y-98846090D01*
X170599448Y-98859974D01*
X170579457Y-98871956D01*
X170558387Y-98881921D01*
X170536443Y-98889773D01*
X170513834Y-98895437D01*
X170490779Y-98898856D01*
X170467500Y-98900000D01*
X169892500Y-98900000D01*
X169869221Y-98898856D01*
X169846166Y-98895437D01*
X169823557Y-98889773D01*
X169801613Y-98881921D01*
X169780543Y-98871956D01*
X169760552Y-98859974D01*
X169741832Y-98846090D01*
X169724562Y-98830438D01*
X169708910Y-98813168D01*
X169695026Y-98794448D01*
X169683044Y-98774457D01*
X169673079Y-98753387D01*
X169665227Y-98731443D01*
X169659563Y-98708834D01*
X169656144Y-98685779D01*
X169655000Y-98662500D01*
X169655000Y-98187500D01*
X169656144Y-98164221D01*
X169659563Y-98141166D01*
X169665227Y-98118557D01*
X169673079Y-98096613D01*
X169683044Y-98075543D01*
X169695026Y-98055552D01*
X169708910Y-98036832D01*
X169724562Y-98019562D01*
X169741832Y-98003910D01*
X169760552Y-97990026D01*
X169780543Y-97978044D01*
X169801613Y-97968079D01*
X169823557Y-97960227D01*
X169846166Y-97954563D01*
X169869221Y-97951144D01*
X169892500Y-97950000D01*
X170467500Y-97950000D01*
X170490779Y-97951144D01*
X170490779Y-97951144D01*
G37*
D13*
X170180000Y-98425000D03*
D12*
G36*
X168740779Y-97951144D02*
G01*
X168763834Y-97954563D01*
X168786443Y-97960227D01*
X168808387Y-97968079D01*
X168829457Y-97978044D01*
X168849448Y-97990026D01*
X168868168Y-98003910D01*
X168885438Y-98019562D01*
X168901090Y-98036832D01*
X168914974Y-98055552D01*
X168926956Y-98075543D01*
X168936921Y-98096613D01*
X168944773Y-98118557D01*
X168950437Y-98141166D01*
X168953856Y-98164221D01*
X168955000Y-98187500D01*
X168955000Y-98662500D01*
X168953856Y-98685779D01*
X168950437Y-98708834D01*
X168944773Y-98731443D01*
X168936921Y-98753387D01*
X168926956Y-98774457D01*
X168914974Y-98794448D01*
X168901090Y-98813168D01*
X168885438Y-98830438D01*
X168868168Y-98846090D01*
X168849448Y-98859974D01*
X168829457Y-98871956D01*
X168808387Y-98881921D01*
X168786443Y-98889773D01*
X168763834Y-98895437D01*
X168740779Y-98898856D01*
X168717500Y-98900000D01*
X168142500Y-98900000D01*
X168119221Y-98898856D01*
X168096166Y-98895437D01*
X168073557Y-98889773D01*
X168051613Y-98881921D01*
X168030543Y-98871956D01*
X168010552Y-98859974D01*
X167991832Y-98846090D01*
X167974562Y-98830438D01*
X167958910Y-98813168D01*
X167945026Y-98794448D01*
X167933044Y-98774457D01*
X167923079Y-98753387D01*
X167915227Y-98731443D01*
X167909563Y-98708834D01*
X167906144Y-98685779D01*
X167905000Y-98662500D01*
X167905000Y-98187500D01*
X167906144Y-98164221D01*
X167909563Y-98141166D01*
X167915227Y-98118557D01*
X167923079Y-98096613D01*
X167933044Y-98075543D01*
X167945026Y-98055552D01*
X167958910Y-98036832D01*
X167974562Y-98019562D01*
X167991832Y-98003910D01*
X168010552Y-97990026D01*
X168030543Y-97978044D01*
X168051613Y-97968079D01*
X168073557Y-97960227D01*
X168096166Y-97954563D01*
X168119221Y-97951144D01*
X168142500Y-97950000D01*
X168717500Y-97950000D01*
X168740779Y-97951144D01*
X168740779Y-97951144D01*
G37*
D13*
X168430000Y-98425000D03*
D12*
G36*
X164090779Y-92426144D02*
G01*
X164113834Y-92429563D01*
X164136443Y-92435227D01*
X164158387Y-92443079D01*
X164179457Y-92453044D01*
X164199448Y-92465026D01*
X164218168Y-92478910D01*
X164235438Y-92494562D01*
X164251090Y-92511832D01*
X164264974Y-92530552D01*
X164276956Y-92550543D01*
X164286921Y-92571613D01*
X164294773Y-92593557D01*
X164300437Y-92616166D01*
X164303856Y-92639221D01*
X164305000Y-92662500D01*
X164305000Y-93237500D01*
X164303856Y-93260779D01*
X164300437Y-93283834D01*
X164294773Y-93306443D01*
X164286921Y-93328387D01*
X164276956Y-93349457D01*
X164264974Y-93369448D01*
X164251090Y-93388168D01*
X164235438Y-93405438D01*
X164218168Y-93421090D01*
X164199448Y-93434974D01*
X164179457Y-93446956D01*
X164158387Y-93456921D01*
X164136443Y-93464773D01*
X164113834Y-93470437D01*
X164090779Y-93473856D01*
X164067500Y-93475000D01*
X163592500Y-93475000D01*
X163569221Y-93473856D01*
X163546166Y-93470437D01*
X163523557Y-93464773D01*
X163501613Y-93456921D01*
X163480543Y-93446956D01*
X163460552Y-93434974D01*
X163441832Y-93421090D01*
X163424562Y-93405438D01*
X163408910Y-93388168D01*
X163395026Y-93369448D01*
X163383044Y-93349457D01*
X163373079Y-93328387D01*
X163365227Y-93306443D01*
X163359563Y-93283834D01*
X163356144Y-93260779D01*
X163355000Y-93237500D01*
X163355000Y-92662500D01*
X163356144Y-92639221D01*
X163359563Y-92616166D01*
X163365227Y-92593557D01*
X163373079Y-92571613D01*
X163383044Y-92550543D01*
X163395026Y-92530552D01*
X163408910Y-92511832D01*
X163424562Y-92494562D01*
X163441832Y-92478910D01*
X163460552Y-92465026D01*
X163480543Y-92453044D01*
X163501613Y-92443079D01*
X163523557Y-92435227D01*
X163546166Y-92429563D01*
X163569221Y-92426144D01*
X163592500Y-92425000D01*
X164067500Y-92425000D01*
X164090779Y-92426144D01*
X164090779Y-92426144D01*
G37*
D13*
X163830000Y-92950000D03*
D12*
G36*
X164090779Y-90676144D02*
G01*
X164113834Y-90679563D01*
X164136443Y-90685227D01*
X164158387Y-90693079D01*
X164179457Y-90703044D01*
X164199448Y-90715026D01*
X164218168Y-90728910D01*
X164235438Y-90744562D01*
X164251090Y-90761832D01*
X164264974Y-90780552D01*
X164276956Y-90800543D01*
X164286921Y-90821613D01*
X164294773Y-90843557D01*
X164300437Y-90866166D01*
X164303856Y-90889221D01*
X164305000Y-90912500D01*
X164305000Y-91487500D01*
X164303856Y-91510779D01*
X164300437Y-91533834D01*
X164294773Y-91556443D01*
X164286921Y-91578387D01*
X164276956Y-91599457D01*
X164264974Y-91619448D01*
X164251090Y-91638168D01*
X164235438Y-91655438D01*
X164218168Y-91671090D01*
X164199448Y-91684974D01*
X164179457Y-91696956D01*
X164158387Y-91706921D01*
X164136443Y-91714773D01*
X164113834Y-91720437D01*
X164090779Y-91723856D01*
X164067500Y-91725000D01*
X163592500Y-91725000D01*
X163569221Y-91723856D01*
X163546166Y-91720437D01*
X163523557Y-91714773D01*
X163501613Y-91706921D01*
X163480543Y-91696956D01*
X163460552Y-91684974D01*
X163441832Y-91671090D01*
X163424562Y-91655438D01*
X163408910Y-91638168D01*
X163395026Y-91619448D01*
X163383044Y-91599457D01*
X163373079Y-91578387D01*
X163365227Y-91556443D01*
X163359563Y-91533834D01*
X163356144Y-91510779D01*
X163355000Y-91487500D01*
X163355000Y-90912500D01*
X163356144Y-90889221D01*
X163359563Y-90866166D01*
X163365227Y-90843557D01*
X163373079Y-90821613D01*
X163383044Y-90800543D01*
X163395026Y-90780552D01*
X163408910Y-90761832D01*
X163424562Y-90744562D01*
X163441832Y-90728910D01*
X163460552Y-90715026D01*
X163480543Y-90703044D01*
X163501613Y-90693079D01*
X163523557Y-90685227D01*
X163546166Y-90679563D01*
X163569221Y-90676144D01*
X163592500Y-90675000D01*
X164067500Y-90675000D01*
X164090779Y-90676144D01*
X164090779Y-90676144D01*
G37*
D13*
X163830000Y-91200000D03*
D15*
X165100000Y-99030000D03*
D12*
G36*
X164350000Y-99530000D02*
G01*
X164350000Y-99030000D01*
X164350602Y-99030000D01*
X164350602Y-99005466D01*
X164355412Y-98956635D01*
X164364984Y-98908510D01*
X164379228Y-98861555D01*
X164398005Y-98816222D01*
X164421136Y-98772949D01*
X164448396Y-98732150D01*
X164479524Y-98694221D01*
X164514221Y-98659524D01*
X164552150Y-98628396D01*
X164592949Y-98601136D01*
X164636222Y-98578005D01*
X164681555Y-98559228D01*
X164728510Y-98544984D01*
X164776635Y-98535412D01*
X164825466Y-98530602D01*
X164850000Y-98530602D01*
X164850000Y-98530000D01*
X165350000Y-98530000D01*
X165350000Y-98530602D01*
X165374534Y-98530602D01*
X165423365Y-98535412D01*
X165471490Y-98544984D01*
X165518445Y-98559228D01*
X165563778Y-98578005D01*
X165607051Y-98601136D01*
X165647850Y-98628396D01*
X165685779Y-98659524D01*
X165720476Y-98694221D01*
X165751604Y-98732150D01*
X165778864Y-98772949D01*
X165801995Y-98816222D01*
X165820772Y-98861555D01*
X165835016Y-98908510D01*
X165844588Y-98956635D01*
X165849398Y-99005466D01*
X165849398Y-99030000D01*
X165850000Y-99030000D01*
X165850000Y-99530000D01*
X164350000Y-99530000D01*
X164350000Y-99530000D01*
G37*
D15*
X165100000Y-100330000D03*
D12*
G36*
X165849398Y-100330000D02*
G01*
X165849398Y-100354534D01*
X165844588Y-100403365D01*
X165835016Y-100451490D01*
X165820772Y-100498445D01*
X165801995Y-100543778D01*
X165778864Y-100587051D01*
X165751604Y-100627850D01*
X165720476Y-100665779D01*
X165685779Y-100700476D01*
X165647850Y-100731604D01*
X165607051Y-100758864D01*
X165563778Y-100781995D01*
X165518445Y-100800772D01*
X165471490Y-100815016D01*
X165423365Y-100824588D01*
X165374534Y-100829398D01*
X165350000Y-100829398D01*
X165350000Y-100830000D01*
X164850000Y-100830000D01*
X164850000Y-100829398D01*
X164825466Y-100829398D01*
X164776635Y-100824588D01*
X164728510Y-100815016D01*
X164681555Y-100800772D01*
X164636222Y-100781995D01*
X164592949Y-100758864D01*
X164552150Y-100731604D01*
X164514221Y-100700476D01*
X164479524Y-100665779D01*
X164448396Y-100627850D01*
X164421136Y-100587051D01*
X164398005Y-100543778D01*
X164379228Y-100498445D01*
X164364984Y-100451490D01*
X164355412Y-100403365D01*
X164350602Y-100354534D01*
X164350602Y-100330000D01*
X164350000Y-100330000D01*
X164350000Y-99830000D01*
X165850000Y-99830000D01*
X165850000Y-100330000D01*
X165849398Y-100330000D01*
X165849398Y-100330000D01*
G37*
G36*
X168740779Y-99856144D02*
G01*
X168763834Y-99859563D01*
X168786443Y-99865227D01*
X168808387Y-99873079D01*
X168829457Y-99883044D01*
X168849448Y-99895026D01*
X168868168Y-99908910D01*
X168885438Y-99924562D01*
X168901090Y-99941832D01*
X168914974Y-99960552D01*
X168926956Y-99980543D01*
X168936921Y-100001613D01*
X168944773Y-100023557D01*
X168950437Y-100046166D01*
X168953856Y-100069221D01*
X168955000Y-100092500D01*
X168955000Y-100567500D01*
X168953856Y-100590779D01*
X168950437Y-100613834D01*
X168944773Y-100636443D01*
X168936921Y-100658387D01*
X168926956Y-100679457D01*
X168914974Y-100699448D01*
X168901090Y-100718168D01*
X168885438Y-100735438D01*
X168868168Y-100751090D01*
X168849448Y-100764974D01*
X168829457Y-100776956D01*
X168808387Y-100786921D01*
X168786443Y-100794773D01*
X168763834Y-100800437D01*
X168740779Y-100803856D01*
X168717500Y-100805000D01*
X168142500Y-100805000D01*
X168119221Y-100803856D01*
X168096166Y-100800437D01*
X168073557Y-100794773D01*
X168051613Y-100786921D01*
X168030543Y-100776956D01*
X168010552Y-100764974D01*
X167991832Y-100751090D01*
X167974562Y-100735438D01*
X167958910Y-100718168D01*
X167945026Y-100699448D01*
X167933044Y-100679457D01*
X167923079Y-100658387D01*
X167915227Y-100636443D01*
X167909563Y-100613834D01*
X167906144Y-100590779D01*
X167905000Y-100567500D01*
X167905000Y-100092500D01*
X167906144Y-100069221D01*
X167909563Y-100046166D01*
X167915227Y-100023557D01*
X167923079Y-100001613D01*
X167933044Y-99980543D01*
X167945026Y-99960552D01*
X167958910Y-99941832D01*
X167974562Y-99924562D01*
X167991832Y-99908910D01*
X168010552Y-99895026D01*
X168030543Y-99883044D01*
X168051613Y-99873079D01*
X168073557Y-99865227D01*
X168096166Y-99859563D01*
X168119221Y-99856144D01*
X168142500Y-99855000D01*
X168717500Y-99855000D01*
X168740779Y-99856144D01*
X168740779Y-99856144D01*
G37*
D13*
X168430000Y-100330000D03*
D12*
G36*
X170490779Y-99856144D02*
G01*
X170513834Y-99859563D01*
X170536443Y-99865227D01*
X170558387Y-99873079D01*
X170579457Y-99883044D01*
X170599448Y-99895026D01*
X170618168Y-99908910D01*
X170635438Y-99924562D01*
X170651090Y-99941832D01*
X170664974Y-99960552D01*
X170676956Y-99980543D01*
X170686921Y-100001613D01*
X170694773Y-100023557D01*
X170700437Y-100046166D01*
X170703856Y-100069221D01*
X170705000Y-100092500D01*
X170705000Y-100567500D01*
X170703856Y-100590779D01*
X170700437Y-100613834D01*
X170694773Y-100636443D01*
X170686921Y-100658387D01*
X170676956Y-100679457D01*
X170664974Y-100699448D01*
X170651090Y-100718168D01*
X170635438Y-100735438D01*
X170618168Y-100751090D01*
X170599448Y-100764974D01*
X170579457Y-100776956D01*
X170558387Y-100786921D01*
X170536443Y-100794773D01*
X170513834Y-100800437D01*
X170490779Y-100803856D01*
X170467500Y-100805000D01*
X169892500Y-100805000D01*
X169869221Y-100803856D01*
X169846166Y-100800437D01*
X169823557Y-100794773D01*
X169801613Y-100786921D01*
X169780543Y-100776956D01*
X169760552Y-100764974D01*
X169741832Y-100751090D01*
X169724562Y-100735438D01*
X169708910Y-100718168D01*
X169695026Y-100699448D01*
X169683044Y-100679457D01*
X169673079Y-100658387D01*
X169665227Y-100636443D01*
X169659563Y-100613834D01*
X169656144Y-100590779D01*
X169655000Y-100567500D01*
X169655000Y-100092500D01*
X169656144Y-100069221D01*
X169659563Y-100046166D01*
X169665227Y-100023557D01*
X169673079Y-100001613D01*
X169683044Y-99980543D01*
X169695026Y-99960552D01*
X169708910Y-99941832D01*
X169724562Y-99924562D01*
X169741832Y-99908910D01*
X169760552Y-99895026D01*
X169780543Y-99883044D01*
X169801613Y-99873079D01*
X169823557Y-99865227D01*
X169846166Y-99859563D01*
X169869221Y-99856144D01*
X169892500Y-99855000D01*
X170467500Y-99855000D01*
X170490779Y-99856144D01*
X170490779Y-99856144D01*
G37*
D13*
X170180000Y-100330000D03*
D12*
G36*
X174300779Y-97951144D02*
G01*
X174323834Y-97954563D01*
X174346443Y-97960227D01*
X174368387Y-97968079D01*
X174389457Y-97978044D01*
X174409448Y-97990026D01*
X174428168Y-98003910D01*
X174445438Y-98019562D01*
X174461090Y-98036832D01*
X174474974Y-98055552D01*
X174486956Y-98075543D01*
X174496921Y-98096613D01*
X174504773Y-98118557D01*
X174510437Y-98141166D01*
X174513856Y-98164221D01*
X174515000Y-98187500D01*
X174515000Y-98662500D01*
X174513856Y-98685779D01*
X174510437Y-98708834D01*
X174504773Y-98731443D01*
X174496921Y-98753387D01*
X174486956Y-98774457D01*
X174474974Y-98794448D01*
X174461090Y-98813168D01*
X174445438Y-98830438D01*
X174428168Y-98846090D01*
X174409448Y-98859974D01*
X174389457Y-98871956D01*
X174368387Y-98881921D01*
X174346443Y-98889773D01*
X174323834Y-98895437D01*
X174300779Y-98898856D01*
X174277500Y-98900000D01*
X173702500Y-98900000D01*
X173679221Y-98898856D01*
X173656166Y-98895437D01*
X173633557Y-98889773D01*
X173611613Y-98881921D01*
X173590543Y-98871956D01*
X173570552Y-98859974D01*
X173551832Y-98846090D01*
X173534562Y-98830438D01*
X173518910Y-98813168D01*
X173505026Y-98794448D01*
X173493044Y-98774457D01*
X173483079Y-98753387D01*
X173475227Y-98731443D01*
X173469563Y-98708834D01*
X173466144Y-98685779D01*
X173465000Y-98662500D01*
X173465000Y-98187500D01*
X173466144Y-98164221D01*
X173469563Y-98141166D01*
X173475227Y-98118557D01*
X173483079Y-98096613D01*
X173493044Y-98075543D01*
X173505026Y-98055552D01*
X173518910Y-98036832D01*
X173534562Y-98019562D01*
X173551832Y-98003910D01*
X173570552Y-97990026D01*
X173590543Y-97978044D01*
X173611613Y-97968079D01*
X173633557Y-97960227D01*
X173656166Y-97954563D01*
X173679221Y-97951144D01*
X173702500Y-97950000D01*
X174277500Y-97950000D01*
X174300779Y-97951144D01*
X174300779Y-97951144D01*
G37*
D13*
X173990000Y-98425000D03*
D12*
G36*
X176050779Y-97951144D02*
G01*
X176073834Y-97954563D01*
X176096443Y-97960227D01*
X176118387Y-97968079D01*
X176139457Y-97978044D01*
X176159448Y-97990026D01*
X176178168Y-98003910D01*
X176195438Y-98019562D01*
X176211090Y-98036832D01*
X176224974Y-98055552D01*
X176236956Y-98075543D01*
X176246921Y-98096613D01*
X176254773Y-98118557D01*
X176260437Y-98141166D01*
X176263856Y-98164221D01*
X176265000Y-98187500D01*
X176265000Y-98662500D01*
X176263856Y-98685779D01*
X176260437Y-98708834D01*
X176254773Y-98731443D01*
X176246921Y-98753387D01*
X176236956Y-98774457D01*
X176224974Y-98794448D01*
X176211090Y-98813168D01*
X176195438Y-98830438D01*
X176178168Y-98846090D01*
X176159448Y-98859974D01*
X176139457Y-98871956D01*
X176118387Y-98881921D01*
X176096443Y-98889773D01*
X176073834Y-98895437D01*
X176050779Y-98898856D01*
X176027500Y-98900000D01*
X175452500Y-98900000D01*
X175429221Y-98898856D01*
X175406166Y-98895437D01*
X175383557Y-98889773D01*
X175361613Y-98881921D01*
X175340543Y-98871956D01*
X175320552Y-98859974D01*
X175301832Y-98846090D01*
X175284562Y-98830438D01*
X175268910Y-98813168D01*
X175255026Y-98794448D01*
X175243044Y-98774457D01*
X175233079Y-98753387D01*
X175225227Y-98731443D01*
X175219563Y-98708834D01*
X175216144Y-98685779D01*
X175215000Y-98662500D01*
X175215000Y-98187500D01*
X175216144Y-98164221D01*
X175219563Y-98141166D01*
X175225227Y-98118557D01*
X175233079Y-98096613D01*
X175243044Y-98075543D01*
X175255026Y-98055552D01*
X175268910Y-98036832D01*
X175284562Y-98019562D01*
X175301832Y-98003910D01*
X175320552Y-97990026D01*
X175340543Y-97978044D01*
X175361613Y-97968079D01*
X175383557Y-97960227D01*
X175406166Y-97954563D01*
X175429221Y-97951144D01*
X175452500Y-97950000D01*
X176027500Y-97950000D01*
X176050779Y-97951144D01*
X176050779Y-97951144D01*
G37*
D13*
X175740000Y-98425000D03*
D12*
G36*
X174250779Y-92186144D02*
G01*
X174273834Y-92189563D01*
X174296443Y-92195227D01*
X174318387Y-92203079D01*
X174339457Y-92213044D01*
X174359448Y-92225026D01*
X174378168Y-92238910D01*
X174395438Y-92254562D01*
X174411090Y-92271832D01*
X174424974Y-92290552D01*
X174436956Y-92310543D01*
X174446921Y-92331613D01*
X174454773Y-92353557D01*
X174460437Y-92376166D01*
X174463856Y-92399221D01*
X174465000Y-92422500D01*
X174465000Y-92997500D01*
X174463856Y-93020779D01*
X174460437Y-93043834D01*
X174454773Y-93066443D01*
X174446921Y-93088387D01*
X174436956Y-93109457D01*
X174424974Y-93129448D01*
X174411090Y-93148168D01*
X174395438Y-93165438D01*
X174378168Y-93181090D01*
X174359448Y-93194974D01*
X174339457Y-93206956D01*
X174318387Y-93216921D01*
X174296443Y-93224773D01*
X174273834Y-93230437D01*
X174250779Y-93233856D01*
X174227500Y-93235000D01*
X173752500Y-93235000D01*
X173729221Y-93233856D01*
X173706166Y-93230437D01*
X173683557Y-93224773D01*
X173661613Y-93216921D01*
X173640543Y-93206956D01*
X173620552Y-93194974D01*
X173601832Y-93181090D01*
X173584562Y-93165438D01*
X173568910Y-93148168D01*
X173555026Y-93129448D01*
X173543044Y-93109457D01*
X173533079Y-93088387D01*
X173525227Y-93066443D01*
X173519563Y-93043834D01*
X173516144Y-93020779D01*
X173515000Y-92997500D01*
X173515000Y-92422500D01*
X173516144Y-92399221D01*
X173519563Y-92376166D01*
X173525227Y-92353557D01*
X173533079Y-92331613D01*
X173543044Y-92310543D01*
X173555026Y-92290552D01*
X173568910Y-92271832D01*
X173584562Y-92254562D01*
X173601832Y-92238910D01*
X173620552Y-92225026D01*
X173640543Y-92213044D01*
X173661613Y-92203079D01*
X173683557Y-92195227D01*
X173706166Y-92189563D01*
X173729221Y-92186144D01*
X173752500Y-92185000D01*
X174227500Y-92185000D01*
X174250779Y-92186144D01*
X174250779Y-92186144D01*
G37*
D13*
X173990000Y-92710000D03*
D12*
G36*
X174250779Y-90436144D02*
G01*
X174273834Y-90439563D01*
X174296443Y-90445227D01*
X174318387Y-90453079D01*
X174339457Y-90463044D01*
X174359448Y-90475026D01*
X174378168Y-90488910D01*
X174395438Y-90504562D01*
X174411090Y-90521832D01*
X174424974Y-90540552D01*
X174436956Y-90560543D01*
X174446921Y-90581613D01*
X174454773Y-90603557D01*
X174460437Y-90626166D01*
X174463856Y-90649221D01*
X174465000Y-90672500D01*
X174465000Y-91247500D01*
X174463856Y-91270779D01*
X174460437Y-91293834D01*
X174454773Y-91316443D01*
X174446921Y-91338387D01*
X174436956Y-91359457D01*
X174424974Y-91379448D01*
X174411090Y-91398168D01*
X174395438Y-91415438D01*
X174378168Y-91431090D01*
X174359448Y-91444974D01*
X174339457Y-91456956D01*
X174318387Y-91466921D01*
X174296443Y-91474773D01*
X174273834Y-91480437D01*
X174250779Y-91483856D01*
X174227500Y-91485000D01*
X173752500Y-91485000D01*
X173729221Y-91483856D01*
X173706166Y-91480437D01*
X173683557Y-91474773D01*
X173661613Y-91466921D01*
X173640543Y-91456956D01*
X173620552Y-91444974D01*
X173601832Y-91431090D01*
X173584562Y-91415438D01*
X173568910Y-91398168D01*
X173555026Y-91379448D01*
X173543044Y-91359457D01*
X173533079Y-91338387D01*
X173525227Y-91316443D01*
X173519563Y-91293834D01*
X173516144Y-91270779D01*
X173515000Y-91247500D01*
X173515000Y-90672500D01*
X173516144Y-90649221D01*
X173519563Y-90626166D01*
X173525227Y-90603557D01*
X173533079Y-90581613D01*
X173543044Y-90560543D01*
X173555026Y-90540552D01*
X173568910Y-90521832D01*
X173584562Y-90504562D01*
X173601832Y-90488910D01*
X173620552Y-90475026D01*
X173640543Y-90463044D01*
X173661613Y-90453079D01*
X173683557Y-90445227D01*
X173706166Y-90439563D01*
X173729221Y-90436144D01*
X173752500Y-90435000D01*
X174227500Y-90435000D01*
X174250779Y-90436144D01*
X174250779Y-90436144D01*
G37*
D13*
X173990000Y-90960000D03*
D12*
G36*
X176155779Y-94246144D02*
G01*
X176178834Y-94249563D01*
X176201443Y-94255227D01*
X176223387Y-94263079D01*
X176244457Y-94273044D01*
X176264448Y-94285026D01*
X176283168Y-94298910D01*
X176300438Y-94314562D01*
X176316090Y-94331832D01*
X176329974Y-94350552D01*
X176341956Y-94370543D01*
X176351921Y-94391613D01*
X176359773Y-94413557D01*
X176365437Y-94436166D01*
X176368856Y-94459221D01*
X176370000Y-94482500D01*
X176370000Y-95057500D01*
X176368856Y-95080779D01*
X176365437Y-95103834D01*
X176359773Y-95126443D01*
X176351921Y-95148387D01*
X176341956Y-95169457D01*
X176329974Y-95189448D01*
X176316090Y-95208168D01*
X176300438Y-95225438D01*
X176283168Y-95241090D01*
X176264448Y-95254974D01*
X176244457Y-95266956D01*
X176223387Y-95276921D01*
X176201443Y-95284773D01*
X176178834Y-95290437D01*
X176155779Y-95293856D01*
X176132500Y-95295000D01*
X175657500Y-95295000D01*
X175634221Y-95293856D01*
X175611166Y-95290437D01*
X175588557Y-95284773D01*
X175566613Y-95276921D01*
X175545543Y-95266956D01*
X175525552Y-95254974D01*
X175506832Y-95241090D01*
X175489562Y-95225438D01*
X175473910Y-95208168D01*
X175460026Y-95189448D01*
X175448044Y-95169457D01*
X175438079Y-95148387D01*
X175430227Y-95126443D01*
X175424563Y-95103834D01*
X175421144Y-95080779D01*
X175420000Y-95057500D01*
X175420000Y-94482500D01*
X175421144Y-94459221D01*
X175424563Y-94436166D01*
X175430227Y-94413557D01*
X175438079Y-94391613D01*
X175448044Y-94370543D01*
X175460026Y-94350552D01*
X175473910Y-94331832D01*
X175489562Y-94314562D01*
X175506832Y-94298910D01*
X175525552Y-94285026D01*
X175545543Y-94273044D01*
X175566613Y-94263079D01*
X175588557Y-94255227D01*
X175611166Y-94249563D01*
X175634221Y-94246144D01*
X175657500Y-94245000D01*
X176132500Y-94245000D01*
X176155779Y-94246144D01*
X176155779Y-94246144D01*
G37*
D13*
X175895000Y-94770000D03*
D12*
G36*
X176155779Y-95996144D02*
G01*
X176178834Y-95999563D01*
X176201443Y-96005227D01*
X176223387Y-96013079D01*
X176244457Y-96023044D01*
X176264448Y-96035026D01*
X176283168Y-96048910D01*
X176300438Y-96064562D01*
X176316090Y-96081832D01*
X176329974Y-96100552D01*
X176341956Y-96120543D01*
X176351921Y-96141613D01*
X176359773Y-96163557D01*
X176365437Y-96186166D01*
X176368856Y-96209221D01*
X176370000Y-96232500D01*
X176370000Y-96807500D01*
X176368856Y-96830779D01*
X176365437Y-96853834D01*
X176359773Y-96876443D01*
X176351921Y-96898387D01*
X176341956Y-96919457D01*
X176329974Y-96939448D01*
X176316090Y-96958168D01*
X176300438Y-96975438D01*
X176283168Y-96991090D01*
X176264448Y-97004974D01*
X176244457Y-97016956D01*
X176223387Y-97026921D01*
X176201443Y-97034773D01*
X176178834Y-97040437D01*
X176155779Y-97043856D01*
X176132500Y-97045000D01*
X175657500Y-97045000D01*
X175634221Y-97043856D01*
X175611166Y-97040437D01*
X175588557Y-97034773D01*
X175566613Y-97026921D01*
X175545543Y-97016956D01*
X175525552Y-97004974D01*
X175506832Y-96991090D01*
X175489562Y-96975438D01*
X175473910Y-96958168D01*
X175460026Y-96939448D01*
X175448044Y-96919457D01*
X175438079Y-96898387D01*
X175430227Y-96876443D01*
X175424563Y-96853834D01*
X175421144Y-96830779D01*
X175420000Y-96807500D01*
X175420000Y-96232500D01*
X175421144Y-96209221D01*
X175424563Y-96186166D01*
X175430227Y-96163557D01*
X175438079Y-96141613D01*
X175448044Y-96120543D01*
X175460026Y-96100552D01*
X175473910Y-96081832D01*
X175489562Y-96064562D01*
X175506832Y-96048910D01*
X175525552Y-96035026D01*
X175545543Y-96023044D01*
X175566613Y-96013079D01*
X175588557Y-96005227D01*
X175611166Y-95999563D01*
X175634221Y-95996144D01*
X175657500Y-95995000D01*
X176132500Y-95995000D01*
X176155779Y-95996144D01*
X176155779Y-95996144D01*
G37*
D13*
X175895000Y-96520000D03*
D12*
G36*
X174250779Y-95996144D02*
G01*
X174273834Y-95999563D01*
X174296443Y-96005227D01*
X174318387Y-96013079D01*
X174339457Y-96023044D01*
X174359448Y-96035026D01*
X174378168Y-96048910D01*
X174395438Y-96064562D01*
X174411090Y-96081832D01*
X174424974Y-96100552D01*
X174436956Y-96120543D01*
X174446921Y-96141613D01*
X174454773Y-96163557D01*
X174460437Y-96186166D01*
X174463856Y-96209221D01*
X174465000Y-96232500D01*
X174465000Y-96807500D01*
X174463856Y-96830779D01*
X174460437Y-96853834D01*
X174454773Y-96876443D01*
X174446921Y-96898387D01*
X174436956Y-96919457D01*
X174424974Y-96939448D01*
X174411090Y-96958168D01*
X174395438Y-96975438D01*
X174378168Y-96991090D01*
X174359448Y-97004974D01*
X174339457Y-97016956D01*
X174318387Y-97026921D01*
X174296443Y-97034773D01*
X174273834Y-97040437D01*
X174250779Y-97043856D01*
X174227500Y-97045000D01*
X173752500Y-97045000D01*
X173729221Y-97043856D01*
X173706166Y-97040437D01*
X173683557Y-97034773D01*
X173661613Y-97026921D01*
X173640543Y-97016956D01*
X173620552Y-97004974D01*
X173601832Y-96991090D01*
X173584562Y-96975438D01*
X173568910Y-96958168D01*
X173555026Y-96939448D01*
X173543044Y-96919457D01*
X173533079Y-96898387D01*
X173525227Y-96876443D01*
X173519563Y-96853834D01*
X173516144Y-96830779D01*
X173515000Y-96807500D01*
X173515000Y-96232500D01*
X173516144Y-96209221D01*
X173519563Y-96186166D01*
X173525227Y-96163557D01*
X173533079Y-96141613D01*
X173543044Y-96120543D01*
X173555026Y-96100552D01*
X173568910Y-96081832D01*
X173584562Y-96064562D01*
X173601832Y-96048910D01*
X173620552Y-96035026D01*
X173640543Y-96023044D01*
X173661613Y-96013079D01*
X173683557Y-96005227D01*
X173706166Y-95999563D01*
X173729221Y-95996144D01*
X173752500Y-95995000D01*
X174227500Y-95995000D01*
X174250779Y-95996144D01*
X174250779Y-95996144D01*
G37*
D13*
X173990000Y-96520000D03*
D12*
G36*
X174250779Y-94246144D02*
G01*
X174273834Y-94249563D01*
X174296443Y-94255227D01*
X174318387Y-94263079D01*
X174339457Y-94273044D01*
X174359448Y-94285026D01*
X174378168Y-94298910D01*
X174395438Y-94314562D01*
X174411090Y-94331832D01*
X174424974Y-94350552D01*
X174436956Y-94370543D01*
X174446921Y-94391613D01*
X174454773Y-94413557D01*
X174460437Y-94436166D01*
X174463856Y-94459221D01*
X174465000Y-94482500D01*
X174465000Y-95057500D01*
X174463856Y-95080779D01*
X174460437Y-95103834D01*
X174454773Y-95126443D01*
X174446921Y-95148387D01*
X174436956Y-95169457D01*
X174424974Y-95189448D01*
X174411090Y-95208168D01*
X174395438Y-95225438D01*
X174378168Y-95241090D01*
X174359448Y-95254974D01*
X174339457Y-95266956D01*
X174318387Y-95276921D01*
X174296443Y-95284773D01*
X174273834Y-95290437D01*
X174250779Y-95293856D01*
X174227500Y-95295000D01*
X173752500Y-95295000D01*
X173729221Y-95293856D01*
X173706166Y-95290437D01*
X173683557Y-95284773D01*
X173661613Y-95276921D01*
X173640543Y-95266956D01*
X173620552Y-95254974D01*
X173601832Y-95241090D01*
X173584562Y-95225438D01*
X173568910Y-95208168D01*
X173555026Y-95189448D01*
X173543044Y-95169457D01*
X173533079Y-95148387D01*
X173525227Y-95126443D01*
X173519563Y-95103834D01*
X173516144Y-95080779D01*
X173515000Y-95057500D01*
X173515000Y-94482500D01*
X173516144Y-94459221D01*
X173519563Y-94436166D01*
X173525227Y-94413557D01*
X173533079Y-94391613D01*
X173543044Y-94370543D01*
X173555026Y-94350552D01*
X173568910Y-94331832D01*
X173584562Y-94314562D01*
X173601832Y-94298910D01*
X173620552Y-94285026D01*
X173640543Y-94273044D01*
X173661613Y-94263079D01*
X173683557Y-94255227D01*
X173706166Y-94249563D01*
X173729221Y-94246144D01*
X173752500Y-94245000D01*
X174227500Y-94245000D01*
X174250779Y-94246144D01*
X174250779Y-94246144D01*
G37*
D13*
X173990000Y-94770000D03*
D12*
G36*
X176155779Y-90436144D02*
G01*
X176178834Y-90439563D01*
X176201443Y-90445227D01*
X176223387Y-90453079D01*
X176244457Y-90463044D01*
X176264448Y-90475026D01*
X176283168Y-90488910D01*
X176300438Y-90504562D01*
X176316090Y-90521832D01*
X176329974Y-90540552D01*
X176341956Y-90560543D01*
X176351921Y-90581613D01*
X176359773Y-90603557D01*
X176365437Y-90626166D01*
X176368856Y-90649221D01*
X176370000Y-90672500D01*
X176370000Y-91247500D01*
X176368856Y-91270779D01*
X176365437Y-91293834D01*
X176359773Y-91316443D01*
X176351921Y-91338387D01*
X176341956Y-91359457D01*
X176329974Y-91379448D01*
X176316090Y-91398168D01*
X176300438Y-91415438D01*
X176283168Y-91431090D01*
X176264448Y-91444974D01*
X176244457Y-91456956D01*
X176223387Y-91466921D01*
X176201443Y-91474773D01*
X176178834Y-91480437D01*
X176155779Y-91483856D01*
X176132500Y-91485000D01*
X175657500Y-91485000D01*
X175634221Y-91483856D01*
X175611166Y-91480437D01*
X175588557Y-91474773D01*
X175566613Y-91466921D01*
X175545543Y-91456956D01*
X175525552Y-91444974D01*
X175506832Y-91431090D01*
X175489562Y-91415438D01*
X175473910Y-91398168D01*
X175460026Y-91379448D01*
X175448044Y-91359457D01*
X175438079Y-91338387D01*
X175430227Y-91316443D01*
X175424563Y-91293834D01*
X175421144Y-91270779D01*
X175420000Y-91247500D01*
X175420000Y-90672500D01*
X175421144Y-90649221D01*
X175424563Y-90626166D01*
X175430227Y-90603557D01*
X175438079Y-90581613D01*
X175448044Y-90560543D01*
X175460026Y-90540552D01*
X175473910Y-90521832D01*
X175489562Y-90504562D01*
X175506832Y-90488910D01*
X175525552Y-90475026D01*
X175545543Y-90463044D01*
X175566613Y-90453079D01*
X175588557Y-90445227D01*
X175611166Y-90439563D01*
X175634221Y-90436144D01*
X175657500Y-90435000D01*
X176132500Y-90435000D01*
X176155779Y-90436144D01*
X176155779Y-90436144D01*
G37*
D13*
X175895000Y-90960000D03*
D12*
G36*
X176155779Y-92186144D02*
G01*
X176178834Y-92189563D01*
X176201443Y-92195227D01*
X176223387Y-92203079D01*
X176244457Y-92213044D01*
X176264448Y-92225026D01*
X176283168Y-92238910D01*
X176300438Y-92254562D01*
X176316090Y-92271832D01*
X176329974Y-92290552D01*
X176341956Y-92310543D01*
X176351921Y-92331613D01*
X176359773Y-92353557D01*
X176365437Y-92376166D01*
X176368856Y-92399221D01*
X176370000Y-92422500D01*
X176370000Y-92997500D01*
X176368856Y-93020779D01*
X176365437Y-93043834D01*
X176359773Y-93066443D01*
X176351921Y-93088387D01*
X176341956Y-93109457D01*
X176329974Y-93129448D01*
X176316090Y-93148168D01*
X176300438Y-93165438D01*
X176283168Y-93181090D01*
X176264448Y-93194974D01*
X176244457Y-93206956D01*
X176223387Y-93216921D01*
X176201443Y-93224773D01*
X176178834Y-93230437D01*
X176155779Y-93233856D01*
X176132500Y-93235000D01*
X175657500Y-93235000D01*
X175634221Y-93233856D01*
X175611166Y-93230437D01*
X175588557Y-93224773D01*
X175566613Y-93216921D01*
X175545543Y-93206956D01*
X175525552Y-93194974D01*
X175506832Y-93181090D01*
X175489562Y-93165438D01*
X175473910Y-93148168D01*
X175460026Y-93129448D01*
X175448044Y-93109457D01*
X175438079Y-93088387D01*
X175430227Y-93066443D01*
X175424563Y-93043834D01*
X175421144Y-93020779D01*
X175420000Y-92997500D01*
X175420000Y-92422500D01*
X175421144Y-92399221D01*
X175424563Y-92376166D01*
X175430227Y-92353557D01*
X175438079Y-92331613D01*
X175448044Y-92310543D01*
X175460026Y-92290552D01*
X175473910Y-92271832D01*
X175489562Y-92254562D01*
X175506832Y-92238910D01*
X175525552Y-92225026D01*
X175545543Y-92213044D01*
X175566613Y-92203079D01*
X175588557Y-92195227D01*
X175611166Y-92189563D01*
X175634221Y-92186144D01*
X175657500Y-92185000D01*
X176132500Y-92185000D01*
X176155779Y-92186144D01*
X176155779Y-92186144D01*
G37*
D13*
X175895000Y-92710000D03*
D12*
G36*
X170666351Y-96243361D02*
G01*
X170673632Y-96244441D01*
X170680771Y-96246229D01*
X170687701Y-96248709D01*
X170694355Y-96251856D01*
X170700668Y-96255640D01*
X170706579Y-96260024D01*
X170712033Y-96264967D01*
X170716976Y-96270421D01*
X170721360Y-96276332D01*
X170725144Y-96282645D01*
X170728291Y-96289299D01*
X170730771Y-96296229D01*
X170732559Y-96303368D01*
X170733639Y-96310649D01*
X170734000Y-96318000D01*
X170734000Y-96468000D01*
X170733639Y-96475351D01*
X170732559Y-96482632D01*
X170730771Y-96489771D01*
X170728291Y-96496701D01*
X170725144Y-96503355D01*
X170721360Y-96509668D01*
X170716976Y-96515579D01*
X170712033Y-96521033D01*
X170706579Y-96525976D01*
X170700668Y-96530360D01*
X170694355Y-96534144D01*
X170687701Y-96537291D01*
X170680771Y-96539771D01*
X170673632Y-96541559D01*
X170666351Y-96542639D01*
X170659000Y-96543000D01*
X170209000Y-96543000D01*
X170201649Y-96542639D01*
X170194368Y-96541559D01*
X170187229Y-96539771D01*
X170180299Y-96537291D01*
X170173645Y-96534144D01*
X170167332Y-96530360D01*
X170161421Y-96525976D01*
X170155967Y-96521033D01*
X170151024Y-96515579D01*
X170146640Y-96509668D01*
X170142856Y-96503355D01*
X170139709Y-96496701D01*
X170137229Y-96489771D01*
X170135441Y-96482632D01*
X170134361Y-96475351D01*
X170134000Y-96468000D01*
X170134000Y-96318000D01*
X170134361Y-96310649D01*
X170135441Y-96303368D01*
X170137229Y-96296229D01*
X170139709Y-96289299D01*
X170142856Y-96282645D01*
X170146640Y-96276332D01*
X170151024Y-96270421D01*
X170155967Y-96264967D01*
X170161421Y-96260024D01*
X170167332Y-96255640D01*
X170173645Y-96251856D01*
X170180299Y-96248709D01*
X170187229Y-96246229D01*
X170194368Y-96244441D01*
X170201649Y-96243361D01*
X170209000Y-96243000D01*
X170659000Y-96243000D01*
X170666351Y-96243361D01*
X170666351Y-96243361D01*
G37*
D16*
X170434000Y-96393000D03*
D12*
G36*
X170666351Y-95735361D02*
G01*
X170673632Y-95736441D01*
X170680771Y-95738229D01*
X170687701Y-95740709D01*
X170694355Y-95743856D01*
X170700668Y-95747640D01*
X170706579Y-95752024D01*
X170712033Y-95756967D01*
X170716976Y-95762421D01*
X170721360Y-95768332D01*
X170725144Y-95774645D01*
X170728291Y-95781299D01*
X170730771Y-95788229D01*
X170732559Y-95795368D01*
X170733639Y-95802649D01*
X170734000Y-95810000D01*
X170734000Y-95960000D01*
X170733639Y-95967351D01*
X170732559Y-95974632D01*
X170730771Y-95981771D01*
X170728291Y-95988701D01*
X170725144Y-95995355D01*
X170721360Y-96001668D01*
X170716976Y-96007579D01*
X170712033Y-96013033D01*
X170706579Y-96017976D01*
X170700668Y-96022360D01*
X170694355Y-96026144D01*
X170687701Y-96029291D01*
X170680771Y-96031771D01*
X170673632Y-96033559D01*
X170666351Y-96034639D01*
X170659000Y-96035000D01*
X170209000Y-96035000D01*
X170201649Y-96034639D01*
X170194368Y-96033559D01*
X170187229Y-96031771D01*
X170180299Y-96029291D01*
X170173645Y-96026144D01*
X170167332Y-96022360D01*
X170161421Y-96017976D01*
X170155967Y-96013033D01*
X170151024Y-96007579D01*
X170146640Y-96001668D01*
X170142856Y-95995355D01*
X170139709Y-95988701D01*
X170137229Y-95981771D01*
X170135441Y-95974632D01*
X170134361Y-95967351D01*
X170134000Y-95960000D01*
X170134000Y-95810000D01*
X170134361Y-95802649D01*
X170135441Y-95795368D01*
X170137229Y-95788229D01*
X170139709Y-95781299D01*
X170142856Y-95774645D01*
X170146640Y-95768332D01*
X170151024Y-95762421D01*
X170155967Y-95756967D01*
X170161421Y-95752024D01*
X170167332Y-95747640D01*
X170173645Y-95743856D01*
X170180299Y-95740709D01*
X170187229Y-95738229D01*
X170194368Y-95736441D01*
X170201649Y-95735361D01*
X170209000Y-95735000D01*
X170659000Y-95735000D01*
X170666351Y-95735361D01*
X170666351Y-95735361D01*
G37*
D16*
X170434000Y-95885000D03*
D12*
G36*
X170666351Y-95227361D02*
G01*
X170673632Y-95228441D01*
X170680771Y-95230229D01*
X170687701Y-95232709D01*
X170694355Y-95235856D01*
X170700668Y-95239640D01*
X170706579Y-95244024D01*
X170712033Y-95248967D01*
X170716976Y-95254421D01*
X170721360Y-95260332D01*
X170725144Y-95266645D01*
X170728291Y-95273299D01*
X170730771Y-95280229D01*
X170732559Y-95287368D01*
X170733639Y-95294649D01*
X170734000Y-95302000D01*
X170734000Y-95452000D01*
X170733639Y-95459351D01*
X170732559Y-95466632D01*
X170730771Y-95473771D01*
X170728291Y-95480701D01*
X170725144Y-95487355D01*
X170721360Y-95493668D01*
X170716976Y-95499579D01*
X170712033Y-95505033D01*
X170706579Y-95509976D01*
X170700668Y-95514360D01*
X170694355Y-95518144D01*
X170687701Y-95521291D01*
X170680771Y-95523771D01*
X170673632Y-95525559D01*
X170666351Y-95526639D01*
X170659000Y-95527000D01*
X170209000Y-95527000D01*
X170201649Y-95526639D01*
X170194368Y-95525559D01*
X170187229Y-95523771D01*
X170180299Y-95521291D01*
X170173645Y-95518144D01*
X170167332Y-95514360D01*
X170161421Y-95509976D01*
X170155967Y-95505033D01*
X170151024Y-95499579D01*
X170146640Y-95493668D01*
X170142856Y-95487355D01*
X170139709Y-95480701D01*
X170137229Y-95473771D01*
X170135441Y-95466632D01*
X170134361Y-95459351D01*
X170134000Y-95452000D01*
X170134000Y-95302000D01*
X170134361Y-95294649D01*
X170135441Y-95287368D01*
X170137229Y-95280229D01*
X170139709Y-95273299D01*
X170142856Y-95266645D01*
X170146640Y-95260332D01*
X170151024Y-95254421D01*
X170155967Y-95248967D01*
X170161421Y-95244024D01*
X170167332Y-95239640D01*
X170173645Y-95235856D01*
X170180299Y-95232709D01*
X170187229Y-95230229D01*
X170194368Y-95228441D01*
X170201649Y-95227361D01*
X170209000Y-95227000D01*
X170659000Y-95227000D01*
X170666351Y-95227361D01*
X170666351Y-95227361D01*
G37*
D16*
X170434000Y-95377000D03*
D12*
G36*
X168126351Y-95227361D02*
G01*
X168133632Y-95228441D01*
X168140771Y-95230229D01*
X168147701Y-95232709D01*
X168154355Y-95235856D01*
X168160668Y-95239640D01*
X168166579Y-95244024D01*
X168172033Y-95248967D01*
X168176976Y-95254421D01*
X168181360Y-95260332D01*
X168185144Y-95266645D01*
X168188291Y-95273299D01*
X168190771Y-95280229D01*
X168192559Y-95287368D01*
X168193639Y-95294649D01*
X168194000Y-95302000D01*
X168194000Y-95452000D01*
X168193639Y-95459351D01*
X168192559Y-95466632D01*
X168190771Y-95473771D01*
X168188291Y-95480701D01*
X168185144Y-95487355D01*
X168181360Y-95493668D01*
X168176976Y-95499579D01*
X168172033Y-95505033D01*
X168166579Y-95509976D01*
X168160668Y-95514360D01*
X168154355Y-95518144D01*
X168147701Y-95521291D01*
X168140771Y-95523771D01*
X168133632Y-95525559D01*
X168126351Y-95526639D01*
X168119000Y-95527000D01*
X167669000Y-95527000D01*
X167661649Y-95526639D01*
X167654368Y-95525559D01*
X167647229Y-95523771D01*
X167640299Y-95521291D01*
X167633645Y-95518144D01*
X167627332Y-95514360D01*
X167621421Y-95509976D01*
X167615967Y-95505033D01*
X167611024Y-95499579D01*
X167606640Y-95493668D01*
X167602856Y-95487355D01*
X167599709Y-95480701D01*
X167597229Y-95473771D01*
X167595441Y-95466632D01*
X167594361Y-95459351D01*
X167594000Y-95452000D01*
X167594000Y-95302000D01*
X167594361Y-95294649D01*
X167595441Y-95287368D01*
X167597229Y-95280229D01*
X167599709Y-95273299D01*
X167602856Y-95266645D01*
X167606640Y-95260332D01*
X167611024Y-95254421D01*
X167615967Y-95248967D01*
X167621421Y-95244024D01*
X167627332Y-95239640D01*
X167633645Y-95235856D01*
X167640299Y-95232709D01*
X167647229Y-95230229D01*
X167654368Y-95228441D01*
X167661649Y-95227361D01*
X167669000Y-95227000D01*
X168119000Y-95227000D01*
X168126351Y-95227361D01*
X168126351Y-95227361D01*
G37*
D16*
X167894000Y-95377000D03*
D12*
G36*
X168126351Y-95735361D02*
G01*
X168133632Y-95736441D01*
X168140771Y-95738229D01*
X168147701Y-95740709D01*
X168154355Y-95743856D01*
X168160668Y-95747640D01*
X168166579Y-95752024D01*
X168172033Y-95756967D01*
X168176976Y-95762421D01*
X168181360Y-95768332D01*
X168185144Y-95774645D01*
X168188291Y-95781299D01*
X168190771Y-95788229D01*
X168192559Y-95795368D01*
X168193639Y-95802649D01*
X168194000Y-95810000D01*
X168194000Y-95960000D01*
X168193639Y-95967351D01*
X168192559Y-95974632D01*
X168190771Y-95981771D01*
X168188291Y-95988701D01*
X168185144Y-95995355D01*
X168181360Y-96001668D01*
X168176976Y-96007579D01*
X168172033Y-96013033D01*
X168166579Y-96017976D01*
X168160668Y-96022360D01*
X168154355Y-96026144D01*
X168147701Y-96029291D01*
X168140771Y-96031771D01*
X168133632Y-96033559D01*
X168126351Y-96034639D01*
X168119000Y-96035000D01*
X167669000Y-96035000D01*
X167661649Y-96034639D01*
X167654368Y-96033559D01*
X167647229Y-96031771D01*
X167640299Y-96029291D01*
X167633645Y-96026144D01*
X167627332Y-96022360D01*
X167621421Y-96017976D01*
X167615967Y-96013033D01*
X167611024Y-96007579D01*
X167606640Y-96001668D01*
X167602856Y-95995355D01*
X167599709Y-95988701D01*
X167597229Y-95981771D01*
X167595441Y-95974632D01*
X167594361Y-95967351D01*
X167594000Y-95960000D01*
X167594000Y-95810000D01*
X167594361Y-95802649D01*
X167595441Y-95795368D01*
X167597229Y-95788229D01*
X167599709Y-95781299D01*
X167602856Y-95774645D01*
X167606640Y-95768332D01*
X167611024Y-95762421D01*
X167615967Y-95756967D01*
X167621421Y-95752024D01*
X167627332Y-95747640D01*
X167633645Y-95743856D01*
X167640299Y-95740709D01*
X167647229Y-95738229D01*
X167654368Y-95736441D01*
X167661649Y-95735361D01*
X167669000Y-95735000D01*
X168119000Y-95735000D01*
X168126351Y-95735361D01*
X168126351Y-95735361D01*
G37*
D16*
X167894000Y-95885000D03*
D12*
G36*
X168126351Y-96243361D02*
G01*
X168133632Y-96244441D01*
X168140771Y-96246229D01*
X168147701Y-96248709D01*
X168154355Y-96251856D01*
X168160668Y-96255640D01*
X168166579Y-96260024D01*
X168172033Y-96264967D01*
X168176976Y-96270421D01*
X168181360Y-96276332D01*
X168185144Y-96282645D01*
X168188291Y-96289299D01*
X168190771Y-96296229D01*
X168192559Y-96303368D01*
X168193639Y-96310649D01*
X168194000Y-96318000D01*
X168194000Y-96468000D01*
X168193639Y-96475351D01*
X168192559Y-96482632D01*
X168190771Y-96489771D01*
X168188291Y-96496701D01*
X168185144Y-96503355D01*
X168181360Y-96509668D01*
X168176976Y-96515579D01*
X168172033Y-96521033D01*
X168166579Y-96525976D01*
X168160668Y-96530360D01*
X168154355Y-96534144D01*
X168147701Y-96537291D01*
X168140771Y-96539771D01*
X168133632Y-96541559D01*
X168126351Y-96542639D01*
X168119000Y-96543000D01*
X167669000Y-96543000D01*
X167661649Y-96542639D01*
X167654368Y-96541559D01*
X167647229Y-96539771D01*
X167640299Y-96537291D01*
X167633645Y-96534144D01*
X167627332Y-96530360D01*
X167621421Y-96525976D01*
X167615967Y-96521033D01*
X167611024Y-96515579D01*
X167606640Y-96509668D01*
X167602856Y-96503355D01*
X167599709Y-96496701D01*
X167597229Y-96489771D01*
X167595441Y-96482632D01*
X167594361Y-96475351D01*
X167594000Y-96468000D01*
X167594000Y-96318000D01*
X167594361Y-96310649D01*
X167595441Y-96303368D01*
X167597229Y-96296229D01*
X167599709Y-96289299D01*
X167602856Y-96282645D01*
X167606640Y-96276332D01*
X167611024Y-96270421D01*
X167615967Y-96264967D01*
X167621421Y-96260024D01*
X167627332Y-96255640D01*
X167633645Y-96251856D01*
X167640299Y-96248709D01*
X167647229Y-96246229D01*
X167654368Y-96244441D01*
X167661649Y-96243361D01*
X167669000Y-96243000D01*
X168119000Y-96243000D01*
X168126351Y-96243361D01*
X168126351Y-96243361D01*
G37*
D16*
X167894000Y-96393000D03*
D12*
G36*
X169434504Y-90241204D02*
G01*
X169458773Y-90244804D01*
X169482571Y-90250765D01*
X169505671Y-90259030D01*
X169527849Y-90269520D01*
X169548893Y-90282133D01*
X169568598Y-90296747D01*
X169586777Y-90313223D01*
X169603253Y-90331402D01*
X169617867Y-90351107D01*
X169630480Y-90372151D01*
X169640970Y-90394329D01*
X169649235Y-90417429D01*
X169655196Y-90441227D01*
X169658796Y-90465496D01*
X169660000Y-90490000D01*
X169660000Y-92390000D01*
X169658796Y-92414504D01*
X169655196Y-92438773D01*
X169649235Y-92462571D01*
X169640970Y-92485671D01*
X169630480Y-92507849D01*
X169617867Y-92528893D01*
X169603253Y-92548598D01*
X169586777Y-92566777D01*
X169568598Y-92583253D01*
X169548893Y-92597867D01*
X169527849Y-92610480D01*
X169505671Y-92620970D01*
X169482571Y-92629235D01*
X169458773Y-92635196D01*
X169434504Y-92638796D01*
X169410000Y-92640000D01*
X168410000Y-92640000D01*
X168385496Y-92638796D01*
X168361227Y-92635196D01*
X168337429Y-92629235D01*
X168314329Y-92620970D01*
X168292151Y-92610480D01*
X168271107Y-92597867D01*
X168251402Y-92583253D01*
X168233223Y-92566777D01*
X168216747Y-92548598D01*
X168202133Y-92528893D01*
X168189520Y-92507849D01*
X168179030Y-92485671D01*
X168170765Y-92462571D01*
X168164804Y-92438773D01*
X168161204Y-92414504D01*
X168160000Y-92390000D01*
X168160000Y-90490000D01*
X168161204Y-90465496D01*
X168164804Y-90441227D01*
X168170765Y-90417429D01*
X168179030Y-90394329D01*
X168189520Y-90372151D01*
X168202133Y-90351107D01*
X168216747Y-90331402D01*
X168233223Y-90313223D01*
X168251402Y-90296747D01*
X168271107Y-90282133D01*
X168292151Y-90269520D01*
X168314329Y-90259030D01*
X168337429Y-90250765D01*
X168361227Y-90244804D01*
X168385496Y-90241204D01*
X168410000Y-90240000D01*
X169410000Y-90240000D01*
X169434504Y-90241204D01*
X169434504Y-90241204D01*
G37*
D17*
X168910000Y-91440000D03*
D12*
G36*
X167769802Y-90240482D02*
G01*
X167779509Y-90241921D01*
X167789028Y-90244306D01*
X167798268Y-90247612D01*
X167807140Y-90251808D01*
X167815557Y-90256853D01*
X167823439Y-90262699D01*
X167830711Y-90269289D01*
X167837301Y-90276561D01*
X167843147Y-90284443D01*
X167848192Y-90292860D01*
X167852388Y-90301732D01*
X167855694Y-90310972D01*
X167858079Y-90320491D01*
X167859518Y-90330198D01*
X167860000Y-90340000D01*
X167860000Y-90540000D01*
X167859518Y-90549802D01*
X167858079Y-90559509D01*
X167855694Y-90569028D01*
X167852388Y-90578268D01*
X167848192Y-90587140D01*
X167843147Y-90595557D01*
X167837301Y-90603439D01*
X167830711Y-90610711D01*
X167823439Y-90617301D01*
X167815557Y-90623147D01*
X167807140Y-90628192D01*
X167798268Y-90632388D01*
X167789028Y-90635694D01*
X167779509Y-90638079D01*
X167769802Y-90639518D01*
X167760000Y-90640000D01*
X167160000Y-90640000D01*
X167150198Y-90639518D01*
X167140491Y-90638079D01*
X167130972Y-90635694D01*
X167121732Y-90632388D01*
X167112860Y-90628192D01*
X167104443Y-90623147D01*
X167096561Y-90617301D01*
X167089289Y-90610711D01*
X167082699Y-90603439D01*
X167076853Y-90595557D01*
X167071808Y-90587140D01*
X167067612Y-90578268D01*
X167064306Y-90569028D01*
X167061921Y-90559509D01*
X167060482Y-90549802D01*
X167060000Y-90540000D01*
X167060000Y-90340000D01*
X167060482Y-90330198D01*
X167061921Y-90320491D01*
X167064306Y-90310972D01*
X167067612Y-90301732D01*
X167071808Y-90292860D01*
X167076853Y-90284443D01*
X167082699Y-90276561D01*
X167089289Y-90269289D01*
X167096561Y-90262699D01*
X167104443Y-90256853D01*
X167112860Y-90251808D01*
X167121732Y-90247612D01*
X167130972Y-90244306D01*
X167140491Y-90241921D01*
X167150198Y-90240482D01*
X167160000Y-90240000D01*
X167760000Y-90240000D01*
X167769802Y-90240482D01*
X167769802Y-90240482D01*
G37*
D18*
X167460000Y-90440000D03*
D12*
G36*
X167769802Y-91240482D02*
G01*
X167779509Y-91241921D01*
X167789028Y-91244306D01*
X167798268Y-91247612D01*
X167807140Y-91251808D01*
X167815557Y-91256853D01*
X167823439Y-91262699D01*
X167830711Y-91269289D01*
X167837301Y-91276561D01*
X167843147Y-91284443D01*
X167848192Y-91292860D01*
X167852388Y-91301732D01*
X167855694Y-91310972D01*
X167858079Y-91320491D01*
X167859518Y-91330198D01*
X167860000Y-91340000D01*
X167860000Y-91540000D01*
X167859518Y-91549802D01*
X167858079Y-91559509D01*
X167855694Y-91569028D01*
X167852388Y-91578268D01*
X167848192Y-91587140D01*
X167843147Y-91595557D01*
X167837301Y-91603439D01*
X167830711Y-91610711D01*
X167823439Y-91617301D01*
X167815557Y-91623147D01*
X167807140Y-91628192D01*
X167798268Y-91632388D01*
X167789028Y-91635694D01*
X167779509Y-91638079D01*
X167769802Y-91639518D01*
X167760000Y-91640000D01*
X167160000Y-91640000D01*
X167150198Y-91639518D01*
X167140491Y-91638079D01*
X167130972Y-91635694D01*
X167121732Y-91632388D01*
X167112860Y-91628192D01*
X167104443Y-91623147D01*
X167096561Y-91617301D01*
X167089289Y-91610711D01*
X167082699Y-91603439D01*
X167076853Y-91595557D01*
X167071808Y-91587140D01*
X167067612Y-91578268D01*
X167064306Y-91569028D01*
X167061921Y-91559509D01*
X167060482Y-91549802D01*
X167060000Y-91540000D01*
X167060000Y-91340000D01*
X167060482Y-91330198D01*
X167061921Y-91320491D01*
X167064306Y-91310972D01*
X167067612Y-91301732D01*
X167071808Y-91292860D01*
X167076853Y-91284443D01*
X167082699Y-91276561D01*
X167089289Y-91269289D01*
X167096561Y-91262699D01*
X167104443Y-91256853D01*
X167112860Y-91251808D01*
X167121732Y-91247612D01*
X167130972Y-91244306D01*
X167140491Y-91241921D01*
X167150198Y-91240482D01*
X167160000Y-91240000D01*
X167760000Y-91240000D01*
X167769802Y-91240482D01*
X167769802Y-91240482D01*
G37*
D18*
X167460000Y-91440000D03*
D12*
G36*
X167769802Y-92240482D02*
G01*
X167779509Y-92241921D01*
X167789028Y-92244306D01*
X167798268Y-92247612D01*
X167807140Y-92251808D01*
X167815557Y-92256853D01*
X167823439Y-92262699D01*
X167830711Y-92269289D01*
X167837301Y-92276561D01*
X167843147Y-92284443D01*
X167848192Y-92292860D01*
X167852388Y-92301732D01*
X167855694Y-92310972D01*
X167858079Y-92320491D01*
X167859518Y-92330198D01*
X167860000Y-92340000D01*
X167860000Y-92540000D01*
X167859518Y-92549802D01*
X167858079Y-92559509D01*
X167855694Y-92569028D01*
X167852388Y-92578268D01*
X167848192Y-92587140D01*
X167843147Y-92595557D01*
X167837301Y-92603439D01*
X167830711Y-92610711D01*
X167823439Y-92617301D01*
X167815557Y-92623147D01*
X167807140Y-92628192D01*
X167798268Y-92632388D01*
X167789028Y-92635694D01*
X167779509Y-92638079D01*
X167769802Y-92639518D01*
X167760000Y-92640000D01*
X167160000Y-92640000D01*
X167150198Y-92639518D01*
X167140491Y-92638079D01*
X167130972Y-92635694D01*
X167121732Y-92632388D01*
X167112860Y-92628192D01*
X167104443Y-92623147D01*
X167096561Y-92617301D01*
X167089289Y-92610711D01*
X167082699Y-92603439D01*
X167076853Y-92595557D01*
X167071808Y-92587140D01*
X167067612Y-92578268D01*
X167064306Y-92569028D01*
X167061921Y-92559509D01*
X167060482Y-92549802D01*
X167060000Y-92540000D01*
X167060000Y-92340000D01*
X167060482Y-92330198D01*
X167061921Y-92320491D01*
X167064306Y-92310972D01*
X167067612Y-92301732D01*
X167071808Y-92292860D01*
X167076853Y-92284443D01*
X167082699Y-92276561D01*
X167089289Y-92269289D01*
X167096561Y-92262699D01*
X167104443Y-92256853D01*
X167112860Y-92251808D01*
X167121732Y-92247612D01*
X167130972Y-92244306D01*
X167140491Y-92241921D01*
X167150198Y-92240482D01*
X167160000Y-92240000D01*
X167760000Y-92240000D01*
X167769802Y-92240482D01*
X167769802Y-92240482D01*
G37*
D18*
X167460000Y-92440000D03*
D12*
G36*
X170669802Y-92240482D02*
G01*
X170679509Y-92241921D01*
X170689028Y-92244306D01*
X170698268Y-92247612D01*
X170707140Y-92251808D01*
X170715557Y-92256853D01*
X170723439Y-92262699D01*
X170730711Y-92269289D01*
X170737301Y-92276561D01*
X170743147Y-92284443D01*
X170748192Y-92292860D01*
X170752388Y-92301732D01*
X170755694Y-92310972D01*
X170758079Y-92320491D01*
X170759518Y-92330198D01*
X170760000Y-92340000D01*
X170760000Y-92540000D01*
X170759518Y-92549802D01*
X170758079Y-92559509D01*
X170755694Y-92569028D01*
X170752388Y-92578268D01*
X170748192Y-92587140D01*
X170743147Y-92595557D01*
X170737301Y-92603439D01*
X170730711Y-92610711D01*
X170723439Y-92617301D01*
X170715557Y-92623147D01*
X170707140Y-92628192D01*
X170698268Y-92632388D01*
X170689028Y-92635694D01*
X170679509Y-92638079D01*
X170669802Y-92639518D01*
X170660000Y-92640000D01*
X170060000Y-92640000D01*
X170050198Y-92639518D01*
X170040491Y-92638079D01*
X170030972Y-92635694D01*
X170021732Y-92632388D01*
X170012860Y-92628192D01*
X170004443Y-92623147D01*
X169996561Y-92617301D01*
X169989289Y-92610711D01*
X169982699Y-92603439D01*
X169976853Y-92595557D01*
X169971808Y-92587140D01*
X169967612Y-92578268D01*
X169964306Y-92569028D01*
X169961921Y-92559509D01*
X169960482Y-92549802D01*
X169960000Y-92540000D01*
X169960000Y-92340000D01*
X169960482Y-92330198D01*
X169961921Y-92320491D01*
X169964306Y-92310972D01*
X169967612Y-92301732D01*
X169971808Y-92292860D01*
X169976853Y-92284443D01*
X169982699Y-92276561D01*
X169989289Y-92269289D01*
X169996561Y-92262699D01*
X170004443Y-92256853D01*
X170012860Y-92251808D01*
X170021732Y-92247612D01*
X170030972Y-92244306D01*
X170040491Y-92241921D01*
X170050198Y-92240482D01*
X170060000Y-92240000D01*
X170660000Y-92240000D01*
X170669802Y-92240482D01*
X170669802Y-92240482D01*
G37*
D18*
X170360000Y-92440000D03*
D12*
G36*
X170669802Y-91240482D02*
G01*
X170679509Y-91241921D01*
X170689028Y-91244306D01*
X170698268Y-91247612D01*
X170707140Y-91251808D01*
X170715557Y-91256853D01*
X170723439Y-91262699D01*
X170730711Y-91269289D01*
X170737301Y-91276561D01*
X170743147Y-91284443D01*
X170748192Y-91292860D01*
X170752388Y-91301732D01*
X170755694Y-91310972D01*
X170758079Y-91320491D01*
X170759518Y-91330198D01*
X170760000Y-91340000D01*
X170760000Y-91540000D01*
X170759518Y-91549802D01*
X170758079Y-91559509D01*
X170755694Y-91569028D01*
X170752388Y-91578268D01*
X170748192Y-91587140D01*
X170743147Y-91595557D01*
X170737301Y-91603439D01*
X170730711Y-91610711D01*
X170723439Y-91617301D01*
X170715557Y-91623147D01*
X170707140Y-91628192D01*
X170698268Y-91632388D01*
X170689028Y-91635694D01*
X170679509Y-91638079D01*
X170669802Y-91639518D01*
X170660000Y-91640000D01*
X170060000Y-91640000D01*
X170050198Y-91639518D01*
X170040491Y-91638079D01*
X170030972Y-91635694D01*
X170021732Y-91632388D01*
X170012860Y-91628192D01*
X170004443Y-91623147D01*
X169996561Y-91617301D01*
X169989289Y-91610711D01*
X169982699Y-91603439D01*
X169976853Y-91595557D01*
X169971808Y-91587140D01*
X169967612Y-91578268D01*
X169964306Y-91569028D01*
X169961921Y-91559509D01*
X169960482Y-91549802D01*
X169960000Y-91540000D01*
X169960000Y-91340000D01*
X169960482Y-91330198D01*
X169961921Y-91320491D01*
X169964306Y-91310972D01*
X169967612Y-91301732D01*
X169971808Y-91292860D01*
X169976853Y-91284443D01*
X169982699Y-91276561D01*
X169989289Y-91269289D01*
X169996561Y-91262699D01*
X170004443Y-91256853D01*
X170012860Y-91251808D01*
X170021732Y-91247612D01*
X170030972Y-91244306D01*
X170040491Y-91241921D01*
X170050198Y-91240482D01*
X170060000Y-91240000D01*
X170660000Y-91240000D01*
X170669802Y-91240482D01*
X170669802Y-91240482D01*
G37*
D18*
X170360000Y-91440000D03*
D12*
G36*
X170669802Y-90240482D02*
G01*
X170679509Y-90241921D01*
X170689028Y-90244306D01*
X170698268Y-90247612D01*
X170707140Y-90251808D01*
X170715557Y-90256853D01*
X170723439Y-90262699D01*
X170730711Y-90269289D01*
X170737301Y-90276561D01*
X170743147Y-90284443D01*
X170748192Y-90292860D01*
X170752388Y-90301732D01*
X170755694Y-90310972D01*
X170758079Y-90320491D01*
X170759518Y-90330198D01*
X170760000Y-90340000D01*
X170760000Y-90540000D01*
X170759518Y-90549802D01*
X170758079Y-90559509D01*
X170755694Y-90569028D01*
X170752388Y-90578268D01*
X170748192Y-90587140D01*
X170743147Y-90595557D01*
X170737301Y-90603439D01*
X170730711Y-90610711D01*
X170723439Y-90617301D01*
X170715557Y-90623147D01*
X170707140Y-90628192D01*
X170698268Y-90632388D01*
X170689028Y-90635694D01*
X170679509Y-90638079D01*
X170669802Y-90639518D01*
X170660000Y-90640000D01*
X170060000Y-90640000D01*
X170050198Y-90639518D01*
X170040491Y-90638079D01*
X170030972Y-90635694D01*
X170021732Y-90632388D01*
X170012860Y-90628192D01*
X170004443Y-90623147D01*
X169996561Y-90617301D01*
X169989289Y-90610711D01*
X169982699Y-90603439D01*
X169976853Y-90595557D01*
X169971808Y-90587140D01*
X169967612Y-90578268D01*
X169964306Y-90569028D01*
X169961921Y-90559509D01*
X169960482Y-90549802D01*
X169960000Y-90540000D01*
X169960000Y-90340000D01*
X169960482Y-90330198D01*
X169961921Y-90320491D01*
X169964306Y-90310972D01*
X169967612Y-90301732D01*
X169971808Y-90292860D01*
X169976853Y-90284443D01*
X169982699Y-90276561D01*
X169989289Y-90269289D01*
X169996561Y-90262699D01*
X170004443Y-90256853D01*
X170012860Y-90251808D01*
X170021732Y-90247612D01*
X170030972Y-90244306D01*
X170040491Y-90241921D01*
X170050198Y-90240482D01*
X170060000Y-90240000D01*
X170660000Y-90240000D01*
X170669802Y-90240482D01*
X170669802Y-90240482D01*
G37*
D18*
X170360000Y-90440000D03*
D11*
X160020000Y-88900000D03*
D10*
X160020000Y-91440000D03*
X160020000Y-93980000D03*
X160020000Y-96520000D03*
D19*
X160020000Y-100330000D03*
X182880000Y-87630000D03*
D15*
X168410000Y-93980000D03*
X171880000Y-95370000D03*
X166860000Y-99380000D03*
D20*
X177490000Y-90960000D03*
X177480000Y-94770000D03*
X171750000Y-91450000D03*
X171750000Y-88275000D03*
X177200000Y-100330000D03*
X166010000Y-97040000D03*
X166017000Y-95377000D03*
X166020000Y-90440000D03*
X172000000Y-97360000D03*
D21*
X163830000Y-91200000D02*
X163830000Y-89045000D01*
X168035000Y-88265000D02*
X166675000Y-88265000D01*
X165895000Y-89045000D02*
X163830000Y-89045000D01*
X166675000Y-88265000D02*
X165895000Y-89045000D01*
X167460000Y-91440000D02*
X165140000Y-91440000D01*
X164900000Y-91200000D02*
X163830000Y-91200000D01*
X165140000Y-91440000D02*
X164900000Y-91200000D01*
X168430000Y-100330000D02*
X168430000Y-98425000D01*
X163590000Y-91440000D02*
X163830000Y-91200000D01*
X171873000Y-95377000D02*
X171880000Y-95370000D01*
X170434000Y-95377000D02*
X171873000Y-95377000D01*
X160165000Y-89045000D02*
X160020000Y-88900000D01*
X163830000Y-89045000D02*
X160165000Y-89045000D01*
X173990000Y-90960000D02*
X175895000Y-90960000D01*
X173990000Y-94770000D02*
X175895000Y-94770000D01*
X175895000Y-90960000D02*
X177490000Y-90960000D01*
X175895000Y-94770000D02*
X177480000Y-94770000D01*
X170434000Y-98171000D02*
X170180000Y-98425000D01*
X170434000Y-96393000D02*
X170434000Y-98171000D01*
X170434000Y-96393000D02*
X172482000Y-96393000D01*
X172482000Y-96393000D02*
X172725000Y-96150000D01*
X172725000Y-96150000D02*
X172725000Y-94950000D01*
X172905000Y-94770000D02*
X173990000Y-94770000D01*
X172725000Y-94950000D02*
X172905000Y-94770000D01*
X169785000Y-88265000D02*
X173565000Y-88265000D01*
X173990000Y-88690000D02*
X173990000Y-90960000D01*
X173565000Y-88265000D02*
X173990000Y-88690000D01*
X170360000Y-91440000D02*
X171740000Y-91440000D01*
X171740000Y-91440000D02*
X171750000Y-91450000D01*
X165100000Y-99030000D02*
X163600000Y-99030000D01*
X163600000Y-99030000D02*
X163310000Y-99320000D01*
X163310000Y-99320000D02*
X163310000Y-101190000D01*
X163310000Y-101190000D02*
X164070000Y-101950000D01*
X164070000Y-101950000D02*
X171380000Y-101950000D01*
X171975000Y-101355000D02*
X171975000Y-98425000D01*
X171380000Y-101950000D02*
X171975000Y-101355000D01*
X173990000Y-98425000D02*
X171975000Y-98425000D01*
X171975000Y-98425000D02*
X170180000Y-98425000D01*
X177490000Y-89705000D02*
X176530000Y-88745000D01*
X177490000Y-90960000D02*
X177490000Y-89705000D01*
X175740000Y-100330000D02*
X175740000Y-98425000D01*
X175740000Y-100330000D02*
X177200000Y-100330000D01*
X167165000Y-95885000D02*
X166010000Y-97040000D01*
X167894000Y-95885000D02*
X167165000Y-95885000D01*
X160020000Y-96520000D02*
X163050000Y-96520000D01*
X163830000Y-95740000D02*
X163830000Y-92950000D01*
X163050000Y-96520000D02*
X163830000Y-95740000D01*
X163050000Y-98480000D02*
X163600000Y-99030000D01*
X163050000Y-96520000D02*
X163050000Y-98480000D01*
X173990000Y-92710000D02*
X175895000Y-92710000D01*
X172885000Y-92710000D02*
X173990000Y-92710000D01*
X172700000Y-92525000D02*
X172885000Y-92710000D01*
X172700000Y-90675000D02*
X172700000Y-92525000D01*
X170360000Y-90440000D02*
X172465000Y-90440000D01*
X172465000Y-90440000D02*
X172700000Y-90675000D01*
X172885000Y-92710000D02*
X172885000Y-93625000D01*
X172885000Y-93625000D02*
X172530000Y-93980000D01*
X172530000Y-93980000D02*
X170190000Y-93980000D01*
X170190000Y-93980000D02*
X168690000Y-95480000D01*
X168690000Y-95480000D02*
X168690000Y-96170000D01*
X168467000Y-96393000D02*
X167894000Y-96393000D01*
X168690000Y-96170000D02*
X168467000Y-96393000D01*
X173990000Y-96520000D02*
X175895000Y-96520000D01*
X167894000Y-95377000D02*
X166017000Y-95377000D01*
X166020000Y-90440000D02*
X167460000Y-90440000D01*
X173990000Y-96520000D02*
X173140000Y-97370000D01*
X173130000Y-97360000D02*
X172000000Y-97360000D01*
X173140000Y-97370000D02*
X173130000Y-97360000D01*
X165100000Y-100330000D02*
X166430000Y-100330000D01*
X166430000Y-100330000D02*
X167500000Y-101400000D01*
X167500000Y-101400000D02*
X169980000Y-101400000D01*
X170180000Y-101200000D02*
X170180000Y-100330000D01*
X169980000Y-101400000D02*
X170180000Y-101200000D01*
X170434000Y-95885000D02*
X169605000Y-95885000D01*
X169605000Y-95885000D02*
X169320000Y-96170000D01*
X169320000Y-99470000D02*
X170180000Y-100330000D01*
X169320000Y-96170000D02*
X169320000Y-99470000D01*
X176530000Y-86995000D02*
X163830000Y-86995000D01*
X177490000Y-90960000D02*
X182400000Y-90960000D01*
X182880000Y-91440000D02*
X182880000Y-93345000D01*
X182400000Y-90960000D02*
X182880000Y-91440000D01*
X180340000Y-95885000D02*
X179070000Y-95885000D01*
X179070000Y-95885000D02*
X178435000Y-95250000D01*
X178435000Y-95250000D02*
X178435000Y-93345000D01*
X177800000Y-92710000D02*
X175895000Y-92710000D01*
X178435000Y-93345000D02*
X177800000Y-92710000D01*
X181610000Y-97155000D02*
X182880000Y-98425000D01*
X179705000Y-97155000D02*
X181610000Y-97155000D01*
X175895000Y-96520000D02*
X179070000Y-96520000D01*
X179070000Y-96520000D02*
X179705000Y-97155000D01*
D22*
G36*
X180987988Y-86618698D02*
G01*
X180827047Y-87007244D01*
X180745000Y-87419721D01*
X180745000Y-87840279D01*
X180827047Y-88252756D01*
X180987988Y-88641302D01*
X181221637Y-88990983D01*
X181519017Y-89288363D01*
X181868698Y-89522012D01*
X182257244Y-89682953D01*
X182669721Y-89765000D01*
X183090279Y-89765000D01*
X183502756Y-89682953D01*
X183891302Y-89522012D01*
X184240983Y-89288363D01*
X184538363Y-88990983D01*
X184710000Y-88734109D01*
X184710001Y-100930270D01*
X184695995Y-101073109D01*
X184664599Y-101177099D01*
X184613601Y-101273013D01*
X184544941Y-101357199D01*
X184461243Y-101426439D01*
X184365689Y-101478105D01*
X184261922Y-101510227D01*
X184121359Y-101525000D01*
X172717629Y-101525000D01*
X172724003Y-101503986D01*
X172735000Y-101392333D01*
X172735000Y-101392324D01*
X172738676Y-101355001D01*
X172735000Y-101317678D01*
X172735000Y-100805000D01*
X172826928Y-100805000D01*
X172839188Y-100929482D01*
X172875498Y-101049180D01*
X172934463Y-101159494D01*
X173013815Y-101256185D01*
X173110506Y-101335537D01*
X173220820Y-101394502D01*
X173340518Y-101430812D01*
X173465000Y-101443072D01*
X173704250Y-101440000D01*
X173863000Y-101281250D01*
X173863000Y-100457000D01*
X172988750Y-100457000D01*
X172830000Y-100615750D01*
X172826928Y-100805000D01*
X172735000Y-100805000D01*
X172735000Y-99185000D01*
X173004080Y-99185000D01*
X173083377Y-99281623D01*
X173125689Y-99316348D01*
X173110506Y-99324463D01*
X173013815Y-99403815D01*
X172934463Y-99500506D01*
X172875498Y-99610820D01*
X172839188Y-99730518D01*
X172826928Y-99855000D01*
X172830000Y-100044250D01*
X172988750Y-100203000D01*
X173863000Y-100203000D01*
X173863000Y-100183000D01*
X174117000Y-100183000D01*
X174117000Y-100203000D01*
X174137000Y-100203000D01*
X174137000Y-100457000D01*
X174117000Y-100457000D01*
X174117000Y-101281250D01*
X174275750Y-101440000D01*
X174515000Y-101443072D01*
X174639482Y-101430812D01*
X174759180Y-101394502D01*
X174869494Y-101335537D01*
X174942161Y-101275901D01*
X174966058Y-101295512D01*
X175117433Y-101376423D01*
X175281684Y-101426248D01*
X175452500Y-101443072D01*
X176027500Y-101443072D01*
X176198316Y-101426248D01*
X176362567Y-101376423D01*
X176513942Y-101295512D01*
X176634261Y-101196769D01*
X176709744Y-101247205D01*
X176898102Y-101325226D01*
X177098061Y-101365000D01*
X177301939Y-101365000D01*
X177501898Y-101325226D01*
X177690256Y-101247205D01*
X177859774Y-101133937D01*
X178003937Y-100989774D01*
X178117205Y-100820256D01*
X178195226Y-100631898D01*
X178235000Y-100431939D01*
X178235000Y-100228061D01*
X178195226Y-100028102D01*
X178117205Y-99839744D01*
X178003937Y-99670226D01*
X177859774Y-99526063D01*
X177690256Y-99412795D01*
X177501898Y-99334774D01*
X177301939Y-99295000D01*
X177098061Y-99295000D01*
X176898102Y-99334774D01*
X176709744Y-99412795D01*
X176634261Y-99463231D01*
X176529797Y-99377500D01*
X176646623Y-99281623D01*
X176755512Y-99148942D01*
X176836423Y-98997567D01*
X176886248Y-98833316D01*
X176891313Y-98781890D01*
X178898524Y-98781890D01*
X178943175Y-98929099D01*
X179068359Y-99191920D01*
X179242412Y-99425269D01*
X179458645Y-99620178D01*
X179708748Y-99769157D01*
X179983109Y-99866481D01*
X180213000Y-99745814D01*
X180213000Y-98552000D01*
X179019845Y-98552000D01*
X178898524Y-98781890D01*
X176891313Y-98781890D01*
X176903072Y-98662500D01*
X176903072Y-98187500D01*
X176886248Y-98016684D01*
X176836423Y-97852433D01*
X176755512Y-97701058D01*
X176646623Y-97568377D01*
X176611454Y-97539514D01*
X176618942Y-97535512D01*
X176751623Y-97426623D01*
X176860512Y-97293942D01*
X176867964Y-97280000D01*
X178755199Y-97280000D01*
X179096094Y-97620896D01*
X179068359Y-97658080D01*
X178943175Y-97920901D01*
X178898524Y-98068110D01*
X179019845Y-98298000D01*
X180213000Y-98298000D01*
X180213000Y-98278000D01*
X180467000Y-98278000D01*
X180467000Y-98298000D01*
X180487000Y-98298000D01*
X180487000Y-98552000D01*
X180467000Y-98552000D01*
X180467000Y-99745814D01*
X180696891Y-99866481D01*
X180971252Y-99769157D01*
X181221355Y-99620178D01*
X181437588Y-99425269D01*
X181608416Y-99196244D01*
X181639294Y-99254014D01*
X181824866Y-99480134D01*
X182050986Y-99665706D01*
X182308966Y-99803599D01*
X182588889Y-99888513D01*
X182807050Y-99910000D01*
X182952950Y-99910000D01*
X183171111Y-99888513D01*
X183451034Y-99803599D01*
X183709014Y-99665706D01*
X183935134Y-99480134D01*
X184120706Y-99254014D01*
X184258599Y-98996034D01*
X184343513Y-98716111D01*
X184372185Y-98425000D01*
X184343513Y-98133889D01*
X184258599Y-97853966D01*
X184120706Y-97595986D01*
X183935134Y-97369866D01*
X183709014Y-97184294D01*
X183654209Y-97155000D01*
X183709014Y-97125706D01*
X183935134Y-96940134D01*
X184120706Y-96714014D01*
X184258599Y-96456034D01*
X184343513Y-96176111D01*
X184372185Y-95885000D01*
X184343513Y-95593889D01*
X184258599Y-95313966D01*
X184120706Y-95055986D01*
X183935134Y-94829866D01*
X183905313Y-94805393D01*
X183974180Y-94784502D01*
X184084494Y-94725537D01*
X184181185Y-94646185D01*
X184260537Y-94549494D01*
X184319502Y-94439180D01*
X184355812Y-94319482D01*
X184368072Y-94195000D01*
X184368072Y-92495000D01*
X184355812Y-92370518D01*
X184319502Y-92250820D01*
X184260537Y-92140506D01*
X184181185Y-92043815D01*
X184084494Y-91964463D01*
X183974180Y-91905498D01*
X183854482Y-91869188D01*
X183730000Y-91856928D01*
X183640000Y-91856928D01*
X183640000Y-91477333D01*
X183643677Y-91440000D01*
X183629003Y-91291014D01*
X183585546Y-91147753D01*
X183514974Y-91015724D01*
X183499880Y-90997332D01*
X183420001Y-90899999D01*
X183390998Y-90876197D01*
X182963804Y-90449003D01*
X182940001Y-90419999D01*
X182824276Y-90325026D01*
X182692247Y-90254454D01*
X182548986Y-90210997D01*
X182437333Y-90200000D01*
X182437322Y-90200000D01*
X182400000Y-90196324D01*
X182362678Y-90200000D01*
X178250000Y-90200000D01*
X178250000Y-89742322D01*
X178253676Y-89704999D01*
X178250000Y-89667677D01*
X178250000Y-89667667D01*
X178239003Y-89556014D01*
X178195546Y-89412753D01*
X178151047Y-89329502D01*
X178124974Y-89280723D01*
X178053799Y-89193997D01*
X178030001Y-89164999D01*
X178001003Y-89141201D01*
X177643072Y-88783270D01*
X177643072Y-88457500D01*
X177626248Y-88286684D01*
X177576423Y-88122433D01*
X177495512Y-87971058D01*
X177412575Y-87870000D01*
X177495512Y-87768942D01*
X177576423Y-87617567D01*
X177626248Y-87453316D01*
X177643072Y-87282500D01*
X177643072Y-86707500D01*
X177626248Y-86536684D01*
X177595402Y-86435000D01*
X181110731Y-86435000D01*
X180987988Y-86618698D01*
X180987988Y-86618698D01*
G37*
X180987988Y-86618698D02*
X180827047Y-87007244D01*
X180745000Y-87419721D01*
X180745000Y-87840279D01*
X180827047Y-88252756D01*
X180987988Y-88641302D01*
X181221637Y-88990983D01*
X181519017Y-89288363D01*
X181868698Y-89522012D01*
X182257244Y-89682953D01*
X182669721Y-89765000D01*
X183090279Y-89765000D01*
X183502756Y-89682953D01*
X183891302Y-89522012D01*
X184240983Y-89288363D01*
X184538363Y-88990983D01*
X184710000Y-88734109D01*
X184710001Y-100930270D01*
X184695995Y-101073109D01*
X184664599Y-101177099D01*
X184613601Y-101273013D01*
X184544941Y-101357199D01*
X184461243Y-101426439D01*
X184365689Y-101478105D01*
X184261922Y-101510227D01*
X184121359Y-101525000D01*
X172717629Y-101525000D01*
X172724003Y-101503986D01*
X172735000Y-101392333D01*
X172735000Y-101392324D01*
X172738676Y-101355001D01*
X172735000Y-101317678D01*
X172735000Y-100805000D01*
X172826928Y-100805000D01*
X172839188Y-100929482D01*
X172875498Y-101049180D01*
X172934463Y-101159494D01*
X173013815Y-101256185D01*
X173110506Y-101335537D01*
X173220820Y-101394502D01*
X173340518Y-101430812D01*
X173465000Y-101443072D01*
X173704250Y-101440000D01*
X173863000Y-101281250D01*
X173863000Y-100457000D01*
X172988750Y-100457000D01*
X172830000Y-100615750D01*
X172826928Y-100805000D01*
X172735000Y-100805000D01*
X172735000Y-99185000D01*
X173004080Y-99185000D01*
X173083377Y-99281623D01*
X173125689Y-99316348D01*
X173110506Y-99324463D01*
X173013815Y-99403815D01*
X172934463Y-99500506D01*
X172875498Y-99610820D01*
X172839188Y-99730518D01*
X172826928Y-99855000D01*
X172830000Y-100044250D01*
X172988750Y-100203000D01*
X173863000Y-100203000D01*
X173863000Y-100183000D01*
X174117000Y-100183000D01*
X174117000Y-100203000D01*
X174137000Y-100203000D01*
X174137000Y-100457000D01*
X174117000Y-100457000D01*
X174117000Y-101281250D01*
X174275750Y-101440000D01*
X174515000Y-101443072D01*
X174639482Y-101430812D01*
X174759180Y-101394502D01*
X174869494Y-101335537D01*
X174942161Y-101275901D01*
X174966058Y-101295512D01*
X175117433Y-101376423D01*
X175281684Y-101426248D01*
X175452500Y-101443072D01*
X176027500Y-101443072D01*
X176198316Y-101426248D01*
X176362567Y-101376423D01*
X176513942Y-101295512D01*
X176634261Y-101196769D01*
X176709744Y-101247205D01*
X176898102Y-101325226D01*
X177098061Y-101365000D01*
X177301939Y-101365000D01*
X177501898Y-101325226D01*
X177690256Y-101247205D01*
X177859774Y-101133937D01*
X178003937Y-100989774D01*
X178117205Y-100820256D01*
X178195226Y-100631898D01*
X178235000Y-100431939D01*
X178235000Y-100228061D01*
X178195226Y-100028102D01*
X178117205Y-99839744D01*
X178003937Y-99670226D01*
X177859774Y-99526063D01*
X177690256Y-99412795D01*
X177501898Y-99334774D01*
X177301939Y-99295000D01*
X177098061Y-99295000D01*
X176898102Y-99334774D01*
X176709744Y-99412795D01*
X176634261Y-99463231D01*
X176529797Y-99377500D01*
X176646623Y-99281623D01*
X176755512Y-99148942D01*
X176836423Y-98997567D01*
X176886248Y-98833316D01*
X176891313Y-98781890D01*
X178898524Y-98781890D01*
X178943175Y-98929099D01*
X179068359Y-99191920D01*
X179242412Y-99425269D01*
X179458645Y-99620178D01*
X179708748Y-99769157D01*
X179983109Y-99866481D01*
X180213000Y-99745814D01*
X180213000Y-98552000D01*
X179019845Y-98552000D01*
X178898524Y-98781890D01*
X176891313Y-98781890D01*
X176903072Y-98662500D01*
X176903072Y-98187500D01*
X176886248Y-98016684D01*
X176836423Y-97852433D01*
X176755512Y-97701058D01*
X176646623Y-97568377D01*
X176611454Y-97539514D01*
X176618942Y-97535512D01*
X176751623Y-97426623D01*
X176860512Y-97293942D01*
X176867964Y-97280000D01*
X178755199Y-97280000D01*
X179096094Y-97620896D01*
X179068359Y-97658080D01*
X178943175Y-97920901D01*
X178898524Y-98068110D01*
X179019845Y-98298000D01*
X180213000Y-98298000D01*
X180213000Y-98278000D01*
X180467000Y-98278000D01*
X180467000Y-98298000D01*
X180487000Y-98298000D01*
X180487000Y-98552000D01*
X180467000Y-98552000D01*
X180467000Y-99745814D01*
X180696891Y-99866481D01*
X180971252Y-99769157D01*
X181221355Y-99620178D01*
X181437588Y-99425269D01*
X181608416Y-99196244D01*
X181639294Y-99254014D01*
X181824866Y-99480134D01*
X182050986Y-99665706D01*
X182308966Y-99803599D01*
X182588889Y-99888513D01*
X182807050Y-99910000D01*
X182952950Y-99910000D01*
X183171111Y-99888513D01*
X183451034Y-99803599D01*
X183709014Y-99665706D01*
X183935134Y-99480134D01*
X184120706Y-99254014D01*
X184258599Y-98996034D01*
X184343513Y-98716111D01*
X184372185Y-98425000D01*
X184343513Y-98133889D01*
X184258599Y-97853966D01*
X184120706Y-97595986D01*
X183935134Y-97369866D01*
X183709014Y-97184294D01*
X183654209Y-97155000D01*
X183709014Y-97125706D01*
X183935134Y-96940134D01*
X184120706Y-96714014D01*
X184258599Y-96456034D01*
X184343513Y-96176111D01*
X184372185Y-95885000D01*
X184343513Y-95593889D01*
X184258599Y-95313966D01*
X184120706Y-95055986D01*
X183935134Y-94829866D01*
X183905313Y-94805393D01*
X183974180Y-94784502D01*
X184084494Y-94725537D01*
X184181185Y-94646185D01*
X184260537Y-94549494D01*
X184319502Y-94439180D01*
X184355812Y-94319482D01*
X184368072Y-94195000D01*
X184368072Y-92495000D01*
X184355812Y-92370518D01*
X184319502Y-92250820D01*
X184260537Y-92140506D01*
X184181185Y-92043815D01*
X184084494Y-91964463D01*
X183974180Y-91905498D01*
X183854482Y-91869188D01*
X183730000Y-91856928D01*
X183640000Y-91856928D01*
X183640000Y-91477333D01*
X183643677Y-91440000D01*
X183629003Y-91291014D01*
X183585546Y-91147753D01*
X183514974Y-91015724D01*
X183499880Y-90997332D01*
X183420001Y-90899999D01*
X183390998Y-90876197D01*
X182963804Y-90449003D01*
X182940001Y-90419999D01*
X182824276Y-90325026D01*
X182692247Y-90254454D01*
X182548986Y-90210997D01*
X182437333Y-90200000D01*
X182437322Y-90200000D01*
X182400000Y-90196324D01*
X182362678Y-90200000D01*
X178250000Y-90200000D01*
X178250000Y-89742322D01*
X178253676Y-89704999D01*
X178250000Y-89667677D01*
X178250000Y-89667667D01*
X178239003Y-89556014D01*
X178195546Y-89412753D01*
X178151047Y-89329502D01*
X178124974Y-89280723D01*
X178053799Y-89193997D01*
X178030001Y-89164999D01*
X178001003Y-89141201D01*
X177643072Y-88783270D01*
X177643072Y-88457500D01*
X177626248Y-88286684D01*
X177576423Y-88122433D01*
X177495512Y-87971058D01*
X177412575Y-87870000D01*
X177495512Y-87768942D01*
X177576423Y-87617567D01*
X177626248Y-87453316D01*
X177643072Y-87282500D01*
X177643072Y-86707500D01*
X177626248Y-86536684D01*
X177595402Y-86435000D01*
X181110731Y-86435000D01*
X180987988Y-86618698D01*
G36*
X162508992Y-86496745D02*
G01*
X162491928Y-86669999D01*
X162491928Y-87320001D01*
X162508992Y-87493255D01*
X162559528Y-87659851D01*
X162641595Y-87813387D01*
X162752038Y-87947962D01*
X162758594Y-87953342D01*
X162678815Y-88018815D01*
X162599463Y-88115506D01*
X162540498Y-88225820D01*
X162504188Y-88345518D01*
X162491928Y-88470000D01*
X162495000Y-88759250D01*
X162653750Y-88918000D01*
X163703000Y-88918000D01*
X163703000Y-88898000D01*
X163957000Y-88898000D01*
X163957000Y-88918000D01*
X165006250Y-88918000D01*
X165165000Y-88759250D01*
X165165204Y-88740000D01*
X166871928Y-88740000D01*
X166884188Y-88864482D01*
X166920498Y-88984180D01*
X166979463Y-89094494D01*
X167058815Y-89191185D01*
X167155506Y-89270537D01*
X167265820Y-89329502D01*
X167385518Y-89365812D01*
X167510000Y-89378072D01*
X167749250Y-89375000D01*
X167908000Y-89216250D01*
X167908000Y-88392000D01*
X167033750Y-88392000D01*
X166875000Y-88550750D01*
X166871928Y-88740000D01*
X165165204Y-88740000D01*
X165168072Y-88470000D01*
X165155812Y-88345518D01*
X165119502Y-88225820D01*
X165060537Y-88115506D01*
X164981185Y-88018815D01*
X164901406Y-87953342D01*
X164907962Y-87947962D01*
X165018405Y-87813387D01*
X165049614Y-87755000D01*
X166875375Y-87755000D01*
X166871928Y-87790000D01*
X166875000Y-87979250D01*
X167033750Y-88138000D01*
X167908000Y-88138000D01*
X167908000Y-88118000D01*
X168162000Y-88118000D01*
X168162000Y-88138000D01*
X168182000Y-88138000D01*
X168182000Y-88392000D01*
X168162000Y-88392000D01*
X168162000Y-89216250D01*
X168320750Y-89375000D01*
X168560000Y-89378072D01*
X168684482Y-89365812D01*
X168804180Y-89329502D01*
X168914494Y-89270537D01*
X168987161Y-89210901D01*
X169011058Y-89230512D01*
X169162433Y-89311423D01*
X169326684Y-89361248D01*
X169497500Y-89378072D01*
X170072500Y-89378072D01*
X170243316Y-89361248D01*
X170407567Y-89311423D01*
X170558942Y-89230512D01*
X170691623Y-89121623D01*
X170770920Y-89025000D01*
X171036289Y-89025000D01*
X171090226Y-89078937D01*
X171259744Y-89192205D01*
X171448102Y-89270226D01*
X171648061Y-89310000D01*
X171851939Y-89310000D01*
X172051898Y-89270226D01*
X172240256Y-89192205D01*
X172409774Y-89078937D01*
X172463711Y-89025000D01*
X173230000Y-89025000D01*
X173230001Y-89974080D01*
X173144253Y-90044452D01*
X173028804Y-89929003D01*
X173005001Y-89899999D01*
X172889276Y-89805026D01*
X172757247Y-89734454D01*
X172613986Y-89690997D01*
X172502333Y-89680000D01*
X172502322Y-89680000D01*
X172465000Y-89676324D01*
X172427678Y-89680000D01*
X170983401Y-89680000D01*
X170942448Y-89658110D01*
X170803991Y-89616110D01*
X170660000Y-89601928D01*
X170060000Y-89601928D01*
X169916009Y-89616110D01*
X169777552Y-89658110D01*
X169753020Y-89671223D01*
X169749850Y-89669528D01*
X169583254Y-89618992D01*
X169410000Y-89601928D01*
X168410000Y-89601928D01*
X168236746Y-89618992D01*
X168070150Y-89669528D01*
X168066980Y-89671223D01*
X168042448Y-89658110D01*
X167903991Y-89616110D01*
X167760000Y-89601928D01*
X167160000Y-89601928D01*
X167016009Y-89616110D01*
X166877552Y-89658110D01*
X166836599Y-89680000D01*
X166723711Y-89680000D01*
X166679774Y-89636063D01*
X166510256Y-89522795D01*
X166321898Y-89444774D01*
X166121939Y-89405000D01*
X165918061Y-89405000D01*
X165718102Y-89444774D01*
X165529744Y-89522795D01*
X165360226Y-89636063D01*
X165216063Y-89780226D01*
X165102795Y-89949744D01*
X165024774Y-90138102D01*
X164985000Y-90338061D01*
X164985000Y-90541939D01*
X165024774Y-90741898D01*
X165102795Y-90930256D01*
X165216063Y-91099774D01*
X165360226Y-91243937D01*
X165529744Y-91357205D01*
X165718102Y-91435226D01*
X165918061Y-91475000D01*
X166121939Y-91475000D01*
X166321898Y-91435226D01*
X166510256Y-91357205D01*
X166548441Y-91331691D01*
X166583750Y-91367000D01*
X167333000Y-91367000D01*
X167333000Y-91293000D01*
X167521928Y-91293000D01*
X167521928Y-91587000D01*
X167333000Y-91587000D01*
X167333000Y-91513000D01*
X166583750Y-91513000D01*
X166425000Y-91671750D01*
X166437095Y-91778294D01*
X166476044Y-91897160D01*
X166521094Y-91977135D01*
X166478110Y-92057552D01*
X166436110Y-92196009D01*
X166421928Y-92340000D01*
X166421928Y-92540000D01*
X166436110Y-92683991D01*
X166478110Y-92822448D01*
X166546316Y-92950051D01*
X166638104Y-93061896D01*
X166749949Y-93153684D01*
X166877552Y-93221890D01*
X167016009Y-93263890D01*
X167160000Y-93278072D01*
X167760000Y-93278072D01*
X167903991Y-93263890D01*
X168042448Y-93221890D01*
X168066980Y-93208777D01*
X168070150Y-93210472D01*
X168236746Y-93261008D01*
X168410000Y-93278072D01*
X169410000Y-93278072D01*
X169583254Y-93261008D01*
X169749850Y-93210472D01*
X169753020Y-93208777D01*
X169777552Y-93221890D01*
X169916009Y-93263890D01*
X169928517Y-93265122D01*
X169897753Y-93274454D01*
X169765724Y-93345026D01*
X169649999Y-93439999D01*
X169626201Y-93468997D01*
X168431054Y-94664145D01*
X168391881Y-94643207D01*
X168258113Y-94602629D01*
X168119000Y-94588928D01*
X167669000Y-94588928D01*
X167529887Y-94602629D01*
X167482512Y-94617000D01*
X166720711Y-94617000D01*
X166676774Y-94573063D01*
X166507256Y-94459795D01*
X166318898Y-94381774D01*
X166118939Y-94342000D01*
X165915061Y-94342000D01*
X165715102Y-94381774D01*
X165526744Y-94459795D01*
X165357226Y-94573063D01*
X165213063Y-94717226D01*
X165099795Y-94886744D01*
X165021774Y-95075102D01*
X164982000Y-95275061D01*
X164982000Y-95478939D01*
X165021774Y-95678898D01*
X165099795Y-95867256D01*
X165213063Y-96036774D01*
X165357226Y-96180937D01*
X165394977Y-96206161D01*
X165350226Y-96236063D01*
X165206063Y-96380226D01*
X165092795Y-96549744D01*
X165014774Y-96738102D01*
X164975000Y-96938061D01*
X164975000Y-97141939D01*
X165014774Y-97341898D01*
X165092795Y-97530256D01*
X165206063Y-97699774D01*
X165350226Y-97843937D01*
X165430260Y-97897414D01*
X165399009Y-97894336D01*
X165374450Y-97894336D01*
X165350000Y-97891928D01*
X164850000Y-97891928D01*
X164825550Y-97894336D01*
X164800991Y-97894336D01*
X164676510Y-97906596D01*
X164580377Y-97925718D01*
X164460681Y-97962027D01*
X164370125Y-97999536D01*
X164259808Y-98058502D01*
X164178309Y-98112958D01*
X164081618Y-98192310D01*
X164012310Y-98261618D01*
X164005431Y-98270000D01*
X163914802Y-98270000D01*
X163810000Y-98165198D01*
X163810000Y-96834801D01*
X164341004Y-96303798D01*
X164370001Y-96280001D01*
X164464974Y-96164276D01*
X164535546Y-96032247D01*
X164579003Y-95888986D01*
X164590000Y-95777333D01*
X164590000Y-95777332D01*
X164593677Y-95740000D01*
X164590000Y-95702667D01*
X164590000Y-93935920D01*
X164686623Y-93856623D01*
X164795512Y-93723942D01*
X164876423Y-93572567D01*
X164926248Y-93408316D01*
X164943072Y-93237500D01*
X164943072Y-92662500D01*
X164926248Y-92491684D01*
X164876423Y-92327433D01*
X164795512Y-92176058D01*
X164775901Y-92152161D01*
X164835537Y-92079494D01*
X164894502Y-91969180D01*
X164930812Y-91849482D01*
X164943072Y-91725000D01*
X164940000Y-91485750D01*
X164781250Y-91327000D01*
X163957000Y-91327000D01*
X163957000Y-91347000D01*
X163703000Y-91347000D01*
X163703000Y-91327000D01*
X162878750Y-91327000D01*
X162720000Y-91485750D01*
X162716928Y-91725000D01*
X162729188Y-91849482D01*
X162765498Y-91969180D01*
X162824463Y-92079494D01*
X162884099Y-92152161D01*
X162864488Y-92176058D01*
X162783577Y-92327433D01*
X162733752Y-92491684D01*
X162716928Y-92662500D01*
X162716928Y-93237500D01*
X162733752Y-93408316D01*
X162783577Y-93572567D01*
X162864488Y-93723942D01*
X162973377Y-93856623D01*
X163070001Y-93935920D01*
X163070000Y-95425198D01*
X162735199Y-95760000D01*
X161297595Y-95760000D01*
X161260706Y-95690986D01*
X161075134Y-95464866D01*
X160849014Y-95279294D01*
X160794209Y-95250000D01*
X160849014Y-95220706D01*
X161075134Y-95035134D01*
X161260706Y-94809014D01*
X161398599Y-94551034D01*
X161483513Y-94271111D01*
X161512185Y-93980000D01*
X161483513Y-93688889D01*
X161398599Y-93408966D01*
X161260706Y-93150986D01*
X161075134Y-92924866D01*
X160849014Y-92739294D01*
X160794209Y-92710000D01*
X160849014Y-92680706D01*
X161075134Y-92495134D01*
X161260706Y-92269014D01*
X161398599Y-92011034D01*
X161483513Y-91731111D01*
X161512185Y-91440000D01*
X161483513Y-91148889D01*
X161398599Y-90868966D01*
X161260706Y-90610986D01*
X161075134Y-90384866D01*
X161045313Y-90360393D01*
X161114180Y-90339502D01*
X161224494Y-90280537D01*
X161321185Y-90201185D01*
X161400537Y-90104494D01*
X161459502Y-89994180D01*
X161495812Y-89874482D01*
X161508072Y-89750000D01*
X161507365Y-89620000D01*
X162491928Y-89620000D01*
X162504188Y-89744482D01*
X162540498Y-89864180D01*
X162599463Y-89974494D01*
X162678815Y-90071185D01*
X162775506Y-90150537D01*
X162885820Y-90209502D01*
X162911692Y-90217350D01*
X162903815Y-90223815D01*
X162824463Y-90320506D01*
X162765498Y-90430820D01*
X162729188Y-90550518D01*
X162716928Y-90675000D01*
X162720000Y-90914250D01*
X162878750Y-91073000D01*
X163703000Y-91073000D01*
X163703000Y-90198750D01*
X163651750Y-90147500D01*
X163703000Y-90096250D01*
X163703000Y-89172000D01*
X163957000Y-89172000D01*
X163957000Y-90096250D01*
X164008250Y-90147500D01*
X163957000Y-90198750D01*
X163957000Y-91073000D01*
X164781250Y-91073000D01*
X164940000Y-90914250D01*
X164943072Y-90675000D01*
X164930812Y-90550518D01*
X164894502Y-90430820D01*
X164835537Y-90320506D01*
X164756185Y-90223815D01*
X164748308Y-90217350D01*
X164774180Y-90209502D01*
X164884494Y-90150537D01*
X164981185Y-90071185D01*
X165060537Y-89974494D01*
X165119502Y-89864180D01*
X165155812Y-89744482D01*
X165168072Y-89620000D01*
X165165000Y-89330750D01*
X165006250Y-89172000D01*
X163957000Y-89172000D01*
X163703000Y-89172000D01*
X162653750Y-89172000D01*
X162495000Y-89330750D01*
X162491928Y-89620000D01*
X161507365Y-89620000D01*
X161505000Y-89185750D01*
X161346250Y-89027000D01*
X160147000Y-89027000D01*
X160147000Y-89047000D01*
X159893000Y-89047000D01*
X159893000Y-89027000D01*
X158693750Y-89027000D01*
X158535000Y-89185750D01*
X158531928Y-89750000D01*
X158544188Y-89874482D01*
X158580498Y-89994180D01*
X158639463Y-90104494D01*
X158718815Y-90201185D01*
X158815506Y-90280537D01*
X158925820Y-90339502D01*
X158994687Y-90360393D01*
X158964866Y-90384866D01*
X158779294Y-90610986D01*
X158641401Y-90868966D01*
X158556487Y-91148889D01*
X158527815Y-91440000D01*
X158556487Y-91731111D01*
X158641401Y-92011034D01*
X158779294Y-92269014D01*
X158964866Y-92495134D01*
X159190986Y-92680706D01*
X159245791Y-92710000D01*
X159190986Y-92739294D01*
X158964866Y-92924866D01*
X158779294Y-93150986D01*
X158641401Y-93408966D01*
X158556487Y-93688889D01*
X158527815Y-93980000D01*
X158556487Y-94271111D01*
X158641401Y-94551034D01*
X158779294Y-94809014D01*
X158964866Y-95035134D01*
X159190986Y-95220706D01*
X159245791Y-95250000D01*
X159190986Y-95279294D01*
X158964866Y-95464866D01*
X158779294Y-95690986D01*
X158641401Y-95948966D01*
X158556487Y-96228889D01*
X158527815Y-96520000D01*
X158556487Y-96811111D01*
X158641401Y-97091034D01*
X158779294Y-97349014D01*
X158964866Y-97575134D01*
X159190986Y-97760706D01*
X159448966Y-97898599D01*
X159728889Y-97983513D01*
X159947050Y-98005000D01*
X160092950Y-98005000D01*
X160311111Y-97983513D01*
X160591034Y-97898599D01*
X160849014Y-97760706D01*
X161075134Y-97575134D01*
X161260706Y-97349014D01*
X161297595Y-97280000D01*
X162290000Y-97280000D01*
X162290001Y-98442668D01*
X162286324Y-98480000D01*
X162290001Y-98517333D01*
X162293416Y-98552000D01*
X162300998Y-98628985D01*
X162344454Y-98772246D01*
X162415026Y-98904276D01*
X162477985Y-98980991D01*
X162510000Y-99020001D01*
X162538997Y-99043798D01*
X162585485Y-99090287D01*
X162560997Y-99171015D01*
X162550000Y-99282668D01*
X162550000Y-99282678D01*
X162546324Y-99320000D01*
X162550000Y-99357323D01*
X162550001Y-101152668D01*
X162546324Y-101190000D01*
X162550001Y-101227333D01*
X162560998Y-101338986D01*
X162565856Y-101355001D01*
X162604454Y-101482246D01*
X162627307Y-101525000D01*
X161789269Y-101525000D01*
X161912012Y-101341302D01*
X162072953Y-100952756D01*
X162155000Y-100540279D01*
X162155000Y-100119721D01*
X162072953Y-99707244D01*
X161912012Y-99318698D01*
X161678363Y-98969017D01*
X161380983Y-98671637D01*
X161031302Y-98437988D01*
X160642756Y-98277047D01*
X160230279Y-98195000D01*
X159809721Y-98195000D01*
X159397244Y-98277047D01*
X159008698Y-98437988D01*
X158659017Y-98671637D01*
X158361637Y-98969017D01*
X158190000Y-99225890D01*
X158190000Y-88050000D01*
X158531928Y-88050000D01*
X158535000Y-88614250D01*
X158693750Y-88773000D01*
X159893000Y-88773000D01*
X159893000Y-87573750D01*
X160147000Y-87573750D01*
X160147000Y-88773000D01*
X161346250Y-88773000D01*
X161505000Y-88614250D01*
X161508072Y-88050000D01*
X161495812Y-87925518D01*
X161459502Y-87805820D01*
X161400537Y-87695506D01*
X161321185Y-87598815D01*
X161224494Y-87519463D01*
X161114180Y-87460498D01*
X160994482Y-87424188D01*
X160870000Y-87411928D01*
X160305750Y-87415000D01*
X160147000Y-87573750D01*
X159893000Y-87573750D01*
X159734250Y-87415000D01*
X159170000Y-87411928D01*
X159045518Y-87424188D01*
X158925820Y-87460498D01*
X158815506Y-87519463D01*
X158718815Y-87598815D01*
X158639463Y-87695506D01*
X158580498Y-87805820D01*
X158544188Y-87925518D01*
X158531928Y-88050000D01*
X158190000Y-88050000D01*
X158190000Y-87029720D01*
X158204005Y-86886891D01*
X158235402Y-86782899D01*
X158286399Y-86686986D01*
X158355055Y-86602806D01*
X158438758Y-86533560D01*
X158534311Y-86481895D01*
X158638078Y-86449773D01*
X158778641Y-86435000D01*
X162527722Y-86435000D01*
X162508992Y-86496745D01*
X162508992Y-86496745D01*
G37*
X162508992Y-86496745D02*
X162491928Y-86669999D01*
X162491928Y-87320001D01*
X162508992Y-87493255D01*
X162559528Y-87659851D01*
X162641595Y-87813387D01*
X162752038Y-87947962D01*
X162758594Y-87953342D01*
X162678815Y-88018815D01*
X162599463Y-88115506D01*
X162540498Y-88225820D01*
X162504188Y-88345518D01*
X162491928Y-88470000D01*
X162495000Y-88759250D01*
X162653750Y-88918000D01*
X163703000Y-88918000D01*
X163703000Y-88898000D01*
X163957000Y-88898000D01*
X163957000Y-88918000D01*
X165006250Y-88918000D01*
X165165000Y-88759250D01*
X165165204Y-88740000D01*
X166871928Y-88740000D01*
X166884188Y-88864482D01*
X166920498Y-88984180D01*
X166979463Y-89094494D01*
X167058815Y-89191185D01*
X167155506Y-89270537D01*
X167265820Y-89329502D01*
X167385518Y-89365812D01*
X167510000Y-89378072D01*
X167749250Y-89375000D01*
X167908000Y-89216250D01*
X167908000Y-88392000D01*
X167033750Y-88392000D01*
X166875000Y-88550750D01*
X166871928Y-88740000D01*
X165165204Y-88740000D01*
X165168072Y-88470000D01*
X165155812Y-88345518D01*
X165119502Y-88225820D01*
X165060537Y-88115506D01*
X164981185Y-88018815D01*
X164901406Y-87953342D01*
X164907962Y-87947962D01*
X165018405Y-87813387D01*
X165049614Y-87755000D01*
X166875375Y-87755000D01*
X166871928Y-87790000D01*
X166875000Y-87979250D01*
X167033750Y-88138000D01*
X167908000Y-88138000D01*
X167908000Y-88118000D01*
X168162000Y-88118000D01*
X168162000Y-88138000D01*
X168182000Y-88138000D01*
X168182000Y-88392000D01*
X168162000Y-88392000D01*
X168162000Y-89216250D01*
X168320750Y-89375000D01*
X168560000Y-89378072D01*
X168684482Y-89365812D01*
X168804180Y-89329502D01*
X168914494Y-89270537D01*
X168987161Y-89210901D01*
X169011058Y-89230512D01*
X169162433Y-89311423D01*
X169326684Y-89361248D01*
X169497500Y-89378072D01*
X170072500Y-89378072D01*
X170243316Y-89361248D01*
X170407567Y-89311423D01*
X170558942Y-89230512D01*
X170691623Y-89121623D01*
X170770920Y-89025000D01*
X171036289Y-89025000D01*
X171090226Y-89078937D01*
X171259744Y-89192205D01*
X171448102Y-89270226D01*
X171648061Y-89310000D01*
X171851939Y-89310000D01*
X172051898Y-89270226D01*
X172240256Y-89192205D01*
X172409774Y-89078937D01*
X172463711Y-89025000D01*
X173230000Y-89025000D01*
X173230001Y-89974080D01*
X173144253Y-90044452D01*
X173028804Y-89929003D01*
X173005001Y-89899999D01*
X172889276Y-89805026D01*
X172757247Y-89734454D01*
X172613986Y-89690997D01*
X172502333Y-89680000D01*
X172502322Y-89680000D01*
X172465000Y-89676324D01*
X172427678Y-89680000D01*
X170983401Y-89680000D01*
X170942448Y-89658110D01*
X170803991Y-89616110D01*
X170660000Y-89601928D01*
X170060000Y-89601928D01*
X169916009Y-89616110D01*
X169777552Y-89658110D01*
X169753020Y-89671223D01*
X169749850Y-89669528D01*
X169583254Y-89618992D01*
X169410000Y-89601928D01*
X168410000Y-89601928D01*
X168236746Y-89618992D01*
X168070150Y-89669528D01*
X168066980Y-89671223D01*
X168042448Y-89658110D01*
X167903991Y-89616110D01*
X167760000Y-89601928D01*
X167160000Y-89601928D01*
X167016009Y-89616110D01*
X166877552Y-89658110D01*
X166836599Y-89680000D01*
X166723711Y-89680000D01*
X166679774Y-89636063D01*
X166510256Y-89522795D01*
X166321898Y-89444774D01*
X166121939Y-89405000D01*
X165918061Y-89405000D01*
X165718102Y-89444774D01*
X165529744Y-89522795D01*
X165360226Y-89636063D01*
X165216063Y-89780226D01*
X165102795Y-89949744D01*
X165024774Y-90138102D01*
X164985000Y-90338061D01*
X164985000Y-90541939D01*
X165024774Y-90741898D01*
X165102795Y-90930256D01*
X165216063Y-91099774D01*
X165360226Y-91243937D01*
X165529744Y-91357205D01*
X165718102Y-91435226D01*
X165918061Y-91475000D01*
X166121939Y-91475000D01*
X166321898Y-91435226D01*
X166510256Y-91357205D01*
X166548441Y-91331691D01*
X166583750Y-91367000D01*
X167333000Y-91367000D01*
X167333000Y-91293000D01*
X167521928Y-91293000D01*
X167521928Y-91587000D01*
X167333000Y-91587000D01*
X167333000Y-91513000D01*
X166583750Y-91513000D01*
X166425000Y-91671750D01*
X166437095Y-91778294D01*
X166476044Y-91897160D01*
X166521094Y-91977135D01*
X166478110Y-92057552D01*
X166436110Y-92196009D01*
X166421928Y-92340000D01*
X166421928Y-92540000D01*
X166436110Y-92683991D01*
X166478110Y-92822448D01*
X166546316Y-92950051D01*
X166638104Y-93061896D01*
X166749949Y-93153684D01*
X166877552Y-93221890D01*
X167016009Y-93263890D01*
X167160000Y-93278072D01*
X167760000Y-93278072D01*
X167903991Y-93263890D01*
X168042448Y-93221890D01*
X168066980Y-93208777D01*
X168070150Y-93210472D01*
X168236746Y-93261008D01*
X168410000Y-93278072D01*
X169410000Y-93278072D01*
X169583254Y-93261008D01*
X169749850Y-93210472D01*
X169753020Y-93208777D01*
X169777552Y-93221890D01*
X169916009Y-93263890D01*
X169928517Y-93265122D01*
X169897753Y-93274454D01*
X169765724Y-93345026D01*
X169649999Y-93439999D01*
X169626201Y-93468997D01*
X168431054Y-94664145D01*
X168391881Y-94643207D01*
X168258113Y-94602629D01*
X168119000Y-94588928D01*
X167669000Y-94588928D01*
X167529887Y-94602629D01*
X167482512Y-94617000D01*
X166720711Y-94617000D01*
X166676774Y-94573063D01*
X166507256Y-94459795D01*
X166318898Y-94381774D01*
X166118939Y-94342000D01*
X165915061Y-94342000D01*
X165715102Y-94381774D01*
X165526744Y-94459795D01*
X165357226Y-94573063D01*
X165213063Y-94717226D01*
X165099795Y-94886744D01*
X165021774Y-95075102D01*
X164982000Y-95275061D01*
X164982000Y-95478939D01*
X165021774Y-95678898D01*
X165099795Y-95867256D01*
X165213063Y-96036774D01*
X165357226Y-96180937D01*
X165394977Y-96206161D01*
X165350226Y-96236063D01*
X165206063Y-96380226D01*
X165092795Y-96549744D01*
X165014774Y-96738102D01*
X164975000Y-96938061D01*
X164975000Y-97141939D01*
X165014774Y-97341898D01*
X165092795Y-97530256D01*
X165206063Y-97699774D01*
X165350226Y-97843937D01*
X165430260Y-97897414D01*
X165399009Y-97894336D01*
X165374450Y-97894336D01*
X165350000Y-97891928D01*
X164850000Y-97891928D01*
X164825550Y-97894336D01*
X164800991Y-97894336D01*
X164676510Y-97906596D01*
X164580377Y-97925718D01*
X164460681Y-97962027D01*
X164370125Y-97999536D01*
X164259808Y-98058502D01*
X164178309Y-98112958D01*
X164081618Y-98192310D01*
X164012310Y-98261618D01*
X164005431Y-98270000D01*
X163914802Y-98270000D01*
X163810000Y-98165198D01*
X163810000Y-96834801D01*
X164341004Y-96303798D01*
X164370001Y-96280001D01*
X164464974Y-96164276D01*
X164535546Y-96032247D01*
X164579003Y-95888986D01*
X164590000Y-95777333D01*
X164590000Y-95777332D01*
X164593677Y-95740000D01*
X164590000Y-95702667D01*
X164590000Y-93935920D01*
X164686623Y-93856623D01*
X164795512Y-93723942D01*
X164876423Y-93572567D01*
X164926248Y-93408316D01*
X164943072Y-93237500D01*
X164943072Y-92662500D01*
X164926248Y-92491684D01*
X164876423Y-92327433D01*
X164795512Y-92176058D01*
X164775901Y-92152161D01*
X164835537Y-92079494D01*
X164894502Y-91969180D01*
X164930812Y-91849482D01*
X164943072Y-91725000D01*
X164940000Y-91485750D01*
X164781250Y-91327000D01*
X163957000Y-91327000D01*
X163957000Y-91347000D01*
X163703000Y-91347000D01*
X163703000Y-91327000D01*
X162878750Y-91327000D01*
X162720000Y-91485750D01*
X162716928Y-91725000D01*
X162729188Y-91849482D01*
X162765498Y-91969180D01*
X162824463Y-92079494D01*
X162884099Y-92152161D01*
X162864488Y-92176058D01*
X162783577Y-92327433D01*
X162733752Y-92491684D01*
X162716928Y-92662500D01*
X162716928Y-93237500D01*
X162733752Y-93408316D01*
X162783577Y-93572567D01*
X162864488Y-93723942D01*
X162973377Y-93856623D01*
X163070001Y-93935920D01*
X163070000Y-95425198D01*
X162735199Y-95760000D01*
X161297595Y-95760000D01*
X161260706Y-95690986D01*
X161075134Y-95464866D01*
X160849014Y-95279294D01*
X160794209Y-95250000D01*
X160849014Y-95220706D01*
X161075134Y-95035134D01*
X161260706Y-94809014D01*
X161398599Y-94551034D01*
X161483513Y-94271111D01*
X161512185Y-93980000D01*
X161483513Y-93688889D01*
X161398599Y-93408966D01*
X161260706Y-93150986D01*
X161075134Y-92924866D01*
X160849014Y-92739294D01*
X160794209Y-92710000D01*
X160849014Y-92680706D01*
X161075134Y-92495134D01*
X161260706Y-92269014D01*
X161398599Y-92011034D01*
X161483513Y-91731111D01*
X161512185Y-91440000D01*
X161483513Y-91148889D01*
X161398599Y-90868966D01*
X161260706Y-90610986D01*
X161075134Y-90384866D01*
X161045313Y-90360393D01*
X161114180Y-90339502D01*
X161224494Y-90280537D01*
X161321185Y-90201185D01*
X161400537Y-90104494D01*
X161459502Y-89994180D01*
X161495812Y-89874482D01*
X161508072Y-89750000D01*
X161507365Y-89620000D01*
X162491928Y-89620000D01*
X162504188Y-89744482D01*
X162540498Y-89864180D01*
X162599463Y-89974494D01*
X162678815Y-90071185D01*
X162775506Y-90150537D01*
X162885820Y-90209502D01*
X162911692Y-90217350D01*
X162903815Y-90223815D01*
X162824463Y-90320506D01*
X162765498Y-90430820D01*
X162729188Y-90550518D01*
X162716928Y-90675000D01*
X162720000Y-90914250D01*
X162878750Y-91073000D01*
X163703000Y-91073000D01*
X163703000Y-90198750D01*
X163651750Y-90147500D01*
X163703000Y-90096250D01*
X163703000Y-89172000D01*
X163957000Y-89172000D01*
X163957000Y-90096250D01*
X164008250Y-90147500D01*
X163957000Y-90198750D01*
X163957000Y-91073000D01*
X164781250Y-91073000D01*
X164940000Y-90914250D01*
X164943072Y-90675000D01*
X164930812Y-90550518D01*
X164894502Y-90430820D01*
X164835537Y-90320506D01*
X164756185Y-90223815D01*
X164748308Y-90217350D01*
X164774180Y-90209502D01*
X164884494Y-90150537D01*
X164981185Y-90071185D01*
X165060537Y-89974494D01*
X165119502Y-89864180D01*
X165155812Y-89744482D01*
X165168072Y-89620000D01*
X165165000Y-89330750D01*
X165006250Y-89172000D01*
X163957000Y-89172000D01*
X163703000Y-89172000D01*
X162653750Y-89172000D01*
X162495000Y-89330750D01*
X162491928Y-89620000D01*
X161507365Y-89620000D01*
X161505000Y-89185750D01*
X161346250Y-89027000D01*
X160147000Y-89027000D01*
X160147000Y-89047000D01*
X159893000Y-89047000D01*
X159893000Y-89027000D01*
X158693750Y-89027000D01*
X158535000Y-89185750D01*
X158531928Y-89750000D01*
X158544188Y-89874482D01*
X158580498Y-89994180D01*
X158639463Y-90104494D01*
X158718815Y-90201185D01*
X158815506Y-90280537D01*
X158925820Y-90339502D01*
X158994687Y-90360393D01*
X158964866Y-90384866D01*
X158779294Y-90610986D01*
X158641401Y-90868966D01*
X158556487Y-91148889D01*
X158527815Y-91440000D01*
X158556487Y-91731111D01*
X158641401Y-92011034D01*
X158779294Y-92269014D01*
X158964866Y-92495134D01*
X159190986Y-92680706D01*
X159245791Y-92710000D01*
X159190986Y-92739294D01*
X158964866Y-92924866D01*
X158779294Y-93150986D01*
X158641401Y-93408966D01*
X158556487Y-93688889D01*
X158527815Y-93980000D01*
X158556487Y-94271111D01*
X158641401Y-94551034D01*
X158779294Y-94809014D01*
X158964866Y-95035134D01*
X159190986Y-95220706D01*
X159245791Y-95250000D01*
X159190986Y-95279294D01*
X158964866Y-95464866D01*
X158779294Y-95690986D01*
X158641401Y-95948966D01*
X158556487Y-96228889D01*
X158527815Y-96520000D01*
X158556487Y-96811111D01*
X158641401Y-97091034D01*
X158779294Y-97349014D01*
X158964866Y-97575134D01*
X159190986Y-97760706D01*
X159448966Y-97898599D01*
X159728889Y-97983513D01*
X159947050Y-98005000D01*
X160092950Y-98005000D01*
X160311111Y-97983513D01*
X160591034Y-97898599D01*
X160849014Y-97760706D01*
X161075134Y-97575134D01*
X161260706Y-97349014D01*
X161297595Y-97280000D01*
X162290000Y-97280000D01*
X162290001Y-98442668D01*
X162286324Y-98480000D01*
X162290001Y-98517333D01*
X162293416Y-98552000D01*
X162300998Y-98628985D01*
X162344454Y-98772246D01*
X162415026Y-98904276D01*
X162477985Y-98980991D01*
X162510000Y-99020001D01*
X162538997Y-99043798D01*
X162585485Y-99090287D01*
X162560997Y-99171015D01*
X162550000Y-99282668D01*
X162550000Y-99282678D01*
X162546324Y-99320000D01*
X162550000Y-99357323D01*
X162550001Y-101152668D01*
X162546324Y-101190000D01*
X162550001Y-101227333D01*
X162560998Y-101338986D01*
X162565856Y-101355001D01*
X162604454Y-101482246D01*
X162627307Y-101525000D01*
X161789269Y-101525000D01*
X161912012Y-101341302D01*
X162072953Y-100952756D01*
X162155000Y-100540279D01*
X162155000Y-100119721D01*
X162072953Y-99707244D01*
X161912012Y-99318698D01*
X161678363Y-98969017D01*
X161380983Y-98671637D01*
X161031302Y-98437988D01*
X160642756Y-98277047D01*
X160230279Y-98195000D01*
X159809721Y-98195000D01*
X159397244Y-98277047D01*
X159008698Y-98437988D01*
X158659017Y-98671637D01*
X158361637Y-98969017D01*
X158190000Y-99225890D01*
X158190000Y-88050000D01*
X158531928Y-88050000D01*
X158535000Y-88614250D01*
X158693750Y-88773000D01*
X159893000Y-88773000D01*
X159893000Y-87573750D01*
X160147000Y-87573750D01*
X160147000Y-88773000D01*
X161346250Y-88773000D01*
X161505000Y-88614250D01*
X161508072Y-88050000D01*
X161495812Y-87925518D01*
X161459502Y-87805820D01*
X161400537Y-87695506D01*
X161321185Y-87598815D01*
X161224494Y-87519463D01*
X161114180Y-87460498D01*
X160994482Y-87424188D01*
X160870000Y-87411928D01*
X160305750Y-87415000D01*
X160147000Y-87573750D01*
X159893000Y-87573750D01*
X159734250Y-87415000D01*
X159170000Y-87411928D01*
X159045518Y-87424188D01*
X158925820Y-87460498D01*
X158815506Y-87519463D01*
X158718815Y-87598815D01*
X158639463Y-87695506D01*
X158580498Y-87805820D01*
X158544188Y-87925518D01*
X158531928Y-88050000D01*
X158190000Y-88050000D01*
X158190000Y-87029720D01*
X158204005Y-86886891D01*
X158235402Y-86782899D01*
X158286399Y-86686986D01*
X158355055Y-86602806D01*
X158438758Y-86533560D01*
X158534311Y-86481895D01*
X158638078Y-86449773D01*
X158778641Y-86435000D01*
X162527722Y-86435000D01*
X162508992Y-86496745D01*
G36*
X167164782Y-96972218D02*
G01*
X167272838Y-97060898D01*
X167396119Y-97126793D01*
X167529887Y-97167371D01*
X167669000Y-97181072D01*
X168119000Y-97181072D01*
X168258113Y-97167371D01*
X168305488Y-97153000D01*
X168429678Y-97153000D01*
X168467000Y-97156676D01*
X168504322Y-97153000D01*
X168504333Y-97153000D01*
X168560000Y-97147517D01*
X168560000Y-97470750D01*
X168557000Y-97473750D01*
X168557000Y-98298000D01*
X168560001Y-98298000D01*
X168560001Y-98552000D01*
X168557000Y-98552000D01*
X168557000Y-99376250D01*
X168558250Y-99377500D01*
X168557000Y-99378750D01*
X168557000Y-99463137D01*
X168556324Y-99470000D01*
X168557000Y-99476863D01*
X168557000Y-100203000D01*
X168577000Y-100203000D01*
X168577000Y-100457000D01*
X168557000Y-100457000D01*
X168557000Y-100477000D01*
X168303000Y-100477000D01*
X168303000Y-100457000D01*
X168283000Y-100457000D01*
X168283000Y-100203000D01*
X168303000Y-100203000D01*
X168303000Y-99378750D01*
X168301750Y-99377500D01*
X168303000Y-99376250D01*
X168303000Y-98552000D01*
X167428750Y-98552000D01*
X167270000Y-98710750D01*
X167266928Y-98900000D01*
X167279188Y-99024482D01*
X167315498Y-99144180D01*
X167374463Y-99254494D01*
X167453815Y-99351185D01*
X167485880Y-99377500D01*
X167453815Y-99403815D01*
X167374463Y-99500506D01*
X167315498Y-99610820D01*
X167279188Y-99730518D01*
X167266928Y-99855000D01*
X167270000Y-100044250D01*
X167428748Y-100202998D01*
X167377800Y-100202998D01*
X166993804Y-99819002D01*
X166970001Y-99789999D01*
X166854276Y-99695026D01*
X166722247Y-99624454D01*
X166578986Y-99580997D01*
X166483971Y-99571639D01*
X166488072Y-99530000D01*
X166488072Y-99030000D01*
X166485664Y-99005550D01*
X166485664Y-98980991D01*
X166473404Y-98856510D01*
X166454282Y-98760377D01*
X166417973Y-98640681D01*
X166380464Y-98550125D01*
X166321498Y-98439808D01*
X166267042Y-98358309D01*
X166187690Y-98261618D01*
X166118382Y-98192310D01*
X166021691Y-98112958D01*
X165964883Y-98075000D01*
X166111939Y-98075000D01*
X166311898Y-98035226D01*
X166500256Y-97957205D01*
X166511039Y-97950000D01*
X167266928Y-97950000D01*
X167270000Y-98139250D01*
X167428750Y-98298000D01*
X168303000Y-98298000D01*
X168303000Y-97473750D01*
X168144250Y-97315000D01*
X167905000Y-97311928D01*
X167780518Y-97324188D01*
X167660820Y-97360498D01*
X167550506Y-97419463D01*
X167453815Y-97498815D01*
X167374463Y-97595506D01*
X167315498Y-97705820D01*
X167279188Y-97825518D01*
X167266928Y-97950000D01*
X166511039Y-97950000D01*
X166669774Y-97843937D01*
X166813937Y-97699774D01*
X166927205Y-97530256D01*
X167005226Y-97341898D01*
X167045000Y-97141939D01*
X167045000Y-97079801D01*
X167159283Y-96965518D01*
X167164782Y-96972218D01*
X167164782Y-96972218D01*
G37*
X167164782Y-96972218D02*
X167272838Y-97060898D01*
X167396119Y-97126793D01*
X167529887Y-97167371D01*
X167669000Y-97181072D01*
X168119000Y-97181072D01*
X168258113Y-97167371D01*
X168305488Y-97153000D01*
X168429678Y-97153000D01*
X168467000Y-97156676D01*
X168504322Y-97153000D01*
X168504333Y-97153000D01*
X168560000Y-97147517D01*
X168560000Y-97470750D01*
X168557000Y-97473750D01*
X168557000Y-98298000D01*
X168560001Y-98298000D01*
X168560001Y-98552000D01*
X168557000Y-98552000D01*
X168557000Y-99376250D01*
X168558250Y-99377500D01*
X168557000Y-99378750D01*
X168557000Y-99463137D01*
X168556324Y-99470000D01*
X168557000Y-99476863D01*
X168557000Y-100203000D01*
X168577000Y-100203000D01*
X168577000Y-100457000D01*
X168557000Y-100457000D01*
X168557000Y-100477000D01*
X168303000Y-100477000D01*
X168303000Y-100457000D01*
X168283000Y-100457000D01*
X168283000Y-100203000D01*
X168303000Y-100203000D01*
X168303000Y-99378750D01*
X168301750Y-99377500D01*
X168303000Y-99376250D01*
X168303000Y-98552000D01*
X167428750Y-98552000D01*
X167270000Y-98710750D01*
X167266928Y-98900000D01*
X167279188Y-99024482D01*
X167315498Y-99144180D01*
X167374463Y-99254494D01*
X167453815Y-99351185D01*
X167485880Y-99377500D01*
X167453815Y-99403815D01*
X167374463Y-99500506D01*
X167315498Y-99610820D01*
X167279188Y-99730518D01*
X167266928Y-99855000D01*
X167270000Y-100044250D01*
X167428748Y-100202998D01*
X167377800Y-100202998D01*
X166993804Y-99819002D01*
X166970001Y-99789999D01*
X166854276Y-99695026D01*
X166722247Y-99624454D01*
X166578986Y-99580997D01*
X166483971Y-99571639D01*
X166488072Y-99530000D01*
X166488072Y-99030000D01*
X166485664Y-99005550D01*
X166485664Y-98980991D01*
X166473404Y-98856510D01*
X166454282Y-98760377D01*
X166417973Y-98640681D01*
X166380464Y-98550125D01*
X166321498Y-98439808D01*
X166267042Y-98358309D01*
X166187690Y-98261618D01*
X166118382Y-98192310D01*
X166021691Y-98112958D01*
X165964883Y-98075000D01*
X166111939Y-98075000D01*
X166311898Y-98035226D01*
X166500256Y-97957205D01*
X166511039Y-97950000D01*
X167266928Y-97950000D01*
X167270000Y-98139250D01*
X167428750Y-98298000D01*
X168303000Y-98298000D01*
X168303000Y-97473750D01*
X168144250Y-97315000D01*
X167905000Y-97311928D01*
X167780518Y-97324188D01*
X167660820Y-97360498D01*
X167550506Y-97419463D01*
X167453815Y-97498815D01*
X167374463Y-97595506D01*
X167315498Y-97705820D01*
X167279188Y-97825518D01*
X167266928Y-97950000D01*
X166511039Y-97950000D01*
X166669774Y-97843937D01*
X166813937Y-97699774D01*
X166927205Y-97530256D01*
X167005226Y-97341898D01*
X167045000Y-97141939D01*
X167045000Y-97079801D01*
X167159283Y-96965518D01*
X167164782Y-96972218D01*
G36*
X171993391Y-94743676D02*
G01*
X171976979Y-94797782D01*
X171975998Y-94801015D01*
X171961324Y-94950000D01*
X171965001Y-94987332D01*
X171965000Y-95633000D01*
X171360403Y-95633000D01*
X171369000Y-95558750D01*
X171283832Y-95473582D01*
X171251898Y-95413838D01*
X171202790Y-95354000D01*
X171210250Y-95354000D01*
X171369000Y-95195250D01*
X171356406Y-95086476D01*
X171317032Y-94967751D01*
X171255252Y-94858988D01*
X171173441Y-94764369D01*
X171142140Y-94740000D01*
X171994506Y-94740000D01*
X171993391Y-94743676D01*
X171993391Y-94743676D01*
G37*
X171993391Y-94743676D02*
X171976979Y-94797782D01*
X171975998Y-94801015D01*
X171961324Y-94950000D01*
X171965001Y-94987332D01*
X171965000Y-95633000D01*
X171360403Y-95633000D01*
X171369000Y-95558750D01*
X171283832Y-95473582D01*
X171251898Y-95413838D01*
X171202790Y-95354000D01*
X171210250Y-95354000D01*
X171369000Y-95195250D01*
X171356406Y-95086476D01*
X171317032Y-94967751D01*
X171255252Y-94858988D01*
X171173441Y-94764369D01*
X171142140Y-94740000D01*
X171994506Y-94740000D01*
X171993391Y-94743676D01*
M02*
