G04 #@! TF.GenerationSoftware,KiCad,Pcbnew,(5.1.4)-1*
G04 #@! TF.CreationDate,2020-07-08T20:51:49+02:00*
G04 #@! TF.ProjectId,SBIO3,5342494f-332e-46b6-9963-61645f706362,rev?*
G04 #@! TF.SameCoordinates,Original*
G04 #@! TF.FileFunction,Soldermask,Top*
G04 #@! TF.FilePolarity,Negative*
%FSLAX46Y46*%
G04 Gerber Fmt 4.6, Leading zero omitted, Abs format (unit mm)*
G04 Created by KiCad (PCBNEW (5.1.4)-1) date 2020-07-08 20:51:49*
%MOMM*%
%LPD*%
G04 APERTURE LIST*
%ADD10C,0.100000*%
G04 APERTURE END LIST*
D10*
G36*
X123262000Y-175611000D02*
G01*
X121660000Y-175611000D01*
X121660000Y-174909000D01*
X123262000Y-174909000D01*
X123262000Y-175611000D01*
X123262000Y-175611000D01*
G37*
G36*
X117862000Y-175611000D02*
G01*
X116260000Y-175611000D01*
X116260000Y-174909000D01*
X117862000Y-174909000D01*
X117862000Y-175611000D01*
X117862000Y-175611000D01*
G37*
G36*
X89767000Y-175611000D02*
G01*
X88165000Y-175611000D01*
X88165000Y-174909000D01*
X89767000Y-174909000D01*
X89767000Y-175611000D01*
X89767000Y-175611000D01*
G37*
G36*
X84367000Y-175611000D02*
G01*
X82765000Y-175611000D01*
X82765000Y-174909000D01*
X84367000Y-174909000D01*
X84367000Y-175611000D01*
X84367000Y-175611000D01*
G37*
G36*
X100988395Y-173710546D02*
G01*
X101161466Y-173782234D01*
X101161467Y-173782235D01*
X101317227Y-173886310D01*
X101449690Y-174018773D01*
X101449691Y-174018775D01*
X101553766Y-174174534D01*
X101625454Y-174347605D01*
X101662000Y-174531333D01*
X101662000Y-174718667D01*
X101625454Y-174902395D01*
X101553766Y-175075466D01*
X101553765Y-175075467D01*
X101449690Y-175231227D01*
X101317227Y-175363690D01*
X101238818Y-175416081D01*
X101161466Y-175467766D01*
X100988395Y-175539454D01*
X100804667Y-175576000D01*
X100617333Y-175576000D01*
X100433605Y-175539454D01*
X100260534Y-175467766D01*
X100183182Y-175416081D01*
X100104773Y-175363690D01*
X99972310Y-175231227D01*
X99868235Y-175075467D01*
X99868234Y-175075466D01*
X99796546Y-174902395D01*
X99760000Y-174718667D01*
X99760000Y-174531333D01*
X99796546Y-174347605D01*
X99868234Y-174174534D01*
X99972309Y-174018775D01*
X99972310Y-174018773D01*
X100104773Y-173886310D01*
X100260533Y-173782235D01*
X100260534Y-173782234D01*
X100433605Y-173710546D01*
X100617333Y-173674000D01*
X100804667Y-173674000D01*
X100988395Y-173710546D01*
X100988395Y-173710546D01*
G37*
G36*
X104202000Y-175576000D02*
G01*
X102300000Y-175576000D01*
X102300000Y-173674000D01*
X104202000Y-173674000D01*
X104202000Y-175576000D01*
X104202000Y-175576000D01*
G37*
G36*
X96452000Y-175126000D02*
G01*
X95150000Y-175126000D01*
X95150000Y-174124000D01*
X96452000Y-174124000D01*
X96452000Y-175126000D01*
X96452000Y-175126000D01*
G37*
G36*
X98652000Y-175126000D02*
G01*
X97350000Y-175126000D01*
X97350000Y-174124000D01*
X98652000Y-174124000D01*
X98652000Y-175126000D01*
X98652000Y-175126000D01*
G37*
G36*
X79307000Y-174491000D02*
G01*
X78005000Y-174491000D01*
X78005000Y-173489000D01*
X79307000Y-173489000D01*
X79307000Y-174491000D01*
X79307000Y-174491000D01*
G37*
G36*
X81507000Y-174491000D02*
G01*
X80205000Y-174491000D01*
X80205000Y-173489000D01*
X81507000Y-173489000D01*
X81507000Y-174491000D01*
X81507000Y-174491000D01*
G37*
G36*
X117862000Y-174341000D02*
G01*
X116260000Y-174341000D01*
X116260000Y-173639000D01*
X117862000Y-173639000D01*
X117862000Y-174341000D01*
X117862000Y-174341000D01*
G37*
G36*
X84367000Y-174341000D02*
G01*
X82765000Y-174341000D01*
X82765000Y-173639000D01*
X84367000Y-173639000D01*
X84367000Y-174341000D01*
X84367000Y-174341000D01*
G37*
G36*
X123262000Y-174341000D02*
G01*
X121660000Y-174341000D01*
X121660000Y-173639000D01*
X123262000Y-173639000D01*
X123262000Y-174341000D01*
X123262000Y-174341000D01*
G37*
G36*
X89767000Y-174341000D02*
G01*
X88165000Y-174341000D01*
X88165000Y-173639000D01*
X89767000Y-173639000D01*
X89767000Y-174341000D01*
X89767000Y-174341000D01*
G37*
G36*
X89767000Y-173071000D02*
G01*
X88165000Y-173071000D01*
X88165000Y-172369000D01*
X89767000Y-172369000D01*
X89767000Y-173071000D01*
X89767000Y-173071000D01*
G37*
G36*
X117862000Y-173071000D02*
G01*
X116260000Y-173071000D01*
X116260000Y-172369000D01*
X117862000Y-172369000D01*
X117862000Y-173071000D01*
X117862000Y-173071000D01*
G37*
G36*
X123262000Y-173071000D02*
G01*
X121660000Y-173071000D01*
X121660000Y-172369000D01*
X123262000Y-172369000D01*
X123262000Y-173071000D01*
X123262000Y-173071000D01*
G37*
G36*
X84367000Y-173071000D02*
G01*
X82765000Y-173071000D01*
X82765000Y-172369000D01*
X84367000Y-172369000D01*
X84367000Y-173071000D01*
X84367000Y-173071000D01*
G37*
G36*
X150518395Y-170535546D02*
G01*
X150691466Y-170607234D01*
X150691467Y-170607235D01*
X150847227Y-170711310D01*
X150979690Y-170843773D01*
X150979691Y-170843775D01*
X151083766Y-170999534D01*
X151155454Y-171172605D01*
X151192000Y-171356333D01*
X151192000Y-171543667D01*
X151155454Y-171727395D01*
X151083766Y-171900466D01*
X151083765Y-171900467D01*
X150979690Y-172056227D01*
X150847227Y-172188690D01*
X150768818Y-172241081D01*
X150691466Y-172292766D01*
X150518395Y-172364454D01*
X150334667Y-172401000D01*
X150147333Y-172401000D01*
X149963605Y-172364454D01*
X149790534Y-172292766D01*
X149713182Y-172241081D01*
X149634773Y-172188690D01*
X149502310Y-172056227D01*
X149398235Y-171900467D01*
X149398234Y-171900466D01*
X149326546Y-171727395D01*
X149290000Y-171543667D01*
X149290000Y-171356333D01*
X149326546Y-171172605D01*
X149398234Y-170999534D01*
X149502309Y-170843775D01*
X149502310Y-170843773D01*
X149634773Y-170711310D01*
X149790533Y-170607235D01*
X149790534Y-170607234D01*
X149963605Y-170535546D01*
X150147333Y-170499000D01*
X150334667Y-170499000D01*
X150518395Y-170535546D01*
X150518395Y-170535546D01*
G37*
G36*
X139723395Y-170535546D02*
G01*
X139896466Y-170607234D01*
X139896467Y-170607235D01*
X140052227Y-170711310D01*
X140184690Y-170843773D01*
X140184691Y-170843775D01*
X140288766Y-170999534D01*
X140360454Y-171172605D01*
X140397000Y-171356333D01*
X140397000Y-171543667D01*
X140360454Y-171727395D01*
X140288766Y-171900466D01*
X140288765Y-171900467D01*
X140184690Y-172056227D01*
X140052227Y-172188690D01*
X139973818Y-172241081D01*
X139896466Y-172292766D01*
X139723395Y-172364454D01*
X139539667Y-172401000D01*
X139352333Y-172401000D01*
X139168605Y-172364454D01*
X138995534Y-172292766D01*
X138918182Y-172241081D01*
X138839773Y-172188690D01*
X138707310Y-172056227D01*
X138603235Y-171900467D01*
X138603234Y-171900466D01*
X138531546Y-171727395D01*
X138495000Y-171543667D01*
X138495000Y-171356333D01*
X138531546Y-171172605D01*
X138603234Y-170999534D01*
X138707309Y-170843775D01*
X138707310Y-170843773D01*
X138839773Y-170711310D01*
X138995533Y-170607235D01*
X138995534Y-170607234D01*
X139168605Y-170535546D01*
X139352333Y-170499000D01*
X139539667Y-170499000D01*
X139723395Y-170535546D01*
X139723395Y-170535546D01*
G37*
G36*
X148652000Y-172401000D02*
G01*
X146750000Y-172401000D01*
X146750000Y-170499000D01*
X148652000Y-170499000D01*
X148652000Y-172401000D01*
X148652000Y-172401000D01*
G37*
G36*
X142937000Y-172401000D02*
G01*
X141035000Y-172401000D01*
X141035000Y-170499000D01*
X142937000Y-170499000D01*
X142937000Y-172401000D01*
X142937000Y-172401000D01*
G37*
G36*
X136752000Y-171951000D02*
G01*
X135450000Y-171951000D01*
X135450000Y-170949000D01*
X136752000Y-170949000D01*
X136752000Y-171951000D01*
X136752000Y-171951000D01*
G37*
G36*
X156437000Y-171951000D02*
G01*
X155135000Y-171951000D01*
X155135000Y-170949000D01*
X156437000Y-170949000D01*
X156437000Y-171951000D01*
X156437000Y-171951000D01*
G37*
G36*
X154237000Y-171951000D02*
G01*
X152935000Y-171951000D01*
X152935000Y-170949000D01*
X154237000Y-170949000D01*
X154237000Y-171951000D01*
X154237000Y-171951000D01*
G37*
G36*
X134552000Y-171951000D02*
G01*
X133250000Y-171951000D01*
X133250000Y-170949000D01*
X134552000Y-170949000D01*
X134552000Y-171951000D01*
X134552000Y-171951000D01*
G37*
G36*
X84367000Y-171801000D02*
G01*
X82765000Y-171801000D01*
X82765000Y-171099000D01*
X84367000Y-171099000D01*
X84367000Y-171801000D01*
X84367000Y-171801000D01*
G37*
G36*
X117862000Y-171801000D02*
G01*
X116260000Y-171801000D01*
X116260000Y-171099000D01*
X117862000Y-171099000D01*
X117862000Y-171801000D01*
X117862000Y-171801000D01*
G37*
G36*
X123262000Y-171801000D02*
G01*
X121660000Y-171801000D01*
X121660000Y-171099000D01*
X123262000Y-171099000D01*
X123262000Y-171801000D01*
X123262000Y-171801000D01*
G37*
G36*
X89767000Y-171801000D02*
G01*
X88165000Y-171801000D01*
X88165000Y-171099000D01*
X89767000Y-171099000D01*
X89767000Y-171801000D01*
X89767000Y-171801000D01*
G37*
G36*
X123262000Y-170531000D02*
G01*
X121660000Y-170531000D01*
X121660000Y-169829000D01*
X123262000Y-169829000D01*
X123262000Y-170531000D01*
X123262000Y-170531000D01*
G37*
G36*
X84367000Y-170531000D02*
G01*
X82765000Y-170531000D01*
X82765000Y-169829000D01*
X84367000Y-169829000D01*
X84367000Y-170531000D01*
X84367000Y-170531000D01*
G37*
G36*
X117862000Y-170531000D02*
G01*
X116260000Y-170531000D01*
X116260000Y-169829000D01*
X117862000Y-169829000D01*
X117862000Y-170531000D01*
X117862000Y-170531000D01*
G37*
G36*
X89767000Y-170531000D02*
G01*
X88165000Y-170531000D01*
X88165000Y-169829000D01*
X89767000Y-169829000D01*
X89767000Y-170531000D01*
X89767000Y-170531000D01*
G37*
G36*
X104202000Y-169861000D02*
G01*
X102300000Y-169861000D01*
X102300000Y-167959000D01*
X104202000Y-167959000D01*
X104202000Y-169861000D01*
X104202000Y-169861000D01*
G37*
G36*
X100988395Y-167995546D02*
G01*
X101161466Y-168067234D01*
X101161467Y-168067235D01*
X101317227Y-168171310D01*
X101449690Y-168303773D01*
X101449691Y-168303775D01*
X101553766Y-168459534D01*
X101625454Y-168632605D01*
X101662000Y-168816333D01*
X101662000Y-169003667D01*
X101625454Y-169187395D01*
X101553766Y-169360466D01*
X101553765Y-169360467D01*
X101449690Y-169516227D01*
X101317227Y-169648690D01*
X101238818Y-169701081D01*
X101161466Y-169752766D01*
X100988395Y-169824454D01*
X100804667Y-169861000D01*
X100617333Y-169861000D01*
X100433605Y-169824454D01*
X100260534Y-169752766D01*
X100183182Y-169701081D01*
X100104773Y-169648690D01*
X99972310Y-169516227D01*
X99868235Y-169360467D01*
X99868234Y-169360466D01*
X99796546Y-169187395D01*
X99760000Y-169003667D01*
X99760000Y-168816333D01*
X99796546Y-168632605D01*
X99868234Y-168459534D01*
X99972309Y-168303775D01*
X99972310Y-168303773D01*
X100104773Y-168171310D01*
X100260533Y-168067235D01*
X100260534Y-168067234D01*
X100433605Y-167995546D01*
X100617333Y-167959000D01*
X100804667Y-167959000D01*
X100988395Y-167995546D01*
X100988395Y-167995546D01*
G37*
G36*
X96452000Y-169411000D02*
G01*
X95150000Y-169411000D01*
X95150000Y-168409000D01*
X96452000Y-168409000D01*
X96452000Y-169411000D01*
X96452000Y-169411000D01*
G37*
G36*
X98652000Y-169411000D02*
G01*
X97350000Y-169411000D01*
X97350000Y-168409000D01*
X98652000Y-168409000D01*
X98652000Y-169411000D01*
X98652000Y-169411000D01*
G37*
G36*
X89767000Y-169261000D02*
G01*
X88165000Y-169261000D01*
X88165000Y-168559000D01*
X89767000Y-168559000D01*
X89767000Y-169261000D01*
X89767000Y-169261000D01*
G37*
G36*
X123262000Y-169261000D02*
G01*
X121660000Y-169261000D01*
X121660000Y-168559000D01*
X123262000Y-168559000D01*
X123262000Y-169261000D01*
X123262000Y-169261000D01*
G37*
G36*
X117862000Y-169261000D02*
G01*
X116260000Y-169261000D01*
X116260000Y-168559000D01*
X117862000Y-168559000D01*
X117862000Y-169261000D01*
X117862000Y-169261000D01*
G37*
G36*
X84367000Y-169261000D02*
G01*
X82765000Y-169261000D01*
X82765000Y-168559000D01*
X84367000Y-168559000D01*
X84367000Y-169261000D01*
X84367000Y-169261000D01*
G37*
G36*
X123262000Y-167991000D02*
G01*
X121660000Y-167991000D01*
X121660000Y-167289000D01*
X123262000Y-167289000D01*
X123262000Y-167991000D01*
X123262000Y-167991000D01*
G37*
G36*
X89767000Y-167991000D02*
G01*
X88165000Y-167991000D01*
X88165000Y-167289000D01*
X89767000Y-167289000D01*
X89767000Y-167991000D01*
X89767000Y-167991000D01*
G37*
G36*
X117862000Y-167991000D02*
G01*
X116260000Y-167991000D01*
X116260000Y-167289000D01*
X117862000Y-167289000D01*
X117862000Y-167991000D01*
X117862000Y-167991000D01*
G37*
G36*
X84367000Y-167991000D02*
G01*
X82765000Y-167991000D01*
X82765000Y-167289000D01*
X84367000Y-167289000D01*
X84367000Y-167991000D01*
X84367000Y-167991000D01*
G37*
G36*
X80257000Y-167951000D02*
G01*
X79255000Y-167951000D01*
X79255000Y-166649000D01*
X80257000Y-166649000D01*
X80257000Y-167951000D01*
X80257000Y-167951000D01*
G37*
G36*
X76447000Y-167951000D02*
G01*
X75445000Y-167951000D01*
X75445000Y-166649000D01*
X76447000Y-166649000D01*
X76447000Y-167951000D01*
X76447000Y-167951000D01*
G37*
G36*
X78352000Y-167951000D02*
G01*
X77350000Y-167951000D01*
X77350000Y-166649000D01*
X78352000Y-166649000D01*
X78352000Y-167951000D01*
X78352000Y-167951000D01*
G37*
G36*
X123262000Y-166721000D02*
G01*
X121660000Y-166721000D01*
X121660000Y-166019000D01*
X123262000Y-166019000D01*
X123262000Y-166721000D01*
X123262000Y-166721000D01*
G37*
G36*
X89767000Y-166721000D02*
G01*
X88165000Y-166721000D01*
X88165000Y-166019000D01*
X89767000Y-166019000D01*
X89767000Y-166721000D01*
X89767000Y-166721000D01*
G37*
G36*
X84367000Y-166721000D02*
G01*
X82765000Y-166721000D01*
X82765000Y-166019000D01*
X84367000Y-166019000D01*
X84367000Y-166721000D01*
X84367000Y-166721000D01*
G37*
G36*
X117862000Y-166721000D02*
G01*
X116260000Y-166721000D01*
X116260000Y-166019000D01*
X117862000Y-166019000D01*
X117862000Y-166721000D01*
X117862000Y-166721000D01*
G37*
G36*
X142937000Y-166686000D02*
G01*
X141035000Y-166686000D01*
X141035000Y-164784000D01*
X142937000Y-164784000D01*
X142937000Y-166686000D01*
X142937000Y-166686000D01*
G37*
G36*
X139723395Y-164820546D02*
G01*
X139896466Y-164892234D01*
X139896467Y-164892235D01*
X140052227Y-164996310D01*
X140184690Y-165128773D01*
X140184691Y-165128775D01*
X140288766Y-165284534D01*
X140360454Y-165457605D01*
X140397000Y-165641333D01*
X140397000Y-165828667D01*
X140360454Y-166012395D01*
X140288766Y-166185466D01*
X140288765Y-166185467D01*
X140184690Y-166341227D01*
X140052227Y-166473690D01*
X139973818Y-166526081D01*
X139896466Y-166577766D01*
X139723395Y-166649454D01*
X139539667Y-166686000D01*
X139352333Y-166686000D01*
X139168605Y-166649454D01*
X138995534Y-166577766D01*
X138918182Y-166526081D01*
X138839773Y-166473690D01*
X138707310Y-166341227D01*
X138603235Y-166185467D01*
X138603234Y-166185466D01*
X138531546Y-166012395D01*
X138495000Y-165828667D01*
X138495000Y-165641333D01*
X138531546Y-165457605D01*
X138603234Y-165284534D01*
X138707309Y-165128775D01*
X138707310Y-165128773D01*
X138839773Y-164996310D01*
X138995533Y-164892235D01*
X138995534Y-164892234D01*
X139168605Y-164820546D01*
X139352333Y-164784000D01*
X139539667Y-164784000D01*
X139723395Y-164820546D01*
X139723395Y-164820546D01*
G37*
G36*
X148652000Y-166686000D02*
G01*
X146750000Y-166686000D01*
X146750000Y-164784000D01*
X148652000Y-164784000D01*
X148652000Y-166686000D01*
X148652000Y-166686000D01*
G37*
G36*
X150518395Y-164820546D02*
G01*
X150691466Y-164892234D01*
X150691467Y-164892235D01*
X150847227Y-164996310D01*
X150979690Y-165128773D01*
X150979691Y-165128775D01*
X151083766Y-165284534D01*
X151155454Y-165457605D01*
X151192000Y-165641333D01*
X151192000Y-165828667D01*
X151155454Y-166012395D01*
X151083766Y-166185466D01*
X151083765Y-166185467D01*
X150979690Y-166341227D01*
X150847227Y-166473690D01*
X150768818Y-166526081D01*
X150691466Y-166577766D01*
X150518395Y-166649454D01*
X150334667Y-166686000D01*
X150147333Y-166686000D01*
X149963605Y-166649454D01*
X149790534Y-166577766D01*
X149713182Y-166526081D01*
X149634773Y-166473690D01*
X149502310Y-166341227D01*
X149398235Y-166185467D01*
X149398234Y-166185466D01*
X149326546Y-166012395D01*
X149290000Y-165828667D01*
X149290000Y-165641333D01*
X149326546Y-165457605D01*
X149398234Y-165284534D01*
X149502309Y-165128775D01*
X149502310Y-165128773D01*
X149634773Y-164996310D01*
X149790533Y-164892235D01*
X149790534Y-164892234D01*
X149963605Y-164820546D01*
X150147333Y-164784000D01*
X150334667Y-164784000D01*
X150518395Y-164820546D01*
X150518395Y-164820546D01*
G37*
G36*
X154237000Y-166236000D02*
G01*
X152935000Y-166236000D01*
X152935000Y-165234000D01*
X154237000Y-165234000D01*
X154237000Y-166236000D01*
X154237000Y-166236000D01*
G37*
G36*
X156437000Y-166236000D02*
G01*
X155135000Y-166236000D01*
X155135000Y-165234000D01*
X156437000Y-165234000D01*
X156437000Y-166236000D01*
X156437000Y-166236000D01*
G37*
G36*
X134552000Y-166236000D02*
G01*
X133250000Y-166236000D01*
X133250000Y-165234000D01*
X134552000Y-165234000D01*
X134552000Y-166236000D01*
X134552000Y-166236000D01*
G37*
G36*
X136752000Y-166236000D02*
G01*
X135450000Y-166236000D01*
X135450000Y-165234000D01*
X136752000Y-165234000D01*
X136752000Y-166236000D01*
X136752000Y-166236000D01*
G37*
G36*
X80257000Y-165751000D02*
G01*
X79255000Y-165751000D01*
X79255000Y-164449000D01*
X80257000Y-164449000D01*
X80257000Y-165751000D01*
X80257000Y-165751000D01*
G37*
G36*
X76447000Y-165751000D02*
G01*
X75445000Y-165751000D01*
X75445000Y-164449000D01*
X76447000Y-164449000D01*
X76447000Y-165751000D01*
X76447000Y-165751000D01*
G37*
G36*
X78352000Y-165751000D02*
G01*
X77350000Y-165751000D01*
X77350000Y-164449000D01*
X78352000Y-164449000D01*
X78352000Y-165751000D01*
X78352000Y-165751000D01*
G37*
G36*
X100988395Y-162280546D02*
G01*
X101161466Y-162352234D01*
X101161467Y-162352235D01*
X101317227Y-162456310D01*
X101449690Y-162588773D01*
X101449691Y-162588775D01*
X101553766Y-162744534D01*
X101625454Y-162917605D01*
X101662000Y-163101333D01*
X101662000Y-163288667D01*
X101625454Y-163472395D01*
X101553766Y-163645466D01*
X101553765Y-163645467D01*
X101449690Y-163801227D01*
X101317227Y-163933690D01*
X101238818Y-163986081D01*
X101161466Y-164037766D01*
X100988395Y-164109454D01*
X100804667Y-164146000D01*
X100617333Y-164146000D01*
X100433605Y-164109454D01*
X100260534Y-164037766D01*
X100183182Y-163986081D01*
X100104773Y-163933690D01*
X99972310Y-163801227D01*
X99868235Y-163645467D01*
X99868234Y-163645466D01*
X99796546Y-163472395D01*
X99760000Y-163288667D01*
X99760000Y-163101333D01*
X99796546Y-162917605D01*
X99868234Y-162744534D01*
X99972309Y-162588775D01*
X99972310Y-162588773D01*
X100104773Y-162456310D01*
X100260533Y-162352235D01*
X100260534Y-162352234D01*
X100433605Y-162280546D01*
X100617333Y-162244000D01*
X100804667Y-162244000D01*
X100988395Y-162280546D01*
X100988395Y-162280546D01*
G37*
G36*
X104202000Y-164146000D02*
G01*
X102300000Y-164146000D01*
X102300000Y-162244000D01*
X104202000Y-162244000D01*
X104202000Y-164146000D01*
X104202000Y-164146000D01*
G37*
G36*
X96452000Y-163696000D02*
G01*
X95150000Y-163696000D01*
X95150000Y-162694000D01*
X96452000Y-162694000D01*
X96452000Y-163696000D01*
X96452000Y-163696000D01*
G37*
G36*
X98652000Y-163696000D02*
G01*
X97350000Y-163696000D01*
X97350000Y-162694000D01*
X98652000Y-162694000D01*
X98652000Y-163696000D01*
X98652000Y-163696000D01*
G37*
G36*
X76691443Y-161284519D02*
G01*
X76757627Y-161291037D01*
X76927466Y-161342557D01*
X77083991Y-161426222D01*
X77119729Y-161455552D01*
X77221186Y-161538814D01*
X77304448Y-161640271D01*
X77333778Y-161676009D01*
X77417443Y-161832534D01*
X77468963Y-162002373D01*
X77486359Y-162179000D01*
X77468963Y-162355627D01*
X77417443Y-162525466D01*
X77333778Y-162681991D01*
X77323922Y-162694000D01*
X77221186Y-162819186D01*
X77119729Y-162902448D01*
X77083991Y-162931778D01*
X76927466Y-163015443D01*
X76757627Y-163066963D01*
X76691442Y-163073482D01*
X76625260Y-163080000D01*
X76536740Y-163080000D01*
X76470558Y-163073482D01*
X76404373Y-163066963D01*
X76234534Y-163015443D01*
X76078009Y-162931778D01*
X76042271Y-162902448D01*
X75940814Y-162819186D01*
X75838078Y-162694000D01*
X75828222Y-162681991D01*
X75744557Y-162525466D01*
X75693037Y-162355627D01*
X75675641Y-162179000D01*
X75693037Y-162002373D01*
X75744557Y-161832534D01*
X75828222Y-161676009D01*
X75857552Y-161640271D01*
X75940814Y-161538814D01*
X76042271Y-161455552D01*
X76078009Y-161426222D01*
X76234534Y-161342557D01*
X76404373Y-161291037D01*
X76470557Y-161284519D01*
X76536740Y-161278000D01*
X76625260Y-161278000D01*
X76691443Y-161284519D01*
X76691443Y-161284519D01*
G37*
G36*
X79231443Y-161284519D02*
G01*
X79297627Y-161291037D01*
X79467466Y-161342557D01*
X79623991Y-161426222D01*
X79659729Y-161455552D01*
X79761186Y-161538814D01*
X79844448Y-161640271D01*
X79873778Y-161676009D01*
X79957443Y-161832534D01*
X80008963Y-162002373D01*
X80026359Y-162179000D01*
X80008963Y-162355627D01*
X79957443Y-162525466D01*
X79873778Y-162681991D01*
X79863922Y-162694000D01*
X79761186Y-162819186D01*
X79659729Y-162902448D01*
X79623991Y-162931778D01*
X79467466Y-163015443D01*
X79297627Y-163066963D01*
X79231442Y-163073482D01*
X79165260Y-163080000D01*
X79076740Y-163080000D01*
X79010558Y-163073482D01*
X78944373Y-163066963D01*
X78774534Y-163015443D01*
X78618009Y-162931778D01*
X78582271Y-162902448D01*
X78480814Y-162819186D01*
X78378078Y-162694000D01*
X78368222Y-162681991D01*
X78284557Y-162525466D01*
X78233037Y-162355627D01*
X78215641Y-162179000D01*
X78233037Y-162002373D01*
X78284557Y-161832534D01*
X78368222Y-161676009D01*
X78397552Y-161640271D01*
X78480814Y-161538814D01*
X78582271Y-161455552D01*
X78618009Y-161426222D01*
X78774534Y-161342557D01*
X78944373Y-161291037D01*
X79010557Y-161284519D01*
X79076740Y-161278000D01*
X79165260Y-161278000D01*
X79231443Y-161284519D01*
X79231443Y-161284519D01*
G37*
G36*
X169337942Y-159951018D02*
G01*
X169404127Y-159957537D01*
X169573966Y-160009057D01*
X169730491Y-160092722D01*
X169756010Y-160113665D01*
X169867686Y-160205314D01*
X169950948Y-160306771D01*
X169980278Y-160342509D01*
X170063943Y-160499034D01*
X170115463Y-160668873D01*
X170132859Y-160845500D01*
X170115463Y-161022127D01*
X170063943Y-161191966D01*
X169980278Y-161348491D01*
X169950948Y-161384229D01*
X169867686Y-161485686D01*
X169766229Y-161568948D01*
X169730491Y-161598278D01*
X169573966Y-161681943D01*
X169404127Y-161733463D01*
X169337942Y-161739982D01*
X169271760Y-161746500D01*
X169183240Y-161746500D01*
X169117058Y-161739982D01*
X169050873Y-161733463D01*
X168881034Y-161681943D01*
X168724509Y-161598278D01*
X168688771Y-161568948D01*
X168587314Y-161485686D01*
X168504052Y-161384229D01*
X168474722Y-161348491D01*
X168391057Y-161191966D01*
X168339537Y-161022127D01*
X168322141Y-160845500D01*
X168339537Y-160668873D01*
X168391057Y-160499034D01*
X168474722Y-160342509D01*
X168504052Y-160306771D01*
X168587314Y-160205314D01*
X168698990Y-160113665D01*
X168724509Y-160092722D01*
X168881034Y-160009057D01*
X169050873Y-159957537D01*
X169117058Y-159951018D01*
X169183240Y-159944500D01*
X169271760Y-159944500D01*
X169337942Y-159951018D01*
X169337942Y-159951018D01*
G37*
G36*
X142937000Y-160971000D02*
G01*
X141035000Y-160971000D01*
X141035000Y-159069000D01*
X142937000Y-159069000D01*
X142937000Y-160971000D01*
X142937000Y-160971000D01*
G37*
G36*
X148652000Y-160971000D02*
G01*
X146750000Y-160971000D01*
X146750000Y-159069000D01*
X148652000Y-159069000D01*
X148652000Y-160971000D01*
X148652000Y-160971000D01*
G37*
G36*
X150518395Y-159105546D02*
G01*
X150691466Y-159177234D01*
X150768818Y-159228919D01*
X150847227Y-159281310D01*
X150979690Y-159413773D01*
X150979691Y-159413775D01*
X151083766Y-159569534D01*
X151155454Y-159742605D01*
X151192000Y-159926333D01*
X151192000Y-160113667D01*
X151155454Y-160297395D01*
X151083766Y-160470466D01*
X151083765Y-160470467D01*
X150979690Y-160626227D01*
X150847227Y-160758690D01*
X150768818Y-160811081D01*
X150691466Y-160862766D01*
X150518395Y-160934454D01*
X150334667Y-160971000D01*
X150147333Y-160971000D01*
X149963605Y-160934454D01*
X149790534Y-160862766D01*
X149713182Y-160811081D01*
X149634773Y-160758690D01*
X149502310Y-160626227D01*
X149398235Y-160470467D01*
X149398234Y-160470466D01*
X149326546Y-160297395D01*
X149290000Y-160113667D01*
X149290000Y-159926333D01*
X149326546Y-159742605D01*
X149398234Y-159569534D01*
X149502309Y-159413775D01*
X149502310Y-159413773D01*
X149634773Y-159281310D01*
X149713182Y-159228919D01*
X149790534Y-159177234D01*
X149963605Y-159105546D01*
X150147333Y-159069000D01*
X150334667Y-159069000D01*
X150518395Y-159105546D01*
X150518395Y-159105546D01*
G37*
G36*
X139723395Y-159105546D02*
G01*
X139896466Y-159177234D01*
X139973818Y-159228919D01*
X140052227Y-159281310D01*
X140184690Y-159413773D01*
X140184691Y-159413775D01*
X140288766Y-159569534D01*
X140360454Y-159742605D01*
X140397000Y-159926333D01*
X140397000Y-160113667D01*
X140360454Y-160297395D01*
X140288766Y-160470466D01*
X140288765Y-160470467D01*
X140184690Y-160626227D01*
X140052227Y-160758690D01*
X139973818Y-160811081D01*
X139896466Y-160862766D01*
X139723395Y-160934454D01*
X139539667Y-160971000D01*
X139352333Y-160971000D01*
X139168605Y-160934454D01*
X138995534Y-160862766D01*
X138918182Y-160811081D01*
X138839773Y-160758690D01*
X138707310Y-160626227D01*
X138603235Y-160470467D01*
X138603234Y-160470466D01*
X138531546Y-160297395D01*
X138495000Y-160113667D01*
X138495000Y-159926333D01*
X138531546Y-159742605D01*
X138603234Y-159569534D01*
X138707309Y-159413775D01*
X138707310Y-159413773D01*
X138839773Y-159281310D01*
X138918182Y-159228919D01*
X138995534Y-159177234D01*
X139168605Y-159105546D01*
X139352333Y-159069000D01*
X139539667Y-159069000D01*
X139723395Y-159105546D01*
X139723395Y-159105546D01*
G37*
G36*
X79231442Y-158744518D02*
G01*
X79297627Y-158751037D01*
X79467466Y-158802557D01*
X79623991Y-158886222D01*
X79659729Y-158915552D01*
X79761186Y-158998814D01*
X79818785Y-159069000D01*
X79873778Y-159136009D01*
X79957443Y-159292534D01*
X80008963Y-159462373D01*
X80026359Y-159639000D01*
X80008963Y-159815627D01*
X79957443Y-159985466D01*
X79873778Y-160141991D01*
X79844448Y-160177729D01*
X79761186Y-160279186D01*
X79684023Y-160342511D01*
X79623991Y-160391778D01*
X79467466Y-160475443D01*
X79297627Y-160526963D01*
X79231442Y-160533482D01*
X79165260Y-160540000D01*
X79076740Y-160540000D01*
X79010558Y-160533482D01*
X78944373Y-160526963D01*
X78774534Y-160475443D01*
X78618009Y-160391778D01*
X78557977Y-160342511D01*
X78480814Y-160279186D01*
X78397552Y-160177729D01*
X78368222Y-160141991D01*
X78284557Y-159985466D01*
X78233037Y-159815627D01*
X78215641Y-159639000D01*
X78233037Y-159462373D01*
X78284557Y-159292534D01*
X78368222Y-159136009D01*
X78423215Y-159069000D01*
X78480814Y-158998814D01*
X78582271Y-158915552D01*
X78618009Y-158886222D01*
X78774534Y-158802557D01*
X78944373Y-158751037D01*
X79010558Y-158744518D01*
X79076740Y-158738000D01*
X79165260Y-158738000D01*
X79231442Y-158744518D01*
X79231442Y-158744518D01*
G37*
G36*
X76691442Y-158744518D02*
G01*
X76757627Y-158751037D01*
X76927466Y-158802557D01*
X77083991Y-158886222D01*
X77119729Y-158915552D01*
X77221186Y-158998814D01*
X77278785Y-159069000D01*
X77333778Y-159136009D01*
X77417443Y-159292534D01*
X77468963Y-159462373D01*
X77486359Y-159639000D01*
X77468963Y-159815627D01*
X77417443Y-159985466D01*
X77333778Y-160141991D01*
X77304448Y-160177729D01*
X77221186Y-160279186D01*
X77144023Y-160342511D01*
X77083991Y-160391778D01*
X76927466Y-160475443D01*
X76757627Y-160526963D01*
X76691442Y-160533482D01*
X76625260Y-160540000D01*
X76536740Y-160540000D01*
X76470558Y-160533482D01*
X76404373Y-160526963D01*
X76234534Y-160475443D01*
X76078009Y-160391778D01*
X76017977Y-160342511D01*
X75940814Y-160279186D01*
X75857552Y-160177729D01*
X75828222Y-160141991D01*
X75744557Y-159985466D01*
X75693037Y-159815627D01*
X75675641Y-159639000D01*
X75693037Y-159462373D01*
X75744557Y-159292534D01*
X75828222Y-159136009D01*
X75883215Y-159069000D01*
X75940814Y-158998814D01*
X76042271Y-158915552D01*
X76078009Y-158886222D01*
X76234534Y-158802557D01*
X76404373Y-158751037D01*
X76470558Y-158744518D01*
X76536740Y-158738000D01*
X76625260Y-158738000D01*
X76691442Y-158744518D01*
X76691442Y-158744518D01*
G37*
G36*
X134552000Y-160521000D02*
G01*
X133250000Y-160521000D01*
X133250000Y-159519000D01*
X134552000Y-159519000D01*
X134552000Y-160521000D01*
X134552000Y-160521000D01*
G37*
G36*
X136752000Y-160521000D02*
G01*
X135450000Y-160521000D01*
X135450000Y-159519000D01*
X136752000Y-159519000D01*
X136752000Y-160521000D01*
X136752000Y-160521000D01*
G37*
G36*
X154237000Y-160521000D02*
G01*
X152935000Y-160521000D01*
X152935000Y-159519000D01*
X154237000Y-159519000D01*
X154237000Y-160521000D01*
X154237000Y-160521000D01*
G37*
G36*
X156437000Y-160521000D02*
G01*
X155135000Y-160521000D01*
X155135000Y-159519000D01*
X156437000Y-159519000D01*
X156437000Y-160521000D01*
X156437000Y-160521000D01*
G37*
G36*
X169337942Y-157411018D02*
G01*
X169404127Y-157417537D01*
X169573966Y-157469057D01*
X169730491Y-157552722D01*
X169756010Y-157573665D01*
X169867686Y-157665314D01*
X169950948Y-157766771D01*
X169980278Y-157802509D01*
X170063943Y-157959034D01*
X170115463Y-158128873D01*
X170132859Y-158305500D01*
X170115463Y-158482127D01*
X170063943Y-158651966D01*
X169980278Y-158808491D01*
X169950948Y-158844229D01*
X169867686Y-158945686D01*
X169766229Y-159028948D01*
X169730491Y-159058278D01*
X169573966Y-159141943D01*
X169404127Y-159193463D01*
X169337942Y-159199982D01*
X169271760Y-159206500D01*
X169183240Y-159206500D01*
X169117058Y-159199982D01*
X169050873Y-159193463D01*
X168881034Y-159141943D01*
X168724509Y-159058278D01*
X168688771Y-159028948D01*
X168587314Y-158945686D01*
X168504052Y-158844229D01*
X168474722Y-158808491D01*
X168391057Y-158651966D01*
X168339537Y-158482127D01*
X168322141Y-158305500D01*
X168339537Y-158128873D01*
X168391057Y-157959034D01*
X168474722Y-157802509D01*
X168504052Y-157766771D01*
X168587314Y-157665314D01*
X168698990Y-157573665D01*
X168724509Y-157552722D01*
X168881034Y-157469057D01*
X169050873Y-157417537D01*
X169117058Y-157411018D01*
X169183240Y-157404500D01*
X169271760Y-157404500D01*
X169337942Y-157411018D01*
X169337942Y-157411018D01*
G37*
G36*
X87653395Y-156565546D02*
G01*
X87826466Y-156637234D01*
X87903818Y-156688919D01*
X87982227Y-156741310D01*
X88114690Y-156873773D01*
X88114691Y-156873775D01*
X88218766Y-157029534D01*
X88290454Y-157202605D01*
X88327000Y-157386333D01*
X88327000Y-157573667D01*
X88290454Y-157757395D01*
X88218766Y-157930466D01*
X88218765Y-157930467D01*
X88114690Y-158086227D01*
X87982227Y-158218690D01*
X87903818Y-158271081D01*
X87826466Y-158322766D01*
X87653395Y-158394454D01*
X87469667Y-158431000D01*
X87282333Y-158431000D01*
X87098605Y-158394454D01*
X86925534Y-158322766D01*
X86848182Y-158271081D01*
X86769773Y-158218690D01*
X86637310Y-158086227D01*
X86533235Y-157930467D01*
X86533234Y-157930466D01*
X86461546Y-157757395D01*
X86425000Y-157573667D01*
X86425000Y-157386333D01*
X86461546Y-157202605D01*
X86533234Y-157029534D01*
X86637309Y-156873775D01*
X86637310Y-156873773D01*
X86769773Y-156741310D01*
X86848182Y-156688919D01*
X86925534Y-156637234D01*
X87098605Y-156565546D01*
X87282333Y-156529000D01*
X87469667Y-156529000D01*
X87653395Y-156565546D01*
X87653395Y-156565546D01*
G37*
G36*
X104202000Y-158431000D02*
G01*
X102300000Y-158431000D01*
X102300000Y-156529000D01*
X104202000Y-156529000D01*
X104202000Y-158431000D01*
X104202000Y-158431000D01*
G37*
G36*
X100988395Y-156565546D02*
G01*
X101161466Y-156637234D01*
X101238818Y-156688919D01*
X101317227Y-156741310D01*
X101449690Y-156873773D01*
X101449691Y-156873775D01*
X101553766Y-157029534D01*
X101625454Y-157202605D01*
X101662000Y-157386333D01*
X101662000Y-157573667D01*
X101625454Y-157757395D01*
X101553766Y-157930466D01*
X101553765Y-157930467D01*
X101449690Y-158086227D01*
X101317227Y-158218690D01*
X101238818Y-158271081D01*
X101161466Y-158322766D01*
X100988395Y-158394454D01*
X100804667Y-158431000D01*
X100617333Y-158431000D01*
X100433605Y-158394454D01*
X100260534Y-158322766D01*
X100183182Y-158271081D01*
X100104773Y-158218690D01*
X99972310Y-158086227D01*
X99868235Y-157930467D01*
X99868234Y-157930466D01*
X99796546Y-157757395D01*
X99760000Y-157573667D01*
X99760000Y-157386333D01*
X99796546Y-157202605D01*
X99868234Y-157029534D01*
X99972309Y-156873775D01*
X99972310Y-156873773D01*
X100104773Y-156741310D01*
X100183182Y-156688919D01*
X100260534Y-156637234D01*
X100433605Y-156565546D01*
X100617333Y-156529000D01*
X100804667Y-156529000D01*
X100988395Y-156565546D01*
X100988395Y-156565546D01*
G37*
G36*
X90867000Y-158431000D02*
G01*
X88965000Y-158431000D01*
X88965000Y-156529000D01*
X90867000Y-156529000D01*
X90867000Y-158431000D01*
X90867000Y-158431000D01*
G37*
G36*
X79231442Y-156204518D02*
G01*
X79297627Y-156211037D01*
X79467466Y-156262557D01*
X79623991Y-156346222D01*
X79659729Y-156375552D01*
X79761186Y-156458814D01*
X79818785Y-156529000D01*
X79873778Y-156596009D01*
X79957443Y-156752534D01*
X80008963Y-156922373D01*
X80026359Y-157099000D01*
X80008963Y-157275627D01*
X79957443Y-157445466D01*
X79873778Y-157601991D01*
X79844448Y-157637729D01*
X79761186Y-157739186D01*
X79684023Y-157802511D01*
X79623991Y-157851778D01*
X79467466Y-157935443D01*
X79297627Y-157986963D01*
X79231443Y-157993481D01*
X79165260Y-158000000D01*
X79076740Y-158000000D01*
X79010557Y-157993481D01*
X78944373Y-157986963D01*
X78774534Y-157935443D01*
X78618009Y-157851778D01*
X78557977Y-157802511D01*
X78480814Y-157739186D01*
X78397552Y-157637729D01*
X78368222Y-157601991D01*
X78284557Y-157445466D01*
X78233037Y-157275627D01*
X78215641Y-157099000D01*
X78233037Y-156922373D01*
X78284557Y-156752534D01*
X78368222Y-156596009D01*
X78423215Y-156529000D01*
X78480814Y-156458814D01*
X78582271Y-156375552D01*
X78618009Y-156346222D01*
X78774534Y-156262557D01*
X78944373Y-156211037D01*
X79010558Y-156204518D01*
X79076740Y-156198000D01*
X79165260Y-156198000D01*
X79231442Y-156204518D01*
X79231442Y-156204518D01*
G37*
G36*
X76691442Y-156204518D02*
G01*
X76757627Y-156211037D01*
X76927466Y-156262557D01*
X77083991Y-156346222D01*
X77119729Y-156375552D01*
X77221186Y-156458814D01*
X77278785Y-156529000D01*
X77333778Y-156596009D01*
X77417443Y-156752534D01*
X77468963Y-156922373D01*
X77486359Y-157099000D01*
X77468963Y-157275627D01*
X77417443Y-157445466D01*
X77333778Y-157601991D01*
X77304448Y-157637729D01*
X77221186Y-157739186D01*
X77144023Y-157802511D01*
X77083991Y-157851778D01*
X76927466Y-157935443D01*
X76757627Y-157986963D01*
X76691443Y-157993481D01*
X76625260Y-158000000D01*
X76536740Y-158000000D01*
X76470557Y-157993481D01*
X76404373Y-157986963D01*
X76234534Y-157935443D01*
X76078009Y-157851778D01*
X76017977Y-157802511D01*
X75940814Y-157739186D01*
X75857552Y-157637729D01*
X75828222Y-157601991D01*
X75744557Y-157445466D01*
X75693037Y-157275627D01*
X75675641Y-157099000D01*
X75693037Y-156922373D01*
X75744557Y-156752534D01*
X75828222Y-156596009D01*
X75883215Y-156529000D01*
X75940814Y-156458814D01*
X76042271Y-156375552D01*
X76078009Y-156346222D01*
X76234534Y-156262557D01*
X76404373Y-156211037D01*
X76470558Y-156204518D01*
X76536740Y-156198000D01*
X76625260Y-156198000D01*
X76691442Y-156204518D01*
X76691442Y-156204518D01*
G37*
G36*
X96452000Y-157981000D02*
G01*
X95150000Y-157981000D01*
X95150000Y-156979000D01*
X96452000Y-156979000D01*
X96452000Y-157981000D01*
X96452000Y-157981000D01*
G37*
G36*
X98652000Y-157981000D02*
G01*
X97350000Y-157981000D01*
X97350000Y-156979000D01*
X98652000Y-156979000D01*
X98652000Y-157981000D01*
X98652000Y-157981000D01*
G37*
G36*
X169337943Y-154871019D02*
G01*
X169404127Y-154877537D01*
X169573966Y-154929057D01*
X169730491Y-155012722D01*
X169766229Y-155042052D01*
X169867686Y-155125314D01*
X169950948Y-155226771D01*
X169980278Y-155262509D01*
X170063943Y-155419034D01*
X170115463Y-155588873D01*
X170132859Y-155765500D01*
X170115463Y-155942127D01*
X170063943Y-156111966D01*
X169980278Y-156268491D01*
X169950948Y-156304229D01*
X169867686Y-156405686D01*
X169766229Y-156488948D01*
X169730491Y-156518278D01*
X169573966Y-156601943D01*
X169404127Y-156653463D01*
X169337942Y-156659982D01*
X169271760Y-156666500D01*
X169183240Y-156666500D01*
X169117058Y-156659982D01*
X169050873Y-156653463D01*
X168881034Y-156601943D01*
X168724509Y-156518278D01*
X168688771Y-156488948D01*
X168587314Y-156405686D01*
X168504052Y-156304229D01*
X168474722Y-156268491D01*
X168391057Y-156111966D01*
X168339537Y-155942127D01*
X168322141Y-155765500D01*
X168339537Y-155588873D01*
X168391057Y-155419034D01*
X168474722Y-155262509D01*
X168504052Y-155226771D01*
X168587314Y-155125314D01*
X168688771Y-155042052D01*
X168724509Y-155012722D01*
X168881034Y-154929057D01*
X169050873Y-154877537D01*
X169117057Y-154871019D01*
X169183240Y-154864500D01*
X169271760Y-154864500D01*
X169337943Y-154871019D01*
X169337943Y-154871019D01*
G37*
G36*
X79231442Y-153664518D02*
G01*
X79297627Y-153671037D01*
X79467466Y-153722557D01*
X79623991Y-153806222D01*
X79659729Y-153835552D01*
X79761186Y-153918814D01*
X79844448Y-154020271D01*
X79873778Y-154056009D01*
X79957443Y-154212534D01*
X80008963Y-154382373D01*
X80026359Y-154559000D01*
X80008963Y-154735627D01*
X79957443Y-154905466D01*
X79873778Y-155061991D01*
X79844448Y-155097729D01*
X79761186Y-155199186D01*
X79684023Y-155262511D01*
X79623991Y-155311778D01*
X79467466Y-155395443D01*
X79297627Y-155446963D01*
X79231442Y-155453482D01*
X79165260Y-155460000D01*
X79076740Y-155460000D01*
X79010558Y-155453482D01*
X78944373Y-155446963D01*
X78774534Y-155395443D01*
X78618009Y-155311778D01*
X78557977Y-155262511D01*
X78480814Y-155199186D01*
X78397552Y-155097729D01*
X78368222Y-155061991D01*
X78284557Y-154905466D01*
X78233037Y-154735627D01*
X78215641Y-154559000D01*
X78233037Y-154382373D01*
X78284557Y-154212534D01*
X78368222Y-154056009D01*
X78397552Y-154020271D01*
X78480814Y-153918814D01*
X78582271Y-153835552D01*
X78618009Y-153806222D01*
X78774534Y-153722557D01*
X78944373Y-153671037D01*
X79010558Y-153664518D01*
X79076740Y-153658000D01*
X79165260Y-153658000D01*
X79231442Y-153664518D01*
X79231442Y-153664518D01*
G37*
G36*
X76691442Y-153664518D02*
G01*
X76757627Y-153671037D01*
X76927466Y-153722557D01*
X77083991Y-153806222D01*
X77119729Y-153835552D01*
X77221186Y-153918814D01*
X77304448Y-154020271D01*
X77333778Y-154056009D01*
X77417443Y-154212534D01*
X77468963Y-154382373D01*
X77486359Y-154559000D01*
X77468963Y-154735627D01*
X77417443Y-154905466D01*
X77333778Y-155061991D01*
X77304448Y-155097729D01*
X77221186Y-155199186D01*
X77144023Y-155262511D01*
X77083991Y-155311778D01*
X76927466Y-155395443D01*
X76757627Y-155446963D01*
X76691442Y-155453482D01*
X76625260Y-155460000D01*
X76536740Y-155460000D01*
X76470558Y-155453482D01*
X76404373Y-155446963D01*
X76234534Y-155395443D01*
X76078009Y-155311778D01*
X76017977Y-155262511D01*
X75940814Y-155199186D01*
X75857552Y-155097729D01*
X75828222Y-155061991D01*
X75744557Y-154905466D01*
X75693037Y-154735627D01*
X75675641Y-154559000D01*
X75693037Y-154382373D01*
X75744557Y-154212534D01*
X75828222Y-154056009D01*
X75857552Y-154020271D01*
X75940814Y-153918814D01*
X76042271Y-153835552D01*
X76078009Y-153806222D01*
X76234534Y-153722557D01*
X76404373Y-153671037D01*
X76470558Y-153664518D01*
X76536740Y-153658000D01*
X76625260Y-153658000D01*
X76691442Y-153664518D01*
X76691442Y-153664518D01*
G37*
G36*
X139723395Y-153390546D02*
G01*
X139896466Y-153462234D01*
X139896467Y-153462235D01*
X140052227Y-153566310D01*
X140184690Y-153698773D01*
X140237081Y-153777182D01*
X140288766Y-153854534D01*
X140360454Y-154027605D01*
X140397000Y-154211333D01*
X140397000Y-154398667D01*
X140360454Y-154582395D01*
X140288766Y-154755466D01*
X140288765Y-154755467D01*
X140184690Y-154911227D01*
X140052227Y-155043690D01*
X140024840Y-155061989D01*
X139896466Y-155147766D01*
X139723395Y-155219454D01*
X139539667Y-155256000D01*
X139352333Y-155256000D01*
X139168605Y-155219454D01*
X138995534Y-155147766D01*
X138867160Y-155061989D01*
X138839773Y-155043690D01*
X138707310Y-154911227D01*
X138603235Y-154755467D01*
X138603234Y-154755466D01*
X138531546Y-154582395D01*
X138495000Y-154398667D01*
X138495000Y-154211333D01*
X138531546Y-154027605D01*
X138603234Y-153854534D01*
X138654919Y-153777182D01*
X138707310Y-153698773D01*
X138839773Y-153566310D01*
X138995533Y-153462235D01*
X138995534Y-153462234D01*
X139168605Y-153390546D01*
X139352333Y-153354000D01*
X139539667Y-153354000D01*
X139723395Y-153390546D01*
X139723395Y-153390546D01*
G37*
G36*
X142937000Y-155256000D02*
G01*
X141035000Y-155256000D01*
X141035000Y-153354000D01*
X142937000Y-153354000D01*
X142937000Y-155256000D01*
X142937000Y-155256000D01*
G37*
G36*
X148652000Y-155256000D02*
G01*
X146750000Y-155256000D01*
X146750000Y-153354000D01*
X148652000Y-153354000D01*
X148652000Y-155256000D01*
X148652000Y-155256000D01*
G37*
G36*
X150518395Y-153390546D02*
G01*
X150691466Y-153462234D01*
X150691467Y-153462235D01*
X150847227Y-153566310D01*
X150979690Y-153698773D01*
X151032081Y-153777182D01*
X151083766Y-153854534D01*
X151155454Y-154027605D01*
X151192000Y-154211333D01*
X151192000Y-154398667D01*
X151155454Y-154582395D01*
X151083766Y-154755466D01*
X151083765Y-154755467D01*
X150979690Y-154911227D01*
X150847227Y-155043690D01*
X150819840Y-155061989D01*
X150691466Y-155147766D01*
X150518395Y-155219454D01*
X150334667Y-155256000D01*
X150147333Y-155256000D01*
X149963605Y-155219454D01*
X149790534Y-155147766D01*
X149662160Y-155061989D01*
X149634773Y-155043690D01*
X149502310Y-154911227D01*
X149398235Y-154755467D01*
X149398234Y-154755466D01*
X149326546Y-154582395D01*
X149290000Y-154398667D01*
X149290000Y-154211333D01*
X149326546Y-154027605D01*
X149398234Y-153854534D01*
X149449919Y-153777182D01*
X149502310Y-153698773D01*
X149634773Y-153566310D01*
X149790533Y-153462235D01*
X149790534Y-153462234D01*
X149963605Y-153390546D01*
X150147333Y-153354000D01*
X150334667Y-153354000D01*
X150518395Y-153390546D01*
X150518395Y-153390546D01*
G37*
G36*
X136752000Y-154806000D02*
G01*
X135450000Y-154806000D01*
X135450000Y-153804000D01*
X136752000Y-153804000D01*
X136752000Y-154806000D01*
X136752000Y-154806000D01*
G37*
G36*
X154237000Y-154806000D02*
G01*
X152935000Y-154806000D01*
X152935000Y-153804000D01*
X154237000Y-153804000D01*
X154237000Y-154806000D01*
X154237000Y-154806000D01*
G37*
G36*
X134552000Y-154806000D02*
G01*
X133250000Y-154806000D01*
X133250000Y-153804000D01*
X134552000Y-153804000D01*
X134552000Y-154806000D01*
X134552000Y-154806000D01*
G37*
G36*
X156437000Y-154806000D02*
G01*
X155135000Y-154806000D01*
X155135000Y-153804000D01*
X156437000Y-153804000D01*
X156437000Y-154806000D01*
X156437000Y-154806000D01*
G37*
G36*
X170128500Y-154126500D02*
G01*
X168326500Y-154126500D01*
X168326500Y-152324500D01*
X170128500Y-152324500D01*
X170128500Y-154126500D01*
X170128500Y-154126500D01*
G37*
G36*
X84702000Y-153981000D02*
G01*
X83700000Y-153981000D01*
X83700000Y-152679000D01*
X84702000Y-152679000D01*
X84702000Y-153981000D01*
X84702000Y-153981000D01*
G37*
G36*
X80022000Y-152920000D02*
G01*
X78220000Y-152920000D01*
X78220000Y-151118000D01*
X80022000Y-151118000D01*
X80022000Y-152920000D01*
X80022000Y-152920000D01*
G37*
G36*
X76691443Y-151124519D02*
G01*
X76757627Y-151131037D01*
X76927466Y-151182557D01*
X77083991Y-151266222D01*
X77119729Y-151295552D01*
X77221186Y-151378814D01*
X77304448Y-151480271D01*
X77333778Y-151516009D01*
X77417443Y-151672534D01*
X77468963Y-151842373D01*
X77486359Y-152019000D01*
X77468963Y-152195627D01*
X77417443Y-152365466D01*
X77333778Y-152521991D01*
X77304448Y-152557729D01*
X77221186Y-152659186D01*
X77119729Y-152742448D01*
X77083991Y-152771778D01*
X76927466Y-152855443D01*
X76757627Y-152906963D01*
X76691442Y-152913482D01*
X76625260Y-152920000D01*
X76536740Y-152920000D01*
X76470558Y-152913482D01*
X76404373Y-152906963D01*
X76234534Y-152855443D01*
X76078009Y-152771778D01*
X76042271Y-152742448D01*
X75940814Y-152659186D01*
X75857552Y-152557729D01*
X75828222Y-152521991D01*
X75744557Y-152365466D01*
X75693037Y-152195627D01*
X75675641Y-152019000D01*
X75693037Y-151842373D01*
X75744557Y-151672534D01*
X75828222Y-151516009D01*
X75857552Y-151480271D01*
X75940814Y-151378814D01*
X76042271Y-151295552D01*
X76078009Y-151266222D01*
X76234534Y-151182557D01*
X76404373Y-151131037D01*
X76470557Y-151124519D01*
X76536740Y-151118000D01*
X76625260Y-151118000D01*
X76691443Y-151124519D01*
X76691443Y-151124519D01*
G37*
G36*
X100988395Y-150850546D02*
G01*
X101161466Y-150922234D01*
X101161467Y-150922235D01*
X101317227Y-151026310D01*
X101449690Y-151158773D01*
X101493049Y-151223665D01*
X101553766Y-151314534D01*
X101625454Y-151487605D01*
X101662000Y-151671333D01*
X101662000Y-151858667D01*
X101625454Y-152042395D01*
X101553766Y-152215466D01*
X101553765Y-152215467D01*
X101449690Y-152371227D01*
X101317227Y-152503690D01*
X101289840Y-152521989D01*
X101161466Y-152607766D01*
X100988395Y-152679454D01*
X100804667Y-152716000D01*
X100617333Y-152716000D01*
X100433605Y-152679454D01*
X100260534Y-152607766D01*
X100132160Y-152521989D01*
X100104773Y-152503690D01*
X99972310Y-152371227D01*
X99868235Y-152215467D01*
X99868234Y-152215466D01*
X99796546Y-152042395D01*
X99760000Y-151858667D01*
X99760000Y-151671333D01*
X99796546Y-151487605D01*
X99868234Y-151314534D01*
X99928951Y-151223665D01*
X99972310Y-151158773D01*
X100104773Y-151026310D01*
X100260533Y-150922235D01*
X100260534Y-150922234D01*
X100433605Y-150850546D01*
X100617333Y-150814000D01*
X100804667Y-150814000D01*
X100988395Y-150850546D01*
X100988395Y-150850546D01*
G37*
G36*
X104202000Y-152716000D02*
G01*
X102300000Y-152716000D01*
X102300000Y-150814000D01*
X104202000Y-150814000D01*
X104202000Y-152716000D01*
X104202000Y-152716000D01*
G37*
G36*
X98652000Y-152266000D02*
G01*
X97350000Y-152266000D01*
X97350000Y-151264000D01*
X98652000Y-151264000D01*
X98652000Y-152266000D01*
X98652000Y-152266000D01*
G37*
G36*
X96452000Y-152266000D02*
G01*
X95150000Y-152266000D01*
X95150000Y-151264000D01*
X96452000Y-151264000D01*
X96452000Y-152266000D01*
X96452000Y-152266000D01*
G37*
G36*
X90867000Y-152081000D02*
G01*
X88965000Y-152081000D01*
X88965000Y-150179000D01*
X90867000Y-150179000D01*
X90867000Y-152081000D01*
X90867000Y-152081000D01*
G37*
G36*
X87653395Y-150215546D02*
G01*
X87826466Y-150287234D01*
X87826467Y-150287235D01*
X87982227Y-150391310D01*
X88114690Y-150523773D01*
X88114691Y-150523775D01*
X88218766Y-150679534D01*
X88290454Y-150852605D01*
X88327000Y-151036333D01*
X88327000Y-151223667D01*
X88290454Y-151407395D01*
X88218766Y-151580466D01*
X88218765Y-151580467D01*
X88114690Y-151736227D01*
X87982227Y-151868690D01*
X87903818Y-151921081D01*
X87826466Y-151972766D01*
X87653395Y-152044454D01*
X87469667Y-152081000D01*
X87282333Y-152081000D01*
X87098605Y-152044454D01*
X86925534Y-151972766D01*
X86848182Y-151921081D01*
X86769773Y-151868690D01*
X86637310Y-151736227D01*
X86533235Y-151580467D01*
X86533234Y-151580466D01*
X86461546Y-151407395D01*
X86425000Y-151223667D01*
X86425000Y-151036333D01*
X86461546Y-150852605D01*
X86533234Y-150679534D01*
X86637309Y-150523775D01*
X86637310Y-150523773D01*
X86769773Y-150391310D01*
X86925533Y-150287235D01*
X86925534Y-150287234D01*
X87098605Y-150215546D01*
X87282333Y-150179000D01*
X87469667Y-150179000D01*
X87653395Y-150215546D01*
X87653395Y-150215546D01*
G37*
G36*
X84702000Y-151781000D02*
G01*
X83700000Y-151781000D01*
X83700000Y-150479000D01*
X84702000Y-150479000D01*
X84702000Y-151781000D01*
X84702000Y-151781000D01*
G37*
G36*
X127687564Y-145729389D02*
G01*
X127878833Y-145808615D01*
X127878835Y-145808616D01*
X128050973Y-145923635D01*
X128197365Y-146070027D01*
X128312385Y-146242167D01*
X128391611Y-146433436D01*
X128432000Y-146636484D01*
X128432000Y-146843516D01*
X128391611Y-147046564D01*
X128312385Y-147237833D01*
X128312384Y-147237835D01*
X128197365Y-147409973D01*
X128050973Y-147556365D01*
X127878835Y-147671384D01*
X127878834Y-147671385D01*
X127878833Y-147671385D01*
X127687564Y-147750611D01*
X127484516Y-147791000D01*
X127277484Y-147791000D01*
X127074436Y-147750611D01*
X126883167Y-147671385D01*
X126883166Y-147671385D01*
X126883165Y-147671384D01*
X126711027Y-147556365D01*
X126564635Y-147409973D01*
X126449616Y-147237835D01*
X126449615Y-147237833D01*
X126370389Y-147046564D01*
X126330000Y-146843516D01*
X126330000Y-146636484D01*
X126370389Y-146433436D01*
X126449615Y-146242167D01*
X126564635Y-146070027D01*
X126711027Y-145923635D01*
X126883165Y-145808616D01*
X126883167Y-145808615D01*
X127074436Y-145729389D01*
X127277484Y-145689000D01*
X127484516Y-145689000D01*
X127687564Y-145729389D01*
X127687564Y-145729389D01*
G37*
G36*
X123392564Y-145729389D02*
G01*
X123583833Y-145808615D01*
X123583835Y-145808616D01*
X123755973Y-145923635D01*
X123902365Y-146070027D01*
X124017385Y-146242167D01*
X124096611Y-146433436D01*
X124137000Y-146636484D01*
X124137000Y-146843516D01*
X124096611Y-147046564D01*
X124017385Y-147237833D01*
X124017384Y-147237835D01*
X123902365Y-147409973D01*
X123755973Y-147556365D01*
X123583835Y-147671384D01*
X123583834Y-147671385D01*
X123583833Y-147671385D01*
X123392564Y-147750611D01*
X123189516Y-147791000D01*
X122982484Y-147791000D01*
X122779436Y-147750611D01*
X122588167Y-147671385D01*
X122588166Y-147671385D01*
X122588165Y-147671384D01*
X122416027Y-147556365D01*
X122269635Y-147409973D01*
X122154616Y-147237835D01*
X122154615Y-147237833D01*
X122075389Y-147046564D01*
X122035000Y-146843516D01*
X122035000Y-146636484D01*
X122075389Y-146433436D01*
X122154615Y-146242167D01*
X122269635Y-146070027D01*
X122416027Y-145923635D01*
X122588165Y-145808616D01*
X122588167Y-145808615D01*
X122779436Y-145729389D01*
X122982484Y-145689000D01*
X123189516Y-145689000D01*
X123392564Y-145729389D01*
X123392564Y-145729389D01*
G37*
G36*
X112597564Y-145729389D02*
G01*
X112788833Y-145808615D01*
X112788835Y-145808616D01*
X112960973Y-145923635D01*
X113107365Y-146070027D01*
X113222385Y-146242167D01*
X113301611Y-146433436D01*
X113342000Y-146636484D01*
X113342000Y-146843516D01*
X113301611Y-147046564D01*
X113222385Y-147237833D01*
X113222384Y-147237835D01*
X113107365Y-147409973D01*
X112960973Y-147556365D01*
X112788835Y-147671384D01*
X112788834Y-147671385D01*
X112788833Y-147671385D01*
X112597564Y-147750611D01*
X112394516Y-147791000D01*
X112187484Y-147791000D01*
X111984436Y-147750611D01*
X111793167Y-147671385D01*
X111793166Y-147671385D01*
X111793165Y-147671384D01*
X111621027Y-147556365D01*
X111474635Y-147409973D01*
X111359616Y-147237835D01*
X111359615Y-147237833D01*
X111280389Y-147046564D01*
X111240000Y-146843516D01*
X111240000Y-146636484D01*
X111280389Y-146433436D01*
X111359615Y-146242167D01*
X111474635Y-146070027D01*
X111621027Y-145923635D01*
X111793165Y-145808616D01*
X111793167Y-145808615D01*
X111984436Y-145729389D01*
X112187484Y-145689000D01*
X112394516Y-145689000D01*
X112597564Y-145729389D01*
X112597564Y-145729389D01*
G37*
G36*
X106097564Y-145729389D02*
G01*
X106288833Y-145808615D01*
X106288835Y-145808616D01*
X106460973Y-145923635D01*
X106607365Y-146070027D01*
X106722385Y-146242167D01*
X106801611Y-146433436D01*
X106842000Y-146636484D01*
X106842000Y-146843516D01*
X106801611Y-147046564D01*
X106722385Y-147237833D01*
X106722384Y-147237835D01*
X106607365Y-147409973D01*
X106460973Y-147556365D01*
X106288835Y-147671384D01*
X106288834Y-147671385D01*
X106288833Y-147671385D01*
X106097564Y-147750611D01*
X105894516Y-147791000D01*
X105687484Y-147791000D01*
X105484436Y-147750611D01*
X105293167Y-147671385D01*
X105293166Y-147671385D01*
X105293165Y-147671384D01*
X105121027Y-147556365D01*
X104974635Y-147409973D01*
X104859616Y-147237835D01*
X104859615Y-147237833D01*
X104780389Y-147046564D01*
X104740000Y-146843516D01*
X104740000Y-146636484D01*
X104780389Y-146433436D01*
X104859615Y-146242167D01*
X104974635Y-146070027D01*
X105121027Y-145923635D01*
X105293165Y-145808616D01*
X105293167Y-145808615D01*
X105484436Y-145729389D01*
X105687484Y-145689000D01*
X105894516Y-145689000D01*
X106097564Y-145729389D01*
X106097564Y-145729389D01*
G37*
G36*
X95302564Y-145729389D02*
G01*
X95493833Y-145808615D01*
X95493835Y-145808616D01*
X95665973Y-145923635D01*
X95812365Y-146070027D01*
X95927385Y-146242167D01*
X96006611Y-146433436D01*
X96047000Y-146636484D01*
X96047000Y-146843516D01*
X96006611Y-147046564D01*
X95927385Y-147237833D01*
X95927384Y-147237835D01*
X95812365Y-147409973D01*
X95665973Y-147556365D01*
X95493835Y-147671384D01*
X95493834Y-147671385D01*
X95493833Y-147671385D01*
X95302564Y-147750611D01*
X95099516Y-147791000D01*
X94892484Y-147791000D01*
X94689436Y-147750611D01*
X94498167Y-147671385D01*
X94498166Y-147671385D01*
X94498165Y-147671384D01*
X94326027Y-147556365D01*
X94179635Y-147409973D01*
X94064616Y-147237835D01*
X94064615Y-147237833D01*
X93985389Y-147046564D01*
X93945000Y-146843516D01*
X93945000Y-146636484D01*
X93985389Y-146433436D01*
X94064615Y-146242167D01*
X94179635Y-146070027D01*
X94326027Y-145923635D01*
X94498165Y-145808616D01*
X94498167Y-145808615D01*
X94689436Y-145729389D01*
X94892484Y-145689000D01*
X95099516Y-145689000D01*
X95302564Y-145729389D01*
X95302564Y-145729389D01*
G37*
G36*
X91007564Y-145729389D02*
G01*
X91198833Y-145808615D01*
X91198835Y-145808616D01*
X91370973Y-145923635D01*
X91517365Y-146070027D01*
X91632385Y-146242167D01*
X91711611Y-146433436D01*
X91752000Y-146636484D01*
X91752000Y-146843516D01*
X91711611Y-147046564D01*
X91632385Y-147237833D01*
X91632384Y-147237835D01*
X91517365Y-147409973D01*
X91370973Y-147556365D01*
X91198835Y-147671384D01*
X91198834Y-147671385D01*
X91198833Y-147671385D01*
X91007564Y-147750611D01*
X90804516Y-147791000D01*
X90597484Y-147791000D01*
X90394436Y-147750611D01*
X90203167Y-147671385D01*
X90203166Y-147671385D01*
X90203165Y-147671384D01*
X90031027Y-147556365D01*
X89884635Y-147409973D01*
X89769616Y-147237835D01*
X89769615Y-147237833D01*
X89690389Y-147046564D01*
X89650000Y-146843516D01*
X89650000Y-146636484D01*
X89690389Y-146433436D01*
X89769615Y-146242167D01*
X89884635Y-146070027D01*
X90031027Y-145923635D01*
X90203165Y-145808616D01*
X90203167Y-145808615D01*
X90394436Y-145729389D01*
X90597484Y-145689000D01*
X90804516Y-145689000D01*
X91007564Y-145729389D01*
X91007564Y-145729389D01*
G37*
G36*
X84507564Y-145729389D02*
G01*
X84698833Y-145808615D01*
X84698835Y-145808616D01*
X84870973Y-145923635D01*
X85017365Y-146070027D01*
X85132385Y-146242167D01*
X85211611Y-146433436D01*
X85252000Y-146636484D01*
X85252000Y-146843516D01*
X85211611Y-147046564D01*
X85132385Y-147237833D01*
X85132384Y-147237835D01*
X85017365Y-147409973D01*
X84870973Y-147556365D01*
X84698835Y-147671384D01*
X84698834Y-147671385D01*
X84698833Y-147671385D01*
X84507564Y-147750611D01*
X84304516Y-147791000D01*
X84097484Y-147791000D01*
X83894436Y-147750611D01*
X83703167Y-147671385D01*
X83703166Y-147671385D01*
X83703165Y-147671384D01*
X83531027Y-147556365D01*
X83384635Y-147409973D01*
X83269616Y-147237835D01*
X83269615Y-147237833D01*
X83190389Y-147046564D01*
X83150000Y-146843516D01*
X83150000Y-146636484D01*
X83190389Y-146433436D01*
X83269615Y-146242167D01*
X83384635Y-146070027D01*
X83531027Y-145923635D01*
X83703165Y-145808616D01*
X83703167Y-145808615D01*
X83894436Y-145729389D01*
X84097484Y-145689000D01*
X84304516Y-145689000D01*
X84507564Y-145729389D01*
X84507564Y-145729389D01*
G37*
G36*
X134187564Y-145729389D02*
G01*
X134378833Y-145808615D01*
X134378835Y-145808616D01*
X134550973Y-145923635D01*
X134697365Y-146070027D01*
X134812385Y-146242167D01*
X134891611Y-146433436D01*
X134932000Y-146636484D01*
X134932000Y-146843516D01*
X134891611Y-147046564D01*
X134812385Y-147237833D01*
X134812384Y-147237835D01*
X134697365Y-147409973D01*
X134550973Y-147556365D01*
X134378835Y-147671384D01*
X134378834Y-147671385D01*
X134378833Y-147671385D01*
X134187564Y-147750611D01*
X133984516Y-147791000D01*
X133777484Y-147791000D01*
X133574436Y-147750611D01*
X133383167Y-147671385D01*
X133383166Y-147671385D01*
X133383165Y-147671384D01*
X133211027Y-147556365D01*
X133064635Y-147409973D01*
X132949616Y-147237835D01*
X132949615Y-147237833D01*
X132870389Y-147046564D01*
X132830000Y-146843516D01*
X132830000Y-146636484D01*
X132870389Y-146433436D01*
X132949615Y-146242167D01*
X133064635Y-146070027D01*
X133211027Y-145923635D01*
X133383165Y-145808616D01*
X133383167Y-145808615D01*
X133574436Y-145729389D01*
X133777484Y-145689000D01*
X133984516Y-145689000D01*
X134187564Y-145729389D01*
X134187564Y-145729389D01*
G37*
G36*
X116892564Y-145729389D02*
G01*
X117083833Y-145808615D01*
X117083835Y-145808616D01*
X117255973Y-145923635D01*
X117402365Y-146070027D01*
X117517385Y-146242167D01*
X117596611Y-146433436D01*
X117637000Y-146636484D01*
X117637000Y-146843516D01*
X117596611Y-147046564D01*
X117517385Y-147237833D01*
X117517384Y-147237835D01*
X117402365Y-147409973D01*
X117255973Y-147556365D01*
X117083835Y-147671384D01*
X117083834Y-147671385D01*
X117083833Y-147671385D01*
X116892564Y-147750611D01*
X116689516Y-147791000D01*
X116482484Y-147791000D01*
X116279436Y-147750611D01*
X116088167Y-147671385D01*
X116088166Y-147671385D01*
X116088165Y-147671384D01*
X115916027Y-147556365D01*
X115769635Y-147409973D01*
X115654616Y-147237835D01*
X115654615Y-147237833D01*
X115575389Y-147046564D01*
X115535000Y-146843516D01*
X115535000Y-146636484D01*
X115575389Y-146433436D01*
X115654615Y-146242167D01*
X115769635Y-146070027D01*
X115916027Y-145923635D01*
X116088165Y-145808616D01*
X116088167Y-145808615D01*
X116279436Y-145729389D01*
X116482484Y-145689000D01*
X116689516Y-145689000D01*
X116892564Y-145729389D01*
X116892564Y-145729389D01*
G37*
G36*
X101802564Y-145729389D02*
G01*
X101993833Y-145808615D01*
X101993835Y-145808616D01*
X102165973Y-145923635D01*
X102312365Y-146070027D01*
X102427385Y-146242167D01*
X102506611Y-146433436D01*
X102547000Y-146636484D01*
X102547000Y-146843516D01*
X102506611Y-147046564D01*
X102427385Y-147237833D01*
X102427384Y-147237835D01*
X102312365Y-147409973D01*
X102165973Y-147556365D01*
X101993835Y-147671384D01*
X101993834Y-147671385D01*
X101993833Y-147671385D01*
X101802564Y-147750611D01*
X101599516Y-147791000D01*
X101392484Y-147791000D01*
X101189436Y-147750611D01*
X100998167Y-147671385D01*
X100998166Y-147671385D01*
X100998165Y-147671384D01*
X100826027Y-147556365D01*
X100679635Y-147409973D01*
X100564616Y-147237835D01*
X100564615Y-147237833D01*
X100485389Y-147046564D01*
X100445000Y-146843516D01*
X100445000Y-146636484D01*
X100485389Y-146433436D01*
X100564615Y-146242167D01*
X100679635Y-146070027D01*
X100826027Y-145923635D01*
X100998165Y-145808616D01*
X100998167Y-145808615D01*
X101189436Y-145729389D01*
X101392484Y-145689000D01*
X101599516Y-145689000D01*
X101802564Y-145729389D01*
X101802564Y-145729389D01*
G37*
G36*
X134187564Y-141229389D02*
G01*
X134378833Y-141308615D01*
X134378835Y-141308616D01*
X134550973Y-141423635D01*
X134697365Y-141570027D01*
X134812385Y-141742167D01*
X134891611Y-141933436D01*
X134932000Y-142136484D01*
X134932000Y-142343516D01*
X134891611Y-142546564D01*
X134812385Y-142737833D01*
X134812384Y-142737835D01*
X134697365Y-142909973D01*
X134550973Y-143056365D01*
X134378835Y-143171384D01*
X134378834Y-143171385D01*
X134378833Y-143171385D01*
X134187564Y-143250611D01*
X133984516Y-143291000D01*
X133777484Y-143291000D01*
X133574436Y-143250611D01*
X133383167Y-143171385D01*
X133383166Y-143171385D01*
X133383165Y-143171384D01*
X133211027Y-143056365D01*
X133064635Y-142909973D01*
X132949616Y-142737835D01*
X132949615Y-142737833D01*
X132870389Y-142546564D01*
X132830000Y-142343516D01*
X132830000Y-142136484D01*
X132870389Y-141933436D01*
X132949615Y-141742167D01*
X133064635Y-141570027D01*
X133211027Y-141423635D01*
X133383165Y-141308616D01*
X133383167Y-141308615D01*
X133574436Y-141229389D01*
X133777484Y-141189000D01*
X133984516Y-141189000D01*
X134187564Y-141229389D01*
X134187564Y-141229389D01*
G37*
G36*
X116892564Y-141229389D02*
G01*
X117083833Y-141308615D01*
X117083835Y-141308616D01*
X117255973Y-141423635D01*
X117402365Y-141570027D01*
X117517385Y-141742167D01*
X117596611Y-141933436D01*
X117637000Y-142136484D01*
X117637000Y-142343516D01*
X117596611Y-142546564D01*
X117517385Y-142737833D01*
X117517384Y-142737835D01*
X117402365Y-142909973D01*
X117255973Y-143056365D01*
X117083835Y-143171384D01*
X117083834Y-143171385D01*
X117083833Y-143171385D01*
X116892564Y-143250611D01*
X116689516Y-143291000D01*
X116482484Y-143291000D01*
X116279436Y-143250611D01*
X116088167Y-143171385D01*
X116088166Y-143171385D01*
X116088165Y-143171384D01*
X115916027Y-143056365D01*
X115769635Y-142909973D01*
X115654616Y-142737835D01*
X115654615Y-142737833D01*
X115575389Y-142546564D01*
X115535000Y-142343516D01*
X115535000Y-142136484D01*
X115575389Y-141933436D01*
X115654615Y-141742167D01*
X115769635Y-141570027D01*
X115916027Y-141423635D01*
X116088165Y-141308616D01*
X116088167Y-141308615D01*
X116279436Y-141229389D01*
X116482484Y-141189000D01*
X116689516Y-141189000D01*
X116892564Y-141229389D01*
X116892564Y-141229389D01*
G37*
G36*
X112597564Y-141229389D02*
G01*
X112788833Y-141308615D01*
X112788835Y-141308616D01*
X112960973Y-141423635D01*
X113107365Y-141570027D01*
X113222385Y-141742167D01*
X113301611Y-141933436D01*
X113342000Y-142136484D01*
X113342000Y-142343516D01*
X113301611Y-142546564D01*
X113222385Y-142737833D01*
X113222384Y-142737835D01*
X113107365Y-142909973D01*
X112960973Y-143056365D01*
X112788835Y-143171384D01*
X112788834Y-143171385D01*
X112788833Y-143171385D01*
X112597564Y-143250611D01*
X112394516Y-143291000D01*
X112187484Y-143291000D01*
X111984436Y-143250611D01*
X111793167Y-143171385D01*
X111793166Y-143171385D01*
X111793165Y-143171384D01*
X111621027Y-143056365D01*
X111474635Y-142909973D01*
X111359616Y-142737835D01*
X111359615Y-142737833D01*
X111280389Y-142546564D01*
X111240000Y-142343516D01*
X111240000Y-142136484D01*
X111280389Y-141933436D01*
X111359615Y-141742167D01*
X111474635Y-141570027D01*
X111621027Y-141423635D01*
X111793165Y-141308616D01*
X111793167Y-141308615D01*
X111984436Y-141229389D01*
X112187484Y-141189000D01*
X112394516Y-141189000D01*
X112597564Y-141229389D01*
X112597564Y-141229389D01*
G37*
G36*
X106097564Y-141229389D02*
G01*
X106288833Y-141308615D01*
X106288835Y-141308616D01*
X106460973Y-141423635D01*
X106607365Y-141570027D01*
X106722385Y-141742167D01*
X106801611Y-141933436D01*
X106842000Y-142136484D01*
X106842000Y-142343516D01*
X106801611Y-142546564D01*
X106722385Y-142737833D01*
X106722384Y-142737835D01*
X106607365Y-142909973D01*
X106460973Y-143056365D01*
X106288835Y-143171384D01*
X106288834Y-143171385D01*
X106288833Y-143171385D01*
X106097564Y-143250611D01*
X105894516Y-143291000D01*
X105687484Y-143291000D01*
X105484436Y-143250611D01*
X105293167Y-143171385D01*
X105293166Y-143171385D01*
X105293165Y-143171384D01*
X105121027Y-143056365D01*
X104974635Y-142909973D01*
X104859616Y-142737835D01*
X104859615Y-142737833D01*
X104780389Y-142546564D01*
X104740000Y-142343516D01*
X104740000Y-142136484D01*
X104780389Y-141933436D01*
X104859615Y-141742167D01*
X104974635Y-141570027D01*
X105121027Y-141423635D01*
X105293165Y-141308616D01*
X105293167Y-141308615D01*
X105484436Y-141229389D01*
X105687484Y-141189000D01*
X105894516Y-141189000D01*
X106097564Y-141229389D01*
X106097564Y-141229389D01*
G37*
G36*
X101802564Y-141229389D02*
G01*
X101993833Y-141308615D01*
X101993835Y-141308616D01*
X102165973Y-141423635D01*
X102312365Y-141570027D01*
X102427385Y-141742167D01*
X102506611Y-141933436D01*
X102547000Y-142136484D01*
X102547000Y-142343516D01*
X102506611Y-142546564D01*
X102427385Y-142737833D01*
X102427384Y-142737835D01*
X102312365Y-142909973D01*
X102165973Y-143056365D01*
X101993835Y-143171384D01*
X101993834Y-143171385D01*
X101993833Y-143171385D01*
X101802564Y-143250611D01*
X101599516Y-143291000D01*
X101392484Y-143291000D01*
X101189436Y-143250611D01*
X100998167Y-143171385D01*
X100998166Y-143171385D01*
X100998165Y-143171384D01*
X100826027Y-143056365D01*
X100679635Y-142909973D01*
X100564616Y-142737835D01*
X100564615Y-142737833D01*
X100485389Y-142546564D01*
X100445000Y-142343516D01*
X100445000Y-142136484D01*
X100485389Y-141933436D01*
X100564615Y-141742167D01*
X100679635Y-141570027D01*
X100826027Y-141423635D01*
X100998165Y-141308616D01*
X100998167Y-141308615D01*
X101189436Y-141229389D01*
X101392484Y-141189000D01*
X101599516Y-141189000D01*
X101802564Y-141229389D01*
X101802564Y-141229389D01*
G37*
G36*
X95302564Y-141229389D02*
G01*
X95493833Y-141308615D01*
X95493835Y-141308616D01*
X95665973Y-141423635D01*
X95812365Y-141570027D01*
X95927385Y-141742167D01*
X96006611Y-141933436D01*
X96047000Y-142136484D01*
X96047000Y-142343516D01*
X96006611Y-142546564D01*
X95927385Y-142737833D01*
X95927384Y-142737835D01*
X95812365Y-142909973D01*
X95665973Y-143056365D01*
X95493835Y-143171384D01*
X95493834Y-143171385D01*
X95493833Y-143171385D01*
X95302564Y-143250611D01*
X95099516Y-143291000D01*
X94892484Y-143291000D01*
X94689436Y-143250611D01*
X94498167Y-143171385D01*
X94498166Y-143171385D01*
X94498165Y-143171384D01*
X94326027Y-143056365D01*
X94179635Y-142909973D01*
X94064616Y-142737835D01*
X94064615Y-142737833D01*
X93985389Y-142546564D01*
X93945000Y-142343516D01*
X93945000Y-142136484D01*
X93985389Y-141933436D01*
X94064615Y-141742167D01*
X94179635Y-141570027D01*
X94326027Y-141423635D01*
X94498165Y-141308616D01*
X94498167Y-141308615D01*
X94689436Y-141229389D01*
X94892484Y-141189000D01*
X95099516Y-141189000D01*
X95302564Y-141229389D01*
X95302564Y-141229389D01*
G37*
G36*
X84507564Y-141229389D02*
G01*
X84698833Y-141308615D01*
X84698835Y-141308616D01*
X84870973Y-141423635D01*
X85017365Y-141570027D01*
X85132385Y-141742167D01*
X85211611Y-141933436D01*
X85252000Y-142136484D01*
X85252000Y-142343516D01*
X85211611Y-142546564D01*
X85132385Y-142737833D01*
X85132384Y-142737835D01*
X85017365Y-142909973D01*
X84870973Y-143056365D01*
X84698835Y-143171384D01*
X84698834Y-143171385D01*
X84698833Y-143171385D01*
X84507564Y-143250611D01*
X84304516Y-143291000D01*
X84097484Y-143291000D01*
X83894436Y-143250611D01*
X83703167Y-143171385D01*
X83703166Y-143171385D01*
X83703165Y-143171384D01*
X83531027Y-143056365D01*
X83384635Y-142909973D01*
X83269616Y-142737835D01*
X83269615Y-142737833D01*
X83190389Y-142546564D01*
X83150000Y-142343516D01*
X83150000Y-142136484D01*
X83190389Y-141933436D01*
X83269615Y-141742167D01*
X83384635Y-141570027D01*
X83531027Y-141423635D01*
X83703165Y-141308616D01*
X83703167Y-141308615D01*
X83894436Y-141229389D01*
X84097484Y-141189000D01*
X84304516Y-141189000D01*
X84507564Y-141229389D01*
X84507564Y-141229389D01*
G37*
G36*
X127687564Y-141229389D02*
G01*
X127878833Y-141308615D01*
X127878835Y-141308616D01*
X128050973Y-141423635D01*
X128197365Y-141570027D01*
X128312385Y-141742167D01*
X128391611Y-141933436D01*
X128432000Y-142136484D01*
X128432000Y-142343516D01*
X128391611Y-142546564D01*
X128312385Y-142737833D01*
X128312384Y-142737835D01*
X128197365Y-142909973D01*
X128050973Y-143056365D01*
X127878835Y-143171384D01*
X127878834Y-143171385D01*
X127878833Y-143171385D01*
X127687564Y-143250611D01*
X127484516Y-143291000D01*
X127277484Y-143291000D01*
X127074436Y-143250611D01*
X126883167Y-143171385D01*
X126883166Y-143171385D01*
X126883165Y-143171384D01*
X126711027Y-143056365D01*
X126564635Y-142909973D01*
X126449616Y-142737835D01*
X126449615Y-142737833D01*
X126370389Y-142546564D01*
X126330000Y-142343516D01*
X126330000Y-142136484D01*
X126370389Y-141933436D01*
X126449615Y-141742167D01*
X126564635Y-141570027D01*
X126711027Y-141423635D01*
X126883165Y-141308616D01*
X126883167Y-141308615D01*
X127074436Y-141229389D01*
X127277484Y-141189000D01*
X127484516Y-141189000D01*
X127687564Y-141229389D01*
X127687564Y-141229389D01*
G37*
G36*
X123392564Y-141229389D02*
G01*
X123583833Y-141308615D01*
X123583835Y-141308616D01*
X123755973Y-141423635D01*
X123902365Y-141570027D01*
X124017385Y-141742167D01*
X124096611Y-141933436D01*
X124137000Y-142136484D01*
X124137000Y-142343516D01*
X124096611Y-142546564D01*
X124017385Y-142737833D01*
X124017384Y-142737835D01*
X123902365Y-142909973D01*
X123755973Y-143056365D01*
X123583835Y-143171384D01*
X123583834Y-143171385D01*
X123583833Y-143171385D01*
X123392564Y-143250611D01*
X123189516Y-143291000D01*
X122982484Y-143291000D01*
X122779436Y-143250611D01*
X122588167Y-143171385D01*
X122588166Y-143171385D01*
X122588165Y-143171384D01*
X122416027Y-143056365D01*
X122269635Y-142909973D01*
X122154616Y-142737835D01*
X122154615Y-142737833D01*
X122075389Y-142546564D01*
X122035000Y-142343516D01*
X122035000Y-142136484D01*
X122075389Y-141933436D01*
X122154615Y-141742167D01*
X122269635Y-141570027D01*
X122416027Y-141423635D01*
X122588165Y-141308616D01*
X122588167Y-141308615D01*
X122779436Y-141229389D01*
X122982484Y-141189000D01*
X123189516Y-141189000D01*
X123392564Y-141229389D01*
X123392564Y-141229389D01*
G37*
G36*
X91007564Y-141229389D02*
G01*
X91198833Y-141308615D01*
X91198835Y-141308616D01*
X91370973Y-141423635D01*
X91517365Y-141570027D01*
X91632385Y-141742167D01*
X91711611Y-141933436D01*
X91752000Y-142136484D01*
X91752000Y-142343516D01*
X91711611Y-142546564D01*
X91632385Y-142737833D01*
X91632384Y-142737835D01*
X91517365Y-142909973D01*
X91370973Y-143056365D01*
X91198835Y-143171384D01*
X91198834Y-143171385D01*
X91198833Y-143171385D01*
X91007564Y-143250611D01*
X90804516Y-143291000D01*
X90597484Y-143291000D01*
X90394436Y-143250611D01*
X90203167Y-143171385D01*
X90203166Y-143171385D01*
X90203165Y-143171384D01*
X90031027Y-143056365D01*
X89884635Y-142909973D01*
X89769616Y-142737835D01*
X89769615Y-142737833D01*
X89690389Y-142546564D01*
X89650000Y-142343516D01*
X89650000Y-142136484D01*
X89690389Y-141933436D01*
X89769615Y-141742167D01*
X89884635Y-141570027D01*
X90031027Y-141423635D01*
X90203165Y-141308616D01*
X90203167Y-141308615D01*
X90394436Y-141229389D01*
X90597484Y-141189000D01*
X90804516Y-141189000D01*
X91007564Y-141229389D01*
X91007564Y-141229389D01*
G37*
G36*
X126127000Y-139566000D02*
G01*
X124825000Y-139566000D01*
X124825000Y-138564000D01*
X126127000Y-138564000D01*
X126127000Y-139566000D01*
X126127000Y-139566000D01*
G37*
G36*
X128327000Y-139566000D02*
G01*
X127025000Y-139566000D01*
X127025000Y-138564000D01*
X128327000Y-138564000D01*
X128327000Y-139566000D01*
X128327000Y-139566000D01*
G37*
M02*
